<svg xmlns="http://www.w3.org/2000/svg" viewBox="0 0 256 256"><defs><style>.a{fill:#cfd8dc;}.b,.g{fill:none;stroke-miterlimit:10;stroke-width:2px;}.b{stroke:#263238;}.c{fill:#03a9f4;}.d{fill:#009688;}.e{fill:#37474f;}.f{fill:#fff;}.g{stroke:#b0bec5;fill-rule:evenodd;}.h{fill:#ef5350;}.i{fill:#b0bec5;}</style></defs><title>agenda-themes</title><circle class="a" cx="128" cy="128" r="122"/><line class="b" y1="218" x2="256" y2="218"/><path class="c" d="M201.5,120.75c0,0.64,0,1.29,0,1.92s0,1.24,0,1.86-0.09,1.32-.13,2-0.08,1.15-.14,1.74-0.16,1.38-.24,2.06-0.14,1.08-.21,1.6c-0.1.72-.24,1.44-0.37,2.15-0.07.5-.16,1-0.25,1.47-0.15.73-.33,1.47-0.5,2.22-0.1.44-.19,0.88-0.31,1.32-0.18.77-.41,1.53-0.63,2.28-0.11.41-.21,0.81-0.33,1.2-0.24.78-.51,1.55-0.76,2.31-0.14.38-.24,0.74-0.37,1.11-0.28.78-.59,1.54-0.9,2.31-0.13.34-.25,0.69-0.41,1-0.31.78-.68,1.55-1,2.31-0.15.31-.28,0.63-0.44,0.95-0.36.76-.73,1.5-1.12,2.25-0.16.31-.31,0.63-0.48,0.93-0.39.74-.81,1.44-1.22,2.16-0.18.32-.36,0.63-0.54,0.93-0.42.71-.85,1.38-1.29,2.06l-0.62.94c-0.44.65-.88,1.29-1.35,1.92-0.22.33-.45,0.66-0.69,1l-1.37,1.75c-0.28.35-.54,0.71-0.82,1-0.44.54-.9,1.06-1.37,1.6-0.31.36-.62,0.73-0.94,1.09s-0.89.94-1.34,1.43-0.72.76-1.09,1.14-0.87.84-1.31,1.26-0.82.81-1.26,1.2-0.83.72-1.23,1.08-1,.86-1.44,1.26l-1.17.93-1.62,1.28c-0.36.27-.73,0.53-1.09,0.78-0.6.44-1.19,0.87-1.8,1.29-0.33.23-.68,0.44-1,0.66-0.65.42-1.31,0.85-2,1.26-0.3.19-.62,0.36-0.93,0.56-0.71.42-1.43,0.84-2.15,1.23-0.3.16-.59,0.3-0.88,0.45-0.75.41-1.52,0.81-2.3,1.19l-0.84.39c-0.79.38-1.6,0.73-2.41,1.09-0.27.1-.56,0.21-0.82,0.33-0.84.33-1.66,0.68-2.52,1-0.27.1-.56,0.19-0.84,0.28-0.85.3-1.69,0.6-2.56,0.87l-0.9.27c-0.85.25-1.71,0.5-2.58,0.72-0.33.09-.66,0.16-1,0.24-0.85.21-1.69,0.41-2.55,0.59l-1.14.21c-0.81.16-1.62,0.31-2.44,0.45l-1.32.17c-0.78.1-1.56,0.22-2.34,0.3-0.51.06-1,.09-1.53,0.12-0.72.06-1.44,0.13-2.18,0.16-0.59,0-1.19,0-1.77.06s-0.87,0-1.29,0c-0.24,0-.5,0-0.75,0h-0.7c-0.91,0-1.8,0-2.7-.06l-1,0c-1-.06-2-0.13-3-0.24l-1.17-.14c-0.66-.07-1.32-0.15-2-0.25s-1.16-.16-1.74-0.25l-1-.18c-0.7-.13-1.41-0.27-2.1-0.42l-1.05-.22c-0.61-.14-1.24-0.29-1.86-0.45l-1.52-.41a1.64,1.64,0,0,1-.25-0.07,72.93,72.93,0,0,1-18.21-8c0.52-.54,1.14-1.2,1.83-2,5.67-6.47,1.62-7.28-.8-13.73s-11.31-5.66-14.52-5.66c-2.51,0-8.34-1.89-10.87-2.77a73.9,73.9,0,0,1-8.16-18.27c-0.17-.54-0.32-1.09-0.45-1.63-0.24-.89-0.45-1.78-0.65-2.69s-0.34-1.53-.49-2.31c-0.09-.45-0.16-0.9-0.24-1.35s-0.18-1-.25-1.53c-0.15-1-.29-2-0.39-3l-0.09-.94c-0.07-.89-0.15-1.77-0.2-2.66,0-.24,0-0.48,0-0.73,0-.89-0.06-1.76-0.08-2.66,0-.2,0-0.41,0-0.62,0-1.41,0-2.8.1-4.2l0-.48c0.08-1.25.16-2.49,0.32-3.73,0-.31.07-0.64,0.12-1,0.13-1.09.28-2.2,0.48-3.28,0-.28.09-0.57,0.15-0.85,0.22-1.2.46-2.39,0.73-3.57l0.09-.39q0.34-1.37.72-2.75c0.11-.37.21-0.75,0.33-1.12,0.39-1.31.82-2.58,1.27-3.84A73.86,73.86,0,0,1,83.95,62.3c3,0,5.55.21,6.41,1.59,1.89,3.13-2.46,7.59-2.44,11.34s0.75,15.1,2.64,17.61,3.21,7.53,7.64,10.63,7.57,5.59,10.71,6.84a64.14,64.14,0,0,1,6.84,2.92c1.39,0.78,2.16,1.53,1.36,2.05-1.87,1.28-3.11,3.17-1.17,10.07s2,7.53,5.12,11.28,5.68,5,5.71,9.42-1.8,13.23-.52,17,2.58,11.3,5.11,11.91,8.21,5,6.3,1.22S131.9,165.5,135,162.35s7.52-4.46,9.38-10.75S150,144,150,144l2.46-7.57,2.49-5s-2-6.29-10.12-8.75-0.65-3.14-9.47-6.86-8.27-7.5-10.74-6.22a48.61,48.61,0,0,1-7.55,2.55l-0.21-.18-6.12-5.43s-12.6-5.56-8.23-11.26,8.11-8.86,10.64-4.47,3.19,4.38,5-1.29,9.34-13.9,12.48-13.92,5.61-5.09,5.61-5.09,11.34-.06,4.4-4.41-6.34-6.27-10.09-1.83-4.38.66-6.89,0.69,0.57-7.57,3.09-7.59S124.22,50.45,118,53s-19.5,1.39-19.5,1.39l-1.11-.12A73.34,73.34,0,0,1,119.29,48a3,3,0,0,1,.39-0.06c1-.12,2.06-0.2,3.08-0.27l1-.08c0.87-.06,1.76-0.07,2.63-0.09,0.47,0,.93,0,1.4,0,0.63,0,1.26,0,1.89,0s1.26,0,1.89,0,1.26,0.09,1.88.13,1.25,0.07,1.86.13,1.26,0.15,1.89.23,1.19,0.13,1.78.23l1.91,0.33c0.57,0.1,1.14.2,1.71,0.31s1.28,0.27,1.92.42,1.09,0.24,1.63.38,1.28,0.36,1.92.54l1.56,0.44,1.92,0.64c0.49,0.17,1,.33,1.5.51s1.26,0.48,1.89.72c0.48,0.2,1,.38,1.44.57L158.21,54c0.47,0.23.94,0.42,1.41,0.65s1.2,0.6,1.8.9l1.37,0.7c0.6,0.32,1.17.66,1.74,1L165.88,58c0.57,0.34,1.11.7,1.66,1l1.34,0.86L170.44,61,171.77,62c0.49,0.38,1,.77,1.45,1.14s0.9,0.69,1.34,1,0.9,0.77,1.37,1.16,0.88,0.75,1.3,1.14,0.86,0.8,1.28,1.2,0.87,0.81,1.29,1.23,0.8,0.81,1.19,1.21,0.86,0.89,1.28,1.34l1.08,1.23c0.41,0.48.82,0.95,1.23,1.44s0.68,0.82,1,1.24,0.81,1,1.19,1.53,0.62,0.84.93,1.28,0.76,1,1.14,1.61,0.56,0.85.84,1.29,0.74,1.11,1.08,1.68,0.53,0.9.78,1.33c0.33,0.59.67,1.16,1,1.74s0.5,0.93.74,1.38,0.62,1.19.9,1.78,0.45,1,.67,1.45,0.56,1.19.81,1.78,0.41,1,.62,1.53,0.48,1.19.71,1.8,0.38,1.07.55,1.61,0.42,1.2.62,1.8,0.33,1.12.48,1.69,0.36,1.18.51,1.78,0.28,1.19.42,1.77,0.28,1.17.42,1.77,0.22,1.25.34,1.86l0.31,1.76c0.09,0.63.16,1.27,0.25,1.91s0.15,1.17.22,1.77,0.1,1.29.15,1.94,0.1,1.2.13,1.8,0,1.28.06,1.92c0,0.27,0,.54,0,0.81S201.49,120.41,201.5,120.75Z"/><path class="d" d="M155,131.4l-2.49,5L150,144s-3.75,1.28-5.59,7.58-6.24,7.57-9.37,10.75,0.69,10.06,2.61,13.81-3.77-.6-6.3-1.22-3.83-8.16-5.11-11.91,0.55-12.57.52-17-2.55-5.64-5.71-9.42-3.2-4.36-5.12-11.28-0.7-8.79,1.17-10.07c0.8-.52,0-1.27-1.36-2.05l1.14-1.29,0.21,0.18a48.61,48.61,0,0,0,7.55-2.55c2.47-1.28,1.89,2.5,10.74,6.22s1.27,4.39,9.47,6.86S155,131.4,155,131.4Z"/><path class="d" d="M140.68,66.08c6.94,4.35-4.4,4.41-4.4,4.41s-2.46,5.07-5.61,5.09S120,83.81,118.19,89.49s-2.47,5.68-5,1.29-6.3-1.22-10.64,4.47,8.24,11.26,8.24,11.26l6.12,5.43-1.14,1.29a64.14,64.14,0,0,0-6.84-2.92c-3.14-1.25-6.3-3.75-10.71-6.84s-5.72-8.13-7.64-10.63S87.94,79,87.91,75.23,92.24,67,90.35,63.89c-0.85-1.38-3.43-1.62-6.41-1.59a73.86,73.86,0,0,0-25.08,33.8,73.48,73.48,0,0,1,60.42-48,73.34,73.34,0,0,0-21.94,6.23l1.11,0.12S111.67,55.56,118,53s11.34,4.32,8.83,4.35-5.61,7.59-3.09,7.59,3.14,3.73,6.89-.69S133.73,61.71,140.68,66.08Z"/><path class="d" d="M89.92,183.8a72.93,72.93,0,0,0,18.21,8A73.51,73.51,0,0,1,57.4,141.38a73.9,73.9,0,0,0,8.16,18.27c2.53,0.88,8.37,2.77,10.88,2.77,3.21,0,12.1-.79,14.52,5.66s6.47,7.26.8,13.73C91.06,182.6,90.44,183.26,89.92,183.8Z"/><path class="b" d="M119.29,48a73.48,73.48,0,0,0-60.42,48c-0.48,1.26-.9,2.53-1.27,3.84-0.12.37-.23,0.75-0.33,1.12"/><path class="b" d="M111.76,192.68c0.34,0.09.7,0.16,1.05,0.22"/><path class="b" d="M108.38,191.82c0.5,0.15,1,.28,1.52.41"/><path class="b" d="M56.95,139.74c0.13,0.55.28,1.09,0.45,1.63a73.51,73.51,0,0,0,50.73,50.37"/><path class="b" d="M55.81,134.75c0.15,0.78.3,1.54,0.49,2.31"/><path class="b" d="M128.95,194.49c0.42,0,.86,0,1.29,0"/><path class="b" d="M201.5,120.75v-0.24c0-.29,0-0.56,0-0.81"/><path class="b" d="M54.52,121.89c0,0.9,0,1.77.08,2.66"/><path class="b" d="M130.24,194.45c0.58,0,1.18,0,1.77-.06,0.74,0,1.46-.1,2.18-0.16,0.51,0,1-.06,1.53-0.12,0.78-.07,1.56-0.19,2.34-0.3l1.32-.17c0.82-.13,1.63-0.28,2.44-0.45L143,193c0.85-.18,1.69-0.37,2.55-0.59,0.33-.07.66-0.15,1-0.24,0.87-.22,1.72-0.47,2.58-0.72l0.9-.27c0.87-.27,1.71-0.57,2.56-0.87,0.28-.09.57-0.18,0.84-0.28,0.86-.31,1.68-0.66,2.52-1,0.27-.12.56-0.22,0.82-0.33,0.81-.36,1.62-0.72,2.41-1.09l0.84-.39c0.78-.37,1.55-0.78,2.3-1.19,0.3-.15.59-0.28,0.88-0.45,0.72-.39,1.44-0.81,2.15-1.23,0.31-.2.63-0.36,0.93-0.56,0.67-.41,1.33-0.84,2-1.26,0.34-.23.69-0.44,1-0.66,0.61-.42,1.2-0.85,1.8-1.29,0.36-.25.74-0.51,1.09-0.78l1.62-1.28,1.17-.93c0.48-.41,1-0.84,1.44-1.26s0.82-.7,1.23-1.08,0.84-.8,1.26-1.2,0.87-.82,1.31-1.26,0.72-.76,1.09-1.14,0.9-.95,1.34-1.43,0.63-.74.94-1.09c0.47-.54.93-1.06,1.37-1.6,0.28-.33.54-0.69,0.82-1l1.37-1.75c0.24-.33.47-0.66,0.69-1,0.47-.63.91-1.28,1.35-1.92l0.62-.94c0.44-.68.87-1.35,1.29-2.06,0.18-.3.36-0.61,0.54-0.93,0.41-.72.83-1.42,1.22-2.16,0.16-.3.31-0.61,0.48-0.93,0.39-.75.77-1.49,1.13-2.25,0.15-.32.29-0.63,0.44-0.95,0.34-.76.71-1.53,1-2.31,0.15-.33.27-0.67,0.41-1,0.31-.77.62-1.53,0.9-2.31,0.13-.37.24-0.74,0.38-1.11,0.25-.76.53-1.53,0.76-2.31,0.12-.39.22-0.79,0.33-1.2,0.22-.75.45-1.51,0.63-2.28,0.12-.44.21-0.88,0.31-1.32,0.16-.75.34-1.49,0.5-2.22,0.09-.48.18-1,0.25-1.47,0.13-.71.27-1.43,0.38-2.15,0.07-.53.13-1.06,0.21-1.6s0.18-1.37.24-2.06,0.09-1.17.14-1.74,0.1-1.32.13-2,0-1.25,0-1.86,0-1.28,0-1.92c0-.34,0-0.7,0-1s0-.54,0-0.81c0-.64,0-1.29-0.06-1.92s-0.09-1.2-.13-1.8-0.09-1.29-.15-1.94-0.15-1.17-.22-1.77-0.16-1.28-.25-1.91l-0.31-1.76c-0.12-.61-0.23-1.24-0.34-1.86s-0.27-1.18-.42-1.77-0.27-1.19-.42-1.77-0.33-1.2-.51-1.78-0.31-1.14-.48-1.69-0.41-1.2-.62-1.8S197.15,96,197,95.52s-0.47-1.2-.71-1.8-0.41-1-.62-1.53-0.54-1.2-.81-1.78-0.44-1-.67-1.45-0.6-1.19-.9-1.78-0.48-.93-0.74-1.38-0.66-1.15-1-1.74c-0.25-.44-0.51-0.9-0.78-1.33S190,81.59,189.67,81s-0.55-.87-0.84-1.29-0.76-1.08-1.14-1.61-0.62-.86-0.93-1.28-0.78-1-1.19-1.53-0.66-.84-1-1.24-0.82-1-1.23-1.44l-1.08-1.23c-0.42-.45-0.85-0.89-1.28-1.34s-0.78-.81-1.19-1.21-0.85-.83-1.29-1.23-0.84-.81-1.28-1.2-0.87-.75-1.3-1.14-0.9-.78-1.37-1.16-0.88-.7-1.34-1-1-.77-1.45-1.14L170.44,61l-1.56-1.09-1.34-.86c-0.55-.34-1.09-0.7-1.66-1l-1.35-.77c-0.57-.33-1.14-0.67-1.74-1l-1.37-.7c-0.6-.3-1.2-0.62-1.8-0.9s-0.94-.42-1.41-0.65l-1.86-.82c-0.47-.2-1-0.37-1.44-0.57-0.63-.24-1.26-0.49-1.89-0.72s-1-.34-1.5-0.51l-1.92-.64L148,50.3c-0.64-.18-1.28-0.37-1.92-0.54s-1.09-.24-1.63-0.37-1.28-.3-1.92-0.42-1.14-.21-1.71-0.31L139,48.32c-0.6-.09-1.19-0.15-1.78-0.23s-1.26-.16-1.89-0.23-1.23-.09-1.86-0.13-1.25-.11-1.87-0.13-1.26,0-1.89,0-1.26,0-1.89,0c-0.47,0-.93,0-1.4,0-0.87,0-1.75,0-2.62.09l-1,.08c-1,.08-2.06.15-3.08,0.27a3,3,0,0,0-.39.06,73.34,73.34,0,0,0-21.94,6.23l1.11,0.12S111.67,55.56,118,53s11.34,4.32,8.83,4.35-5.61,7.59-3.09,7.59,3.14,3.73,6.89-.69,3.15-2.54,10.09,1.83-4.4,4.41-4.4,4.41-2.46,5.07-5.61,5.09S120,83.81,118.19,89.49s-2.47,5.68-5,1.29-6.3-1.22-10.64,4.47,8.24,11.26,8.24,11.26l6.12,5.43,0.21,0.18a48.61,48.61,0,0,0,7.55-2.55c2.47-1.28,1.89,2.5,10.74,6.22s1.27,4.39,9.47,6.86S155,131.4,155,131.4l-2.49,5L150,144s-3.75,1.28-5.59,7.58-6.24,7.57-9.37,10.75,0.69,10.06,2.61,13.81-3.77-.6-6.3-1.22-3.83-8.16-5.11-11.91,0.55-12.57.52-17-2.55-5.64-5.71-9.42-3.2-4.36-5.12-11.28-0.7-8.79,1.17-10.07c0.8-.52,0-1.27-1.36-2.05a64.14,64.14,0,0,0-6.84-2.92c-3.14-1.25-6.3-3.75-10.71-6.84s-5.72-8.13-7.64-10.63S87.94,79,87.91,75.23,92.24,67,90.35,63.89c-0.85-1.38-3.43-1.62-6.41-1.59a73.86,73.86,0,0,0-25.08,33.8c-0.45,1.26-.89,2.53-1.27,3.84-0.11.37-.23,0.75-0.33,1.12q-0.38,1.37-.72,2.75l-0.09.39c-0.27,1.19-.51,2.37-0.73,3.57-0.06.28-.11,0.57-0.15,0.85-0.2,1.08-.34,2.19-0.48,3.28,0,0.32-.09.65-0.12,1-0.15,1.25-.24,2.49-0.32,3.73l0,0.48c-0.07,1.39-.1,2.79-0.1,4.2,0,0.21,0,.42,0,0.62,0,0.9,0,1.77.08,2.66,0,0.25,0,.49,0,0.73,0,0.88.12,1.77,0.2,2.66l0.09,0.94c0.1,1,.24,2,0.39,3,0.07,0.51.16,1,.25,1.53s0.15,0.9.24,1.35c0.15,0.78.3,1.54,0.49,2.31s0.41,1.8.65,2.69c0.13,0.54.28,1.09,0.45,1.63a73.9,73.9,0,0,0,8.16,18.27c2.53,0.88,8.37,2.77,10.88,2.77,3.21,0,12.1-.79,14.52,5.66s6.47,7.26.8,13.73c-0.69.79-1.31,1.45-1.83,2a72.93,72.93,0,0,0,18.21,8,1.64,1.64,0,0,0,.25.07l1.52,0.41c0.62,0.16,1.25.31,1.86,0.45l1.05,0.22c0.69,0.15,1.39.28,2.1,0.42l1,0.18c0.59,0.09,1.16.18,1.74,0.25s1.3,0.18,2,.25l1.17,0.14c1,0.1,2,.18,3,0.24l1,0c0.9,0,1.78.06,2.7,0.06h0.7c0.25,0,.51,0,0.75,0C129.38,194.49,129.82,194.46,130.24,194.45Z"/><polygon class="a" points="210.56 178.25 210.56 182 170.56 182 170.56 174 210.56 174 210.56 178.25"/><polygon class="e" points="187.56 158 194.43 158 194.56 158.14 194.56 165 186.56 165 186.56 158.94 187.5 158 187.56 158"/><polygon class="f" points="226.56 195 226.56 209 220.56 209 212.56 209 180.56 209 172.56 209 162.56 209 170.09 195 210.56 195 224.56 195 226.56 195"/><polygon class="f" points="197.56 151 197.56 151.29 197.56 158 194.56 158 194.43 158 187.56 158 187.5 158 186.56 158 183.56 158 183.56 152 183.56 151.76 183.56 118 186.56 118 194.56 118 197.56 118 197.56 122 197.56 122.1 197.56 140 197.56 140.24 197.56 151"/><path class="e" d="M224.56,175.38a7.2,7.2,0,1,1-6.6-4.33A7.23,7.23,0,0,1,224.56,175.38Z"/><rect class="a" x="186.56" y="111" width="8" height="7"/><path class="f" d="M210.56,174V152.71c0-6-7.76-11.12-13-12.47V122.1c13.33,1.51,27,14.64,27,30.61v22.67a7.2,7.2,0,0,0-13.8,2.87h-0.2V174Z"/><polygon class="e" points="195.56 105 195.56 111 194.56 111 186.56 111 185.56 111 185.56 105 195.56 105"/><rect class="a" x="212.56" y="209" width="8" height="5"/><rect class="a" x="172.56" y="209" width="8" height="5"/><path class="f" d="M210.56,195V178.25h0.2a7.2,7.2,0,0,0,13.8,2.87V195h-14Z"/><polygon class="e" points="205.37 158.76 200.28 163.85 194.56 158.14 194.56 158 197.56 158 197.56 151.29 197.72 151.12 205.37 158.76"/><polygon class="e" points="186.56 158 186.56 158.94 181.66 163.85 176.56 158.76 183.56 151.76 183.56 152 183.56 158 186.56 158"/><polyline class="b" points="183.56 151.76 176.56 158.76 181.66 163.85 186.56 158.94"/><polyline class="b" points="194.56 158.14 200.28 163.85 205.37 158.76 197.72 151.12 197.56 151.29"/><polyline class="b" points="212.56 209 212.56 214 220.56 214 220.56 209"/><polyline class="b" points="172.56 209 172.56 214 180.56 214 180.56 209"/><line class="b" x1="194.56" y1="118" x2="194.56" y2="111"/><line class="b" x1="186.56" y1="111" x2="186.56" y2="118"/><polyline class="b" points="186.56 158.94 186.56 165 194.56 165 194.56 158.14"/><polyline class="b" points="186.56 158 186.56 158.94 187.5 158"/><polyline class="b" points="194.43 158 194.56 158.14 194.56 158"/><line class="b" x1="224.56" y1="195" x2="224.56" y2="181.12"/><line class="b" x1="210.56" y1="182" x2="210.56" y2="195"/><path class="b" d="M197.56,140.24c5.24,1.35,13,6.49,13,12.47V174"/><path class="b" d="M224.56,175.38V152.71c0-16-13.67-29.1-27-30.61"/><polygon class="b" points="210.56 174 170.56 174 170.56 182 210.56 182 210.56 178.25 210.56 174"/><polyline class="b" points="197.56 122 197.56 118 194.56 118"/><polyline class="b" points="197.56 151 197.56 140.24 197.56 140"/><polyline class="b" points="186.56 118 183.56 118 183.56 151.76 183.56 152"/><polyline class="b" points="183.56 152 183.56 158 186.56 158"/><polyline class="b" points="194.56 158 197.56 158 197.56 151.29 197.56 151"/><line class="b" x1="194.56" y1="118" x2="186.56" y2="118"/><polyline class="b" points="187.56 158 194.43 158 194.56 158"/><polyline class="b" points="186.56 158 187.5 158 187.56 158"/><polyline class="b" points="197.56 140 197.56 122.1 197.56 122"/><path class="b" d="M224.56,181.12a7.16,7.16,0,0,0,0-5.74"/><path class="b" d="M224.56,175.38a7.2,7.2,0,1,0,0,5.74"/><polyline class="b" points="220.56 209 226.56 209 226.56 195 224.56 195"/><line class="b" x1="180.56" y1="209" x2="212.56" y2="209"/><polyline class="b" points="210.56 195 170.09 195 162.56 209 172.56 209"/><line class="b" x1="212.56" y1="209" x2="220.56" y2="209"/><line class="b" x1="172.56" y1="209" x2="180.56" y2="209"/><line class="b" x1="224.56" y1="195" x2="210.56" y2="195"/><polyline class="b" points="194.56 111 195.56 111 195.56 105 185.56 105 185.56 111 186.56 111"/><line class="b" x1="186.56" y1="111" x2="194.56" y2="111"/><path class="g" d="M155,14.12a11.42,11.42,0,0,1,6,9.71,10.43,10.43,0,0,1-2,6.08,14.67,14.67,0,0,1-12,5.75c-0.35,0-.69,0-1,0l-1.51,3.84a0.63,0.63,0,0,1-1.2.17l-4.67-6.35A11.32,11.32,0,0,1,133,23.83C133,17.3,139.27,12,147,12A15.75,15.75,0,0,1,155,14.12Z"/><path class="g" d="M238,80.12a11.42,11.42,0,0,1,6,9.71,10.43,10.43,0,0,1-2,6.08,14.67,14.67,0,0,1-12,5.75c-0.35,0-.69,0-1,0l-1.51,3.84a0.63,0.63,0,0,1-1.2.17l-4.67-6.35A11.32,11.32,0,0,1,216,89.83C216,83.3,222.27,78,230,78A15.75,15.75,0,0,1,238,80.12Z"/><path class="g" d="M44.42,57A10.6,10.6,0,0,1,50,66a9.69,9.69,0,0,1-1.85,5.64A13.62,13.62,0,0,1,37,77l-1,0-1.4,3.56a0.59,0.59,0,0,1-1.11.16L29.2,74.76A10.51,10.51,0,0,1,24,66c0-6.06,5.82-11,13-11A14.63,14.63,0,0,1,44.42,57Z"/><rect class="h" x="115.78" y="86.83" width="4.24" height="4.24" transform="translate(-28.36 109.42) rotate(-45)"/><rect class="h" x="122.93" y="73.98" width="4.24" height="4.24" transform="translate(-17.18 110.72) rotate(-45)"/><rect class="h" x="132.83" y="158.33" width="4.24" height="4.24" transform="translate(-73.93 142.42) rotate(-45)"/><rect class="h" x="141.4" y="127.88" width="4.24" height="4.24" transform="translate(-49.89 139.56) rotate(-45)"/><rect class="h" x="87.88" y="85.88" width="4.24" height="4.24" transform="translate(-35.87 89.41) rotate(-45)"/><path class="i" d="M89.61,43.72l-3.83-3.83-0.14-.11a6.34,6.34,0,1,0-1.86,1.86l0.11,0.14,3.83,3.83A1.33,1.33,0,1,0,89.61,43.72Zm-9.28-3.06a4.33,4.33,0,1,1,4.33-4.33A4.34,4.34,0,0,1,80.33,40.67Z"/><path class="i" d="M207.61,51.72l-3.83-3.83-0.14-.11a6.34,6.34,0,1,0-1.86,1.86l0.11,0.14,3.83,3.83A1.33,1.33,0,1,0,207.61,51.72Zm-9.28-3.06a4.33,4.33,0,1,1,4.33-4.33A4.34,4.34,0,0,1,198.33,48.67Z"/><path class="i" d="M21.1,117.63l-3.83-3.83-0.14-.11a6.34,6.34,0,1,0-1.86,1.86l0.11,0.14,3.83,3.83A1.33,1.33,0,1,0,21.1,117.63Zm-9.28-3.06a4.33,4.33,0,1,1,4.33-4.33A4.34,4.34,0,0,1,11.82,114.57Z"/><polygon class="f" points="123 116.5 123 162.5 97 162.5 97 157.5 118 157.5 118 121.5 82 121.5 82 142.5 77 142.5 77 116.5 123 116.5"/><polygon class="e" points="118 121.5 118 157.5 97 157.5 97 142.5 82 142.5 82 121.5 118 121.5"/><path class="a" d="M92,162.5v16.19a35.52,35.52,0,0,0-4.1.72,24.6,24.6,0,0,0-6.17,2.22,16.28,16.28,0,0,0-2.85,1.87H56v-36H92v15Z"/><path class="d" d="M79.21,212.25a4,4,0,0,1,0,.49,0.79,0.79,0,0,1-.58.69,0.72,0.72,0,0,1-.87-0.21,6.46,6.46,0,0,1-.72-1.17,58,58,0,0,1-3.12-8,20.46,20.46,0,0,1-.9-6.95,28,28,0,0,1,.93-6.29,15,15,0,0,1,.93-2.32,14.64,14.64,0,0,1,2.68-3.82,17.43,17.43,0,0,1,4.17-3,24.6,24.6,0,0,1,6.17-2.22,35.52,35.52,0,0,1,4.1-.72c1.17-.14,2.35-0.24,3.53-0.27l1.47,0c2.52,0,5.06.1,7.59,0.1H105v-7a2.19,2.19,0,0,1,.43-1.25,1.85,1.85,0,0,1,2.52-.36,1.79,1.79,0,0,1,.25.22c1.47,1.43,2.92,2.87,4.38,4.31q4.69,4.61,9.37,9.23a12.62,12.62,0,0,1,1,1.36v0.78h0a8.43,8.43,0,0,1-2,2.24c-1.82,1.82-3.67,3.62-5.52,5.43L110,198.85l-1.73,1.7a1.84,1.84,0,0,1-2.15.45,2,2,0,0,1-1.11-1.8v-6.34a2.31,2.31,0,0,1,.12-0.36h-0.31c-3.54,0-7.08-.07-10.62.11a22,22,0,0,0-7.78,1.51A10.89,10.89,0,0,0,80,200.88a24.34,24.34,0,0,0-.95,9.21C79.08,210.81,79.16,211.53,79.21,212.25Z"/><path class="f" d="M56,183.5H78.88a16.36,16.36,0,0,0-1.32,1.18,14.64,14.64,0,0,0-2.68,3.82H51v-46H97v35.9l-1.47,0c-1.18,0-2.36.13-3.53,0.27V147.5H56v36Z"/><polygon class="f" points="71 126.5 71 142.5 66 142.5 66 131.5 30 131.5 30 167.5 51 167.5 51 172.5 25 172.5 25 126.5 71 126.5"/><polygon class="h" points="66 131.5 66 142.5 51 142.5 51 167.5 30 167.5 30 131.5 66 131.5"/><polyline class="b" points="71 142.5 71 126.5 25 126.5 25 172.5 51 172.5"/><polyline class="b" points="66 142.5 66 131.5 30 131.5 30 167.5 51 167.5"/><polyline class="b" points="97 162.5 123 162.5 123 116.5 77 116.5 77 142.5"/><polyline class="b" points="97 157.5 118 157.5 118 121.5 82 121.5 82 142.5"/><path class="b" d="M74.88,188.5a15,15,0,0,0-.93,2.32,28,28,0,0,0-.93,6.29,20.46,20.46,0,0,0,.9,6.95,58,58,0,0,0,3.12,8,6.46,6.46,0,0,0,.72,1.17,0.72,0.72,0,0,0,.87.21,0.79,0.79,0,0,0,.58-0.69,4,4,0,0,0,0-.49c0-.72-0.13-1.44-0.17-2.16a24.34,24.34,0,0,1,.95-9.21,10.89,10.89,0,0,1,6.42-6.76,22,22,0,0,1,7.78-1.51c3.54-.18,7.08-0.11,10.62-0.11h0.31a2.31,2.31,0,0,0-.12.36v6.34a2,2,0,0,0,1.11,1.8,1.84,1.84,0,0,0,2.15-.45l1.73-1.7,5.52-5.43c1.85-1.81,3.7-3.61,5.52-5.43a8.43,8.43,0,0,0,2-2.24h0V185a12.62,12.62,0,0,0-1-1.36q-4.68-4.62-9.37-9.23c-1.46-1.44-2.91-2.88-4.38-4.31a1.79,1.79,0,0,0-.25-0.22,1.85,1.85,0,0,0-2.52.36,2.19,2.19,0,0,0-.43,1.25v7h-0.41c-2.53,0-5.07-.15-7.59-0.1"/><path class="b" d="M78.88,183.5a16.28,16.28,0,0,1,2.85-1.87,24.6,24.6,0,0,1,6.17-2.22,35.52,35.52,0,0,1,4.1-.72"/><path class="b" d="M92,178.69c1.17-.14,2.35-0.24,3.53-0.27l1.47,0V142.5H51v46H74.88a14.64,14.64,0,0,1,2.68-3.82,16.36,16.36,0,0,1,1.32-1.18H56v-36H66"/><polyline class="b" points="92 178.69 92 162.5 92 157.5"/><polyline class="b" points="66 147.5 71 147.5 77 147.5 82 147.5 92 147.5 92 157.5"/></svg>