<svg xmlns="http://www.w3.org/2000/svg" viewBox="0 0 256 256"><defs><style>.a,.d{fill:#03a9f4;}.a{opacity:0.4;}.b{fill:#37474f;}.c{fill:#fff;}.e{fill:#cfd8dc;}.f{fill:#ef5350;}.g{fill:#009688;}.h,.i,.j,.k{fill:none;stroke-miterlimit:10;}.h,.i{stroke:#263238;}.h{stroke-width:2px;}.j,.k{stroke:#cfd8dc;}.k{stroke-linecap:round;}</style></defs><title>agenda-themes</title><circle class="a" cx="128" cy="128" r="122"/><polygon class="b" points="214 141 212 141 161 141 161 127 198 127 214 141"/><polygon class="c" points="212 141 212 147 211 147 161 147 161 144 161 141 212 141"/><rect class="d" x="195" y="190" width="10" height="16"/><rect class="d" x="195" y="170" width="10" height="16"/><rect class="d" x="195" y="150" width="10" height="16"/><path class="e" d="M205,150H195v16h10V150Zm-28,0H167v16h10V150Zm-16-3h50v67H161V147Zm30,3H181v16h10V150Zm14,56V190H195v16h10Zm0-20V170H195v16h10Zm-14,20V190H181v16h10Zm0-20V170H181v16h10Zm-14,20V190H167v16h10Zm0-20V170H167v16h10Z"/><rect class="d" x="181" y="190" width="10" height="16"/><rect class="d" x="181" y="170" width="10" height="16"/><rect class="d" x="181" y="150" width="10" height="16"/><rect class="d" x="167" y="190" width="10" height="16"/><rect class="d" x="167" y="170" width="10" height="16"/><rect class="d" x="167" y="150" width="10" height="16"/><path class="b" d="M128,68l38,40H90ZM98,105h60L128,73Z"/><polygon class="c" points="164 108 164 114 161 114 157 114 147 114 109 114 99 114 95 114 92 114 92 108 164 108"/><polygon class="e" points="161 144 161 147 161 214 157 214 157 147 157 141 157 127 157 114 161 114 161 127 161 141 161 144"/><polygon class="c" points="128 73 158 105 98 105 128 73"/><polygon class="c" points="157 147 157 214 147 214 147 174 147 150 147 147 147 144 147 141 147 127 147 120 147 114 157 114 157 127 157 141 157 147"/><rect class="d" x="141" y="150" width="6" height="24"/><path class="e" d="M121,144h14V120H121v24Zm26,3v3h-6v24h6v40h-6V192a13,13,0,0,0-26,0v22h-6V174h6V150h-6v-6h6V120h-6v-6h38v6h-6v24h6v3Zm-12,27V150H121v24h14Z"/><polygon class="d" points="147 141 147 144 141 144 141 141 141 127 141 120 147 120 147 127 147 141"/><rect class="d" x="121" y="150" width="14" height="24"/><polygon class="d" points="135 144 121 144 121 141 121 127 121 120 135 120 135 127 135 141 135 144"/><path class="f" d="M141,192v22H128V179A13,13,0,0,1,141,192Z"/><path class="f" d="M128,179v35H115V192A13,13,0,0,1,128,179Z"/><rect class="d" x="109" y="150" width="6" height="24"/><polygon class="d" points="115 141 115 144 109 144 109 141 109 127 109 120 115 120 115 127 115 141"/><polygon class="c" points="109 150 109 174 109 214 99 214 99 147 99 141 99 127 99 114 109 114 109 120 109 127 109 141 109 144 109 147 109 150"/><polygon class="e" points="99 147 99 214 95 214 95 147 95 144 95 141 95 127 95 114 99 114 99 127 99 141 99 147"/><polygon class="c" points="95 144 95 147 45 147 44 147 44 141 95 141 95 144"/><rect class="d" x="79" y="190" width="10" height="16"/><rect class="d" x="79" y="170" width="10" height="16"/><rect class="d" x="79" y="150" width="10" height="16"/><path class="e" d="M61,150H51v16H61V150ZM51,170v16H61V170H51Zm24-20H65v16H75V150Zm14,0H79v16H89V150Zm-44-3H95v67H45V188.84a14.52,14.52,0,0,0,0-17.68V147Zm44,59V190H79v16H89Zm0-20V170H79v16H89ZM75,206V190H65v16H75Zm0-20V170H65v16H75ZM61,206V190H51v16H61Z"/><rect class="d" x="65" y="190" width="10" height="16"/><rect class="d" x="65" y="170" width="10" height="16"/><rect class="d" x="65" y="150" width="10" height="16"/><rect class="d" x="51" y="190" width="10" height="16"/><rect class="d" x="51" y="170" width="10" height="16"/><rect class="d" x="51" y="150" width="10" height="16"/><path class="g" d="M45,171.16a14.52,14.52,0,0,1,0,17.68A18.66,18.66,0,0,1,30,196c-9.94,0-18-7.16-18-16s8.06-16,18-16A18.66,18.66,0,0,1,45,171.16Z"/><polygon class="b" points="42 141 58 127 95 127 95 141 44 141 42 141"/><line class="h" x1="141" y1="214" x2="147" y2="214"/><line class="h" x1="128" y1="179" x2="128" y2="178"/><line class="h" x1="109" y1="214" x2="115" y2="214"/><polyline class="h" points="45 188.84 45 214 95 214"/><line class="h" x1="45" y1="147" x2="45" y2="171.16"/><polyline class="h" points="161 214 211 214 211 147"/><polyline class="h" points="164 108 166 108 128 68 90 108 92 108"/><polygon class="h" points="128 73 98 105 158 105 128 73"/><polyline class="h" points="95 127 58 127 42 141 44 141"/><polyline class="h" points="212 141 214 141 198 127 161 127"/><rect class="h" x="121" y="150" width="14" height="24"/><rect class="h" x="51" y="150" width="10" height="16"/><rect class="h" x="65" y="150" width="10" height="16"/><rect class="h" x="79" y="150" width="10" height="16"/><rect class="h" x="51" y="170" width="10" height="16"/><rect class="h" x="65" y="170" width="10" height="16"/><rect class="h" x="79" y="170" width="10" height="16"/><rect class="h" x="51" y="190" width="10" height="16"/><rect class="h" x="65" y="190" width="10" height="16"/><rect class="h" x="79" y="190" width="10" height="16"/><rect class="h" x="167" y="150" width="10" height="16"/><rect class="h" x="181" y="150" width="10" height="16"/><rect class="h" x="195" y="150" width="10" height="16"/><rect class="h" x="167" y="170" width="10" height="16"/><rect class="h" x="181" y="170" width="10" height="16"/><rect class="h" x="195" y="170" width="10" height="16"/><rect class="h" x="167" y="190" width="10" height="16"/><rect class="h" x="181" y="190" width="10" height="16"/><rect class="h" x="195" y="190" width="10" height="16"/><polyline class="h" points="109 174 115 174 115 150 109 150"/><polyline class="h" points="147 150 141 150 141 174 147 174"/><path class="h" d="M128,214h13V192a13,13,0,0,0-13-13"/><path class="h" d="M128,179a13,13,0,0,0-13,13v22h13V179Z"/><polyline class="h" points="161 141 212 141 212 147 211 147"/><line class="h" x1="211" y1="147" x2="161" y2="147"/><polygon class="h" points="135 127 135 141 135 144 121 144 121 141 121 127 121 120 135 120 135 127"/><line class="h" x1="147" y1="144" x2="147" y2="141"/><polyline class="h" points="147 120 147 127 147 141"/><polyline class="h" points="157 141 157 127 157 114"/><polyline class="h" points="157 141 157 147 157 214 161 214 161 147 161 144 161 141 161 127 161 114"/><polyline class="h" points="147 147 147 150 147 174 147 214 157 214"/><line class="h" x1="147" y1="147" x2="147" y2="144"/><polyline class="h" points="147 114 147 120 141 120 141 127 141 141 141 144 147 144"/><polyline class="h" points="99 214 109 214 109 174 109 150 109 147"/><polyline class="h" points="95 147 95 214 99 214"/><polyline class="h" points="95 114 95 127 95 141"/><polyline class="h" points="109 144 115 144 115 141 115 127 115 120 109 120"/><line class="h" x1="109" y1="147" x2="109" y2="144"/><polyline class="h" points="99 114 99 127 99 141"/><polyline class="h" points="99 214 99 147 99 141"/><polyline class="h" points="95 144 95 141 44 141 44 147 45 147 95 147 95 144"/><polyline class="h" points="109 144 109 141 109 127"/><polyline class="h" points="109 114 99 114 95 114 92 114 92 108 164 108 164 114 161 114 157 114 147 114 109 114 109 120 109 127"/><path class="h" d="M45,171.16A18.66,18.66,0,0,0,30,164c-9.94,0-18,7.16-18,16s8.06,16,18,16a18.66,18.66,0,0,0,15-7.16,14.52,14.52,0,0,0,0-17.68"/><polyline class="i" points="30 176 30 186.17 30 192.33 30 196 30 215"/><line class="i" x1="19.17" y1="180" x2="30" y2="192.33"/><line class="i" x1="40.17" y1="174" x2="30" y2="186.17"/><line class="i" x1="220" y1="134" x2="220" y2="214"/><polyline class="i" points="128 68.25 128 68 128 58.25"/><polygon class="f" points="239 142 221 149 221 135 239 142"/><polygon class="f" points="143 62 129 66 129 58 143 62"/><line class="j" x1="102" y1="115" x2="102" y2="213"/><line class="j" x1="106" y1="115" x2="106" y2="213"/><line class="j" x1="149.88" y1="115" x2="149.88" y2="213"/><line class="j" x1="153.88" y1="115" x2="153.88" y2="213"/><line class="k" x1="104" y1="102" x2="152" y2="102"/><line class="k" x1="108" y1="98" x2="148" y2="98"/><line class="k" x1="112" y1="94" x2="144" y2="94"/><line class="k" x1="116" y1="90" x2="140" y2="90"/><line class="k" x1="120" y1="86" x2="136" y2="86"/><line class="k" x1="124" y1="82" x2="132" y2="82"/><line class="k" x1="127" y1="78" x2="129" y2="78"/><rect class="d" x="35.88" y="107.88" width="4.24" height="4.24" transform="translate(-66.65 59.09) rotate(-45)"/><rect class="d" x="77.88" y="65.88" width="4.24" height="4.24" transform="translate(-24.65 76.49) rotate(-45)"/><rect class="d" x="199.88" y="93.88" width="4.24" height="4.24" transform="translate(-8.72 170.95) rotate(-45)"/><rect class="d" x="223.88" y="53.88" width="4.24" height="4.24" transform="translate(26.6 176.21) rotate(-45)"/><path class="d" d="M40.66,66.85A11.67,11.67,0,0,1,35.24,68c-5,0-9.24-3.45-9.24-9A10.8,10.8,0,0,1,37.13,48c5.3,0,8.87,3.51,8.87,8.3,0,4.31-2.56,6.84-5.43,6.84a2.18,2.18,0,0,1-2.26-2.53H38.2a4.83,4.83,0,0,1-4.3,2.53,3.34,3.34,0,0,1-3.29-3.62,7,7,0,0,1,7.22-6.81,8.47,8.47,0,0,1,3.26.6l-1,5.2C39.6,60.7,40,61.71,41,61.74c1.55,0,3.29-1.93,3.29-5.26,0-4.17-2.65-7.16-7.38-7.16-5,0-9.15,3.71-9.15,9.54,0,4.8,3.32,7.76,7.83,7.76a10,10,0,0,0,4.6-1ZM39,54.44a5.57,5.57,0,0,0-1.53-.2,5.06,5.06,0,0,0-4.85,5.17,1.94,1.94,0,0,0,2,2.18c1.77,0,3.38-2.13,3.72-3.91Z"/><path class="d" d="M181.5,90.64a8.75,8.75,0,0,1-4.07.86,6.61,6.61,0,0,1-6.93-6.72,8.1,8.1,0,0,1,8.35-8.28c4,0,6.65,2.63,6.65,6.23,0,3.23-1.92,5.13-4.07,5.13a1.63,1.63,0,0,1-1.69-1.9h-0.09a3.63,3.63,0,0,1-3.22,1.9A2.5,2.5,0,0,1,174,85.14,5.25,5.25,0,0,1,179.37,80a6.35,6.35,0,0,1,2.45.45L181,84.39c-0.34,1.64-.07,2.39.69,2.41,1.17,0,2.47-1.44,2.47-3.94,0-3.13-2-5.37-5.53-5.37a6.79,6.79,0,0,0-6.86,7.16,5.54,5.54,0,0,0,5.88,5.82,7.49,7.49,0,0,0,3.45-.75Zm-1.26-9.31a4.18,4.18,0,0,0-1.14-.15,3.79,3.79,0,0,0-3.63,3.88A1.45,1.45,0,0,0,177,86.69c1.33,0,2.54-1.59,2.79-2.93Z"/><path class="d" d="M134.8,29.31a7,7,0,0,1-3.26.69A5.29,5.29,0,0,1,126,24.62,6.48,6.48,0,0,1,132.68,18c3.18,0,5.32,2.1,5.32,5,0,2.59-1.54,4.1-3.26,4.1a1.31,1.31,0,0,1-1.35-1.52h-0.07a2.9,2.9,0,0,1-2.58,1.52,2,2,0,0,1-2-2.17,4.2,4.2,0,0,1,4.33-4.09,5.08,5.08,0,0,1,2,.36l-0.62,3.12c-0.27,1.31-.06,1.91.55,1.93,0.93,0,2-1.16,2-3.15a4.07,4.07,0,0,0-4.43-4.29A5.43,5.43,0,0,0,127,24.52a4.43,4.43,0,0,0,4.7,4.66,6,6,0,0,0,2.76-.6Zm-1-7.45a3.34,3.34,0,0,0-.92-0.12,3,3,0,0,0-2.91,3.1,1.16,1.16,0,0,0,1.21,1.31c1.06,0,2-1.28,2.23-2.34Z"/><circle class="d" cx="14" cy="128" r="2"/><circle class="d" cx="174" cy="38" r="2"/><line class="h" y1="218" x2="256" y2="218"/><circle class="d" cx="86" cy="34" r="2"/><circle class="d" cx="236" cy="110" r="2"/></svg>