<svg xmlns="http://www.w3.org/2000/svg" viewBox="0 0 256 256"><defs><style>.a,.b,.h{fill:#009688;}.a{opacity:0.4;}.c{fill:none;stroke:#263238;stroke-miterlimit:10;stroke-width:2px;}.d{fill:#03a9f4;}.e{fill:#cfd8dc;}.f{fill:#ef5350;}.g{fill:#fff;}.h{fill-rule:evenodd;}</style></defs><title>agenda-themes</title><circle class="a" cx="128" cy="128" r="122"/><rect class="b" x="35.88" y="107.88" width="4.24" height="4.24" transform="translate(-66.65 59.09) rotate(-45)"/><rect class="b" x="77.88" y="65.88" width="4.24" height="4.24" transform="translate(-24.65 76.49) rotate(-45)"/><rect class="b" x="199.88" y="93.88" width="4.24" height="4.24" transform="translate(-8.72 170.95) rotate(-45)"/><rect class="b" x="223.88" y="53.88" width="4.24" height="4.24" transform="translate(26.6 176.21) rotate(-45)"/><circle class="b" cx="14" cy="128" r="2"/><circle class="b" cx="174" cy="38" r="2"/><line class="c" y1="218" x2="256" y2="218"/><circle class="b" cx="86" cy="34" r="2"/><circle class="b" cx="236" cy="110" r="2"/><path class="d" d="M87,118.5v14a2,2,0,0,0,2,2h20a2,2,0,0,0,2-2v-14a2,2,0,0,0-2-2H89A2,2,0,0,0,87,118.5Z"/><path class="e" d="M123,118.5v14a2,2,0,0,0,2,2h20a2,2,0,0,0,2-2v-14a2,2,0,0,0-2-2H125A2,2,0,0,0,123,118.5Z"/><path class="f" d="M123,53.5v13a2,2,0,0,0,2,2h20a2,2,0,0,0,2-2v-13a2,2,0,0,0-2-2H125A2,2,0,0,0,123,53.5Z"/><path class="b" d="M159,118.5v14a2,2,0,0,0,2,2h20a2,2,0,0,0,2-2v-14a2,2,0,0,0-2-2H161A2,2,0,0,0,159,118.5Z"/><path class="c" d="M89,134.5h20a2,2,0,0,0,2-2v-14a2,2,0,0,0-2-2H89a2,2,0,0,0-2,2v14A2,2,0,0,0,89,134.5Z"/><path class="c" d="M125,134.5h20a2,2,0,0,0,2-2v-14a2,2,0,0,0-2-2H125a2,2,0,0,0-2,2v14A2,2,0,0,0,125,134.5Z"/><path class="c" d="M161,134.5h20a2,2,0,0,0,2-2v-14a2,2,0,0,0-2-2H161a2,2,0,0,0-2,2v14A2,2,0,0,0,161,134.5Z"/><path class="c" d="M125,68.5h20a2,2,0,0,0,2-2v-13a2,2,0,0,0-2-2H125a2,2,0,0,0-2,2v13A2,2,0,0,0,125,68.5Z"/><polyline class="c" points="135 116.5 135 92.5 135 68.5"/><polyline class="c" points="172 92.5 171 92.5 171 116.5"/><polyline class="c" points="98 92.5 99 92.5 135 92.5 171 92.5"/><line class="c" x1="99" y1="116.5" x2="99" y2="92.5"/><line class="c" x1="171" y1="182.5" x2="171" y2="134.5"/><path class="b" d="M123,184.5v14a2,2,0,0,0,2,2h20a2,2,0,0,0,2-2v-14a2,2,0,0,0-2-2H125A2,2,0,0,0,123,184.5Z"/><rect class="f" x="159" y="182.5" width="24" height="18" rx="2" ry="2"/><path class="e" d="M195,184.5v14a2,2,0,0,0,2,2h20a2,2,0,0,0,2-2v-14a2,2,0,0,0-2-2H197A2,2,0,0,0,195,184.5Z"/><path class="c" d="M125,200.5h20a2,2,0,0,0,2-2v-14a2,2,0,0,0-2-2H125a2,2,0,0,0-2,2v14A2,2,0,0,0,125,200.5Z"/><rect class="c" x="159" y="182.5" width="24" height="18" rx="2" ry="2"/><path class="c" d="M197,200.5h20a2,2,0,0,0,2-2v-14a2,2,0,0,0-2-2H197a2,2,0,0,0-2,2v14A2,2,0,0,0,197,200.5Z"/><polyline class="c" points="134 158.5 135 158.5 135 182.5"/><polyline class="c" points="208 158.5 207 158.5 135 158.5"/><line class="c" x1="207" y1="182.5" x2="207" y2="158.5"/><circle class="b" cx="51" cy="148" r="2"/><circle class="d" cx="43" cy="148" r="2"/><circle class="f" cx="35" cy="148" r="2"/><path class="e" d="M49,148a2,2,0,1,0,2-2A2,2,0,0,0,49,148Zm-16,0a2,2,0,1,0,2-2A2,2,0,0,0,33,148Zm8,0a2,2,0,1,0,2-2A2,2,0,0,0,41,148Zm-11-7h94a2,2,0,0,1,2,2v13H28V143A2,2,0,0,1,30,141Z"/><path class="d" d="M58,176.66c0.86,0.84,9.27,9.71,9.27,9.71a2.27,2.27,0,0,1,0,3.26S58.9,198.5,58,199.34a2.42,2.42,0,0,1-3.32,0,2.2,2.2,0,0,1,0-3.25L62.43,188l-7.71-8.08a2.21,2.21,0,0,1,0-3.26A2.42,2.42,0,0,1,58,176.66Z"/><path class="g" d="M28,156h98v57a2,2,0,0,1-2,2H30a2,2,0,0,1-2-2V156Zm26.72,23.92L62.43,188l-7.71,8.09a2.2,2.2,0,0,0,0,3.25,2.42,2.42,0,0,0,3.32,0c0.86-.84,9.27-9.71,9.27-9.71a2.27,2.27,0,0,0,0-3.26S58.9,177.5,58,176.66a2.42,2.42,0,0,0-3.32,0A2.21,2.21,0,0,0,54.72,179.92ZM91,198a2,2,0,0,0-2-2H73a2,2,0,0,0-2,2,2,2,0,0,0,2,2H89A2,2,0,0,0,91,198Z"/><path class="d" d="M89,196a2,2,0,0,1,2,2,2,2,0,0,1-2,2H73a2,2,0,0,1-2-2,2,2,0,0,1,2-2H89Z"/><path class="c" d="M126,156v57a2,2,0,0,1-2,2H30a2,2,0,0,1-2-2V143a2,2,0,0,1,2-2h94a2,2,0,0,1,2,2v13Z"/><line class="c" x1="28" y1="156" x2="126" y2="156"/><circle class="c" cx="35" cy="148" r="2"/><circle class="c" cx="43" cy="148" r="2"/><circle class="c" cx="51" cy="148" r="2"/><path class="c" d="M58,176.66c0.86,0.84,9.27,9.71,9.27,9.71a2.27,2.27,0,0,1,0,3.26S58.9,198.5,58,199.34a2.42,2.42,0,0,1-3.32,0,2.2,2.2,0,0,1,0-3.25L62.43,188l-7.71-8.08a2.21,2.21,0,0,1,0-3.26A2.42,2.42,0,0,1,58,176.66Z"/><path class="c" d="M89,200H73a2,2,0,0,1-2-2,2,2,0,0,1,2-2H89a2,2,0,0,1,2,2A2,2,0,0,1,89,200Z"/><path class="b" d="M45.46,66H44.23a1.64,1.64,0,0,1-1.33-1.13l-0.71-1.8a1.54,1.54,0,0,1,.24-1.67l0.88-.89a1,1,0,0,0,0-1.47l-1.46-1.46a1,1,0,0,0-1.45,0l-0.88.87a1.47,1.47,0,0,1-1.63.24L36.07,58A1.58,1.58,0,0,1,35,56.66V55.42c0-.57-0.29-0.42-0.85-0.42H32.09c-0.57,0-2.09-.14-2.09.42v1.23c0,0.57.09,1.17-.45,1.33l-1.46.71a1.27,1.27,0,0,1-1.5-.24l-0.81-.88a1,1,0,0,0-1.42,0L22.92,59a1,1,0,0,0,0,1.46l0.88,0.88A1.47,1.47,0,0,1,24,63l-0.71,1.72a1.49,1.49,0,0,1-1.33,1H20.4a1.42,1.42,0,0,0-1.4,1v2.06C19,69.36,20.2,71,20.77,71H22c0.57,0,1.16-.14,1.33.4L24,72.82a1.25,1.25,0,0,1-.24,1.49l-0.88.8a1,1,0,0,0,0,1.42L24.39,78a1,1,0,0,0,1.45,0l0.88-.88a1.47,1.47,0,0,1,1.63-.24l1.2,0.71c0.54,0.17.45,0.77,0.45,1.33v1.23A3.46,3.46,0,0,0,32.09,82h2.06c0.57,0,.85-1.32.85-1.89V78.88a1.58,1.58,0,0,1,1.07-1.33l1.77-.71a1.51,1.51,0,0,1,1.66.24L40.38,78a1,1,0,0,0,1.46,0L43.3,76.5a1,1,0,0,0,0-1.46l-0.88-.88a1.48,1.48,0,0,1-.24-1.63l0.71-1.14c0.17-.54.77-0.4,1.33-0.4h1.23C46,71,46,69.36,46,68.8V66.74C46,66.17,46,66,45.46,66ZM33.12,72.91a5.14,5.14,0,1,1,5.15-5.14A5.14,5.14,0,0,1,33.12,72.91Z"/><path class="b" d="M231.39,137h-0.93a1,1,0,0,1-1-.63l-0.54-1.25a1.07,1.07,0,0,1,.18-1.2l0.66-.65a0.77,0.77,0,0,0,0-1.09l-1.1-1.09a0.78,0.78,0,0,0-1.1,0l-0.66.66a1.11,1.11,0,0,1-1.23.18l-1.11-.53a1,1,0,0,1-.56-1v-0.93c0-.43-0.71-0.46-1.14-0.46h-1.55c-0.43,0-1.31,0-1.31.46v0.93a0.92,0.92,0,0,1-.48,1l-1.17.53a1,1,0,0,1-1.17-.18l-0.63-.66a0.76,0.76,0,0,0-1.08,0l-1.09,1.1a0.77,0.77,0,0,0,0,1.1l0.66,0.66a1.11,1.11,0,0,1,.18,1.23l-0.53,1.19a1,1,0,0,1-1,.63h-0.93a1,1,0,0,0-.77,1v1.55c0,0.43.34,1.45,0.77,1.45h0.93a0.88,0.88,0,0,1,1,.4l0.54,1.13a1,1,0,0,1-.18,1.15l-0.66.62a0.75,0.75,0,0,0,0,1.08l1.1,1.09a0.78,0.78,0,0,0,1.1,0l0.66-.66a1.11,1.11,0,0,1,1.23-.18l1,0.53a0.92,0.92,0,0,1,.48,1v0.93a1.54,1.54,0,0,0,1.31.92h1.55a1.3,1.3,0,0,0,1.14-.92v-0.93a1,1,0,0,1,.56-1l1.21-.54a1,1,0,0,1,1.19.18l0.64,0.66a0.76,0.76,0,0,0,1.08,0l1.09-1.1a0.78,0.78,0,0,0,0-1.1l-0.66-.66a1.12,1.12,0,0,1-.18-1.23l0.53-1a0.89,0.89,0,0,1,1-.4h0.93c0.43,0,.61-1,0.61-1.45V138A0.88,0.88,0,0,0,231.39,137Zm-9.31,5.65a3.88,3.88,0,1,1,3.88-3.88A3.88,3.88,0,0,1,222.08,142.65Z"/><path class="b" d="M196.09,55.55c0.77,0.7,8.29,8.1,8.29,8.1a1.8,1.8,0,0,1,0,2.72s-7.52,7.4-8.29,8.1a2.3,2.3,0,0,1-3,0,1.76,1.76,0,0,1,0-2.71L200,65l-6.9-6.74a1.76,1.76,0,0,1,0-2.72A2.3,2.3,0,0,1,196.09,55.55Z"/><path class="b" d="M182.89,55.55a1.76,1.76,0,0,1,0,2.72L176,65l6.9,6.74a1.76,1.76,0,0,1,0,2.71,2.3,2.3,0,0,1-3,0c-0.77-.7-8.29-8.1-8.29-8.1a1.8,1.8,0,0,1,0-2.72s7.52-7.39,8.29-8.1A2.3,2.3,0,0,1,182.89,55.55Z"/><path class="b" d="M70.31,110.86c0.5,0.46,5.39,5.26,5.39,5.26a1.17,1.17,0,0,1,0,1.77s-4.89,4.81-5.39,5.26a1.5,1.5,0,0,1-1.93,0,1.14,1.14,0,0,1,0-1.76L72.86,117l-4.49-4.38a1.14,1.14,0,0,1,0-1.77A1.49,1.49,0,0,1,70.31,110.86Z"/><path class="b" d="M61.73,110.86a1.14,1.14,0,0,1,0,1.77L57.24,117l4.49,4.38a1.14,1.14,0,0,1,0,1.76,1.5,1.5,0,0,1-1.93,0c-0.5-.46-5.39-5.26-5.39-5.26a1.17,1.17,0,0,1,0-1.77s4.89-4.8,5.39-5.26A1.49,1.49,0,0,1,61.73,110.86Z"/><path class="h" d="M128,7.12a11.42,11.42,0,0,1,6,9.71,10.43,10.43,0,0,1-2,6.08,14.67,14.67,0,0,1-12,5.75c-0.35,0-.69,0-1,0l-1.51,3.84a0.63,0.63,0,0,1-1.2.17l-4.67-6.35A11.32,11.32,0,0,1,106,16.83C106,10.3,112.27,5,120,5A15.75,15.75,0,0,1,128,7.12Z"/></svg>