<svg xmlns="http://www.w3.org/2000/svg" viewBox="0 0 256 256"><defs><style>.a,.h{fill:#ef5350;}.a{opacity:0.4;}.b,.i,.j{fill:none;}.b{stroke:#263238;stroke-width:2px;}.b,.i{stroke-miterlimit:10;}.c{fill:#cfd8dc;}.d{fill:#fff;}.e{fill:#37474f;}.f{fill:#03a9f4;}.g{fill:#009688;}.i{stroke:#cfd8dc;}</style></defs><title>agenda-themes</title><circle class="a" cx="128" cy="128" r="122"/><line class="b" y1="219" x2="256" y2="219"/><path class="c" d="M234,207h20c0,4.4-4.5,8-10,8H124a11.83,11.83,0,0,1-4.82-1,9.78,9.78,0,0,1-3.05-2.09,7.55,7.55,0,0,1-1.8-2.91L114,208h0.09a6.64,6.64,0,0,1-.09-1h55v3h30v-3h35Z"/><path class="c" d="M234,137v70H134V137a2,2,0,0,1,2-2h96A2,2,0,0,1,234,137Zm-5,64V141H139v60h90Z"/><polygon class="d" points="229 141 229 201 139 201 139 197 139 190 139 141 178 141 185 141 229 141"/><rect class="e" x="169" y="207" width="30" height="3"/><path class="c" d="M185,95v40h-7V100H38v79H32.17L31,175V95a2,2,0,0,1,2-2H183A2,2,0,0,1,185,95Z"/><path class="e" d="M178,102.5V135H136a2,2,0,0,0-2,2v53H38V100H178v2.5Z"/><path class="c" d="M134,190v7H33a2,2,0,0,1-2-2V183h4v-4h3v11h96Z"/><path class="c" d="M125,197v10H114a6.64,6.64,0,0,0,.09,1H91V197h34Z"/><path class="c" d="M119.18,214H75v-6h39l0.33,1a7.55,7.55,0,0,0,1.8,2.91A9.78,9.78,0,0,0,119.18,214Z"/><polygon class="e" points="35 179 35 183 31 183 30 183 29.86 183 6.14 183 6 183 1 183 1 179 3.83 179 6.67 171 29.33 171 30.93 175 31 175 32.17 179 35 179"/><polygon class="d" points="29.86 183 29.15 191 6.85 191 6.14 183 29.86 183"/><polygon class="f" points="29.15 191 27.74 207 8.26 207 6.85 191 29.15 191"/><polygon class="d" points="27.74 207 27 215 9 215 8.26 207 27.74 207"/><polyline class="b" points="8.26 207 9 215 27 215 27.74 207"/><line class="b" x1="6.14" y1="183" x2="6.85" y2="191"/><line class="b" x1="29.15" y1="191" x2="29.86" y2="183"/><line class="b" x1="29.15" y1="191" x2="6.85" y2="191"/><path class="b" d="M114,208h0.09a6.64,6.64,0,0,1-.09-1"/><line class="b" x1="91" y1="197" x2="91" y2="208"/><line class="b" x1="125" y1="207" x2="125" y2="197"/><line class="b" x1="136" y1="135" x2="178" y2="135"/><polyline class="b" points="29.15 191 27.74 207 8.26 207 6.85 191"/><polyline class="b" points="31 183 30 183 29.86 183 6.14 183 6 183 1 183 1 179 3.83 179 6.67 171 29.33 171 30.93 175"/><path class="b" d="M234,207h20c0,4.4-4.5,8-10,8H124a11.83,11.83,0,0,1-4.82-1,9.78,9.78,0,0,1-3.05-2.09,7.55,7.55,0,0,1-1.8-2.91L114,208H75v6h44.18"/><polyline class="b" points="169 207 169 210 199 210 199 207"/><polyline class="b" points="114 207 125 207 134 207"/><path class="b" d="M136,135a2,2,0,0,0-2,2v53"/><path class="b" d="M134,197v10H234V137a2,2,0,0,0-2-2H178V100H38v90h96v7H33a2,2,0,0,1-2-2V183h4v-4H32.17L31,175V95a2,2,0,0,1,2-2H183a2,2,0,0,1,2,2v40"/><polygon class="b" points="139 197 139 190 139 141 178 141 185 141 229 141 229 201 139 201 139 197"/><circle class="d" cx="44" cy="109" r="2"/><rect class="d" x="49" y="107" width="34" height="4" rx="2" ry="2"/><rect class="c" x="86" y="107" width="24" height="4" rx="2" ry="2"/><rect class="d" x="113" y="107" width="34" height="4" rx="2" ry="2"/><rect class="g" x="150" y="107" width="24" height="4" rx="2" ry="2"/><circle class="c" cx="44" cy="133" r="2"/><rect class="d" x="111.5" y="131" width="17" height="4" rx="2" ry="2" transform="translate(240 266) rotate(-180)"/><rect class="g" x="76" y="131" width="34" height="4" rx="2" ry="2" transform="translate(186 266) rotate(-180)"/><rect class="d" x="49" y="131" width="24" height="4" rx="2" ry="2" transform="translate(122 266) rotate(-180)"/><circle class="d" cx="44" cy="173" r="2"/><rect class="h" x="76" y="171" width="34" height="4" rx="2" ry="2" transform="translate(186 346) rotate(-180)"/><rect class="d" x="49" y="171" width="24" height="4" rx="2" ry="2" transform="translate(122 346) rotate(-180)"/><circle class="d" cx="44" cy="157" r="2"/><rect class="d" x="76" y="155" width="34" height="4" rx="2" ry="2" transform="translate(186 314) rotate(-180)"/><rect class="f" x="49" y="155" width="24" height="4" rx="2" ry="2" transform="translate(122 314) rotate(180)"/><circle class="d" cx="44" cy="141" r="2"/><rect class="d" x="108" y="139" width="24" height="4" rx="2" ry="2" transform="translate(240 282) rotate(-180)"/><rect class="h" x="71" y="139" width="34" height="4" rx="2" ry="2" transform="translate(176 282) rotate(-180)"/><rect class="d" x="49" y="139" width="18" height="4" rx="2" ry="2" transform="translate(116 282) rotate(-180)"/><circle class="c" cx="44" cy="149" r="2"/><rect class="c" x="49" y="147" width="54" height="4" rx="2" ry="2" transform="translate(152 298) rotate(180)"/><circle class="c" cx="44" cy="117" r="2"/><rect class="d" x="49" y="115" width="31" height="4" rx="2" ry="2"/><rect class="f" x="83" y="115" width="34" height="4" rx="2" ry="2"/><rect class="d" x="121" y="115" width="14" height="4" rx="2" ry="2"/><rect class="d" x="161" y="115" width="14" height="4" rx="2" ry="2"/><rect class="h" x="138" y="115" width="20" height="4" rx="2" ry="2"/><circle class="d" cx="44" cy="125" r="2"/><rect class="c" x="144" y="123" width="31" height="4" rx="2" ry="2" transform="translate(319 250) rotate(180)"/><rect class="d" x="107" y="123" width="34" height="4" rx="2" ry="2" transform="translate(248 250) rotate(-180)"/><rect class="f" x="89" y="123" width="14" height="4" rx="2" ry="2" transform="translate(192 250) rotate(-180)"/><rect class="c" x="49" y="123" width="14" height="4" rx="2" ry="2" transform="translate(112 250) rotate(-180)"/><rect class="d" x="66" y="123" width="20" height="4" rx="2" ry="2" transform="translate(152 250) rotate(-180)"/><circle class="c" cx="44" cy="181" r="2"/><rect class="c" x="49" y="179" width="34" height="4" rx="2" ry="2"/><rect class="d" x="87" y="179" width="14" height="4" rx="2" ry="2"/><rect class="f" x="104" y="179" width="20" height="4" rx="2" ry="2"/><circle class="c" cx="44" cy="165" r="2"/><path class="d" d="M115,171a2,2,0,0,0,0,4h18v-4H115Z"/><path class="c" d="M115,155a2,2,0,0,0,0,4h18v-4H115Z"/><path class="d" d="M108,147a2,2,0,0,0,0,4h25v-4H108Z"/><path class="d" d="M129,179a2,2,0,0,0,0,4h4v-4h-4Z"/><path class="f" d="M109,163a2,2,0,0,0,0,4h24v-4H109Z"/><rect class="d" x="89" y="163" width="14" height="4" rx="2" ry="2" transform="translate(192 330) rotate(-180)"/><rect class="d" x="49" y="163" width="14" height="4" rx="2" ry="2" transform="translate(112 330) rotate(-180)"/><rect class="g" x="66" y="163" width="20" height="4" rx="2" ry="2" transform="translate(152 330) rotate(-180)"/><path class="f" d="M175,133a2,2,0,0,0-2-2H135a2,2,0,0,0-2,2,2,2,0,0,0,.28,1h41.44A2,2,0,0,0,175,133Z"/><rect class="i" x="142" y="144" width="84" height="54" rx="2" ry="2"/><line class="i" x1="142" y1="149.5" x2="226" y2="149.5"/><circle class="h" cx="146" cy="147" r="1"/><circle class="f" cx="150" cy="147" r="1"/><circle class="g" cx="154" cy="147" r="1"/><rect class="g" x="186" y="155" width="6" height="6"/><rect class="f" x="176" y="155" width="6" height="6"/><rect class="h" x="166" y="155" width="6" height="6"/><rect class="h" x="196" y="155" width="6" height="6"/><rect class="h" x="186" y="165" width="6" height="6"/><rect class="f" x="176" y="165" width="6" height="6"/><rect class="g" x="166" y="165" width="6" height="6"/><rect class="g" x="196" y="165" width="6" height="6"/><rect class="g" x="186" y="175" width="6" height="6"/><rect class="h" x="176" y="175" width="6" height="6"/><rect class="f" x="166" y="175" width="6" height="6"/><rect class="f" x="196" y="175" width="6" height="6"/><rect class="f" x="186" y="185" width="6" height="6"/><rect class="g" x="176" y="185" width="6" height="6"/><rect class="h" x="166" y="185" width="6" height="6"/><rect class="h" x="196" y="185" width="6" height="6"/><rect class="c" x="146" y="151" width="16" height="44"/><rect class="c" x="206" y="151" width="16" height="44"/><path class="h" d="M36.09,55.55c0.77,0.7,8.29,8.1,8.29,8.1a1.8,1.8,0,0,1,0,2.72s-7.52,7.4-8.29,8.1a2.3,2.3,0,0,1-3,0,1.76,1.76,0,0,1,0-2.71L40,65l-6.9-6.74a1.76,1.76,0,0,1,0-2.72A2.3,2.3,0,0,1,36.09,55.55Z"/><path class="h" d="M22.89,55.55a1.76,1.76,0,0,1,0,2.72L16,65l6.9,6.74a1.76,1.76,0,0,1,0,2.71,2.3,2.3,0,0,1-3,0c-0.77-.7-8.29-8.1-8.29-8.1a1.8,1.8,0,0,1,0-2.72s7.52-7.39,8.29-8.1A2.3,2.3,0,0,1,22.89,55.55Z"/><path class="h" d="M205.61,17.55c0.72,0.7,7.81,8.1,7.81,8.1a1.88,1.88,0,0,1,0,2.72s-7.08,7.4-7.81,8.1a2.07,2.07,0,0,1-2.8,0,1.83,1.83,0,0,1,0-2.71l6.5-6.74-6.5-6.74a1.83,1.83,0,0,1,0-2.72A2.07,2.07,0,0,1,205.61,17.55Z"/><path class="h" d="M193.19,17.55a1.83,1.83,0,0,1,0,2.72L186.69,27l6.5,6.74a1.83,1.83,0,0,1,0,2.71,2.07,2.07,0,0,1-2.8,0c-0.72-.7-7.81-8.1-7.81-8.1a1.88,1.88,0,0,1,0-2.72s7.08-7.39,7.81-8.1A2.07,2.07,0,0,1,193.19,17.55Z"/><path class="h" d="M230.76,79.33c0.45,0.42,4.88,4.86,4.88,4.86a1.1,1.1,0,0,1,0,1.63s-4.43,4.44-4.88,4.86a1.33,1.33,0,0,1-1.75,0A1.07,1.07,0,0,1,229,89l4.06-4L229,81a1.07,1.07,0,0,1,0-1.63A1.33,1.33,0,0,1,230.76,79.33Z"/><path class="h" d="M223,79.33A1.07,1.07,0,0,1,223,81l-4.06,4L223,89a1.07,1.07,0,0,1,0,1.63,1.33,1.33,0,0,1-1.75,0c-0.45-.42-4.88-4.86-4.88-4.86a1.1,1.1,0,0,1,0-1.63s4.43-4.44,4.88-4.86A1.33,1.33,0,0,1,223,79.33Z"/><path class="h" d="M16.76,121.33c0.45,0.42,4.88,4.86,4.88,4.86a1.1,1.1,0,0,1,0,1.63s-4.43,4.44-4.88,4.86a1.33,1.33,0,0,1-1.75,0A1.07,1.07,0,0,1,15,131l4.06-4L15,123a1.07,1.07,0,0,1,0-1.63A1.33,1.33,0,0,1,16.76,121.33Z"/><path class="h" d="M9,121.33A1.07,1.07,0,0,1,9,123l-4.06,4L9,131a1.07,1.07,0,0,1,0,1.63,1.33,1.33,0,0,1-1.75,0c-0.45-.42-4.88-4.86-4.88-4.86a1.1,1.1,0,0,1,0-1.63s4.43-4.44,4.88-4.86A1.33,1.33,0,0,1,9,121.33Z"/><path class="h" d="M136.62,52H135a1.9,1.9,0,0,1-1.8-1.21l-1-2.26a2,2,0,0,1,.33-2.17l1.18-1.16a1.38,1.38,0,0,0,0-2l-2-2a1.39,1.39,0,0,0-2,0l-1.18,1.18a2,2,0,0,1-2.2.33l-2.2-1A1.9,1.9,0,0,1,123,40V38.39A1.6,1.6,0,0,0,121.39,37h-2.77A1.61,1.61,0,0,0,117,38.39V40a1.9,1.9,0,0,1-1.21,1.8l-2.26,1a1.93,1.93,0,0,1-2.17-.32l-1.17-1.18a1.38,1.38,0,0,0-1.95,0l-2,2a1.38,1.38,0,0,0,0,2l1.18,1.18a2,2,0,0,1,.33,2.2l-1,2.32a2,2,0,0,1-1.8,1.32h-1.66A1.39,1.39,0,0,0,102,53.61v2.77A1.61,1.61,0,0,0,103.39,58H105a1.9,1.9,0,0,1,1.79,1.21l1,2.26a1.93,1.93,0,0,1-.33,2.17l-1.18,1.16a1.38,1.38,0,0,0,0,2l2,2a1.39,1.39,0,0,0,2,0l1.18-1.18a2,2,0,0,1,2.19-.32l2.21,1A1.9,1.9,0,0,1,117,70v1.66A1.61,1.61,0,0,0,118.62,73h2.77A1.6,1.6,0,0,0,123,71.62V70a1.9,1.9,0,0,1,1.21-1.79l2.26-1a1.94,1.94,0,0,1,2.17.32l1.16,1.18a1.38,1.38,0,0,0,1.95,0l2-2a1.39,1.39,0,0,0,0-2l-1.18-1.18a2,2,0,0,1-.33-2.2l1-2.2A1.9,1.9,0,0,1,135,58h1.66A1.6,1.6,0,0,0,138,56.39V53.61A1.6,1.6,0,0,0,136.62,52ZM120,61.92A6.92,6.92,0,1,1,126.93,55,6.92,6.92,0,0,1,120,61.92Z"/><circle class="j" cx="214" cy="125" r="6.93"/><path class="h" d="M230.62,122H229a1.9,1.9,0,0,1-1.8-1.21l-1-2.26a2,2,0,0,1,.33-2.17l1.18-1.16a1.38,1.38,0,0,0,0-2l-2-2a1.39,1.39,0,0,0-2,0l-1.18,1.18a2,2,0,0,1-2.2.33l-2.2-1A1.9,1.9,0,0,1,217,110v-1.66a1.6,1.6,0,0,0-1.61-1.39h-2.77a1.61,1.61,0,0,0-1.62,1.39V110a1.9,1.9,0,0,1-1.21,1.8l-2.26,1a1.93,1.93,0,0,1-2.17-.32l-1.17-1.18a1.38,1.38,0,0,0-1.95,0l-2,2a1.38,1.38,0,0,0,0,2l1.18,1.18a2,2,0,0,1,.33,2.2l-1,2.32a2,2,0,0,1-1.8,1.32h-1.66a1.39,1.39,0,0,0-1.39,1.39v2.77a1.61,1.61,0,0,0,1.39,1.62H199a1.9,1.9,0,0,1,1.79,1.21l1,2.26a1.93,1.93,0,0,1-.33,2.17l-0.36.36h25.81l-0.39-.39a2,2,0,0,1-.33-2.2l1-2.2A1.9,1.9,0,0,1,229,128h1.66a1.6,1.6,0,0,0,1.38-1.61v-2.77A1.6,1.6,0,0,0,230.62,122ZM214,131.92a6.92,6.92,0,1,1,6.92-6.92A6.92,6.92,0,0,1,214,131.92Z"/><rect class="h" x="67.88" y="30.88" width="4.24" height="4.24" transform="translate(-2.83 59.16) rotate(-45)"/><rect class="h" x="145.88" y="12.88" width="4.24" height="4.24" transform="translate(32.74 109.05) rotate(-45)"/><rect class="h" x="182.88" y="56.88" width="4.24" height="4.24" transform="translate(12.47 148.1) rotate(-45)"/></svg>