<?xml version="1.0" encoding="utf-8"?>
<!-- Generator: Adobe Illustrator 19.2.1, SVG Export Plug-In . SVG Version: 6.00 Build 0)  -->
<svg version="1.1" xmlns="http://www.w3.org/2000/svg" xmlns:xlink="http://www.w3.org/1999/xlink" x="0px" y="0px"
	 viewBox="0 0 128 128" style="enable-background:new 0 0 128 128;" xml:space="preserve">
<style type="text/css">
	.st0{fill:none;stroke:#263238;stroke-width:2;stroke-miterlimit:10;}
	.st1{fill:#EF5350;stroke:#263238;stroke-width:2;stroke-miterlimit:10;}
	.st2{fill:#009688;stroke:#263238;stroke-width:2;stroke-miterlimit:10;}
	.st3{fill:#03A9F4;stroke:#263238;stroke-width:2;stroke-miterlimit:10;}
	.st4{fill:#CFD8DC;stroke:#263238;stroke-width:2;stroke-miterlimit:10;}
	.st5{display:none;}
	.st6{display:inline;}
	.st7{display:inline;fill:none;stroke:#263238;stroke-width:2;stroke-miterlimit:10;}
	.st8{fill:#009688;}
	.st9{fill:#03A9F4;}
	.st10{fill:#EF5350;}
	.st11{fill:#CFD8DC;}
	.st12{fill-rule:evenodd;clip-rule:evenodd;fill:none;stroke:#263238;stroke-width:2;stroke-miterlimit:10;}
	.st13{fill:#37474F;}
	
		.st14{display:inline;fill:none;stroke:#263238;stroke-width:2;stroke-linecap:round;stroke-miterlimit:10;stroke-dasharray:1.9328,3.8656;}
	.st15{fill:#263238;}
	.st16{display:inline;fill:#263238;}
	.st17{display:inline;fill:#FFFFFF;stroke:#000000;stroke-width:2;stroke-miterlimit:10;}
	.st18{display:inline;fill-rule:evenodd;clip-rule:evenodd;fill:none;stroke:#263238;stroke-width:2;stroke-miterlimit:10;}
	.st19{fill:#58595B;}
	.st20{fill:url(#SVGID_1_);}
	.st21{fill:url(#SVGID_2_);}
	.st22{fill:url(#SVGID_3_);}
	.st23{fill:none;stroke:#4A4A4C;stroke-width:0.5;}
	.st24{opacity:0.23;fill:#231F20;enable-background:new    ;}
	.st25{fill:none;stroke:#A8ABAD;stroke-width:0.5;}
	.st26{fill:none;stroke:#37474F;stroke-width:0.5;}
	.st27{fill:#6D6E70;}
	.st28{fill:#FFFFFF;}
	.st29{display:inline;fill:none;stroke:#000000;stroke-width:2;stroke-linecap:round;stroke-linejoin:round;}
	.st30{fill:none;stroke:#000000;stroke-width:2;stroke-linecap:round;stroke-linejoin:round;}
	.st31{display:inline;fill:none;}
	.st32{fill:none;}
	.st33{display:inline;fill-rule:evenodd;clip-rule:evenodd;fill:#263238;}
</style>
<g id="share">
	<g class="st5">
		<g class="st6">
			<path class="st0" d="M45,108c0-5.2-2.6-9.8-6.7-12.5c-1.8,2.7-4.9,4.5-8.3,4.5s-6.5-1.8-8.3-4.5c-4,2.7-6.7,7.3-6.7,12.5
				c0,1.4,0.2,2.7,0.6,4h28.9C44.8,110.7,45,109.4,45,108z"/>
			<path class="st0" d="M38.3,95.5C39.4,93.9,40,92,40,90c0-5.5-4.5-10-10-10s-10,4.5-10,10c0,2,0.6,3.9,1.7,5.5"/>
			<path class="st0" d="M16,112h28"/>
		</g>
		<g class="st6">
			<path class="st0" d="M79,108c0-5.2-2.6-9.8-6.7-12.5c-1.8,2.7-4.9,4.5-8.3,4.5s-6.5-1.8-8.3-4.5c-4,2.7-6.7,7.3-6.7,12.5
				c0,1.4,0.2,2.7,0.6,4h28.9C78.8,110.7,79,109.4,79,108z"/>
			<path class="st0" d="M72.3,95.5C73.4,93.9,74,92,74,90c0-5.5-4.5-10-10-10s-10,4.5-10,10c0,2,0.6,3.9,1.7,5.5"/>
			<path class="st0" d="M50,112h28"/>
		</g>
		<g class="st6">
			<path class="st0" d="M113,108c0-5.2-2.6-9.8-6.7-12.5c-1.8,2.7-4.9,4.5-8.3,4.5s-6.5-1.8-8.3-4.5c-4,2.7-6.7,7.3-6.7,12.5
				c0,1.4,0.2,2.7,0.6,4h28.9C112.8,110.7,113,109.4,113,108z"/>
			<path class="st0" d="M106.3,95.5c1.1-1.6,1.7-3.5,1.7-5.5c0-5.5-4.5-10-10-10s-10,4.5-10,10c0,2,0.6,3.9,1.7,5.5"/>
			<path class="st0" d="M84,112h28"/>
		</g>
		<g class="st6">
			<path class="st12" d="M84,15c-10.2,0-19.1,4.4-24,11.1c7.3,4.1,12,11,12,18.7c0,4.3-1.5,8.3-4,11.7c4.5,2.6,10,4.1,16,4.1
				c0.7,0,1.4,0,2.1-0.1l3,7.4c0.5,1.2,1.6,1.4,2.4,0.3l9.3-12.2c6.8-4.2,11.2-10.8,11.2-18.2C112,25.2,99.5,15,84,15z"/>
			<path class="st12" d="M60,26.1c-4.5-2.6-10-4.1-16-4.1c-15.5,0-28,10.2-28,22.8c0,7.5,4.4,14.1,11.2,18.2l9.3,12.2
				c0.8,1.1,1.9,0.9,2.4-0.3l3-7.4c0.7,0,1.4,0.1,2.1,0.1c10.2,0,19.1-4.4,24-11.1"/>
			<path class="st12" d="M68,56.5c2.5-3.4,4-7.4,4-11.7c0-7.8-4.8-14.6-12-18.7"/>
		</g>
	</g>
	<g>
		<g>
			<g id="XMLID_35_">
				<g>
					<path class="st9" d="M72,44.8c0,4.3-1.5,8.3-4,11.7c-4.9,6.6-13.8,11.1-24,11.1c-0.7,0-1.4,0-2.1-0.1l-3,7.4
						c-0.5,1.2-1.6,1.4-2.4,0.3L27.2,63C20.4,58.9,16,52.3,16,44.8C16,32.2,28.5,22,44,22c5.9,0,11.5,1.5,16,4.1
						C67.2,30.2,72,37.1,72,44.8z"/>
					<path class="st11" d="M72,44.8c0-7.8-4.8-14.6-12-18.7C64.9,19.5,73.8,15,84,15c15.4,0,28,10.2,28,22.8
						c0,7.4-4.4,14.1-11.2,18.2l-9.3,12.2c-0.8,1.1-1.9,0.9-2.4-0.3l-3-7.4c-0.7,0-1.4,0.1-2.1,0.1c-5.9,0-11.4-1.5-16-4.1
						C70.5,53.1,72,49.1,72,44.8z"/>
					<path class="st9" d="M113,108c0,1.4-0.2,2.7-0.6,4H112H84h-0.4c-0.4-1.3-0.6-2.6-0.6-4c0-5.2,2.7-9.8,6.7-12.5
						c1.8,2.7,4.8,4.5,8.3,4.5s6.5-1.8,8.3-4.5C110.3,98.2,113,102.8,113,108z"/>
					<path class="st10" d="M79,108c0,1.4-0.2,2.7-0.6,4H78H50h-0.4c-0.4-1.3-0.6-2.6-0.6-4c0-5.2,2.7-9.8,6.7-12.5
						c1.8,2.7,4.9,4.5,8.3,4.5c3.5,0,6.5-1.8,8.3-4.5C76.3,98.2,79,102.8,79,108z"/>
					<path class="st8" d="M45,108c0,1.4-0.2,2.7-0.6,4H44H16h-0.4c-0.4-1.3-0.6-2.6-0.6-4c0-5.2,2.6-9.8,6.7-12.5
						c1.8,2.7,4.9,4.5,8.3,4.5s6.5-1.8,8.3-4.5C42.3,98.2,45,102.8,45,108z"/>
				</g>
				<g>
					<path class="st0" d="M44,112h0.4c0.4-1.3,0.6-2.6,0.6-4c0-5.2-2.7-9.8-6.7-12.5c-1.8,2.7-4.9,4.5-8.3,4.5s-6.5-1.8-8.3-4.5
						c-4,2.7-6.7,7.3-6.7,12.5c0,1.4,0.2,2.7,0.6,4H16"/>
					<path class="st0" d="M38.3,95.5c1-1.6,1.7-3.5,1.7-5.5c0-5.5-4.5-10-10-10s-10,4.5-10,10c0,2,0.6,3.9,1.7,5.5"/>
					<line class="st0" x1="16" y1="112" x2="44" y2="112"/>
					<path class="st0" d="M78,112h0.4c0.4-1.3,0.6-2.6,0.6-4c0-5.2-2.7-9.8-6.7-12.5c-1.8,2.7-4.8,4.5-8.3,4.5
						c-3.5,0-6.5-1.8-8.3-4.5c-4,2.7-6.7,7.3-6.7,12.5c0,1.4,0.2,2.7,0.6,4H50"/>
					<path class="st0" d="M72.3,95.5c1-1.6,1.7-3.5,1.7-5.5c0-5.5-4.5-10-10-10s-10,4.5-10,10c0,2,0.6,3.9,1.7,5.5"/>
					<line class="st0" x1="50" y1="112" x2="78" y2="112"/>
					<path class="st0" d="M112,112h0.4c0.4-1.3,0.6-2.6,0.6-4c0-5.2-2.7-9.8-6.7-12.5c-1.8,2.7-4.8,4.5-8.3,4.5s-6.5-1.8-8.3-4.5
						c-4,2.7-6.7,7.3-6.7,12.5c0,1.4,0.2,2.7,0.6,4H84"/>
					<path class="st0" d="M106.3,95.5c1-1.6,1.7-3.5,1.7-5.5c0-5.5-4.5-10-10-10s-10,4.5-10,10c0,2,0.6,3.9,1.7,5.5"/>
					<line class="st0" x1="84" y1="112" x2="112" y2="112"/>
					<path class="st0" d="M68,56.5c4.5,2.6,10,4.1,16,4.1c0.7,0,1.4,0,2.1-0.1l3,7.4c0.5,1.2,1.6,1.4,2.4,0.3l9.3-12.2
						c6.8-4.2,11.2-10.8,11.2-18.2C112,25.2,99.4,15,84,15c-10.2,0-19.1,4.5-24,11.1"/>
					<path class="st0" d="M60,26.1c-4.5-2.6-10-4.1-16-4.1c-15.5,0-28,10.2-28,22.8c0,7.4,4.4,14.1,11.2,18.2l9.3,12.2
						c0.8,1.1,1.9,0.9,2.4-0.3l3-7.4c0.7,0,1.4,0.1,2.1,0.1c10.2,0,19.1-4.5,24-11.1"/>
					<path class="st0" d="M68,56.5c2.5-3.4,4-7.4,4-11.7c0-7.8-4.8-14.6-12-18.7"/>
				</g>
			</g>
		</g>
	</g>
</g>
</svg>
