<?xml version="1.0" encoding="utf-8"?>
<!-- Generator: Adobe Illustrator 19.2.1, SVG Export Plug-In . SVG Version: 6.00 Build 0)  -->
<svg version="1.1" xmlns="http://www.w3.org/2000/svg" xmlns:xlink="http://www.w3.org/1999/xlink" x="0px" y="0px"
	 viewBox="0 0 128 128" style="enable-background:new 0 0 128 128;" xml:space="preserve">
<style type="text/css">
	.st0{fill:none;stroke:#263238;stroke-width:2;stroke-miterlimit:10;}
	.st1{fill:#EF5350;stroke:#263238;stroke-width:2;stroke-miterlimit:10;}
	.st2{fill:#009688;stroke:#263238;stroke-width:2;stroke-miterlimit:10;}
	.st3{fill:#03A9F4;stroke:#263238;stroke-width:2;stroke-miterlimit:10;}
	.st4{fill:#CFD8DC;stroke:#263238;stroke-width:2;stroke-miterlimit:10;}
	.st5{display:none;}
	.st6{display:inline;}
	.st7{display:inline;fill:none;stroke:#263238;stroke-width:2;stroke-miterlimit:10;}
	.st8{fill:#009688;}
	.st9{fill:#03A9F4;}
	.st10{fill:#EF5350;}
	.st11{fill:#CFD8DC;}
	.st12{fill-rule:evenodd;clip-rule:evenodd;fill:none;stroke:#263238;stroke-width:2;stroke-miterlimit:10;}
	.st13{fill:#37474F;}
	
		.st14{display:inline;fill:none;stroke:#263238;stroke-width:2;stroke-linecap:round;stroke-miterlimit:10;stroke-dasharray:1.9328,3.8656;}
	.st15{fill:#263238;}
	.st16{display:inline;fill:#263238;}
	.st17{display:inline;fill:#FFFFFF;stroke:#000000;stroke-width:2;stroke-miterlimit:10;}
	.st18{display:inline;fill-rule:evenodd;clip-rule:evenodd;fill:none;stroke:#263238;stroke-width:2;stroke-miterlimit:10;}
	.st19{fill:#58595B;}
	.st20{fill:url(#SVGID_1_);}
	.st21{fill:url(#SVGID_2_);}
	.st22{fill:url(#SVGID_3_);}
	.st23{fill:none;stroke:#4A4A4C;stroke-width:0.5;}
	.st24{opacity:0.23;fill:#231F20;enable-background:new    ;}
	.st25{fill:none;stroke:#A8ABAD;stroke-width:0.5;}
	.st26{fill:none;stroke:#37474F;stroke-width:0.5;}
	.st27{fill:#6D6E70;}
	.st28{fill:#FFFFFF;}
	.st29{display:inline;fill:none;stroke:#000000;stroke-width:2;stroke-linecap:round;stroke-linejoin:round;}
	.st30{fill:none;stroke:#000000;stroke-width:2;stroke-linecap:round;stroke-linejoin:round;}
	.st31{display:inline;fill:none;}
	.st32{fill:none;}
	.st33{display:inline;fill-rule:evenodd;clip-rule:evenodd;fill:#263238;}
</style>
<g id="improved_screen_plate_well_ui_1_">
	<g id="raw_3_" class="st5">
		<rect x="31" y="43" class="st7" width="6" height="6"/>
		<rect x="43" y="43" class="st7" width="6" height="6"/>
		<rect x="55" y="43" class="st7" width="6" height="6"/>
		<rect x="67" y="43" class="st7" width="6" height="6"/>
		<rect x="79" y="43" class="st7" width="6" height="6"/>
		<rect x="91" y="43" class="st7" width="6" height="6"/>
		<rect x="31" y="55" class="st7" width="6" height="6"/>
		<rect x="43" y="55" class="st7" width="6" height="6"/>
		<rect x="55" y="55" class="st7" width="6" height="6"/>
		<rect x="67" y="55" class="st7" width="6" height="6"/>
		<rect x="79" y="55" class="st7" width="6" height="6"/>
		<rect x="91" y="55" class="st7" width="6" height="6"/>
		<rect x="31" y="67" class="st7" width="6" height="6"/>
		<rect x="43" y="67" class="st7" width="6" height="6"/>
		<rect x="55" y="67" class="st7" width="6" height="6"/>
		<rect x="67" y="67" class="st7" width="6" height="6"/>
		<rect x="79" y="67" class="st7" width="6" height="6"/>
		<rect x="91" y="67" class="st7" width="6" height="6"/>
		<rect x="31" y="79" class="st7" width="6" height="6"/>
		<rect x="43" y="79" class="st7" width="6" height="6"/>
		<rect x="55" y="79" class="st7" width="6" height="6"/>
		<rect x="67" y="79" class="st7" width="6" height="6"/>
		<rect x="79" y="79" class="st7" width="6" height="6"/>
		<rect x="91" y="79" class="st7" width="6" height="6"/>
		<path class="st7" d="M111,101H17c-1.1,0-2-0.9-2-2V29c0-1.1,0.9-2,2-2h94c1.1,0,2,0.9,2,2v70C113,100.1,112.1,101,111,101z"/>
		<rect x="25" y="37" class="st7" width="78" height="54"/>
	</g>
	<g id="XMLID_3_">
		<g>
			<path class="st11" d="M113,29v70c0,1.1-0.9,2-2,2H17c-1.1,0-2-0.9-2-2V29c0-1.1,0.9-2,2-2h94C112.1,27,113,27.9,113,29z M103,91
				V37H25v54H103z"/>
			<rect x="91" y="79" class="st9" width="6" height="6"/>
			<rect x="91" y="67" class="st10" width="6" height="6"/>
			<rect x="91" y="55" class="st8" width="6" height="6"/>
			<rect x="91" y="43" class="st9" width="6" height="6"/>
			<rect x="79" y="79" class="st8" width="6" height="6"/>
			<rect x="79" y="67" class="st9" width="6" height="6"/>
			<rect x="79" y="55" class="st10" width="6" height="6"/>
			<rect x="79" y="43" class="st8" width="6" height="6"/>
			<rect x="67" y="79" class="st10" width="6" height="6"/>
			<rect x="67" y="67" class="st8" width="6" height="6"/>
			<rect x="67" y="55" class="st9" width="6" height="6"/>
			<rect x="67" y="43" class="st10" width="6" height="6"/>
			<rect x="55" y="79" class="st9" width="6" height="6"/>
			<rect x="55" y="67" class="st10" width="6" height="6"/>
			<rect x="55" y="55" class="st8" width="6" height="6"/>
			<rect x="55" y="43" class="st9" width="6" height="6"/>
			<rect x="43" y="79" class="st8" width="6" height="6"/>
			<rect x="43" y="67" class="st9" width="6" height="6"/>
			<rect x="43" y="55" class="st10" width="6" height="6"/>
			<rect x="43" y="43" class="st8" width="6" height="6"/>
			<rect x="31" y="79" class="st10" width="6" height="6"/>
			<rect x="31" y="67" class="st8" width="6" height="6"/>
			<rect x="31" y="55" class="st9" width="6" height="6"/>
			<rect x="31" y="43" class="st10" width="6" height="6"/>
		</g>
		<g>
			<path class="st0" d="M111,101H17c-1.1,0-2-0.9-2-2V29c0-1.1,0.9-2,2-2h94c1.1,0,2,0.9,2,2v70C113,100.1,112.1,101,111,101z"/>
			<rect x="25" y="37" class="st0" width="78" height="54"/>
			<rect x="31" y="43" class="st0" width="6" height="6"/>
			<rect x="43" y="43" class="st0" width="6" height="6"/>
			<rect x="55" y="43" class="st0" width="6" height="6"/>
			<rect x="67" y="43" class="st0" width="6" height="6"/>
			<rect x="79" y="43" class="st0" width="6" height="6"/>
			<rect x="91" y="43" class="st0" width="6" height="6"/>
			<rect x="31" y="55" class="st0" width="6" height="6"/>
			<rect x="43" y="55" class="st0" width="6" height="6"/>
			<rect x="55" y="55" class="st0" width="6" height="6"/>
			<rect x="67" y="55" class="st0" width="6" height="6"/>
			<rect x="79" y="55" class="st0" width="6" height="6"/>
			<rect x="91" y="55" class="st0" width="6" height="6"/>
			<rect x="31" y="67" class="st0" width="6" height="6"/>
			<rect x="43" y="67" class="st0" width="6" height="6"/>
			<rect x="55" y="67" class="st0" width="6" height="6"/>
			<rect x="67" y="67" class="st0" width="6" height="6"/>
			<rect x="79" y="67" class="st0" width="6" height="6"/>
			<rect x="91" y="67" class="st0" width="6" height="6"/>
			<rect x="31" y="79" class="st0" width="6" height="6"/>
			<rect x="43" y="79" class="st0" width="6" height="6"/>
			<rect x="55" y="79" class="st0" width="6" height="6"/>
			<rect x="67" y="79" class="st0" width="6" height="6"/>
			<rect x="79" y="79" class="st0" width="6" height="6"/>
			<rect x="91" y="79" class="st0" width="6" height="6"/>
		</g>
	</g>
</g>
</svg>
