<?xml version="1.0" encoding="utf-8"?>
<!-- Generator: Adobe Illustrator 19.2.1, SVG Export Plug-In . SVG Version: 6.00 Build 0)  -->
<svg version="1.1" xmlns="http://www.w3.org/2000/svg" xmlns:xlink="http://www.w3.org/1999/xlink" x="0px" y="0px"
	 viewBox="0 0 128 128" style="enable-background:new 0 0 128 128;" xml:space="preserve">
<style type="text/css">
	.st0{fill:none;stroke:#263238;stroke-width:2;stroke-miterlimit:10;}
	.st1{fill:#EF5350;stroke:#263238;stroke-width:2;stroke-miterlimit:10;}
	.st2{fill:#009688;stroke:#263238;stroke-width:2;stroke-miterlimit:10;}
	.st3{fill:#03A9F4;stroke:#263238;stroke-width:2;stroke-miterlimit:10;}
	.st4{fill:#CFD8DC;stroke:#263238;stroke-width:2;stroke-miterlimit:10;}
	.st5{display:none;}
	.st6{display:inline;}
	.st7{display:inline;fill:none;stroke:#263238;stroke-width:2;stroke-miterlimit:10;}
	.st8{fill:#009688;}
	.st9{fill:#03A9F4;}
	.st10{fill:#EF5350;}
	.st11{fill:#CFD8DC;}
	.st12{fill-rule:evenodd;clip-rule:evenodd;fill:none;stroke:#263238;stroke-width:2;stroke-miterlimit:10;}
	.st13{fill:#37474F;}
	
		.st14{display:inline;fill:none;stroke:#263238;stroke-width:2;stroke-linecap:round;stroke-miterlimit:10;stroke-dasharray:1.9328,3.8656;}
	.st15{fill:#263238;}
	.st16{display:inline;fill:#263238;}
	.st17{display:inline;fill:#FFFFFF;stroke:#000000;stroke-width:2;stroke-miterlimit:10;}
	.st18{display:inline;fill-rule:evenodd;clip-rule:evenodd;fill:none;stroke:#263238;stroke-width:2;stroke-miterlimit:10;}
	.st19{fill:#58595B;}
	.st20{fill:url(#SVGID_1_);}
	.st21{fill:url(#SVGID_2_);}
	.st22{fill:url(#SVGID_3_);}
	.st23{fill:none;stroke:#4A4A4C;stroke-width:0.5;}
	.st24{opacity:0.23;fill:#231F20;enable-background:new    ;}
	.st25{fill:none;stroke:#A8ABAD;stroke-width:0.5;}
	.st26{fill:none;stroke:#37474F;stroke-width:0.5;}
	.st27{fill:#6D6E70;}
	.st28{fill:#FFFFFF;}
	.st29{display:inline;fill:none;stroke:#000000;stroke-width:2;stroke-linecap:round;stroke-linejoin:round;}
	.st30{fill:none;stroke:#000000;stroke-width:2;stroke-linecap:round;stroke-linejoin:round;}
	.st31{display:inline;fill:none;}
	.st32{fill:none;}
	.st33{display:inline;fill-rule:evenodd;clip-rule:evenodd;fill:#263238;}
</style>
<g id="unit-support">
	<g id="raw_10_" class="st5">
		<path class="st7" d="M110,112H90c-1.1,0-2-0.9-2-2V90c0-1.1,0.9-2,2-2h20c1.1,0,2,0.9,2,2v20C112,111.1,111.1,112,110,112z"/>
		<path class="st7" d="M74,112H54c-1.1,0-2-0.9-2-2V90c0-1.1,0.9-2,2-2h20c1.1,0,2,0.9,2,2v20C76,111.1,75.1,112,74,112z"/>
		<path class="st7" d="M38,112H18c-1.1,0-2-0.9-2-2V90c0-1.1,0.9-2,2-2h20c1.1,0,2,0.9,2,2v20C40,111.1,39.1,112,38,112z"/>
		<path class="st7" d="M74,40H54c-1.1,0-2-0.9-2-2V18c0-1.1,0.9-2,2-2h20c1.1,0,2,0.9,2,2v20C76,39.1,75.1,40,74,40z"/>
		<line class="st7" x1="64" y1="88" x2="64" y2="40"/>
		<polyline class="st7" points="28,88 28,64 27,64 101,64 100,64 100,88 		"/>
	</g>
	<g id="Live_Paint">
		<g id="XMLID_11_">
			<g>
				<path class="st9" d="M112,90v20c0,1.1-0.9,2-2,2H90c-1.1,0-2-0.9-2-2V90c0-1.1,0.9-2,2-2h10h10C111.1,88,112,88.9,112,90z"/>
				<path class="st11" d="M76,90v20c0,1.1-0.9,2-2,2H54c-1.1,0-2-0.9-2-2V90c0-1.1,0.9-2,2-2h10h10C75.1,88,76,88.9,76,90z"/>
				<path class="st8" d="M40,90v20c0,1.1-0.9,2-2,2H18c-1.1,0-2-0.9-2-2V90c0-1.1,0.9-2,2-2h10h10C39.1,88,40,88.9,40,90z"/>
				<path class="st10" d="M76,18v20c0,1.1-0.9,2-2,2H64H54c-1.1,0-2-0.9-2-2V18c0-1.1,0.9-2,2-2h20C75.1,16,76,16.9,76,18z"/>
			</g>
			<g>
				<path class="st0" d="M110,112H90c-1.1,0-2-0.9-2-2V90c0-1.1,0.9-2,2-2h10h10c1.1,0,2,0.9,2,2v20C112,111.1,111.1,112,110,112z"
					/>
				<path class="st0" d="M74,112H54c-1.1,0-2-0.9-2-2V90c0-1.1,0.9-2,2-2h10h10c1.1,0,2,0.9,2,2v20C76,111.1,75.1,112,74,112z"/>
				<path class="st0" d="M38,112H18c-1.1,0-2-0.9-2-2V90c0-1.1,0.9-2,2-2h10h10c1.1,0,2,0.9,2,2v20C40,111.1,39.1,112,38,112z"/>
				<path class="st0" d="M74,40H64H54c-1.1,0-2-0.9-2-2V18c0-1.1,0.9-2,2-2h20c1.1,0,2,0.9,2,2v20C76,39.1,75.1,40,74,40z"/>
				<polyline class="st0" points="64,88 64,64 64,40 				"/>
				<polyline class="st0" points="27,64 28,64 28,88 				"/>
				<polyline class="st0" points="101,64 100,64 64,64 28,64 				"/>
				<line class="st0" x1="100" y1="88" x2="100" y2="64"/>
			</g>
		</g>
	</g>
</g>
</svg>
