<?xml version="1.0" encoding="utf-8"?>
<!-- Generator: Adobe Illustrator 19.2.1, SVG Export Plug-In . SVG Version: 6.00 Build 0)  -->
<svg version="1.1" xmlns="http://www.w3.org/2000/svg" xmlns:xlink="http://www.w3.org/1999/xlink" x="0px" y="0px"
	 viewBox="0 0 128 128" style="enable-background:new 0 0 128 128;" xml:space="preserve">
<style type="text/css">
	.st0{fill:none;stroke:#263238;stroke-width:2;stroke-miterlimit:10;}
	.st1{fill:#EF5350;stroke:#263238;stroke-width:2;stroke-miterlimit:10;}
	.st2{fill:#009688;stroke:#263238;stroke-width:2;stroke-miterlimit:10;}
	.st3{fill:#03A9F4;stroke:#263238;stroke-width:2;stroke-miterlimit:10;}
	.st4{fill:#CFD8DC;stroke:#263238;stroke-width:2;stroke-miterlimit:10;}
	.st5{display:none;}
	.st6{display:inline;}
	.st7{display:inline;fill:none;stroke:#263238;stroke-width:2;stroke-miterlimit:10;}
	.st8{fill:#009688;}
	.st9{fill:#03A9F4;}
	.st10{fill:#EF5350;}
	.st11{fill:#CFD8DC;}
	.st12{fill-rule:evenodd;clip-rule:evenodd;fill:none;stroke:#263238;stroke-width:2;stroke-miterlimit:10;}
	.st13{fill:#37474F;}
	
		.st14{display:inline;fill:none;stroke:#263238;stroke-width:2;stroke-linecap:round;stroke-miterlimit:10;stroke-dasharray:1.9328,3.8656;}
	.st15{fill:#263238;}
	.st16{display:inline;fill:#263238;}
	.st17{display:inline;fill:#FFFFFF;stroke:#000000;stroke-width:2;stroke-miterlimit:10;}
	.st18{display:inline;fill-rule:evenodd;clip-rule:evenodd;fill:none;stroke:#263238;stroke-width:2;stroke-miterlimit:10;}
	.st19{fill:#58595B;}
	.st20{fill:url(#SVGID_1_);}
	.st21{fill:url(#SVGID_2_);}
	.st22{fill:url(#SVGID_3_);}
	.st23{fill:none;stroke:#4A4A4C;stroke-width:0.5;}
	.st24{opacity:0.23;fill:#231F20;enable-background:new    ;}
	.st25{fill:none;stroke:#A8ABAD;stroke-width:0.5;}
	.st26{fill:none;stroke:#37474F;stroke-width:0.5;}
	.st27{fill:#6D6E70;}
	.st28{fill:#FFFFFF;}
	.st29{display:inline;fill:none;stroke:#000000;stroke-width:2;stroke-linecap:round;stroke-linejoin:round;}
	.st30{fill:none;stroke:#000000;stroke-width:2;stroke-linecap:round;stroke-linejoin:round;}
	.st31{display:inline;fill:none;}
	.st32{fill:none;}
	.st33{display:inline;fill-rule:evenodd;clip-rule:evenodd;fill:#263238;}
</style>
<g id="manage_and_organize">
	<g class="st5">
		<path class="st7" d="M111,113H29c-1.1,0-2-0.9-2-2V43h39l0,8h45c1.1,0,2,0.9,2,2v58C113,112.1,112.1,113,111,113z"/>
		<path class="st7" d="M27,99h-4c-1.1,0-2-0.9-2-2V29h39v8h45c1.1,0,2,0.9,2,2v-1v13"/>
		<path class="st7" d="M101,37V24v1c0-1.1-0.9-2-2-2H54v-8H15v68c0,1.1,0.9,2,2,2h4"/>
		<g class="st6">
			<path class="st0" d="M85.7,79.4h-1.6c-0.7,0-1.5-0.6-1.7-1.2l-0.9-2.2c-0.3-0.6-0.2-1.6,0.3-2.1l1.1-1.1c0.5-0.5,0.5-1.3,0-1.9
				l-1.9-1.8c-0.5-0.5-1.3-0.5-1.8,0l-1.1,1.1c-0.5,0.5-1.4,0.6-2.1,0.3l-2.2-0.9c-0.7-0.2-1.2-1-1.2-1.7v-1.6
				c0-0.7-0.6-1.3-1.3-1.3h-2.6c-0.7,0-1.3,0.6-1.3,1.3v1.6c0,0.7-0.6,1.5-1.2,1.7l-2.2,0.9c-0.6,0.3-1.6,0.2-2.1-0.3l-1.1-1.1
				c-0.5-0.5-1.3-0.5-1.8,0l-1.8,1.8c-0.5,0.5-0.5,1.3,0,1.8l1.1,1.1c0.5,0.5,0.7,1.4,0.3,2.1l-0.9,2.2c-0.2,0.7-1,1.2-1.7,1.2
				l-1.6,0c-0.7,0-1.3,0.6-1.3,1.3v2.6c0,0.7,0.6,1.3,1.3,1.3h1.6c0.7,0,1.5,0.6,1.7,1.3l0.9,2.2c0.3,0.6,0.2,1.6-0.3,2.1l-1.1,1.1
				c-0.5,0.5-0.5,1.3,0,1.9l1.9,1.8c0.5,0.5,1.3,0.5,1.8,0l1.1-1.1c0.5-0.5,1.4-0.6,2.1-0.3l2.2,0.9c0.7,0.2,1.2,1,1.2,1.7v1.6
				c0,0.7,0.6,1.3,1.3,1.3h2.6c0.7,0,1.3-0.6,1.3-1.3v-1.6c0-0.7,0.6-1.5,1.2-1.7l2.2-0.9c0.6-0.3,1.6-0.2,2.1,0.3l1.1,1.1
				c0.5,0.5,1.3,0.5,1.8,0l1.9-1.8c0.5-0.5,0.5-1.3,0-1.9l-1.1-1.1c-0.5-0.5-0.6-1.4-0.3-2.1l0.9-2.2c0.2-0.7,1-1.2,1.7-1.2h1.6
				c0.7,0,1.3-0.6,1.3-1.3v-2.6C87,80,86.4,79.4,85.7,79.4z M76.5,82c0,3.6-2.9,6.5-6.5,6.5c-3.6,0-6.5-2.9-6.5-6.5
				c0-3.6,2.9-6.5,6.5-6.5C73.6,75.5,76.5,78.4,76.5,82z"/>
		</g>
	</g>
	<g>
		<g id="XMLID_34_">
			<g>
				<path class="st9" d="M101,25v12H60v-8H21v56h-4c-1.1,0-2-0.9-2-2V15h39v8h45C100.1,23,101,23.9,101,25z"/>
				<path class="st10" d="M107,39v12H66v-8H27v56h-4c-1.1,0-2-0.9-2-2V85V29h39v8h41h4C106.1,37,107,37.9,107,39z"/>
				<path class="st8" d="M87,80.7v2.6c0,0.7-0.6,1.3-1.3,1.3h-1.6c-0.7,0-1.5,0.6-1.7,1.2l-0.9,2.2c-0.3,0.6-0.2,1.6,0.3,2.1
					l1.1,1.1c0.5,0.5,0.5,1.3,0,1.8l-1.8,1.8c-0.5,0.5-1.3,0.5-1.8,0l-1.1-1.1c-0.5-0.5-1.4-0.6-2.1-0.3l-2.2,0.9
					c-0.7,0.2-1.2,1-1.2,1.7v1.6c0,0.7-0.6,1.3-1.3,1.3h-2.6c-0.7,0-1.3-0.6-1.3-1.3v-1.6c0-0.7-0.6-1.5-1.2-1.7l-2.2-0.9
					c-0.6-0.3-1.6-0.2-2.1,0.3l-1.1,1.1c-0.5,0.5-1.3,0.5-1.8,0l-1.8-1.8c-0.5-0.5-0.5-1.3,0-1.8l1.1-1.1c0.5-0.5,0.7-1.4,0.3-2.1
					l-0.9-2.2c-0.2-0.7-1-1.2-1.7-1.2h-1.6c-0.7,0-1.3-0.6-1.3-1.3v-2.6c0-0.7,0.6-1.3,1.3-1.3h1.6c0.7,0,1.5-0.6,1.7-1.2l0.9-2.2
					c0.3-0.6,0.2-1.6-0.3-2.1l-1.1-1.1c-0.5-0.5-0.5-1.3,0-1.8l1.8-1.8c0.5-0.5,1.3-0.5,1.8,0l1.1,1.1c0.5,0.5,1.4,0.7,2.1,0.3
					l2.2-0.9c0.7-0.2,1.2-1,1.2-1.7v-1.6c0-0.7,0.6-1.3,1.3-1.3h2.6c0.7,0,1.3,0.6,1.3,1.3v1.6c0,0.7,0.6,1.5,1.2,1.7l2.2,0.9
					c0.6,0.3,1.6,0.2,2.1-0.3l1.1-1.1c0.5-0.5,1.3-0.5,1.8,0l1.8,1.8c0.5,0.5,0.5,1.3,0,1.8l-1.1,1.1c-0.5,0.5-0.6,1.4-0.3,2.1
					l0.9,2.2c0.2,0.7,1,1.2,1.7,1.2h1.6C86.4,79.4,87,80,87,80.7z M76.6,82c0-3.6-2.9-6.5-6.5-6.5c-3.6,0-6.6,2.9-6.6,6.5
					s2.9,6.5,6.6,6.5C73.6,88.5,76.6,85.6,76.6,82z"/>
				<path class="st11" d="M70,75.5c3.6,0,6.5,2.9,6.5,6.5s-2.9,6.5-6.5,6.5c-3.6,0-6.6-2.9-6.6-6.5S66.4,75.5,70,75.5z"/>
				<path class="st11" d="M113,53v58c0,1.1-0.9,2-2,2H29c-1.1,0-2-0.9-2-2V99V43h39v8h41h4C112.1,51,113,51.9,113,53z M87,83.3v-2.6
					c0-0.7-0.6-1.3-1.3-1.3h-1.6c-0.7,0-1.5-0.6-1.7-1.2l-0.9-2.2c-0.3-0.6-0.2-1.6,0.3-2.1l1.1-1.1c0.5-0.5,0.5-1.3,0-1.8l-1.8-1.8
					c-0.5-0.5-1.3-0.5-1.8,0l-1.1,1.1c-0.5,0.5-1.4,0.6-2.1,0.3l-2.2-0.9c-0.7-0.2-1.2-1-1.2-1.7v-1.6c0-0.7-0.6-1.3-1.3-1.3h-2.6
					c-0.7,0-1.3,0.6-1.3,1.3v1.6c0,0.7-0.6,1.5-1.2,1.7L64,70.5c-0.6,0.3-1.6,0.2-2.1-0.3l-1.1-1.1c-0.5-0.5-1.3-0.5-1.8,0l-1.8,1.8
					c-0.5,0.5-0.5,1.3,0,1.8l1.1,1.1c0.5,0.5,0.7,1.4,0.3,2.1l-0.9,2.2c-0.2,0.7-1,1.2-1.7,1.2h-1.6c-0.7,0-1.3,0.6-1.3,1.3v2.6
					c0,0.7,0.6,1.3,1.3,1.3h1.6c0.7,0,1.5,0.6,1.7,1.2l0.9,2.2c0.3,0.6,0.2,1.6-0.3,2.1l-1.1,1.1c-0.5,0.5-0.5,1.3,0,1.8l1.8,1.8
					c0.5,0.5,1.3,0.5,1.8,0l1.1-1.1c0.5-0.5,1.4-0.6,2.1-0.3l2.2,0.9c0.7,0.2,1.2,1,1.2,1.7v1.6c0,0.7,0.6,1.3,1.3,1.3h2.6
					c0.7,0,1.3-0.6,1.3-1.3v-1.6c0-0.7,0.6-1.5,1.2-1.7l2.2-0.9c0.6-0.3,1.6-0.2,2.1,0.3l1.1,1.1c0.5,0.5,1.3,0.5,1.8,0l1.8-1.8
					c0.5-0.5,0.5-1.3,0-1.8l-1.1-1.1c-0.5-0.5-0.6-1.4-0.3-2.1l0.9-2.2c0.2-0.7,1-1.2,1.7-1.2h1.6C86.4,84.6,87,84,87,83.3z"/>
			</g>
			<g>
				<path class="st0" d="M107,51h4c1.1,0,2,0.9,2,2v58c0,1.1-0.9,2-2,2H29c-1.1,0-2-0.9-2-2V99V43h39v8H107z"/>
				<line class="st0" x1="107" y1="39" x2="107" y2="51"/>
				<path class="st0" d="M27,99h-4c-1.1,0-2-0.9-2-2V85V29h39v8h41h4c1.1,0,2,0.9,2,2v-1"/>
				<path class="st0" d="M101,25c0-1.1-0.9-2-2-2H54v-8H15v68c0,1.1,0.9,2,2,2h4"/>
				<polyline class="st0" points="101,37 101,25 101,24 				"/>
				<path class="st0" d="M85.7,79.4h-1.6c-0.7,0-1.5-0.6-1.7-1.2l-0.9-2.2c-0.3-0.6-0.2-1.6,0.3-2.1l1.1-1.1c0.5-0.5,0.5-1.3,0-1.8
					l-1.8-1.8c-0.5-0.5-1.3-0.5-1.8,0l-1.1,1.1c-0.5,0.5-1.4,0.6-2.1,0.3l-2.2-0.9c-0.7-0.2-1.2-1-1.2-1.7v-1.6
					c0-0.7-0.6-1.3-1.3-1.3h-2.6c-0.7,0-1.3,0.6-1.3,1.3v1.6c0,0.7-0.6,1.5-1.2,1.7L64,70.5c-0.6,0.3-1.6,0.2-2.1-0.3l-1.1-1.1
					c-0.5-0.5-1.3-0.5-1.8,0l-1.8,1.8c-0.5,0.5-0.5,1.3,0,1.8l1.1,1.1c0.5,0.5,0.7,1.4,0.3,2.1l-0.9,2.2c-0.2,0.7-1,1.2-1.7,1.2
					h-1.6c-0.7,0-1.3,0.6-1.3,1.3v2.6c0,0.7,0.6,1.3,1.3,1.3h1.6c0.7,0,1.5,0.6,1.7,1.2l0.9,2.2c0.3,0.6,0.2,1.6-0.3,2.1l-1.1,1.1
					c-0.5,0.5-0.5,1.3,0,1.8l1.8,1.8c0.5,0.5,1.3,0.5,1.8,0l1.1-1.1c0.5-0.5,1.4-0.6,2.1-0.3l2.2,0.9c0.7,0.2,1.2,1,1.2,1.7v1.6
					c0,0.7,0.6,1.3,1.3,1.3h2.6c0.7,0,1.3-0.6,1.3-1.3v-1.6c0-0.7,0.6-1.5,1.2-1.7l2.2-0.9c0.6-0.3,1.6-0.2,2.1,0.3l1.1,1.1
					c0.5,0.5,1.3,0.5,1.8,0l1.8-1.8c0.5-0.5,0.5-1.3,0-1.8l-1.1-1.1c-0.5-0.5-0.6-1.4-0.3-2.1l0.9-2.2c0.2-0.7,1-1.2,1.7-1.2h1.6
					c0.7,0,1.3-0.6,1.3-1.3v-2.6C87,80,86.4,79.4,85.7,79.4z"/>
				<path class="st0" d="M76.6,82c0,3.6-2.9,6.5-6.5,6.5c-3.6,0-6.6-2.9-6.6-6.5s2.9-6.5,6.6-6.5C73.6,75.5,76.6,78.4,76.6,82z"/>
			</g>
		</g>
	</g>
</g>
</svg>
