<?xml version="1.0" encoding="utf-8"?>
<!-- Generator: Adobe Illustrator 19.2.1, SVG Export Plug-In . SVG Version: 6.00 Build 0)  -->
<svg version="1.1" xmlns="http://www.w3.org/2000/svg" xmlns:xlink="http://www.w3.org/1999/xlink" x="0px" y="0px"
	 viewBox="0 0 128 128" style="enable-background:new 0 0 128 128;" xml:space="preserve">
<style type="text/css">
	.st0{fill:none;stroke:#263238;stroke-width:2;stroke-miterlimit:10;}
	.st1{fill:#EF5350;stroke:#263238;stroke-width:2;stroke-miterlimit:10;}
	.st2{fill:#009688;stroke:#263238;stroke-width:2;stroke-miterlimit:10;}
	.st3{fill:#03A9F4;stroke:#263238;stroke-width:2;stroke-miterlimit:10;}
	.st4{fill:#CFD8DC;stroke:#263238;stroke-width:2;stroke-miterlimit:10;}
	.st5{display:none;}
	.st6{display:inline;}
	.st7{display:inline;fill:none;stroke:#263238;stroke-width:2;stroke-miterlimit:10;}
	.st8{fill:#009688;}
	.st9{fill:#03A9F4;}
	.st10{fill:#EF5350;}
	.st11{fill:#CFD8DC;}
	.st12{fill-rule:evenodd;clip-rule:evenodd;fill:none;stroke:#263238;stroke-width:2;stroke-miterlimit:10;}
	.st13{fill:#37474F;}
	
		.st14{display:inline;fill:none;stroke:#263238;stroke-width:2;stroke-linecap:round;stroke-miterlimit:10;stroke-dasharray:1.9328,3.8656;}
	.st15{fill:#263238;}
	.st16{display:inline;fill:#263238;}
	.st17{display:inline;fill:#FFFFFF;stroke:#000000;stroke-width:2;stroke-miterlimit:10;}
	.st18{display:inline;fill-rule:evenodd;clip-rule:evenodd;fill:none;stroke:#263238;stroke-width:2;stroke-miterlimit:10;}
	.st19{fill:#58595B;}
	.st20{fill:url(#SVGID_1_);}
	.st21{fill:url(#SVGID_2_);}
	.st22{fill:url(#SVGID_3_);}
	.st23{fill:none;stroke:#4A4A4C;stroke-width:0.5;}
	.st24{opacity:0.23;fill:#231F20;enable-background:new    ;}
	.st25{fill:none;stroke:#A8ABAD;stroke-width:0.5;}
	.st26{fill:none;stroke:#37474F;stroke-width:0.5;}
	.st27{fill:#6D6E70;}
	.st28{fill:#FFFFFF;}
	.st29{display:inline;fill:none;stroke:#000000;stroke-width:2;stroke-linecap:round;stroke-linejoin:round;}
	.st30{fill:none;stroke:#000000;stroke-width:2;stroke-linecap:round;stroke-linejoin:round;}
	.st31{display:inline;fill:none;}
	.st32{fill:none;}
	.st33{display:inline;fill-rule:evenodd;clip-rule:evenodd;fill:#263238;}
</style>
<g id="customize_clients">
	<g class="st5">
		<path class="st7" d="M111,101H17c-1.1,0-2-0.9-2-2V29c0-1.1,0.9-2,2-2h94c1.1,0,2,0.9,2,2v70C113,100.1,112.1,101,111,101z"/>
		<path class="st7" d="M15,42h98H15z"/>
		<circle class="st7" cx="22" cy="34" r="2"/>
		<circle class="st7" cx="30" cy="34" r="2"/>
		<circle class="st7" cx="38" cy="34" r="2"/>
		<path class="st29" d="M80.6,67.2H79c-0.8,0-1.6-0.6-1.8-1.3l-1-2.3c-0.4-0.7-0.2-1.7,0.3-2.2l1.2-1.2c0.5-0.5,0.5-1.4,0-2l-2-2
			c-0.5-0.5-1.4-0.5-2,0l-1.2,1.2c-0.5,0.5-1.5,0.7-2.2,0.3l-2.3-1c-0.7-0.2-1.3-1-1.3-1.8v-1.7c0-0.8-0.6-1.4-1.4-1.4h-2.8
			c-0.8,0-1.4,0.6-1.4,1.4V55c0,0.8-0.6,1.6-1.3,1.8l-2.3,1c-0.7,0.4-1.7,0.2-2.2-0.3l-1.2-1.2c-0.5-0.5-1.4-0.5-2,0l-2,2
			c-0.5,0.5-0.5,1.4,0,2l1.2,1.2c0.5,0.5,0.7,1.5,0.3,2.2l-1,2.3c-0.2,0.7-1,1.3-1.8,1.3l-1.7,0c-0.8,0-1.4,0.6-1.4,1.4v2.8
			c0,0.8,0.6,1.4,1.4,1.4H49c0.8,0,1.6,0.6,1.8,1.3l1,2.3c0.4,0.7,0.2,1.7-0.3,2.2l-1.2,1.2c-0.5,0.5-0.5,1.4,0,2l2,2
			c0.5,0.5,1.4,0.5,2,0l1.2-1.2c0.5-0.5,1.5-0.7,2.2-0.3l2.3,1c0.7,0.2,1.3,1,1.3,1.8v1.7c0,0.8,0.6,1.4,1.4,1.4h2.8
			c0.8,0,1.4-0.6,1.4-1.4V85c0-0.8,0.6-1.6,1.3-1.8l2.3-1c0.7-0.4,1.7-0.2,2.2,0.3l1.2,1.2c0.5,0.5,1.4,0.5,2,0l2-2
			c0.5-0.5,0.5-1.4,0-2l-1.2-1.2c-0.5-0.5-0.7-1.5-0.3-2.2l1-2.3c0.2-0.7,1-1.3,1.8-1.3h1.7c0.8,0,1.4-0.6,1.4-1.4v-2.8
			C82,67.9,81.4,67.2,80.6,67.2z"/>
		<ellipse class="st29" cx="64" cy="70" rx="6.9" ry="6.9"/>
	</g>
	<g>
		<g id="XMLID_17_">
			<g>
				<circle class="st9" cx="30" cy="34" r="2"/>
				<circle class="st8" cx="38" cy="34" r="2"/>
				<path class="st9" d="M82,68.6v2.8c0,0.8-0.6,1.4-1.4,1.4H79c-0.8,0-1.6,0.6-1.8,1.3l-1,2.3c-0.4,0.7-0.2,1.7,0.3,2.2l1.2,1.2
					c0.5,0.5,0.5,1.4,0,2l-2,2c-0.5,0.5-1.4,0.5-2,0l-1.2-1.2c-0.5-0.5-1.5-0.7-2.2-0.3l-2.3,1c-0.7,0.2-1.3,1-1.3,1.8v1.7
					c0,0.8-0.6,1.4-1.4,1.4h-2.8c-0.8,0-1.4-0.6-1.4-1.4V85c0-0.8-0.6-1.6-1.3-1.8l-2.3-1c-0.7-0.4-1.7-0.2-2.2,0.3l-1.2,1.2
					c-0.5,0.5-1.4,0.5-2,0l-2-2c-0.5-0.5-0.5-1.4,0-2l1.2-1.2c0.5-0.5,0.7-1.5,0.3-2.2l-1-2.3c-0.2-0.7-1-1.3-1.8-1.3h-1.7
					c-0.8,0-1.4-0.6-1.4-1.4v-2.8c0-0.8,0.6-1.4,1.4-1.4H49c0.8,0,1.6-0.6,1.8-1.3l1-2.3c0.4-0.7,0.2-1.7-0.3-2.2l-1.2-1.2
					c-0.5-0.5-0.5-1.4,0-2l2-2c0.5-0.5,1.4-0.5,2,0l1.2,1.2c0.5,0.5,1.5,0.7,2.2,0.3l2.3-1c0.7-0.2,1.3-1,1.3-1.8v-1.7
					c0-0.8,0.6-1.4,1.4-1.4h2.8c0.8,0,1.4,0.6,1.4,1.4V55c0,0.8,0.6,1.6,1.3,1.8l2.3,1c0.7,0.4,1.7,0.2,2.2-0.3l1.2-1.2
					c0.5-0.5,1.4-0.5,2,0l2,2c0.5,0.5,0.5,1.4,0,2l-1.2,1.2c-0.5,0.5-0.7,1.5-0.3,2.2l1,2.3c0.2,0.7,1,1.3,1.8,1.3h1.7
					C81.4,67.2,82,67.8,82,68.6z M70.9,70c0-3.8-3.1-6.9-6.9-6.9c-3.8,0-6.9,3.1-6.9,6.9s3.1,6.9,6.9,6.9
					C67.8,76.9,70.9,73.8,70.9,70z"/>
				<circle class="st10" cx="22" cy="34" r="2"/>
				<path class="st11" d="M113,29v13H15V29c0-1.1,0.9-2,2-2h94C112.1,27,113,27.9,113,29z M40,34c0-1.1-0.9-2-2-2s-2,0.9-2,2
					s0.9,2,2,2S40,35.1,40,34z M32,34c0-1.1-0.9-2-2-2s-2,0.9-2,2s0.9,2,2,2S32,35.1,32,34z M24,34c0-1.1-0.9-2-2-2s-2,0.9-2,2
					s0.9,2,2,2S24,35.1,24,34z"/>
			</g>
			<g>
				<path class="st0" d="M113,42v57c0,1.1-0.9,2-2,2H17c-1.1,0-2-0.9-2-2V42V29c0-1.1,0.9-2,2-2h94c1.1,0,2,0.9,2,2V42z"/>
				<line class="st0" x1="113" y1="42" x2="15" y2="42"/>
				<circle class="st0" cx="22" cy="34" r="2"/>
				<circle class="st0" cx="30" cy="34" r="2"/>
				<circle class="st0" cx="38" cy="34" r="2"/>
				<path class="st30" d="M80.6,67.2H79c-0.8,0-1.6-0.6-1.8-1.3l-1-2.3c-0.4-0.7-0.2-1.7,0.3-2.2l1.2-1.2c0.5-0.5,0.5-1.4,0-2l-2-2
					c-0.5-0.5-1.4-0.5-2,0l-1.2,1.2c-0.5,0.5-1.5,0.7-2.2,0.3l-2.3-1c-0.7-0.2-1.3-1-1.3-1.8v-1.7c0-0.8-0.6-1.4-1.4-1.4h-2.8
					c-0.8,0-1.4,0.6-1.4,1.4V55c0,0.8-0.6,1.6-1.3,1.8l-2.3,1c-0.7,0.4-1.7,0.2-2.2-0.3l-1.2-1.2c-0.5-0.5-1.4-0.5-2,0l-2,2
					c-0.5,0.5-0.5,1.4,0,2l1.2,1.2c0.5,0.5,0.7,1.5,0.3,2.2l-1,2.3c-0.2,0.7-1,1.3-1.8,1.3h-1.7c-0.8,0-1.4,0.6-1.4,1.4v2.8
					c0,0.8,0.6,1.4,1.4,1.4H49c0.8,0,1.6,0.6,1.8,1.3l1,2.3c0.4,0.7,0.2,1.7-0.3,2.2l-1.2,1.2c-0.5,0.5-0.5,1.4,0,2l2,2
					c0.5,0.5,1.4,0.5,2,0l1.2-1.2c0.5-0.5,1.5-0.7,2.2-0.3l2.3,1c0.7,0.2,1.3,1,1.3,1.8v1.7c0,0.8,0.6,1.4,1.4,1.4h2.8
					c0.8,0,1.4-0.6,1.4-1.4V85c0-0.8,0.6-1.6,1.3-1.8l2.3-1c0.7-0.4,1.7-0.2,2.2,0.3l1.2,1.2c0.5,0.5,1.4,0.5,2,0l2-2
					c0.5-0.5,0.5-1.4,0-2l-1.2-1.2c-0.5-0.5-0.7-1.5-0.3-2.2l1-2.3c0.2-0.7,1-1.3,1.8-1.3h1.7c0.8,0,1.4-0.6,1.4-1.4v-2.8
					C82,67.8,81.4,67.2,80.6,67.2z"/>
				<path class="st30" d="M70.9,70c0,3.8-3.1,6.9-6.9,6.9c-3.8,0-6.9-3.1-6.9-6.9s3.1-6.9,6.9-6.9C67.8,63.1,70.9,66.2,70.9,70z"/>
			</g>
		</g>
	</g>
</g>
</svg>
