<?xml version="1.0" encoding="utf-8"?>
<!-- Generator: Adobe Illustrator 19.2.1, SVG Export Plug-In . SVG Version: 6.00 Build 0)  -->
<svg version="1.1" xmlns="http://www.w3.org/2000/svg" xmlns:xlink="http://www.w3.org/1999/xlink" x="0px" y="0px"
	 viewBox="0 0 128 128" style="enable-background:new 0 0 128 128;" xml:space="preserve">
<style type="text/css">
	.st0{fill:none;stroke:#263238;stroke-width:2;stroke-miterlimit:10;}
	.st1{fill:#EF5350;stroke:#263238;stroke-width:2;stroke-miterlimit:10;}
	.st2{fill:#009688;stroke:#263238;stroke-width:2;stroke-miterlimit:10;}
	.st3{fill:#03A9F4;stroke:#263238;stroke-width:2;stroke-miterlimit:10;}
	.st4{fill:#CFD8DC;stroke:#263238;stroke-width:2;stroke-miterlimit:10;}
	.st5{display:none;}
	.st6{display:inline;}
	.st7{display:inline;fill:none;stroke:#263238;stroke-width:2;stroke-miterlimit:10;}
	.st8{fill:#009688;}
	.st9{fill:#03A9F4;}
	.st10{fill:#EF5350;}
	.st11{fill:#CFD8DC;}
	.st12{fill-rule:evenodd;clip-rule:evenodd;fill:none;stroke:#263238;stroke-width:2;stroke-miterlimit:10;}
	.st13{fill:#37474F;}
	
		.st14{display:inline;fill:none;stroke:#263238;stroke-width:2;stroke-linecap:round;stroke-miterlimit:10;stroke-dasharray:1.9328,3.8656;}
	.st15{fill:#263238;}
	.st16{display:inline;fill:#263238;}
	.st17{display:inline;fill:#FFFFFF;stroke:#000000;stroke-width:2;stroke-miterlimit:10;}
	.st18{display:inline;fill-rule:evenodd;clip-rule:evenodd;fill:none;stroke:#263238;stroke-width:2;stroke-miterlimit:10;}
	.st19{fill:#58595B;}
	.st20{fill:url(#SVGID_1_);}
	.st21{fill:url(#SVGID_2_);}
	.st22{fill:url(#SVGID_3_);}
	.st23{fill:none;stroke:#4A4A4C;stroke-width:0.5;}
	.st24{opacity:0.23;fill:#231F20;enable-background:new    ;}
	.st25{fill:none;stroke:#A8ABAD;stroke-width:0.5;}
	.st26{fill:none;stroke:#37474F;stroke-width:0.5;}
	.st27{fill:#6D6E70;}
	.st28{fill:#FFFFFF;}
	.st29{display:inline;fill:none;stroke:#000000;stroke-width:2;stroke-linecap:round;stroke-linejoin:round;}
	.st30{fill:none;stroke:#000000;stroke-width:2;stroke-linecap:round;stroke-linejoin:round;}
	.st31{display:inline;fill:none;}
	.st32{fill:none;}
	.st33{display:inline;fill-rule:evenodd;clip-rule:evenodd;fill:#263238;}
</style>
<g id="artboards">
</g>
<g id="guides">
</g>
<g id="palette">
</g>
<g id="view-images">
</g>
<g id="using_a_public_group">
</g>
<g id="user-added_metadata">
</g>
<g id="unit-support">
	<g id="raw_10_" class="st5">
	</g>
	<g id="Live_Paint">
	</g>
</g>
<g id="supported_file_formats">
</g>
<g id="share">
</g>
<g id="searching_and_filtering">
</g>
<g id="scripting_service">
</g>
<g id="roi_folders_1_">
	<g id="raw_8_">
	</g>
</g>
<g id="reverse_intensity_rendering_1_">
	<g id="raw_7_" class="st5">
	</g>
</g>
<g id="rendering_settings">
</g>
<g id="quality_assurance_1_">
	<g id="raw_6_" class="st5">
	</g>
</g>
<g id="python_blitz_api">
</g>
<g id="public_access">
</g>
<g id="personalize">
	<g id="raw_5_" class="st5">
	</g>
</g>
<g id="original_file_formats">
</g>
<g id="orbit_image_analysis">
</g>
<g id="open_with..._1_">
	<g id="raw_4_" class="st5">
	</g>
</g>
<g id="omero-wnd-charm">
</g>
<g id="omero.webtagging">
	<g class="st5">
		<path class="st18" d="M37.1,64.7c-2.5-2.4-6.5-2.4-8.9,0c-2.5,2.4-2.5,6.4,0,8.8c2.5,2.4,6.5,2.4,8.9,0
			C39.6,71.1,39.6,67.1,37.1,64.7z M49.3,111.7L18.7,81.4c-1.1-1-1.5-2.5-1.3-3.8c-0.1-0.3-0.2-0.6-0.2-1L15,54.8
			c-0.2-2.3,1.5-4,3.8-3.8l21.9,2.2c0.9,0.1,3.6,1.4,4.3,2.1l30.6,30.3c1.7,1.7,1.7,4.5,0,6.3l-20,19.9
			C53.9,113.4,51.1,113.4,49.3,111.7z"/>
		<path class="st18" d="M55.1,46.7c-2.5-2.4-6.5-2.4-8.9,0c-2.5,2.4-2.5,6.4,0,8.8c2.5,2.4,6.5,2.4,8.9,0
			C57.6,53.1,57.6,49.1,55.1,46.7z M67.3,93.7L36.7,63.4c-1.1-1-1.5-2.5-1.3-3.8c-0.1-0.3-0.2-0.6-0.2-1L33,36.8
			c-0.2-2.3,1.5-4,3.8-3.8l21.9,2.2c0.9,0.1,3.6,1.4,4.3,2.1l30.6,30.3c1.7,1.7,1.7,4.5,0,6.3l-20,19.9
			C71.9,95.4,69.1,95.4,67.3,93.7z"/>
		<path class="st18" d="M73.1,28.7c-2.5-2.4-6.5-2.4-8.9,0c-2.5,2.4-2.5,6.4,0,8.8c2.5,2.4,6.5,2.4,8.9,0
			C75.6,35.1,75.6,31.1,73.1,28.7z M85.3,75.7L54.7,45.4c-1.1-1-1.5-2.5-1.3-3.8c-0.1-0.3-0.2-0.6-0.2-1L51,18.8
			c-0.2-2.3,1.5-4,3.8-3.8l21.9,2.2c0.9,0.1,3.6,1.4,4.3,2.1l30.6,30.3c1.7,1.7,1.7,4.5,0,6.3l-20,19.9
			C89.9,77.4,87.1,77.4,85.3,75.7z"/>
	</g>
	<g>
		<g id="XMLID_40_">
			<g>
				<path class="st8" d="M37.1,73.5c2.5-2.4,2.5-6.4,0-8.8c-2.5-2.4-6.5-2.4-8.9,0c-2.5,2.4-2.5,6.4,0,8.8
					C30.7,75.9,34.7,75.9,37.1,73.5z M36.7,63.4l30.6,30.3c1.7,1.7,4.6,1.7,6.3,0l2.7-2.6c-0.2,0.3-0.4,0.6-0.6,0.8l-20.1,19.8
					c-1.7,1.7-4.6,1.7-6.3,0L18.7,81.4c-1-1-1.5-2.5-1.3-3.8c-0.1-0.3-0.2-0.6-0.2-1L15,54.8c-0.2-2.3,1.5-4,3.9-3.8l15.8,1.6l0.6,6
					c0,0.4,0.1,0.7,0.2,1C35.2,60.9,35.7,62.4,36.7,63.4z"/>
				<path class="st9" d="M46.2,55.5c2.5,2.4,6.5,2.4,8.9,0c2.5-2.4,2.5-6.4,0-8.8c-2.5-2.4-6.5-2.4-8.9,0
					C43.7,49.1,43.7,53.1,46.2,55.5z M73.6,93.7c-1.7,1.7-4.6,1.7-6.3,0L36.7,63.4c-1.1-1-1.5-2.5-1.3-3.8c-0.1-0.3-0.2-0.6-0.2-1
					l-0.6-6L33,36.8c-0.2-2.3,1.5-4,3.8-3.8l15.8,1.6l6.2,0.6c1,0.1,3.6,1.4,4.3,2l30.6,30.3c1.5,1.5,1.7,3.8,0.6,5.5
					c-0.2,0.3-0.4,0.6-0.6,0.8L76.3,91.1L73.6,93.7z"/>
				<path class="st10" d="M93.7,67.6L63.1,37.3c-0.7-0.7-3.4-2-4.3-2l-6.2-0.6L51,18.8c-0.2-2.3,1.5-4,3.8-3.8l21.9,2.2
					c0.9,0.1,3.6,1.4,4.3,2.1l30.6,30.3c1.7,1.7,1.8,4.5,0,6.3L94.3,73.1C95.4,71.3,95.2,69.1,93.7,67.6z M64.2,37.5
					c2.5,2.4,6.5,2.4,8.9,0c2.5-2.4,2.5-6.4,0-8.8c-2.5-2.4-6.5-2.4-8.9,0C61.7,31.1,61.7,35.1,64.2,37.5z"/>
			</g>
			<g>
				<path class="st0" d="M34.6,52.6L18.9,51c-2.4-0.2-4.1,1.5-3.9,3.8l2.2,21.7c0,0.4,0.1,0.7,0.2,1c-0.2,1.3,0.2,2.8,1.3,3.8
					l30.6,30.3c1.7,1.7,4.6,1.7,6.3,0l20.1-19.8c0.2-0.2,0.4-0.5,0.6-0.8"/>
				<path class="st0" d="M28.2,64.7c2.5-2.4,6.5-2.4,8.9,0c2.5,2.4,2.5,6.4,0,8.8c-2.5,2.4-6.5,2.4-8.9,0
					C25.7,71.1,25.7,67.1,28.2,64.7z"/>
				<path class="st0" d="M76.3,91.1l17.4-17.2c0.2-0.2,0.4-0.5,0.6-0.8"/>
				<path class="st0" d="M52.6,34.6L36.9,33c-2.4-0.2-4.1,1.5-3.8,3.8l1.6,15.8"/>
				<path class="st0" d="M46.2,46.7c2.5-2.4,6.5-2.4,8.9,0c2.5,2.4,2.5,6.4,0,8.8c-2.5,2.4-6.5,2.4-8.9,0
					C43.7,53.1,43.7,49.1,46.2,46.7z"/>
				<path class="st0" d="M34.6,52.6l0.6,6c0,0.4,0.1,0.7,0.2,1c-0.2,1.3,0.2,2.8,1.3,3.8l30.6,30.3c1.7,1.7,4.6,1.7,6.3,0l2.7-2.6"
					/>
				<path class="st0" d="M94.3,73.1l17.4-17.2c1.8-1.7,1.7-4.5,0-6.3L81.1,19.3c-0.7-0.6-3.4-2-4.3-2.1L54.9,15
					c-2.4-0.2-4.1,1.5-3.8,3.8l1.6,15.8"/>
				<path class="st0" d="M64.2,28.7c2.5-2.4,6.5-2.4,8.9,0c2.5,2.4,2.5,6.4,0,8.8c-2.5,2.4-6.5,2.4-8.9,0
					C61.7,35.1,61.7,31.1,64.2,28.7z"/>
				<path class="st0" d="M91.6,75.7l2.7-2.6c1.1-1.7,0.9-4-0.6-5.5L63.1,37.3c-0.7-0.7-3.4-2-4.3-2l-6.2-0.6"/>
			</g>
		</g>
	</g>
</g>
<g id="omero.mail_1_">
	<g id="raw_1_" class="st5">
	</g>
</g>
<g id="omero.forms">
</g>
<g id="omero.dropbox">
</g>
<g id="omero_as_public_repository">
</g>
<g id="moodle">
	<g id="logo_-_moodle">
	</g>
</g>
<g id="manage_and_organize">
</g>
<g id="manage">
	<g id="raw_9_" class="st5">
	</g>
</g>
<g id="lookup_table_1_">
	<g id="raw_2_" class="st5">
	</g>
</g>
<g id="improved_screen_plate_well_ui_1_">
	<g id="raw_3_" class="st5">
	</g>
</g>
<g id="improved_performance">
</g>
<g id="import_images">
</g>
<g id="import-for">
</g>
<g id="histogram_support">
	<g id="raw" class="st5">
	</g>
</g>
<g id="file_integrity_reports">
</g>
<g id="export_images">
</g>
<g id="export_hcs">
</g>
<g id="export_filesets">
</g>
<g id="draw_rois">
</g>
<g id="customize_clients">
</g>
<g id="command_line_interface">
	<g id="raw_11_" class="st5">
	</g>
	<g id="Live_Paint_1_">
	</g>
</g>
<g id="create_movies">
</g>
<g id="create_figures">
</g>
<g id="big_images">
</g>
<g id="attaching_analytical_results">
</g>
<g id="annotate_data">
</g>
<g id="acquisition_metadata">
</g>
</svg>
