<?xml version="1.0" encoding="utf-8"?>
<!-- Generator: Adobe Illustrator 19.2.1, SVG Export Plug-In . SVG Version: 6.00 Build 0)  -->
<svg version="1.1" xmlns="http://www.w3.org/2000/svg" xmlns:xlink="http://www.w3.org/1999/xlink" x="0px" y="0px"
	 viewBox="0 0 128 128" style="enable-background:new 0 0 128 128;" xml:space="preserve">
<style type="text/css">
	.st0{fill:none;stroke:#263238;stroke-width:2;stroke-miterlimit:10;}
	.st1{fill:#EF5350;stroke:#263238;stroke-width:2;stroke-miterlimit:10;}
	.st2{fill:#009688;stroke:#263238;stroke-width:2;stroke-miterlimit:10;}
	.st3{fill:#03A9F4;stroke:#263238;stroke-width:2;stroke-miterlimit:10;}
	.st4{fill:#CFD8DC;stroke:#263238;stroke-width:2;stroke-miterlimit:10;}
	.st5{display:none;}
	.st6{display:inline;}
	.st7{display:inline;fill:none;stroke:#263238;stroke-width:2;stroke-miterlimit:10;}
	.st8{fill:#009688;}
	.st9{fill:#03A9F4;}
	.st10{fill:#EF5350;}
	.st11{fill:#CFD8DC;}
	.st12{fill-rule:evenodd;clip-rule:evenodd;fill:none;stroke:#263238;stroke-width:2;stroke-miterlimit:10;}
	.st13{fill:#37474F;}
	
		.st14{display:inline;fill:none;stroke:#263238;stroke-width:2;stroke-linecap:round;stroke-miterlimit:10;stroke-dasharray:1.9328,3.8656;}
	.st15{fill:#263238;}
	.st16{display:inline;fill:#263238;}
	.st17{display:inline;fill:#FFFFFF;stroke:#000000;stroke-width:2;stroke-miterlimit:10;}
	.st18{display:inline;fill-rule:evenodd;clip-rule:evenodd;fill:none;stroke:#263238;stroke-width:2;stroke-miterlimit:10;}
	.st19{fill:#58595B;}
	.st20{fill:url(#SVGID_1_);}
	.st21{fill:url(#SVGID_2_);}
	.st22{fill:url(#SVGID_3_);}
	.st23{fill:none;stroke:#4A4A4C;stroke-width:0.5;}
	.st24{opacity:0.23;fill:#231F20;enable-background:new    ;}
	.st25{fill:none;stroke:#A8ABAD;stroke-width:0.5;}
	.st26{fill:none;stroke:#37474F;stroke-width:0.5;}
	.st27{fill:#6D6E70;}
	.st28{fill:#FFFFFF;}
	.st29{display:inline;fill:none;stroke:#000000;stroke-width:2;stroke-linecap:round;stroke-linejoin:round;}
	.st30{fill:none;stroke:#000000;stroke-width:2;stroke-linecap:round;stroke-linejoin:round;}
	.st31{display:inline;fill:none;}
	.st32{fill:none;}
	.st33{display:inline;fill-rule:evenodd;clip-rule:evenodd;fill:#263238;}
</style>
<g id="artboards">
</g>
<g id="guides">
</g>
<g id="palette">
</g>
<g id="view-images">
</g>
<g id="using_a_public_group">
</g>
<g id="user-added_metadata">
</g>
<g id="unit-support">
	<g id="raw_10_" class="st5">
	</g>
	<g id="Live_Paint">
	</g>
</g>
<g id="supported_file_formats">
</g>
<g id="share">
</g>
<g id="searching_and_filtering">
</g>
<g id="scripting_service">
</g>
<g id="roi_folders_1_">
	<g id="raw_8_">
	</g>
</g>
<g id="reverse_intensity_rendering_1_">
	<g id="raw_7_" class="st5">
	</g>
</g>
<g id="rendering_settings">
</g>
<g id="quality_assurance_1_">
	<g id="raw_6_" class="st5">
	</g>
</g>
<g id="python_blitz_api">
</g>
<g id="public_api">
</g>
<g id="public_access">
</g>
<g id="personalize">
	<g id="raw_5_" class="st5">
	</g>
</g>
<g id="original_file_formats">
</g>
<g id="orbit_image_analysis">
</g>
<g id="open_with..._1_">
	<g id="raw_4_" class="st5">
	</g>
</g>
<g id="open_source">
	<g class="st5">
		<path class="st7" d="M111,101H17c-1.1,0-2-0.9-2-2V29c0-1.1,0.9-2,2-2h94c1.1,0,2,0.9,2,2v70C113,100.1,112.1,101,111,101z"/>
		<line class="st7" x1="15" y1="42" x2="113" y2="42"/>
		<circle class="st7" cx="22" cy="34" r="2"/>
		<circle class="st7" cx="30" cy="34" r="2"/>
		<circle class="st7" cx="38" cy="34" r="2"/>
		<path class="st7" d="M84,70.7C84,59.8,75,51,64,51c-11,0-20,8.8-20,19.7C44,79,49.2,86.1,56.6,89l5.1-12.6c-2.3-0.9-4-3.1-4-5.7
			c0-3.4,2.8-6.2,6.3-6.2c3.5,0,6.3,2.8,6.3,6.2c0,2.6-1.6,4.8-4,5.7L71.4,89C78.8,86.1,84,79,84,70.7z"/>
	</g>
	<g>
		<g id="XMLID_52_">
			<g>
				<path class="st9" d="M84,70.7C84,79,78.8,86.1,71.4,89l-5.1-12.6c2.3-0.9,4-3.1,4-5.7c0-3.4-2.8-6.2-6.3-6.2s-6.3,2.8-6.3,6.2
					c0,2.6,1.6,4.8,4,5.7L56.6,89C49.2,86.1,44,79,44,70.7C44,59.8,53,51,64,51S84,59.8,84,70.7z"/>
				<circle class="st9" cx="30" cy="34" r="2"/>
				<circle class="st8" cx="38" cy="34" r="2"/>
				<circle class="st10" cx="22" cy="34" r="2"/>
				<path class="st11" d="M113,29v13H15V29c0-1.1,0.9-2,2-2h94C112.1,27,113,27.9,113,29z M40,34c0-1.1-0.9-2-2-2s-2,0.9-2,2
					s0.9,2,2,2S40,35.1,40,34z M32,34c0-1.1-0.9-2-2-2s-2,0.9-2,2s0.9,2,2,2S32,35.1,32,34z M24,34c0-1.1-0.9-2-2-2s-2,0.9-2,2
					s0.9,2,2,2S24,35.1,24,34z"/>
			</g>
			<g>
				<path class="st0" d="M113,42v57c0,1.1-0.9,2-2,2H17c-1.1,0-2-0.9-2-2V42V29c0-1.1,0.9-2,2-2h94c1.1,0,2,0.9,2,2V42z"/>
				<line class="st0" x1="15" y1="42" x2="113" y2="42"/>
				<circle class="st0" cx="22" cy="34" r="2"/>
				<circle class="st0" cx="30" cy="34" r="2"/>
				<circle class="st0" cx="38" cy="34" r="2"/>
				<path class="st0" d="M84,70.7C84,59.8,75.1,51,64,51s-20,8.8-20,19.7C44,79,49.2,86.1,56.6,89l5.1-12.6c-2.3-0.9-4-3.1-4-5.7
					c0-3.4,2.8-6.2,6.3-6.2s6.3,2.8,6.3,6.2c0,2.6-1.6,4.8-4,5.7L71.4,89C78.8,86.1,84,79,84,70.7z"/>
			</g>
		</g>
	</g>
</g>
<g id="ome-smuggler">
</g>
<g id="omero-wnd-charm">
</g>
<g id="omero.webtagging">
</g>
<g id="omero.web">
</g>
<g id="omero.server">
</g>
<g id="omero.mail_1_">
	<g id="raw_1_" class="st5">
	</g>
</g>
<g id="omero.forms">
</g>
<g id="omero.dropbox">
</g>
<g id="omero_as_public_repository">
</g>
<g id="moodle">
	<g id="logo_-_moodle">
	</g>
</g>
<g id="manage_and_organize">
</g>
<g id="manage">
	<g id="raw_9_" class="st5">
	</g>
</g>
<g id="lookup_table_1_">
	<g id="raw_2_" class="st5">
	</g>
</g>
<g id="improved_screen_plate_well_ui_1_">
	<g id="raw_3_" class="st5">
	</g>
</g>
<g id="improved_performance">
</g>
<g id="import_images">
</g>
<g id="import-for">
</g>
<g id="histogram_support">
	<g id="raw" class="st5">
	</g>
</g>
<g id="github">
</g>
<g id="file_integrity_reports">
</g>
<g id="export_images">
</g>
<g id="export_hcs">
</g>
<g id="export_filesets">
</g>
<g id="draw_rois">
</g>
<g id="customize_clients">
</g>
<g id="command_line_interface">
	<g id="raw_11_" class="st5">
	</g>
	<g id="Live_Paint_1_">
	</g>
</g>
<g id="create_movies">
</g>
<g id="create_figures">
</g>
<g id="big_images">
</g>
<g id="attaching_analytical_results">
</g>
<g id="annotate_data">
</g>
<g id="acquisition_metadata">
</g>
</svg>
