<?xml version="1.0" encoding="utf-8"?>
<!-- Generator: Adobe Illustrator 19.2.1, SVG Export Plug-In . SVG Version: 6.00 Build 0)  -->
<svg version="1.1" xmlns="http://www.w3.org/2000/svg" xmlns:xlink="http://www.w3.org/1999/xlink" x="0px" y="0px"
	 viewBox="0 0 128 128" style="enable-background:new 0 0 128 128;" xml:space="preserve">
<style type="text/css">
	.st0{fill:none;stroke:#263238;stroke-width:2;stroke-miterlimit:10;}
	.st1{fill:#EF5350;stroke:#263238;stroke-width:2;stroke-miterlimit:10;}
	.st2{fill:#009688;stroke:#263238;stroke-width:2;stroke-miterlimit:10;}
	.st3{fill:#03A9F4;stroke:#263238;stroke-width:2;stroke-miterlimit:10;}
	.st4{fill:#CFD8DC;stroke:#263238;stroke-width:2;stroke-miterlimit:10;}
	.st5{display:none;}
	.st6{display:inline;}
	.st7{display:inline;fill:none;stroke:#263238;stroke-width:2;stroke-miterlimit:10;}
	.st8{fill:#009688;}
	.st9{fill:#03A9F4;}
	.st10{fill:#EF5350;}
	.st11{fill:#CFD8DC;}
	.st12{fill-rule:evenodd;clip-rule:evenodd;fill:none;stroke:#263238;stroke-width:2;stroke-miterlimit:10;}
	.st13{fill:#37474F;}
	
		.st14{display:inline;fill:none;stroke:#263238;stroke-width:2;stroke-linecap:round;stroke-miterlimit:10;stroke-dasharray:1.9328,3.8656;}
	.st15{fill:#263238;}
	.st16{display:inline;fill:#263238;}
	.st17{display:inline;fill:#FFFFFF;stroke:#000000;stroke-width:2;stroke-miterlimit:10;}
	.st18{display:inline;fill-rule:evenodd;clip-rule:evenodd;fill:none;stroke:#263238;stroke-width:2;stroke-miterlimit:10;}
	.st19{fill:#58595B;}
	.st20{fill:url(#SVGID_1_);}
	.st21{fill:url(#SVGID_2_);}
	.st22{fill:url(#SVGID_3_);}
	.st23{fill:none;stroke:#4A4A4C;stroke-width:0.5;}
	.st24{opacity:0.23;fill:#231F20;enable-background:new    ;}
	.st25{fill:none;stroke:#A8ABAD;stroke-width:0.5;}
	.st26{fill:none;stroke:#37474F;stroke-width:0.5;}
	.st27{fill:#6D6E70;}
	.st28{fill:#FFFFFF;}
	.st29{display:inline;fill:none;stroke:#000000;stroke-width:2;stroke-linecap:round;stroke-linejoin:round;}
	.st30{fill:none;stroke:#000000;stroke-width:2;stroke-linecap:round;stroke-linejoin:round;}
	.st31{display:inline;fill:none;}
	.st32{fill:none;}
	.st33{display:inline;fill-rule:evenodd;clip-rule:evenodd;fill:#263238;}
</style>
<g id="quality_assurance_1_">
	<g id="raw_6_" class="st5">
		<g class="st6">
			<polygon class="st0" points="59.9,63 48,50.9 53.7,45.2 59.9,51.5 74.3,37 80,42.7 			"/>
		</g>
		<g class="st6">
			<path class="st0" d="M52,82.9V112l12-10l12,10V82.9c-3.7,1.4-7.8,2.1-12,2.1S55.7,84.3,52,82.9z"/>
			<path class="st0" d="M76,82.9C89.4,78,99,65.1,99,50c0-19.3-15.7-35-35-35S29,30.7,29,50c0,15.1,9.6,28,23,32.9"/>
			<path class="st0" d="M76,77v0.5c-3.7,1.6-7.7,2.5-12,2.5s-8.3-0.9-12-2.5V77v0.5C41.4,72.9,34,62.3,34,50c0-16.6,13.4-30,30-30
				s30,13.4,30,30c0,12.3-7.4,22.9-18,27.5"/>
		</g>
	</g>
	<g>
		<g id="XMLID_8_">
			<g>
				<path class="st10" d="M99,50c0,15.1-9.6,28-23,32.9c-3.7,1.4-7.8,2.1-12,2.1s-8.3-0.8-12-2.1C38.6,78,29,65.1,29,50
					c0-19.3,15.7-35,35-35S99,30.7,99,50z M76,77.5C86.6,72.9,94,62.3,94,50c0-16.6-13.4-30-30-30S34,33.4,34,50
					c0,12.3,7.4,22.9,18,27.5c3.7,1.6,7.7,2.5,12,2.5S72.3,79.1,76,77.5z"/>
				<path class="st11" d="M76,77.5c-3.7,1.6-7.7,2.5-12,2.5s-8.3-0.9-12-2.5C41.4,72.9,34,62.3,34,50c0-16.6,13.4-30,30-30
					s30,13.4,30,30C94,62.3,86.6,72.9,76,77.5z M80,42.8L74.3,37L59.9,51.5l-6.2-6.3L48,50.9L59.9,63L80,42.8z"/>
				<polygon class="st8" points="74.3,37 80,42.8 59.9,63 48,50.9 53.7,45.2 59.9,51.5 				"/>
				<path class="st9" d="M76,82.9V112l-12-10l-12,10V82.9c3.7,1.4,7.8,2.1,12,2.1S72.3,84.2,76,82.9z"/>
			</g>
			<g>
				<polygon class="st0" points="59.9,63 48,50.9 53.7,45.2 59.9,51.5 74.3,37 80,42.8 				"/>
				<path class="st0" d="M52,82.9V112l12-10l12,10V82.9c-3.7,1.4-7.8,2.1-12,2.1S55.7,84.2,52,82.9z"/>
				<path class="st0" d="M76,82.9C89.4,78,99,65.1,99,50c0-19.3-15.7-35-35-35S29,30.7,29,50c0,15.1,9.6,28,23,32.9"/>
				<path class="st0" d="M52,77.5C41.4,72.9,34,62.3,34,50c0-16.6,13.4-30,30-30s30,13.4,30,30c0,12.3-7.4,22.9-18,27.5"/>
				<path class="st0" d="M76,77v0.5c-3.7,1.6-7.7,2.5-12,2.5s-8.3-0.9-12-2.5V77"/>
			</g>
		</g>
	</g>
</g>
</svg>
