<?xml version="1.0" encoding="utf-8"?>
<!-- Generator: Adobe Illustrator 19.2.1, SVG Export Plug-In . SVG Version: 6.00 Build 0)  -->
<svg version="1.1" xmlns="http://www.w3.org/2000/svg" xmlns:xlink="http://www.w3.org/1999/xlink" x="0px" y="0px"
	 viewBox="0 0 128 128" style="enable-background:new 0 0 128 128;" xml:space="preserve">
<style type="text/css">
	.st0{fill:none;stroke:#263238;stroke-width:2;stroke-miterlimit:10;}
	.st1{fill:#EF5350;stroke:#263238;stroke-width:2;stroke-miterlimit:10;}
	.st2{fill:#009688;stroke:#263238;stroke-width:2;stroke-miterlimit:10;}
	.st3{fill:#03A9F4;stroke:#263238;stroke-width:2;stroke-miterlimit:10;}
	.st4{fill:#CFD8DC;stroke:#263238;stroke-width:2;stroke-miterlimit:10;}
	.st5{display:none;}
	.st6{display:inline;}
	.st7{display:inline;fill:none;stroke:#263238;stroke-width:2;stroke-miterlimit:10;}
	.st8{fill:#009688;}
	.st9{fill:#03A9F4;}
	.st10{fill:#EF5350;}
	.st11{fill:#CFD8DC;}
	.st12{fill-rule:evenodd;clip-rule:evenodd;fill:none;stroke:#263238;stroke-width:2;stroke-miterlimit:10;}
	.st13{fill:#37474F;}
	
		.st14{display:inline;fill:none;stroke:#263238;stroke-width:2;stroke-linecap:round;stroke-miterlimit:10;stroke-dasharray:1.9328,3.8656;}
	.st15{fill:#263238;}
	.st16{display:inline;fill:#263238;}
	.st17{display:inline;fill:#FFFFFF;stroke:#000000;stroke-width:2;stroke-miterlimit:10;}
	.st18{display:inline;fill-rule:evenodd;clip-rule:evenodd;fill:none;stroke:#263238;stroke-width:2;stroke-miterlimit:10;}
	.st19{fill:#58595B;}
	.st20{fill:url(#SVGID_1_);}
	.st21{fill:url(#SVGID_2_);}
	.st22{fill:url(#SVGID_3_);}
	.st23{fill:none;stroke:#4A4A4C;stroke-width:0.5;}
	.st24{opacity:0.23;fill:#231F20;enable-background:new    ;}
	.st25{fill:none;stroke:#A8ABAD;stroke-width:0.5;}
	.st26{fill:none;stroke:#37474F;stroke-width:0.5;}
	.st27{fill:#6D6E70;}
	.st28{fill:#FFFFFF;}
	.st29{display:inline;fill:none;stroke:#000000;stroke-width:2;stroke-linecap:round;stroke-linejoin:round;}
	.st30{fill:none;stroke:#000000;stroke-width:2;stroke-linecap:round;stroke-linejoin:round;}
	.st31{display:inline;fill:none;}
	.st32{fill:none;}
	.st33{display:inline;fill-rule:evenodd;clip-rule:evenodd;fill:#263238;}
</style>
<g id="rendering_settings">
	<g class="st5">
		<g class="st6">
			<path class="st0" d="M33.1,26H25c-2.2,0-4,1.8-4,4s1.8,4,4,4h8.1c-0.7-1.2-1.1-2.5-1.1-4S32.4,27.2,33.1,26z"/>
			<path class="st0" d="M103,26H46.9c0.7,1.2,1.1,2.5,1.1,4s-0.4,2.8-1.1,4H103c2.2,0,4-1.8,4-4S105.2,26,103,26z"/>
			<path class="st0" d="M33.1,34c1.4,2.4,4,4,6.9,4s5.5-1.6,6.9-4"/>
			<path class="st0" d="M46.9,26c-1.4-2.4-4-4-6.9-4s-5.5,1.6-6.9,4"/>
			<path class="st0" d="M46.9,34c0.7-1.2,1.1-2.5,1.1-4s-0.4-2.8-1.1-4"/>
			<path class="st0" d="M33.1,26c-0.7,1.2-1.1,2.5-1.1,4s0.4,2.8,1.1,4"/>
		</g>
		<g class="st6">
			<path class="st0" d="M81.1,60H25c-2.2,0-4,1.8-4,4s1.8,4,4,4h56.1c-0.7-1.2-1.1-2.5-1.1-4S80.4,61.2,81.1,60z"/>
			<path class="st0" d="M103,60h-8.1c0.7,1.2,1.1,2.5,1.1,4s-0.4,2.8-1.1,4h8.1c2.2,0,4-1.8,4-4S105.2,60,103,60z"/>
			<path class="st0" d="M94.9,60c-1.4-2.4-4-4-6.9-4s-5.5,1.6-6.9,4"/>
			<path class="st0" d="M81.1,68c1.4,2.4,4,4,6.9,4s5.5-1.6,6.9-4"/>
			<path class="st0" d="M94.9,68c0.7-1.2,1.1-2.5,1.1-4s-0.4-2.8-1.1-4"/>
			<path class="st0" d="M81.1,60c-0.7,1.2-1.1,2.5-1.1,4s0.4,2.8,1.1,4"/>
		</g>
		<g class="st6">
			<path class="st0" d="M47.1,94H25c-2.2,0-4,1.8-4,4s1.8,4,4,4h22.1c-0.7-1.2-1.1-2.5-1.1-4S46.4,95.2,47.1,94z"/>
			<path class="st0" d="M103,94H60.9c0.7,1.2,1.1,2.5,1.1,4s-0.4,2.8-1.1,4H103c2.2,0,4-1.8,4-4S105.2,94,103,94z"/>
			<path class="st0" d="M47.1,102c1.4,2.4,4,4,6.9,4s5.5-1.6,6.9-4"/>
			<path class="st0" d="M60.9,94c-1.4-2.4-4-4-6.9-4s-5.5,1.6-6.9,4"/>
			<path class="st0" d="M60.9,102c0.7-1.2,1.1-2.5,1.1-4s-0.4-2.8-1.1-4"/>
			<path class="st0" d="M47.1,94c-0.7,1.2-1.1,2.5-1.1,4s0.4,2.8,1.1,4"/>
		</g>
		<path class="st7" d="M111,113H17c-1.1,0-2-0.9-2-2V17c0-1.1,0.9-2,2-2h94c1.1,0,2,0.9,2,2v94C113,112.1,112.1,113,111,113z"/>
	</g>
	<g>
		<g id="XMLID_30_">
			<g>
				<path class="st11" d="M113,17v94c0,1.1-0.9,2-2,2H17c-1.1,0-2-0.9-2-2V17c0-1.1,0.9-2,2-2h94C112.1,15,113,15.9,113,17z M107,30
					c0-2.2-1.8-4-4-4H46.9c-1.4-2.4-4-4-6.9-4s-5.5,1.6-6.9,4H25c-2.2,0-4,1.8-4,4s1.8,4,4,4h8.1c1.4,2.4,4,4,6.9,4s5.5-1.6,6.9-4
					H103C105.2,34,107,32.2,107,30z M107,64c0-2.2-1.8-4-4-4h-8.1c-1.4-2.4-4-4-6.9-4s-5.5,1.6-6.9,4H25c-2.2,0-4,1.8-4,4
					c0,2.2,1.8,4,4,4h56.1c1.4,2.4,4,4,6.9,4s5.5-1.6,6.9-4h8.1C105.2,68,107,66.2,107,64z M107,98c0-2.2-1.8-4-4-4H60.9
					c-1.4-2.4-4-4-6.9-4s-5.5,1.6-6.9,4H25c-2.2,0-4,1.8-4,4s1.8,4,4,4h22.1c1.4,2.4,4,4,6.9,4s5.5-1.6,6.9-4H103
					C105.2,102,107,100.2,107,98z"/>
				<path class="st9" d="M46.9,26c0.7,1.2,1.1,2.5,1.1,4s-0.4,2.8-1.1,4c-1.4,2.4-4,4-6.9,4s-5.5-1.6-6.9-4c-0.7-1.2-1.1-2.5-1.1-4
					s0.4-2.8,1.1-4c1.4-2.4,4-4,6.9-4S45.5,23.6,46.9,26z"/>
				<path class="st8" d="M62,98c0,1.5-0.4,2.8-1.1,4c-1.4,2.4-4,4-6.9,4s-5.5-1.6-6.9-4c-0.7-1.2-1.1-2.5-1.1-4s0.4-2.8,1.1-4
					c1.4-2.4,4-4,6.9-4s5.5,1.6,6.9,4C61.6,95.2,62,96.5,62,98z"/>
				<path class="st10" d="M94.9,60c0.7,1.2,1.1,2.5,1.1,4s-0.4,2.8-1.1,4c-1.4,2.4-4,4-6.9,4s-5.5-1.6-6.9-4c-0.7-1.2-1.1-2.5-1.1-4
					s0.4-2.8,1.1-4c1.4-2.4,4-4,6.9-4S93.5,57.6,94.9,60z"/>
			</g>
			<g>
				<path class="st0" d="M33.1,26H25c-2.2,0-4,1.8-4,4s1.8,4,4,4h8.1"/>
				<path class="st0" d="M46.9,34H103c2.2,0,4-1.8,4-4s-1.8-4-4-4H46.9"/>
				<path class="st0" d="M33.1,34c1.4,2.4,4,4,6.9,4s5.5-1.6,6.9-4"/>
				<path class="st0" d="M46.9,26c-1.4-2.4-4-4-6.9-4s-5.5,1.6-6.9,4"/>
				<path class="st0" d="M46.9,34c0.7-1.2,1.1-2.5,1.1-4s-0.4-2.8-1.1-4"/>
				<path class="st0" d="M33.1,26c-0.7,1.2-1.1,2.5-1.1,4s0.4,2.8,1.1,4"/>
				<path class="st0" d="M81.1,60H25c-2.2,0-4,1.8-4,4c0,2.2,1.8,4,4,4h56.1"/>
				<path class="st0" d="M94.9,68h8.1c2.2,0,4-1.8,4-4c0-2.2-1.8-4-4-4h-8.1"/>
				<path class="st0" d="M94.9,60c-1.4-2.4-4-4-6.9-4s-5.5,1.6-6.9,4"/>
				<path class="st0" d="M81.1,68c1.4,2.4,4,4,6.9,4s5.5-1.6,6.9-4"/>
				<path class="st0" d="M94.9,68c0.7-1.2,1.1-2.5,1.1-4s-0.4-2.8-1.1-4"/>
				<path class="st0" d="M81.1,60c-0.7,1.2-1.1,2.5-1.1,4s0.4,2.8,1.1,4"/>
				<path class="st0" d="M47.1,94H25c-2.2,0-4,1.8-4,4s1.8,4,4,4h22.1"/>
				<path class="st0" d="M60.9,102H103c2.2,0,4-1.8,4-4s-1.8-4-4-4H60.9"/>
				<path class="st0" d="M47.1,102c1.4,2.4,4,4,6.9,4s5.5-1.6,6.9-4"/>
				<path class="st0" d="M60.9,94c-1.4-2.4-4-4-6.9-4s-5.5,1.6-6.9,4"/>
				<path class="st0" d="M60.9,102c0.7-1.2,1.1-2.5,1.1-4s-0.4-2.8-1.1-4"/>
				<path class="st0" d="M47.1,94c-0.7,1.2-1.1,2.5-1.1,4s0.4,2.8,1.1,4"/>
				<path class="st0" d="M111,113H17c-1.1,0-2-0.9-2-2V17c0-1.1,0.9-2,2-2h94c1.1,0,2,0.9,2,2v94C113,112.1,112.1,113,111,113z"/>
			</g>
		</g>
	</g>
</g>
</svg>
