<?xml version="1.0" encoding="utf-8"?>
<!-- Generator: Adobe Illustrator 19.2.1, SVG Export Plug-In . SVG Version: 6.00 Build 0)  -->
<svg version="1.1" xmlns="http://www.w3.org/2000/svg" xmlns:xlink="http://www.w3.org/1999/xlink" x="0px" y="0px"
	 viewBox="0 0 128 128" style="enable-background:new 0 0 128 128;" xml:space="preserve">
<style type="text/css">
	.st0{fill:none;stroke:#263238;stroke-width:2;stroke-miterlimit:10;}
	.st1{fill:#EF5350;stroke:#263238;stroke-width:2;stroke-miterlimit:10;}
	.st2{fill:#009688;stroke:#263238;stroke-width:2;stroke-miterlimit:10;}
	.st3{fill:#03A9F4;stroke:#263238;stroke-width:2;stroke-miterlimit:10;}
	.st4{fill:#CFD8DC;stroke:#263238;stroke-width:2;stroke-miterlimit:10;}
	.st5{display:none;}
	.st6{display:inline;}
	.st7{display:inline;fill:none;stroke:#263238;stroke-width:2;stroke-miterlimit:10;}
	.st8{fill:#009688;}
	.st9{fill:#03A9F4;}
	.st10{fill:#EF5350;}
	.st11{fill:#CFD8DC;}
	.st12{fill-rule:evenodd;clip-rule:evenodd;fill:none;stroke:#263238;stroke-width:2;stroke-miterlimit:10;}
	.st13{fill:#37474F;}
	
		.st14{display:inline;fill:none;stroke:#263238;stroke-width:2;stroke-linecap:round;stroke-miterlimit:10;stroke-dasharray:1.9328,3.8656;}
	.st15{fill:#263238;}
	.st16{display:inline;fill:#263238;}
	.st17{display:inline;fill:#FFFFFF;stroke:#000000;stroke-width:2;stroke-miterlimit:10;}
	.st18{display:inline;fill-rule:evenodd;clip-rule:evenodd;fill:none;stroke:#263238;stroke-width:2;stroke-miterlimit:10;}
	.st19{fill:#58595B;}
	.st20{fill:url(#SVGID_1_);}
	.st21{fill:url(#SVGID_2_);}
	.st22{fill:url(#SVGID_3_);}
	.st23{fill:none;stroke:#4A4A4C;stroke-width:0.5;}
	.st24{opacity:0.23;fill:#231F20;enable-background:new    ;}
	.st25{fill:none;stroke:#A8ABAD;stroke-width:0.5;}
	.st26{fill:none;stroke:#37474F;stroke-width:0.5;}
	.st27{fill:#6D6E70;}
	.st28{fill:#FFFFFF;}
	.st29{display:inline;fill:none;stroke:#000000;stroke-width:2;stroke-linecap:round;stroke-linejoin:round;}
	.st30{fill:none;stroke:#000000;stroke-width:2;stroke-linecap:round;stroke-linejoin:round;}
	.st31{display:inline;fill:none;}
	.st32{fill:none;}
	.st33{display:inline;fill-rule:evenodd;clip-rule:evenodd;fill:#263238;}
</style>
<g id="histogram_support">
	<g id="raw" class="st5">
		<polyline class="st7" points="73,35 91,35 91,113 73,113 73,15 55,15 55,113 14,113 114,113 109,113 109,56 91,56 		"/>
		<polyline class="st7" points="37,47 19,47 19,113 37,113 37,31 55,31 		"/>
	</g>
	<g id="XMLID_1_">
		<g>
			<rect x="91" y="56" class="st11" width="18" height="57"/>
			<polygon class="st9" points="91,56 91,113 73,113 73,35 91,35 			"/>
			<polygon class="st8" points="73,35 73,113 55,113 55,31 55,15 73,15 			"/>
			<polygon class="st28" points="55,31 55,113 37,113 37,47 37,31 			"/>
			<rect x="19" y="47" class="st10" width="18" height="66"/>
		</g>
		<g>
			<polyline class="st0" points="114,113 109,113 109,56 91,56 			"/>
			<line class="st0" x1="91" y1="113" x2="109" y2="113"/>
			<line class="st0" x1="55" y1="113" x2="73" y2="113"/>
			<line class="st0" x1="14" y1="113" x2="19" y2="113"/>
			<line class="st0" x1="37" y1="113" x2="55" y2="113"/>
			<polyline class="st0" points="73,113 73,35 73,15 55,15 55,31 55,113 			"/>
			<line class="st0" x1="73" y1="113" x2="91" y2="113"/>
			<polyline class="st0" points="73,35 91,35 91,56 91,113 			"/>
			<polyline class="st0" points="37,47 19,47 19,113 37,113 37,47 37,31 55,31 			"/>
		</g>
	</g>
</g>
</svg>
