<?xml version="1.0" encoding="utf-8"?>
<!-- Generator: Adobe Illustrator 19.2.1, SVG Export Plug-In . SVG Version: 6.00 Build 0)  -->
<svg version="1.1" xmlns="http://www.w3.org/2000/svg" xmlns:xlink="http://www.w3.org/1999/xlink" x="0px" y="0px"
	 viewBox="0 0 128 128" style="enable-background:new 0 0 128 128;" xml:space="preserve">
<style type="text/css">
	.st0{fill:none;stroke:#263238;stroke-width:2;stroke-miterlimit:10;}
	.st1{fill:#EF5350;stroke:#263238;stroke-width:2;stroke-miterlimit:10;}
	.st2{fill:#009688;stroke:#263238;stroke-width:2;stroke-miterlimit:10;}
	.st3{fill:#03A9F4;stroke:#263238;stroke-width:2;stroke-miterlimit:10;}
	.st4{fill:#CFD8DC;stroke:#263238;stroke-width:2;stroke-miterlimit:10;}
	.st5{display:none;}
	.st6{display:inline;}
	.st7{display:inline;fill:none;stroke:#263238;stroke-width:2;stroke-miterlimit:10;}
	.st8{fill:#009688;}
	.st9{fill:#03A9F4;}
	.st10{fill:#EF5350;}
	.st11{fill:#CFD8DC;}
	.st12{fill-rule:evenodd;clip-rule:evenodd;fill:none;stroke:#263238;stroke-width:2;stroke-miterlimit:10;}
	.st13{fill:#37474F;}
	
		.st14{display:inline;fill:none;stroke:#263238;stroke-width:2;stroke-linecap:round;stroke-miterlimit:10;stroke-dasharray:1.9328,3.8656;}
	.st15{fill:#263238;}
	.st16{display:inline;fill:#263238;}
	.st17{display:inline;fill:#FFFFFF;stroke:#000000;stroke-width:2;stroke-miterlimit:10;}
	.st18{display:inline;fill-rule:evenodd;clip-rule:evenodd;fill:none;stroke:#263238;stroke-width:2;stroke-miterlimit:10;}
	.st19{fill:#58595B;}
	.st20{fill:url(#SVGID_1_);}
	.st21{fill:url(#SVGID_2_);}
	.st22{fill:url(#SVGID_3_);}
	.st23{fill:none;stroke:#4A4A4C;stroke-width:0.5;}
	.st24{opacity:0.23;fill:#231F20;enable-background:new    ;}
	.st25{fill:none;stroke:#A8ABAD;stroke-width:0.5;}
	.st26{fill:none;stroke:#37474F;stroke-width:0.5;}
	.st27{fill:#6D6E70;}
	.st28{fill:#FFFFFF;}
	.st29{display:inline;fill:none;stroke:#000000;stroke-width:2;stroke-linecap:round;stroke-linejoin:round;}
	.st30{fill:none;stroke:#000000;stroke-width:2;stroke-linecap:round;stroke-linejoin:round;}
	.st31{display:inline;fill:none;}
	.st32{fill:none;}
	.st33{display:inline;fill-rule:evenodd;clip-rule:evenodd;fill:#263238;}
</style>
<g id="artboards">
</g>
<g id="guides">
</g>
<g id="palette">
</g>
<g id="view-images">
</g>
<g id="using_a_public_group">
</g>
<g id="user-added_metadata">
</g>
<g id="unit-support">
	<g id="raw_10_" class="st5">
	</g>
	<g id="Live_Paint">
	</g>
</g>
<g id="supported_file_formats">
</g>
<g id="share">
</g>
<g id="searching_and_filtering">
</g>
<g id="scripting_service">
</g>
<g id="roi_folders_1_">
	<g id="raw_8_">
	</g>
</g>
<g id="reverse_intensity_rendering_1_">
	<g id="raw_7_" class="st5">
	</g>
</g>
<g id="rendering_settings">
</g>
<g id="quality_assurance_1_">
	<g id="raw_6_" class="st5">
	</g>
</g>
<g id="python_blitz_api">
</g>
<g id="public_access">
</g>
<g id="personalize">
	<g id="raw_5_" class="st5">
	</g>
</g>
<g id="original_file_formats">
</g>
<g id="orbit_image_analysis">
</g>
<g id="open_with..._1_">
	<g id="raw_4_" class="st5">
	</g>
</g>
<g id="omero-wnd-charm">
</g>
<g id="omero.webtagging">
</g>
<g id="omero.mail_1_">
	<g id="raw_1_" class="st5">
	</g>
</g>
<g id="omero.forms">
</g>
<g id="omero.dropbox">
</g>
<g id="omero_as_public_repository">
</g>
<g id="moodle">
	<g id="logo_-_moodle">
	</g>
</g>
<g id="manage_and_organize">
</g>
<g id="manage">
	<g id="raw_9_" class="st5">
	</g>
</g>
<g id="lookup_table_1_">
	<g id="raw_2_" class="st5">
	</g>
</g>
<g id="improved_screen_plate_well_ui_1_">
	<g id="raw_3_" class="st5">
	</g>
</g>
<g id="improved_performance">
</g>
<g id="import_images">
</g>
<g id="import-for">
</g>
<g id="histogram_support">
	<g id="raw" class="st5">
	</g>
</g>
<g id="file_integrity_reports">
</g>
<g id="export_images">
</g>
<g id="export_hcs">
</g>
<g id="export_filesets">
</g>
<g id="draw_rois">
</g>
<g id="customize_clients">
</g>
<g id="command_line_interface">
	<g id="raw_11_" class="st5">
	</g>
	<g id="Live_Paint_1_">
	</g>
</g>
<g id="create_movies">
</g>
<g id="create_figures">
</g>
<g id="big_images">
</g>
<g id="attaching_analytical_results">
</g>
<g id="annotate_data">
</g>
<g id="acquisition_metadata">
	<g class="st5">
		<path class="st7" d="M100,103H32c-0.5,0-1-0.4-1-1v-6c0-0.6,0.4-1,1-1h68c0.6,0,1,0.4,1,1v6C101,102.6,100.6,103,100,103z"/>
		<polyline class="st7" points="40,103 40,113 48,113 48,103 84,103 84,113 92,113 92,103 		"/>
		<rect x="64" y="28" class="st7" width="16" height="32"/>
		<rect x="68" y="24" class="st7" width="8" height="4"/>
		<path class="st7" d="M78.5,24h-13c-0.3,0-0.5-0.2-0.5-0.5v-7c0-0.3,0.2-0.5,0.5-0.5h13c0.3,0,0.5,0.2,0.5,0.5v7
			C79,23.8,78.8,24,78.5,24z"/>
		<rect x="68" y="60" class="st7" width="8" height="12"/>
		<g class="st6">
			<path class="st0" d="M36,69.8V95h8.8H52V69.8c0-6.8,6.1-12.6,12-13.6V37C48.4,38,36,52.3,36,69.8z"/>
		</g>
		<rect x="52" y="84" class="st7" width="40" height="4"/>
		<circle class="st7" cx="44" cy="86" r="8"/>
	</g>
	<g>
		<g id="XMLID_38_">
			<g>
				<rect x="68" y="60" class="st8" width="8" height="12"/>
				<rect x="68" y="24" class="st10" width="8" height="4"/>
				<polygon class="st9" points="92,84 92,88 52,88 52,86 52,84 				"/>
				<circle class="st9" cx="44" cy="86" r="8"/>
				<path class="st11" d="M79,23.5c0,0.3-0.2,0.5-0.5,0.5H76h-8h-2.5c-0.3,0-0.5-0.2-0.5-0.5v-7c0-0.3,0.2-0.5,0.5-0.5h13
					c0.3,0,0.5,0.2,0.5,0.5V23.5z"/>
				<path class="st11" d="M101,96v6c0,0.6-0.4,1-1,1h-8v10h-8v-10H48v10h-8v-10h-8c-0.5,0-1-0.4-1-1v-6c0-0.6,0.5-1,1-1h4h8.8H52h48
					C100.6,95,101,95.4,101,96z"/>
				<path class="st11" d="M52,88v7h-7.2H36v-9c0,4.4,3.6,8,8,8s8-3.6,8-8V88z"/>
				<path class="st11" d="M64,37v19.3c-5.9,1-12,6.7-12,13.5V84v2c0-4.4-3.6-8-8-8s-8,3.6-8,8V69.8C36,52.3,48.4,38,64,37z"/>
				<polygon class="st11" points="80,28 80,60 76,60 68,60 64,60 64,56.3 64,37 64,28 68,28 76,28 				"/>
			</g>
			<g>
				<path class="st0" d="M36,95h-4c-0.5,0-1,0.4-1,1v6c0,0.6,0.5,1,1,1h8v10h8v-10h36v10h8v-10h8c0.6,0,1-0.4,1-1v-6
					c0-0.6-0.4-1-1-1H52"/>
				<polyline class="st0" points="64,37 64,28 68,28 				"/>
				<polyline class="st0" points="68,60 64,60 64,56.3 				"/>
				<polyline class="st0" points="76,28 80,28 80,60 76,60 				"/>
				<polyline class="st0" points="76,24 76,28 68,28 68,24 				"/>
				<path class="st0" d="M68,24h-2.5c-0.3,0-0.5-0.2-0.5-0.5v-7c0-0.3,0.2-0.5,0.5-0.5h13c0.3,0,0.5,0.2,0.5,0.5v7
					c0,0.3-0.2,0.5-0.5,0.5H76H68z"/>
				<rect x="68" y="60" class="st0" width="8" height="12"/>
				<path class="st0" d="M52,84V69.8c0-6.8,6.1-12.6,12-13.5V37c-15.6,1-28,15.3-28,32.8V86v9h8.8H52v-7"/>
				<polygon class="st0" points="52,84 92,84 92,88 52,88 52,86 				"/>
				<circle class="st0" cx="44" cy="86" r="8"/>
			</g>
		</g>
	</g>
</g>
</svg>
