<?xml version="1.0" encoding="utf-8"?>
<!-- Generator: Adobe Illustrator 19.2.1, SVG Export Plug-In . SVG Version: 6.00 Build 0)  -->
<svg version="1.1" xmlns="http://www.w3.org/2000/svg" xmlns:xlink="http://www.w3.org/1999/xlink" x="0px" y="0px"
	 viewBox="0 0 128 128" style="enable-background:new 0 0 128 128;" xml:space="preserve">
<style type="text/css">
	.st0{fill:none;stroke:#263238;stroke-width:2;stroke-miterlimit:10;}
	.st1{fill:#EF5350;stroke:#263238;stroke-width:2;stroke-miterlimit:10;}
	.st2{fill:#009688;stroke:#263238;stroke-width:2;stroke-miterlimit:10;}
	.st3{fill:#03A9F4;stroke:#263238;stroke-width:2;stroke-miterlimit:10;}
	.st4{fill:#CFD8DC;stroke:#263238;stroke-width:2;stroke-miterlimit:10;}
	.st5{display:none;}
	.st6{display:inline;}
	.st7{display:inline;fill:none;stroke:#263238;stroke-width:2;stroke-miterlimit:10;}
	.st8{fill:#009688;}
	.st9{fill:#03A9F4;}
	.st10{fill:#EF5350;}
	.st11{fill:#CFD8DC;}
	.st12{fill-rule:evenodd;clip-rule:evenodd;fill:none;stroke:#263238;stroke-width:2;stroke-miterlimit:10;}
	.st13{fill:#37474F;}
	
		.st14{display:inline;fill:none;stroke:#263238;stroke-width:2;stroke-linecap:round;stroke-miterlimit:10;stroke-dasharray:1.9328,3.8656;}
	.st15{fill:#263238;}
	.st16{display:inline;fill:#263238;}
	.st17{display:inline;fill:#FFFFFF;stroke:#000000;stroke-width:2;stroke-miterlimit:10;}
	.st18{display:inline;fill-rule:evenodd;clip-rule:evenodd;fill:none;stroke:#263238;stroke-width:2;stroke-miterlimit:10;}
	.st19{fill:#58595B;}
	.st20{fill:url(#SVGID_1_);}
	.st21{fill:url(#SVGID_2_);}
	.st22{fill:url(#SVGID_3_);}
	.st23{fill:none;stroke:#4A4A4C;stroke-width:0.5;}
	.st24{opacity:0.23;fill:#231F20;enable-background:new    ;}
	.st25{fill:none;stroke:#A8ABAD;stroke-width:0.5;}
	.st26{fill:none;stroke:#37474F;stroke-width:0.5;}
	.st27{fill:#6D6E70;}
	.st28{fill:#FFFFFF;}
	.st29{display:inline;fill:none;stroke:#000000;stroke-width:2;stroke-linecap:round;stroke-linejoin:round;}
	.st30{fill:none;stroke:#000000;stroke-width:2;stroke-linecap:round;stroke-linejoin:round;}
	.st31{display:inline;fill:none;}
	.st32{fill:none;}
	.st33{display:inline;fill-rule:evenodd;clip-rule:evenodd;fill:#263238;}
</style>
<g id="artboards">
</g>
<g id="guides">
</g>
<g id="palette">
</g>
<g id="view-images">
</g>
<g id="using_a_public_group">
</g>
<g id="user-added_metadata">
</g>
<g id="unit-support">
	<g id="raw_10_" class="st5">
	</g>
	<g id="Live_Paint">
	</g>
</g>
<g id="supported_file_formats">
</g>
<g id="share">
</g>
<g id="searching_and_filtering">
</g>
<g id="scripting_service">
</g>
<g id="roi_folders_1_">
	<g id="raw_8_">
	</g>
</g>
<g id="reverse_intensity_rendering_1_">
	<g id="raw_7_" class="st5">
	</g>
</g>
<g id="rendering_settings">
</g>
<g id="quality_assurance_1_">
	<g id="raw_6_" class="st5">
	</g>
</g>
<g id="python_blitz_api">
</g>
<g id="public_access">
</g>
<g id="personalize">
	<g id="raw_5_" class="st5">
		<circle class="st7" cx="64" cy="64" r="49"/>
		<circle class="st7" cx="64" cy="64" r="44"/>
		<g class="st6">
			<path class="st0" d="M79,76c0-5.2-2.6-9.8-6.7-12.5C70.5,66.2,67.5,68,64,68s-6.5-1.8-8.3-4.5c-4,2.7-6.7,7.3-6.7,12.5
				c0,1.4,0.2,2.7,0.6,4h28.9C78.8,78.7,79,77.4,79,76z"/>
			<path class="st0" d="M72.3,63.5C73.4,61.9,74,60,74,58c0-5.5-4.5-10-10-10s-10,4.5-10,10c0,2,0.6,3.9,1.7,5.5"/>
			<path class="st0" d="M50,80h28"/>
		</g>
	</g>
	<g>
		<g id="XMLID_9_">
			<g>
				<path class="st9" d="M64,15c27.1,0,49,21.9,49,49s-21.9,49-49,49S15,91.1,15,64S36.9,15,64,15z M108,64c0-24.3-19.7-44-44-44
					S20,39.7,20,64s19.7,44,44,44S108,88.3,108,64z"/>
				<path class="st8" d="M79,76c0,1.4-0.2,2.7-0.6,4H78H50h-0.4c-0.4-1.3-0.6-2.6-0.6-4c0-5.2,2.7-9.8,6.7-12.5
					c1.8,2.7,4.9,4.5,8.3,4.5c3.5,0,6.5-1.8,8.3-4.5C76.3,66.2,79,70.8,79,76z"/>
				<path class="st11" d="M64,20c24.3,0,44,19.7,44,44s-19.7,44-44,44S20,88.3,20,64S39.7,20,64,20z M78.4,80c0.4-1.3,0.6-2.6,0.6-4
					c0-5.2-2.7-9.8-6.7-12.5c1-1.6,1.7-3.5,1.7-5.5c0-5.5-4.5-10-10-10s-10,4.5-10,10c0,2,0.6,3.9,1.7,5.5c-4,2.7-6.7,7.3-6.7,12.5
					c0,1.4,0.2,2.7,0.6,4H50h28H78.4z"/>
			</g>
			<g>
				<circle class="st0" cx="64" cy="64" r="49"/>
				<circle class="st0" cx="64" cy="64" r="44"/>
				<path class="st0" d="M78,80h0.4c0.4-1.3,0.6-2.6,0.6-4c0-5.2-2.7-9.8-6.7-12.5C70.5,66.2,67.5,68,64,68c-3.5,0-6.5-1.8-8.3-4.5
					c-4,2.7-6.7,7.3-6.7,12.5c0,1.4,0.2,2.7,0.6,4H50"/>
				<path class="st0" d="M72.3,63.5c1-1.6,1.7-3.5,1.7-5.5c0-5.5-4.5-10-10-10s-10,4.5-10,10c0,2,0.6,3.9,1.7,5.5"/>
				<line class="st0" x1="50" y1="80" x2="78" y2="80"/>
			</g>
		</g>
	</g>
</g>
<g id="original_file_formats">
</g>
<g id="orbit_image_analysis">
</g>
<g id="open_with..._1_">
	<g id="raw_4_" class="st5">
	</g>
</g>
<g id="omero-wnd-charm">
</g>
<g id="omero.webtagging">
</g>
<g id="omero.mail_1_">
	<g id="raw_1_" class="st5">
	</g>
</g>
<g id="omero.forms">
</g>
<g id="omero.dropbox">
</g>
<g id="omero_as_public_repository">
</g>
<g id="moodle">
	<g id="logo_-_moodle">
	</g>
</g>
<g id="manage_and_organize">
</g>
<g id="manage">
	<g id="raw_9_" class="st5">
	</g>
</g>
<g id="lookup_table_1_">
	<g id="raw_2_" class="st5">
	</g>
</g>
<g id="improved_screen_plate_well_ui_1_">
	<g id="raw_3_" class="st5">
	</g>
</g>
<g id="improved_performance">
</g>
<g id="import_images">
</g>
<g id="import-for">
</g>
<g id="histogram_support">
	<g id="raw" class="st5">
	</g>
</g>
<g id="file_integrity_reports">
</g>
<g id="export_images">
</g>
<g id="export_hcs">
</g>
<g id="export_filesets">
</g>
<g id="draw_rois">
</g>
<g id="customize_clients">
</g>
<g id="command_line_interface">
	<g id="raw_11_" class="st5">
	</g>
	<g id="Live_Paint_1_">
	</g>
</g>
<g id="create_movies">
</g>
<g id="create_figures">
</g>
<g id="big_images">
</g>
<g id="attaching_analytical_results">
</g>
<g id="annotate_data">
</g>
<g id="acquisition_metadata">
</g>
</svg>
