<?xml version="1.0" encoding="utf-8"?>
<!-- Generator: Adobe Illustrator 19.2.1, SVG Export Plug-In . SVG Version: 6.00 Build 0)  -->
<svg version="1.1" xmlns="http://www.w3.org/2000/svg" xmlns:xlink="http://www.w3.org/1999/xlink" x="0px" y="0px"
	 viewBox="0 0 128 128" style="enable-background:new 0 0 128 128;" xml:space="preserve">
<style type="text/css">
	.st0{fill:none;stroke:#263238;stroke-width:2;stroke-miterlimit:10;}
	.st1{fill:#EF5350;stroke:#263238;stroke-width:2;stroke-miterlimit:10;}
	.st2{fill:#009688;stroke:#263238;stroke-width:2;stroke-miterlimit:10;}
	.st3{fill:#03A9F4;stroke:#263238;stroke-width:2;stroke-miterlimit:10;}
	.st4{fill:#CFD8DC;stroke:#263238;stroke-width:2;stroke-miterlimit:10;}
	.st5{display:none;}
	.st6{display:inline;}
	.st7{display:inline;fill:none;stroke:#263238;stroke-width:2;stroke-miterlimit:10;}
	.st8{fill:#009688;}
	.st9{fill:#03A9F4;}
	.st10{fill:#EF5350;}
	.st11{fill:#CFD8DC;}
	.st12{fill-rule:evenodd;clip-rule:evenodd;fill:none;stroke:#263238;stroke-width:2;stroke-miterlimit:10;}
	.st13{fill:#37474F;}
	
		.st14{display:inline;fill:none;stroke:#263238;stroke-width:2;stroke-linecap:round;stroke-miterlimit:10;stroke-dasharray:1.9328,3.8656;}
	.st15{fill:#263238;}
	.st16{display:inline;fill:#263238;}
	.st17{display:inline;fill:#FFFFFF;stroke:#000000;stroke-width:2;stroke-miterlimit:10;}
	.st18{display:inline;fill-rule:evenodd;clip-rule:evenodd;fill:none;stroke:#263238;stroke-width:2;stroke-miterlimit:10;}
	.st19{fill:#58595B;}
	.st20{fill:url(#SVGID_1_);}
	.st21{fill:url(#SVGID_2_);}
	.st22{fill:url(#SVGID_3_);}
	.st23{fill:none;stroke:#4A4A4C;stroke-width:0.5;}
	.st24{opacity:0.23;fill:#231F20;enable-background:new    ;}
	.st25{fill:none;stroke:#A8ABAD;stroke-width:0.5;}
	.st26{fill:none;stroke:#37474F;stroke-width:0.5;}
	.st27{fill:#6D6E70;}
	.st28{fill:#FFFFFF;}
	.st29{display:inline;fill:none;stroke:#000000;stroke-width:2;stroke-linecap:round;stroke-linejoin:round;}
	.st30{fill:none;stroke:#000000;stroke-width:2;stroke-linecap:round;stroke-linejoin:round;}
	.st31{display:inline;fill:none;}
	.st32{fill:none;}
	.st33{display:inline;fill-rule:evenodd;clip-rule:evenodd;fill:#263238;}
</style>
<g id="improved_performance">
	<g>
		<g id="XMLID_44_">
			<g>
				<path class="st8" d="M36.2,63.1c3-2.4,6.6,2.2,3.5,4.6l-20.1,16c-3,2.4-6.6-2.2-3.6-4.6L36.2,63.1z"/>
				<path class="st8" d="M88.8,72c1,1.2,0.8,3.1-0.5,4.1L70,90.9c-1.2,1-3.1,0.8-4-0.5s-0.8-3.1,0.4-4.1l18.4-14.9
					C86,70.5,87.8,70.7,88.8,72z"/>
				<path class="st9" d="M56.4,95c3.1-2.3,6.5,2.3,3.4,4.6l-11.5,8.7c-3.1,2.3-6.5-2.3-3.5-4.7L56.4,95z"/>
				<path class="st9" d="M58.9,48.5c1,1.3,0.7,3.1-0.6,4.1L49.8,59c-1.3,1-3.1,0.7-4-0.6c-1-1.3-0.7-3.1,0.6-4.1l8.6-6.5
					C56.2,47,58,47.2,58.9,48.5z"/>
				<path class="st11" d="M110.5,35.1c2.3,0.3,3.3,3.3,1.6,5l-9.8,9.7l2.3,13.7c0.4,2.4-2.1,4.2-4.2,3.1L88.3,60l-12.2,6.5
					c-2.1,1.1-4.6-0.7-4.2-3.1l2.3-13.7L64.4,40c-1.7-1.7-0.8-4.6,1.6-5l13.6-2l6.1-12.4c1.1-2.2,4.1-2.2,5.2,0l6.1,12.4L110.5,35.1
					z M97.2,46.6l6.8-6.6l-9.3-1.4c-0.9-0.1-1.7-0.7-2.2-1.6l-4.2-8.5L84.1,37c-0.4,0.9-1.2,1.5-2.2,1.6L72.6,40l6.8,6.6
					c0.7,0.7,1,1.6,0.8,2.6l-1.6,9.4l8.4-4.4c0.8-0.4,1.8-0.4,2.7,0l8.4,4.4l-1.6-9.4C96.2,48.2,96.5,47.3,97.2,46.6z"/>
				<path class="st10" d="M58.9,72.9c1,1.3,0.8,3.1-0.4,4.1l-38.8,31.3c-1.2,1-3,0.8-4-0.4c-1-1.2-0.8-3.1,0.4-4.1l38.8-31.3
					C56.2,71.4,58,71.6,58.9,72.9z"/>
				<path class="st10" d="M103.9,40l-6.8,6.6c-0.7,0.7-1,1.6-0.8,2.6l1.6,9.4l-8.4-4.4c-0.8-0.4-1.8-0.4-2.7,0l-8.4,4.4l1.6-9.4
					c0.2-0.9-0.2-1.9-0.8-2.6L72.6,40l9.3-1.4c0.9-0.1,1.7-0.7,2.2-1.6l4.2-8.5l4.2,8.5c0.4,0.9,1.2,1.5,2.2,1.6L103.9,40z"/>
			</g>
			<g>
				<path class="st0" d="M80.2,49.2c0.2-0.9-0.2-1.9-0.8-2.6L72.6,40l9.3-1.4c0.9-0.1,1.7-0.7,2.2-1.6l4.2-8.5l4.2,8.5
					c0.4,0.9,1.2,1.5,2.2,1.6l9.3,1.4l-6.8,6.6c-0.7,0.7-1,1.6-0.8,2.6l1.6,9.4l-8.4-4.4c-0.8-0.4-1.8-0.4-2.7,0l-8.4,4.4L80.2,49.2
					z"/>
				<path class="st0" d="M100.4,66.5c2.1,1.1,4.6-0.7,4.2-3.1l-2.3-13.7l9.8-9.7c1.7-1.7,0.8-4.6-1.6-5l-13.6-2l-6.1-12.4
					c-1-2.2-4.1-2.2-5.2,0l-6.1,12.4l-13.6,2c-2.4,0.3-3.3,3.3-1.6,5l9.8,9.7l-2.3,13.7c-0.4,2.4,2.1,4.2,4.2,3.1L88.3,60
					L100.4,66.5z"/>
				<path class="st0" d="M19.7,108.3L58.5,77c1.2-1,1.4-2.8,0.4-4.1c-1-1.2-2.8-1.4-4-0.4l-38.8,31.3c-1.2,1-1.4,2.8-0.4,4.1
					C16.7,109.1,18.5,109.3,19.7,108.3z"/>
				<path class="st0" d="M70,90.9l18.4-14.8c1.2-1,1.4-2.8,0.5-4.1s-2.8-1.5-4-0.5L66.4,86.4c-1.2,1-1.4,2.8-0.4,4.1
					S68.7,91.9,70,90.9z"/>
				<path class="st0" d="M59.8,99.7c3.1-2.3-0.4-7-3.4-4.6l-11.5,8.7c-3.1,2.3,0.4,7,3.5,4.7L59.8,99.7z"/>
				<path class="st0" d="M49.8,59l8.6-6.5c1.3-1,1.5-2.8,0.6-4.1c-1-1.3-2.8-1.5-4-0.6l-8.6,6.5c-1.3,1-1.5,2.8-0.6,4.1
					C46.7,59.7,48.5,60,49.8,59z"/>
				<path class="st0" d="M39.8,67.7c3-2.4-0.5-7-3.5-4.6l-20.1,16c-3,2.4,0.5,7,3.6,4.6L39.8,67.7z"/>
			</g>
		</g>
	</g>
</g>
</svg>
