<?xml version="1.0" encoding="utf-8"?>
<!-- Generator: Adobe Illustrator 19.2.1, SVG Export Plug-In . SVG Version: 6.00 Build 0)  -->
<svg version="1.1" xmlns="http://www.w3.org/2000/svg" xmlns:xlink="http://www.w3.org/1999/xlink" x="0px" y="0px"
	 viewBox="0 0 128 128" style="enable-background:new 0 0 128 128;" xml:space="preserve">
<style type="text/css">
	.st0{fill:none;stroke:#263238;stroke-width:2;stroke-miterlimit:10;}
	.st1{fill:#EF5350;stroke:#263238;stroke-width:2;stroke-miterlimit:10;}
	.st2{fill:#009688;stroke:#263238;stroke-width:2;stroke-miterlimit:10;}
	.st3{fill:#03A9F4;stroke:#263238;stroke-width:2;stroke-miterlimit:10;}
	.st4{fill:#CFD8DC;stroke:#263238;stroke-width:2;stroke-miterlimit:10;}
	.st5{display:none;}
	.st6{display:inline;}
	.st7{display:inline;fill:none;stroke:#263238;stroke-width:2;stroke-miterlimit:10;}
	.st8{fill:#009688;}
	.st9{fill:#03A9F4;}
	.st10{fill:#EF5350;}
	.st11{fill:#CFD8DC;}
	.st12{fill-rule:evenodd;clip-rule:evenodd;fill:none;stroke:#263238;stroke-width:2;stroke-miterlimit:10;}
	.st13{fill:#37474F;}
	
		.st14{display:inline;fill:none;stroke:#263238;stroke-width:2;stroke-linecap:round;stroke-miterlimit:10;stroke-dasharray:1.9328,3.8656;}
	.st15{fill:#263238;}
	.st16{display:inline;fill:#263238;}
	.st17{display:inline;fill:#FFFFFF;stroke:#000000;stroke-width:2;stroke-miterlimit:10;}
	.st18{display:inline;fill-rule:evenodd;clip-rule:evenodd;fill:none;stroke:#263238;stroke-width:2;stroke-miterlimit:10;}
	.st19{fill:#58595B;}
	.st20{fill:url(#SVGID_1_);}
	.st21{fill:url(#SVGID_2_);}
	.st22{fill:url(#SVGID_3_);}
	.st23{fill:none;stroke:#4A4A4C;stroke-width:0.5;}
	.st24{opacity:0.23;fill:#231F20;enable-background:new    ;}
	.st25{fill:none;stroke:#A8ABAD;stroke-width:0.5;}
	.st26{fill:none;stroke:#37474F;stroke-width:0.5;}
	.st27{fill:#6D6E70;}
	.st28{fill:#FFFFFF;}
	.st29{display:inline;fill:none;stroke:#000000;stroke-width:2;stroke-linecap:round;stroke-linejoin:round;}
	.st30{fill:none;stroke:#000000;stroke-width:2;stroke-linecap:round;stroke-linejoin:round;}
	.st31{display:inline;fill:none;}
	.st32{fill:none;}
	.st33{display:inline;fill-rule:evenodd;clip-rule:evenodd;fill:#263238;}
</style>
<g id="artboards">
</g>
<g id="guides">
</g>
<g id="palette">
</g>
<g id="view-images">
</g>
<g id="using_a_public_group">
</g>
<g id="user-added_metadata">
</g>
<g id="unit-support">
	<g id="raw_10_" class="st5">
	</g>
	<g id="Live_Paint">
	</g>
</g>
<g id="supported_file_formats">
</g>
<g id="share">
</g>
<g id="searching_and_filtering">
</g>
<g id="scripting_service">
</g>
<g id="roi_folders_1_">
	<g id="raw_8_">
	</g>
</g>
<g id="reverse_intensity_rendering_1_">
	<g id="raw_7_" class="st5">
	</g>
</g>
<g id="rendering_settings">
</g>
<g id="quality_assurance_1_">
	<g id="raw_6_" class="st5">
	</g>
</g>
<g id="python_blitz_api">
</g>
<g id="public_api">
	<g class="st5">
		<path class="st7" d="M38.7,58.6c-2-3.9-6-6.6-10.7-6.6c-6.6,0-12,5.4-12,12c0,6.6,5.4,12,12,12c4.7,0,8.8-2.7,10.7-6.6"/>
		<path class="st7" d="M89.3,94.6c-0.8,1.6-1.3,3.4-1.3,5.4c0,6.6,5.4,12,12,12s12-5.4,12-12c0-6.6-5.4-12-12-12"/>
		<path class="st7" d="M100,40c6.6,0,12-5.4,12-12c0-6.6-5.4-12-12-12s-12,5.4-12,12c0,1.9,0.5,3.7,1.3,5.4"/>
		<path class="st7" d="M100,40c-4.7,0-8.8-2.7-10.7-6.6L38.7,58.6c0.8,1.6,1.3,3.4,1.3,5.4s-0.5,3.7-1.3,5.4l50.6,25.3
			c2-3.9,6-6.6,10.7-6.6"/>
		<path class="st7" d="M38.7,69.4c0.8-1.6,1.3-3.4,1.3-5.4s-0.5-3.7-1.3-5.4"/>
		<path class="st7" d="M100,88c-4.7,0-8.8,2.7-10.7,6.6"/>
		<path class="st7" d="M89.3,33.4c2,3.9,6,6.6,10.7,6.6"/>
	</g>
	<g>
		<g id="XMLID_50_">
			<g>
				<path class="st8" d="M100,88c6.6,0,12,5.4,12,12s-5.4,12-12,12s-12-5.4-12-12c0-1.9,0.5-3.8,1.3-5.4C91.2,90.7,95.3,88,100,88z"
					/>
				<path class="st9" d="M38.7,58.6c0.8,1.6,1.3,3.4,1.3,5.4s-0.5,3.8-1.3,5.4c-2,3.9-6,6.6-10.7,6.6c-6.6,0-12-5.4-12-12
					s5.4-12,12-12C32.7,52,36.8,54.7,38.7,58.6z"/>
				<path class="st10" d="M112,28c0,6.6-5.4,12-12,12c-4.7,0-8.8-2.7-10.7-6.6C88.5,31.8,88,29.9,88,28c0-6.6,5.4-12,12-12
					S112,21.4,112,28z"/>
			</g>
			<g>
				<path class="st0" d="M38.7,58.6c-2-3.9-6-6.6-10.7-6.6c-6.6,0-12,5.4-12,12s5.4,12,12,12c4.7,0,8.8-2.7,10.7-6.6"/>
				<path class="st0" d="M89.3,94.6c-0.8,1.6-1.3,3.4-1.3,5.4c0,6.6,5.4,12,12,12s12-5.4,12-12s-5.4-12-12-12"/>
				<path class="st0" d="M100,40c6.6,0,12-5.4,12-12s-5.4-12-12-12s-12,5.4-12,12c0,1.9,0.5,3.8,1.3,5.4"/>
				<line class="st0" x1="38.7" y1="69.4" x2="89.3" y2="94.6"/>
				<line class="st0" x1="89.3" y1="33.4" x2="38.7" y2="58.6"/>
				<path class="st0" d="M38.7,69.4c0.8-1.6,1.3-3.4,1.3-5.4s-0.5-3.8-1.3-5.4"/>
				<path class="st0" d="M100,88c-4.7,0-8.8,2.7-10.7,6.6"/>
				<path class="st0" d="M89.3,33.4c2,3.9,6,6.6,10.7,6.6"/>
			</g>
		</g>
	</g>
</g>
<g id="public_access">
</g>
<g id="personalize">
	<g id="raw_5_" class="st5">
	</g>
</g>
<g id="original_file_formats">
</g>
<g id="orbit_image_analysis">
</g>
<g id="open_with..._1_">
	<g id="raw_4_" class="st5">
	</g>
</g>
<g id="open_source">
</g>
<g id="ome-smuggler">
</g>
<g id="omero-wnd-charm">
</g>
<g id="omero.webtagging">
</g>
<g id="omero.web">
</g>
<g id="omero.server">
</g>
<g id="omero.mail_1_">
	<g id="raw_1_" class="st5">
	</g>
</g>
<g id="omero.forms">
</g>
<g id="omero.dropbox">
</g>
<g id="omero_as_public_repository">
</g>
<g id="moodle">
	<g id="logo_-_moodle">
	</g>
</g>
<g id="manage_and_organize">
</g>
<g id="manage">
	<g id="raw_9_" class="st5">
	</g>
</g>
<g id="lookup_table_1_">
	<g id="raw_2_" class="st5">
	</g>
</g>
<g id="improved_screen_plate_well_ui_1_">
	<g id="raw_3_" class="st5">
	</g>
</g>
<g id="improved_performance">
</g>
<g id="import_images">
</g>
<g id="import-for">
</g>
<g id="histogram_support">
	<g id="raw" class="st5">
	</g>
</g>
<g id="github">
</g>
<g id="file_integrity_reports">
</g>
<g id="export_images">
</g>
<g id="export_hcs">
</g>
<g id="export_filesets">
</g>
<g id="draw_rois">
</g>
<g id="customize_clients">
</g>
<g id="command_line_interface">
	<g id="raw_11_" class="st5">
	</g>
	<g id="Live_Paint_1_">
	</g>
</g>
<g id="create_movies">
</g>
<g id="create_figures">
</g>
<g id="big_images">
</g>
<g id="attaching_analytical_results">
</g>
<g id="annotate_data">
</g>
<g id="acquisition_metadata">
</g>
</svg>
