<?xml version="1.0" encoding="utf-8"?>
<!-- Generator: Adobe Illustrator 19.2.1, SVG Export Plug-In . SVG Version: 6.00 Build 0)  -->
<svg version="1.1" xmlns="http://www.w3.org/2000/svg" xmlns:xlink="http://www.w3.org/1999/xlink" x="0px" y="0px"
	 viewBox="0 0 128 128" style="enable-background:new 0 0 128 128;" xml:space="preserve">
<style type="text/css">
	.st0{fill:none;stroke:#263238;stroke-width:2;stroke-miterlimit:10;}
	.st1{fill:#EF5350;stroke:#263238;stroke-width:2;stroke-miterlimit:10;}
	.st2{fill:#009688;stroke:#263238;stroke-width:2;stroke-miterlimit:10;}
	.st3{fill:#03A9F4;stroke:#263238;stroke-width:2;stroke-miterlimit:10;}
	.st4{fill:#CFD8DC;stroke:#263238;stroke-width:2;stroke-miterlimit:10;}
	.st5{display:none;}
	.st6{display:inline;}
	.st7{display:inline;fill:none;stroke:#263238;stroke-width:2;stroke-miterlimit:10;}
	.st8{fill:#009688;}
	.st9{fill:#03A9F4;}
	.st10{fill:#EF5350;}
	.st11{fill:#CFD8DC;}
	.st12{fill-rule:evenodd;clip-rule:evenodd;fill:none;stroke:#263238;stroke-width:2;stroke-miterlimit:10;}
	.st13{fill:#37474F;}
	
		.st14{display:inline;fill:none;stroke:#263238;stroke-width:2;stroke-linecap:round;stroke-miterlimit:10;stroke-dasharray:1.9328,3.8656;}
	.st15{fill:#263238;}
	.st16{display:inline;fill:#263238;}
	.st17{display:inline;fill:#FFFFFF;stroke:#000000;stroke-width:2;stroke-miterlimit:10;}
	.st18{display:inline;fill-rule:evenodd;clip-rule:evenodd;fill:none;stroke:#263238;stroke-width:2;stroke-miterlimit:10;}
	.st19{fill:#58595B;}
	.st20{fill:url(#SVGID_1_);}
	.st21{fill:url(#SVGID_2_);}
	.st22{fill:url(#SVGID_3_);}
	.st23{fill:none;stroke:#4A4A4C;stroke-width:0.5;}
	.st24{opacity:0.23;fill:#231F20;enable-background:new    ;}
	.st25{fill:none;stroke:#A8ABAD;stroke-width:0.5;}
	.st26{fill:none;stroke:#37474F;stroke-width:0.5;}
	.st27{fill:#6D6E70;}
	.st28{fill:#FFFFFF;}
	.st29{display:inline;fill:none;stroke:#000000;stroke-width:2;stroke-linecap:round;stroke-linejoin:round;}
	.st30{fill:none;stroke:#000000;stroke-width:2;stroke-linecap:round;stroke-linejoin:round;}
	.st31{display:inline;fill:none;}
	.st32{fill:none;}
	.st33{display:inline;fill-rule:evenodd;clip-rule:evenodd;fill:#263238;}
</style>
<g id="annotate_data">
	<g class="st5">
		<path class="st33" d="M81.2,33L81.2,33l8.5-8.4l0,0c0.3-0.2,0.7-0.3,0.9-0.1c0.3,0.2,0.4,0.7,0.1,1c0,0,0,0-0.1,0.1h0l0,0
			c0,0,0,0,0,0l-8.2,8.1l0,0c0,0,0,0,0,0c-1.4,1.3-1.4,3.5,0,4.9c1.4,1.3,3.6,1.3,4.9,0c0,0,0,0,0,0l0,0L98,28.2
			c0,0,0.1-0.1,0.1-0.2c0.8-1,0.6-2.4-0.4-3.1c-0.9-0.7-2.2-0.6-3,0.2l0,0l-8.2,8l0,0c0,0-0.1,0.1-0.1,0.1c-0.3,0.5-0.3,1.1,0.2,1.4
			c0.4,0.3,1,0.3,1.3,0l3.8-3.8c0.2-0.3,0.7-0.4,1-0.1c0.3,0.2,0.4,0.7,0.1,1c0,0,0,0-0.1,0.1L89,35.6l0,0c-0.9,0.9-2.3,1-3.3,0.2
			c-1.1-0.8-1.3-2.4-0.5-3.4c0.1-0.1,0.1-0.1,0.2-0.2v0l8.2-8.1h0c1.3-1.3,3.4-1.4,4.9-0.3c1.6,1.2,1.9,3.5,0.7,5.1
			c-0.1,0.1-0.1,0.2-0.3,0.3l0.1-0.1c0,0-0.1,0.1-0.1,0.1h0L88.4,39.6c-1.9,1.9-5,1.9-6.9,0C79.6,37.8,79.5,34.9,81.2,33z"/>
		<path class="st18" d="M94.2,56.2l-2.5-5.8c-0.6,0-1.1,0-1.7,0c-12.7,0-23-7.9-23-17.7C67,22.9,77.3,15,90,15
			c12.7,0,23,7.9,23,17.7c0,5.8-3.6,10.9-9.2,14.2l-7.7,9.5C95.5,57.3,94.6,57.2,94.2,56.2z"/>
		<path class="st18" d="M94.2,112.2l-2.5-5.8c-0.6,0-1.1,0-1.7,0c-12.7,0-23-7.9-23-17.7C67,78.9,77.3,71,90,71
			c12.7,0,23,7.9,23,17.7c0,5.8-3.6,10.9-9.2,14.2l-7.7,9.5C95.5,113.3,94.6,113.2,94.2,112.2z"/>
		<path class="st18" d="M33.8,86.2l2.5-5.8c0.6,0,1.1,0,1.7,0c12.7,0,23-7.9,23-17.7C61,52.9,50.7,45,38,45c-12.7,0-23,7.9-23,17.7
			c0,5.8,3.6,10.9,9.2,14.2l7.7,9.5C32.5,87.3,33.4,87.2,33.8,86.2z"/>
		<circle class="st18" cx="28" cy="64" r="3"/>
		<circle class="st18" cx="38" cy="64" r="3"/>
		<circle class="st18" cx="48" cy="64" r="3"/>
		<path class="st18" d="M89.1,84.4c-0.8-0.8-2.1-0.8-2.9,0c-0.8,0.8-0.8,2.1,0,2.9c0.8,0.8,2.1,0.8,2.9,0
			C89.9,86.5,89.9,85.2,89.1,84.4z M93.1,99.6l-9.9-9.8c-0.3-0.3-0.5-0.8-0.4-1.2c0-0.1-0.1-0.2-0.1-0.3l-0.7-7
			c-0.1-0.8,0.5-1.3,1.2-1.2l7.1,0.7c0.3,0,1.2,0.5,1.4,0.7l9.9,9.8c0.6,0.6,0.6,1.5,0,2l-6.5,6.4C94.5,100.1,93.6,100.1,93.1,99.6z
			"/>
	</g>
	<g id="Live_Paint_12_">
		<g id="XMLID_37_">
			<g>
				<path class="st9" d="M93.1,99.6l-9.9-9.8c-0.3-0.3-0.5-0.8-0.4-1.2c0-0.1-0.1-0.2-0.1-0.3l-0.7-7c-0.1-0.8,0.5-1.3,1.2-1.2
					l7.1,0.7c0.3,0,1.2,0.4,1.4,0.7l9.9,9.8c0.6,0.6,0.6,1.5,0,2l-6.5,6.4C94.6,100.1,93.6,100.1,93.1,99.6z M89.1,87.3
					c0.8-0.8,0.8-2.1,0-2.8c-0.8-0.8-2.1-0.8-2.9,0c-0.8,0.8-0.8,2.1,0,2.8C87.1,88.1,88.3,88.1,89.1,87.3z"/>
				<circle class="st9" cx="38" cy="64" r="3"/>
				<circle class="st8" cx="48" cy="64" r="3"/>
				<circle class="st10" cx="28" cy="64" r="3"/>
				<path class="st15" d="M85.7,35.8c-1.1-0.8-1.3-2.4-0.5-3.4c0.1-0.1,0.1-0.1,0.2-0.2l8.2-8.1h0c1.3-1.3,3.4-1.4,4.9-0.3
					c1.6,1.2,1.9,3.5,0.7,5.1C99.2,29,99.1,29,99,29.1c0,0-0.1,0.1-0.1,0.1L88.4,39.6c-1.9,1.9-5,1.8-6.9,0
					c-1.8-1.8-1.9-4.7-0.2-6.6l0,0l8.5-8.4v0c0.2-0.2,0.6-0.3,0.9,0c0.3,0.2,0.4,0.7,0.1,1c0,0,0,0-0.1,0.1l0,0l-8.2,8.1
					c0,0,0,0,0,0c-1.4,1.3-1.4,3.5,0,4.9s3.6,1.3,4.9,0v0L98,28.2c0,0,0.1-0.1,0.1-0.2c0.8-1,0.6-2.4-0.4-3.1
					c-0.9-0.7-2.2-0.6-3,0.2l-8.2,8c0,0-0.1,0.1-0.1,0.1c-0.4,0.4-0.3,1.1,0.2,1.4c0.4,0.3,0.9,0.3,1.3,0l3.8-3.8
					c0.2-0.3,0.7-0.3,1-0.1c0.3,0.2,0.4,0.7,0.1,1c0,0,0,0,0,0.1L89,35.6v0C88.1,36.5,86.7,36.6,85.7,35.8z"/>
			</g>
			<g>
				<path class="st0" d="M94.2,56.2l-2.5-5.8c-0.6,0-1.1,0-1.7,0c-12.7,0-23-8-23-17.7S77.3,15,90,15c12.7,0,23,8,23,17.7
					c0,5.8-3.6,10.9-9.2,14.2l-7.7,9.5C95.5,57.3,94.6,57.2,94.2,56.2z"/>
				<path class="st0" d="M94.2,112.2l-2.5-5.8c-0.6,0-1.1,0.1-1.7,0.1c-12.7,0-23-8-23-17.7S77.3,71,90,71c12.7,0,23,7.9,23,17.7
					c0,5.8-3.6,11-9.2,14.2l-7.7,9.5C95.5,113.3,94.6,113.2,94.2,112.2z"/>
				<path class="st0" d="M33.8,86.2l2.5-5.8c0.6,0,1.1,0.1,1.7,0.1c12.7,0,23-8,23-17.7S50.7,45,38,45c-12.7,0-23,8-23,17.7
					c0,5.8,3.6,11,9.2,14.2l7.7,9.5C32.5,87.3,33.4,87.2,33.8,86.2z"/>
				<circle class="st0" cx="28" cy="64" r="3"/>
				<circle class="st0" cx="38" cy="64" r="3"/>
				<circle class="st0" cx="48" cy="64" r="3"/>
				<path class="st0" d="M89.1,84.4c-0.8-0.8-2.1-0.8-2.9,0c-0.8,0.8-0.8,2.1,0,2.8c0.8,0.8,2.1,0.8,2.9,0
					C89.9,86.5,89.9,85.2,89.1,84.4z"/>
				<path class="st0" d="M93.1,99.6l-9.9-9.8c-0.3-0.3-0.5-0.8-0.4-1.2c0-0.1-0.1-0.2-0.1-0.3l-0.7-7c-0.1-0.8,0.5-1.3,1.2-1.2
					l7.1,0.7c0.3,0,1.2,0.4,1.4,0.7l9.9,9.8c0.6,0.6,0.6,1.5,0,2l-6.5,6.4C94.6,100.1,93.6,100.1,93.1,99.6z"/>
			</g>
		</g>
	</g>
</g>
</svg>
