<?xml version="1.0" encoding="utf-8"?>
<!-- Generator: Adobe Illustrator 19.2.1, SVG Export Plug-In . SVG Version: 6.00 Build 0)  -->
<svg version="1.1" xmlns="http://www.w3.org/2000/svg" xmlns:xlink="http://www.w3.org/1999/xlink" x="0px" y="0px"
	 viewBox="0 0 128 128" style="enable-background:new 0 0 128 128;" xml:space="preserve">
<style type="text/css">
	.st0{fill:none;stroke:#263238;stroke-width:2;stroke-miterlimit:10;}
	.st1{fill:#EF5350;stroke:#263238;stroke-width:2;stroke-miterlimit:10;}
	.st2{fill:#009688;stroke:#263238;stroke-width:2;stroke-miterlimit:10;}
	.st3{fill:#03A9F4;stroke:#263238;stroke-width:2;stroke-miterlimit:10;}
	.st4{fill:#CFD8DC;stroke:#263238;stroke-width:2;stroke-miterlimit:10;}
	.st5{display:none;}
	.st6{display:inline;}
	.st7{display:inline;fill:none;stroke:#263238;stroke-width:2;stroke-miterlimit:10;}
	.st8{fill:#009688;}
	.st9{fill:#03A9F4;}
	.st10{fill:#EF5350;}
	.st11{fill:#CFD8DC;}
	.st12{fill-rule:evenodd;clip-rule:evenodd;fill:none;stroke:#263238;stroke-width:2;stroke-miterlimit:10;}
	.st13{fill:#37474F;}
	
		.st14{display:inline;fill:none;stroke:#263238;stroke-width:2;stroke-linecap:round;stroke-miterlimit:10;stroke-dasharray:1.9328,3.8656;}
	.st15{fill:#263238;}
	.st16{display:inline;fill:#263238;}
	.st17{display:inline;fill:#FFFFFF;stroke:#000000;stroke-width:2;stroke-miterlimit:10;}
	.st18{display:inline;fill-rule:evenodd;clip-rule:evenodd;fill:none;stroke:#263238;stroke-width:2;stroke-miterlimit:10;}
	.st19{fill:#58595B;}
	.st20{fill:url(#SVGID_1_);}
	.st21{fill:url(#SVGID_2_);}
	.st22{fill:url(#SVGID_3_);}
	.st23{fill:none;stroke:#4A4A4C;stroke-width:0.5;}
	.st24{opacity:0.23;fill:#231F20;enable-background:new    ;}
	.st25{fill:none;stroke:#A8ABAD;stroke-width:0.5;}
	.st26{fill:none;stroke:#37474F;stroke-width:0.5;}
	.st27{fill:#6D6E70;}
	.st28{fill:#FFFFFF;}
	.st29{display:inline;fill:none;stroke:#000000;stroke-width:2;stroke-linecap:round;stroke-linejoin:round;}
	.st30{fill:none;stroke:#000000;stroke-width:2;stroke-linecap:round;stroke-linejoin:round;}
	.st31{display:inline;fill:none;}
	.st32{fill:none;}
	.st33{display:inline;fill-rule:evenodd;clip-rule:evenodd;fill:#263238;}
</style>
<g id="artboards">
</g>
<g id="guides">
</g>
<g id="palette">
</g>
<g id="view-images">
</g>
<g id="using_a_public_group">
</g>
<g id="user-added_metadata">
</g>
<g id="unit-support">
	<g id="raw_10_" class="st5">
	</g>
	<g id="Live_Paint">
	</g>
</g>
<g id="supported_file_formats">
</g>
<g id="share">
</g>
<g id="searching_and_filtering">
</g>
<g id="scripting_service">
</g>
<g id="roi_folders_1_">
	<g id="raw_8_">
	</g>
</g>
<g id="reverse_intensity_rendering_1_">
	<g id="raw_7_" class="st5">
	</g>
</g>
<g id="rendering_settings">
</g>
<g id="quality_assurance_1_">
	<g id="raw_6_" class="st5">
	</g>
</g>
<g id="python_blitz_api">
</g>
<g id="public_access">
	<g class="st5">
		<path class="st7" d="M85.1,19.8c0.4,0.2,0.8,0.4,1.2,0.6C85.9,20.2,85.5,20,85.1,19.8z"/>
		<path class="st7" d="M76.1,16.5c0.4,0.1,0.9,0.2,1.3,0.4C76.9,16.7,76.5,16.6,76.1,16.5z"/>
		<path class="st7" d="M15.8,55.2c0.1-0.8,0.3-1.6,0.5-2.4C16.1,53.6,16,54.4,15.8,55.2z"/>
		<path class="st7" d="M73.7,16c0.4,0.1,0.9,0.2,1.3,0.3C74.6,16.2,74.1,16.1,73.7,16z"/>
		<path class="st7" d="M82.9,18.8c0.4,0.2,0.8,0.4,1.2,0.6C83.7,19.1,83.3,19,82.9,18.8z"/>
		<path class="st7" d="M80.7,17.9c0.4,0.2,0.8,0.3,1.3,0.5C81.5,18.2,81.1,18.1,80.7,17.9z"/>
		<path class="st7" d="M78.4,17.2c0.4,0.1,0.9,0.3,1.3,0.4C79.3,17.4,78.8,17.3,78.4,17.2z"/>
		<path class="st7" d="M61.2,15.1c0.6,0,1.2,0,1.7-0.1C62.3,15,61.7,15.1,61.2,15.1z"/>
		<path class="st7" d="M58.4,15.3c0.7-0.1,1.4-0.1,2.1-0.2C59.8,15.2,59.1,15.2,58.4,15.3z"/>
		<path class="st7" d="M66.4,15.1c0.4,0,0.8,0.1,1.3,0.1C67.2,15.1,66.8,15.1,66.4,15.1z"/>
		<path class="st7" d="M68.8,15.2c0.4,0,0.8,0.1,1.3,0.2C69.7,15.3,69.3,15.3,68.8,15.2z"/>
		<path class="st7" d="M64,15c-0.1,0-0.1,0-0.2,0c0.4,0,0.8,0,1.3,0C64.7,15,64.4,15,64,15z"/>
		<path class="st7" d="M71.3,15.5c0.4,0.1,0.9,0.1,1.3,0.2C72.1,15.7,71.7,15.6,71.3,15.5z"/>
		<path class="st7" d="M103.2,34.6c0.2,0.3,0.4,0.6,0.6,0.8C103.6,35.1,103.4,34.8,103.2,34.6z"/>
		<path class="st7" d="M87.2,20.8c0.4,0.2,0.8,0.4,1.2,0.7C88,21.3,87.6,21,87.2,20.8z"/>
		<path class="st7" d="M98.5,29.2c0.3,0.3,0.5,0.5,0.8,0.8C99.1,29.8,98.8,29.5,98.5,29.2z"/>
		<path class="st7" d="M100.2,30.9c0.2,0.3,0.5,0.5,0.7,0.8C100.6,31.5,100.4,31.2,100.2,30.9z"/>
		<path class="st7" d="M104.5,36.5c0.2,0.3,0.4,0.6,0.6,0.9C104.9,37.1,104.7,36.8,104.5,36.5z"/>
		<path class="st7" d="M105.8,38.5c0.2,0.3,0.3,0.6,0.5,0.9C106.2,39.1,106,38.8,105.8,38.5z"/>
		<path class="st7" d="M101.7,32.7c0.2,0.3,0.4,0.6,0.7,0.8C102.2,33.3,101.9,33,101.7,32.7z"/>
		<path class="st7" d="M96.8,27.6c0.3,0.3,0.6,0.5,0.8,0.8C97.4,28.2,97.1,27.9,96.8,27.6z"/>
		<path class="st7" d="M91.2,23.3c0.4,0.2,0.7,0.5,1,0.7C91.9,23.8,91.6,23.5,91.2,23.3z"/>
		<path class="st7" d="M89.3,22c0.4,0.2,0.7,0.5,1.1,0.7C90,22.5,89.6,22.2,89.3,22z"/>
		<path class="st7" d="M93.2,24.6c0.3,0.2,0.7,0.5,1,0.8C93.8,25.1,93.5,24.9,93.2,24.6z"/>
		<path class="st7" d="M95,26.1c0.3,0.3,0.6,0.5,0.9,0.8C95.6,26.6,95.3,26.3,95,26.1z"/>
		<path class="st7" d="M15.7,72.3c-0.1-0.3-0.1-0.7-0.2-1C15.6,71.6,15.6,71.9,15.7,72.3z"/>
		<path class="st7" d="M83.1,109.1c-0.2,0.1-0.4,0.1-0.6,0.2C82.8,109.3,83,109.2,83.1,109.1z"/>
		<path class="st7" d="M80.9,110c-0.2,0.1-0.4,0.1-0.6,0.2C80.5,110.1,80.7,110.1,80.9,110z"/>
		<path class="st7" d="M85.3,108.1c-0.2,0.1-0.4,0.2-0.6,0.3C84.9,108.3,85.1,108.2,85.3,108.1z"/>
		<path class="st7" d="M87.4,107c-0.2,0.1-0.4,0.2-0.6,0.3C87,107.2,87.2,107.1,87.4,107z"/>
		<path class="st7" d="M76.3,111.4c-0.2,0.1-0.4,0.1-0.7,0.2C75.9,111.5,76.1,111.5,76.3,111.4z"/>
		<path class="st7" d="M78.7,110.8c-0.2,0.1-0.4,0.1-0.6,0.2C78.2,110.9,78.5,110.8,78.7,110.8z"/>
		<path class="st7" d="M74,112c-0.3,0.1-0.5,0.1-0.8,0.1C73.5,112.1,73.7,112,74,112z"/>
		<path class="st7" d="M95.3,101.7c-0.3,0.2-0.5,0.4-0.8,0.6C94.8,102.1,95,101.9,95.3,101.7z"/>
		<path class="st7" d="M97.1,100.2c-0.3,0.2-0.5,0.5-0.8,0.7C96.5,100.6,96.8,100.4,97.1,100.2z"/>
		<path class="st7" d="M98.8,98.5c-0.3,0.3-0.6,0.6-0.9,0.8C98.2,99.1,98.5,98.8,98.8,98.5z"/>
		<path class="st7" d="M93.4,103.2c-0.2,0.2-0.5,0.4-0.7,0.5C92.9,103.5,93.2,103.4,93.4,103.2z"/>
		<path class="st7" d="M89.5,105.9c-0.2,0.1-0.4,0.2-0.6,0.4C89.1,106.1,89.3,106,89.5,105.9z"/>
		<path class="st7" d="M91.5,104.6c-0.2,0.2-0.5,0.3-0.7,0.4C91,104.9,91.3,104.7,91.5,104.6z"/>
		<path class="st7" d="M107,40.5c0.2,0.3,0.3,0.6,0.5,0.9C107.3,41.1,107.2,40.8,107,40.5z"/>
		<path class="st7" d="M57.1,112.5c-0.4-0.1-0.8-0.1-1.2-0.2C56.3,112.4,56.7,112.4,57.1,112.5z"/>
		<path class="st7" d="M15.4,57.9c0.1-0.7,0.2-1.5,0.3-2.2C15.6,56.5,15.5,57.2,15.4,57.9z"/>
		<path class="st7" d="M15.1,66.9c0-0.2,0-0.3,0-0.5C15.1,66.5,15.1,66.7,15.1,66.9z"/>
		<path class="st7" d="M15.3,69.3c0-0.2,0-0.4-0.1-0.6C15.2,68.8,15.3,69,15.3,69.3z"/>
		<path class="st7" d="M15.1,61.1c0.1-0.8,0.1-1.7,0.2-2.5C15.2,59.4,15.1,60.2,15.1,61.1z"/>
		<path class="st7" d="M15,64c0,0.1,0,0.1,0,0.2c0-0.9,0-1.9,0.1-2.8C15,62.2,15,63.1,15,64z"/>
		<path class="st7" d="M71.6,112.4c-0.3,0-0.6,0.1-0.9,0.1C71,112.5,71.3,112.5,71.6,112.4z"/>
		<path class="st7" d="M69.1,112.7c-0.3,0-0.7,0.1-1,0.1C68.5,112.8,68.8,112.8,69.1,112.7z"/>
		<path class="st7" d="M66.7,112.9c-0.4,0-0.8,0-1.2,0C65.9,113,66.3,112.9,66.7,112.9z"/>
		<path class="st7" d="M64,113c0,0,0.1,0,0.1,0c-0.2,0-0.3,0-0.5,0C63.8,113,63.9,113,64,113z"/>
		<path class="st7" d="M61.9,112.9c-0.2,0-0.4,0-0.7,0C61.4,112.9,61.6,112.9,61.9,112.9z"/>
		<path class="st7" d="M59.2,112.8c-0.3,0-0.5-0.1-0.8-0.1C58.7,112.7,58.9,112.7,59.2,112.8z"/>
		<path class="st7" d="M109.1,44.8c0.1,0.3,0.3,0.7,0.4,1C109.4,45.5,109.2,45.1,109.1,44.8z"/>
		<path class="st7" d="M112.5,71.3c-0.1,0.5-0.2,1-0.2,1.4C112.3,72.2,112.4,71.8,112.5,71.3z"/>
		<path class="st7" d="M112,73.7c-0.1,0.5-0.2,1-0.3,1.5C111.8,74.7,111.9,74.2,112,73.7z"/>
		<path class="st7" d="M110.1,80.6c-0.2,0.5-0.4,1-0.6,1.5C109.7,81.7,109.9,81.2,110.1,80.6z"/>
		<path class="st7" d="M112.4,56.4c0.1,0.4,0.1,0.9,0.2,1.3C112.5,57.2,112.5,56.8,112.4,56.4z"/>
		<path class="st7" d="M112.8,68.8c0,0.5-0.1,0.9-0.2,1.4C112.7,69.7,112.7,69.3,112.8,68.8z"/>
		<path class="st7" d="M110.9,78.4c-0.2,0.5-0.3,1-0.5,1.5C110.5,79.4,110.7,78.9,110.9,78.4z"/>
		<path class="st7" d="M112.9,66.4c0,0.4-0.1,0.9-0.1,1.3C112.9,67.2,112.9,66.8,112.9,66.4z"/>
		<path class="st7" d="M112.9,61.3c0,0.4,0,0.9,0,1.3C113,62.2,112.9,61.7,112.9,61.3z"/>
		<path class="st7" d="M112.7,58.8c0,0.4,0.1,0.9,0.1,1.3C112.8,59.7,112.8,59.2,112.7,58.8z"/>
		<path class="st7" d="M113,64c0-0.1,0-0.1,0-0.2c0,0.4,0,0.9,0,1.3C113,64.7,113,64.4,113,64z"/>
		<path class="st7" d="M111.5,76c-0.1,0.5-0.3,1-0.4,1.5C111.2,77.1,111.4,76.6,111.5,76z"/>
		<path class="st7" d="M101.9,95c-0.3,0.4-0.6,0.7-0.9,1.1C101.3,95.7,101.6,95.4,101.9,95z"/>
		<path class="st7" d="M100.4,96.8c-0.3,0.3-0.6,0.6-0.9,1C99.8,97.4,100.1,97.1,100.4,96.8z"/>
		<path class="st7" d="M34.6,24.9c2,0,3.7,0.1,4.3,1.1c1.3,2.1-1.6,5.1-1.6,7.6c0,2.5,0.5,10.1,1.8,11.7c1.3,1.7,2.1,5,5.1,7.1
			c2.9,2.1,5.1,3.7,7.1,4.6c2.1,0.8,6.7,2.5,5.5,3.3c-1.3,0.8-2.1,2.1-0.8,6.7c1.3,4.6,1.3,5,3.4,7.5c2.1,2.5,3.8,3.3,3.8,6.3
			c0,2.9-1.2,8.8-0.3,11.3c0.9,2.5,1.7,7.5,3.4,7.9c1.7,0.4,5.5,3.3,4.2,0.8c-1.3-2.5-3.8-7.1-1.7-9.2c2.1-2.1,5-3,6.3-7.2
			c1.2-4.2,3.7-5.1,3.7-5.1l1.6-5l1.7-3.4c0,0-1.3-4.2-6.8-5.8c-5.5-1.6-0.4-2.1-6.3-4.6c-5.9-2.5-5.5-5-7.2-4.2
			c-1.7,0.9-5,1.7-5,1.7l-4.2-3.7c0,0-8.4-3.7-5.5-7.5c2.9-3.8,5.4-5.9,7.1-3c1.7,2.9,2.1,2.9,3.4-0.9c1.2-3.8,6.2-9.3,8.3-9.3
			c2.1,0,3.7-3.4,3.7-3.4s7.6,0,2.9-2.9c-4.6-2.9-4.2-4.2-6.7-1.2c-2.5,3-2.9,0.4-4.6,0.5c-1.7,0,0.4-5,2.1-5.1
			c1.7,0-1.7-4.6-5.9-2.9c-4.2,1.7-13,0.9-13,0.9s-0.3,0-0.7-0.1c4.5-2.1,9.5-3.5,14.6-4.2c-20.5,2.4-37.1,17.5-41.8,37.2
			C19.1,41.3,25.7,31.6,34.6,24.9z"/>
		<path class="st7" d="M39.8,104.5c3.8-4.3,1.1-4.8-0.5-9.1c-1.6-4.3-7.5-3.8-9.7-3.8c-1.7,0-5.6-1.3-7.2-1.9
			c-3.1-5-5.4-10.6-6.5-16.6c3.8,19.9,19.5,35.5,39.4,39c-6-1.1-11.6-3.3-16.7-6.3C39,105.5,39.4,105.1,39.8,104.5z"/>
		<path class="st7" d="M107.2,87.2c-0.3,0.5-0.5,1-0.8,1.4C106.7,88.1,106.9,87.6,107.2,87.2z"/>
		<path class="st7" d="M109.2,82.9c-0.2,0.5-0.4,1-0.7,1.5C108.8,83.9,109,83.4,109.2,82.9z"/>
		<path class="st7" d="M108.3,85c-0.2,0.5-0.5,1-0.8,1.5C107.8,86,108,85.5,108.3,85z"/>
		<path class="st7" d="M103.4,93.1c-0.3,0.4-0.6,0.8-0.9,1.2C102.8,93.9,103.1,93.5,103.4,93.1z"/>
		<path class="st7" d="M104.8,91.2c-0.3,0.4-0.6,0.9-0.9,1.3C104.2,92.1,104.5,91.6,104.8,91.2z"/>
		<path class="st7" d="M106,89.2c-0.3,0.5-0.6,0.9-0.9,1.4C105.4,90.1,105.7,89.7,106,89.2z"/>
		<path class="st7" d="M110.7,49.3c0.1,0.4,0.2,0.8,0.3,1.1C111,50,110.9,49.7,110.7,49.3z"/>
		<path class="st7" d="M108.1,42.6c0.2,0.3,0.3,0.6,0.4,1C108.4,43.3,108.3,42.9,108.1,42.6z"/>
		<path class="st7" d="M110,47c0.1,0.4,0.2,0.7,0.4,1.1C110.2,47.7,110.1,47.4,110,47z"/>
		<path class="st7" d="M112,54c0.1,0.4,0.2,0.8,0.2,1.2C112.1,54.8,112.1,54.4,112,54z"/>
		<path class="st7" d="M111.4,51.6c0.1,0.4,0.2,0.8,0.3,1.2C111.6,52.4,111.5,52,111.4,51.6z"/>
		<path class="st7" d="M70.7,112.5c-0.5,0.1-1,0.1-1.6,0.2C69.7,112.7,70.2,112.6,70.7,112.5z"/>
		<path class="st7" d="M68.1,112.8c-0.5,0-1,0.1-1.5,0.1C67.2,112.9,67.6,112.9,68.1,112.8z"/>
		<path class="st7" d="M78,110.9c-0.6,0.2-1.1,0.3-1.7,0.5C76.9,111.3,77.5,111.1,78,110.9z"/>
		<path class="st7" d="M105.2,90.6c-0.1,0.2-0.3,0.4-0.4,0.6C104.9,91,105,90.8,105.2,90.6z"/>
		<path class="st7" d="M107.5,86.5c-0.1,0.2-0.2,0.4-0.3,0.6C107.3,86.9,107.4,86.7,107.5,86.5z"/>
		<path class="st7" d="M73.2,112.1c-0.5,0.1-1.1,0.2-1.6,0.3C72.1,112.3,72.7,112.2,73.2,112.1z"/>
		<path class="st7" d="M75.7,111.6c-0.6,0.1-1.1,0.3-1.7,0.4C74.5,111.9,75.1,111.7,75.7,111.6z"/>
		<path class="st7" d="M107.5,41.4c0.2,0.4,0.4,0.8,0.6,1.2C107.9,42.2,107.7,41.8,107.5,41.4z"/>
		<path class="st7" d="M106.4,88.6c-0.1,0.2-0.2,0.4-0.4,0.6C106.1,89,106.3,88.8,106.4,88.6z"/>
		<path class="st7" d="M109.5,82.2c-0.1,0.2-0.2,0.5-0.3,0.7C109.3,82.6,109.4,82.4,109.5,82.2z"/>
		<path class="st7" d="M58.4,112.7c-0.4-0.1-0.9-0.1-1.3-0.2C57.5,112.6,58,112.6,58.4,112.7z"/>
		<path class="st7" d="M55.9,112.3c-0.2,0-0.4-0.1-0.7-0.1C55.5,112.2,55.7,112.3,55.9,112.3z"/>
		<path class="st7" d="M110.3,48.1c0.1,0.4,0.3,0.8,0.4,1.2C110.6,48.9,110.5,48.5,110.3,48.1z"/>
		<path class="st7" d="M108.6,84.4c-0.1,0.2-0.2,0.4-0.3,0.6C108.4,84.8,108.5,84.6,108.6,84.4z"/>
		<path class="st7" d="M102.4,33.6c0.3,0.3,0.5,0.7,0.8,1C102.9,34.2,102.6,33.9,102.4,33.6z"/>
		<path class="st7" d="M63.7,113c-0.6,0-1.2,0-1.8,0C62.5,113,63.1,113,63.7,113z"/>
		<path class="st7" d="M64.3,113c0.4,0,0.8,0,1.2,0c-0.5,0-0.9,0-1.4,0C64.2,113,64.3,113,64.3,113z"/>
		<path class="st7" d="M61.2,112.9c-0.7,0-1.4-0.1-2-0.2C59.8,112.8,60.5,112.9,61.2,112.9z"/>
		<path class="st7" d="M109.5,45.8c0.2,0.4,0.3,0.8,0.5,1.2C109.8,46.6,109.7,46.2,109.5,45.8z"/>
		<path class="st7" d="M101,96.1c-0.2,0.2-0.4,0.5-0.6,0.7C100.6,96.6,100.8,96.3,101,96.1z"/>
		<path class="st7" d="M106.4,39.4c0.2,0.4,0.5,0.8,0.7,1.2C106.8,40.1,106.6,39.7,106.4,39.4z"/>
		<path class="st7" d="M108.5,43.6c0.2,0.4,0.4,0.8,0.5,1.2C108.9,44.4,108.7,44,108.5,43.6z"/>
		<path class="st7" d="M90.8,105c-0.4,0.3-0.9,0.6-1.3,0.8C89.9,105.6,90.4,105.3,90.8,105z"/>
		<path class="st7" d="M92.7,103.7c-0.4,0.3-0.8,0.6-1.2,0.9C91.9,104.3,92.3,104,92.7,103.7z"/>
		<path class="st7" d="M94.5,102.3c-0.4,0.3-0.7,0.6-1.1,0.8C93.8,102.9,94.1,102.6,94.5,102.3z"/>
		<path class="st7" d="M97.9,99.4c-0.3,0.3-0.6,0.5-0.8,0.8C97.3,99.9,97.6,99.6,97.9,99.4z"/>
		<path class="st7" d="M99.5,97.8c-0.2,0.3-0.5,0.5-0.7,0.8C99,98.3,99.3,98,99.5,97.8z"/>
		<path class="st7" d="M96.2,100.9c-0.3,0.3-0.6,0.6-1,0.8C95.6,101.4,95.9,101.2,96.2,100.9z"/>
		<path class="st7" d="M112.2,55.2c0.1,0.4,0.1,0.8,0.2,1.2C112.3,56,112.3,55.6,112.2,55.2z"/>
		<path class="st7" d="M103.9,92.5c-0.2,0.2-0.3,0.4-0.5,0.7C103.5,92.9,103.7,92.7,103.9,92.5z"/>
		<path class="st7" d="M82.6,109.3c-0.6,0.2-1.1,0.5-1.7,0.7C81.5,109.8,82,109.6,82.6,109.3z"/>
		<path class="st7" d="M103.8,35.4c0.3,0.4,0.5,0.7,0.8,1.1C104.3,36.1,104,35.8,103.8,35.4z"/>
		<path class="st7" d="M15.9,73.2c-0.1-0.3-0.1-0.6-0.2-0.9C15.8,72.6,15.8,72.9,15.9,73.2z"/>
		<path class="st7" d="M84.8,108.4c-0.5,0.2-1.1,0.5-1.6,0.7C83.7,108.9,84.2,108.6,84.8,108.4z"/>
		<path class="st7" d="M105.1,37.4c0.2,0.4,0.5,0.7,0.7,1.1C105.6,38.1,105.4,37.7,105.1,37.4z"/>
		<path class="st7" d="M86.9,107.3c-0.5,0.3-1,0.5-1.5,0.8C85.8,107.9,86.3,107.6,86.9,107.3z"/>
		<path class="st7" d="M88.9,106.2c-0.5,0.3-0.9,0.6-1.4,0.8C87.9,106.8,88.4,106.5,88.9,106.2z"/>
		<path class="st7" d="M102.5,94.3c-0.2,0.2-0.4,0.5-0.5,0.7C102.1,94.8,102.3,94.6,102.5,94.3z"/>
		<path class="st7" d="M80.4,110.2c-0.6,0.2-1.1,0.4-1.7,0.6C79.2,110.6,79.8,110.4,80.4,110.2z"/>
		<path class="st7" d="M113,65.1c0,0.4,0,0.8,0,1.2C113,65.9,113,65.5,113,65.1z"/>
		<path class="st7" d="M111.7,52.8c0.1,0.4,0.2,0.8,0.3,1.2C111.9,53.6,111.8,53.2,111.7,52.8z"/>
		<path class="st7" d="M75,16.3c0.4,0.1,0.7,0.2,1.1,0.3C75.7,16.4,75.4,16.3,75,16.3z"/>
		<path class="st7" d="M100.9,31.8c0.3,0.3,0.6,0.6,0.8,1C101.4,32.4,101.2,32.1,100.9,31.8z"/>
		<path class="st7" d="M113,63.7c0-0.4,0-0.7,0-1.1c0,0.4,0,0.8,0,1.2C113,63.8,113,63.7,113,63.7z"/>
		<path class="st7" d="M95.9,26.9c0.3,0.3,0.6,0.5,0.9,0.8C96.5,27.4,96.2,27.1,95.9,26.9z"/>
		<path class="st7" d="M72.6,15.8c0.4,0.1,0.8,0.1,1.1,0.2C73.3,15.9,73,15.8,72.6,15.8z"/>
		<path class="st7" d="M112.8,67.7c0,0.4-0.1,0.8-0.1,1.2C112.8,68.4,112.8,68.1,112.8,67.7z"/>
		<path class="st7" d="M70.1,15.4c0.4,0,0.8,0.1,1.2,0.2C70.9,15.5,70.5,15.4,70.1,15.4z"/>
		<path class="st7" d="M79.7,17.6c0.3,0.1,0.7,0.2,1,0.3C80.3,17.8,80,17.7,79.7,17.6z"/>
		<path class="st7" d="M67.6,15.1c0.4,0,0.8,0.1,1.2,0.1C68.4,15.2,68,15.2,67.6,15.1z"/>
		<path class="st7" d="M92.3,24c0.3,0.2,0.6,0.4,0.9,0.6C92.9,24.4,92.6,24.2,92.3,24z"/>
		<path class="st7" d="M94.2,25.4c0.3,0.2,0.6,0.5,0.9,0.7C94.7,25.8,94.4,25.6,94.2,25.4z"/>
		<path class="st7" d="M90.4,22.7c0.3,0.2,0.6,0.4,0.9,0.6C91,23.1,90.7,22.9,90.4,22.7z"/>
		<path class="st7" d="M112.6,57.6c0.1,0.4,0.1,0.8,0.1,1.2C112.7,58.4,112.6,58,112.6,57.6z"/>
		<path class="st7" d="M88.4,21.5c0.3,0.2,0.6,0.3,0.9,0.5C89,21.8,88.7,21.7,88.4,21.5z"/>
		<path class="st7" d="M112.8,60.1c0,0.4,0.1,0.8,0.1,1.2C112.9,60.9,112.9,60.5,112.8,60.1z"/>
		<path class="st7" d="M86.3,20.4c0.3,0.2,0.6,0.3,0.9,0.5C86.9,20.7,86.6,20.5,86.3,20.4z"/>
		<path class="st7" d="M81.9,18.4c0.3,0.1,0.6,0.2,1,0.4C82.6,18.7,82.3,18.5,81.9,18.4z"/>
		<path class="st7" d="M84.1,19.3c0.3,0.1,0.6,0.3,0.9,0.4C84.8,19.6,84.5,19.5,84.1,19.3z"/>
		<path class="st7" d="M77.4,16.9c0.3,0.1,0.7,0.2,1,0.3C78.1,17,77.7,17,77.4,16.9z"/>
		<path class="st7" d="M111.1,77.6c-0.1,0.3-0.1,0.5-0.2,0.8C110.9,78.1,111,77.8,111.1,77.6z"/>
		<path class="st7" d="M15.1,61.4c0-0.1,0-0.2,0-0.3C15.1,61.2,15.1,61.3,15.1,61.4z"/>
		<path class="st7" d="M99.3,30.1c0.3,0.3,0.6,0.6,0.8,0.9C99.9,30.6,99.6,30.3,99.3,30.1z"/>
		<path class="st7" d="M15.3,58.6c0-0.2,0.1-0.4,0.1-0.6C15.4,58.1,15.3,58.4,15.3,58.6z"/>
		<path class="st7" d="M111.7,75.2c-0.1,0.3-0.1,0.6-0.2,0.9C111.6,75.7,111.6,75.5,111.7,75.2z"/>
		<path class="st7" d="M15.5,71.2c-0.1-0.7-0.2-1.3-0.3-2C15.4,69.9,15.4,70.6,15.5,71.2z"/>
		<path class="st7" d="M110.3,79.9c-0.1,0.2-0.2,0.5-0.2,0.7C110.2,80.4,110.3,80.1,110.3,79.9z"/>
		<path class="st7" d="M15,64.3c0,0.7,0,1.4,0.1,2c0-0.7-0.1-1.4-0.1-2.2C15,64.2,15,64.3,15,64.3z"/>
		<path class="st7" d="M15.2,68.6c-0.1-0.6-0.1-1.2-0.1-1.8C15.1,67.4,15.2,68,15.2,68.6z"/>
		<path class="st7" d="M112.6,70.2c0,0.4-0.1,0.7-0.1,1.1C112.5,70.9,112.6,70.6,112.6,70.2z"/>
		<path class="st7" d="M15.7,55.7c0-0.2,0.1-0.4,0.1-0.6C15.8,55.4,15.7,55.6,15.7,55.7z"/>
		<path class="st7" d="M63.7,15c-0.3,0-0.5,0-0.8,0c0.3,0,0.6,0,0.9,0C63.8,15,63.7,15,63.7,15z"/>
		<path class="st7" d="M97.7,28.4c0.3,0.3,0.6,0.5,0.9,0.8C98.3,29,98,28.7,97.7,28.4z"/>
		<path class="st7" d="M65.1,15c0.4,0,0.8,0,1.3,0C65.9,15,65.5,15,65.1,15z"/>
		<path class="st7" d="M60.5,15.1c0.2,0,0.4,0,0.7-0.1C60.9,15.1,60.7,15.1,60.5,15.1z"/>
		<path class="st7" d="M16.3,52.8c0-0.1,0-0.2,0.1-0.3C16.3,52.6,16.3,52.7,16.3,52.8z"/>
		<path class="st7" d="M112.2,72.7c-0.1,0.3-0.1,0.7-0.2,1C112.1,73.4,112.2,73,112.2,72.7z"/>
		<path class="st7" d="M111.1,50.4c0.1,0.4,0.2,0.8,0.3,1.2C111.3,51.2,111.2,50.8,111.1,50.4z"/>
		<path class="st7" d="M58.2,15.4c0.1,0,0.2,0,0.3,0C58.4,15.3,58.3,15.3,58.2,15.4z"/>
		<path class="st7" d="M100.4,96.8c0.2-0.2,0.4-0.5,0.6-0.7c0.3-0.4,0.6-0.7,0.9-1.1c0.2-0.2,0.4-0.5,0.5-0.7
			c0.3-0.4,0.6-0.8,0.9-1.2c0.2-0.2,0.3-0.4,0.5-0.7c0.3-0.4,0.6-0.8,0.9-1.3c0.1-0.2,0.3-0.4,0.4-0.6c0.3-0.5,0.6-0.9,0.9-1.4
			c0.1-0.2,0.2-0.4,0.4-0.6c0.3-0.5,0.6-1,0.8-1.4c0.1-0.2,0.2-0.4,0.3-0.6c0.3-0.5,0.5-1,0.8-1.5c0.1-0.2,0.2-0.4,0.3-0.6
			c0.2-0.5,0.5-1,0.7-1.5c0.1-0.2,0.2-0.5,0.3-0.7c0.2-0.5,0.4-1,0.6-1.5c0.1-0.2,0.2-0.5,0.2-0.7c0.2-0.5,0.4-1,0.5-1.5
			c0.1-0.3,0.2-0.5,0.2-0.8c0.1-0.5,0.3-1,0.4-1.5c0.1-0.3,0.1-0.6,0.2-0.9c0.1-0.5,0.2-1,0.3-1.5c0.1-0.3,0.1-0.6,0.2-1
			c0.1-0.5,0.2-0.9,0.2-1.4c0.1-0.4,0.1-0.7,0.1-1.1c0.1-0.5,0.1-0.9,0.2-1.4c0-0.4,0.1-0.8,0.1-1.2c0-0.4,0.1-0.9,0.1-1.3
			c0-0.4,0-0.8,0-1.2c0-0.4,0-0.9,0-1.3c0-0.4,0-0.8,0-1.2c0-0.4,0-0.9,0-1.3c0-0.4-0.1-0.8-0.1-1.2c0-0.4-0.1-0.9-0.1-1.3
			c0-0.4-0.1-0.8-0.1-1.2c-0.1-0.4-0.1-0.9-0.2-1.3c-0.1-0.4-0.1-0.8-0.2-1.2c-0.1-0.4-0.1-0.8-0.2-1.2c-0.1-0.4-0.2-0.8-0.3-1.2
			c-0.1-0.4-0.2-0.8-0.3-1.2c-0.1-0.4-0.2-0.8-0.3-1.2c-0.1-0.4-0.2-0.8-0.3-1.1c-0.1-0.4-0.3-0.8-0.4-1.2c-0.1-0.4-0.2-0.7-0.4-1.1
			c-0.1-0.4-0.3-0.8-0.5-1.2c-0.1-0.3-0.3-0.7-0.4-1c-0.2-0.4-0.4-0.8-0.5-1.2c-0.1-0.3-0.3-0.7-0.4-1c-0.2-0.4-0.4-0.8-0.6-1.2
			c-0.2-0.3-0.3-0.6-0.5-0.9c-0.2-0.4-0.4-0.8-0.7-1.2c-0.2-0.3-0.3-0.6-0.5-0.9c-0.2-0.4-0.5-0.7-0.7-1.1c-0.2-0.3-0.4-0.6-0.6-0.9
			c-0.2-0.4-0.5-0.7-0.8-1.1c-0.2-0.3-0.4-0.6-0.6-0.8c-0.3-0.3-0.5-0.7-0.8-1c-0.2-0.3-0.4-0.6-0.7-0.8c-0.3-0.3-0.6-0.6-0.8-1
			c-0.2-0.3-0.5-0.6-0.7-0.8c-0.3-0.3-0.6-0.6-0.8-0.9c-0.3-0.3-0.5-0.5-0.8-0.8c-0.3-0.3-0.6-0.6-0.9-0.8c-0.3-0.3-0.6-0.5-0.8-0.8
			c-0.3-0.3-0.6-0.5-0.9-0.8c-0.3-0.3-0.6-0.5-0.9-0.8c-0.3-0.2-0.6-0.5-0.9-0.7c-0.3-0.3-0.6-0.5-1-0.8c-0.3-0.2-0.6-0.4-0.9-0.6
			c-0.3-0.2-0.7-0.5-1-0.7c-0.3-0.2-0.6-0.4-0.9-0.6c-0.4-0.2-0.7-0.5-1.1-0.7c-0.3-0.2-0.6-0.3-0.9-0.5c-0.4-0.2-0.8-0.4-1.2-0.7
			c-0.3-0.2-0.6-0.3-0.9-0.5c-0.4-0.2-0.8-0.4-1.2-0.6c-0.3-0.1-0.6-0.3-0.9-0.4c-0.4-0.2-0.8-0.4-1.2-0.6c-0.3-0.1-0.6-0.3-1-0.4
			c-0.4-0.2-0.8-0.3-1.3-0.5c-0.3-0.1-0.7-0.2-1-0.3c-0.4-0.1-0.8-0.3-1.3-0.4c-0.3-0.1-0.7-0.2-1-0.3c-0.4-0.1-0.9-0.2-1.3-0.4
			c-0.4-0.1-0.7-0.2-1.1-0.3c-0.4-0.1-0.9-0.2-1.3-0.3c-0.4-0.1-0.8-0.1-1.1-0.2c-0.4-0.1-0.8-0.2-1.3-0.2c-0.4-0.1-0.8-0.1-1.2-0.2
			c-0.4-0.1-0.8-0.1-1.3-0.2c-0.4,0-0.8-0.1-1.2-0.1c-0.4,0-0.8-0.1-1.3-0.1c-0.4,0-0.8,0-1.3,0c-0.4,0-0.8,0-1.3,0
			c-0.3,0-0.6,0-0.9,0c-0.6,0-1.2,0-1.7,0.1c-0.2,0-0.4,0-0.7,0.1c-0.7,0-1.4,0.1-2.1,0.2c-0.1,0-0.2,0-0.3,0
			C53,16,48.1,17.4,43.6,19.5c0.4,0,0.7,0.1,0.7,0.1s8.8,0.8,13-0.9c4.2-1.7,7.6,2.9,5.9,2.9c-1.7,0-3.7,5.1-2.1,5.1
			c1.7,0,2.1,2.5,4.6-0.5c2.5-3,2.1-1.7,6.7,1.2c4.6,2.9-2.9,2.9-2.9,2.9s-1.6,3.4-3.7,3.4c-2.1,0-7.1,5.5-8.3,9.3
			c-1.2,3.8-1.6,3.8-3.4,0.9c-1.7-2.9-4.2-0.8-7.1,3c-2.9,3.8,5.5,7.5,5.5,7.5l4.2,3.7c0,0,3.4-0.9,5-1.7c1.7-0.8,1.3,1.7,7.2,4.2
			c5.9,2.5,0.9,2.9,6.3,4.6c5.5,1.6,6.8,5.8,6.8,5.8l-1.7,3.4l-1.6,5c0,0-2.5,0.8-3.7,5.1c-1.2,4.2-4.2,5-6.3,7.2
			c-2.1,2.1,0.5,6.7,1.7,9.2c1.3,2.5-2.5-0.4-4.2-0.8c-1.7-0.4-2.6-5.4-3.4-7.9c-0.8-2.5,0.4-8.4,0.3-11.3c0-2.9-1.7-3.8-3.8-6.3
			c-2.1-2.5-2.1-2.9-3.4-7.5c-1.3-4.6-0.5-5.9,0.8-6.7c1.3-0.8-3.4-2.5-5.5-3.3c-2.1-0.8-4.2-2.5-7.1-4.6c-2.9-2.1-3.8-5.4-5.1-7.1
			c-1.3-1.7-1.7-9.2-1.8-11.7c0-2.5,2.9-5.5,1.6-7.6c-0.6-0.9-2.3-1.1-4.3-1.1c-9,6.7-15.6,16.5-18.3,27.7c0,0.1,0,0.2-0.1,0.3
			c-0.2,0.8-0.3,1.6-0.5,2.4c0,0.2-0.1,0.4-0.1,0.6c-0.1,0.7-0.2,1.5-0.3,2.2c0,0.2-0.1,0.4-0.1,0.6c-0.1,0.8-0.2,1.7-0.2,2.5
			c0,0.1,0,0.2,0,0.3c0,0.9-0.1,1.9-0.1,2.8c0,0.7,0,1.5,0.1,2.2c0,0.2,0,0.3,0,0.5c0,0.6,0.1,1.2,0.1,1.8c0,0.2,0,0.4,0.1,0.6
			c0.1,0.7,0.2,1.3,0.3,2c0.1,0.3,0.1,0.7,0.2,1c0.1,0.3,0.1,0.6,0.2,0.9c1.1,6,3.4,11.6,6.5,16.6c1.7,0.6,5.6,1.9,7.2,1.9
			c2.1,0,8.1-0.5,9.7,3.8c1.6,4.3,4.3,4.8,0.5,9.1c-0.5,0.5-0.9,1-1.2,1.3c5,3.1,10.7,5.3,16.7,6.3c0.2,0,0.4,0.1,0.7,0.1
			c0.4,0.1,0.8,0.1,1.2,0.2c0.4,0.1,0.9,0.1,1.3,0.2c0.3,0,0.5,0.1,0.8,0.1c0.7,0.1,1.4,0.1,2,0.2c0.2,0,0.4,0,0.7,0
			c0.6,0,1.2,0,1.8,0c0.2,0,0.3,0,0.5,0c0.5,0,0.9,0,1.4,0c0.4,0,0.8,0,1.2,0c0.5,0,1-0.1,1.5-0.1c0.3,0,0.7,0,1-0.1
			c0.5-0.1,1-0.1,1.6-0.2c0.3,0,0.6-0.1,0.9-0.1c0.5-0.1,1.1-0.2,1.6-0.3c0.3,0,0.5-0.1,0.8-0.1c0.6-0.1,1.1-0.3,1.7-0.4
			c0.2-0.1,0.4-0.1,0.7-0.2c0.6-0.1,1.1-0.3,1.7-0.5c0.2-0.1,0.4-0.1,0.6-0.2c0.6-0.2,1.1-0.4,1.7-0.6c0.2-0.1,0.4-0.1,0.6-0.2
			c0.6-0.2,1.1-0.4,1.7-0.7c0.2-0.1,0.4-0.1,0.6-0.2c0.5-0.2,1.1-0.5,1.6-0.7c0.2-0.1,0.4-0.2,0.6-0.3c0.5-0.3,1-0.5,1.5-0.8
			c0.2-0.1,0.4-0.2,0.6-0.3c0.5-0.3,1-0.5,1.4-0.8c0.2-0.1,0.4-0.2,0.6-0.4c0.4-0.3,0.9-0.6,1.3-0.8c0.2-0.1,0.5-0.3,0.7-0.4
			c0.4-0.3,0.8-0.6,1.2-0.9c0.2-0.2,0.5-0.3,0.7-0.5c0.4-0.3,0.7-0.6,1.1-0.8c0.3-0.2,0.5-0.4,0.8-0.6c0.3-0.3,0.6-0.6,1-0.8
			c0.3-0.2,0.6-0.5,0.8-0.7c0.3-0.3,0.6-0.5,0.8-0.8c0.3-0.3,0.6-0.6,0.9-0.8c0.2-0.3,0.5-0.5,0.7-0.8
			C99.8,97.4,100.1,97.1,100.4,96.8z"/>
	</g>
	<g>
		<g id="XMLID_16_">
			<g>
				<path class="st8" d="M39.3,95.4c1.6,4.3,4.3,4.8,0.5,9.2c-0.5,0.5-0.9,1-1.2,1.3c3.8,2.3,7.8,4.1,12.1,5.3
					c-16.3-4.6-29.1-17.3-33.8-33.6c1.3,4.3,3.1,8.4,5.4,12.2c1.7,0.6,5.6,1.8,7.2,1.8C31.8,91.6,37.7,91.1,39.3,95.4z"/>
				<path class="st8" d="M75.2,65.1c5.4,1.6,6.8,5.8,6.8,5.8l-1.7,3.4l-1.6,5c0,0-2.5,0.9-3.7,5.1c-1.2,4.2-4.2,5.1-6.2,7.2
					c-2.1,2.1,0.5,6.7,1.7,9.2c1.3,2.5-2.5-0.4-4.2-0.8c-1.7-0.4-2.6-5.4-3.4-7.9c-0.8-2.5,0.4-8.4,0.3-11.3c0-2.9-1.7-3.8-3.8-6.3
					c-2.1-2.5-2.1-2.9-3.4-7.5c-1.3-4.6-0.5-5.9,0.8-6.7c0.5-0.3,0-0.8-0.9-1.4l0.8-0.9l0.1,0.1c0,0,3.4-0.9,5-1.7
					c1.7-0.9,1.3,1.7,7.2,4.1C74.8,63,69.8,63.5,75.2,65.1z"/>
				<path class="st8" d="M72.4,27.4c4.6,2.9-2.9,2.9-2.9,2.9s-1.6,3.4-3.7,3.4c-2.1,0-7.1,5.5-8.3,9.3c-1.2,3.8-1.6,3.8-3.4,0.9
					c-1.7-2.9-4.2-0.8-7.1,3c-2.9,3.8,5.5,7.5,5.5,7.5l4.1,3.6l-0.8,0.9c-1.3-0.7-3.3-1.5-4.6-2c-2.1-0.8-4.2-2.5-7.1-4.6
					c-3-2.1-3.8-5.4-5.1-7.1c-1.3-1.7-1.7-9.2-1.8-11.7c0-2.5,2.9-5.5,1.6-7.6c-0.6-0.9-2.3-1.1-4.3-1.1
					c-7.6,5.7-13.4,13.5-16.7,22.5c6.2-17.1,21.6-29.8,40.3-32C53,16,48.1,17.4,43.6,19.5c0.4,0,0.7,0.1,0.7,0.1s8.8,0.8,13-0.9
					c4.2-1.7,7.6,2.9,5.9,2.9c-1.7,0-3.7,5.1-2.1,5.1c1.7,0,2.1,2.5,4.6-0.5C68.2,23.2,67.8,24.5,72.4,27.4z"/>
				<path class="st9" d="M113,63.1c0,0.2,0,0.5,0,0.7c0,0.4,0,0.9,0,1.3c0,0.4,0,0.8,0,1.2c0,0.4-0.1,0.9-0.1,1.3
					c0,0.4,0,0.8-0.1,1.2c0,0.5-0.1,0.9-0.2,1.4c0,0.4-0.1,0.7-0.1,1.1c-0.1,0.5-0.2,1-0.2,1.4c0,0.3-0.1,0.7-0.2,1
					c-0.1,0.5-0.2,1-0.3,1.5c-0.1,0.3-0.1,0.6-0.2,0.9c-0.1,0.5-0.3,1-0.4,1.5c-0.1,0.3-0.1,0.5-0.2,0.8c-0.2,0.5-0.3,1-0.5,1.5
					c-0.1,0.2-0.2,0.5-0.2,0.7c-0.2,0.5-0.4,1-0.6,1.5c-0.1,0.2-0.2,0.5-0.3,0.7c-0.2,0.5-0.5,1-0.7,1.5c-0.1,0.2-0.2,0.4-0.3,0.6
					c-0.2,0.5-0.5,1-0.8,1.5c-0.1,0.2-0.2,0.4-0.3,0.6c-0.3,0.5-0.5,1-0.8,1.4c-0.1,0.2-0.2,0.4-0.4,0.6c-0.3,0.5-0.6,0.9-0.9,1.4
					c-0.1,0.2-0.3,0.4-0.4,0.6c-0.3,0.4-0.6,0.9-0.9,1.3c-0.2,0.2-0.3,0.4-0.5,0.7c-0.3,0.4-0.6,0.8-0.9,1.2
					c-0.2,0.2-0.4,0.5-0.6,0.7c-0.3,0.4-0.6,0.7-0.9,1.1c-0.2,0.2-0.4,0.5-0.6,0.7c-0.3,0.3-0.6,0.6-0.9,1c-0.2,0.2-0.5,0.5-0.7,0.8
					c-0.3,0.3-0.6,0.6-0.9,0.8c-0.3,0.3-0.6,0.5-0.8,0.8c-0.3,0.2-0.5,0.5-0.8,0.7c-0.3,0.3-0.6,0.6-1,0.8c-0.3,0.2-0.5,0.4-0.8,0.6
					c-0.4,0.3-0.7,0.6-1.1,0.9c-0.2,0.2-0.5,0.3-0.7,0.5c-0.4,0.3-0.8,0.6-1.2,0.9c-0.2,0.2-0.4,0.3-0.7,0.4
					c-0.4,0.3-0.9,0.6-1.3,0.8c-0.2,0.1-0.4,0.2-0.6,0.4c-0.5,0.3-1,0.6-1.4,0.8c-0.2,0.1-0.4,0.2-0.6,0.3c-0.5,0.3-1,0.5-1.5,0.8
					c-0.2,0.1-0.4,0.2-0.6,0.3c-0.5,0.2-1.1,0.5-1.6,0.7c-0.2,0.1-0.4,0.1-0.6,0.2c-0.6,0.2-1.1,0.5-1.7,0.7
					c-0.2,0.1-0.4,0.1-0.6,0.2c-0.6,0.2-1.1,0.4-1.7,0.6c-0.2,0.1-0.4,0.1-0.6,0.2c-0.6,0.2-1.1,0.3-1.7,0.5
					c-0.2,0.1-0.4,0.1-0.7,0.2c-0.6,0.1-1.1,0.3-1.7,0.4c-0.2,0-0.5,0.1-0.8,0.1c-0.5,0.1-1.1,0.2-1.6,0.3c-0.3,0-0.6,0.1-0.9,0.1
					c-0.5,0.1-1,0.2-1.6,0.2c-0.3,0-0.7,0.1-1,0.1c-0.5,0-1,0.1-1.5,0.1c-0.4,0-0.8,0-1.2,0c-0.3,0-0.6,0-0.9,0c-0.2,0-0.3,0-0.5,0
					c-0.2,0-0.3,0-0.5,0c-0.6,0-1.2,0-1.8,0c-0.2,0-0.4,0-0.7,0c-0.7,0-1.4-0.1-2-0.2c-0.3,0-0.5-0.1-0.8-0.1
					c-0.4,0-0.9-0.1-1.3-0.2c-0.4-0.1-0.8-0.1-1.2-0.2c-0.2,0-0.4-0.1-0.6-0.1c-0.5-0.1-0.9-0.2-1.4-0.3c-0.2-0.1-0.5-0.1-0.7-0.2
					c-0.4-0.1-0.8-0.2-1.2-0.3c-0.3-0.1-0.7-0.2-1-0.3c-0.1,0-0.1,0-0.2,0c-4.3-1.2-8.4-3-12.1-5.3c0.3-0.4,0.8-0.8,1.2-1.3
					c3.8-4.3,1.1-4.8-0.5-9.2c-1.6-4.3-7.5-3.8-9.7-3.8c-1.7,0-5.6-1.3-7.2-1.8c-2.3-3.8-4.2-7.8-5.4-12.2c-0.1-0.4-0.2-0.7-0.3-1.1
					c-0.2-0.6-0.3-1.2-0.4-1.8c-0.1-0.5-0.2-1-0.3-1.5c-0.1-0.3-0.1-0.6-0.2-0.9c-0.1-0.3-0.1-0.7-0.2-1c-0.1-0.7-0.2-1.3-0.3-2
					c0-0.2,0-0.4-0.1-0.6c-0.1-0.6-0.1-1.2-0.1-1.8c0-0.2,0-0.3,0-0.5c0-0.6,0-1.2-0.1-1.8c0-0.1,0-0.3,0-0.4c0-0.9,0-1.9,0.1-2.8
					c0-0.1,0-0.2,0-0.3c0-0.8,0.1-1.7,0.2-2.5c0-0.2,0-0.4,0.1-0.6c0.1-0.7,0.2-1.5,0.3-2.2c0-0.2,0.1-0.4,0.1-0.6
					c0.1-0.8,0.3-1.6,0.5-2.4c0-0.1,0-0.2,0.1-0.3c0.1-0.6,0.3-1.2,0.5-1.8c0.1-0.2,0.1-0.5,0.2-0.8c0.3-0.9,0.6-1.7,0.9-2.6
					c3.3-9,9.1-16.8,16.7-22.5c2,0,3.7,0.1,4.3,1.1c1.3,2.1-1.6,5.1-1.6,7.6c0,2.5,0.5,10.1,1.8,11.7c1.3,1.7,2.1,5,5.1,7.1
					c2.9,2.1,5,3.7,7.1,4.6c1.2,0.5,3.3,1.2,4.6,2c0.9,0.5,1.4,1,0.9,1.4c-1.2,0.9-2.1,2.1-0.8,6.7c1.3,4.6,1.3,5,3.4,7.5
					c2.1,2.5,3.8,3.3,3.8,6.3c0,2.9-1.2,8.8-0.3,11.3c0.9,2.5,1.7,7.5,3.4,7.9c1.7,0.4,5.5,3.3,4.2,0.8c-1.3-2.5-3.8-7.1-1.7-9.2
					c2.1-2.1,5-3,6.2-7.2c1.2-4.2,3.7-5.1,3.7-5.1l1.6-5l1.7-3.4c0,0-1.3-4.2-6.8-5.8c-5.5-1.6-0.4-2.1-6.3-4.6
					c-5.9-2.5-5.5-5-7.2-4.1c-1.7,0.8-5,1.7-5,1.7L56.6,58l-4.1-3.6c0,0-8.4-3.7-5.5-7.5c2.9-3.8,5.4-5.9,7.1-3
					c1.7,2.9,2.1,2.9,3.4-0.9c1.2-3.8,6.2-9.3,8.3-9.3c2.1,0,3.7-3.4,3.7-3.4s7.6,0,2.9-2.9c-4.6-2.9-4.2-4.2-6.7-1.2
					c-2.5,3-2.9,0.4-4.6,0.5c-1.7,0,0.4-5.1,2.1-5.1c1.7,0-1.7-4.6-5.9-2.9c-4.2,1.7-13,0.9-13,0.9s-0.3,0-0.7-0.1
					c4.5-2.1,9.5-3.5,14.6-4.2c0.1,0,0.2,0,0.3,0c0.7-0.1,1.4-0.1,2-0.2c0.2,0,0.4,0,0.7-0.1c0.6,0,1.2-0.1,1.8-0.1
					c0.3,0,0.6,0,0.9,0c0.4,0,0.8,0,1.3,0c0.4,0,0.8,0,1.3,0c0.4,0,0.8,0.1,1.2,0.1c0.4,0,0.8,0.1,1.2,0.1c0.4,0,0.8,0.1,1.3,0.2
					c0.4,0,0.8,0.1,1.2,0.1c0.4,0.1,0.8,0.1,1.3,0.2c0.4,0.1,0.8,0.1,1.1,0.2c0.4,0.1,0.8,0.2,1.3,0.3c0.4,0.1,0.7,0.2,1.1,0.2
					c0.4,0.1,0.8,0.2,1.3,0.4c0.3,0.1,0.7,0.2,1,0.3c0.4,0.1,0.8,0.3,1.3,0.4c0.3,0.1,0.7,0.2,1,0.3c0.4,0.1,0.8,0.3,1.3,0.5
					c0.3,0.1,0.6,0.2,1,0.4c0.4,0.2,0.8,0.4,1.2,0.5c0.3,0.1,0.6,0.3,0.9,0.4c0.4,0.2,0.8,0.4,1.2,0.6c0.3,0.2,0.6,0.3,0.9,0.5
					c0.4,0.2,0.8,0.4,1.2,0.7c0.3,0.2,0.6,0.3,0.9,0.5c0.4,0.2,0.7,0.5,1.1,0.7c0.3,0.2,0.6,0.4,0.9,0.6c0.3,0.2,0.7,0.5,1,0.7
					c0.3,0.2,0.6,0.4,0.9,0.6c0.3,0.2,0.7,0.5,1,0.8c0.3,0.2,0.6,0.5,0.9,0.7c0.3,0.2,0.6,0.5,0.9,0.8c0.3,0.3,0.6,0.5,0.9,0.8
					c0.3,0.3,0.6,0.5,0.8,0.8c0.3,0.3,0.6,0.5,0.9,0.8c0.3,0.3,0.5,0.5,0.8,0.8c0.3,0.3,0.6,0.6,0.8,0.9c0.2,0.3,0.5,0.5,0.7,0.8
					c0.3,0.3,0.6,0.6,0.8,1c0.2,0.3,0.5,0.5,0.7,0.8c0.3,0.3,0.5,0.7,0.8,1c0.2,0.3,0.4,0.6,0.6,0.8c0.2,0.4,0.5,0.7,0.8,1.1
					c0.2,0.3,0.4,0.6,0.6,0.9c0.2,0.4,0.5,0.7,0.7,1.1c0.2,0.3,0.3,0.6,0.5,0.9c0.2,0.4,0.5,0.8,0.7,1.2c0.2,0.3,0.3,0.6,0.5,0.9
					c0.2,0.4,0.4,0.8,0.6,1.2c0.2,0.3,0.3,0.6,0.5,1c0.2,0.4,0.4,0.8,0.5,1.2c0.1,0.3,0.3,0.7,0.4,1c0.2,0.4,0.3,0.8,0.5,1.2
					c0.1,0.4,0.2,0.7,0.4,1.1c0.1,0.4,0.3,0.8,0.4,1.2c0.1,0.4,0.2,0.8,0.3,1.1c0.1,0.4,0.2,0.8,0.3,1.2c0.1,0.4,0.2,0.8,0.3,1.2
					c0.1,0.4,0.2,0.8,0.3,1.2c0.1,0.4,0.2,0.8,0.2,1.2c0.1,0.4,0.1,0.8,0.2,1.2c0.1,0.4,0.1,0.9,0.2,1.3c0,0.4,0.1,0.8,0.2,1.2
					c0,0.4,0.1,0.9,0.1,1.3c0,0.4,0.1,0.8,0.1,1.2c0,0.4,0,0.8,0,1.3C113,62.8,113,63,113,63.1z"/>
			</g>
			<g>
				<path class="st0" d="M58.2,15.4c-18.7,2.2-34.1,14.9-40.3,32c-0.3,0.8-0.6,1.7-0.9,2.6c-0.1,0.2-0.1,0.5-0.2,0.8"/>
				<path class="st0" d="M53.2,111.8c0.2,0.1,0.5,0.1,0.7,0.2"/>
				<path class="st0" d="M50.9,111.2c0.3,0.1,0.7,0.2,1,0.3"/>
				<path class="st0" d="M16.6,76.5c0.1,0.4,0.2,0.7,0.3,1.1c4.7,16.2,17.5,29,33.8,33.6"/>
				<path class="st0" d="M15.9,73.2c0.1,0.5,0.2,1,0.3,1.5"/>
				<path class="st0" d="M64.6,113c0.3,0,0.6,0,0.9,0"/>
				<path class="st0" d="M113,63.8c0-0.1,0-0.1,0-0.2c0-0.2,0-0.4,0-0.5"/>
				<path class="st0" d="M15,64.6c0,0.6,0,1.2,0.1,1.8"/>
				<path class="st0" d="M65.5,113c0.4,0,0.8,0,1.2,0c0.5,0,1-0.1,1.5-0.1c0.3,0,0.7,0,1-0.1c0.5-0.1,1-0.1,1.6-0.2
					c0.3,0,0.6-0.1,0.9-0.1c0.5-0.1,1.1-0.2,1.6-0.3c0.3-0.1,0.5-0.1,0.8-0.1c0.6-0.1,1.1-0.2,1.7-0.4c0.2,0,0.4-0.1,0.7-0.2
					c0.6-0.2,1.2-0.3,1.7-0.5c0.2-0.1,0.4-0.1,0.6-0.2c0.6-0.2,1.1-0.4,1.7-0.6c0.2-0.1,0.4-0.1,0.6-0.2c0.6-0.2,1.1-0.4,1.7-0.7
					c0.2-0.1,0.4-0.1,0.6-0.2c0.5-0.2,1.1-0.5,1.6-0.7c0.2-0.1,0.4-0.2,0.6-0.3c0.5-0.2,1-0.5,1.5-0.8c0.2-0.1,0.4-0.2,0.6-0.3
					c0.5-0.3,1-0.5,1.4-0.8c0.2-0.1,0.4-0.2,0.6-0.4c0.5-0.3,0.9-0.6,1.3-0.8c0.2-0.2,0.5-0.3,0.7-0.4c0.4-0.3,0.8-0.6,1.2-0.9
					c0.2-0.2,0.5-0.3,0.7-0.5c0.4-0.3,0.7-0.6,1.1-0.9c0.3-0.2,0.5-0.4,0.8-0.6c0.3-0.3,0.6-0.6,1-0.8c0.3-0.2,0.6-0.5,0.8-0.7
					c0.3-0.3,0.6-0.5,0.8-0.8c0.3-0.3,0.6-0.6,0.9-0.8c0.2-0.2,0.5-0.5,0.7-0.8c0.3-0.3,0.6-0.6,0.9-1c0.2-0.2,0.4-0.5,0.6-0.7
					c0.3-0.4,0.6-0.7,0.9-1.1c0.2-0.2,0.4-0.5,0.6-0.7c0.3-0.4,0.6-0.8,0.9-1.2c0.2-0.2,0.3-0.4,0.5-0.7c0.3-0.4,0.6-0.8,0.9-1.3
					c0.1-0.2,0.3-0.4,0.4-0.6c0.3-0.5,0.6-0.9,0.9-1.4c0.1-0.2,0.2-0.4,0.4-0.6c0.3-0.5,0.6-0.9,0.8-1.4c0.1-0.2,0.2-0.4,0.3-0.6
					c0.3-0.5,0.5-1,0.8-1.5c0.1-0.2,0.2-0.4,0.3-0.6c0.2-0.5,0.5-1,0.7-1.5c0.1-0.2,0.2-0.4,0.3-0.7c0.2-0.5,0.4-1,0.6-1.5
					c0.1-0.2,0.2-0.5,0.2-0.7c0.2-0.5,0.3-1,0.5-1.5c0.1-0.3,0.2-0.5,0.2-0.8c0.2-0.5,0.3-1,0.4-1.5c0.1-0.3,0.1-0.6,0.2-0.9
					c0.1-0.5,0.2-1,0.3-1.5c0.1-0.3,0.1-0.7,0.2-1c0.1-0.5,0.2-0.9,0.2-1.4c0.1-0.3,0.1-0.7,0.1-1.1c0.1-0.4,0.1-0.9,0.2-1.4
					c0-0.4,0.1-0.8,0.1-1.2c0-0.4,0.1-0.9,0.1-1.3c0-0.4,0-0.8,0-1.2c0-0.4,0-0.8,0-1.3c0-0.2,0-0.5,0-0.7c0-0.2,0-0.4,0-0.5
					c0-0.4,0-0.9,0-1.3c0-0.4-0.1-0.8-0.1-1.2c0-0.4-0.1-0.9-0.1-1.3c-0.1-0.4-0.1-0.8-0.2-1.2c-0.1-0.4-0.1-0.8-0.2-1.3
					c-0.1-0.4-0.1-0.8-0.2-1.2c-0.1-0.4-0.1-0.8-0.2-1.2c-0.1-0.4-0.2-0.8-0.3-1.2c-0.1-0.4-0.2-0.8-0.3-1.2
					c-0.1-0.4-0.2-0.8-0.3-1.2c-0.1-0.4-0.2-0.8-0.3-1.1c-0.1-0.4-0.3-0.8-0.4-1.2c-0.1-0.4-0.2-0.7-0.4-1.1
					c-0.2-0.4-0.3-0.8-0.5-1.2c-0.1-0.3-0.3-0.7-0.4-1c-0.2-0.4-0.4-0.8-0.5-1.2c-0.2-0.3-0.3-0.6-0.5-1c-0.2-0.4-0.4-0.8-0.6-1.2
					c-0.2-0.3-0.3-0.6-0.5-0.9c-0.2-0.4-0.4-0.8-0.7-1.2c-0.2-0.3-0.3-0.6-0.5-0.9c-0.2-0.4-0.5-0.8-0.7-1.1
					c-0.2-0.3-0.4-0.6-0.6-0.9c-0.2-0.4-0.5-0.7-0.8-1.1c-0.2-0.3-0.4-0.6-0.6-0.8c-0.2-0.3-0.5-0.7-0.8-1c-0.2-0.3-0.4-0.6-0.7-0.8
					c-0.3-0.3-0.5-0.6-0.8-1c-0.2-0.3-0.5-0.6-0.7-0.8c-0.3-0.3-0.6-0.6-0.8-0.9c-0.3-0.3-0.5-0.5-0.8-0.8c-0.3-0.3-0.6-0.5-0.9-0.8
					c-0.3-0.3-0.6-0.5-0.8-0.8c-0.3-0.3-0.6-0.5-0.9-0.8c-0.3-0.3-0.6-0.5-0.9-0.8c-0.3-0.2-0.6-0.5-0.9-0.7c-0.3-0.2-0.6-0.5-1-0.8
					c-0.3-0.2-0.6-0.4-0.9-0.6c-0.3-0.2-0.7-0.5-1-0.7c-0.3-0.2-0.6-0.4-0.9-0.6c-0.4-0.2-0.7-0.5-1.1-0.7c-0.3-0.2-0.6-0.3-0.9-0.5
					c-0.4-0.2-0.8-0.4-1.2-0.7c-0.3-0.2-0.6-0.3-0.9-0.5c-0.4-0.2-0.8-0.4-1.2-0.6c-0.3-0.1-0.6-0.3-0.9-0.4
					c-0.4-0.2-0.8-0.4-1.2-0.5c-0.3-0.1-0.6-0.2-1-0.4c-0.4-0.2-0.8-0.3-1.3-0.5c-0.3-0.1-0.7-0.2-1-0.3c-0.4-0.1-0.8-0.3-1.3-0.4
					c-0.3-0.1-0.7-0.2-1-0.3c-0.4-0.1-0.8-0.2-1.3-0.4c-0.4-0.1-0.7-0.2-1.1-0.2c-0.4-0.1-0.8-0.2-1.3-0.3c-0.4-0.1-0.8-0.1-1.1-0.2
					c-0.4-0.1-0.8-0.2-1.3-0.2c-0.4-0.1-0.8-0.1-1.2-0.1c-0.4-0.1-0.8-0.1-1.3-0.2c-0.4,0-0.8-0.1-1.2-0.1c-0.4,0-0.8-0.1-1.2-0.1
					c-0.4,0-0.8,0-1.3,0c-0.4,0-0.8,0-1.3,0c-0.3,0-0.6,0-0.9,0c-0.6,0-1.2,0-1.8,0.1c-0.2,0-0.4,0-0.7,0.1c-0.7,0-1.4,0.1-2,0.2
					c-0.1,0-0.2,0-0.3,0C53,16,48.1,17.4,43.6,19.5c0.4,0,0.7,0.1,0.7,0.1s8.8,0.8,13-0.9c4.2-1.7,7.6,2.9,5.9,2.9
					c-1.7,0-3.7,5.1-2.1,5.1c1.7,0,2.1,2.5,4.6-0.5c2.5-3,2.1-1.7,6.7,1.2c4.6,2.9-2.9,2.9-2.9,2.9s-1.6,3.4-3.7,3.4
					c-2.1,0-7.1,5.5-8.3,9.3c-1.2,3.8-1.6,3.8-3.4,0.9c-1.7-2.9-4.2-0.8-7.1,3c-2.9,3.8,5.5,7.5,5.5,7.5l4.1,3.6l0.1,0.1
					c0,0,3.4-0.9,5-1.7c1.7-0.9,1.3,1.7,7.2,4.1c5.9,2.5,0.8,2.9,6.3,4.6c5.4,1.6,6.8,5.8,6.8,5.8l-1.7,3.4l-1.6,5
					c0,0-2.5,0.9-3.7,5.1c-1.2,4.2-4.2,5.1-6.2,7.2c-2.1,2.1,0.5,6.7,1.7,9.2c1.3,2.5-2.5-0.4-4.2-0.8c-1.7-0.4-2.6-5.4-3.4-7.9
					c-0.8-2.5,0.4-8.4,0.3-11.3c0-2.9-1.7-3.8-3.8-6.3c-2.1-2.5-2.1-2.9-3.4-7.5c-1.3-4.6-0.5-5.9,0.8-6.7c0.5-0.3,0-0.8-0.9-1.4
					c-1.3-0.7-3.3-1.5-4.6-2c-2.1-0.8-4.2-2.5-7.1-4.6c-3-2.1-3.8-5.4-5.1-7.1c-1.3-1.7-1.7-9.2-1.8-11.7c0-2.5,2.9-5.5,1.6-7.6
					c-0.6-0.9-2.3-1.1-4.3-1.1c-7.6,5.7-13.4,13.5-16.7,22.5c-0.3,0.8-0.6,1.7-0.9,2.6c-0.1,0.2-0.1,0.5-0.2,0.8
					c-0.2,0.6-0.3,1.2-0.5,1.8c0,0.1,0,0.2-0.1,0.3c-0.2,0.8-0.3,1.6-0.5,2.4c0,0.2-0.1,0.4-0.1,0.6c-0.1,0.7-0.2,1.5-0.3,2.2
					c0,0.2-0.1,0.4-0.1,0.6c-0.1,0.8-0.2,1.7-0.2,2.5c0,0.1,0,0.2,0,0.3c0,0.9-0.1,1.9-0.1,2.8c0,0.1,0,0.3,0,0.4
					c0,0.6,0,1.2,0.1,1.8c0,0.2,0,0.3,0,0.5c0,0.6,0.1,1.2,0.1,1.8c0,0.2,0,0.4,0.1,0.6c0.1,0.7,0.2,1.3,0.3,2
					c0.1,0.3,0.1,0.7,0.2,1c0.1,0.3,0.1,0.6,0.2,0.9c0.1,0.5,0.2,1,0.3,1.5c0.1,0.6,0.3,1.2,0.4,1.8c0.1,0.4,0.2,0.7,0.3,1.1
					c1.3,4.3,3.1,8.4,5.4,12.2c1.7,0.6,5.6,1.8,7.2,1.8c2.1,0,8.1-0.5,9.7,3.8c1.6,4.3,4.3,4.8,0.5,9.2c-0.5,0.5-0.9,1-1.2,1.3
					c3.8,2.3,7.8,4.1,12.1,5.3c0.1,0,0.1,0,0.2,0c0.3,0.1,0.7,0.2,1,0.3c0.4,0.1,0.8,0.2,1.2,0.3c0.2,0.1,0.5,0.1,0.7,0.2
					c0.5,0.1,0.9,0.2,1.4,0.3c0.2,0,0.4,0.1,0.6,0.1c0.4,0.1,0.8,0.1,1.2,0.2c0.4,0.1,0.9,0.1,1.3,0.2c0.3,0,0.5,0.1,0.8,0.1
					c0.7,0.1,1.4,0.1,2,0.2c0.2,0,0.4,0,0.7,0c0.6,0,1.2,0,1.8,0c0.2,0,0.3,0,0.5,0c0.2,0,0.3,0,0.5,0C64.9,113,65.2,113,65.5,113z"
					/>
			</g>
		</g>
	</g>
</g>
<g id="personalize">
	<g id="raw_5_" class="st5">
	</g>
</g>
<g id="original_file_formats">
</g>
<g id="orbit_image_analysis">
</g>
<g id="open_with..._1_">
	<g id="raw_4_" class="st5">
	</g>
</g>
<g id="omero-wnd-charm">
</g>
<g id="omero.webtagging">
</g>
<g id="omero.mail_1_">
	<g id="raw_1_" class="st5">
	</g>
</g>
<g id="omero.forms">
</g>
<g id="omero.dropbox">
</g>
<g id="omero_as_public_repository">
</g>
<g id="moodle">
	<g id="logo_-_moodle">
	</g>
</g>
<g id="manage_and_organize">
</g>
<g id="manage">
	<g id="raw_9_" class="st5">
	</g>
</g>
<g id="lookup_table_1_">
	<g id="raw_2_" class="st5">
	</g>
</g>
<g id="improved_screen_plate_well_ui_1_">
	<g id="raw_3_" class="st5">
	</g>
</g>
<g id="improved_performance">
</g>
<g id="import_images">
</g>
<g id="import-for">
</g>
<g id="histogram_support">
	<g id="raw" class="st5">
	</g>
</g>
<g id="file_integrity_reports">
</g>
<g id="export_images">
</g>
<g id="export_hcs">
</g>
<g id="export_filesets">
</g>
<g id="draw_rois">
</g>
<g id="customize_clients">
</g>
<g id="command_line_interface">
	<g id="raw_11_" class="st5">
	</g>
	<g id="Live_Paint_1_">
	</g>
</g>
<g id="create_movies">
</g>
<g id="create_figures">
</g>
<g id="big_images">
</g>
<g id="attaching_analytical_results">
</g>
<g id="annotate_data">
</g>
<g id="acquisition_metadata">
</g>
</svg>
