<?xml version="1.0" encoding="utf-8"?>
<!-- Generator: Adobe Illustrator 19.2.1, SVG Export Plug-In . SVG Version: 6.00 Build 0)  -->
<svg version="1.1" xmlns="http://www.w3.org/2000/svg" xmlns:xlink="http://www.w3.org/1999/xlink" x="0px" y="0px"
	 viewBox="0 0 128 128" style="enable-background:new 0 0 128 128;" xml:space="preserve">
<style type="text/css">
	.st0{fill:none;stroke:#263238;stroke-width:2;stroke-miterlimit:10;}
	.st1{fill:#EF5350;stroke:#263238;stroke-width:2;stroke-miterlimit:10;}
	.st2{fill:#009688;stroke:#263238;stroke-width:2;stroke-miterlimit:10;}
	.st3{fill:#03A9F4;stroke:#263238;stroke-width:2;stroke-miterlimit:10;}
	.st4{fill:#CFD8DC;stroke:#263238;stroke-width:2;stroke-miterlimit:10;}
	.st5{display:none;}
	.st6{display:inline;}
	.st7{display:inline;fill:none;stroke:#263238;stroke-width:2;stroke-miterlimit:10;}
	.st8{fill:#009688;}
	.st9{fill:#03A9F4;}
	.st10{fill:#EF5350;}
	.st11{fill:#CFD8DC;}
	.st12{fill-rule:evenodd;clip-rule:evenodd;fill:none;stroke:#263238;stroke-width:2;stroke-miterlimit:10;}
	.st13{fill:#37474F;}
	
		.st14{display:inline;fill:none;stroke:#263238;stroke-width:2;stroke-linecap:round;stroke-miterlimit:10;stroke-dasharray:1.9328,3.8656;}
	.st15{fill:#263238;}
	.st16{display:inline;fill:#263238;}
	.st17{display:inline;fill:#FFFFFF;stroke:#000000;stroke-width:2;stroke-miterlimit:10;}
	.st18{display:inline;fill-rule:evenodd;clip-rule:evenodd;fill:none;stroke:#263238;stroke-width:2;stroke-miterlimit:10;}
	.st19{fill:#58595B;}
	.st20{fill:url(#SVGID_1_);}
	.st21{fill:url(#SVGID_2_);}
	.st22{fill:url(#SVGID_3_);}
	.st23{fill:none;stroke:#4A4A4C;stroke-width:0.5;}
	.st24{opacity:0.23;fill:#231F20;enable-background:new    ;}
	.st25{fill:none;stroke:#A8ABAD;stroke-width:0.5;}
	.st26{fill:none;stroke:#37474F;stroke-width:0.5;}
	.st27{fill:#6D6E70;}
	.st28{fill:#FFFFFF;}
	.st29{display:inline;fill:none;stroke:#000000;stroke-width:2;stroke-linecap:round;stroke-linejoin:round;}
	.st30{fill:none;stroke:#000000;stroke-width:2;stroke-linecap:round;stroke-linejoin:round;}
	.st31{display:inline;fill:none;}
	.st32{fill:none;}
	.st33{display:inline;fill-rule:evenodd;clip-rule:evenodd;fill:#263238;}
</style>
<g id="omero.web">
	<g class="st5">
		<path class="st7" d="M111,89H17c-1.1,0-2-0.9-2-2V17c0-1.1,0.9-2,2-2h94c1.1,0,2,0.9,2,2v70C113,88.1,112.1,89,111,89z"/>
		<polyline class="st7" points="113,26 15,26 15,30 113,30 		"/>
		<rect x="61" y="37" class="st7" width="6" height="6"/>
		<rect x="61" y="47" class="st7" width="6" height="6"/>
		<rect x="61" y="57" class="st7" width="6" height="6"/>
		<rect x="61" y="67" class="st7" width="6" height="6"/>
		<rect x="61" y="77" class="st7" width="6" height="6"/>
		<rect x="51" y="37" class="st7" width="6" height="6"/>
		<rect x="51" y="47" class="st7" width="6" height="6"/>
		<rect x="51" y="57" class="st7" width="6" height="6"/>
		<rect x="51" y="67" class="st7" width="6" height="6"/>
		<rect x="51" y="77" class="st7" width="6" height="6"/>
		<rect x="41" y="37" class="st7" width="6" height="6"/>
		<rect x="41" y="47" class="st7" width="6" height="6"/>
		<rect x="41" y="57" class="st7" width="6" height="6"/>
		<rect x="41" y="67" class="st7" width="6" height="6"/>
		<rect x="41" y="77" class="st7" width="6" height="6"/>
		<rect x="71" y="37" class="st7" width="6" height="6"/>
		<rect x="71" y="47" class="st7" width="6" height="6"/>
		<rect x="71" y="57" class="st7" width="6" height="6"/>
		<rect x="71" y="67" class="st7" width="6" height="6"/>
		<rect x="71" y="77" class="st7" width="6" height="6"/>
		<rect x="81" y="37" class="st7" width="6" height="6"/>
		<rect x="81" y="47" class="st7" width="6" height="6"/>
		<rect x="81" y="57" class="st7" width="6" height="6"/>
		<rect x="81" y="67" class="st7" width="6" height="6"/>
		<rect x="81" y="77" class="st7" width="6" height="6"/>
		<rect x="20" y="37" class="st7" width="16" height="46"/>
		<rect x="92" y="37" class="st7" width="16" height="46"/>
		<rect x="61" y="89" class="st7" width="6" height="12"/>
		<rect x="40" y="101" class="st7" width="48" height="4"/>
		<circle class="st7" cx="64" cy="20" r="2"/>
	</g>
	<g>
		<g id="XMLID_53_">
			<g>
				<rect x="71" y="77" class="st8" width="6" height="6"/>
				<rect x="41" y="77" class="st8" width="6" height="6"/>
				<rect x="61" y="67" class="st8" width="6" height="6"/>
				<rect x="81" y="57" class="st8" width="6" height="6"/>
				<rect x="51" y="57" class="st8" width="6" height="6"/>
				<rect x="71" y="47" class="st8" width="6" height="6"/>
				<rect x="41" y="47" class="st8" width="6" height="6"/>
				<rect x="61" y="37" class="st8" width="6" height="6"/>
				<rect x="61" y="77" class="st9" width="6" height="6"/>
				<rect x="81" y="67" class="st9" width="6" height="6"/>
				<rect x="51" y="67" class="st9" width="6" height="6"/>
				<rect x="71" y="57" class="st9" width="6" height="6"/>
				<rect x="41" y="57" class="st9" width="6" height="6"/>
				<rect x="61" y="47" class="st9" width="6" height="6"/>
				<rect x="81" y="37" class="st9" width="6" height="6"/>
				<rect x="51" y="37" class="st9" width="6" height="6"/>
				<rect x="51" y="77" class="st10" width="6" height="6"/>
				<rect x="41" y="67" class="st10" width="6" height="6"/>
				<rect x="81" y="47" class="st10" width="6" height="6"/>
				<rect x="81" y="77" class="st10" width="6" height="6"/>
				<rect x="71" y="67" class="st10" width="6" height="6"/>
				<rect x="61" y="57" class="st10" width="6" height="6"/>
				<rect x="51" y="47" class="st10" width="6" height="6"/>
				<rect x="71" y="37" class="st10" width="6" height="6"/>
				<rect x="41" y="37" class="st10" width="6" height="6"/>
				<polygon class="st11" points="88,101 88,105 40,105 40,101 61,101 67,101 				"/>
				<rect x="61" y="89" class="st11" width="6" height="12"/>
				<rect x="92" y="37" class="st11" width="16" height="46"/>
				<rect x="20" y="37" class="st11" width="16" height="46"/>
				<rect x="15" y="26" class="st11" width="98" height="4"/>
				<path class="st11" d="M17,15h94c1.1,0,2,0.9,2,2v9H15v-9C15,15.9,15.9,15,17,15z M64,18c-1.1,0-2,0.9-2,2s0.9,2,2,2s2-0.9,2-2
					S65.1,18,64,18z"/>
			</g>
			<g>
				<path class="st0" d="M15,26v-9c0-1.1,0.9-2,2-2h94c1.1,0,2,0.9,2,2v9v4v57c0,1.1-0.9,2-2,2H67"/>
				<path class="st0" d="M61,89H17c-1.1,0-2-0.9-2-2V30"/>
				<polyline class="st0" points="113,26 15,26 15,30 113,30 				"/>
				<rect x="61" y="37" class="st0" width="6" height="6"/>
				<rect x="61" y="47" class="st0" width="6" height="6"/>
				<rect x="61" y="57" class="st0" width="6" height="6"/>
				<rect x="61" y="67" class="st0" width="6" height="6"/>
				<rect x="61" y="77" class="st0" width="6" height="6"/>
				<rect x="51" y="37" class="st0" width="6" height="6"/>
				<rect x="51" y="47" class="st0" width="6" height="6"/>
				<rect x="51" y="57" class="st0" width="6" height="6"/>
				<rect x="51" y="67" class="st0" width="6" height="6"/>
				<rect x="51" y="77" class="st0" width="6" height="6"/>
				<rect x="41" y="37" class="st0" width="6" height="6"/>
				<rect x="41" y="47" class="st0" width="6" height="6"/>
				<rect x="41" y="57" class="st0" width="6" height="6"/>
				<rect x="41" y="67" class="st0" width="6" height="6"/>
				<rect x="41" y="77" class="st0" width="6" height="6"/>
				<rect x="71" y="37" class="st0" width="6" height="6"/>
				<rect x="71" y="47" class="st0" width="6" height="6"/>
				<rect x="71" y="57" class="st0" width="6" height="6"/>
				<rect x="71" y="67" class="st0" width="6" height="6"/>
				<rect x="71" y="77" class="st0" width="6" height="6"/>
				<rect x="81" y="37" class="st0" width="6" height="6"/>
				<rect x="81" y="47" class="st0" width="6" height="6"/>
				<rect x="81" y="57" class="st0" width="6" height="6"/>
				<rect x="81" y="67" class="st0" width="6" height="6"/>
				<rect x="81" y="77" class="st0" width="6" height="6"/>
				<rect x="20" y="37" class="st0" width="16" height="46"/>
				<rect x="92" y="37" class="st0" width="16" height="46"/>
				<polyline class="st0" points="61,101 61,89 67,89 67,101 				"/>
				<polygon class="st0" points="67,101 88,101 88,105 40,105 40,101 61,101 				"/>
				<circle class="st0" cx="64" cy="20" r="2"/>
			</g>
		</g>
	</g>
</g>
</svg>
