<?xml version="1.0" encoding="utf-8"?>
<!-- Generator: Adobe Illustrator 19.2.1, SVG Export Plug-In . SVG Version: 6.00 Build 0)  -->
<svg version="1.1" xmlns="http://www.w3.org/2000/svg" xmlns:xlink="http://www.w3.org/1999/xlink" x="0px" y="0px"
	 viewBox="0 0 128 128" style="enable-background:new 0 0 128 128;" xml:space="preserve">
<style type="text/css">
	.st0{fill:none;stroke:#263238;stroke-width:2;stroke-miterlimit:10;}
	.st1{fill:#EF5350;stroke:#263238;stroke-width:2;stroke-miterlimit:10;}
	.st2{fill:#009688;stroke:#263238;stroke-width:2;stroke-miterlimit:10;}
	.st3{fill:#03A9F4;stroke:#263238;stroke-width:2;stroke-miterlimit:10;}
	.st4{fill:#CFD8DC;stroke:#263238;stroke-width:2;stroke-miterlimit:10;}
	.st5{display:none;}
	.st6{display:inline;}
	.st7{display:inline;fill:none;stroke:#263238;stroke-width:2;stroke-miterlimit:10;}
	.st8{fill:#009688;}
	.st9{fill:#03A9F4;}
	.st10{fill:#EF5350;}
	.st11{fill:#CFD8DC;}
	.st12{fill-rule:evenodd;clip-rule:evenodd;fill:none;stroke:#263238;stroke-width:2;stroke-miterlimit:10;}
	.st13{fill:#37474F;}
	
		.st14{display:inline;fill:none;stroke:#263238;stroke-width:2;stroke-linecap:round;stroke-miterlimit:10;stroke-dasharray:1.9328,3.8656;}
	.st15{fill:#263238;}
	.st16{display:inline;fill:#263238;}
	.st17{display:inline;fill:#FFFFFF;stroke:#000000;stroke-width:2;stroke-miterlimit:10;}
	.st18{display:inline;fill-rule:evenodd;clip-rule:evenodd;fill:none;stroke:#263238;stroke-width:2;stroke-miterlimit:10;}
	.st19{fill:#58595B;}
	.st20{fill:url(#SVGID_1_);}
	.st21{fill:url(#SVGID_2_);}
	.st22{fill:url(#SVGID_3_);}
	.st23{fill:none;stroke:#4A4A4C;stroke-width:0.5;}
	.st24{opacity:0.23;fill:#231F20;enable-background:new    ;}
	.st25{fill:none;stroke:#A8ABAD;stroke-width:0.5;}
	.st26{fill:none;stroke:#37474F;stroke-width:0.5;}
	.st27{fill:#6D6E70;}
	.st28{fill:#FFFFFF;}
	.st29{display:inline;fill:none;stroke:#000000;stroke-width:2;stroke-linecap:round;stroke-linejoin:round;}
	.st30{fill:none;stroke:#000000;stroke-width:2;stroke-linecap:round;stroke-linejoin:round;}
	.st31{display:inline;fill:none;}
	.st32{fill:none;}
	.st33{display:inline;fill-rule:evenodd;clip-rule:evenodd;fill:#263238;}
</style>
<g id="create_movies">
	<g class="st5">
		<path class="st7" d="M90,54H78l8-8h12C98,46,90,54,90,54z"/>
		<path class="st7" d="M66,54H54l8-8h12C74,46,66,54,66,54z"/>
		<path class="st7" d="M42,54H30l8-8h12C50,46,42,54,42,54z"/>
		<g class="st6">
			<path class="st0" d="M79.2,42l27.3-6.7c1.1-0.3,1.7-1.3,1.5-2.4L104,17.5c-0.3-1.1-1.4-1.7-2.4-1.4L17.5,36.7
				c-1.1,0.3-1.7,1.3-1.5,2.4l0.7,2.9c0.1,0,0.1,0,0.2,0H79.2z"/>
			<path class="st0" d="M16.7,42c-1,0.1-1.7,0.9-1.7,2v67c0,1.1,0.9,2,2,2h94c1.1,0,2-0.9,2-2V44c0-1.1-0.9-2-2-2H79"/>
			<path class="st0" d="M79,42H17c-0.1,0-0.2,0-0.3,0"/>
		</g>
		<line class="st7" x1="15" y1="58" x2="114" y2="58"/>
		<path class="st7" d="M55,73.5c0.7-0.6,1.4-0.6,2,0l19.5,11.4c0.7,0.6,0.7,1.7,0,2.3L57,98.5c-0.7,0.6-1.4,0.6-2,0V73.5z"/>
	</g>
	<g id="Live_Paint_6_">
		<g id="XMLID_22_">
			<g>
				<path class="st11" d="M113,44v14H15V44c0-1,0.7-1.9,1.7-2c0,0,0.1,0,0.1,0v0c0,0,0,0,0.1,0c0.1,0,0.1,0,0.1,0h62h0.2H111
					C112.1,42,113,42.9,113,44z M90,54l8-8H86l-8,8H90z M66,54l8-8H62l-8,8H66z M42,54l8-8H38l-8,8H42z"/>
				<path class="st11" d="M107.9,32.9c0.3,1.1-0.4,2.1-1.5,2.4L79.2,42H79H17c0,0-0.1,0-0.1,0c0,0,0,0-0.1,0l-0.7-2.9
					c-0.3-1.1,0.4-2.1,1.5-2.4l84.1-20.6c1.1-0.3,2.2,0.4,2.4,1.4L107.9,32.9z"/>
				<polygon class="st8" points="98,46 90,54 78,54 86,46 				"/>
				<path class="st8" d="M76.5,84.9c0.7,0.6,0.7,1.7,0,2.3L57,98.5c-0.7,0.6-1.4,0.6-2,0V73.5c0.7-0.6,1.4-0.6,2,0L76.5,84.9z"/>
				<polygon class="st9" points="74,46 66,54 54,54 62,46 				"/>
				<polygon class="st10" points="50,46 42,54 30,54 38,46 				"/>
			</g>
			<g>
				<polygon class="st0" points="90,54 78,54 86,46 98,46 				"/>
				<polygon class="st0" points="66,54 54,54 62,46 74,46 				"/>
				<polygon class="st0" points="42,54 30,54 38,46 50,46 				"/>
				<path class="st0" d="M79.2,42l27.3-6.7c1.1-0.3,1.7-1.4,1.5-2.4L104,17.5c-0.3-1-1.4-1.7-2.4-1.4L17.5,36.7
					c-1.1,0.3-1.7,1.4-1.5,2.4l0.7,2.9v0c0,0,0,0,0.1,0"/>
				<path class="st0" d="M16.7,42c-1,0.1-1.7,1-1.7,2v14v53c0,1.1,0.9,2,2,2h94c1.1,0,2-0.9,2-2V58V44c0-1.1-0.9-2-2-2H79.2H79"/>
				<path class="st0" d="M79,42H17c0,0-0.1,0-0.1,0c0,0,0,0-0.1,0c0,0-0.1,0-0.1,0"/>
				<polyline class="st0" points="15,58 113,58 114,58 				"/>
				<path class="st0" d="M55,73.5c0.7-0.6,1.4-0.6,2,0l19.5,11.4c0.7,0.6,0.7,1.7,0,2.3L57,98.5c-0.7,0.6-1.4,0.6-2,0V73.5z"/>
			</g>
		</g>
	</g>
</g>
</svg>
