<?xml version="1.0" encoding="utf-8"?>
<!-- Generator: Adobe Illustrator 19.2.1, SVG Export Plug-In . SVG Version: 6.00 Build 0)  -->
<svg version="1.1" xmlns="http://www.w3.org/2000/svg" xmlns:xlink="http://www.w3.org/1999/xlink" x="0px" y="0px"
	 viewBox="0 0 128 128" style="enable-background:new 0 0 128 128;" xml:space="preserve">
<style type="text/css">
	.st0{fill:none;stroke:#263238;stroke-width:2;stroke-miterlimit:10;}
	.st1{fill:#EF5350;stroke:#263238;stroke-width:2;stroke-miterlimit:10;}
	.st2{fill:#009688;stroke:#263238;stroke-width:2;stroke-miterlimit:10;}
	.st3{fill:#03A9F4;stroke:#263238;stroke-width:2;stroke-miterlimit:10;}
	.st4{fill:#CFD8DC;stroke:#263238;stroke-width:2;stroke-miterlimit:10;}
	.st5{display:none;}
	.st6{display:inline;}
	.st7{display:inline;fill:none;stroke:#263238;stroke-width:2;stroke-miterlimit:10;}
	.st8{fill:#009688;}
	.st9{fill:#03A9F4;}
	.st10{fill:#EF5350;}
	.st11{fill:#CFD8DC;}
	.st12{fill-rule:evenodd;clip-rule:evenodd;fill:none;stroke:#263238;stroke-width:2;stroke-miterlimit:10;}
	.st13{fill:#37474F;}
	
		.st14{display:inline;fill:none;stroke:#263238;stroke-width:2;stroke-linecap:round;stroke-miterlimit:10;stroke-dasharray:1.9328,3.8656;}
	.st15{fill:#263238;}
	.st16{display:inline;fill:#263238;}
	.st17{display:inline;fill:#FFFFFF;stroke:#000000;stroke-width:2;stroke-miterlimit:10;}
	.st18{display:inline;fill-rule:evenodd;clip-rule:evenodd;fill:none;stroke:#263238;stroke-width:2;stroke-miterlimit:10;}
	.st19{fill:#58595B;}
	.st20{fill:url(#SVGID_1_);}
	.st21{fill:url(#SVGID_2_);}
	.st22{fill:url(#SVGID_3_);}
	.st23{fill:none;stroke:#4A4A4C;stroke-width:0.5;}
	.st24{opacity:0.23;fill:#231F20;enable-background:new    ;}
	.st25{fill:none;stroke:#A8ABAD;stroke-width:0.5;}
	.st26{fill:none;stroke:#37474F;stroke-width:0.5;}
	.st27{fill:#6D6E70;}
	.st28{fill:#FFFFFF;}
	.st29{display:inline;fill:none;stroke:#000000;stroke-width:2;stroke-linecap:round;stroke-linejoin:round;}
	.st30{fill:none;stroke:#000000;stroke-width:2;stroke-linecap:round;stroke-linejoin:round;}
	.st31{display:inline;fill:none;}
	.st32{fill:none;}
	.st33{display:inline;fill-rule:evenodd;clip-rule:evenodd;fill:#263238;}
</style>
<g id="artboards">
</g>
<g id="guides">
</g>
<g id="palette">
</g>
<g id="view-images">
</g>
<g id="using_a_public_group">
</g>
<g id="user-added_metadata">
</g>
<g id="unit-support">
	<g id="raw_10_" class="st5">
	</g>
	<g id="Live_Paint">
	</g>
</g>
<g id="supported_file_formats">
</g>
<g id="share">
</g>
<g id="searching_and_filtering">
</g>
<g id="scripting_service">
</g>
<g id="roi_folders_1_">
	<g id="raw_8_">
	</g>
</g>
<g id="reverse_intensity_rendering_1_">
	<g id="raw_7_" class="st5">
	</g>
</g>
<g id="rendering_settings">
</g>
<g id="quality_assurance_1_">
	<g id="raw_6_" class="st5">
	</g>
</g>
<g id="python_blitz_api">
</g>
<g id="public_access">
</g>
<g id="personalize">
	<g id="raw_5_" class="st5">
	</g>
</g>
<g id="original_file_formats">
</g>
<g id="orbit_image_analysis">
</g>
<g id="open_with..._1_">
	<g id="raw_4_" class="st5">
	</g>
</g>
<g id="ome-smuggler">
	<g class="st5">
		<polygon class="st7" points="72,52 72,39 84,39 64,16 44,39 56,39 56,52 		"/>
		<rect x="56" y="56" class="st7" width="16" height="4"/>
		<rect x="56" y="64" class="st7" width="16" height="4"/>
		<g id="file_5_" class="st6">
			<g>
				<path class="st0" d="M69,80H53.3c-0.7,0-1.3,0.6-1.3,1.3v29.3c0,0.7,0.6,1.3,1.3,1.3h21.3c0.7,0,1.3-0.6,1.3-1.3V87h-7V80z"/>
				<path class="st0" d="M76,87h-7v-7"/>
			</g>
			<line class="st0" x1="69.3" y1="80" x2="76" y2="86.7"/>
		</g>
		<g id="file_6_" class="st6">
			<g>
				<path class="st0" d="M105,80H89.3c-0.7,0-1.3,0.6-1.3,1.3v29.3c0,0.7,0.6,1.3,1.3,1.3h21.3c0.7,0,1.3-0.6,1.3-1.3V87h-7V80z"/>
				<path class="st0" d="M112,87h-7v-7"/>
			</g>
			<line class="st0" x1="105.3" y1="80" x2="112" y2="86.7"/>
		</g>
		<g id="file_7_" class="st6">
			<g>
				<path class="st0" d="M33,80H17.3c-0.7,0-1.3,0.6-1.3,1.3v29.3c0,0.7,0.6,1.3,1.3,1.3h21.3c0.7,0,1.3-0.6,1.3-1.3V87h-7V80z"/>
				<path class="st0" d="M40,87h-7v-7"/>
			</g>
			<line class="st0" x1="33.3" y1="80" x2="40" y2="86.7"/>
		</g>
	</g>
	<g>
		<g id="file_8_">
			<g id="XMLID_48_">
				<g>
					<path class="st9" d="M112,87v23.7c0,0.7-0.6,1.3-1.3,1.3H89.3c-0.7,0-1.3-0.6-1.3-1.3V81.3c0-0.7,0.6-1.3,1.3-1.3H105v7H112z"
						/>
					<polygon class="st9" points="64,16 84,39 72,39 72,52 56,52 56,39 44,39 					"/>
					<path class="st10" d="M76,87v23.7c0,0.7-0.6,1.3-1.3,1.3H53.3c-0.7,0-1.3-0.6-1.3-1.3V81.3c0-0.7,0.6-1.3,1.3-1.3H69v7H76z"/>
					<rect x="56" y="64" class="st8" width="16" height="4"/>
					<rect x="56" y="56" class="st10" width="16" height="4"/>
					<path class="st8" d="M40,87v23.7c0,0.7-0.6,1.3-1.3,1.3H17.3c-0.7,0-1.3-0.6-1.3-1.3V81.3c0-0.7,0.6-1.3,1.3-1.3H33v7H40z"/>
				</g>
				<g>
					<polygon class="st0" points="72,52 72,39 84,39 64,16 44,39 56,39 56,52 					"/>
					<rect x="56" y="56" class="st0" width="16" height="4"/>
					<rect x="56" y="64" class="st0" width="16" height="4"/>
					<path class="st0" d="M69,80H53.3c-0.7,0-1.3,0.6-1.3,1.3v29.3c0,0.7,0.6,1.3,1.3,1.3h21.3c0.7,0,1.3-0.6,1.3-1.3V87"/>
					<polyline class="st0" points="76,87 69,87 69,80 					"/>
					<line class="st0" x1="69" y1="80" x2="76" y2="87"/>
					<path class="st0" d="M105,80H89.3c-0.7,0-1.3,0.6-1.3,1.3v29.3c0,0.7,0.6,1.3,1.3,1.3h21.3c0.7,0,1.3-0.6,1.3-1.3V87"/>
					<polyline class="st0" points="112,87 105,87 105,80 					"/>
					<line class="st0" x1="105" y1="80" x2="112" y2="87"/>
					<path class="st0" d="M33,80H17.3c-0.7,0-1.3,0.6-1.3,1.3v29.3c0,0.7,0.6,1.3,1.3,1.3h21.3c0.7,0,1.3-0.6,1.3-1.3V87"/>
					<polyline class="st0" points="40,87 33,87 33,80 					"/>
					<line class="st0" x1="33" y1="80" x2="40" y2="87"/>
				</g>
			</g>
		</g>
	</g>
</g>
<g id="omero-wnd-charm">
</g>
<g id="omero.webtagging">
</g>
<g id="omero.mail_1_">
	<g id="raw_1_" class="st5">
	</g>
</g>
<g id="omero.forms">
</g>
<g id="omero.dropbox">
</g>
<g id="omero_as_public_repository">
</g>
<g id="moodle">
	<g id="logo_-_moodle">
	</g>
</g>
<g id="manage_and_organize">
</g>
<g id="manage">
	<g id="raw_9_" class="st5">
	</g>
</g>
<g id="lookup_table_1_">
	<g id="raw_2_" class="st5">
	</g>
</g>
<g id="improved_screen_plate_well_ui_1_">
	<g id="raw_3_" class="st5">
	</g>
</g>
<g id="improved_performance">
</g>
<g id="import_images">
</g>
<g id="import-for">
</g>
<g id="histogram_support">
	<g id="raw" class="st5">
	</g>
</g>
<g id="github">
</g>
<g id="file_integrity_reports">
</g>
<g id="export_images">
</g>
<g id="export_hcs">
</g>
<g id="export_filesets">
</g>
<g id="draw_rois">
</g>
<g id="customize_clients">
</g>
<g id="command_line_interface">
	<g id="raw_11_" class="st5">
	</g>
	<g id="Live_Paint_1_">
	</g>
</g>
<g id="create_movies">
</g>
<g id="create_figures">
</g>
<g id="big_images">
</g>
<g id="attaching_analytical_results">
</g>
<g id="annotate_data">
</g>
<g id="acquisition_metadata">
</g>
</svg>
