<?xml version="1.0" encoding="utf-8"?>
<!-- Generator: Adobe Illustrator 19.2.1, SVG Export Plug-In . SVG Version: 6.00 Build 0)  -->
<svg version="1.1" xmlns="http://www.w3.org/2000/svg" xmlns:xlink="http://www.w3.org/1999/xlink" x="0px" y="0px"
	 viewBox="0 0 128 128" style="enable-background:new 0 0 128 128;" xml:space="preserve">
<style type="text/css">
	.st0{fill:none;stroke:#263238;stroke-width:2;stroke-miterlimit:10;}
	.st1{fill:#EF5350;stroke:#263238;stroke-width:2;stroke-miterlimit:10;}
	.st2{fill:#009688;stroke:#263238;stroke-width:2;stroke-miterlimit:10;}
	.st3{fill:#03A9F4;stroke:#263238;stroke-width:2;stroke-miterlimit:10;}
	.st4{fill:#CFD8DC;stroke:#263238;stroke-width:2;stroke-miterlimit:10;}
	.st5{display:none;}
	.st6{display:inline;}
	.st7{display:inline;fill:none;stroke:#263238;stroke-width:2;stroke-miterlimit:10;}
	.st8{fill:#009688;}
	.st9{fill:#03A9F4;}
	.st10{fill:#EF5350;}
	.st11{fill:#CFD8DC;}
	.st12{fill-rule:evenodd;clip-rule:evenodd;fill:none;stroke:#263238;stroke-width:2;stroke-miterlimit:10;}
	.st13{fill:#37474F;}
	
		.st14{display:inline;fill:none;stroke:#263238;stroke-width:2;stroke-linecap:round;stroke-miterlimit:10;stroke-dasharray:1.9328,3.8656;}
	.st15{fill:#263238;}
	.st16{display:inline;fill:#263238;}
	.st17{display:inline;fill:#FFFFFF;stroke:#000000;stroke-width:2;stroke-miterlimit:10;}
	.st18{display:inline;fill-rule:evenodd;clip-rule:evenodd;fill:none;stroke:#263238;stroke-width:2;stroke-miterlimit:10;}
	.st19{fill:#58595B;}
	.st20{fill:url(#SVGID_1_);}
	.st21{fill:url(#SVGID_2_);}
	.st22{fill:url(#SVGID_3_);}
	.st23{fill:none;stroke:#4A4A4C;stroke-width:0.5;}
	.st24{opacity:0.23;fill:#231F20;enable-background:new    ;}
	.st25{fill:none;stroke:#A8ABAD;stroke-width:0.5;}
	.st26{fill:none;stroke:#37474F;stroke-width:0.5;}
	.st27{fill:#6D6E70;}
	.st28{fill:#FFFFFF;}
	.st29{display:inline;fill:none;stroke:#000000;stroke-width:2;stroke-linecap:round;stroke-linejoin:round;}
	.st30{fill:none;stroke:#000000;stroke-width:2;stroke-linecap:round;stroke-linejoin:round;}
	.st31{display:inline;fill:none;}
	.st32{fill:none;}
	.st33{display:inline;fill-rule:evenodd;clip-rule:evenodd;fill:#263238;}
</style>
<g id="export_images">
	<g id="raw_12_" class="st5">
		<polygon class="st7" points="20,66 20,30 56,30 56,41 61,41 61,25 15,25 15,71 41,71 41,66 		"/>
		<polygon class="st7" points="56,41 56,30 20,30 20,66 41,66 41,41 		"/>
		<polygon class="st7" points="72,20 108,20 108,56 87,56 87,61 113,61 113,15 67,15 67,41 72,41 		"/>
		<polygon class="st7" points="87,56 108,56 108,20 72,20 72,41 87,41 		"/>
		<path class="st7" d="M64.9,87c-0.4,0.7-0.7,1.5-0.9,2.3c-0.5,2.1-0.9,4.2-0.9,6.3c-0.1,2.3,0.2,4.7,0.9,6.9c0.8,2.7,1.9,5.4,3.1,8
			c0.2,0.4,0.4,0.8,0.7,1.2c0.2,0.3,0.6,0.4,0.9,0.2c0.3-0.1,0.5-0.4,0.6-0.7c0-0.2,0-0.3,0-0.5c-0.1-0.7-0.1-1.4-0.2-2.2
			c-0.2-3.1-0.1-6.2,1-9.2c1.1-3.3,3.3-5.4,6.4-6.8c2.5-1,5.1-1.5,7.8-1.5c3.5-0.2,7.1-0.1,10.6-0.1c0.1,0,0.2,0,0.3,0
			c0,0-0.1,0.2-0.1,0.4c0,2.1,0,4.2,0,6.3c0,0.8,0.4,1.5,1.1,1.8c0.7,0.3,1.6,0.2,2.1-0.4l1.7-1.7l5.5-5.4c1.8-1.8,3.7-3.6,5.5-5.4
			c0.7-0.7,1.5-1.3,2-2.2v0v-0.8c-0.3-0.5-0.7-0.9-1.1-1.4c-3.1-3.1-6.2-6.2-9.4-9.2c-1.5-1.4-2.9-2.9-4.4-4.3
			c-0.1-0.1-0.2-0.2-0.2-0.2c-0.8-0.6-1.9-0.4-2.5,0.4C95.2,69.1,95,69.5,95,70c0,2.1,0,4.2,0,6.3c0,0.2,0,0.7,0,0.7h-0.4
			c-2.5,0-5.1-0.1-7.6-0.1c-0.5,0-1,0-1.5,0c-1.2,0-2.4,0.1-3.5,0.3c-1.4,0.2-2.7,0.4-4.1,0.7c-2.1,0.5-4.2,1.2-6.2,2.2
			c-1,0.5-2,1.2-2.8,1.9c-0.5,0.4-0.9,0.8-1.3,1.2C66.5,84.3,65.6,85.6,64.9,87"/>
		<polyline class="st7" points="56,46 46,46 46,66 46,71 46,66 46,46 56,46 61,46 56,46 		"/>
		<path class="st7" d="M82,56V46H72h-5h-6h6h5h10V56v5v16.2c1.2-0.1,2.3-0.2,3.5-0.3c0.5,0,1,0,1.5,0V61v-5V41H72h-5h-6h-5H41v25v5
			v16h23.9c0.7-1.4,1.6-2.7,2.7-3.8c0.4-0.4,0.9-0.8,1.3-1.2H46V71v11h22.9c0.9-0.7,1.8-1.3,2.8-1.9c1.9-1,4-1.8,6.2-2.2
			c1.4-0.3,2.7-0.6,4.1-0.7V61V56"/>
	</g>
	<g id="Live_Paint_2_">
		<g id="XMLID_13_">
			<g>
				<polygon class="st10" points="56,30 56,41 41,41 41,66 20,66 20,30 				"/>
				<polygon class="st9" points="108,20 108,56 87,56 87,41 72,41 72,20 				"/>
				<path class="st8" d="M69.2,110.8c0,0.2,0,0.3,0,0.5c0,0.3-0.3,0.6-0.6,0.7c-0.3,0.1-0.7,0.1-0.9-0.2c-0.3-0.4-0.5-0.8-0.7-1.2
					c-1.2-2.6-2.3-5.3-3.1-8c-0.7-2.2-1-4.6-0.9-6.9c0.1-2.1,0.4-4.2,0.9-6.3c0.2-0.8,0.6-1.6,0.9-2.3c0.7-1.4,1.6-2.7,2.7-3.8
					c0.4-0.4,0.9-0.8,1.3-1.2c0.9-0.7,1.8-1.3,2.9-1.9c1.9-1,4-1.8,6.2-2.2c1.3-0.3,2.7-0.6,4.1-0.7c1.2-0.1,2.3-0.2,3.5-0.3
					c0.5,0,1,0,1.5,0c2.5-0.1,5.1,0.1,7.6,0.1H95c0,0,0-0.6,0-0.8c0-2.1,0-4.2,0-6.3c0-0.4,0.2-0.9,0.4-1.2c0.6-0.8,1.8-0.9,2.5-0.4
					c0.1,0.1,0.2,0.1,0.2,0.2c1.5,1.4,2.9,2.9,4.4,4.3c3.1,3.1,6.2,6.1,9.4,9.2c0.4,0.4,0.7,0.9,1.1,1.4v0.8v0
					c-0.4,0.9-1.3,1.5-2,2.2c-1.8,1.8-3.7,3.6-5.5,5.4l-5.5,5.4l-1.7,1.7c-0.5,0.6-1.4,0.8-2.2,0.4c-0.7-0.3-1.1-1-1.1-1.8
					c0-2.1,0-4.2,0-6.3c0-0.2,0.2-0.4,0.1-0.4c-0.1,0-0.2,0-0.3,0c-3.5,0-7.1-0.1-10.6,0.1c-2.7,0.1-5.3,0.5-7.8,1.5
					c-3.1,1.3-5.3,3.5-6.4,6.8c-1,3-1.1,6.1-0.9,9.2C69.1,109.3,69.2,110,69.2,110.8z"/>
				<path class="st11" d="M82,61v16.2c-1.4,0.2-2.8,0.4-4.1,0.7c-2.2,0.5-4.2,1.2-6.2,2.2c-1,0.5-2,1.2-2.9,1.9H46V71v-5V46h10h5h6
					h5h10v10V61z"/>
			</g>
			<g>
				<polyline class="st0" points="61,41 61,25 15,25 15,71 41,71 				"/>
				<polyline class="st0" points="56,41 56,30 20,30 20,66 41,66 				"/>
				<polyline class="st0" points="87,61 113,61 113,15 67,15 67,41 				"/>
				<polyline class="st0" points="87,56 108,56 108,20 72,20 72,41 				"/>
				<path class="st0" d="M64.9,87c-0.4,0.8-0.7,1.5-0.9,2.3c-0.5,2.1-0.9,4.2-0.9,6.3c-0.1,2.3,0.2,4.7,0.9,6.9
					c0.8,2.7,1.9,5.4,3.1,8c0.2,0.4,0.4,0.8,0.7,1.2c0.2,0.3,0.6,0.3,0.9,0.2c0.3-0.1,0.6-0.4,0.6-0.7c0-0.2,0-0.3,0-0.5
					c0-0.7-0.1-1.4-0.2-2.2c-0.2-3.1-0.1-6.2,0.9-9.2c1.1-3.3,3.3-5.4,6.4-6.8c2.5-1,5.1-1.5,7.8-1.5c3.5-0.2,7.1-0.1,10.6-0.1
					c0.1,0,0.2,0,0.3,0c0,0-0.1,0.2-0.1,0.4c0,2.1,0,4.2,0,6.3c0,0.8,0.4,1.5,1.1,1.8c0.7,0.3,1.6,0.2,2.2-0.4l1.7-1.7l5.5-5.4
					c1.8-1.8,3.7-3.6,5.5-5.4c0.7-0.7,1.5-1.3,2-2.2v0v-0.8c-0.3-0.5-0.7-0.9-1.1-1.4c-3.1-3.1-6.2-6.2-9.4-9.2
					c-1.5-1.4-2.9-2.9-4.4-4.3c-0.1-0.1-0.2-0.1-0.2-0.2c-0.8-0.6-1.9-0.4-2.5,0.4c-0.3,0.4-0.4,0.8-0.4,1.2c0,2.1,0,4.2,0,6.3
					c0,0.2,0,0.8,0,0.8h-0.4c-2.5,0-5.1-0.2-7.6-0.1"/>
				<path class="st0" d="M68.9,82c0.9-0.7,1.8-1.3,2.9-1.9c1.9-1,4-1.8,6.2-2.2c1.3-0.3,2.7-0.6,4.1-0.7"/>
				<path class="st0" d="M82,77.2c1.2-0.1,2.3-0.2,3.5-0.3c0.5,0,1,0,1.5,0V61v-5V41H72h-5h-6h-5H41v25v5v16h23.9
					c0.7-1.4,1.6-2.7,2.7-3.8c0.4-0.4,0.9-0.8,1.3-1.2H46V71v-5V46h10"/>
				<polyline class="st0" points="82,77.2 82,61 82,56 				"/>
				<polyline class="st0" points="56,46 61,46 67,46 72,46 82,46 82,56 				"/>
			</g>
		</g>
	</g>
</g>
</svg>
