<?xml version="1.0" encoding="utf-8"?>
<!-- Generator: Adobe Illustrator 19.2.1, SVG Export Plug-In . SVG Version: 6.00 Build 0)  -->
<svg version="1.1" xmlns="http://www.w3.org/2000/svg" xmlns:xlink="http://www.w3.org/1999/xlink" x="0px" y="0px"
	 viewBox="0 0 128 128" style="enable-background:new 0 0 128 128;" xml:space="preserve">
<style type="text/css">
	.st0{fill:none;stroke:#263238;stroke-width:2;stroke-miterlimit:10;}
	.st1{fill:#EF5350;stroke:#263238;stroke-width:2;stroke-miterlimit:10;}
	.st2{fill:#009688;stroke:#263238;stroke-width:2;stroke-miterlimit:10;}
	.st3{fill:#03A9F4;stroke:#263238;stroke-width:2;stroke-miterlimit:10;}
	.st4{fill:#CFD8DC;stroke:#263238;stroke-width:2;stroke-miterlimit:10;}
	.st5{display:none;}
	.st6{display:inline;}
	.st7{display:inline;fill:none;stroke:#263238;stroke-width:2;stroke-miterlimit:10;}
	.st8{fill:#009688;}
	.st9{fill:#03A9F4;}
	.st10{fill:#EF5350;}
	.st11{fill:#CFD8DC;}
	.st12{fill-rule:evenodd;clip-rule:evenodd;fill:none;stroke:#263238;stroke-width:2;stroke-miterlimit:10;}
	.st13{fill:#37474F;}
	
		.st14{display:inline;fill:none;stroke:#263238;stroke-width:2;stroke-linecap:round;stroke-miterlimit:10;stroke-dasharray:1.9328,3.8656;}
	.st15{fill:#263238;}
	.st16{display:inline;fill:#263238;}
	.st17{display:inline;fill:#FFFFFF;stroke:#000000;stroke-width:2;stroke-miterlimit:10;}
	.st18{display:inline;fill-rule:evenodd;clip-rule:evenodd;fill:none;stroke:#263238;stroke-width:2;stroke-miterlimit:10;}
	.st19{fill:#58595B;}
	.st20{fill:url(#SVGID_1_);}
	.st21{fill:url(#SVGID_2_);}
	.st22{fill:url(#SVGID_3_);}
	.st23{fill:none;stroke:#4A4A4C;stroke-width:0.5;}
	.st24{opacity:0.23;fill:#231F20;enable-background:new    ;}
	.st25{fill:none;stroke:#A8ABAD;stroke-width:0.5;}
	.st26{fill:none;stroke:#37474F;stroke-width:0.5;}
	.st27{fill:#6D6E70;}
	.st28{fill:#FFFFFF;}
	.st29{display:inline;fill:none;stroke:#000000;stroke-width:2;stroke-linecap:round;stroke-linejoin:round;}
	.st30{fill:none;stroke:#000000;stroke-width:2;stroke-linecap:round;stroke-linejoin:round;}
	.st31{display:inline;fill:none;}
	.st32{fill:none;}
	.st33{display:inline;fill-rule:evenodd;clip-rule:evenodd;fill:#263238;}
</style>
<g id="reverse_intensity_rendering_1_">
	<g id="raw_7_" class="st5">
		<g class="st6">
			<polygon class="st0" points="21,75 21,21 75,21 75,48 80,48 80,16 16,16 16,80 48,80 48,75 			"/>
			<polyline class="st0" points="48,80 48,112 112,112 112,48 80,48 			"/>
			<polyline class="st0" points="75,48 48,48 48,75 			"/>
			<rect x="53" y="53" class="st0" width="54" height="54"/>
		</g>
	</g>
	<g>
		<g id="XMLID_5_">
			<g>
				<path class="st11" d="M112,48v64H48V80v-5V48h27h5H112z M107,107V53H53v54H107z"/>
				<polygon class="st11" points="75,21 75,48 48,48 48,75 21,75 21,21 				"/>
				<rect x="53" y="53" class="st9" width="54" height="54"/>
				<polygon class="st9" points="80,16 80,48 75,48 75,21 21,21 21,75 48,75 48,80 16,80 16,16 				"/>
			</g>
			<g>
				<polygon class="st0" points="48,75 21,75 21,21 75,21 75,48 80,48 80,16 16,16 16,80 48,80 				"/>
				<polyline class="st0" points="48,80 48,112 112,112 112,48 80,48 				"/>
				<polyline class="st0" points="75,48 48,48 48,75 				"/>
				<rect x="53" y="53" class="st0" width="54" height="54"/>
			</g>
		</g>
	</g>
</g>
</svg>
