<?xml version="1.0" encoding="utf-8"?>
<!-- Generator: Adobe Illustrator 19.2.1, SVG Export Plug-In . SVG Version: 6.00 Build 0)  -->
<svg version="1.1" xmlns="http://www.w3.org/2000/svg" xmlns:xlink="http://www.w3.org/1999/xlink" x="0px" y="0px"
	 viewBox="0 0 128 128" style="enable-background:new 0 0 128 128;" xml:space="preserve">
<style type="text/css">
	.st0{fill:none;stroke:#263238;stroke-width:2;stroke-miterlimit:10;}
	.st1{fill:#EF5350;stroke:#263238;stroke-width:2;stroke-miterlimit:10;}
	.st2{fill:#009688;stroke:#263238;stroke-width:2;stroke-miterlimit:10;}
	.st3{fill:#03A9F4;stroke:#263238;stroke-width:2;stroke-miterlimit:10;}
	.st4{fill:#CFD8DC;stroke:#263238;stroke-width:2;stroke-miterlimit:10;}
	.st5{display:none;}
	.st6{display:inline;}
	.st7{display:inline;fill:none;stroke:#263238;stroke-width:2;stroke-miterlimit:10;}
	.st8{fill:#009688;}
	.st9{fill:#03A9F4;}
	.st10{fill:#EF5350;}
	.st11{fill:#CFD8DC;}
	.st12{fill-rule:evenodd;clip-rule:evenodd;fill:none;stroke:#263238;stroke-width:2;stroke-miterlimit:10;}
	.st13{fill:#37474F;}
	
		.st14{display:inline;fill:none;stroke:#263238;stroke-width:2;stroke-linecap:round;stroke-miterlimit:10;stroke-dasharray:1.9328,3.8656;}
	.st15{fill:#263238;}
	.st16{display:inline;fill:#263238;}
	.st17{display:inline;fill:#FFFFFF;stroke:#000000;stroke-width:2;stroke-miterlimit:10;}
	.st18{display:inline;fill-rule:evenodd;clip-rule:evenodd;fill:none;stroke:#263238;stroke-width:2;stroke-miterlimit:10;}
	.st19{fill:#58595B;}
	.st20{fill:url(#SVGID_1_);}
	.st21{fill:url(#SVGID_2_);}
	.st22{fill:url(#SVGID_3_);}
	.st23{fill:none;stroke:#4A4A4C;stroke-width:0.5;}
	.st24{opacity:0.23;fill:#231F20;enable-background:new    ;}
	.st25{fill:none;stroke:#A8ABAD;stroke-width:0.5;}
	.st26{fill:none;stroke:#37474F;stroke-width:0.5;}
	.st27{fill:#6D6E70;}
	.st28{fill:#FFFFFF;}
	.st29{display:inline;fill:none;stroke:#000000;stroke-width:2;stroke-linecap:round;stroke-linejoin:round;}
	.st30{fill:none;stroke:#000000;stroke-width:2;stroke-linecap:round;stroke-linejoin:round;}
	.st31{display:inline;fill:none;}
	.st32{fill:none;}
	.st33{display:inline;fill-rule:evenodd;clip-rule:evenodd;fill:#263238;}
</style>
<g id="artboards">
</g>
<g id="guides">
</g>
<g id="palette">
</g>
<g id="view-images">
</g>
<g id="using_a_public_group">
</g>
<g id="user-added_metadata">
</g>
<g id="unit-support">
	<g id="raw_10_" class="st5">
	</g>
	<g id="Live_Paint">
	</g>
</g>
<g id="supported_file_formats">
</g>
<g id="share">
</g>
<g id="searching_and_filtering">
</g>
<g id="scripting_service">
</g>
<g id="roi_folders_1_">
	<g id="raw_8_">
	</g>
</g>
<g id="reverse_intensity_rendering_1_">
	<g id="raw_7_" class="st5">
	</g>
</g>
<g id="rendering_settings">
</g>
<g id="quality_assurance_1_">
	<g id="raw_6_" class="st5">
	</g>
</g>
<g id="python_blitz_api">
</g>
<g id="public_access">
</g>
<g id="personalize">
	<g id="raw_5_" class="st5">
	</g>
</g>
<g id="original_file_formats">
</g>
<g id="orbit_image_analysis">
</g>
<g id="open_with..._1_">
	<g id="raw_4_" class="st5">
	</g>
</g>
<g id="omero-wnd-charm">
</g>
<g id="omero.webtagging">
</g>
<g id="omero.mail_1_">
	<g id="raw_1_" class="st5">
	</g>
</g>
<g id="omero.forms">
</g>
<g id="omero.dropbox">
</g>
<g id="omero_as_public_repository">
</g>
<g id="moodle">
	<g id="logo_-_moodle">
	</g>
</g>
<g id="manage_and_organize">
</g>
<g id="manage">
	<g id="raw_9_" class="st5">
	</g>
</g>
<g id="lookup_table_1_">
	<g id="raw_2_" class="st5">
	</g>
</g>
<g id="improved_screen_plate_well_ui_1_">
	<g id="raw_3_" class="st5">
	</g>
</g>
<g id="improved_performance">
</g>
<g id="import_images">
</g>
<g id="import-for">
</g>
<g id="histogram_support">
	<g id="raw" class="st5">
	</g>
</g>
<g id="file_integrity_reports">
	<g class="st5">
		<path class="st7" d="M29,111V17c0-1.1,0.9-2,2-2h66c1.1,0,2,0.9,2,2v94c0,1.1-0.9,2-2,2H31C29.9,113,29,112.1,29,111z"/>
		<rect x="35" y="20" class="st7" width="58" height="5"/>
		<rect x="35" y="85" class="st7" width="22" height="22"/>
		<line class="st7" x1="66" y1="92" x2="90" y2="92"/>
		<line class="st7" x1="66" y1="96" x2="90" y2="96"/>
		<line class="st7" x1="66" y1="100" x2="90" y2="100"/>
		<g class="st6">
			<polygon class="st0" points="44,101.4 38,95.9 40.8,93.2 44,96.1 51.2,89.4 54,92.1 			"/>
		</g>
		<rect x="35" y="57" class="st7" width="22" height="22"/>
		<line class="st7" x1="66" y1="64" x2="90" y2="64"/>
		<line class="st7" x1="66" y1="68" x2="90" y2="68"/>
		<line class="st7" x1="66" y1="72" x2="90" y2="72"/>
		<g class="st6">
			<polygon class="st0" points="44,73.4 38,67.9 40.8,65.2 44,68.1 51.2,61.4 54,64.1 			"/>
		</g>
		<rect x="35" y="29" class="st7" width="22" height="22"/>
		<line class="st7" x1="66" y1="36" x2="90" y2="36"/>
		<line class="st7" x1="66" y1="40" x2="90" y2="40"/>
		<line class="st7" x1="66" y1="44" x2="90" y2="44"/>
		<g class="st6">
			<polygon class="st0" points="44,45.4 38,39.9 40.8,37.2 44,40.1 51.2,33.4 54,36.1 			"/>
		</g>
	</g>
	<g id="Live_Paint_18_">
		<g>
			<g id="XMLID_47_">
				<g>
					<polygon class="st10" points="54,92.1 44,101.4 38,95.9 40.8,93.2 44,96.1 51.2,89.4 					"/>
					<polygon class="st9" points="54,64.1 44,73.4 38,67.9 40.8,65.2 44,68.1 51.2,61.4 					"/>
					<polygon class="st8" points="54,36.1 44,45.4 38,39.9 40.8,37.2 44,40.1 51.2,33.4 					"/>
					<rect x="35" y="20" class="st11" width="58" height="5"/>
				</g>
				<g>
					<path class="st0" d="M29,111V17c0-1.1,0.9-2,2-2h66c1.1,0,2,0.9,2,2v94c0,1.1-0.9,2-2,2H31C29.9,113,29,112.1,29,111z"/>
					<rect x="35" y="20" class="st0" width="58" height="5"/>
					<polygon class="st0" points="57,92.1 57,107 35,107 35,95.9 35,85 57,85 					"/>
					<line class="st0" x1="66" y1="92" x2="90" y2="92"/>
					<line class="st0" x1="66" y1="96" x2="90" y2="96"/>
					<line class="st0" x1="66" y1="100" x2="90" y2="100"/>
					<polygon class="st0" points="54,92.1 44,101.4 38,95.9 40.8,93.2 44,96.1 51.2,89.4 					"/>
					<polygon class="st0" points="57,64.1 57,79 35,79 35,67.9 35,57 57,57 					"/>
					<line class="st0" x1="66" y1="64" x2="90" y2="64"/>
					<line class="st0" x1="66" y1="68" x2="90" y2="68"/>
					<line class="st0" x1="66" y1="72" x2="90" y2="72"/>
					<polygon class="st0" points="54,64.1 44,73.4 38,67.9 40.8,65.2 44,68.1 51.2,61.4 					"/>
					<polygon class="st0" points="57,36.1 57,51 35,51 35,39.9 35,29 57,29 					"/>
					<line class="st0" x1="66" y1="36" x2="90" y2="36"/>
					<line class="st0" x1="66" y1="40" x2="90" y2="40"/>
					<line class="st0" x1="66" y1="44" x2="90" y2="44"/>
					<polygon class="st0" points="54,36.1 44,45.4 38,39.9 40.8,37.2 44,40.1 51.2,33.4 					"/>
				</g>
			</g>
		</g>
	</g>
</g>
<g id="export_images">
</g>
<g id="export_hcs">
</g>
<g id="export_filesets">
</g>
<g id="draw_rois">
</g>
<g id="customize_clients">
</g>
<g id="command_line_interface">
	<g id="raw_11_" class="st5">
	</g>
	<g id="Live_Paint_1_">
	</g>
</g>
<g id="create_movies">
</g>
<g id="create_figures">
</g>
<g id="big_images">
</g>
<g id="attaching_analytical_results">
</g>
<g id="annotate_data">
</g>
<g id="acquisition_metadata">
</g>
</svg>
