<?xml version="1.0" encoding="utf-8"?>
<!-- Generator: Adobe Illustrator 19.2.1, SVG Export Plug-In . SVG Version: 6.00 Build 0)  -->
<svg version="1.1" xmlns="http://www.w3.org/2000/svg" xmlns:xlink="http://www.w3.org/1999/xlink" x="0px" y="0px"
	 viewBox="0 0 128 128" style="enable-background:new 0 0 128 128;" xml:space="preserve">
<style type="text/css">
	.st0{fill:none;stroke:#263238;stroke-width:2;stroke-miterlimit:10;}
	.st1{fill:#EF5350;stroke:#263238;stroke-width:2;stroke-miterlimit:10;}
	.st2{fill:#009688;stroke:#263238;stroke-width:2;stroke-miterlimit:10;}
	.st3{fill:#03A9F4;stroke:#263238;stroke-width:2;stroke-miterlimit:10;}
	.st4{fill:#CFD8DC;stroke:#263238;stroke-width:2;stroke-miterlimit:10;}
	.st5{display:none;}
	.st6{display:inline;}
	.st7{display:inline;fill:none;stroke:#263238;stroke-width:2;stroke-miterlimit:10;}
	.st8{fill:#009688;}
	.st9{fill:#03A9F4;}
	.st10{fill:#EF5350;}
	.st11{fill:#CFD8DC;}
	.st12{fill-rule:evenodd;clip-rule:evenodd;fill:none;stroke:#263238;stroke-width:2;stroke-miterlimit:10;}
	.st13{fill:#37474F;}
	
		.st14{display:inline;fill:none;stroke:#263238;stroke-width:2;stroke-linecap:round;stroke-miterlimit:10;stroke-dasharray:1.9328,3.8656;}
	.st15{fill:#263238;}
	.st16{display:inline;fill:#263238;}
	.st17{display:inline;fill:#FFFFFF;stroke:#000000;stroke-width:2;stroke-miterlimit:10;}
	.st18{display:inline;fill-rule:evenodd;clip-rule:evenodd;fill:none;stroke:#263238;stroke-width:2;stroke-miterlimit:10;}
	.st19{fill:#58595B;}
	.st20{fill:url(#SVGID_1_);}
	.st21{fill:url(#SVGID_2_);}
	.st22{fill:url(#SVGID_3_);}
	.st23{fill:none;stroke:#4A4A4C;stroke-width:0.5;}
	.st24{opacity:0.23;fill:#231F20;enable-background:new    ;}
	.st25{fill:none;stroke:#A8ABAD;stroke-width:0.5;}
	.st26{fill:none;stroke:#37474F;stroke-width:0.5;}
	.st27{fill:#6D6E70;}
	.st28{fill:#FFFFFF;}
	.st29{display:inline;fill:none;stroke:#000000;stroke-width:2;stroke-linecap:round;stroke-linejoin:round;}
	.st30{fill:none;stroke:#000000;stroke-width:2;stroke-linecap:round;stroke-linejoin:round;}
	.st31{display:inline;fill:none;}
	.st32{fill:none;}
	.st33{display:inline;fill-rule:evenodd;clip-rule:evenodd;fill:#263238;}
</style>
<g id="create_figures">
	<g class="st5">
		<path class="st7" d="M29,111V17c0-1.1,0.9-2,2-2h66c1.1,0,2,0.9,2,2v94c0,1.1-0.9,2-2,2H31C29.9,113,29,112.1,29,111z"/>
		<rect x="35" y="20" class="st7" width="58" height="20"/>
		<rect x="35" y="80" class="st7" width="22" height="8"/>
		<line class="st7" x1="34" y1="46" x2="58" y2="46"/>
		<line class="st7" x1="34" y1="50" x2="58" y2="50"/>
		<line class="st7" x1="34" y1="54" x2="58" y2="54"/>
		<line class="st7" x1="34" y1="58" x2="58" y2="58"/>
		<line class="st7" x1="34" y1="62" x2="58" y2="62"/>
		<line class="st7" x1="34" y1="66" x2="58" y2="66"/>
		<line class="st7" x1="34" y1="70" x2="58" y2="70"/>
		<line class="st7" x1="34" y1="74" x2="58" y2="74"/>
		<line class="st7" x1="34" y1="94" x2="94" y2="94"/>
		<line class="st7" x1="34" y1="98" x2="94" y2="98"/>
		<line class="st7" x1="34" y1="102" x2="94" y2="102"/>
		<line class="st7" x1="34" y1="106" x2="94" y2="106"/>
		<rect x="63" y="46" class="st7" width="30" height="40"/>
		<rect x="68" y="50" class="st7" width="8" height="8"/>
		<rect x="80" y="50" class="st7" width="8" height="8"/>
		<rect x="68" y="62" class="st7" width="8" height="8"/>
		<rect x="80" y="62" class="st7" width="8" height="8"/>
		<rect x="68" y="74" class="st7" width="8" height="8"/>
		<rect x="80" y="74" class="st7" width="8" height="8"/>
	</g>
	<g id="Live_Paint_7_">
		<g id="XMLID_23_">
			<g>
				<rect x="80" y="74" class="st8" width="8" height="8"/>
				<rect x="68" y="62" class="st8" width="8" height="8"/>
				<rect x="68" y="74" class="st9" width="8" height="8"/>
				<rect x="80" y="50" class="st9" width="8" height="8"/>
				<rect x="80" y="62" class="st10" width="8" height="8"/>
				<rect x="68" y="50" class="st10" width="8" height="8"/>
				<rect x="35" y="80" class="st11" width="22" height="8"/>
				<rect x="35" y="20" class="st11" width="58" height="20"/>
			</g>
			<g>
				<path class="st0" d="M29,111V17c0-1.1,0.9-2,2-2h66c1.1,0,2,0.9,2,2v94c0,1.1-0.9,2-2,2H31C29.9,113,29,112.1,29,111z"/>
				<rect x="35" y="20" class="st0" width="58" height="20"/>
				<rect x="35" y="80" class="st0" width="22" height="8"/>
				<line class="st0" x1="34" y1="46" x2="58" y2="46"/>
				<line class="st0" x1="34" y1="50" x2="58" y2="50"/>
				<line class="st0" x1="34" y1="54" x2="58" y2="54"/>
				<line class="st0" x1="34" y1="58" x2="58" y2="58"/>
				<line class="st0" x1="34" y1="62" x2="58" y2="62"/>
				<line class="st0" x1="34" y1="66" x2="58" y2="66"/>
				<line class="st0" x1="34" y1="70" x2="58" y2="70"/>
				<line class="st0" x1="34" y1="74" x2="58" y2="74"/>
				<line class="st0" x1="34" y1="94" x2="94" y2="94"/>
				<line class="st0" x1="34" y1="98" x2="94" y2="98"/>
				<line class="st0" x1="34" y1="102" x2="94" y2="102"/>
				<line class="st0" x1="34" y1="106" x2="94" y2="106"/>
				<rect x="63" y="46" class="st0" width="30" height="40"/>
				<rect x="68" y="50" class="st0" width="8" height="8"/>
				<rect x="80" y="50" class="st0" width="8" height="8"/>
				<rect x="68" y="62" class="st0" width="8" height="8"/>
				<rect x="80" y="62" class="st0" width="8" height="8"/>
				<rect x="68" y="74" class="st0" width="8" height="8"/>
				<rect x="80" y="74" class="st0" width="8" height="8"/>
			</g>
		</g>
	</g>
</g>
</svg>
