<svg id="fpbioimage" xmlns="http://www.w3.org/2000/svg" viewBox="0 0 128 128"><defs><style>.cls-1{fill:#03a9f4;}.cls-1,.cls-2,.cls-3{stroke:#263238;stroke-miterlimit:10;stroke-width:2px;}.cls-2{fill:#009688;}.cls-3{fill:#ef5350;}</style></defs><title>omero-features-icons</title><polygon class="cls-1" points="63.91 15.56 44.86 27.21 63.92 38.87 83.41 27.42 63.91 15.56"/><polygon class="cls-2" points="85 32 66 43.59 66 66.22 85 55.33 85 32"/><polygon class="cls-2" points="41 111.34 62 98.75 62 75.67 41 87.98 41 111.34"/><polygon class="cls-3" points="62 43.57 43 31.72 43 55.16 62 66.22 62 43.57"/><polygon class="cls-1" points="39.28 60.05 17.46 71.6 37.31 83.26 58.62 71.09 39.28 60.05"/><polygon class="cls-3" points="15 99.74 34 111.33 34 87.96 15 76.11 15 99.74"/><polygon class="cls-3" points="66 98.74 88 111.33 88 87.96 66 75.39 66 98.74"/><polygon class="cls-1" points="69.64 70.88 90.87 83.26 110.81 71.81 89.03 59.96 69.64 70.88"/><polygon class="cls-2" points="94 111.34 113 99.74 113 76.39 94 87.98 94 111.34"/></svg>
