<?xml version="1.0" encoding="utf-8"?>
<!-- Generator: Adobe Illustrator 19.2.1, SVG Export Plug-In . SVG Version: 6.00 Build 0)  -->
<svg version="1.1" xmlns="http://www.w3.org/2000/svg" xmlns:xlink="http://www.w3.org/1999/xlink" x="0px" y="0px"
	 viewBox="0 0 128 128" style="enable-background:new 0 0 128 128;" xml:space="preserve">
<style type="text/css">
	.st0{fill:none;stroke:#263238;stroke-width:2;stroke-miterlimit:10;}
	.st1{fill:#EF5350;stroke:#263238;stroke-width:2;stroke-miterlimit:10;}
	.st2{fill:#009688;stroke:#263238;stroke-width:2;stroke-miterlimit:10;}
	.st3{fill:#03A9F4;stroke:#263238;stroke-width:2;stroke-miterlimit:10;}
	.st4{fill:#CFD8DC;stroke:#263238;stroke-width:2;stroke-miterlimit:10;}
	.st5{display:none;}
	.st6{display:inline;}
	.st7{display:inline;fill:none;stroke:#263238;stroke-width:2;stroke-miterlimit:10;}
	.st8{fill:#009688;}
	.st9{fill:#03A9F4;}
	.st10{fill:#EF5350;}
	.st11{fill:#CFD8DC;}
	.st12{fill-rule:evenodd;clip-rule:evenodd;fill:none;stroke:#263238;stroke-width:2;stroke-miterlimit:10;}
	.st13{fill:#37474F;}
	
		.st14{display:inline;fill:none;stroke:#263238;stroke-width:2;stroke-linecap:round;stroke-miterlimit:10;stroke-dasharray:1.9328,3.8656;}
	.st15{fill:#263238;}
	.st16{display:inline;fill:#263238;}
	.st17{display:inline;fill:#FFFFFF;stroke:#000000;stroke-width:2;stroke-miterlimit:10;}
	.st18{display:inline;fill-rule:evenodd;clip-rule:evenodd;fill:none;stroke:#263238;stroke-width:2;stroke-miterlimit:10;}
	.st19{fill:#58595B;}
	.st20{fill:url(#SVGID_1_);}
	.st21{fill:url(#SVGID_2_);}
	.st22{fill:url(#SVGID_3_);}
	.st23{fill:none;stroke:#4A4A4C;stroke-width:0.5;}
	.st24{opacity:0.23;fill:#231F20;enable-background:new    ;}
	.st25{fill:none;stroke:#A8ABAD;stroke-width:0.5;}
	.st26{fill:none;stroke:#37474F;stroke-width:0.5;}
	.st27{fill:#6D6E70;}
	.st28{fill:#FFFFFF;}
	.st29{display:inline;fill:none;stroke:#000000;stroke-width:2;stroke-linecap:round;stroke-linejoin:round;}
	.st30{fill:none;stroke:#000000;stroke-width:2;stroke-linecap:round;stroke-linejoin:round;}
	.st31{display:inline;fill:none;}
	.st32{fill:none;}
	.st33{display:inline;fill-rule:evenodd;clip-rule:evenodd;fill:#263238;}
</style>
<g id="export_filesets">
	<g class="st5">
		<path class="st7" d="M57,28v7h36v-9.9c0-1-0.8-2.1-1.8-2.1H51v-7H15v62.2c0,1,1.5,1.8,2.5,1.8H21V28H57z"/>
		<path class="st7" d="M69.1,104c-0.1,1.5-0.1,3.1,0,4.6c0,0.7,0.1,1.4,0.2,2.2c0,0.2,0,0.3,0,0.5c0,0.3-0.3,0.6-0.6,0.7
			c-0.3,0.1-0.7,0-0.9-0.2c-0.3-0.4-0.5-0.8-0.7-1.2c-1-2.1-1.9-4.3-2.6-6.5"/>
		<path class="st7" d="M95,92c0-0.2,0-0.4,0-0.6c0-0.2,0.1-0.4,0.1-0.4c-0.1,0-0.2,0-0.3,0c-3.5,0-7.1-0.1-10.6,0.1
			c-2,0-4,0.3-6,0.9c-0.6,0.2-1.2,0.4-1.8,0.6c-3.1,1.3-5.3,3.5-6.4,6.8c-0.5,1.5-0.8,3.1-0.9,4.6h34.1c1,0,1.8-0.8,1.8-1.8v-9.7
			l-5,4.9L98.3,99c-0.5,0.6-1.4,0.8-2.1,0.4c-0.7-0.3-1.1-1-1.1-1.8C95,95.8,95,93.9,95,92"/>
		<path class="st7" d="M105,75.3c2.3,2.3,4.6,4.6,6.9,6.9c0.4,0.4,0.7,0.9,1.1,1.4v0.8v0c-0.4,0.9-1.3,1.5-2,2.2
			c-1.8,1.8-3.7,3.6-5.5,5.4l-0.5,0.5"/>
		<path class="st7" d="M93,77c0.5,0,1.1,0,1.6,0H95c0,0,0-0.6,0-0.7c0-2.1,0-4.2,0-6.3c0-0.4,0.2-0.9,0.4-1.3
			c0.6-0.8,1.7-0.9,2.5-0.4c0.1,0.1,0.2,0.1,0.2,0.2c0.3,0.3,0.5,0.5,0.8,0.7v0.1c1.2,1.2,2.4,2.3,3.6,3.5c0.8,0.8,1.6,1.6,2.4,2.4
			V49.1c0-1-0.8-2.1-1.8-2.1H99"/>
		<path class="st7" d="M27,92v10.2c0,1,1.5,1.8,2.5,1.8h34.9c-0.2-0.5-0.3-1-0.5-1.4c-0.7-2.2-1-4.6-0.9-6.9c0-1.2,0.2-2.4,0.4-3.6
			c0.1-0.9,0.3-1.8,0.6-2.7c0.2-0.8,0.6-1.6,0.9-2.3c0.7-1.4,1.6-2.7,2.7-3.8c0.4-0.4,0.9-0.8,1.3-1.2c0.9-0.7,1.8-1.3,2.8-1.9
			c0.1,0,0.1-0.1,0.2-0.1H72c1.9-0.9,3.8-1.6,5.9-2.1c1.4-0.3,2.7-0.6,4.1-0.7c1.2-0.1,2.3-0.2,3.5-0.3c0.5,0,1,0,1.5,0
			c2,0,4,0,6,0.1"/>
		<path class="st7" d="M93,35h4.2c1,0,1.8,1.1,1.8,2.1V47h-6H63v-7H27v40v12h-3.5c-1,0-2.5-0.8-2.5-1.8V80"/>
	</g>
	<g id="Live_Paint_3_">
		<g id="XMLID_14_">
			<g>
				<path class="st10" d="M99,37.1V47h-6H63v-7H27v40v12h-3.5c-1,0-2.5-0.8-2.5-1.8V80V28h36v7h36h4.2C98.2,35,99,36.1,99,37.1z"/>
				<path class="st9" d="M93,25.1V35H57v-7H21v52h-3.5c-1,0-2.5-0.8-2.5-1.8V16h36v7h40.2C92.2,23,93,24.1,93,25.1z"/>
				<path class="st11" d="M95,91.4c0,0.2,0,0.4,0,0.6c0,1.9,0,3.8,0,5.7c0,0.8,0.4,1.5,1.1,1.8c0.7,0.3,1.6,0.2,2.2-0.4l1.7-1.7
					l5-4.9v9.8c0,1-0.8,1.8-1.8,1.8H69.1c0.1-1.6,0.4-3.1,0.9-4.6c1.1-3.3,3.3-5.4,6.4-6.8c0.6-0.2,1.2-0.4,1.8-0.6
					c1.9-0.6,4-0.8,6-0.9c3.5-0.2,7.1-0.1,10.6-0.1c0.1,0,0.2,0,0.3,0C95.2,91,95,91.2,95,91.4z"/>
				<path class="st11" d="M64.4,104H29.5c-1,0-2.5-0.8-2.5-1.8V92V80V40h36v7h30h6h4.2c1,0,1.8,1.1,1.8,2.1v26.1
					c-0.8-0.8-1.6-1.6-2.4-2.4c-1.2-1.2-2.4-2.4-3.6-3.5v-0.1c-0.3-0.3-0.5-0.5-0.8-0.7c-0.1-0.1-0.2-0.1-0.2-0.2
					c-0.8-0.6-1.9-0.4-2.5,0.4c-0.3,0.4-0.4,0.8-0.4,1.3c0,2.1,0,4.2,0,6.3c0,0.2,0,0.8,0,0.8h-0.4c-0.5,0-1.1,0-1.6,0
					c-2,0-4-0.1-6-0.1c-0.5,0-1,0-1.5,0c-1.2,0-2.4,0.1-3.5,0.3c-1.4,0.2-2.8,0.4-4.1,0.7c-2.1,0.4-4,1.1-5.9,2.1h-0.1
					c-0.1,0-0.1,0.1-0.2,0.1c-1,0.5-1.9,1.2-2.8,1.9c-0.5,0.4-0.9,0.8-1.3,1.2c-1.1,1.1-2,2.4-2.7,3.8c-0.4,0.8-0.7,1.5-0.9,2.3
					c-0.2,0.9-0.4,1.8-0.6,2.7c-0.2,1.2-0.3,2.4-0.4,3.6c-0.1,2.3,0.2,4.7,0.9,6.9C64.1,103,64.2,103.5,64.4,104z"/>
				<path class="st8" d="M69.2,110.8c0,0.2,0,0.3,0,0.5c0,0.3-0.3,0.6-0.6,0.7c-0.3,0.1-0.7,0.1-0.9-0.2c-0.3-0.4-0.5-0.8-0.7-1.2
					c-1-2.1-1.9-4.3-2.7-6.6c-0.2-0.5-0.3-1-0.5-1.4c-0.7-2.2-1-4.6-0.9-6.9c0-1.2,0.2-2.4,0.4-3.6c0.1-0.9,0.3-1.8,0.6-2.7
					c0.2-0.8,0.6-1.6,0.9-2.3c0.7-1.4,1.6-2.7,2.7-3.8c0.4-0.4,0.9-0.8,1.3-1.2c0.9-0.7,1.8-1.3,2.8-1.9c0.1,0,0.1-0.1,0.2-0.1H72
					c1.9-0.9,3.8-1.7,5.9-2.1c1.3-0.3,2.7-0.6,4.1-0.7c1.2-0.1,2.3-0.2,3.5-0.3c0.5,0,1,0,1.5,0c2,0,4,0,6,0.1c0.5,0,1.1,0,1.6,0H95
					c0,0,0-0.6,0-0.8c0-2.1,0-4.2,0-6.3c0-0.4,0.2-0.9,0.4-1.3c0.6-0.8,1.8-0.9,2.5-0.4c0.1,0.1,0.2,0.1,0.2,0.2
					c0.3,0.3,0.5,0.5,0.8,0.7v0.1c1.2,1.2,2.4,2.3,3.6,3.5c0.8,0.8,1.6,1.6,2.4,2.4c2.3,2.3,4.6,4.6,6.9,6.8
					c0.4,0.4,0.7,0.9,1.1,1.4v0.8v0c-0.4,0.9-1.3,1.5-2,2.2c-1.8,1.8-3.7,3.6-5.5,5.4l-0.5,0.5l-5,4.9l-1.7,1.7
					c-0.5,0.6-1.4,0.8-2.2,0.4c-0.7-0.3-1.1-1-1.1-1.8c0-1.9,0-3.8,0-5.7c0-0.2,0-0.4,0-0.6c0-0.2,0.2-0.4,0.1-0.4
					c-0.1,0-0.2,0-0.3,0c-3.5,0-7.1-0.1-10.6,0.1c-2,0-4,0.3-6,0.9c-0.6,0.2-1.2,0.4-1.8,0.6c-3.1,1.3-5.3,3.5-6.4,6.8
					c-0.5,1.5-0.8,3.1-0.9,4.6c-0.1,1.5-0.1,3.1,0,4.6C69.1,109.3,69.2,110,69.2,110.8z"/>
			</g>
			<g>
				<path class="st0" d="M21,80V28h36v7h36v-9.9c0-1-0.8-2.1-1.8-2.1H51v-7H15v62.2c0,1,1.5,1.8,2.5,1.8H21z"/>
				<path class="st0" d="M69.1,104c-0.1,1.5-0.1,3.1,0,4.6c0,0.7,0.1,1.4,0.2,2.2c0,0.2,0,0.3,0,0.5c0,0.3-0.3,0.6-0.6,0.7
					c-0.3,0.1-0.7,0.1-0.9-0.2c-0.3-0.4-0.5-0.8-0.7-1.2c-1-2.1-1.9-4.3-2.7-6.6"/>
				<path class="st0" d="M95,92c0-0.2,0-0.4,0-0.6c0-0.2,0.2-0.4,0.1-0.4c-0.1,0-0.2,0-0.3,0c-3.5,0-7.1-0.1-10.6,0.1
					c-2,0-4,0.3-6,0.9c-0.6,0.2-1.2,0.4-1.8,0.6c-3.1,1.3-5.3,3.5-6.4,6.8c-0.5,1.5-0.8,3.1-0.9,4.6h34.1c1,0,1.8-0.8,1.8-1.8v-9.8
					l-5,4.9l-1.7,1.7c-0.5,0.6-1.4,0.8-2.2,0.4c-0.7-0.3-1.1-1-1.1-1.8C95,95.8,95,93.9,95,92"/>
				<path class="st0" d="M105,75.2c2.3,2.3,4.6,4.6,6.9,6.8c0.4,0.4,0.7,0.9,1.1,1.4v0.8v0c-0.4,0.9-1.3,1.5-2,2.2
					c-1.8,1.8-3.7,3.6-5.5,5.4l-0.5,0.5"/>
				<path class="st0" d="M93,77c0.5,0,1.1,0,1.6,0H95c0,0,0-0.6,0-0.8c0-2.1,0-4.2,0-6.3c0-0.4,0.2-0.9,0.4-1.3
					c0.6-0.8,1.8-0.9,2.5-0.4c0.1,0.1,0.2,0.1,0.2,0.2c0.3,0.3,0.5,0.5,0.8,0.7v0.1c1.2,1.2,2.4,2.3,3.6,3.5
					c0.8,0.8,1.6,1.6,2.4,2.4V49.1c0-1-0.8-2.1-1.8-2.1H99"/>
				<path class="st0" d="M27,92v10.2c0,1,1.5,1.8,2.5,1.8h34.9c-0.2-0.5-0.3-1-0.5-1.4c-0.7-2.2-1-4.6-0.9-6.9
					c0-1.2,0.2-2.4,0.4-3.6c0.1-0.9,0.3-1.8,0.6-2.7c0.2-0.8,0.6-1.6,0.9-2.3c0.7-1.4,1.6-2.7,2.7-3.8c0.4-0.4,0.9-0.8,1.3-1.2
					c0.9-0.7,1.8-1.3,2.8-1.9c0.1,0,0.1-0.1,0.2-0.1H72c1.9-0.9,3.8-1.7,5.9-2.1c1.3-0.3,2.7-0.6,4.1-0.7c1.2-0.1,2.3-0.2,3.5-0.3
					c0.5,0,1,0,1.5,0c2,0,4,0,6,0.1"/>
				<path class="st0" d="M93,35h4.2c1,0,1.8,1.1,1.8,2.1V47h-6H63v-7H27v40v12h-3.5c-1,0-2.5-0.8-2.5-1.8V80"/>
			</g>
		</g>
	</g>
</g>
</svg>
