<?xml version="1.0" encoding="utf-8"?>
<!-- Generator: Adobe Illustrator 19.2.1, SVG Export Plug-In . SVG Version: 6.00 Build 0)  -->
<svg version="1.1" xmlns="http://www.w3.org/2000/svg" xmlns:xlink="http://www.w3.org/1999/xlink" x="0px" y="0px"
	 viewBox="0 0 128 128" style="enable-background:new 0 0 128 128;" xml:space="preserve">
<style type="text/css">
	.st0{fill:none;stroke:#263238;stroke-width:2;stroke-miterlimit:10;}
	.st1{fill:#EF5350;stroke:#263238;stroke-width:2;stroke-miterlimit:10;}
	.st2{fill:#009688;stroke:#263238;stroke-width:2;stroke-miterlimit:10;}
	.st3{fill:#03A9F4;stroke:#263238;stroke-width:2;stroke-miterlimit:10;}
	.st4{fill:#CFD8DC;stroke:#263238;stroke-width:2;stroke-miterlimit:10;}
	.st5{display:none;}
	.st6{display:inline;}
	.st7{display:inline;fill:none;stroke:#263238;stroke-width:2;stroke-miterlimit:10;}
	.st8{fill:#009688;}
	.st9{fill:#03A9F4;}
	.st10{fill:#EF5350;}
	.st11{fill:#CFD8DC;}
	.st12{fill-rule:evenodd;clip-rule:evenodd;fill:none;stroke:#263238;stroke-width:2;stroke-miterlimit:10;}
	.st13{fill:#37474F;}
	
		.st14{display:inline;fill:none;stroke:#263238;stroke-width:2;stroke-linecap:round;stroke-miterlimit:10;stroke-dasharray:1.9328,3.8656;}
	.st15{fill:#263238;}
	.st16{display:inline;fill:#263238;}
	.st17{display:inline;fill:#FFFFFF;stroke:#000000;stroke-width:2;stroke-miterlimit:10;}
	.st18{display:inline;fill-rule:evenodd;clip-rule:evenodd;fill:none;stroke:#263238;stroke-width:2;stroke-miterlimit:10;}
	.st19{fill:#58595B;}
	.st20{fill:url(#SVGID_1_);}
	.st21{fill:url(#SVGID_2_);}
	.st22{fill:url(#SVGID_3_);}
	.st23{fill:none;stroke:#4A4A4C;stroke-width:0.5;}
	.st24{opacity:0.23;fill:#231F20;enable-background:new    ;}
	.st25{fill:none;stroke:#A8ABAD;stroke-width:0.5;}
	.st26{fill:none;stroke:#37474F;stroke-width:0.5;}
	.st27{fill:#6D6E70;}
	.st28{fill:#FFFFFF;}
	.st29{display:inline;fill:none;stroke:#000000;stroke-width:2;stroke-linecap:round;stroke-linejoin:round;}
	.st30{fill:none;stroke:#000000;stroke-width:2;stroke-linecap:round;stroke-linejoin:round;}
	.st31{display:inline;fill:none;}
	.st32{fill:none;}
	.st33{display:inline;fill-rule:evenodd;clip-rule:evenodd;fill:#263238;}
</style>
<g id="supported_file_formats">
	<g>
		<g>
			<g id="XMLID_31_">
				<g>
					<path class="st9" d="M102.3,89.8c0.9,0.5,0.9,1.4,0,1.9l-36.6,20.9c-0.9,0.5-2.4,0.5-3.4,0L25.7,91.7c-0.9-0.5-0.9-1.4,0-1.9
						L39,82.2c0.9-0.5,2.4-0.5,3.4,0l18.3,10.5c0.9,0.5,2.1,1.2,2.5,1.4c0.5,0.3,1.2,0.3,1.7,0c0.4-0.3,1.6-0.9,2.5-1.4l18.3-10.5
						c0.9-0.5,2.4-0.5,3.4,0L102.3,89.8z"/>
					<path class="st10" d="M102.3,36.3c0.9,0.5,0.9,1.4,0,1.9l-36.6,21c-0.9,0.5-2.4,0.5-3.4,0L25.7,38.3c-0.9-0.5-0.9-1.4,0-1.9
						l36.6-20.9c0.9-0.5,2.4-0.5,3.4,0L102.3,36.3z"/>
					<path class="st8" d="M102.3,63c0.9,0.5,0.9,1.4,0,1.9L65.7,85.9c-0.9,0.5-2.4,0.5-3.4,0L25.7,65c-0.9-0.5-0.9-1.4,0-1.9
						L39,55.4c0.9-0.5,2.4-0.5,3.4,0l18.3,10.5c0.9,0.5,2.1,1.2,2.5,1.4c0.5,0.2,1.2,0.2,1.7,0c0.4-0.3,1.6-0.9,2.5-1.4l18.3-10.5
						c0.9-0.5,2.4-0.5,3.4,0L102.3,63z"/>
				</g>
				<g>
					<path class="st0" d="M67.3,65.9c-0.9,0.5-2.1,1.2-2.5,1.4c-0.5,0.2-1.2,0.2-1.7,0c-0.4-0.3-1.6-0.9-2.5-1.4L42.3,55.4
						c-0.9-0.5-2.4-0.5-3.4,0L25.7,63c-0.9,0.5-0.9,1.4,0,1.9l36.6,20.9c0.9,0.5,2.4,0.5,3.4,0L102.3,65c0.9-0.5,0.9-1.4,0-1.9
						L89,55.4c-0.9-0.5-2.4-0.5-3.4,0L67.3,65.9z"/>
					<path class="st0" d="M67.3,92.6c-0.9,0.5-2.1,1.2-2.5,1.4c-0.5,0.3-1.2,0.3-1.7,0c-0.4-0.3-1.6-0.9-2.5-1.4L42.3,82.2
						c-0.9-0.5-2.4-0.5-3.4,0l-13.3,7.6c-0.9,0.5-0.9,1.4,0,1.9l36.6,20.9c0.9,0.5,2.4,0.5,3.4,0l36.6-20.9c0.9-0.5,0.9-1.4,0-1.9
						L89,82.2c-0.9-0.5-2.4-0.5-3.4,0L67.3,92.6z"/>
					<path class="st0" d="M102.3,38.2c0.9-0.5,0.9-1.4,0-1.9L65.7,15.4c-0.9-0.5-2.4-0.5-3.4,0L25.7,36.3c-0.9,0.5-0.9,1.4,0,1.9
						l36.6,20.9c0.9,0.5,2.4,0.5,3.4,0L102.3,38.2z"/>
				</g>
			</g>
		</g>
	</g>
</g>
</svg>
