<?xml version="1.0" encoding="utf-8"?>
<!-- Generator: Adobe Illustrator 19.2.1, SVG Export Plug-In . SVG Version: 6.00 Build 0)  -->
<svg version="1.1" xmlns="http://www.w3.org/2000/svg" xmlns:xlink="http://www.w3.org/1999/xlink" x="0px" y="0px"
	 viewBox="0 0 128 128" style="enable-background:new 0 0 128 128;" xml:space="preserve">
<style type="text/css">
	.st0{fill:none;stroke:#263238;stroke-width:2;stroke-miterlimit:10;}
	.st1{fill:#EF5350;stroke:#263238;stroke-width:2;stroke-miterlimit:10;}
	.st2{fill:#009688;stroke:#263238;stroke-width:2;stroke-miterlimit:10;}
	.st3{fill:#03A9F4;stroke:#263238;stroke-width:2;stroke-miterlimit:10;}
	.st4{fill:#CFD8DC;stroke:#263238;stroke-width:2;stroke-miterlimit:10;}
	.st5{display:none;}
	.st6{display:inline;}
	.st7{display:inline;fill:none;stroke:#263238;stroke-width:2;stroke-miterlimit:10;}
	.st8{fill:#009688;}
	.st9{fill:#03A9F4;}
	.st10{fill:#EF5350;}
	.st11{fill:#CFD8DC;}
	.st12{fill-rule:evenodd;clip-rule:evenodd;fill:none;stroke:#263238;stroke-width:2;stroke-miterlimit:10;}
	.st13{fill:#37474F;}
	
		.st14{display:inline;fill:none;stroke:#263238;stroke-width:2;stroke-linecap:round;stroke-miterlimit:10;stroke-dasharray:1.9328,3.8656;}
	.st15{fill:#263238;}
	.st16{display:inline;fill:#263238;}
	.st17{display:inline;fill:#FFFFFF;stroke:#000000;stroke-width:2;stroke-miterlimit:10;}
	.st18{display:inline;fill-rule:evenodd;clip-rule:evenodd;fill:none;stroke:#263238;stroke-width:2;stroke-miterlimit:10;}
	.st19{fill:#58595B;}
	.st20{fill:url(#SVGID_1_);}
	.st21{fill:url(#SVGID_2_);}
	.st22{fill:url(#SVGID_3_);}
	.st23{fill:none;stroke:#4A4A4C;stroke-width:0.5;}
	.st24{opacity:0.23;fill:#231F20;enable-background:new    ;}
	.st25{fill:none;stroke:#A8ABAD;stroke-width:0.5;}
	.st26{fill:none;stroke:#37474F;stroke-width:0.5;}
	.st27{fill:#6D6E70;}
	.st28{fill:#FFFFFF;}
	.st29{display:inline;fill:none;stroke:#000000;stroke-width:2;stroke-linecap:round;stroke-linejoin:round;}
	.st30{fill:none;stroke:#000000;stroke-width:2;stroke-linecap:round;stroke-linejoin:round;}
	.st31{display:inline;fill:none;}
	.st32{fill:none;}
	.st33{display:inline;fill-rule:evenodd;clip-rule:evenodd;fill:#263238;}
</style>
<g id="artboards">
</g>
<g id="guides">
</g>
<g id="palette">
</g>
<g id="view-images">
</g>
<g id="using_a_public_group">
</g>
<g id="user-added_metadata">
</g>
<g id="unit-support">
	<g id="raw_10_" class="st5">
	</g>
	<g id="Live_Paint">
	</g>
</g>
<g id="supported_file_formats">
</g>
<g id="share">
</g>
<g id="searching_and_filtering">
</g>
<g id="scripting_service">
</g>
<g id="roi_folders_1_">
	<g id="raw_8_">
	</g>
</g>
<g id="reverse_intensity_rendering_1_">
	<g id="raw_7_" class="st5">
	</g>
</g>
<g id="rendering_settings">
</g>
<g id="quality_assurance_1_">
	<g id="raw_6_" class="st5">
	</g>
</g>
<g id="python_blitz_api">
</g>
<g id="public_access">
</g>
<g id="personalize">
	<g id="raw_5_" class="st5">
	</g>
</g>
<g id="original_file_formats">
</g>
<g id="orbit_image_analysis">
</g>
<g id="open_with..._1_">
	<g id="raw_4_" class="st5">
	</g>
</g>
<g id="omero-wnd-charm">
</g>
<g id="omero.webtagging">
</g>
<g id="omero.mail_1_">
	<g id="raw_1_" class="st5">
	</g>
</g>
<g id="omero.forms">
</g>
<g id="omero.dropbox">
</g>
<g id="omero_as_public_repository">
</g>
<g id="moodle">
	<g id="logo_-_moodle">
	</g>
</g>
<g id="manage_and_organize">
</g>
<g id="manage">
	<g id="raw_9_" class="st5">
	</g>
</g>
<g id="lookup_table_1_">
	<g id="raw_2_" class="st5">
		<rect x="15" y="26" class="st7" width="98" height="74"/>
		<polyline class="st7" points="113,94 15,94 15,88 113,88 113,82 15,82 15,76 113,76 113,70 15,70 15,64 113,64 113,58 15,58 
			15,52 113,52 113,46 15,46 15,40 113,40 91,40 91,100 69,100 69,40 47,40 47,100 		"/>
	</g>
	<g id="XMLID_6_">
		<g>
			<rect x="91" y="58" class="st10" width="22" height="6"/>
			<polygon class="st9" points="113,26 113,40 91,40 69,40 47,40 15,40 15,26 			"/>
			<rect x="47" y="76" class="st8" width="22" height="6"/>
			<rect x="47" y="64" class="st8" width="22" height="6"/>
			<rect x="47" y="46" class="st10" width="22" height="6"/>
			<rect x="15" y="94" class="st11" width="32" height="6"/>
			<rect x="15" y="88" class="st8" width="32" height="6"/>
			<rect x="15" y="82" class="st11" width="32" height="6"/>
			<rect x="15" y="76" class="st11" width="32" height="6"/>
			<rect x="15" y="70" class="st11" width="32" height="6"/>
			<rect x="15" y="64" class="st11" width="32" height="6"/>
			<rect x="15" y="58" class="st11" width="32" height="6"/>
			<rect x="15" y="52" class="st11" width="32" height="6"/>
			<rect x="15" y="46" class="st11" width="32" height="6"/>
			<rect x="15" y="40" class="st11" width="32" height="6"/>
		</g>
		<g>
			<polyline class="st0" points="113,88 113,94 113,100 91,100 			"/>
			<line class="st0" x1="113" y1="76" x2="113" y2="82"/>
			<line class="st0" x1="113" y1="64" x2="113" y2="70"/>
			<line class="st0" x1="113" y1="52" x2="113" y2="58"/>
			<polyline class="st0" points="15,40 15,26 113,26 113,40 113,46 			"/>
			<line class="st0" x1="15" y1="52" x2="15" y2="46"/>
			<line class="st0" x1="15" y1="64" x2="15" y2="58"/>
			<line class="st0" x1="15" y1="76" x2="15" y2="70"/>
			<line class="st0" x1="15" y1="88" x2="15" y2="82"/>
			<polyline class="st0" points="69,100 47,100 15,100 15,94 			"/>
			<polyline class="st0" points="47,40 47,46 47,52 47,58 47,64 47,70 47,76 47,82 47,88 47,94 47,100 			"/>
			<polyline class="st0" points="113,40 91,40 91,46 91,52 91,58 91,64 91,70 91,76 91,82 91,88 91,94 91,100 69,100 69,94 69,88 
				69,82 69,76 69,70 69,64 69,58 69,52 69,46 69,40 			"/>
			<line class="st0" x1="69" y1="40" x2="91" y2="40"/>
			<line class="st0" x1="69" y1="40" x2="47" y2="40"/>
			<polyline class="st0" points="113,94 91,94 69,94 47,94 15,94 15,88 47,88 69,88 91,88 113,88 113,82 91,82 69,82 47,82 15,82 
				15,76 47,76 69,76 91,76 113,76 113,70 91,70 69,70 47,70 15,70 15,64 47,64 69,64 91,64 113,64 113,58 91,58 69,58 47,58 15,58 
				15,52 47,52 69,52 91,52 113,52 113,46 91,46 69,46 47,46 15,46 15,40 47,40 			"/>
		</g>
	</g>
</g>
<g id="improved_screen_plate_well_ui_1_">
	<g id="raw_3_" class="st5">
	</g>
</g>
<g id="improved_performance">
</g>
<g id="import_images">
</g>
<g id="import-for">
</g>
<g id="histogram_support">
	<g id="raw" class="st5">
	</g>
</g>
<g id="file_integrity_reports">
</g>
<g id="export_images">
</g>
<g id="export_hcs">
</g>
<g id="export_filesets">
</g>
<g id="draw_rois">
</g>
<g id="customize_clients">
</g>
<g id="command_line_interface">
	<g id="raw_11_" class="st5">
	</g>
	<g id="Live_Paint_1_">
	</g>
</g>
<g id="create_movies">
</g>
<g id="create_figures">
</g>
<g id="big_images">
</g>
<g id="attaching_analytical_results">
</g>
<g id="annotate_data">
</g>
<g id="acquisition_metadata">
</g>
</svg>
