<?xml version="1.0" encoding="utf-8"?>
<!-- Generator: Adobe Illustrator 19.2.1, SVG Export Plug-In . SVG Version: 6.00 Build 0)  -->
<svg version="1.1" xmlns="http://www.w3.org/2000/svg" xmlns:xlink="http://www.w3.org/1999/xlink" x="0px" y="0px"
	 viewBox="0 0 128 128" style="enable-background:new 0 0 128 128;" xml:space="preserve">
<style type="text/css">
	.st0{fill:none;stroke:#263238;stroke-width:2;stroke-miterlimit:10;}
	.st1{fill:#EF5350;stroke:#263238;stroke-width:2;stroke-miterlimit:10;}
	.st2{fill:#009688;stroke:#263238;stroke-width:2;stroke-miterlimit:10;}
	.st3{fill:#03A9F4;stroke:#263238;stroke-width:2;stroke-miterlimit:10;}
	.st4{fill:#CFD8DC;stroke:#263238;stroke-width:2;stroke-miterlimit:10;}
	.st5{display:none;}
	.st6{display:inline;}
	.st7{display:inline;fill:none;stroke:#263238;stroke-width:2;stroke-miterlimit:10;}
	.st8{fill:#009688;}
	.st9{fill:#03A9F4;}
	.st10{fill:#EF5350;}
	.st11{fill:#CFD8DC;}
	.st12{fill-rule:evenodd;clip-rule:evenodd;fill:none;stroke:#263238;stroke-width:2;stroke-miterlimit:10;}
	.st13{fill:#37474F;}
	
		.st14{display:inline;fill:none;stroke:#263238;stroke-width:2;stroke-linecap:round;stroke-miterlimit:10;stroke-dasharray:1.9328,3.8656;}
	.st15{fill:#263238;}
	.st16{display:inline;fill:#263238;}
	.st17{display:inline;fill:#FFFFFF;stroke:#000000;stroke-width:2;stroke-miterlimit:10;}
	.st18{display:inline;fill-rule:evenodd;clip-rule:evenodd;fill:none;stroke:#263238;stroke-width:2;stroke-miterlimit:10;}
	.st19{fill:#58595B;}
	.st20{fill:url(#SVGID_1_);}
	.st21{fill:url(#SVGID_2_);}
	.st22{fill:url(#SVGID_3_);}
	.st23{fill:none;stroke:#4A4A4C;stroke-width:0.5;}
	.st24{opacity:0.23;fill:#231F20;enable-background:new    ;}
	.st25{fill:none;stroke:#A8ABAD;stroke-width:0.5;}
	.st26{fill:none;stroke:#37474F;stroke-width:0.5;}
	.st27{fill:#6D6E70;}
	.st28{fill:#FFFFFF;}
	.st29{display:inline;fill:none;stroke:#000000;stroke-width:2;stroke-linecap:round;stroke-linejoin:round;}
	.st30{fill:none;stroke:#000000;stroke-width:2;stroke-linecap:round;stroke-linejoin:round;}
	.st31{display:inline;fill:none;}
	.st32{fill:none;}
	.st33{display:inline;fill-rule:evenodd;clip-rule:evenodd;fill:#263238;}
</style>
<g id="omero.forms">
	<g class="st5">
		<path class="st7" d="M111,101H17c-1.1,0-2-0.9-2-2V29c0-1.1,0.9-2,2-2h94c1.1,0,2,0.9,2,2v70C113,100.1,112.1,101,111,101z"/>
		<line class="st7" x1="15" y1="42" x2="113" y2="42"/>
		<circle class="st7" cx="22" cy="34" r="2"/>
		<circle class="st7" cx="30" cy="34" r="2"/>
		<circle class="st7" cx="38" cy="34" r="2"/>
		<path class="st7" d="M58,61H22c-1.1,0-2-0.9-2-2v-2c0-1.1,0.9-2,2-2h36c1.1,0,2,0.9,2,2v2C60,60.1,59.1,61,58,61z"/>
		<line class="st7" x1="20" y1="50" x2="60" y2="50"/>
		<path class="st7" d="M106,61H70c-1.1,0-2-0.9-2-2v-2c0-1.1,0.9-2,2-2h36c1.1,0,2,0.9,2,2v2C108,60.1,107.1,61,106,61z"/>
		<line class="st7" x1="68" y1="50" x2="108" y2="50"/>
		<path class="st7" d="M58,79H22c-1.1,0-2-0.9-2-2v-2c0-1.1,0.9-2,2-2h36c1.1,0,2,0.9,2,2v2C60,78.1,59.1,79,58,79z"/>
		<line class="st7" x1="20" y1="68" x2="60" y2="68"/>
		<path class="st7" d="M106,79H70c-1.1,0-2-0.9-2-2v-2c0-1.1,0.9-2,2-2h36c1.1,0,2,0.9,2,2v2C108,78.1,107.1,79,106,79z"/>
		<line class="st7" x1="68" y1="68" x2="108" y2="68"/>
		<path class="st7" d="M77,95H51c-1.1,0-2-0.9-2-2v-4c0-1.1,0.9-2,2-2h26c1.1,0,2,0.9,2,2v4C79,94.1,78.1,95,77,95z"/>
	</g>
	<g id="Live_Paint_13_">
		<g id="XMLID_41_">
			<g>
				<path class="st9" d="M108,75v2c0,1.1-0.9,2-2,2H70c-1.1,0-2-0.9-2-2v-2c0-1.1,0.9-2,2-2h36C107.1,73,108,73.9,108,75z"/>
				<path class="st9" d="M60,75v2c0,1.1-0.9,2-2,2H22c-1.1,0-2-0.9-2-2v-2c0-1.1,0.9-2,2-2h36C59.1,73,60,73.9,60,75z"/>
				<path class="st9" d="M108,57v2c0,1.1-0.9,2-2,2H70c-1.1,0-2-0.9-2-2v-2c0-1.1,0.9-2,2-2h36C107.1,55,108,55.9,108,57z"/>
				<path class="st9" d="M60,57v2c0,1.1-0.9,2-2,2H22c-1.1,0-2-0.9-2-2v-2c0-1.1,0.9-2,2-2h36C59.1,55,60,55.9,60,57z"/>
				<circle class="st8" cx="30" cy="34" r="2"/>
				<path class="st8" d="M79,89v4c0,1.1-0.9,2-2,2H51c-1.1,0-2-0.9-2-2v-4c0-1.1,0.9-2,2-2h26C78.1,87,79,87.9,79,89z"/>
				<circle class="st10" cx="22" cy="34" r="2"/>
				<path class="st11" d="M113,29v13H15V29c0-1.1,0.9-2,2-2h94C112.1,27,113,27.9,113,29z M40,34c0-1.1-0.9-2-2-2s-2,0.9-2,2
					s0.9,2,2,2S40,35.1,40,34z M32,34c0-1.1-0.9-2-2-2s-2,0.9-2,2s0.9,2,2,2S32,35.1,32,34z M24,34c0-1.1-0.9-2-2-2s-2,0.9-2,2
					s0.9,2,2,2S24,35.1,24,34z"/>
			</g>
			<g>
				<path class="st0" d="M113,42v57c0,1.1-0.9,2-2,2H17c-1.1,0-2-0.9-2-2V42V29c0-1.1,0.9-2,2-2h94c1.1,0,2,0.9,2,2V42z"/>
				<line class="st0" x1="15" y1="42" x2="113" y2="42"/>
				<circle class="st0" cx="22" cy="34" r="2"/>
				<circle class="st0" cx="30" cy="34" r="2"/>
				<circle class="st0" cx="38" cy="34" r="2"/>
				<path class="st0" d="M58,61H22c-1.1,0-2-0.9-2-2v-2c0-1.1,0.9-2,2-2h36c1.1,0,2,0.9,2,2v2C60,60.1,59.1,61,58,61z"/>
				<line class="st0" x1="20" y1="50" x2="60" y2="50"/>
				<path class="st0" d="M106,61H70c-1.1,0-2-0.9-2-2v-2c0-1.1,0.9-2,2-2h36c1.1,0,2,0.9,2,2v2C108,60.1,107.1,61,106,61z"/>
				<line class="st0" x1="68" y1="50" x2="108" y2="50"/>
				<path class="st0" d="M58,79H22c-1.1,0-2-0.9-2-2v-2c0-1.1,0.9-2,2-2h36c1.1,0,2,0.9,2,2v2C60,78.1,59.1,79,58,79z"/>
				<line class="st0" x1="20" y1="68" x2="60" y2="68"/>
				<path class="st0" d="M106,79H70c-1.1,0-2-0.9-2-2v-2c0-1.1,0.9-2,2-2h36c1.1,0,2,0.9,2,2v2C108,78.1,107.1,79,106,79z"/>
				<line class="st0" x1="68" y1="68" x2="108" y2="68"/>
				<path class="st0" d="M77,95H51c-1.1,0-2-0.9-2-2v-4c0-1.1,0.9-2,2-2h26c1.1,0,2,0.9,2,2v4C79,94.1,78.1,95,77,95z"/>
			</g>
		</g>
	</g>
</g>
</svg>
