<?xml version="1.0" encoding="utf-8"?>
<!-- Generator: Adobe Illustrator 19.2.1, SVG Export Plug-In . SVG Version: 6.00 Build 0)  -->
<svg version="1.1" xmlns="http://www.w3.org/2000/svg" xmlns:xlink="http://www.w3.org/1999/xlink" x="0px" y="0px"
	 viewBox="0 0 128 128" style="enable-background:new 0 0 128 128;" xml:space="preserve">
<style type="text/css">
	.st0{fill:none;stroke:#263238;stroke-width:2;stroke-miterlimit:10;}
	.st1{fill:#EF5350;stroke:#263238;stroke-width:2;stroke-miterlimit:10;}
	.st2{fill:#009688;stroke:#263238;stroke-width:2;stroke-miterlimit:10;}
	.st3{fill:#03A9F4;stroke:#263238;stroke-width:2;stroke-miterlimit:10;}
	.st4{fill:#CFD8DC;stroke:#263238;stroke-width:2;stroke-miterlimit:10;}
	.st5{display:none;}
	.st6{display:inline;}
	.st7{display:inline;fill:none;stroke:#263238;stroke-width:2;stroke-miterlimit:10;}
	.st8{fill:#009688;}
	.st9{fill:#03A9F4;}
	.st10{fill:#EF5350;}
	.st11{fill:#CFD8DC;}
	.st12{fill-rule:evenodd;clip-rule:evenodd;fill:none;stroke:#263238;stroke-width:2;stroke-miterlimit:10;}
	.st13{fill:#37474F;}
	
		.st14{display:inline;fill:none;stroke:#263238;stroke-width:2;stroke-linecap:round;stroke-miterlimit:10;stroke-dasharray:1.9328,3.8656;}
	.st15{fill:#263238;}
	.st16{display:inline;fill:#263238;}
	.st17{display:inline;fill:#FFFFFF;stroke:#000000;stroke-width:2;stroke-miterlimit:10;}
	.st18{display:inline;fill-rule:evenodd;clip-rule:evenodd;fill:none;stroke:#263238;stroke-width:2;stroke-miterlimit:10;}
	.st19{fill:#58595B;}
	.st20{fill:url(#SVGID_1_);}
	.st21{fill:url(#SVGID_2_);}
	.st22{fill:url(#SVGID_3_);}
	.st23{fill:none;stroke:#4A4A4C;stroke-width:0.5;}
	.st24{opacity:0.23;fill:#231F20;enable-background:new    ;}
	.st25{fill:none;stroke:#A8ABAD;stroke-width:0.5;}
	.st26{fill:none;stroke:#37474F;stroke-width:0.5;}
	.st27{fill:#6D6E70;}
	.st28{fill:#FFFFFF;}
	.st29{display:inline;fill:none;stroke:#000000;stroke-width:2;stroke-linecap:round;stroke-linejoin:round;}
	.st30{fill:none;stroke:#000000;stroke-width:2;stroke-linecap:round;stroke-linejoin:round;}
	.st31{display:inline;fill:none;}
	.st32{fill:none;}
	.st33{display:inline;fill-rule:evenodd;clip-rule:evenodd;fill:#263238;}
</style>
<g id="artboards">
</g>
<g id="guides">
</g>
<g id="palette">
</g>
<g id="view-images">
</g>
<g id="using_a_public_group">
</g>
<g id="user-added_metadata">
</g>
<g id="unit-support">
	<g id="raw_10_" class="st5">
	</g>
	<g id="Live_Paint">
	</g>
</g>
<g id="supported_file_formats">
</g>
<g id="share">
</g>
<g id="searching_and_filtering">
</g>
<g id="scripting_service">
</g>
<g id="roi_folders_1_">
	<g id="raw_8_">
	</g>
</g>
<g id="reverse_intensity_rendering_1_">
	<g id="raw_7_" class="st5">
	</g>
</g>
<g id="rendering_settings">
</g>
<g id="quality_assurance_1_">
	<g id="raw_6_" class="st5">
	</g>
</g>
<g id="python_blitz_api">
</g>
<g id="public_access">
</g>
<g id="personalize">
	<g id="raw_5_" class="st5">
	</g>
</g>
<g id="original_file_formats">
</g>
<g id="orbit_image_analysis">
</g>
<g id="open_with..._1_">
	<g id="raw_4_" class="st5">
	</g>
</g>
<g id="omero-wnd-charm">
</g>
<g id="omero.webtagging">
</g>
<g id="omero.mail_1_">
	<g id="raw_1_" class="st5">
	</g>
</g>
<g id="omero.forms">
</g>
<g id="omero.dropbox">
</g>
<g id="omero_as_public_repository">
</g>
<g id="moodle">
	<g id="logo_-_moodle">
	</g>
</g>
<g id="manage_and_organize">
</g>
<g id="manage">
	<g id="raw_9_" class="st5">
	</g>
</g>
<g id="lookup_table_1_">
	<g id="raw_2_" class="st5">
	</g>
</g>
<g id="improved_screen_plate_well_ui_1_">
	<g id="raw_3_" class="st5">
	</g>
</g>
<g id="improved_performance">
</g>
<g id="import_images">
</g>
<g id="import-for">
</g>
<g id="histogram_support">
	<g id="raw" class="st5">
	</g>
</g>
<g id="file_integrity_reports">
</g>
<g id="export_images">
</g>
<g id="export_hcs">
</g>
<g id="export_filesets">
</g>
<g id="draw_rois">
</g>
<g id="customize_clients">
</g>
<g id="command_line_interface">
	<g id="raw_11_" class="st5">
	</g>
	<g id="Live_Paint_1_">
	</g>
</g>
<g id="create_movies">
</g>
<g id="create_figures">
</g>
<g id="big_images">
</g>
<g id="attaching_analytical_results">
	<g class="st5">
		<g class="st6">
			<polygon class="st0" points="21,75 21,21 75,21 75,48 80,48 80,16 16,16 16,80 48,80 48,75 			"/>
			<polyline class="st0" points="48,80 48,112 112,112 112,48 80,48 			"/>
			<polyline class="st0" points="75,48 48,48 48,75 			"/>
			<rect x="53" y="53" class="st0" width="54" height="54"/>
		</g>
		<polyline class="st7" points="84,69 91,69 91,100 84,100 84,60 77,60 77,100 61,100 100,100 98,100 98,78 91,78 		"/>
		<polyline class="st7" points="70,75 63,75 63,100 70,100 70,66 77,66 		"/>
		<g class="st6">
			<path class="st32" d="M52.1,42.6c0.3,0.8,1,1.4,1.9,1.4c1.1,0,2-0.9,2-2c0-0.2,0-0.3-0.1-0.5"/>
			<path class="st32" d="M54.5,40.1C54.3,40,54.2,40,54,40c-0.6,0-1.1,0.3-1.5,0.6"/>
			<path class="st32" d="M29.5,56.1c-0.9,0.2-1.5,1-1.5,1.9c0,1.1,0.9,2,2,2s2-0.9,2-2c0-0.5-0.2-1-0.5-1.4"/>
			<path class="st32" d="M65.5,31.9c0.2,0,0.3,0.1,0.5,0.1c1.1,0,2-0.9,2-2s-0.9-2-2-2s-2,0.9-2,2c0,0.2,0,0.3,0.1,0.5"/>
			<path class="st32" d="M37.9,37.4c-0.3-0.8-1-1.4-1.9-1.4c-1.1,0-2,0.9-2,2c0,0.5,0.2,1,0.5,1.4"/>
			<path class="st15" d="M30.2,54c0.7,0,1.4,0.2,1.9,0.6L35.8,42c-0.7,0-1.4-0.2-1.9-0.6L30.2,54z"/>
			<path class="st15" d="M50.5,40.2L40,37.9c0,0,0,0.1,0,0.1c0,0.7-0.2,1.3-0.5,1.8L50,42.1c0,0,0-0.1,0-0.1
				C50,41.3,50.2,40.7,50.5,40.2z"/>
			<path class="st15" d="M62.6,32L56,38.6c0.6,0.3,1.1,0.8,1.4,1.4l6.5-6.5C63.4,33.1,62.9,32.6,62.6,32z"/>
			<path class="st15" d="M32.1,54.6c-0.6-0.3-1.2-0.6-1.9-0.6c-0.1,0-0.1,0-0.2,0c-2.2,0-4,1.8-4,4s1.8,4,4,4s4-1.8,4-4
				C34,56.6,33.2,55.3,32.1,54.6z M30,60c-1.1,0-2-0.9-2-2c0-0.9,0.7-1.7,1.5-1.9c0.1,0,0.3-0.1,0.5-0.1c0.6,0,1.1,0.2,1.5,0.6
				C31.8,57,32,57.5,32,58C32,59.1,31.1,60,30,60z"/>
			<path class="st15" d="M40,37.9c-0.1-2.1-1.8-3.9-4-3.9c-2.2,0-4,1.8-4,4c0,1.4,0.8,2.7,1.9,3.4c0.6,0.3,1.2,0.6,1.9,0.6
				c0.1,0,0.1,0,0.2,0c1.5,0,2.9-0.9,3.5-2.2c0.3-0.5,0.5-1.2,0.5-1.8C40,38,40,37.9,40,37.9z M36.5,39.9C36.3,40,36.2,40,36,40
				c-0.6,0-1.1-0.2-1.5-0.6C34.2,39,34,38.5,34,38c0-1.1,0.9-2,2-2c0.9,0,1.6,0.6,1.9,1.4C38,37.6,38,37.8,38,38
				c0,0.5-0.2,1-0.5,1.4C37.2,39.6,36.9,39.8,36.5,39.9z"/>
			<path class="st15" d="M57.4,40c-0.3-0.6-0.8-1.1-1.4-1.4c-0.6-0.4-1.3-0.6-2-0.6c-1.5,0-2.9,0.9-3.5,2.2C50.2,40.7,50,41.3,50,42
				c0,0,0,0.1,0,0.1c0.1,2.1,1.8,3.9,4,3.9c2.2,0,4-1.8,4-4C58,41.3,57.8,40.6,57.4,40z M54,44c-0.9,0-1.6-0.6-1.9-1.4
				C52,42.4,52,42.2,52,42c0-0.5,0.2-1,0.5-1.4c0.4-0.4,0.9-0.6,1.5-0.6c0.2,0,0.3,0,0.5,0.1c0.7,0.2,1.2,0.7,1.4,1.4
				c0,0.2,0.1,0.3,0.1,0.5C56,43.1,55.1,44,54,44z"/>
			<path class="st15" d="M66,26c-2.2,0-4,1.8-4,4c0,0.7,0.2,1.4,0.6,2c0.3,0.6,0.8,1.1,1.4,1.4c0.6,0.4,1.3,0.6,2,0.6
				c2.2,0,4-1.8,4-4S68.2,26,66,26z M66,32c-0.2,0-0.3,0-0.5-0.1c-0.7-0.2-1.2-0.7-1.4-1.4c0-0.2-0.1-0.3-0.1-0.5c0-1.1,0.9-2,2-2
				s2,0.9,2,2S67.1,32,66,32z"/>
		</g>
	</g>
	<g>
		<g>
			<g id="XMLID_28_">
				<g>
					<polygon class="st9" points="91,78 91,100 84,100 84,69 91,69 					"/>
					<path class="st9" d="M64,30c0-1.1,0.9-2,2-2s2,0.9,2,2s-0.9,2-2,2c-0.2,0-0.3,0-0.5-0.1c-0.7-0.2-1.2-0.7-1.4-1.4
						C64,30.4,64,30.2,64,30z"/>
					<path class="st8" d="M55.9,41.5c0,0.2,0.1,0.3,0.1,0.5c0,1.1-0.9,2-2,2c-0.9,0-1.6-0.6-1.9-1.4C52,42.4,52,42.2,52,42
						c0-0.5,0.2-1,0.5-1.3c0.4-0.4,0.9-0.7,1.5-0.7c0.2,0,0.3,0,0.5,0.1C55.2,40.3,55.7,40.8,55.9,41.5z"/>
					<polygon class="st8" points="84,69 84,100 77,100 77,66 77,60 84,60 					"/>
					<rect x="63" y="75" class="st10" width="7" height="25"/>
					<path class="st10" d="M32,58c0,1.1-0.9,2-2,2s-2-0.9-2-2c0-0.9,0.7-1.7,1.5-1.9c0.1,0,0.3-0.1,0.5-0.1c0.6,0,1.1,0.2,1.5,0.6
						C31.8,57,32,57.5,32,58z"/>
					<path class="st11" d="M38,38c0,0.5-0.2,1-0.5,1.3c-0.3,0.3-0.6,0.5-1,0.6C36.3,40,36.2,40,36,40c-0.6,0-1.1-0.2-1.5-0.6
						C34.2,39,34,38.5,34,38c0-1.1,0.9-2,2-2c0.9,0,1.6,0.6,1.9,1.4C38,37.6,38,37.8,38,38z"/>
					<rect x="91" y="78" class="st11" width="7" height="22"/>
					<path class="st11" d="M112,48v64H48V80v-5V48h27h5H112z M107,107V53H53v54H107z"/>
					<polygon class="st11" points="80,16 80,48 75,48 75,21 21,21 21,75 48,75 48,80 16,80 16,16 					"/>
					<path class="st15" d="M66,32c1.1,0,2-0.9,2-2s-0.9-2-2-2s-2,0.9-2,2c0,0.2,0,0.4,0.1,0.5c0.2,0.7,0.7,1.2,1.4,1.4
						C65.7,32,65.8,32,66,32z M66,34c-0.7,0-1.4-0.2-2-0.6c-0.6-0.3-1.1-0.8-1.4-1.4c-0.3-0.6-0.6-1.3-0.6-2c0-2.2,1.8-4,4-4
						s4,1.8,4,4S68.2,34,66,34z"/>
					<path class="st15" d="M62.6,32c0.3,0.6,0.8,1.1,1.4,1.4L57.4,40c-0.3-0.6-0.8-1.1-1.4-1.4L62.6,32z"/>
					<path class="st15" d="M57.4,40c0.3,0.6,0.6,1.3,0.6,2c0,2.2-1.8,4-4,4c-2.2,0-3.9-1.7-4-3.9c0,0,0-0.1,0-0.1
						c0-0.7,0.2-1.3,0.5-1.8c0.7-1.3,2-2.2,3.5-2.2c0.7,0,1.4,0.2,2,0.6C56.6,38.9,57.1,39.4,57.4,40z M54,40
						c-0.6,0-1.1,0.2-1.5,0.7C52.2,41,52,41.5,52,42c0,0.2,0,0.4,0.1,0.6c0.3,0.8,1,1.4,1.9,1.4c1.1,0,2-0.9,2-2
						c0-0.2,0-0.3-0.1-0.5c-0.2-0.7-0.7-1.2-1.4-1.4C54.3,40,54.2,40,54,40z"/>
					<path class="st15" d="M50.5,40.2C50.2,40.7,50,41.3,50,42c0,0,0,0.1,0,0.1l-10.5-2.3c0.3-0.5,0.5-1.2,0.5-1.8c0,0,0-0.1,0-0.1
						L50.5,40.2z"/>
					<path class="st15" d="M38,38c0-0.2,0-0.4-0.1-0.6c-0.3-0.8-1-1.4-1.9-1.4c-1.1,0-2,0.9-2,2c0,0.5,0.2,1,0.5,1.4
						c0.4,0.4,0.9,0.6,1.5,0.6c0.2,0,0.3,0,0.5-0.1c0.4-0.1,0.7-0.3,1-0.6C37.8,39,38,38.5,38,38z M40,38c0,0.7-0.2,1.3-0.5,1.8
						c-0.7,1.3-2,2.2-3.5,2.2c0,0-0.1,0-0.2,0c-0.7,0-1.3-0.2-1.9-0.6c-1.2-0.7-1.9-2-1.9-3.4c0-2.2,1.8-4,4-4c2.2,0,3.9,1.7,4,3.9
						C40,37.9,40,38,40,38z"/>
					<path class="st15" d="M35.8,42l-3.8,12.6c-0.6-0.3-1.2-0.5-1.9-0.6l3.8-12.6C34.5,41.8,35.2,42,35.8,42z"/>
					<path class="st15" d="M32,58c0-0.5-0.2-1-0.5-1.4C31.1,56.2,30.6,56,30,56c-0.2,0-0.3,0-0.5,0.1c-0.9,0.2-1.5,1-1.5,1.9
						c0,1.1,0.9,2,2,2S32,59.1,32,58z M34,58c0,2.2-1.8,4-4,4s-4-1.8-4-4s1.8-4,4-4c0,0,0.1,0,0.1,0c0.7,0,1.4,0.2,1.9,0.6
						C33.2,55.3,34,56.5,34,58z"/>
				</g>
				<g>
					<polygon class="st0" points="48,75 21,75 21,21 75,21 75,48 80,48 80,16 16,16 16,80 48,80 					"/>
					<polyline class="st0" points="48,80 48,112 112,112 112,48 80,48 					"/>
					<polyline class="st0" points="75,48 48,48 48,75 					"/>
					<rect x="53" y="53" class="st0" width="54" height="54"/>
					<polyline class="st0" points="100,100 98,100 98,78 91,78 					"/>
					<line class="st0" x1="91" y1="100" x2="98" y2="100"/>
					<line class="st0" x1="77" y1="100" x2="84" y2="100"/>
					<line class="st0" x1="61" y1="100" x2="63" y2="100"/>
					<line class="st0" x1="70" y1="100" x2="77" y2="100"/>
					<polyline class="st0" points="84,100 84,69 84,60 77,60 77,66 77,100 					"/>
					<line class="st0" x1="84" y1="100" x2="91" y2="100"/>
					<polyline class="st0" points="84,69 91,69 91,78 91,100 					"/>
					<polyline class="st0" points="70,75 63,75 63,100 70,100 70,75 70,66 77,66 					"/>
				</g>
			</g>
		</g>
	</g>
</g>
<g id="annotate_data">
</g>
<g id="acquisition_metadata">
</g>
</svg>
