<?xml version="1.0" encoding="utf-8"?>
<!-- Generator: Adobe Illustrator 19.2.1, SVG Export Plug-In . SVG Version: 6.00 Build 0)  -->
<svg version="1.1" xmlns="http://www.w3.org/2000/svg" xmlns:xlink="http://www.w3.org/1999/xlink" x="0px" y="0px"
	 viewBox="0 0 128 128" style="enable-background:new 0 0 128 128;" xml:space="preserve">
<style type="text/css">
	.st0{fill:none;stroke:#263238;stroke-width:2;stroke-miterlimit:10;}
	.st1{fill:#EF5350;stroke:#263238;stroke-width:2;stroke-miterlimit:10;}
	.st2{fill:#009688;stroke:#263238;stroke-width:2;stroke-miterlimit:10;}
	.st3{fill:#03A9F4;stroke:#263238;stroke-width:2;stroke-miterlimit:10;}
	.st4{fill:#CFD8DC;stroke:#263238;stroke-width:2;stroke-miterlimit:10;}
	.st5{display:none;}
	.st6{display:inline;}
	.st7{display:inline;fill:none;stroke:#263238;stroke-width:2;stroke-miterlimit:10;}
	.st8{fill:#009688;}
	.st9{fill:#03A9F4;}
	.st10{fill:#EF5350;}
	.st11{fill:#CFD8DC;}
	.st12{fill-rule:evenodd;clip-rule:evenodd;fill:none;stroke:#263238;stroke-width:2;stroke-miterlimit:10;}
	.st13{fill:#37474F;}
	
		.st14{display:inline;fill:none;stroke:#263238;stroke-width:2;stroke-linecap:round;stroke-miterlimit:10;stroke-dasharray:1.9328,3.8656;}
	.st15{fill:#263238;}
	.st16{display:inline;fill:#263238;}
	.st17{display:inline;fill:#FFFFFF;stroke:#000000;stroke-width:2;stroke-miterlimit:10;}
	.st18{display:inline;fill-rule:evenodd;clip-rule:evenodd;fill:none;stroke:#263238;stroke-width:2;stroke-miterlimit:10;}
	.st19{fill:#58595B;}
	.st20{fill:url(#SVGID_1_);}
	.st21{fill:url(#SVGID_2_);}
	.st22{fill:url(#SVGID_3_);}
	.st23{fill:none;stroke:#4A4A4C;stroke-width:0.5;}
	.st24{opacity:0.23;fill:#231F20;enable-background:new    ;}
	.st25{fill:none;stroke:#A8ABAD;stroke-width:0.5;}
	.st26{fill:none;stroke:#37474F;stroke-width:0.5;}
	.st27{fill:#6D6E70;}
	.st28{fill:#FFFFFF;}
	.st29{display:inline;fill:none;stroke:#000000;stroke-width:2;stroke-linecap:round;stroke-linejoin:round;}
	.st30{fill:none;stroke:#000000;stroke-width:2;stroke-linecap:round;stroke-linejoin:round;}
	.st31{display:inline;fill:none;}
	.st32{fill:none;}
	.st33{display:inline;fill-rule:evenodd;clip-rule:evenodd;fill:#263238;}
</style>
<g id="artboards">
</g>
<g id="guides">
</g>
<g id="palette">
</g>
<g id="view-images">
</g>
<g id="using_a_public_group">
</g>
<g id="user-added_metadata">
</g>
<g id="unit-support">
	<g id="raw_10_" class="st5">
	</g>
	<g id="Live_Paint">
	</g>
</g>
<g id="supported_file_formats">
</g>
<g id="share">
</g>
<g id="searching_and_filtering">
</g>
<g id="scripting_service">
</g>
<g id="roi_folders_1_">
	<g id="raw_8_">
	</g>
</g>
<g id="reverse_intensity_rendering_1_">
	<g id="raw_7_" class="st5">
	</g>
</g>
<g id="rendering_settings">
</g>
<g id="quality_assurance_1_">
	<g id="raw_6_" class="st5">
	</g>
</g>
<g id="python_blitz_api">
</g>
<g id="public_access">
</g>
<g id="personalize">
	<g id="raw_5_" class="st5">
	</g>
</g>
<g id="original_file_formats">
</g>
<g id="orbit_image_analysis">
	<g class="st5">
		<ellipse transform="matrix(0.2388 -0.9711 0.9711 0.2388 -13.6852 111.9748)" class="st7" cx="64.6" cy="64.7" rx="18" ry="18"/>
		<g class="st6">
			<path class="st15" d="M49.2,102.7c-0.6-0.2-1.2-0.5-1.8-0.8c-0.5-0.2-1.1,0-1.3,0.5c-0.2,0.5,0,1.1,0.5,1.3
				c0.6,0.3,1.2,0.6,1.9,0.8c0.1,0,0.2,0.1,0.4,0.1c0.4,0,0.8-0.2,0.9-0.6C50,103.5,49.7,102.9,49.2,102.7z"/>
			<path class="st15" d="M82.2,27.6c0.4,0,0.7-0.2,0.9-0.6c0.2-0.5,0-1.1-0.5-1.3c-0.6-0.3-1.2-0.6-1.9-0.8c-0.5-0.2-1.1,0-1.3,0.6
				s0,1.1,0.6,1.3c0.6,0.2,1.2,0.5,1.8,0.8C81.9,27.5,82,27.6,82.2,27.6z"/>
			<path class="st15" d="M77.9,103.5c-0.6,0.2-1.2,0.4-1.9,0.6c-0.5,0.2-0.8,0.7-0.7,1.2c0.1,0.4,0.5,0.7,1,0.7c0.1,0,0.2,0,0.3,0
				c0.7-0.2,1.3-0.4,1.9-0.6c0.5-0.2,0.8-0.7,0.6-1.3C78.9,103.6,78.4,103.3,77.9,103.5z"/>
			<path class="st15" d="M76.6,25.5c0.4,0,0.8-0.3,1-0.7c0.2-0.5-0.1-1.1-0.7-1.2c-0.7-0.2-1.3-0.4-2-0.5c-0.5-0.1-1.1,0.2-1.2,0.7
				c-0.1,0.5,0.2,1.1,0.7,1.2c0.6,0.2,1.3,0.3,1.9,0.5C76.4,25.4,76.5,25.5,76.6,25.5z"/>
			<path class="st15" d="M60.5,105.5c-0.6-0.1-1.3-0.1-1.9-0.2c-0.5-0.1-1.1,0.3-1.1,0.8c-0.1,0.5,0.3,1.1,0.8,1.1
				c0.7,0.1,1.4,0.2,2,0.3c0,0,0.1,0,0.1,0c0.5,0,0.9-0.4,1-0.9C61.5,106.1,61.1,105.6,60.5,105.5z"/>
			<path class="st15" d="M72.2,105c-0.6,0.1-1.3,0.2-1.9,0.3c-0.5,0.1-0.9,0.6-0.9,1.1c0.1,0.5,0.5,0.9,1,0.9c0,0,0.1,0,0.1,0
				c0.7-0.1,1.3-0.2,2-0.3c0.5-0.1,0.9-0.6,0.8-1.2C73.3,105.3,72.7,104.9,72.2,105z"/>
			<path class="st15" d="M64.7,24c0.5,0,1-0.4,1-1c0-0.6-0.4-1-1-1h-0.2c-0.6,0-1.2-0.1-1.9-0.1c-0.6,0-1,0.5-1,1.1c0,0.5,0.5,1,1,1
				c0,0,0,0,0,0c0.6,0,1.2,0,1.8,0H64.7z"/>
			<path class="st15" d="M66.4,105.8c-0.6,0-1.2,0.2-1.8,0.2h-0.2c0,0,0,0,0,0c-0.5,0-1,0.4-1,1c0,0.6,0.4,1,1,1h0.2
				c0.6,0,1.3-0.2,1.9-0.2c0.6,0,1-0.5,1-1S66.9,105.8,66.4,105.8z"/>
			<path class="st15" d="M70.7,24.2c0.5,0,0.9-0.4,1-0.9c0.1-0.5-0.3-1.1-0.8-1.1c-0.7-0.1-1.4-0.2-2-0.3c-0.5-0.1-1,0.3-1.1,0.9
				c-0.1,0.5,0.3,1,0.9,1.1c0.6,0.1,1.3,0.1,1.9,0.2C70.6,24.2,70.7,24.2,70.7,24.2z"/>
			<path class="st15" d="M87.4,30.5c0.3,0,0.6-0.2,0.8-0.5c0.3-0.5,0.2-1.1-0.3-1.4c-0.6-0.4-1.2-0.7-1.7-1.1
				c-0.5-0.3-1.1-0.1-1.4,0.4s-0.1,1.1,0.4,1.4c0.6,0.3,1.1,0.7,1.7,1C87.1,30.4,87.2,30.5,87.4,30.5z"/>
			<path class="st15" d="M83.2,101.2c-0.6,0.3-1.2,0.6-1.8,0.8c-0.5,0.2-0.7,0.8-0.5,1.3c0.2,0.4,0.5,0.6,0.9,0.6
				c0.1,0,0.3,0,0.4-0.1c0.6-0.3,1.2-0.6,1.8-0.9c0.5-0.3,0.7-0.9,0.4-1.3C84.3,101.2,83.7,101,83.2,101.2z"/>
			<path class="st15" d="M106.5,67.9c-0.5-0.1-1,0.3-1.1,0.9c-0.1,0.6-0.1,1.3-0.2,1.9c-0.1,0.5,0.3,1.1,0.8,1.1c0,0,0.1,0,0.1,0
				c0.5,0,0.9-0.4,1-0.9c0.1-0.7,0.2-1.4,0.3-2C107.4,68.4,107,67.9,106.5,67.9z"/>
			<path class="st15" d="M88.2,98.2c-0.5,0.4-1.1,0.7-1.6,1.1c-0.5,0.3-0.6,0.9-0.3,1.4c0.2,0.3,0.5,0.5,0.8,0.5
				c0.2,0,0.4-0.1,0.5-0.2c0.6-0.4,1.1-0.7,1.7-1.1c0.5-0.3,0.6-0.9,0.2-1.4C89.3,98,88.7,97.9,88.2,98.2z"/>
			<path class="st15" d="M105.6,73.8c-0.5-0.1-1.1,0.2-1.2,0.7c-0.2,0.6-0.3,1.3-0.5,1.9c-0.2,0.5,0.1,1.1,0.7,1.2
				c0.1,0,0.2,0,0.3,0c0.4,0,0.8-0.3,1-0.7c0.2-0.7,0.4-1.3,0.5-2C106.5,74.4,106.1,73.9,105.6,73.8z"/>
			<path class="st15" d="M103.9,79.5c-0.5-0.2-1.1,0-1.3,0.6c-0.2,0.6-0.5,1.2-0.8,1.8c-0.2,0.5,0,1.1,0.5,1.3
				c0.1,0.1,0.3,0.1,0.4,0.1c0.4,0,0.7-0.2,0.9-0.6c0.3-0.6,0.6-1.2,0.8-1.9C104.7,80.3,104.4,79.7,103.9,79.5z"/>
			<path class="st15" d="M92.8,94.5c-0.5,0.4-1,0.9-1.5,1.3c-0.4,0.4-0.5,1-0.1,1.4c0.2,0.2,0.5,0.3,0.8,0.3c0.2,0,0.5-0.1,0.7-0.2
				c0.5-0.4,1-0.9,1.5-1.4c0.4-0.4,0.4-1,0-1.4C93.8,94.1,93.2,94.1,92.8,94.5z"/>
			<path class="st15" d="M92.2,34.1c0.3,0,0.6-0.1,0.8-0.3c0.4-0.4,0.3-1-0.1-1.4c-0.5-0.5-1-0.9-1.6-1.3c-0.4-0.3-1.1-0.3-1.4,0.2
				c-0.3,0.4-0.3,1.1,0.2,1.4c0.5,0.4,1,0.8,1.5,1.3C91.7,34,92,34.1,92.2,34.1z"/>
			<path class="st15" d="M96.7,90.2c-0.4,0.5-0.8,1-1.2,1.5c-0.4,0.4-0.3,1,0.1,1.4c0.2,0.2,0.4,0.2,0.7,0.2c0.3,0,0.6-0.1,0.8-0.3
				c0.4-0.5,0.9-1,1.3-1.6c0.3-0.4,0.3-1.1-0.2-1.4C97.7,89.7,97.1,89.7,96.7,90.2z"/>
			<path class="st15" d="M101.4,85c-0.5-0.3-1.1-0.1-1.4,0.4c-0.3,0.6-0.7,1.1-1,1.7c-0.3,0.5-0.2,1.1,0.3,1.4
				c0.2,0.1,0.4,0.2,0.5,0.2c0.3,0,0.6-0.2,0.8-0.5c0.4-0.6,0.7-1.2,1.1-1.7C102,85.9,101.9,85.2,101.4,85z"/>
			<path class="st15" d="M23.8,60.7c0.1-0.6,0.1-1.3,0.2-1.9c0.1-0.5-0.3-1.1-0.8-1.1c-0.6-0.1-1.1,0.3-1.1,0.8
				c-0.1,0.7-0.2,1.4-0.3,2c-0.1,0.5,0.3,1,0.9,1.1c0,0,0.1,0,0.1,0C23.3,61.6,23.7,61.2,23.8,60.7z"/>
			<path class="st15" d="M101.9,47.8c0.2,0.4,0.5,0.6,0.9,0.6c0.1,0,0.3,0,0.4-0.1c0.5-0.2,0.7-0.8,0.5-1.3
				c-0.3-0.6-0.6-1.2-0.9-1.8c-0.3-0.5-0.9-0.7-1.3-0.4c-0.5,0.3-0.7,0.9-0.4,1.3C101.4,46.7,101.7,47.2,101.9,47.8z"/>
			<path class="st15" d="M59.7,23c-0.1-0.5-0.6-0.9-1.1-0.9c-0.7,0.1-1.3,0.2-2,0.3c-0.5,0.1-0.9,0.6-0.8,1.2c0.1,0.5,0.5,0.8,1,0.8
				c0.1,0,0.1,0,0.2,0c0.6-0.1,1.3-0.2,1.9-0.3C59.4,24,59.8,23.5,59.7,23z"/>
			<path class="st15" d="M27.2,81.6c-0.2-0.5-0.8-0.7-1.3-0.5c-0.5,0.2-0.7,0.8-0.5,1.3c0.3,0.6,0.6,1.2,0.9,1.8
				c0.2,0.3,0.5,0.5,0.9,0.5c0.2,0,0.3,0,0.5-0.1c0.5-0.3,0.7-0.9,0.4-1.3C27.8,82.8,27.5,82.2,27.2,81.6z"/>
			<path class="st15" d="M30,86.8c-0.3-0.5-0.9-0.6-1.4-0.3c-0.5,0.3-0.6,0.9-0.3,1.4c0.4,0.6,0.7,1.1,1.1,1.7
				c0.2,0.3,0.5,0.4,0.8,0.4c0.2,0,0.4-0.1,0.6-0.2c0.5-0.3,0.6-0.9,0.2-1.4C30.7,87.8,30.4,87.3,30,86.8z"/>
			<path class="st15" d="M95.7,38c0.2,0.2,0.5,0.3,0.8,0.3c0.2,0,0.5-0.1,0.7-0.2c0.4-0.4,0.5-1,0.1-1.4c-0.4-0.5-0.9-1-1.4-1.5
				c-0.4-0.4-1-0.4-1.4,0c-0.4,0.4-0.4,1,0,1.4C94.8,37,95.3,37.5,95.7,38z"/>
			<path class="st15" d="M25.3,49.9c0.1,0,0.2,0.1,0.4,0.1c0.4,0,0.8-0.2,0.9-0.6c0.2-0.6,0.5-1.2,0.8-1.8c0.2-0.5,0-1.1-0.5-1.3
				c-0.5-0.2-1.1,0-1.3,0.5c-0.3,0.6-0.6,1.2-0.8,1.9C24.5,49.1,24.8,49.7,25.3,49.9z"/>
			<path class="st15" d="M99.2,42.7c0.2,0.3,0.5,0.5,0.8,0.5c0.2,0,0.4-0.1,0.5-0.2c0.5-0.3,0.6-0.9,0.3-1.4
				c-0.4-0.6-0.7-1.1-1.1-1.7c-0.3-0.5-0.9-0.6-1.4-0.2c-0.5,0.3-0.6,0.9-0.2,1.4C98.4,41.6,98.8,42.1,99.2,42.7z"/>
			<path class="st15" d="M27.8,44.4c0.2,0.1,0.3,0.1,0.5,0.1c0.3,0,0.7-0.2,0.9-0.5c0.3-0.6,0.7-1.1,1-1.7c0.3-0.5,0.2-1.1-0.3-1.4
				c-0.5-0.3-1.1-0.2-1.4,0.3c-0.4,0.6-0.7,1.2-1.1,1.7C27.1,43.6,27.3,44.2,27.8,44.4z"/>
			<path class="st15" d="M23.6,55.6c0.1,0,0.2,0,0.2,0c0.4,0,0.9-0.3,1-0.8c0.2-0.6,0.3-1.3,0.5-1.9c0.2-0.5-0.1-1.1-0.7-1.2
				c-0.5-0.2-1.1,0.1-1.2,0.7c-0.2,0.7-0.4,1.3-0.5,2C22.7,55,23,55.5,23.6,55.6z"/>
			<path class="st15" d="M33.7,37.7c0.4-0.4,0.3-1-0.1-1.4c-0.4-0.4-1-0.3-1.4,0.1c-0.4,0.5-0.9,1-1.3,1.6c-0.3,0.4-0.3,1.1,0.2,1.4
				c0.2,0.1,0.4,0.2,0.6,0.2c0.3,0,0.6-0.1,0.8-0.4C32.8,38.7,33.3,38.2,33.7,37.7z"/>
			<path class="st15" d="M48.2,26c-0.2-0.5-0.8-0.7-1.3-0.5c-0.6,0.3-1.2,0.6-1.8,0.9c-0.5,0.3-0.7,0.9-0.4,1.3
				c0.2,0.3,0.5,0.5,0.9,0.5c0.2,0,0.3,0,0.5-0.1c0.6-0.3,1.2-0.6,1.8-0.8C48.2,27.1,48.4,26.5,48.2,26z"/>
			<path class="st15" d="M53.9,24.1c-0.2-0.5-0.7-0.8-1.2-0.7c-0.7,0.2-1.3,0.4-2,0.6c-0.5,0.2-0.8,0.7-0.6,1.3
				c0.1,0.4,0.5,0.7,0.9,0.7c0.1,0,0.2,0,0.3-0.1c0.6-0.2,1.2-0.4,1.9-0.6C53.7,25.2,54,24.6,53.9,24.1z"/>
			<path class="st15" d="M54.8,104.5c-0.6-0.2-1.3-0.3-1.9-0.5c-0.5-0.2-1.1,0.1-1.2,0.7c-0.2,0.5,0.1,1.1,0.7,1.2
				c0.7,0.2,1.3,0.4,2,0.5c0.1,0,0.2,0,0.2,0c0.4,0,0.9-0.3,1-0.8C55.6,105.2,55.3,104.7,54.8,104.5z"/>
			<path class="st15" d="M44,100.2c-0.6-0.3-1.1-0.7-1.7-1c-0.5-0.3-1.1-0.2-1.4,0.3s-0.2,1.1,0.3,1.4c0.6,0.4,1.2,0.7,1.7,1.1
				c0.2,0.1,0.3,0.1,0.5,0.1c0.3,0,0.7-0.2,0.9-0.5C44.6,101.1,44.4,100.4,44,100.2z"/>
			<path class="st15" d="M42.5,30.1c0.5-0.3,0.6-0.9,0.3-1.4c-0.3-0.5-0.9-0.6-1.4-0.3c-0.6,0.4-1.1,0.7-1.7,1.1
				c-0.5,0.3-0.6,0.9-0.2,1.4c0.2,0.3,0.5,0.4,0.8,0.4c0.2,0,0.4-0.1,0.6-0.2C41.5,30.9,42,30.5,42.5,30.1z"/>
			<path class="st15" d="M37.8,33.6c0.4-0.4,0.5-1,0.1-1.4c-0.4-0.4-1-0.5-1.4-0.1c-0.5,0.4-1,0.9-1.5,1.4c-0.4,0.4-0.4,1,0,1.4
				c0.2,0.2,0.5,0.3,0.7,0.3c0.2,0,0.5-0.1,0.7-0.3C36.9,34.5,37.4,34,37.8,33.6z"/>
			<path class="st15" d="M33.5,91.5c-0.4-0.4-1-0.5-1.4-0.1c-0.4,0.4-0.5,1-0.1,1.4c0.4,0.5,0.9,1,1.4,1.5c0.2,0.2,0.5,0.3,0.7,0.3
				c0.2,0,0.5-0.1,0.7-0.3c0.4-0.4,0.4-1,0-1.4C34.4,92.4,33.9,91.9,33.5,91.5z"/>
			<path class="st15" d="M37.6,95.6c-0.4-0.4-1-0.3-1.4,0.1c-0.4,0.4-0.3,1,0.1,1.4c0.5,0.4,1,0.9,1.6,1.3c0.2,0.1,0.4,0.2,0.6,0.2
				c0.3,0,0.6-0.1,0.8-0.4c0.3-0.4,0.3-1.1-0.2-1.4C38.6,96.5,38.1,96,37.6,95.6z"/>
		</g>
		<path class="st16" d="M29,70c0-3.9-3.1-7-7-7s-7,3.1-7,7s3.1,7,7,7c0.5,0,0.9,0,1.3-0.1c0.2,0.6,0.4,1.2,0.6,1.8
			c0.1,0.4,0.5,0.7,0.9,0.7c0.1,0,0.2,0,0.3-0.1c0.5-0.2,0.8-0.7,0.6-1.3c-0.2-0.6-0.4-1.2-0.6-1.8C27.5,75,29,72.7,29,70z M22,75
			c-2.8,0-5-2.2-5-5s2.2-5,5-5s5,2.2,5,5S24.8,75,22,75z"/>
		<path class="st16" d="M112.7,53.9c-0.5-1.8-1.8-3.3-3.4-4.1c-1.7-0.9-3.5-1.1-5.3-0.5c-3.7,1.1-5.8,5.1-4.6,8.7
			c0.5,1.8,1.8,3.3,3.4,4.1c1,0.5,2,0.8,3.1,0.8c0,0.6,0.2,1.1,0.2,1.7v0.2c0,0.6,0.4,1,1,1s1-0.4,1-1v-0.2c0-0.6-0.2-1.2-0.2-1.8
			c0,0,0,0,0-0.1c0.1,0,0.2,0,0.3-0.1C111.7,61.6,113.8,57.6,112.7,53.9z M107.5,60.8c-1.3,0.4-2.6,0.3-3.8-0.4
			c-1.2-0.6-2-1.7-2.4-2.9c-0.8-2.6,0.7-5.4,3.3-6.2c0.5-0.1,1-0.2,1.5-0.2c0.8,0,1.6,0.2,2.3,0.6c1.2,0.6,2,1.7,2.4,2.9
			C111.6,57.2,110.1,60,107.5,60.8z"/>
		<g class="st6">
			<path class="st15" d="M36.9,73.3c-0.2-0.6-0.4-1.2-0.5-1.9c-0.1-0.5-0.7-0.9-1.2-0.7c-0.5,0.1-0.9,0.7-0.7,1.2
				c0.2,0.7,0.3,1.3,0.5,2c0.1,0.4,0.5,0.7,1,0.7c0.1,0,0.2,0,0.3,0C36.8,74.4,37,73.8,36.9,73.3z"/>
			<path class="st15" d="M34.8,68.7c0.5-0.1,0.9-0.5,0.9-1.1c-0.1-0.6-0.1-1.3-0.1-1.9c0-0.6-0.5-1-1-1c-0.6,0-1,0.5-1,1
				c0,0.7,0.1,1.4,0.1,2.1c0.1,0.5,0.5,0.9,1,0.9C34.8,68.8,34.8,68.8,34.8,68.7z"/>
			<path class="st15" d="M38.3,76.9c-0.2-0.5-0.8-0.7-1.3-0.5c-0.5,0.2-0.7,0.8-0.5,1.3c0.3,0.6,0.6,1.2,0.9,1.8
				c0.2,0.3,0.5,0.5,0.9,0.5c0.2,0,0.3,0,0.5-0.1c0.5-0.3,0.7-0.9,0.4-1.4C38.8,78.1,38.5,77.5,38.3,76.9z"/>
			<path class="st15" d="M41.2,81.9c-0.3-0.4-1-0.5-1.4-0.2c-0.4,0.3-0.5,1-0.2,1.4c0.4,0.5,0.8,1.1,1.3,1.6
				c0.2,0.2,0.5,0.4,0.8,0.4c0.2,0,0.5-0.1,0.6-0.2c0.4-0.4,0.5-1,0.1-1.4C42,82.9,41.6,82.4,41.2,81.9z"/>
			<path class="st15" d="M48.3,39.5c-0.3-0.5-0.9-0.6-1.4-0.3c-0.6,0.4-1.1,0.8-1.7,1.2c-0.4,0.3-0.5,1-0.2,1.4
				c0.2,0.2,0.5,0.4,0.8,0.4c0.2,0,0.4-0.1,0.6-0.2c0.5-0.4,1-0.8,1.6-1.2C48.5,40.6,48.6,39.9,48.3,39.5z"/>
			<path class="st15" d="M45.1,86.2c-0.4-0.4-1-0.3-1.4,0.1c-0.4,0.4-0.3,1,0.1,1.4c0.5,0.5,1,0.9,1.6,1.3c0.2,0.1,0.4,0.2,0.6,0.2
				c0.3,0,0.6-0.1,0.8-0.4c0.3-0.4,0.3-1.1-0.2-1.4C46.1,87.1,45.6,86.6,45.1,86.2z"/>
			<path class="st15" d="M35.6,56.9c0.1,0,0.2,0,0.3,0c0.4,0,0.8-0.3,1-0.7c0.2-0.6,0.4-1.2,0.6-1.8c0.2-0.5-0.1-1.1-0.6-1.3
				c-0.5-0.2-1.1,0.1-1.3,0.6c-0.2,0.6-0.5,1.3-0.7,2C34.8,56.1,35.1,56.7,35.6,56.9z"/>
			<path class="st15" d="M56.5,36.8c0.1,0,0.2,0,0.3,0c0.6-0.2,1.3-0.3,1.9-0.5c0.5-0.1,0.9-0.6,0.8-1.2s-0.6-0.9-1.2-0.8
				c-0.7,0.1-1.3,0.3-2,0.5c-0.5,0.1-0.8,0.7-0.7,1.2C55.7,36.5,56.1,36.8,56.5,36.8z"/>
			<path class="st15" d="M90.8,52.3c0.3,0.6,0.5,1.2,0.8,1.8c0.2,0.4,0.5,0.6,0.9,0.6c0.1,0,0.2,0,0.4-0.1c0.5-0.2,0.8-0.8,0.6-1.3
				c-0.2-0.6-0.5-1.3-0.8-1.9c-0.2-0.5-0.8-0.7-1.3-0.5C90.7,51.2,90.5,51.8,90.8,52.3z"/>
			<path class="st15" d="M92.7,57.7c0.2,0.6,0.3,1.3,0.4,1.9c0.1,0.5,0.5,0.8,1,0.8c0.1,0,0.1,0,0.2,0c0.5-0.1,0.9-0.6,0.8-1.2
				c-0.1-0.7-0.3-1.4-0.4-2c-0.1-0.5-0.7-0.9-1.2-0.7C92.9,56.6,92.6,57.2,92.7,57.7z"/>
			<path class="st15" d="M34.6,62.8c0,0,0.1,0,0.1,0c0.5,0,0.9-0.4,1-0.9c0.1-0.6,0.1-1.3,0.3-1.9c0.1-0.5-0.3-1.1-0.8-1.2
				c-0.6-0.1-1.1,0.3-1.2,0.8c-0.1,0.7-0.2,1.4-0.3,2C33.7,62.2,34.1,62.7,34.6,62.8z"/>
			<path class="st15" d="M37.7,51.3c0.2,0.1,0.3,0.1,0.5,0.1c0.4,0,0.7-0.2,0.9-0.5c0.3-0.6,0.6-1.1,1-1.7c0.3-0.5,0.2-1.1-0.3-1.4
				c-0.5-0.3-1.1-0.2-1.4,0.3c-0.4,0.6-0.7,1.2-1,1.8C37.1,50.4,37.3,51,37.7,51.3z"/>
			<path class="st15" d="M41.6,46.4c0.3,0,0.6-0.1,0.8-0.4c0.4-0.5,0.8-1,1.3-1.4c0.4-0.4,0.4-1,0-1.4c-0.4-0.4-1-0.4-1.4,0
				c-0.5,0.5-0.9,1-1.4,1.5c-0.4,0.4-0.3,1.1,0.1,1.4C41.1,46.3,41.4,46.4,41.6,46.4z"/>
			<path class="st15" d="M50.9,39c0.2,0,0.3,0,0.5-0.1c0.6-0.3,1.2-0.6,1.8-0.8c0.5-0.2,0.7-0.8,0.5-1.3c-0.2-0.5-0.8-0.7-1.3-0.5
				c-0.6,0.3-1.3,0.6-1.9,0.9C50,37.4,49.8,38,50,38.5C50.2,38.8,50.6,39,50.9,39z"/>
			<path class="st15" d="M79.2,89.7c-0.6,0.3-1.1,0.6-1.7,0.9c-0.5,0.2-0.7,0.8-0.4,1.3c0.2,0.4,0.5,0.6,0.9,0.6
				c0.2,0,0.3,0,0.4-0.1c0.6-0.3,1.2-0.6,1.8-1c0.5-0.3,0.6-0.9,0.4-1.4C80.3,89.6,79.7,89.5,79.2,89.7z"/>
			<path class="st15" d="M90.6,47.8c-0.4-0.6-0.8-1.1-1.2-1.7c-0.3-0.4-1-0.5-1.4-0.2c-0.4,0.3-0.5,1-0.2,1.4c0.4,0.5,0.8,1,1.1,1.6
				c0.2,0.3,0.5,0.5,0.8,0.5c0.2,0,0.4-0.1,0.5-0.2C90.7,48.9,90.9,48.3,90.6,47.8z"/>
			<path class="st15" d="M83.9,86.3c-0.5,0.4-1,0.8-1.5,1.2c-0.4,0.3-0.5,1-0.2,1.4c0.2,0.3,0.5,0.4,0.8,0.4c0.2,0,0.4-0.1,0.6-0.2
				c0.5-0.4,1.1-0.9,1.6-1.3c0.4-0.4,0.4-1,0.1-1.4C85,86,84.3,86,83.9,86.3z"/>
			<path class="st15" d="M86.7,43c-0.5-0.5-1-1-1.5-1.4c-0.4-0.4-1-0.3-1.4,0.1c-0.4,0.4-0.3,1,0.1,1.4c0.5,0.4,0.9,0.9,1.4,1.3
				c0.2,0.2,0.5,0.3,0.7,0.3c0.3,0,0.5-0.1,0.7-0.3C87.1,44,87.1,43.4,86.7,43z"/>
			<path class="st15" d="M87.8,82.1c-0.4,0.5-0.8,1-1.2,1.5c-0.4,0.4-0.3,1.1,0.1,1.4c0.2,0.2,0.4,0.2,0.7,0.2
				c0.3,0,0.6-0.1,0.8-0.3c0.4-0.5,0.9-1.1,1.3-1.6c0.3-0.4,0.2-1.1-0.2-1.4C88.8,81.5,88.2,81.6,87.8,82.1z"/>
			<path class="st15" d="M95.6,63.4c0-0.6-0.5-1-1-1c-0.6,0-1,0.5-1,1c0,0.4,0,0.8,0,1.3c0,0.2,0,0.3,0,0.5c0,0.6,0.4,0.8,1,0.8
				c0,0,0,0,0,0c0.5,0,1-0.2,1-0.8c0-0.2,0-0.4,0-0.6C95.6,64.1,95.6,63.8,95.6,63.4z"/>
			<path class="st15" d="M92.1,76.6c-0.5-0.2-1.1,0-1.3,0.5c-0.3,0.6-0.6,1.2-0.9,1.7c-0.3,0.5-0.1,1.1,0.4,1.4
				c0.2,0.1,0.3,0.1,0.5,0.1c0.4,0,0.7-0.2,0.9-0.5c0.3-0.6,0.6-1.2,0.9-1.8C92.9,77.5,92.6,76.9,92.1,76.6z"/>
			<path class="st15" d="M94.4,68.4c-0.5-0.1-1.1,0.3-1.1,0.8c-0.1,0.6-0.2,1.3-0.4,1.9c0,0.1,0,0.2,0,0.3c0,0.1-0.1,0.2-0.1,0.3
				c-0.2,0.6-0.3,1.3-0.5,1.9c-0.2,0.5,0.1,1.1,0.7,1.3c0.1,0,0.2,0,0.3,0c0.4,0,0.8-0.3,1-0.7c0.2-0.7,0.4-1.3,0.6-2
				c0-0.1,0-0.2,0-0.3c0-0.1,0.1-0.2,0.1-0.3c0.2-0.7,0.3-1.4,0.4-2C95.3,69,94.9,68.5,94.4,68.4z"/>
			<path class="st15" d="M68.3,93.5c-0.6,0.1-1.3,0.1-1.9,0.2c-0.6,0-1,0.5-0.9,1.1c0,0.5,0.5,0.9,1,0.9c0,0,0,0,0.1,0
				c0.7,0,1.4-0.1,2.1-0.2c0.5-0.1,0.9-0.6,0.9-1.1C69.4,93.8,68.9,93.4,68.3,93.5z"/>
			<path class="st15" d="M70.5,34.3c-0.7-0.1-1.4-0.2-2-0.3c-0.5-0.1-1,0.3-1.1,0.9c-0.1,0.5,0.3,1,0.9,1.1c0.6,0.1,1.3,0.2,1.9,0.3
				c0.1,0,0.1,0,0.2,0c0.5,0,0.9-0.3,1-0.8C71.4,34.9,71.1,34.4,70.5,34.3z"/>
			<path class="st15" d="M81.9,39c-0.6-0.4-1.2-0.8-1.8-1.1c-0.5-0.3-1.1-0.1-1.4,0.4c-0.3,0.5-0.1,1.1,0.4,1.4
				c0.6,0.3,1.1,0.7,1.6,1c0.2,0.1,0.4,0.2,0.6,0.2c0.3,0,0.6-0.2,0.8-0.4C82.5,39.9,82.4,39.3,81.9,39z"/>
			<path class="st15" d="M64.4,34C64.4,34,64.4,34,64.4,34c-0.7,0-1.4-0.1-2.1-0.1c-0.6,0-1,0.4-0.9,1c0,0.5,0.5,0.9,1,0.9
				c0,0,0,0,0.1,0c0.6,0,1.3-0.1,1.9-0.1c0.6,0,1-0.3,1-0.9C65.4,34.3,64.9,34,64.4,34z"/>
			<path class="st15" d="M74,92.2c-0.6,0.2-1.2,0.4-1.8,0.6c-0.5,0.1-0.8,0.7-0.7,1.2c0.1,0.4,0.5,0.7,1,0.7c0.1,0,0.2,0,0.3,0
				c0.7-0.2,1.3-0.4,2-0.6c0.5-0.2,0.8-0.7,0.6-1.3S74.5,92,74,92.2z"/>
			<path class="st15" d="M76.5,36.1c-0.6-0.3-1.3-0.5-1.9-0.7c-0.5-0.2-1.1,0.1-1.3,0.6s0.1,1.1,0.6,1.3c0.6,0.2,1.2,0.4,1.8,0.7
				C75.8,38,76,38,76.1,38c0.4,0,0.8-0.2,0.9-0.6C77.2,36.9,77,36.3,76.5,36.1z"/>
			<path class="st15" d="M59.1,87.1c-3.1-0.8-6.3,0.7-7.8,3.4c-0.5-0.3-1-0.5-1.5-0.8c-0.5-0.3-1.1-0.1-1.4,0.3s-0.1,1.1,0.3,1.4
				c0.6,0.4,1.2,0.7,1.8,1c0,0,0,0,0,0c-0.8,3.7,1.5,7.4,5.2,8.3c0.6,0.1,1.1,0.2,1.7,0.2c3.1,0,6-2.1,6.8-5.3
				C65.1,91.8,62.8,88,59.1,87.1z M62.3,95c-0.7,2.7-3.4,4.3-6,3.7c-2.7-0.7-4.3-3.4-3.7-6c0.6-2.3,2.6-3.8,4.9-3.8
				c0.4,0,0.8,0,1.2,0.1C61.3,89.7,62.9,92.4,62.3,95z"/>
		</g>
	</g>
	<g id="Live_Paint_8_">
		<g>
			<g id="XMLID_25_">
				<g>
					<path class="st8" d="M110.8,54.5c0.8,2.6-0.7,5.4-3.3,6.2c-1.3,0.4-2.6,0.3-3.8-0.4c-1.2-0.6-2.1-1.7-2.4-2.9
						c-0.8-2.6,0.7-5.4,3.3-6.2c0.5-0.2,1-0.2,1.5-0.2c0.8,0,1.6,0.2,2.3,0.6C109.5,52.2,110.4,53.2,110.8,54.5z"/>
					<circle class="st9" cx="22" cy="70" r="5"/>
					<path class="st11" d="M58.6,89c2.7,0.7,4.3,3.4,3.7,6.1c-0.7,2.7-3.4,4.3-6,3.7c-2.7-0.6-4.3-3.4-3.7-6
						c0.6-2.3,2.6-3.8,4.9-3.8C57.8,88.8,58.2,88.9,58.6,89z"/>
					<path class="st10" d="M68.9,47.2c9.7,2.4,15.6,12.1,13.2,21.8c-2.4,9.7-12.1,15.6-21.8,13.2c-9.6-2.4-15.5-12.1-13.2-21.8
						C49.5,50.8,59.2,44.9,68.9,47.2z"/>
					<path class="st15" d="M107.4,69c-0.1,0.7-0.2,1.4-0.2,2c-0.1,0.5-0.5,0.8-1,0.8c0,0-0.1,0-0.1,0c-0.1,0-0.1,0-0.2,0
						c-0.4-0.2-0.7-0.6-0.7-1.1c0.1-0.7,0.2-1.3,0.2-1.9c0.1-0.5,0.5-0.9,1-0.9c0,0,0.1,0,0.1,0C107,67.9,107.4,68.4,107.4,69z"/>
					<path class="st15" d="M105.6,73.8c0.5,0.1,0.9,0.7,0.7,1.2c-0.2,0.7-0.3,1.3-0.5,2c-0.1,0.4-0.5,0.7-1,0.7c-0.1,0-0.2,0-0.3,0
						c-0.1,0-0.1,0-0.2-0.1c-0.4-0.2-0.7-0.7-0.5-1.2c0.2-0.6,0.4-1.2,0.5-1.9c0.1-0.5,0.5-0.8,1-0.8
						C105.4,73.7,105.5,73.8,105.6,73.8z"/>
					<path class="st15" d="M101.8,81.9c0.3-0.6,0.5-1.2,0.8-1.8c0.2-0.4,0.5-0.6,0.9-0.6c0.1,0,0.2,0,0.4,0.1
						c0.5,0.2,0.8,0.8,0.5,1.3c-0.2,0.6-0.5,1.3-0.8,1.9c-0.2,0.4-0.5,0.6-0.9,0.6c-0.1,0-0.3,0-0.4-0.1c-0.1,0-0.2-0.1-0.2-0.2
						C101.8,82.8,101.6,82.3,101.8,81.9z"/>
					<path class="st15" d="M101.9,47.8c-0.3-0.6-0.6-1.2-0.8-1.8c-0.2-0.4-0.1-0.9,0.2-1.2c0.1-0.1,0.1-0.1,0.2-0.2
						c0.5-0.2,1.1,0,1.3,0.4c0.3,0.6,0.6,1.2,0.9,1.8c0.2,0.5,0,1-0.4,1.3c0,0-0.1,0-0.1,0.1c-0.1,0.1-0.3,0.1-0.4,0.1
						C102.5,48.4,102.1,48.2,101.9,47.8z"/>
					<path class="st15" d="M101.4,85c0.5,0.3,0.6,0.9,0.4,1.4c-0.3,0.6-0.7,1.2-1.1,1.8c-0.2,0.3-0.5,0.5-0.8,0.5
						c-0.2,0-0.4-0.1-0.5-0.2c-0.1,0-0.1-0.1-0.2-0.2c-0.3-0.3-0.3-0.8-0.1-1.2c0.3-0.6,0.7-1.1,1-1.7c0.2-0.3,0.5-0.5,0.9-0.5
						C101.1,84.8,101.2,84.9,101.4,85z"/>
					<path class="st15" d="M102.7,62.2c-1.7-0.9-2.9-2.3-3.4-4.1c-1.1-3.6,0.9-7.5,4.5-8.7c0.1,0,0.1,0,0.2-0.1
						c1.8-0.6,3.7-0.4,5.3,0.5c1.7,0.9,2.9,2.3,3.4,4.1c1.1,3.7-0.9,7.6-4.6,8.8c-0.1,0-0.2,0.1-0.3,0.1c0,0,0,0,0,0.1
						c0,0.6,0.2,1.2,0.2,1.8v0.2c0,0.6-0.4,1-1,1c-0.1,0-0.1,0-0.2,0c-0.5-0.1-0.8-0.5-0.8-1v-0.2c0-0.6-0.2-1.1-0.2-1.7
						C104.8,63,103.7,62.7,102.7,62.2z M101.2,57.5c0.4,1.3,1.3,2.3,2.4,2.9c1.2,0.6,2.5,0.8,3.8,0.4c2.6-0.8,4.1-3.6,3.3-6.2
						c-0.4-1.3-1.3-2.3-2.4-2.9c-0.7-0.4-1.5-0.6-2.3-0.6c-0.5,0-1,0.1-1.5,0.2C101.9,52,100.4,54.8,101.2,57.5z"/>
					<path class="st15" d="M100.8,41.6c0.3,0.5,0.2,1.1-0.3,1.4c-0.2,0.1-0.3,0.2-0.5,0.2c-0.3,0-0.7-0.2-0.8-0.5
						c-0.4-0.5-0.7-1.1-1.1-1.6c-0.3-0.4-0.2-0.9,0.1-1.2c0.1-0.1,0.1-0.1,0.2-0.2c0.5-0.3,1.1-0.2,1.4,0.2
						C100.1,40.5,100.5,41,100.8,41.6z"/>
					<path class="st15" d="M95.4,92.9c-0.3-0.4-0.3-0.9,0.1-1.2c0.4-0.5,0.8-1,1.2-1.5c0.2-0.2,0.5-0.4,0.8-0.4
						c0.2,0,0.4,0.1,0.6,0.2c0.4,0.3,0.5,1,0.2,1.4c-0.4,0.5-0.9,1.1-1.3,1.6c-0.2,0.2-0.5,0.3-0.8,0.3c-0.2,0-0.5-0.1-0.7-0.2
						C95.5,93,95.5,93,95.4,92.9z"/>
					<path class="st15" d="M95.7,38c-0.4-0.5-0.9-1-1.3-1.5c-0.3-0.4-0.4-0.9-0.1-1.3c0-0.1,0.1-0.1,0.1-0.2c0.4-0.4,1-0.4,1.4,0
						c0.5,0.5,0.9,1,1.4,1.5c0.4,0.4,0.3,1.1-0.1,1.4c-0.2,0.2-0.4,0.2-0.7,0.2C96.2,38.3,95.9,38.2,95.7,38z"/>
					<path class="st15" d="M95.6,64.6c0,0.2,0,0.4,0,0.6c0,0.5-0.5,0.8-1,0.8c0,0,0,0,0,0c0,0,0,0-0.1,0c-0.5,0-0.9-0.3-0.9-0.8
						c0-0.2,0-0.3,0-0.5c0-0.4,0-0.8,0-1.3c0-0.6,0.4-1,1-1c0.6,0,1,0.4,1,1C95.6,63.8,95.6,64.2,95.6,64.6z"/>
					<path class="st15" d="M93.1,59.6c-0.1-0.6-0.2-1.3-0.4-1.9c-0.1-0.5,0.1-1,0.6-1.2c0,0,0.1,0,0.2,0c0.5-0.1,1.1,0.2,1.2,0.7
						c0.2,0.7,0.3,1.3,0.4,2c0.1,0.5-0.3,1.1-0.8,1.2c-0.1,0-0.1,0-0.2,0C93.6,60.4,93.2,60.1,93.1,59.6z"/>
					<path class="st15" d="M94.2,95.9c-0.5,0.5-1,0.9-1.5,1.4c-0.2,0.2-0.4,0.2-0.6,0.2c-0.3,0-0.6-0.1-0.8-0.4
						c-0.1-0.1-0.1-0.2-0.2-0.3c-0.1-0.4,0-0.8,0.3-1.1c0.5-0.4,1-0.9,1.4-1.3c0.2-0.2,0.4-0.3,0.7-0.3c0.3,0,0.5,0.1,0.7,0.3
						C94.6,94.9,94.6,95.6,94.2,95.9z"/>
					<path class="st15" d="M92.7,71.6c0-0.1,0.1-0.2,0.1-0.2c0-0.1,0-0.2,0-0.3c0.2-0.6,0.3-1.3,0.4-1.9c0.1-0.6,0.6-0.9,1.1-0.8
						c0.5,0.1,0.9,0.6,0.8,1.1c-0.1,0.7-0.2,1.4-0.4,2c0,0.1,0,0.2-0.1,0.3c0,0.1,0,0.2,0,0.3c-0.2,0.7-0.3,1.3-0.6,2
						c-0.1,0.4-0.5,0.7-1,0.7c-0.1,0-0.2,0-0.3,0c-0.1,0-0.1,0-0.2-0.1c-0.4-0.2-0.7-0.7-0.5-1.2C92.4,72.9,92.6,72.3,92.7,71.6z"/>
					<path class="st15" d="M92.9,32.3c0.4,0.4,0.5,1,0.1,1.4c-0.2,0.2-0.5,0.3-0.8,0.3c-0.2,0-0.5-0.1-0.7-0.2
						c-0.5-0.4-1-0.9-1.5-1.2c-0.3-0.3-0.5-0.7-0.3-1.1c0-0.1,0.1-0.2,0.2-0.3c0.3-0.4,1-0.5,1.4-0.2C91.8,31.4,92.4,31.9,92.9,32.3
						z"/>
					<path class="st15" d="M92.6,51.4c0.3,0.6,0.6,1.3,0.8,1.9c0.2,0.5-0.1,1.1-0.6,1.3c-0.1,0.1-0.2,0.1-0.4,0.1
						c-0.4,0-0.8-0.2-0.9-0.6c-0.2-0.6-0.5-1.2-0.8-1.8c-0.2-0.4-0.1-0.9,0.2-1.2c0.1-0.1,0.2-0.1,0.2-0.2
						C91.7,50.7,92.3,50.9,92.6,51.4z"/>
					<path class="st15" d="M92.1,76.6c0.5,0.2,0.7,0.8,0.5,1.3c-0.3,0.6-0.6,1.2-0.9,1.8c-0.2,0.3-0.5,0.5-0.9,0.5
						c-0.2,0-0.3,0-0.5-0.1c-0.1,0-0.2-0.1-0.2-0.2c-0.3-0.3-0.4-0.8-0.2-1.2c0.3-0.6,0.6-1.1,0.9-1.7c0.2-0.4,0.5-0.6,0.9-0.6
						C91.9,76.5,92,76.6,92.1,76.6z"/>
					<path class="st15" d="M88.9,48.9c-0.3-0.5-0.7-1.1-1.1-1.6c-0.3-0.4-0.3-0.9,0-1.2c0-0.1,0.1-0.1,0.2-0.2
						c0.4-0.3,1.1-0.2,1.4,0.2c0.4,0.5,0.8,1.1,1.2,1.7c0.3,0.5,0.2,1.1-0.3,1.4c-0.2,0.1-0.3,0.2-0.5,0.2
						C89.4,49.3,89.1,49.2,88.9,48.9z"/>
					<path class="st15" d="M88.2,98.2c0.2-0.1,0.4-0.2,0.6-0.2c0.3,0,0.6,0.2,0.8,0.4c0.3,0.4,0.2,1.1-0.2,1.4
						c-0.6,0.4-1.1,0.8-1.7,1.1c-0.2,0.1-0.4,0.2-0.5,0.2c-0.3,0-0.7-0.2-0.8-0.5c-0.1-0.1-0.1-0.2-0.1-0.3c-0.1-0.4,0-0.9,0.4-1.1
						C87.2,98.9,87.7,98.6,88.2,98.2z"/>
					<path class="st15" d="M89.4,83.3c-0.4,0.5-0.8,1.1-1.3,1.6c-0.2,0.2-0.5,0.3-0.8,0.3c-0.2,0-0.5-0.1-0.6-0.2
						c-0.1-0.1-0.1-0.1-0.2-0.2c-0.3-0.4-0.3-0.9,0-1.2c0.4-0.5,0.8-1,1.2-1.5c0.2-0.3,0.5-0.4,0.8-0.4c0.2,0,0.4,0.1,0.6,0.2
						C89.7,82.2,89.8,82.8,89.4,83.3z"/>
					<path class="st15" d="M88,28.6c0.5,0.3,0.6,0.9,0.3,1.4c-0.2,0.3-0.5,0.4-0.8,0.4c-0.2,0-0.4,0-0.5-0.2c-0.6-0.3-1.1-0.7-1.7-1
						c-0.4-0.2-0.6-0.7-0.5-1.1c0-0.1,0.1-0.2,0.1-0.2c0.3-0.5,0.9-0.6,1.4-0.4C86.8,27.9,87.4,28.2,88,28.6z"/>
					<path class="st15" d="M83.9,43c-0.3-0.3-0.4-0.7-0.3-1.1c0-0.1,0.1-0.2,0.2-0.3c0.4-0.4,1-0.5,1.4-0.1c0.5,0.5,1,0.9,1.5,1.4
						c0.4,0.4,0.4,1,0,1.4c-0.2,0.2-0.4,0.3-0.7,0.3c-0.3,0-0.5-0.1-0.7-0.3C84.8,43.9,84.3,43.5,83.9,43z"/>
					<path class="st15" d="M85.2,87.8c-0.5,0.5-1.1,0.9-1.6,1.3c-0.2,0.1-0.4,0.2-0.6,0.2c-0.3,0-0.6-0.1-0.8-0.4
						c-0.1-0.1-0.1-0.2-0.2-0.3c-0.1-0.4,0-0.8,0.3-1.1c0.5-0.4,1-0.8,1.5-1.2c0.2-0.2,0.4-0.2,0.7-0.2c0.3,0,0.5,0.1,0.8,0.3
						C85.7,86.8,85.7,87.5,85.2,87.8z"/>
					<path class="st15" d="M83.2,101.2c0.1-0.1,0.3-0.1,0.5-0.1c0.4,0,0.7,0.2,0.9,0.6c0.2,0.5,0.1,1.1-0.4,1.3
						c-0.6,0.3-1.2,0.6-1.8,0.9c-0.1,0.1-0.3,0.1-0.4,0.1c-0.3,0-0.6-0.1-0.8-0.3c-0.1-0.1-0.1-0.2-0.2-0.2c-0.2-0.5,0-1.1,0.5-1.3
						C82.1,101.8,82.7,101.5,83.2,101.2z"/>
					<path class="st15" d="M81.9,39c0.4,0.3,0.6,0.9,0.3,1.4c-0.2,0.3-0.5,0.4-0.8,0.4c-0.2,0-0.4,0-0.6-0.2c-0.5-0.3-1.1-0.7-1.6-1
						c-0.5-0.3-0.6-0.9-0.4-1.4c0.1-0.2,0.2-0.3,0.4-0.4c0.3-0.2,0.7-0.2,1,0C80.8,38.3,81.4,38.6,81.9,39z"/>
					<path class="st15" d="M82.6,25.7c0.5,0.2,0.7,0.8,0.5,1.3c-0.2,0.4-0.5,0.6-0.9,0.6c-0.1,0-0.3,0-0.4-0.1
						c-0.6-0.3-1.2-0.5-1.8-0.8c-0.5-0.2-0.8-0.8-0.5-1.3c0-0.1,0.1-0.2,0.2-0.3c0.3-0.3,0.7-0.4,1.1-0.3
						C81.3,25.1,82,25.4,82.6,25.7z"/>
					<path class="st15" d="M77.5,90.7c0.6-0.3,1.1-0.6,1.7-0.9c0.2-0.1,0.3-0.1,0.5-0.1c0.3,0,0.7,0.2,0.9,0.5
						c0.3,0.5,0.1,1.1-0.3,1.4c-0.6,0.3-1.2,0.7-1.8,1c-0.1,0.1-0.3,0.1-0.4,0.1c-0.2,0-0.4,0-0.5-0.1c-0.2-0.1-0.3-0.2-0.4-0.4
						C76.8,91.5,77,90.9,77.5,90.7z"/>
					<path class="st15" d="M78.5,105.4c-0.6,0.2-1.3,0.4-1.9,0.6c-0.1,0-0.2,0-0.3,0c-0.4,0-0.7-0.2-0.9-0.6c0-0.1,0-0.1-0.1-0.2
						c-0.2-0.5,0.2-1.1,0.7-1.2c0.6-0.2,1.2-0.4,1.9-0.6c0.4-0.1,0.8,0,1,0.2c0.1,0.1,0.2,0.2,0.2,0.4
						C79.3,104.7,79,105.2,78.5,105.4z"/>
					<path class="st15" d="M76.5,36.1c0.5,0.2,0.8,0.8,0.5,1.3c-0.1,0.2-0.2,0.4-0.4,0.5C76.5,38,76.3,38,76.1,38
						c-0.1,0-0.3,0-0.4-0.1c-0.6-0.2-1.2-0.5-1.8-0.7c-0.5-0.2-0.8-0.7-0.6-1.3c0,0,0-0.1,0.1-0.1c0.2-0.4,0.7-0.6,1.2-0.5
						C75.2,35.6,75.8,35.8,76.5,36.1z"/>
					<path class="st15" d="M77.4,25c-0.2,0.3-0.5,0.4-0.8,0.4c-0.1,0-0.2,0-0.3,0c-0.6-0.2-1.2-0.4-1.9-0.5
						c-0.5-0.1-0.9-0.7-0.7-1.2c0-0.1,0-0.1,0.1-0.2c0.2-0.4,0.7-0.7,1.2-0.6c0.7,0.2,1.3,0.3,2,0.5c0.5,0.2,0.8,0.7,0.7,1.2
						C77.5,24.9,77.4,25,77.4,25z"/>
					<path class="st15" d="M74,92.2c0.4-0.1,0.9,0,1.1,0.3c0.1,0.1,0.1,0.2,0.2,0.3c0.2,0.5-0.1,1.1-0.6,1.3c-0.6,0.2-1.3,0.4-2,0.6
						c-0.1,0-0.2,0-0.3,0c-0.4,0-0.8-0.2-0.9-0.6c0-0.1,0-0.1-0.1-0.2c-0.1-0.5,0.2-1.1,0.7-1.2C72.8,92.6,73.4,92.4,74,92.2z"/>
					<path class="st15" d="M72.2,105c0.5-0.1,1,0.2,1.1,0.6c0,0.1,0,0.1,0.1,0.2c0.1,0.5-0.2,1.1-0.8,1.2c-0.7,0.1-1.3,0.2-2,0.3
						c0,0-0.1,0-0.1,0c-0.5,0-0.9-0.4-1-0.9c-0.1-0.5,0.3-1,0.8-1.1C70.9,105.2,71.6,105.1,72.2,105z"/>
					<path class="st15" d="M71.7,23.5c-0.1,0.4-0.5,0.7-1,0.7c0,0-0.1,0-0.2,0c-0.6-0.1-1.3-0.2-1.9-0.2c-0.5,0-0.9-0.5-0.9-1
						c0,0,0-0.1,0-0.1c0.1-0.5,0.6-0.9,1.1-0.9c0.7,0.1,1.3,0.1,2,0.2c0.6,0.1,0.9,0.6,0.8,1.1C71.7,23.4,71.7,23.4,71.7,23.5z"/>
					<path class="st15" d="M70.6,34.3c0.5,0.1,0.9,0.6,0.8,1.2c0,0.1-0.1,0.2-0.1,0.3c-0.2,0.3-0.5,0.5-0.8,0.5c-0.1,0-0.1,0-0.2,0
						c-0.6-0.1-1.3-0.2-1.9-0.3c-0.5-0.1-0.9-0.5-0.9-1c0,0,0-0.1,0-0.1c0.1-0.6,0.6-0.9,1.1-0.9C69.2,34,69.9,34.2,70.6,34.3z"/>
					<path class="st15" d="M68.6,95.5c-0.7,0.1-1.4,0.2-2,0.2c0,0-0.1,0-0.1,0c-0.5,0-1-0.4-1-0.9c0-0.1,0-0.2,0-0.2
						c0.1-0.4,0.4-0.8,0.9-0.8c0.6,0,1.3-0.1,1.9-0.2c0.5-0.1,0.9,0.2,1.1,0.7c0,0,0,0.1,0,0.2C69.5,94.9,69.2,95.4,68.6,95.5z"/>
					<path class="st15" d="M66.4,105.8c0.5,0,0.9,0.3,1,0.8c0,0.1,0,0.1,0,0.2c0,0.6-0.4,1-1,1c-0.6,0-1.2,0.2-1.9,0.2h-0.2
						c-0.5,0-1-0.5-1-1c0-0.1,0-0.1,0-0.2c0.1-0.5,0.5-0.8,1-0.8c0,0,0,0,0,0h0.2C65.2,106,65.8,105.8,66.4,105.8z"/>
					<path class="st15" d="M62.7,24c-0.5,0-1-0.5-1-1c0-0.5,0.4-1.1,0.9-1.1c0.6,0,1.2,0.1,1.9,0.1h0.2c0.5,0,1,0.5,1,1c0,0,0,0,0,0
						c0,0.5-0.5,1-1,1h-0.2C64,24,63.4,24,62.7,24C62.8,24,62.8,24,62.7,24z"/>
					<path class="st15" d="M62.3,33.9c0.7,0,1.4,0.1,2.1,0.1c0.6,0,1,0.3,1,0.8c0,0,0,0,0,0c0,0.5-0.4,0.9-1,0.9
						c-0.6,0-1.3,0-1.9,0.1c0,0-0.1,0-0.1,0c-0.5,0-0.9-0.3-1-0.7c0-0.1,0-0.1,0-0.2C61.4,34.4,61.8,34,62.3,33.9z"/>
					<path class="st15" d="M60.5,105.5c0.5,0.1,1,0.6,0.9,1.1c0,0.5-0.5,0.9-1,0.9c0,0-0.1,0-0.1,0c-0.7-0.1-1.3-0.2-2-0.2
						c-0.5-0.1-0.9-0.6-0.8-1.1c0-0.1,0-0.1,0-0.2c0.2-0.4,0.6-0.7,1.1-0.7C59.3,105.4,59.9,105.5,60.5,105.5z"/>
					<path class="st15" d="M56.6,22.5c0.7-0.1,1.3-0.2,2-0.3c0.5-0.1,1,0.3,1.1,0.8c0,0,0,0.1,0,0.1c0,0.5-0.4,0.9-0.9,1
						c-0.6,0.1-1.3,0.2-1.9,0.3c-0.1,0-0.1,0-0.2,0c-0.4,0-0.8-0.3-0.9-0.6c0-0.1,0-0.1,0-0.2C55.7,23.1,56.1,22.6,56.6,22.5z"/>
					<path class="st15" d="M56.2,34.9c0.7-0.2,1.3-0.4,2-0.5c0.5-0.1,1.1,0.2,1.2,0.8c0.1,0.5-0.2,1.1-0.8,1.2
						c-0.6,0.1-1.3,0.3-1.9,0.5c-0.1,0-0.2,0-0.3,0c-0.3,0-0.5-0.1-0.7-0.3c-0.1-0.1-0.2-0.2-0.2-0.4C55.4,35.6,55.7,35,56.2,34.9z"
						/>
					<path class="st15" d="M54.8,104.5c0.5,0.1,0.9,0.7,0.7,1.2c0,0.1,0,0.1,0,0.2c-0.2,0.4-0.5,0.6-0.9,0.6c-0.1,0-0.2,0-0.2,0
						c-0.7-0.2-1.3-0.3-2-0.5c-0.5-0.2-0.8-0.7-0.7-1.2c0-0.2,0.1-0.3,0.2-0.4c0.3-0.3,0.6-0.4,1-0.3
						C53.5,104.2,54.1,104.4,54.8,104.5z"/>
					<path class="st15" d="M58.6,89c-0.4-0.1-0.8-0.1-1.2-0.1c-2.2,0-4.3,1.5-4.9,3.8c-0.7,2.7,1,5.4,3.7,6c2.7,0.7,5.4-1,6-3.7
						C62.9,92.4,61.3,89.7,58.6,89z M51.3,90.5c1.5-2.7,4.7-4.2,7.8-3.4c3.4,0.8,5.6,4,5.3,7.3c0,0.4-0.1,0.8-0.2,1.1
						c-0.8,3.2-3.6,5.3-6.8,5.3c-0.6,0-1.1-0.1-1.7-0.2c-3.7-0.9-6-4.6-5.2-8.3c0,0,0,0,0,0c-0.6-0.3-1.2-0.7-1.8-1
						c-0.4-0.3-0.6-0.8-0.4-1.2c0,0,0-0.1,0.1-0.1c0.3-0.5,0.9-0.6,1.4-0.3C50.3,89.9,50.8,90.2,51.3,90.5z"/>
					<path class="st15" d="M50.5,37.1c0.6-0.3,1.2-0.6,1.9-0.9c0.5-0.2,1,0,1.2,0.4c0,0,0,0.1,0.1,0.1c0.2,0.5,0,1.1-0.5,1.3
						c-0.6,0.3-1.2,0.5-1.8,0.8C51.2,39,51.1,39,50.9,39c-0.4,0-0.7-0.2-0.9-0.5c0-0.1-0.1-0.1-0.1-0.2C49.8,37.8,50,37.3,50.5,37.1
						z"/>
					<path class="st15" d="M50.7,24c0.6-0.2,1.3-0.4,2-0.6c0.5-0.1,1,0.1,1.2,0.5c0,0,0,0.1,0.1,0.2c0.1,0.5-0.2,1.1-0.7,1.2
						c-0.6,0.2-1.2,0.4-1.9,0.6C51.2,26,51.1,26,51,26c-0.3,0-0.5-0.1-0.7-0.3c-0.1-0.1-0.2-0.2-0.2-0.4
						C49.9,24.8,50.2,24.2,50.7,24z"/>
					<path class="st15" d="M45.3,40.5c0.5-0.4,1.1-0.8,1.7-1.2c0.2-0.1,0.4-0.2,0.6-0.2c0.3,0,0.6,0.2,0.8,0.4
						c0.3,0.5,0.2,1.1-0.2,1.4c-0.5,0.4-1,0.8-1.6,1.1c-0.2,0.2-0.4,0.2-0.6,0.2c-0.3,0-0.6-0.1-0.8-0.4c0,0-0.1-0.1-0.1-0.1
						C44.8,41.3,44.9,40.8,45.3,40.5z"/>
					<path class="st15" d="M46.6,103.8c-0.4-0.2-0.7-0.7-0.6-1.1c0-0.1,0-0.1,0.1-0.2c0.2-0.5,0.8-0.7,1.3-0.5
						c0.6,0.3,1.2,0.5,1.8,0.8c0.5,0.2,0.8,0.8,0.5,1.3c0,0.1,0,0.1-0.1,0.1c-0.2,0.3-0.5,0.5-0.8,0.5c-0.1,0-0.2,0-0.4-0.1
						C47.8,104.3,47.2,104.1,46.6,103.8z"/>
					<path class="st15" d="M45.1,86.2c0.5,0.4,1,0.8,1.5,1.2c0.4,0.3,0.5,1,0.2,1.4c-0.2,0.2-0.5,0.4-0.8,0.4
						c-0.2,0-0.4-0.1-0.6-0.2c-0.5-0.4-1.1-0.9-1.6-1.3c-0.4-0.3-0.4-0.9-0.2-1.3c0-0.1,0.1-0.1,0.1-0.2
						C44.1,85.9,44.7,85.8,45.1,86.2z"/>
					<path class="st15" d="M45,26.4c0.6-0.3,1.2-0.6,1.8-0.9c0.4-0.2,0.9-0.1,1.2,0.2c0.1,0.1,0.1,0.2,0.2,0.2
						c0.2,0.5,0,1.1-0.5,1.3c-0.6,0.3-1.2,0.5-1.8,0.9c-0.1,0.1-0.3,0.1-0.5,0.1c-0.4,0-0.7-0.2-0.9-0.5c0-0.1-0.1-0.1-0.1-0.2
						C44.4,27.1,44.6,26.6,45,26.4z"/>
					<path class="st15" d="M41.2,100.8c-0.4-0.3-0.6-0.8-0.4-1.3c0,0,0-0.1,0.1-0.1c0.3-0.5,0.9-0.6,1.4-0.3c0.5,0.3,1.1,0.7,1.7,1
						c0.5,0.3,0.6,0.9,0.4,1.4c-0.2,0.3-0.5,0.5-0.9,0.5c-0.2,0-0.3,0-0.5-0.1C42.3,101.6,41.8,101.2,41.2,100.8z"/>
					<path class="st15" d="M41,46.2c-0.4-0.4-0.5-1-0.1-1.4c0.4-0.5,0.9-1,1.4-1.5c0.2-0.2,0.5-0.3,0.7-0.3c0.2,0,0.5,0.1,0.7,0.3
						c0.4,0.4,0.4,1,0,1.4c-0.4,0.5-0.9,0.9-1.3,1.4c-0.2,0.2-0.5,0.3-0.8,0.3C41.4,46.4,41.1,46.3,41,46.2z"/>
					<path class="st15" d="M39.6,83.1c-0.3-0.4-0.2-1.1,0.2-1.4c0.4-0.3,1.1-0.2,1.4,0.2c0.4,0.5,0.8,1,1.2,1.5
						c0.4,0.4,0.3,1.1-0.1,1.4c-0.2,0.2-0.4,0.2-0.6,0.2c-0.3,0-0.6-0.1-0.8-0.4C40.4,84.2,40,83.6,39.6,83.1z"/>
					<path class="st15" d="M42.5,30.1c-0.5,0.4-1.1,0.7-1.6,1.1c-0.2,0.1-0.4,0.2-0.6,0.2c-0.3,0-0.6-0.1-0.8-0.4
						c0,0-0.1-0.1-0.1-0.1c-0.2-0.4-0.1-1,0.3-1.3c0.6-0.4,1.1-0.8,1.7-1.1c0.2-0.1,0.3-0.2,0.5-0.2c0.3,0,0.7,0.2,0.8,0.5
						C43.2,29.2,43,29.8,42.5,30.1z"/>
					<path class="st15" d="M40.1,49.2c-0.3,0.5-0.7,1.1-1,1.7c-0.2,0.3-0.5,0.5-0.9,0.5c-0.2,0-0.3,0-0.5-0.1
						c-0.5-0.3-0.7-0.9-0.4-1.3c0.3-0.6,0.7-1.2,1-1.8c0.2-0.3,0.5-0.5,0.9-0.5c0.2,0,0.4,0,0.5,0.1C40.2,48.1,40.4,48.7,40.1,49.2z
						"/>
					<path class="st15" d="M37.9,98.4c-0.5-0.4-1.1-0.9-1.6-1.3c-0.4-0.3-0.5-0.9-0.2-1.3c0-0.1,0.1-0.1,0.1-0.2
						c0.4-0.4,1-0.5,1.4-0.1c0.5,0.4,1,0.8,1.5,1.2c0.4,0.3,0.5,1,0.2,1.4c-0.2,0.2-0.5,0.4-0.8,0.4C38.3,98.7,38.1,98.6,37.9,98.4z
						"/>
					<path class="st15" d="M36.5,77.8c-0.2-0.5,0-1.1,0.5-1.3c0.5-0.2,1.1,0,1.3,0.5c0.3,0.6,0.6,1.2,0.9,1.7
						c0.3,0.5,0.1,1.1-0.4,1.4c-0.2,0.1-0.3,0.1-0.5,0.1c-0.4,0-0.7-0.2-0.9-0.5C37.1,79,36.8,78.4,36.5,77.8z"/>
					<path class="st15" d="M37.8,33.6c-0.5,0.4-1,0.8-1.5,1.3c-0.2,0.2-0.4,0.3-0.7,0.3c-0.3,0-0.5-0.1-0.7-0.3c0,0-0.1-0.1-0.1-0.1
						c-0.2-0.4-0.2-0.9,0.2-1.3c0.5-0.5,1-0.9,1.5-1.4c0.2-0.2,0.4-0.2,0.6-0.2c0.3,0,0.6,0.1,0.8,0.4
						C38.3,32.6,38.3,33.3,37.8,33.6z"/>
					<path class="st15" d="M36.9,56.2c-0.1,0.4-0.5,0.7-1,0.7c-0.1,0-0.2,0-0.3-0.1c-0.5-0.2-0.8-0.7-0.7-1.2
						c0.2-0.6,0.4-1.3,0.7-1.9c0.2-0.4,0.5-0.6,0.9-0.6c0.1,0,0.2,0,0.4,0.1c0.5,0.2,0.8,0.8,0.6,1.3C37.3,55,37,55.6,36.9,56.2z"/>
					<path class="st15" d="M35,73.9c-0.2-0.7-0.4-1.3-0.6-2c-0.1-0.5,0.2-1.1,0.7-1.2c0.5-0.1,1.1,0.2,1.2,0.7
						c0.2,0.6,0.3,1.2,0.5,1.9c0.2,0.5-0.1,1.1-0.7,1.2c-0.1,0-0.2,0.1-0.3,0.1C35.5,74.6,35.1,74.3,35,73.9z"/>
					<path class="st15" d="M35.2,58.8c0.5,0.1,0.9,0.6,0.8,1.2c-0.1,0.6-0.2,1.3-0.3,1.9c0,0.5-0.5,0.9-1,0.9c0,0-0.1,0-0.1,0
						c-0.5,0-1-0.5-0.9-1.1c0.1-0.7,0.2-1.4,0.3-2c0.1-0.5,0.5-0.8,1-0.8C35,58.8,35.1,58.8,35.2,58.8z"/>
					<path class="st15" d="M33.7,67.9c-0.1-0.7-0.1-1.4-0.1-2.1c0-0.6,0.4-1,1-1c0.5,0,1,0.4,1,1c0,0.6,0.1,1.3,0.1,1.9
						c0.1,0.5-0.3,1-0.9,1.1c0,0-0.1,0-0.1,0C34.2,68.8,33.8,68.4,33.7,67.9z"/>
					<path class="st15" d="M33.5,91.5c0.4,0.5,0.9,1,1.3,1.5c0.4,0.4,0.4,1,0,1.4c-0.2,0.2-0.4,0.3-0.7,0.3c-0.3,0-0.5-0.1-0.7-0.3
						c-0.5-0.5-0.9-1-1.4-1.5c-0.3-0.4-0.3-0.9,0-1.2c0-0.1,0.1-0.1,0.2-0.2C32.5,91,33.1,91,33.5,91.5z"/>
					<path class="st15" d="M33.7,37.7c-0.4,0.5-0.8,1-1.2,1.5c-0.2,0.2-0.5,0.4-0.8,0.4c-0.2,0-0.4-0.1-0.6-0.2
						c-0.4-0.3-0.5-1-0.2-1.4c0.4-0.5,0.9-1.1,1.3-1.6c0.2-0.2,0.5-0.3,0.8-0.3c0.2,0,0.5,0.1,0.7,0.2C34,36.7,34,37.3,33.7,37.7z"
						/>
					<path class="st15" d="M31.1,88.4c0.3,0.5,0.2,1.1-0.2,1.4c-0.2,0.1-0.4,0.2-0.6,0.2c-0.3,0-0.6-0.1-0.8-0.4
						c-0.4-0.6-0.8-1.1-1.1-1.7c-0.3-0.5-0.2-1.1,0.3-1.4c0.5-0.3,1.1-0.2,1.4,0.3C30.4,87.3,30.7,87.8,31.1,88.4z"/>
					<path class="st15" d="M30.2,42.4c-0.4,0.5-0.7,1.1-1,1.7c-0.2,0.3-0.5,0.5-0.9,0.5c-0.2,0-0.3,0-0.5-0.1
						c-0.5-0.3-0.6-0.9-0.4-1.4c0.3-0.6,0.7-1.2,1.1-1.8c0.2-0.3,0.5-0.5,0.9-0.5c0.2,0,0.4,0,0.5,0.2C30.3,41.3,30.5,42,30.2,42.4z
						"/>
					<path class="st15" d="M25.4,82.4c-0.2-0.5,0-1,0.4-1.3c0,0,0.1-0.1,0.1-0.1c0.5-0.2,1.1,0,1.3,0.5c0.3,0.6,0.6,1.2,0.9,1.8
						c0.2,0.5,0.1,1.1-0.4,1.3c-0.1,0.1-0.3,0.1-0.4,0.1c-0.4,0-0.7-0.2-0.9-0.5C26,83.7,25.7,83.1,25.4,82.4z"/>
					<path class="st15" d="M26.6,49.3C26.4,49.7,26,50,25.6,50c-0.1,0-0.2,0-0.4-0.1c-0.5-0.2-0.8-0.8-0.6-1.3
						c0.3-0.6,0.5-1.3,0.8-1.9c0.2-0.4,0.5-0.6,0.9-0.6c0.1,0,0.3,0,0.4,0.1c0.5,0.2,0.7,0.8,0.5,1.3C27.1,48.1,26.8,48.7,26.6,49.3
						z"/>
					<path class="st15" d="M25.3,53c-0.2,0.6-0.4,1.2-0.5,1.9c-0.1,0.5-0.5,0.8-1,0.8c-0.1,0-0.2,0-0.2,0c-0.5-0.1-0.9-0.7-0.7-1.2
						c0.2-0.7,0.3-1.3,0.5-2c0.1-0.4,0.5-0.7,1-0.7c0.1,0,0.2,0,0.3,0C25.1,51.9,25.4,52.5,25.3,53z"/>
					<path class="st15" d="M22.7,61.6c-0.6,0-1-0.5-0.9-1.1c0.1-0.7,0.2-1.4,0.3-2c0.1-0.5,0.5-0.9,1-0.9c0,0,0.1,0,0.1,0
						c0.5,0.1,0.9,0.6,0.8,1.1c-0.1,0.6-0.2,1.3-0.2,1.9c-0.1,0.5-0.5,0.9-1,0.9C22.8,61.6,22.7,61.6,22.7,61.6z"/>
					<path class="st15" d="M15,70c0-3.9,3.1-7,7-7c0.2,0,0.4,0,0.6,0c3.6,0.3,6.4,3.3,6.4,7c0,2.7-1.5,5-3.8,6.2
						c0.2,0.6,0.4,1.2,0.6,1.8c0.2,0.5-0.1,1.1-0.6,1.3c-0.1,0-0.2,0.1-0.3,0.1c-0.4,0-0.8-0.3-0.9-0.7c-0.2-0.6-0.4-1.2-0.6-1.8
						C22.9,76.9,22.5,77,22,77C18.1,77,15,73.9,15,70z M17,70c0,2.8,2.2,5,5,5s5-2.2,5-5s-2.2-5-5-5S17,67.2,17,70z"/>
				</g>
				<g>
					<path class="st0" d="M82.1,69c-2.4,9.7-12.1,15.6-21.8,13.2c-9.6-2.4-15.5-12.1-13.2-21.8c2.4-9.7,12.1-15.6,21.8-13.2
						C78.5,49.6,84.4,59.4,82.1,69z"/>
				</g>
			</g>
		</g>
	</g>
</g>
<g id="open_with..._1_">
	<g id="raw_4_" class="st5">
	</g>
</g>
<g id="omero-wnd-charm">
</g>
<g id="omero.webtagging">
</g>
<g id="omero.mail_1_">
	<g id="raw_1_" class="st5">
	</g>
</g>
<g id="omero.forms">
</g>
<g id="omero.dropbox">
</g>
<g id="omero_as_public_repository">
</g>
<g id="moodle">
	<g id="logo_-_moodle">
	</g>
</g>
<g id="manage_and_organize">
</g>
<g id="manage">
	<g id="raw_9_" class="st5">
	</g>
</g>
<g id="lookup_table_1_">
	<g id="raw_2_" class="st5">
	</g>
</g>
<g id="improved_screen_plate_well_ui_1_">
	<g id="raw_3_" class="st5">
	</g>
</g>
<g id="improved_performance">
</g>
<g id="import_images">
</g>
<g id="import-for">
</g>
<g id="histogram_support">
	<g id="raw" class="st5">
	</g>
</g>
<g id="file_integrity_reports">
</g>
<g id="export_images">
</g>
<g id="export_hcs">
</g>
<g id="export_filesets">
</g>
<g id="draw_rois">
</g>
<g id="customize_clients">
</g>
<g id="command_line_interface">
	<g id="raw_11_" class="st5">
	</g>
	<g id="Live_Paint_1_">
	</g>
</g>
<g id="create_movies">
</g>
<g id="create_figures">
</g>
<g id="big_images">
</g>
<g id="attaching_analytical_results">
</g>
<g id="annotate_data">
</g>
<g id="acquisition_metadata">
</g>
</svg>
