<?xml version="1.0" encoding="utf-8"?>
<!-- Generator: Adobe Illustrator 19.2.1, SVG Export Plug-In . SVG Version: 6.00 Build 0)  -->
<svg version="1.1" xmlns="http://www.w3.org/2000/svg" xmlns:xlink="http://www.w3.org/1999/xlink" x="0px" y="0px"
	 viewBox="0 0 128 128" style="enable-background:new 0 0 128 128;" xml:space="preserve">
<style type="text/css">
	.st0{fill:none;stroke:#263238;stroke-width:2;stroke-miterlimit:10;}
	.st1{fill:#EF5350;stroke:#263238;stroke-width:2;stroke-miterlimit:10;}
	.st2{fill:#009688;stroke:#263238;stroke-width:2;stroke-miterlimit:10;}
	.st3{fill:#03A9F4;stroke:#263238;stroke-width:2;stroke-miterlimit:10;}
	.st4{fill:#CFD8DC;stroke:#263238;stroke-width:2;stroke-miterlimit:10;}
	.st5{display:none;}
	.st6{display:inline;}
	.st7{display:inline;fill:none;stroke:#263238;stroke-width:2;stroke-miterlimit:10;}
	.st8{fill:#009688;}
	.st9{fill:#03A9F4;}
	.st10{fill:#EF5350;}
	.st11{fill:#CFD8DC;}
	.st12{fill-rule:evenodd;clip-rule:evenodd;fill:none;stroke:#263238;stroke-width:2;stroke-miterlimit:10;}
	.st13{fill:#37474F;}
	
		.st14{display:inline;fill:none;stroke:#263238;stroke-width:2;stroke-linecap:round;stroke-miterlimit:10;stroke-dasharray:1.9328,3.8656;}
	.st15{fill:#263238;}
	.st16{display:inline;fill:#263238;}
	.st17{display:inline;fill:#FFFFFF;stroke:#000000;stroke-width:2;stroke-miterlimit:10;}
	.st18{display:inline;fill-rule:evenodd;clip-rule:evenodd;fill:none;stroke:#263238;stroke-width:2;stroke-miterlimit:10;}
	.st19{fill:#58595B;}
	.st20{fill:url(#SVGID_1_);}
	.st21{fill:url(#SVGID_2_);}
	.st22{fill:url(#SVGID_3_);}
	.st23{fill:none;stroke:#4A4A4C;stroke-width:0.5;}
	.st24{opacity:0.23;fill:#231F20;enable-background:new    ;}
	.st25{fill:none;stroke:#A8ABAD;stroke-width:0.5;}
	.st26{fill:none;stroke:#37474F;stroke-width:0.5;}
	.st27{fill:#6D6E70;}
	.st28{fill:#FFFFFF;}
	.st29{display:inline;fill:none;stroke:#000000;stroke-width:2;stroke-linecap:round;stroke-linejoin:round;}
	.st30{fill:none;stroke:#000000;stroke-width:2;stroke-linecap:round;stroke-linejoin:round;}
	.st31{display:inline;fill:none;}
	.st32{fill:none;}
	.st33{display:inline;fill-rule:evenodd;clip-rule:evenodd;fill:#263238;}
</style>
<g id="artboards">
</g>
<g id="guides">
</g>
<g id="palette">
</g>
<g id="view-images">
</g>
<g id="using_a_public_group">
</g>
<g id="user-added_metadata">
	<g class="st5">
		<path class="st7" d="M59,40h2c0,0,0-2,0-3s-1-1-1-1v-2h8.3c0.6,1.7,2.3,3,4.2,3c2.5,0,4.5-2,4.5-4.5c0-2.5-2-4.5-4.5-4.5
			c-2,0-3.6,1.3-4.2,3H52.5c-0.8,0-1.5,0.7-1.5,1.5c0,0.8,0.7,1.5,1.5,1.5H55v2c0,0-1,0-1,1s0,3,0,3h2v-2h3V40z M74,32.5
			c0,0.8-0.7,1.5-1.5,1.5S71,33.3,71,32.5c0-0.8,0.7-1.5,1.5-1.5S74,31.7,74,32.5z"/>
		<rect x="15" y="24" class="st7" width="98" height="80"/>
		<polyline class="st7" points="86,104 64,104 64,44 42,44 		"/>
		<polyline class="st7" points="15,44 113,44 86,44 		"/>
		<line class="st7" x1="113" y1="50" x2="15" y2="50"/>
		<line class="st7" x1="15" y1="56" x2="113" y2="56"/>
		<line class="st7" x1="113" y1="62" x2="15" y2="62"/>
		<line class="st7" x1="15" y1="68" x2="113" y2="68"/>
		<line class="st7" x1="113" y1="74" x2="15" y2="74"/>
		<line class="st7" x1="15" y1="80" x2="113" y2="80"/>
		<line class="st7" x1="113" y1="86" x2="15" y2="86"/>
		<line class="st7" x1="15" y1="92" x2="113" y2="92"/>
		<line class="st7" x1="113" y1="98" x2="15" y2="98"/>
	</g>
	<g id="Live_Paint_11_">
		<g id="XMLID_39_">
			<g>
				<rect x="64" y="62" class="st8" width="49" height="6"/>
				<rect x="15" y="56" class="st10" width="49" height="6"/>
				<rect x="15" y="98" class="st11" width="49" height="6"/>
				<rect x="64" y="92" class="st11" width="49" height="6"/>
				<rect x="15" y="86" class="st11" width="49" height="6"/>
				<rect x="64" y="80" class="st11" width="49" height="6"/>
				<rect x="15" y="74" class="st11" width="49" height="6"/>
				<rect x="64" y="68" class="st11" width="49" height="6"/>
				<rect x="15" y="62" class="st11" width="49" height="6"/>
				<rect x="64" y="56" class="st11" width="49" height="6"/>
				<polygon class="st11" points="113,44 113,50 64,50 64,44 86,44 				"/>
				<rect x="15" y="50" class="st11" width="49" height="6"/>
				<path class="st11" d="M72.5,31c-0.8,0-1.5,0.7-1.5,1.5c0,0.8,0.7,1.5,1.5,1.5s1.5-0.7,1.5-1.5C74,31.7,73.3,31,72.5,31z
					 M72.5,28c2.5,0,4.5,2,4.5,4.5c0,2.5-2,4.5-4.5,4.5c-2,0-3.6-1.2-4.2-3H60v2c0,0,1,0,1,1s0,3,0,3h-2v-2h-3v2h-2c0,0,0-2,0-3
					s1-1,1-1v-2h-2.5c-0.8,0-1.5-0.7-1.5-1.5c0-0.8,0.7-1.5,1.5-1.5h15.8C68.9,29.3,70.5,28,72.5,28z"/>
				<path class="st9" d="M60,34h8.3c0.6,1.8,2.3,3,4.2,3c2.5,0,4.5-2,4.5-4.5c0-2.5-2-4.5-4.5-4.5c-2,0-3.6,1.3-4.2,3H52.5
					c-0.8,0-1.5,0.7-1.5,1.5c0,0.8,0.7,1.5,1.5,1.5H55v2c0,0-1,0-1,1s0,3,0,3h2v-2h3v2h2c0,0,0-2,0-3s-1-1-1-1V34z M113,24v20H86H64
					H42H15V24H113z"/>
			</g>
			<g>
				<path class="st0" d="M59,40h2c0,0,0-2,0-3s-1-1-1-1v-2h8.3c0.6,1.8,2.3,3,4.2,3c2.5,0,4.5-2,4.5-4.5c0-2.5-2-4.5-4.5-4.5
					c-2,0-3.6,1.3-4.2,3H52.5c-0.8,0-1.5,0.7-1.5,1.5c0,0.8,0.7,1.5,1.5,1.5H55v2c0,0-1,0-1,1s0,3,0,3h2v-2h3V40z"/>
				<circle class="st0" cx="72.5" cy="32.5" r="1.5"/>
				<polyline class="st0" points="64,104 15,104 15,98 15,92 15,86 15,80 15,74 15,68 15,62 15,56 15,50 15,44 15,24 113,24 113,44 
					113,50 113,56 113,62 113,68 113,74 113,80 113,86 113,92 113,98 113,104 86,104 				"/>
				<polyline class="st0" points="86,104 64,104 64,98 64,92 64,86 64,80 64,74 64,68 64,62 64,56 64,50 64,44 				"/>
				<line class="st0" x1="113" y1="44" x2="86" y2="44"/>
				<polyline class="st0" points="15,44 42,44 64,44 86,44 				"/>
				<polyline class="st0" points="113,50 64,50 15,50 				"/>
				<polyline class="st0" points="15,56 64,56 113,56 				"/>
				<polyline class="st0" points="113,62 64,62 15,62 				"/>
				<polyline class="st0" points="15,68 64,68 113,68 				"/>
				<polyline class="st0" points="113,74 64,74 15,74 				"/>
				<polyline class="st0" points="15,80 64,80 113,80 				"/>
				<polyline class="st0" points="113,86 64,86 15,86 				"/>
				<polyline class="st0" points="15,92 64,92 113,92 				"/>
				<polyline class="st0" points="113,98 64,98 15,98 				"/>
			</g>
		</g>
	</g>
</g>
<g id="unit-support">
	<g id="raw_10_" class="st5">
	</g>
	<g id="Live_Paint">
	</g>
</g>
<g id="supported_file_formats">
</g>
<g id="share">
</g>
<g id="searching_and_filtering">
</g>
<g id="scripting_service">
</g>
<g id="roi_folders_1_">
	<g id="raw_8_">
	</g>
</g>
<g id="reverse_intensity_rendering_1_">
	<g id="raw_7_" class="st5">
	</g>
</g>
<g id="rendering_settings">
</g>
<g id="quality_assurance_1_">
	<g id="raw_6_" class="st5">
	</g>
</g>
<g id="python_blitz_api">
</g>
<g id="public_access">
</g>
<g id="personalize">
	<g id="raw_5_" class="st5">
	</g>
</g>
<g id="original_file_formats">
</g>
<g id="orbit_image_analysis">
</g>
<g id="open_with..._1_">
	<g id="raw_4_" class="st5">
	</g>
</g>
<g id="omero-wnd-charm">
</g>
<g id="omero.webtagging">
</g>
<g id="omero.mail_1_">
	<g id="raw_1_" class="st5">
	</g>
</g>
<g id="omero.forms">
</g>
<g id="omero.dropbox">
</g>
<g id="omero_as_public_repository">
</g>
<g id="moodle">
	<g id="logo_-_moodle">
	</g>
</g>
<g id="manage_and_organize">
</g>
<g id="manage">
	<g id="raw_9_" class="st5">
	</g>
</g>
<g id="lookup_table_1_">
	<g id="raw_2_" class="st5">
	</g>
</g>
<g id="improved_screen_plate_well_ui_1_">
	<g id="raw_3_" class="st5">
	</g>
</g>
<g id="improved_performance">
</g>
<g id="import_images">
</g>
<g id="import-for">
</g>
<g id="histogram_support">
	<g id="raw" class="st5">
	</g>
</g>
<g id="file_integrity_reports">
</g>
<g id="export_images">
</g>
<g id="export_hcs">
</g>
<g id="export_filesets">
</g>
<g id="draw_rois">
</g>
<g id="customize_clients">
</g>
<g id="command_line_interface">
	<g id="raw_11_" class="st5">
	</g>
	<g id="Live_Paint_1_">
	</g>
</g>
<g id="create_movies">
</g>
<g id="create_figures">
</g>
<g id="big_images">
</g>
<g id="attaching_analytical_results">
</g>
<g id="annotate_data">
</g>
<g id="acquisition_metadata">
</g>
</svg>
