<?xml version="1.0" encoding="utf-8"?>
<!-- Generator: Adobe Illustrator 19.2.1, SVG Export Plug-In . SVG Version: 6.00 Build 0)  -->
<svg version="1.1" xmlns="http://www.w3.org/2000/svg" xmlns:xlink="http://www.w3.org/1999/xlink" x="0px" y="0px"
	 viewBox="0 0 128 128" style="enable-background:new 0 0 128 128;" xml:space="preserve">
<style type="text/css">
	.st0{fill:none;stroke:#263238;stroke-width:2;stroke-miterlimit:10;}
	.st1{fill:#EF5350;stroke:#263238;stroke-width:2;stroke-miterlimit:10;}
	.st2{fill:#009688;stroke:#263238;stroke-width:2;stroke-miterlimit:10;}
	.st3{fill:#03A9F4;stroke:#263238;stroke-width:2;stroke-miterlimit:10;}
	.st4{fill:#CFD8DC;stroke:#263238;stroke-width:2;stroke-miterlimit:10;}
	.st5{display:none;}
	.st6{display:inline;}
	.st7{display:inline;fill:none;stroke:#263238;stroke-width:2;stroke-miterlimit:10;}
	.st8{fill:#009688;}
	.st9{fill:#03A9F4;}
	.st10{fill:#EF5350;}
	.st11{fill:#CFD8DC;}
	.st12{fill-rule:evenodd;clip-rule:evenodd;fill:none;stroke:#263238;stroke-width:2;stroke-miterlimit:10;}
	.st13{fill:#37474F;}
	
		.st14{display:inline;fill:none;stroke:#263238;stroke-width:2;stroke-linecap:round;stroke-miterlimit:10;stroke-dasharray:1.9328,3.8656;}
	.st15{fill:#263238;}
	.st16{display:inline;fill:#263238;}
	.st17{display:inline;fill:#FFFFFF;stroke:#000000;stroke-width:2;stroke-miterlimit:10;}
	.st18{display:inline;fill-rule:evenodd;clip-rule:evenodd;fill:none;stroke:#263238;stroke-width:2;stroke-miterlimit:10;}
	.st19{fill:#58595B;}
	.st20{fill:url(#SVGID_1_);}
	.st21{fill:url(#SVGID_2_);}
	.st22{fill:url(#SVGID_3_);}
	.st23{fill:none;stroke:#4A4A4C;stroke-width:0.5;}
	.st24{opacity:0.23;fill:#231F20;enable-background:new    ;}
	.st25{fill:none;stroke:#A8ABAD;stroke-width:0.5;}
	.st26{fill:none;stroke:#37474F;stroke-width:0.5;}
	.st27{fill:#6D6E70;}
	.st28{fill:#FFFFFF;}
	.st29{display:inline;fill:none;stroke:#000000;stroke-width:2;stroke-linecap:round;stroke-linejoin:round;}
	.st30{fill:none;stroke:#000000;stroke-width:2;stroke-linecap:round;stroke-linejoin:round;}
	.st31{display:inline;fill:none;}
	.st32{fill:none;}
	.st33{display:inline;fill-rule:evenodd;clip-rule:evenodd;fill:#263238;}
</style>
<g id="artboards">
</g>
<g id="guides">
</g>
<g id="palette">
</g>
<g id="view-images">
</g>
<g id="using_a_public_group">
</g>
<g id="user-added_metadata">
</g>
<g id="unit-support">
	<g id="raw_10_" class="st5">
	</g>
	<g id="Live_Paint">
	</g>
</g>
<g id="supported_file_formats">
</g>
<g id="share">
</g>
<g id="searching_and_filtering">
</g>
<g id="scripting_service">
</g>
<g id="roi_folders_1_">
	<g id="raw_8_">
	</g>
</g>
<g id="reverse_intensity_rendering_1_">
	<g id="raw_7_" class="st5">
	</g>
</g>
<g id="rendering_settings">
</g>
<g id="quality_assurance_1_">
	<g id="raw_6_" class="st5">
	</g>
</g>
<g id="python_blitz_api">
</g>
<g id="public_access">
</g>
<g id="personalize">
	<g id="raw_5_" class="st5">
	</g>
</g>
<g id="original_file_formats">
</g>
<g id="orbit_image_analysis">
</g>
<g id="open_with..._1_">
	<g id="raw_4_" class="st5">
	</g>
</g>
<g id="omero-wnd-charm">
	<g id="collab_2_">
		<g id="XMLID_26_">
			<g>
				<path class="st8" d="M105.8,89.5C105.8,89.5,105.9,89.5,105.8,89.5h0.2c4,2.1,6.1,6,6.1,10.5c0,6.6-5.5,12-12.1,12
					c-4.5,0-8.4-2.1-10.5-6.1l-0.1-0.1c0,0,0.1,0,0.1,0c-1-1.7-1.5-3.7-1.5-5.8c0-6.6,5.4-12,12-12C102.1,88,104.1,88.6,105.8,89.5z
					"/>
				<path class="st11" d="M105.8,38.5c-1.7,1-3.7,1.5-5.8,1.5c-6.6,0-12-5.4-12-12c0-2.1,0.6-4.1,1.5-5.8c0,0,0,0-0.1,0l0.1-0.1
					c2.1-4,6-6.1,10.5-6.1c6.6,0,12,5.5,12,12.1c0,4.5-2.1,8.4-6.1,10.5H105.8C105.9,38.5,105.8,38.5,105.8,38.5z"/>
				<path class="st9" d="M40,100c0,2.1-0.5,4.1-1.5,5.8c0,0,0,0,0.1,0l-0.1,0.1c-2,4-6,6.1-10.5,6.1c-6.6,0-12-5.5-12-12.1
					c0-4.5,2.5-8.4,6.2-10.5c1.7-1,3.7-1.5,5.8-1.5C34.6,88,40,93.4,40,100z"/>
				<path class="st10" d="M38.5,22.2c1,1.7,1.5,3.7,1.5,5.8c0,6.6-5.4,12-12,12c-2.1,0-4.1-0.5-5.8-1.5v0c-3.7-2-6.2-6-6.2-10.5
					c0-6.6,5.4-12,12-12c4.5,0,8.4,2.1,10.5,6.1V22.2C38.5,22.1,38.5,22.1,38.5,22.2z"/>
			</g>
			<g>
				<path class="st0" d="M89.4,105.9C89.5,105.9,89.5,105.8,89.4,105.9c-0.9-1.8-1.4-3.8-1.4-5.9c0-6.6,5.4-12,12-12
					c2.1,0,4.1,0.6,5.8,1.5c0,0,0,0,0-0.1C110.4,82,113,73.3,113,64s-2.6-18-7.1-25.5c0,0,0,0,0-0.1c-1.7,1-3.7,1.5-5.8,1.5
					c-6.6,0-12-5.4-12-12c0-2.1,0.6-4.1,1.5-5.8c0,0,0,0-0.1,0C82,17.6,73.3,15,64,15s-18,2.6-25.5,7.1c0,0,0,0-0.1,0
					c1,1.7,1.5,3.7,1.5,5.8c0,6.6-5.4,12-12,12c-2.1,0-4.1-0.5-5.8-1.5C17.6,45.9,15,54.7,15,64s2.6,18.1,7.2,25.5
					c1.7-1,3.7-1.5,5.8-1.5c6.6,0,12,5.4,12,12c0,2.1-0.5,4.1-1.5,5.8c0,0,0,0,0.1,0C46,110.4,54.7,113,64,113S82,110.4,89.4,105.9z
					"/>
				<path class="st0" d="M38.5,22c-2-4-6-6.1-10.5-6.1c-6.6,0-12,5.4-12,12c0,4.5,2.5,8.5,6.2,10.5"/>
				<path class="st0" d="M106,38.5c4-2,6.1-6,6.1-10.5c0-6.6-5.4-12.1-12-12.1c-4.5,0-8.5,2.1-10.5,6.1"/>
				<path class="st0" d="M89.5,106c2.1,4,6,6.1,10.5,6.1c6.6,0,12.1-5.4,12.1-12c0-4.5-2.1-8.5-6.1-10.5"/>
				<path class="st0" d="M22.2,89.5c-3.7,2.1-6.2,6-6.2,10.5c0,6.6,5.4,12.1,12,12.1c4.5,0,8.4-2.1,10.5-6.1"/>
			</g>
		</g>
	</g>
	<g>
		<path class="st13" d="M67.9,73.6C72.8,73,78,71.2,78,62.8c0-2.4-0.8-4.3-2.2-5.8c0.2-0.6,0.9-2.7-0.3-5.8c0,0-1.8-0.6-5.9,2.2
			c-1.8-0.5-3.7-0.8-5.5-0.8c-1.9,0-3.8,0.3-5.5,0.8c-4.2-2.8-6-2.2-6-2.2c-1.2,3-0.5,5.2-0.3,5.8c-1.4,1.5-2.2,3.5-2.2,5.8
			c0,8.4,5.2,10.2,10.1,10.8c-0.6,0.5-1.2,1.6-1.4,3c-1.2,0.5-4.5,1.6-6.4-1.8c0,0-1.2-2.1-3.3-2.2c0,0-2.2,0-0.2,1.3
			c0,0,1.5,0.7,2.4,3.2c0,0,1.3,4.2,7.4,2.9v3.8c0,0.6-0.4,1.2-1.5,1.1C48.4,81.9,42.1,73.6,42.1,64c0-12.1,9.8-21.9,21.9-21.9
			c12,0,21.9,9.8,21.8,21.9c0,9.7-6.2,17.8-14.9,20.8c-1.1,0.2-1.6-0.4-1.6-1.1v-6.1C69.4,75.6,68.7,74.3,67.9,73.6L67.9,73.6z
			 M89,64c0-13.8-11.2-25-25-25c-13.8,0-25,11.2-25,25c0,13.8,11.2,25,25,25C77.8,89,89,77.8,89,64L89,64z"/>
	</g>
</g>
<g id="omero.webtagging">
</g>
<g id="omero.mail_1_">
	<g id="raw_1_" class="st5">
	</g>
</g>
<g id="omero.forms">
</g>
<g id="omero.dropbox">
</g>
<g id="omero_as_public_repository">
</g>
<g id="moodle">
	<g id="logo_-_moodle">
	</g>
</g>
<g id="manage_and_organize">
</g>
<g id="manage">
	<g id="raw_9_" class="st5">
	</g>
</g>
<g id="lookup_table_1_">
	<g id="raw_2_" class="st5">
	</g>
</g>
<g id="improved_screen_plate_well_ui_1_">
	<g id="raw_3_" class="st5">
	</g>
</g>
<g id="improved_performance">
</g>
<g id="import_images">
</g>
<g id="import-for">
</g>
<g id="histogram_support">
	<g id="raw" class="st5">
	</g>
</g>
<g id="file_integrity_reports">
</g>
<g id="export_images">
</g>
<g id="export_hcs">
</g>
<g id="export_filesets">
</g>
<g id="draw_rois">
</g>
<g id="customize_clients">
</g>
<g id="command_line_interface">
	<g id="raw_11_" class="st5">
	</g>
	<g id="Live_Paint_1_">
	</g>
</g>
<g id="create_movies">
</g>
<g id="create_figures">
</g>
<g id="big_images">
</g>
<g id="attaching_analytical_results">
</g>
<g id="annotate_data">
</g>
<g id="acquisition_metadata">
</g>
</svg>
