<?xml version="1.0" encoding="utf-8"?>
<!-- Generator: Adobe Illustrator 19.2.1, SVG Export Plug-In . SVG Version: 6.00 Build 0)  -->
<svg version="1.1" xmlns="http://www.w3.org/2000/svg" xmlns:xlink="http://www.w3.org/1999/xlink" x="0px" y="0px"
	 viewBox="0 0 128 128" style="enable-background:new 0 0 128 128;" xml:space="preserve">
<style type="text/css">
	.st0{fill:none;stroke:#263238;stroke-width:2;stroke-miterlimit:10;}
	.st1{fill:#EF5350;stroke:#263238;stroke-width:2;stroke-miterlimit:10;}
	.st2{fill:#009688;stroke:#263238;stroke-width:2;stroke-miterlimit:10;}
	.st3{fill:#03A9F4;stroke:#263238;stroke-width:2;stroke-miterlimit:10;}
	.st4{fill:#CFD8DC;stroke:#263238;stroke-width:2;stroke-miterlimit:10;}
	.st5{display:none;}
	.st6{display:inline;}
	.st7{display:inline;fill:none;stroke:#263238;stroke-width:2;stroke-miterlimit:10;}
	.st8{fill:#009688;}
	.st9{fill:#03A9F4;}
	.st10{fill:#EF5350;}
	.st11{fill:#CFD8DC;}
	.st12{fill-rule:evenodd;clip-rule:evenodd;fill:none;stroke:#263238;stroke-width:2;stroke-miterlimit:10;}
	.st13{fill:#37474F;}
	
		.st14{display:inline;fill:none;stroke:#263238;stroke-width:2;stroke-linecap:round;stroke-miterlimit:10;stroke-dasharray:1.9328,3.8656;}
	.st15{fill:#263238;}
	.st16{display:inline;fill:#263238;}
	.st17{display:inline;fill:#FFFFFF;stroke:#000000;stroke-width:2;stroke-miterlimit:10;}
	.st18{display:inline;fill-rule:evenodd;clip-rule:evenodd;fill:none;stroke:#263238;stroke-width:2;stroke-miterlimit:10;}
	.st19{fill:#58595B;}
	.st20{fill:url(#SVGID_1_);}
	.st21{fill:url(#SVGID_2_);}
	.st22{fill:url(#SVGID_3_);}
	.st23{fill:none;stroke:#4A4A4C;stroke-width:0.5;}
	.st24{opacity:0.23;fill:#231F20;enable-background:new    ;}
	.st25{fill:none;stroke:#A8ABAD;stroke-width:0.5;}
	.st26{fill:none;stroke:#37474F;stroke-width:0.5;}
	.st27{fill:#6D6E70;}
	.st28{fill:#FFFFFF;}
	.st29{display:inline;fill:none;stroke:#000000;stroke-width:2;stroke-linecap:round;stroke-linejoin:round;}
	.st30{fill:none;stroke:#000000;stroke-width:2;stroke-linecap:round;stroke-linejoin:round;}
	.st31{display:inline;fill:none;}
	.st32{fill:none;}
	.st33{display:inline;fill-rule:evenodd;clip-rule:evenodd;fill:#263238;}
</style>
<g id="using_a_public_group">
	<g>
		<g id="XMLID_21_">
			<g>
				<path class="st8" d="M45,108c0,1.4-0.2,2.7-0.6,4H44H16h-0.4c-0.4-1.3-0.6-2.6-0.6-4c0-5.2,2.6-9.8,6.7-12.5
					c1.8,2.7,4.9,4.5,8.3,4.5s6.5-1.8,8.3-4.5C42.3,98.2,45,102.8,45,108z"/>
				<path class="st9" d="M113,108c0,1.4-0.2,2.7-0.6,4H112H84h-0.4c-0.4-1.3-0.6-2.6-0.6-4c0-5.2,2.7-9.8,6.7-12.5
					c1.8,2.7,4.8,4.5,8.3,4.5s6.5-1.8,8.3-4.5C110.3,98.2,113,102.8,113,108z"/>
				<path class="st10" d="M79,108c0,1.4-0.2,2.7-0.6,4H78H50h-0.4c-0.4-1.3-0.6-2.6-0.6-4c0-5.2,2.7-9.8,6.7-12.5
					c1.8,2.7,4.9,4.5,8.3,4.5c3.5,0,6.5-1.8,8.3-4.5C76.3,98.2,79,102.8,79,108z"/>
			</g>
			<g>
				<path class="st0" d="M44,112h0.4c0.4-1.3,0.6-2.6,0.6-4c0-5.2-2.7-9.8-6.7-12.5c-1.8,2.7-4.9,4.5-8.3,4.5s-6.5-1.8-8.3-4.5
					c-4,2.7-6.7,7.3-6.7,12.5c0,1.4,0.2,2.7,0.6,4H16"/>
				<path class="st0" d="M38.3,95.5c1-1.6,1.7-3.5,1.7-5.5c0-5.5-4.5-10-10-10s-10,4.5-10,10c0,2,0.6,3.9,1.7,5.5"/>
				<line class="st0" x1="16" y1="112" x2="44" y2="112"/>
				<path class="st0" d="M78,112h0.4c0.4-1.3,0.6-2.6,0.6-4c0-5.2-2.7-9.8-6.7-12.5c-1.8,2.7-4.8,4.5-8.3,4.5
					c-3.5,0-6.5-1.8-8.3-4.5c-4,2.7-6.7,7.3-6.7,12.5c0,1.4,0.2,2.7,0.6,4H50"/>
				<path class="st0" d="M72.3,95.5c1-1.6,1.7-3.5,1.7-5.5c0-5.5-4.5-10-10-10s-10,4.5-10,10c0,2,0.6,3.9,1.7,5.5"/>
				<line class="st0" x1="50" y1="112" x2="78" y2="112"/>
				<path class="st0" d="M112,112h0.4c0.4-1.3,0.6-2.6,0.6-4c0-5.2-2.7-9.8-6.7-12.5c-1.8,2.7-4.8,4.5-8.3,4.5s-6.5-1.8-8.3-4.5
					c-4,2.7-6.7,7.3-6.7,12.5c0,1.4,0.2,2.7,0.6,4H84"/>
				<path class="st0" d="M106.3,95.5c1-1.6,1.7-3.5,1.7-5.5c0-5.5-4.5-10-10-10s-10,4.5-10,10c0,2,0.6,3.9,1.7,5.5"/>
				<line class="st0" x1="84" y1="112" x2="112" y2="112"/>
			</g>
		</g>
	</g>
	<g>
		<g id="XMLID_20_">
			<g>
				<path class="st9" d="M89,39.9c0,0.2,0,0.4,0,0.7c0,0.2,0,0.4,0,0.6c0,0.2,0,0.4,0,0.7c0,0.2,0,0.4,0,0.6c0,0.2-0.1,0.5-0.1,0.7
					c0,0.2,0,0.4-0.1,0.5c0,0.2-0.1,0.5-0.1,0.7c0,0.2-0.1,0.3-0.1,0.5c-0.1,0.2-0.1,0.5-0.2,0.8c0,0.1-0.1,0.3-0.1,0.4
					c-0.1,0.3-0.1,0.5-0.2,0.8c0,0.1-0.1,0.3-0.1,0.4c-0.1,0.3-0.2,0.5-0.3,0.8c0,0.1-0.1,0.2-0.1,0.4c-0.1,0.3-0.2,0.5-0.3,0.8
					c0,0.1-0.1,0.2-0.1,0.3c-0.1,0.3-0.2,0.5-0.3,0.8c-0.1,0.1-0.1,0.2-0.1,0.3c-0.1,0.3-0.2,0.5-0.4,0.8c-0.1,0.1-0.1,0.2-0.2,0.3
					c-0.1,0.2-0.3,0.5-0.4,0.7c-0.1,0.1-0.1,0.2-0.2,0.3c-0.1,0.2-0.3,0.5-0.4,0.7c-0.1,0.1-0.1,0.2-0.2,0.3
					c-0.1,0.2-0.3,0.4-0.5,0.7c-0.1,0.1-0.2,0.2-0.2,0.3c-0.2,0.2-0.3,0.4-0.5,0.6c-0.1,0.1-0.2,0.2-0.3,0.4
					c-0.1,0.2-0.3,0.4-0.5,0.5c-0.1,0.1-0.2,0.2-0.3,0.4c-0.1,0.2-0.3,0.3-0.5,0.5c-0.1,0.1-0.2,0.3-0.4,0.4
					c-0.1,0.1-0.3,0.3-0.4,0.4c-0.1,0.1-0.3,0.3-0.4,0.4c-0.1,0.1-0.3,0.2-0.4,0.4c-0.2,0.1-0.3,0.3-0.5,0.4
					c-0.1,0.1-0.3,0.2-0.4,0.3c-0.2,0.1-0.4,0.3-0.6,0.4c-0.1,0.1-0.2,0.2-0.4,0.3c-0.2,0.1-0.4,0.3-0.6,0.4
					c-0.1,0.1-0.2,0.1-0.3,0.2c-0.2,0.1-0.4,0.3-0.7,0.4c-0.1,0.1-0.2,0.1-0.3,0.2c-0.2,0.1-0.5,0.3-0.7,0.4
					c-0.1,0.1-0.2,0.1-0.3,0.2c-0.3,0.1-0.5,0.3-0.8,0.4c-0.1,0-0.2,0.1-0.3,0.1c-0.3,0.1-0.5,0.2-0.8,0.4c-0.1,0-0.2,0.1-0.3,0.1
					c-0.3,0.1-0.6,0.2-0.9,0.3c-0.1,0-0.2,0.1-0.3,0.1c-0.3,0.1-0.6,0.2-0.9,0.3c-0.1,0-0.2,0.1-0.3,0.1c-0.3,0.1-0.6,0.2-0.9,0.2
					c-0.1,0-0.2,0.1-0.3,0.1c-0.3,0.1-0.6,0.1-0.9,0.2c-0.1,0-0.3,0-0.4,0.1c-0.3,0.1-0.6,0.1-0.8,0.2c-0.2,0-0.3,0-0.4,0.1
					c-0.3,0-0.5,0.1-0.8,0.1c-0.2,0-0.3,0-0.5,0c-0.2,0-0.5,0-0.7,0.1c-0.2,0-0.4,0-0.6,0c-0.1,0-0.3,0-0.4,0c-0.1,0-0.2,0-0.3,0
					c-0.1,0-0.2,0-0.2,0c-0.3,0-0.6,0-0.9,0c-0.1,0-0.2,0-0.3,0c-0.3,0-0.7,0-1-0.1c-0.1,0-0.3,0-0.4,0c-0.2,0-0.4-0.1-0.7-0.1
					c-0.2,0-0.4-0.1-0.6-0.1c-0.1,0-0.2,0-0.3-0.1c-0.2,0-0.5-0.1-0.7-0.1c-0.1,0-0.2-0.1-0.4-0.1c-0.2,0-0.4-0.1-0.6-0.2
					c-0.2,0-0.3-0.1-0.5-0.1c0,0-0.1,0-0.1,0C55,63.4,53,62.5,51,61.4c0.2-0.2,0.4-0.4,0.6-0.7c1.9-2.2,0.6-2.5-0.3-4.7
					c-0.8-2.2-3.8-1.9-4.9-1.9c-0.9,0-2.8-0.6-3.7-0.9c-1.2-1.9-2.1-4-2.8-6.2c-0.1-0.2-0.1-0.4-0.2-0.6c-0.1-0.3-0.2-0.6-0.2-0.9
					c-0.1-0.3-0.1-0.5-0.2-0.8c0-0.2-0.1-0.3-0.1-0.5c0-0.2-0.1-0.3-0.1-0.5c-0.1-0.3-0.1-0.7-0.1-1c0-0.1,0-0.2,0-0.3
					c0-0.3-0.1-0.6-0.1-0.9c0-0.1,0-0.2,0-0.2c0-0.3,0-0.6,0-0.9c0-0.1,0-0.1,0-0.2c0-0.5,0-1,0-1.4c0-0.1,0-0.1,0-0.2
					c0-0.4,0.1-0.8,0.1-1.3c0-0.1,0-0.2,0-0.3c0-0.4,0.1-0.8,0.2-1.1c0-0.1,0-0.2,0.1-0.3c0.1-0.4,0.2-0.8,0.2-1.2c0,0,0-0.1,0-0.1
					c0.1-0.3,0.2-0.6,0.2-0.9c0-0.1,0.1-0.3,0.1-0.4c0.1-0.4,0.3-0.9,0.4-1.3c1.7-4.6,4.7-8.6,8.5-11.5c1,0,1.9,0.1,2.2,0.5
					c0.6,1.1-0.8,2.6-0.8,3.9c0,1.3,0.3,5.1,0.9,6c0.7,0.9,1.1,2.6,2.6,3.6c1.5,1.1,2.6,1.9,3.6,2.3c0.6,0.2,1.7,0.6,2.3,1
					c0.5,0.3,0.7,0.5,0.5,0.7c-0.6,0.4-1.1,1.1-0.4,3.4c0.7,2.4,0.7,2.6,1.7,3.8c1.1,1.3,1.9,1.7,1.9,3.2S63,53,63.4,54.3
					c0.4,1.3,0.9,3.8,1.7,4.1s2.8,1.7,2.1,0.4c-0.7-1.3-2-3.6-0.9-4.7c1.1-1.1,2.6-1.5,3.2-3.7c0.6-2.1,1.9-2.6,1.9-2.6l0.8-2.6
					l0.8-1.7c0,0-0.7-2.1-3.4-3c-2.8-0.8-0.2-1.1-3.2-2.3c-3-1.3-2.8-2.6-3.7-2.1C62,36.5,60.3,37,60.3,37l-0.1-0.1l-2.1-1.8
					c0,0-4.3-1.9-2.8-3.8c1.5-1.9,2.8-3,3.6-1.5c0.9,1.5,1.1,1.5,1.7-0.4c0.6-1.9,3.2-4.7,4.2-4.7c1.1,0,1.9-1.7,1.9-1.7
					s3.9,0,1.5-1.5c-2.4-1.5-2.2-2.1-3.4-0.6c-1.3,1.5-1.5,0.2-2.3,0.2c-0.9,0,0.2-2.6,1.1-2.6c0.9,0-0.9-2.3-3-1.5
					c-2.1,0.9-6.6,0.5-6.6,0.5s-0.2,0-0.4,0c2.3-1.1,4.8-1.8,7.5-2.1c0,0,0.1,0,0.1,0c0.3,0,0.7-0.1,1-0.1c0.1,0,0.2,0,0.3,0
					c0.3,0,0.6,0,0.9,0c0.2,0,0.3,0,0.5,0c0.2,0,0.4,0,0.6,0s0.4,0,0.6,0c0.2,0,0.4,0,0.6,0c0.2,0,0.4,0,0.6,0
					c0.2,0,0.4,0.1,0.6,0.1c0.2,0,0.4,0,0.6,0.1c0.2,0,0.4,0.1,0.6,0.1c0.2,0,0.4,0.1,0.6,0.1c0.2,0,0.4,0.1,0.7,0.1
					c0.2,0,0.4,0.1,0.6,0.1c0.2,0.1,0.4,0.1,0.7,0.2c0.2,0.1,0.4,0.1,0.5,0.1c0.2,0.1,0.4,0.1,0.7,0.2c0.2,0.1,0.3,0.1,0.5,0.2
					c0.2,0.1,0.4,0.2,0.6,0.2c0.2,0.1,0.3,0.1,0.5,0.2c0.2,0.1,0.4,0.2,0.6,0.3c0.2,0.1,0.3,0.1,0.5,0.2c0.2,0.1,0.4,0.2,0.6,0.3
					c0.2,0.1,0.3,0.2,0.5,0.2c0.2,0.1,0.4,0.2,0.6,0.3c0.2,0.1,0.3,0.2,0.5,0.3c0.2,0.1,0.4,0.2,0.6,0.4c0.1,0.1,0.3,0.2,0.5,0.3
					c0.2,0.1,0.4,0.2,0.5,0.4c0.2,0.1,0.3,0.2,0.5,0.3c0.2,0.1,0.3,0.3,0.5,0.4c0.2,0.1,0.3,0.2,0.5,0.4c0.2,0.1,0.3,0.3,0.5,0.4
					c0.1,0.1,0.3,0.3,0.4,0.4c0.1,0.1,0.3,0.3,0.4,0.4c0.1,0.1,0.3,0.3,0.4,0.4c0.1,0.1,0.3,0.3,0.4,0.4c0.1,0.2,0.3,0.3,0.4,0.5
					c0.1,0.1,0.2,0.3,0.4,0.4c0.1,0.2,0.3,0.3,0.4,0.5c0.1,0.1,0.2,0.3,0.3,0.4c0.1,0.2,0.3,0.3,0.4,0.5c0.1,0.1,0.2,0.3,0.3,0.4
					c0.1,0.2,0.3,0.4,0.4,0.5c0.1,0.1,0.2,0.3,0.3,0.4c0.1,0.2,0.2,0.4,0.4,0.6c0.1,0.1,0.2,0.3,0.3,0.5c0.1,0.2,0.2,0.4,0.3,0.6
					c0.1,0.2,0.2,0.3,0.2,0.5c0.1,0.2,0.2,0.4,0.3,0.6c0.1,0.2,0.2,0.3,0.2,0.5c0.1,0.2,0.2,0.4,0.3,0.6c0.1,0.2,0.1,0.3,0.2,0.5
					c0.1,0.2,0.2,0.4,0.2,0.6c0.1,0.2,0.1,0.4,0.2,0.5c0.1,0.2,0.1,0.4,0.2,0.6c0.1,0.2,0.1,0.4,0.2,0.6c0.1,0.2,0.1,0.4,0.2,0.6
					c0.1,0.2,0.1,0.4,0.1,0.6c0.1,0.2,0.1,0.4,0.1,0.6c0,0.2,0.1,0.4,0.1,0.6c0,0.2,0.1,0.4,0.1,0.6c0,0.2,0.1,0.4,0.1,0.6
					c0,0.2,0.1,0.4,0.1,0.6c0,0.2,0,0.4,0.1,0.7c0,0.2,0,0.4,0,0.6c0,0.2,0,0.4,0,0.7c0,0.1,0,0.2,0,0.3C89,39.7,89,39.8,89,39.9z"
					/>
				<path class="st8" d="M73.2,43.5l-0.8,1.7l-0.8,2.6c0,0-1.3,0.4-1.9,2.6c-0.6,2.1-2.1,2.6-3.2,3.7c-1.1,1.1,0.2,3.4,0.9,4.7
					c0.6,1.3-1.3-0.2-2.1-0.4s-1.3-2.8-1.7-4.1C63,53,63.6,50,63.6,48.5s-0.9-1.9-1.9-3.2c-1.1-1.3-1.1-1.5-1.7-3.8
					c-0.7-2.3-0.2-3,0.4-3.4c0.3-0.2,0-0.4-0.5-0.7l0.4-0.4l0.1,0.1c0,0,1.7-0.4,2.6-0.9c0.8-0.4,0.6,0.9,3.7,2.1
					c3,1.3,0.4,1.5,3.2,2.3C72.5,41.4,73.2,43.5,73.2,43.5z"/>
				<path class="st8" d="M68.3,21.3c2.4,1.5-1.5,1.5-1.5,1.5s-0.8,1.7-1.9,1.7c-1.1,0-3.6,2.8-4.2,4.7c-0.6,1.9-0.8,1.9-1.7,0.4
					c-0.9-1.5-2.1-0.4-3.6,1.5c-1.5,1.9,2.8,3.8,2.8,3.8l2.1,1.8l-0.4,0.4c-0.6-0.4-1.7-0.8-2.3-1c-1.1-0.4-2.1-1.3-3.6-2.3
					c-1.5-1.1-1.9-2.8-2.6-3.6c-0.6-0.9-0.9-4.7-0.9-6c0-1.3,1.5-2.8,0.8-3.9C50.9,20.1,50,20,49,20c-3.9,2.9-6.9,6.9-8.5,11.5
					c3.1-8.7,11-15.2,20.6-16.3c-2.6,0.3-5.1,1.1-7.5,2.1c0.2,0,0.4,0,0.4,0s4.5,0.4,6.6-0.5c2.1-0.9,3.9,1.5,3,1.5
					c-0.9,0-1.9,2.6-1.1,2.6c0.9,0,1.1,1.3,2.3-0.2C66.2,19.2,65.9,19.8,68.3,21.3z"/>
				<path class="st8" d="M51,61.4c1.9,1.2,4,2.1,6.2,2.7c-8.3-2.3-14.9-8.8-17.3-17.1c0.6,2.2,1.6,4.3,2.8,6.2
					c0.9,0.3,2.8,0.9,3.7,0.9c1.1,0,4.1-0.3,4.9,1.9c0.8,2.2,2.2,2.5,0.3,4.7C51.4,60.9,51.2,61.2,51,61.4z"/>
			</g>
			<g>
				<path class="st0" d="M61,15.2c-9.5,1.1-17.4,7.6-20.6,16.3c-0.2,0.4-0.3,0.9-0.4,1.3c0,0.1-0.1,0.3-0.1,0.4"/>
				<path class="st0" d="M58.5,64.4c0.1,0,0.2,0.1,0.4,0.1"/>
				<path class="st0" d="M57.3,64.1c0.2,0.1,0.3,0.1,0.5,0.1"/>
				<path class="st0" d="M39.8,46.4c0,0.2,0.1,0.4,0.2,0.6c2.4,8.3,8.9,14.8,17.3,17.1"/>
				<path class="st0" d="M39.4,44.7c0.1,0.3,0.1,0.5,0.2,0.8"/>
				<path class="st0" d="M64.3,65c0.1,0,0.3,0,0.4,0"/>
				<path class="st0" d="M89,39.9C89,39.9,89,39.9,89,39.9c0-0.2,0-0.3,0-0.4"/>
				<path class="st0" d="M39,40.3c0,0.3,0,0.6,0,0.9"/>
				<path class="st0" d="M64.8,65c0.2,0,0.4,0,0.6,0c0.2,0,0.5,0,0.7-0.1c0.2,0,0.3,0,0.5,0c0.3,0,0.5-0.1,0.8-0.1
					c0.1,0,0.3,0,0.4-0.1c0.3,0,0.6-0.1,0.8-0.2c0.1,0,0.3,0,0.4-0.1c0.3-0.1,0.6-0.1,0.9-0.2c0.1,0,0.2-0.1,0.3-0.1
					c0.3-0.1,0.6-0.2,0.9-0.2c0.1,0,0.2-0.1,0.3-0.1c0.3-0.1,0.6-0.2,0.9-0.3c0.1,0,0.2-0.1,0.3-0.1c0.3-0.1,0.6-0.2,0.9-0.3
					c0.1,0,0.2-0.1,0.3-0.1c0.3-0.1,0.6-0.2,0.8-0.4c0.1,0,0.2-0.1,0.3-0.1c0.3-0.1,0.5-0.3,0.8-0.4c0.1-0.1,0.2-0.1,0.3-0.2
					c0.2-0.1,0.5-0.3,0.7-0.4c0.1-0.1,0.2-0.1,0.3-0.2c0.2-0.1,0.5-0.3,0.7-0.4c0.1-0.1,0.2-0.1,0.3-0.2c0.2-0.1,0.4-0.3,0.6-0.4
					c0.1-0.1,0.2-0.2,0.4-0.3c0.2-0.1,0.4-0.3,0.6-0.4c0.1-0.1,0.3-0.2,0.4-0.3c0.2-0.1,0.3-0.3,0.5-0.4c0.1-0.1,0.3-0.2,0.4-0.4
					c0.1-0.1,0.3-0.3,0.4-0.4c0.1-0.1,0.3-0.3,0.4-0.4c0.1-0.1,0.2-0.3,0.4-0.4c0.2-0.2,0.3-0.3,0.5-0.5c0.1-0.1,0.2-0.2,0.3-0.4
					c0.2-0.2,0.3-0.4,0.5-0.5c0.1-0.1,0.2-0.2,0.3-0.4c0.2-0.2,0.3-0.4,0.5-0.6c0.1-0.1,0.2-0.2,0.2-0.3c0.2-0.2,0.3-0.4,0.5-0.7
					c0.1-0.1,0.1-0.2,0.2-0.3c0.1-0.2,0.3-0.5,0.4-0.7c0.1-0.1,0.1-0.2,0.2-0.3c0.1-0.2,0.3-0.5,0.4-0.7c0.1-0.1,0.1-0.2,0.2-0.3
					c0.1-0.3,0.3-0.5,0.4-0.8c0.1-0.1,0.1-0.2,0.1-0.3c0.1-0.3,0.2-0.5,0.3-0.8c0.1-0.1,0.1-0.2,0.1-0.3c0.1-0.3,0.2-0.5,0.3-0.8
					c0-0.1,0.1-0.2,0.1-0.4c0.1-0.3,0.2-0.5,0.3-0.8c0-0.1,0.1-0.3,0.1-0.4c0.1-0.3,0.2-0.5,0.2-0.8c0-0.1,0.1-0.3,0.1-0.4
					c0.1-0.3,0.1-0.5,0.2-0.8c0-0.2,0.1-0.3,0.1-0.5c0-0.2,0.1-0.5,0.1-0.7c0-0.2,0-0.4,0.1-0.5c0-0.2,0.1-0.5,0.1-0.7
					c0-0.2,0-0.4,0-0.6c0-0.2,0-0.4,0-0.7c0-0.2,0-0.4,0-0.6c0-0.2,0-0.4,0-0.7c0-0.1,0-0.2,0-0.4c0-0.1,0-0.2,0-0.3
					c0-0.2,0-0.4,0-0.7c0-0.2,0-0.4,0-0.6c0-0.2,0-0.4-0.1-0.7c0-0.2-0.1-0.4-0.1-0.6c0-0.2-0.1-0.4-0.1-0.6c0-0.2-0.1-0.4-0.1-0.6
					c0-0.2-0.1-0.4-0.1-0.6c0-0.2-0.1-0.4-0.1-0.6c0-0.2-0.1-0.4-0.1-0.6c-0.1-0.2-0.1-0.4-0.2-0.6c-0.1-0.2-0.1-0.4-0.2-0.6
					c-0.1-0.2-0.1-0.4-0.2-0.6c-0.1-0.2-0.1-0.4-0.2-0.5c-0.1-0.2-0.2-0.4-0.2-0.6c-0.1-0.2-0.1-0.3-0.2-0.5
					c-0.1-0.2-0.2-0.4-0.3-0.6c-0.1-0.2-0.1-0.3-0.2-0.5c-0.1-0.2-0.2-0.4-0.3-0.6c-0.1-0.2-0.2-0.3-0.2-0.5
					c-0.1-0.2-0.2-0.4-0.3-0.6c-0.1-0.1-0.2-0.3-0.3-0.5c-0.1-0.2-0.2-0.4-0.4-0.6c-0.1-0.1-0.2-0.3-0.3-0.4
					c-0.1-0.2-0.3-0.4-0.4-0.5c-0.1-0.1-0.2-0.3-0.3-0.4c-0.1-0.2-0.3-0.3-0.4-0.5c-0.1-0.1-0.2-0.3-0.3-0.4
					c-0.1-0.2-0.3-0.3-0.4-0.5c-0.1-0.1-0.2-0.3-0.4-0.4c-0.1-0.2-0.3-0.3-0.4-0.5c-0.1-0.1-0.3-0.3-0.4-0.4
					c-0.1-0.1-0.3-0.3-0.4-0.4c-0.1-0.1-0.3-0.3-0.4-0.4c-0.1-0.1-0.3-0.3-0.4-0.4c-0.2-0.1-0.3-0.3-0.5-0.4
					c-0.1-0.1-0.3-0.2-0.5-0.4c-0.2-0.1-0.3-0.3-0.5-0.4c-0.1-0.1-0.3-0.2-0.5-0.3c-0.2-0.1-0.4-0.2-0.5-0.4
					c-0.1-0.1-0.3-0.2-0.5-0.3c-0.2-0.1-0.4-0.2-0.6-0.4c-0.1-0.1-0.3-0.2-0.5-0.3c-0.2-0.1-0.4-0.2-0.6-0.3
					c-0.2-0.1-0.3-0.2-0.5-0.2c-0.2-0.1-0.4-0.2-0.6-0.3c-0.2-0.1-0.3-0.1-0.5-0.2c-0.2-0.1-0.4-0.2-0.6-0.3
					c-0.2-0.1-0.3-0.1-0.5-0.2c-0.2-0.1-0.4-0.2-0.6-0.2c-0.2-0.1-0.3-0.1-0.5-0.2c-0.2-0.1-0.4-0.1-0.7-0.2
					C71.2,16,71,16,70.8,15.9c-0.2-0.1-0.4-0.1-0.7-0.2c-0.2,0-0.4-0.1-0.6-0.1c-0.2-0.1-0.4-0.1-0.7-0.1c-0.2,0-0.4-0.1-0.6-0.1
					c-0.2,0-0.4-0.1-0.6-0.1c-0.2,0-0.4-0.1-0.6-0.1c-0.2,0-0.4-0.1-0.6-0.1c-0.2,0-0.4,0-0.6,0c-0.2,0-0.4,0-0.6,0
					c-0.2,0-0.4,0-0.6,0s-0.4,0-0.6,0c-0.2,0-0.3,0-0.5,0c-0.3,0-0.6,0-0.9,0c-0.1,0-0.2,0-0.3,0c-0.3,0-0.7,0.1-1,0.1
					c0,0-0.1,0-0.1,0c-2.6,0.3-5.1,1.1-7.5,2.1c0.2,0,0.4,0,0.4,0s4.5,0.4,6.6-0.5c2.1-0.9,3.9,1.5,3,1.5c-0.9,0-1.9,2.6-1.1,2.6
					c0.9,0,1.1,1.3,2.3-0.2c1.3-1.5,1.1-0.9,3.4,0.6c2.4,1.5-1.5,1.5-1.5,1.5s-0.8,1.7-1.9,1.7c-1.1,0-3.6,2.8-4.2,4.7
					c-0.6,1.9-0.8,1.9-1.7,0.4c-0.9-1.5-2.1-0.4-3.6,1.5c-1.5,1.9,2.8,3.8,2.8,3.8l2.1,1.8l0.1,0.1c0,0,1.7-0.4,2.6-0.9
					c0.8-0.4,0.6,0.9,3.7,2.1c3,1.3,0.4,1.5,3.2,2.3c2.8,0.8,3.4,3,3.4,3l-0.8,1.7l-0.8,2.6c0,0-1.3,0.4-1.9,2.6
					c-0.6,2.1-2.1,2.6-3.2,3.7c-1.1,1.1,0.2,3.4,0.9,4.7c0.6,1.3-1.3-0.2-2.1-0.4s-1.3-2.8-1.7-4.1C63,53,63.6,50,63.6,48.5
					s-0.9-1.9-1.9-3.2c-1.1-1.3-1.1-1.5-1.7-3.8c-0.7-2.3-0.2-3,0.4-3.4c0.3-0.2,0-0.4-0.5-0.7c-0.6-0.4-1.7-0.8-2.3-1
					c-1.1-0.4-2.1-1.3-3.6-2.3c-1.5-1.1-1.9-2.8-2.6-3.6c-0.6-0.9-0.9-4.7-0.9-6c0-1.3,1.5-2.8,0.8-3.9C50.9,20.1,50,20,49,20
					c-3.9,2.9-6.9,6.9-8.5,11.5c-0.2,0.4-0.3,0.9-0.4,1.3c0,0.1-0.1,0.3-0.1,0.4c-0.1,0.3-0.2,0.6-0.2,0.9c0,0,0,0.1,0,0.1
					c-0.1,0.4-0.2,0.8-0.2,1.2c0,0.1,0,0.2-0.1,0.3c-0.1,0.4-0.1,0.7-0.2,1.1c0,0.1,0,0.2,0,0.3c-0.1,0.4-0.1,0.8-0.1,1.3
					c0,0.1,0,0.1,0,0.2c0,0.5,0,0.9,0,1.4c0,0.1,0,0.1,0,0.2c0,0.3,0,0.6,0,0.9c0,0.1,0,0.2,0,0.2c0,0.3,0,0.6,0.1,0.9
					c0,0.1,0,0.2,0,0.3c0,0.3,0.1,0.7,0.1,1c0,0.2,0.1,0.3,0.1,0.5c0,0.2,0.1,0.3,0.1,0.5c0.1,0.3,0.1,0.5,0.2,0.8
					c0.1,0.3,0.1,0.6,0.2,0.9c0,0.2,0.1,0.4,0.2,0.6c0.6,2.2,1.6,4.3,2.8,6.2c0.9,0.3,2.8,0.9,3.7,0.9c1.1,0,4.1-0.3,4.9,1.9
					c0.8,2.2,2.2,2.5,0.3,4.7c-0.2,0.3-0.4,0.5-0.6,0.7c1.9,1.2,4,2.1,6.2,2.7c0,0,0.1,0,0.1,0c0.2,0,0.3,0.1,0.5,0.1
					c0.2,0.1,0.4,0.1,0.6,0.2c0.1,0,0.2,0.1,0.4,0.1c0.2,0.1,0.5,0.1,0.7,0.1c0.1,0,0.2,0,0.3,0.1c0.2,0,0.4,0.1,0.6,0.1
					c0.2,0,0.4,0.1,0.7,0.1c0.1,0,0.3,0,0.4,0c0.3,0,0.7,0.1,1,0.1c0.1,0,0.2,0,0.3,0c0.3,0,0.6,0,0.9,0c0.1,0,0.2,0,0.2,0
					c0.1,0,0.2,0,0.3,0C64.5,65,64.6,65,64.8,65z"/>
			</g>
		</g>
	</g>
</g>
</svg>
