<?xml version="1.0" encoding="utf-8"?>
<!-- Generator: Adobe Illustrator 19.2.1, SVG Export Plug-In . SVG Version: 6.00 Build 0)  -->
<svg version="1.1" xmlns="http://www.w3.org/2000/svg" xmlns:xlink="http://www.w3.org/1999/xlink" x="0px" y="0px"
	 viewBox="0 0 128 128" style="enable-background:new 0 0 128 128;" xml:space="preserve">
<style type="text/css">
	.st0{fill:none;stroke:#263238;stroke-width:2;stroke-miterlimit:10;}
	.st1{fill:#EF5350;stroke:#263238;stroke-width:2;stroke-miterlimit:10;}
	.st2{fill:#009688;stroke:#263238;stroke-width:2;stroke-miterlimit:10;}
	.st3{fill:#03A9F4;stroke:#263238;stroke-width:2;stroke-miterlimit:10;}
	.st4{fill:#CFD8DC;stroke:#263238;stroke-width:2;stroke-miterlimit:10;}
	.st5{display:none;}
	.st6{display:inline;}
	.st7{display:inline;fill:none;stroke:#263238;stroke-width:2;stroke-miterlimit:10;}
	.st8{fill:#009688;}
	.st9{fill:#03A9F4;}
	.st10{fill:#EF5350;}
	.st11{fill:#CFD8DC;}
	.st12{fill-rule:evenodd;clip-rule:evenodd;fill:none;stroke:#263238;stroke-width:2;stroke-miterlimit:10;}
	.st13{fill:#37474F;}
	
		.st14{display:inline;fill:none;stroke:#263238;stroke-width:2;stroke-linecap:round;stroke-miterlimit:10;stroke-dasharray:1.9328,3.8656;}
	.st15{fill:#263238;}
	.st16{display:inline;fill:#263238;}
	.st17{display:inline;fill:#FFFFFF;stroke:#000000;stroke-width:2;stroke-miterlimit:10;}
	.st18{display:inline;fill-rule:evenodd;clip-rule:evenodd;fill:none;stroke:#263238;stroke-width:2;stroke-miterlimit:10;}
	.st19{fill:#58595B;}
	.st20{fill:url(#SVGID_1_);}
	.st21{fill:url(#SVGID_2_);}
	.st22{fill:url(#SVGID_3_);}
	.st23{fill:none;stroke:#4A4A4C;stroke-width:0.5;}
	.st24{opacity:0.23;fill:#231F20;enable-background:new    ;}
	.st25{fill:none;stroke:#A8ABAD;stroke-width:0.5;}
	.st26{fill:none;stroke:#37474F;stroke-width:0.5;}
	.st27{fill:#6D6E70;}
	.st28{fill:#FFFFFF;}
	.st29{display:inline;fill:none;stroke:#000000;stroke-width:2;stroke-linecap:round;stroke-linejoin:round;}
	.st30{fill:none;stroke:#000000;stroke-width:2;stroke-linecap:round;stroke-linejoin:round;}
	.st31{display:inline;fill:none;}
	.st32{fill:none;}
	.st33{display:inline;fill-rule:evenodd;clip-rule:evenodd;fill:#263238;}
</style>
<g id="artboards">
</g>
<g id="guides">
</g>
<g id="palette">
</g>
<g id="view-images">
</g>
<g id="using_a_public_group">
</g>
<g id="user-added_metadata">
</g>
<g id="unit-support">
	<g id="raw_10_" class="st5">
	</g>
	<g id="Live_Paint">
	</g>
</g>
<g id="supported_file_formats">
</g>
<g id="share">
</g>
<g id="searching_and_filtering">
</g>
<g id="scripting_service">
</g>
<g id="roi_folders_1_">
	<g id="raw_8_">
	</g>
</g>
<g id="reverse_intensity_rendering_1_">
	<g id="raw_7_" class="st5">
	</g>
</g>
<g id="rendering_settings">
</g>
<g id="quality_assurance_1_">
	<g id="raw_6_" class="st5">
	</g>
</g>
<g id="python_blitz_api">
</g>
<g id="public_access">
</g>
<g id="personalize">
	<g id="raw_5_" class="st5">
	</g>
</g>
<g id="original_file_formats">
</g>
<g id="orbit_image_analysis">
</g>
<g id="open_with..._1_">
	<g id="raw_4_" class="st5">
	</g>
</g>
<g id="omero-wnd-charm">
</g>
<g id="omero.webtagging">
</g>
<g id="omero.mail_1_">
	<g id="raw_1_" class="st5">
	</g>
</g>
<g id="omero.forms">
</g>
<g id="omero.dropbox">
</g>
<g id="omero_as_public_repository">
</g>
<g id="moodle">
	<g id="logo_-_moodle">
	</g>
</g>
<g id="manage_and_organize">
</g>
<g id="manage">
	<g id="raw_9_" class="st5">
	</g>
</g>
<g id="lookup_table_1_">
	<g id="raw_2_" class="st5">
	</g>
</g>
<g id="improved_screen_plate_well_ui_1_">
	<g id="raw_3_" class="st5">
	</g>
</g>
<g id="improved_performance">
</g>
<g id="import_images">
</g>
<g id="import-for">
</g>
<g id="histogram_support">
	<g id="raw" class="st5">
	</g>
</g>
<g id="file_integrity_reports">
</g>
<g id="export_images">
</g>
<g id="export_hcs">
</g>
<g id="export_filesets">
</g>
<g id="draw_rois">
	<g class="st5">
		<rect x="16" y="16" class="st7" width="12" height="12"/>
		<rect x="56" y="16" class="st7" width="12" height="12"/>
		<rect x="16" y="56" class="st7" width="12" height="12"/>
		<rect x="56" y="56" class="st7" width="12" height="12"/>
		<rect x="36" y="36" class="st7" width="12" height="12"/>
		<rect x="76" y="36" class="st7" width="12" height="12"/>
		<rect x="36" y="76" class="st7" width="12" height="12"/>
		<rect x="76" y="76" class="st7" width="12" height="12"/>
		<line class="st7" x1="28" y1="62" x2="56" y2="62"/>
		<line class="st7" x1="22" y1="28" x2="22" y2="56"/>
		<line class="st7" x1="56" y1="22" x2="28" y2="22"/>
		<line class="st7" x1="62" y1="56" x2="62" y2="28"/>
		<line class="st7" x1="82" y1="48" x2="82" y2="76"/>
		<line class="st7" x1="48" y1="42" x2="76" y2="42"/>
		<line class="st7" x1="42" y1="76" x2="42" y2="48"/>
		<line class="st7" x1="76" y1="82" x2="48" y2="82"/>
		<path class="st7" d="M111,15h-10c-1.1,0-2,0.9-2,2v82H17c-1.1,0-2,0.9-2,2v10c0,1.1,0.9,2,2,2h84h10c1.1,0,2-0.9,2-2v-10V17
			C113,15.9,112.1,15,111,15z"/>
		<line class="st7" x1="105" y1="22" x2="99" y2="22"/>
		<polyline class="st7" points="105,34 99,34 99,28 103,28 		"/>
		<polyline class="st7" points="105,46 99,46 99,40 103,40 		"/>
		<polyline class="st7" points="105,58 99,58 99,52 103,52 		"/>
		<polyline class="st7" points="105,70 99,70 99,64 103,64 		"/>
		<polyline class="st7" points="105,82 99,82 99,76 103,76 		"/>
		<polyline class="st7" points="105,94 99,94 99,88 103,88 		"/>
		<line class="st7" x1="94" y1="105" x2="94" y2="99"/>
		<polyline class="st7" points="82,105 82,99 88,99 88,103 		"/>
		<polyline class="st7" points="70,105 70,99 76,99 76,103 		"/>
		<polyline class="st7" points="58,105 58,99 64,99 64,103 		"/>
		<polyline class="st7" points="46,105 46,99 52,99 52,103 		"/>
		<polyline class="st7" points="34,105 34,99 40,99 40,103 		"/>
		<polyline class="st7" points="22,105 22,99 28,99 28,103 		"/>
	</g>
	<g>
		<g id="XMLID_29_">
			<g>
				<polygon class="st11" points="68,56 68,68 56,68 56,62 56,56 62,56 				"/>
				<polygon class="st11" points="48,42 48,48 42,48 36,48 36,36 48,36 				"/>
				<polygon class="st10" points="88,76 88,88 76,88 76,82 76,76 82,76 				"/>
				<polygon class="st9" points="28,62 28,68 16,68 16,56 22,56 28,56 				"/>
				<polygon class="st8" points="68,16 68,28 62,28 56,28 56,22 56,16 				"/>
				<polygon class="st8" points="48,82 48,88 36,88 36,76 42,76 48,76 				"/>
				<polygon class="st9" points="88,36 88,48 82,48 76,48 76,42 76,36 				"/>
				<polygon class="st10" points="28,22 28,28 22,28 16,28 16,16 28,16 				"/>
				<path class="st11" d="M99,94v-6v-6v-6v-6v-6v-6v-6v-6v-6v-6v-6v-6v-5c0-1.1,0.9-2,2-2h10c1.1,0,2,0.9,2,2v84v10c0,1.1-0.9,2-2,2
					h-10H17c-1.1,0-2-0.9-2-2v-10c0-1.1,0.9-2,2-2h5h6h6h6h6h6h6h6h6h6h6h6h6h5V94z"/>
			</g>
			<g>
				<polygon class="st0" points="28,22 28,28 22,28 16,28 16,16 28,16 				"/>
				<polygon class="st0" points="56,22 56,16 68,16 68,28 62,28 56,28 				"/>
				<polygon class="st0" points="28,62 28,68 16,68 16,56 22,56 28,56 				"/>
				<polygon class="st0" points="62,56 68,56 68,68 56,68 56,62 56,56 				"/>
				<polygon class="st0" points="48,42 48,48 42,48 36,48 36,36 48,36 				"/>
				<polygon class="st0" points="76,42 76,36 88,36 88,48 82,48 76,48 				"/>
				<polygon class="st0" points="48,82 48,88 36,88 36,76 42,76 48,76 				"/>
				<polygon class="st0" points="82,76 88,76 88,88 76,88 76,82 76,76 				"/>
				<polyline class="st0" points="28,62 42,62 56,62 				"/>
				<line class="st0" x1="22" y1="28" x2="22" y2="56"/>
				<line class="st0" x1="56" y1="22" x2="28" y2="22"/>
				<polyline class="st0" points="62,56 62,42 62,28 				"/>
				<line class="st0" x1="82" y1="48" x2="82" y2="76"/>
				<polyline class="st0" points="48,42 62,42 76,42 				"/>
				<polyline class="st0" points="42,76 42,62 42,48 				"/>
				<line class="st0" x1="76" y1="82" x2="48" y2="82"/>
				<line class="st0" x1="34" y1="99" x2="28" y2="99"/>
				<line class="st0" x1="46" y1="99" x2="40" y2="99"/>
				<line class="st0" x1="58" y1="99" x2="52" y2="99"/>
				<line class="st0" x1="70" y1="99" x2="64" y2="99"/>
				<line class="st0" x1="82" y1="99" x2="76" y2="99"/>
				<polyline class="st0" points="99,94 99,99 94,99 88,99 				"/>
				<line class="st0" x1="99" y1="82" x2="99" y2="88"/>
				<line class="st0" x1="99" y1="70" x2="99" y2="76"/>
				<line class="st0" x1="99" y1="58" x2="99" y2="64"/>
				<line class="st0" x1="99" y1="46" x2="99" y2="52"/>
				<line class="st0" x1="99" y1="34" x2="99" y2="40"/>
				<path class="st0" d="M22,99h-5c-1.1,0-2,0.9-2,2v10c0,1.1,0.9,2,2,2h84h10c1.1,0,2-0.9,2-2v-10V17c0-1.1-0.9-2-2-2h-10
					c-1.1,0-2,0.9-2,2v5v6"/>
				<line class="st0" x1="105" y1="22" x2="99" y2="22"/>
				<polyline class="st0" points="105,34 99,34 99,28 103,28 				"/>
				<polyline class="st0" points="105,46 99,46 99,40 103,40 				"/>
				<polyline class="st0" points="105,58 99,58 99,52 103,52 				"/>
				<polyline class="st0" points="105,70 99,70 99,64 103,64 				"/>
				<polyline class="st0" points="105,82 99,82 99,76 103,76 				"/>
				<polyline class="st0" points="105,94 99,94 99,88 103,88 				"/>
				<line class="st0" x1="94" y1="105" x2="94" y2="99"/>
				<polyline class="st0" points="82,105 82,99 88,99 88,103 				"/>
				<polyline class="st0" points="70,105 70,99 76,99 76,103 				"/>
				<polyline class="st0" points="58,105 58,99 64,99 64,103 				"/>
				<polyline class="st0" points="46,105 46,99 52,99 52,103 				"/>
				<polyline class="st0" points="34,105 34,99 40,99 40,103 				"/>
				<polyline class="st0" points="22,105 22,99 28,99 28,103 				"/>
			</g>
		</g>
	</g>
</g>
<g id="customize_clients">
</g>
<g id="command_line_interface">
	<g id="raw_11_" class="st5">
	</g>
	<g id="Live_Paint_1_">
	</g>
</g>
<g id="create_movies">
</g>
<g id="create_figures">
</g>
<g id="big_images">
</g>
<g id="attaching_analytical_results">
</g>
<g id="annotate_data">
</g>
<g id="acquisition_metadata">
</g>
</svg>
