<?xml version="1.0" encoding="utf-8"?>
<!-- Generator: Adobe Illustrator 19.2.1, SVG Export Plug-In . SVG Version: 6.00 Build 0)  -->
<svg version="1.1" xmlns="http://www.w3.org/2000/svg" xmlns:xlink="http://www.w3.org/1999/xlink" x="0px" y="0px"
	 viewBox="0 0 128 128" style="enable-background:new 0 0 128 128;" xml:space="preserve">
<style type="text/css">
	.st0{fill:none;stroke:#263238;stroke-width:2;stroke-miterlimit:10;}
	.st1{fill:#EF5350;stroke:#263238;stroke-width:2;stroke-miterlimit:10;}
	.st2{fill:#009688;stroke:#263238;stroke-width:2;stroke-miterlimit:10;}
	.st3{fill:#03A9F4;stroke:#263238;stroke-width:2;stroke-miterlimit:10;}
	.st4{fill:#CFD8DC;stroke:#263238;stroke-width:2;stroke-miterlimit:10;}
	.st5{display:none;}
	.st6{display:inline;}
	.st7{display:inline;fill:none;stroke:#263238;stroke-width:2;stroke-miterlimit:10;}
	.st8{fill:#CFD8DC;}
	.st9{fill:#EF5350;}
	.st10{fill:#03A9F4;}
	.st11{fill:#009688;}
	.st12{fill-rule:evenodd;clip-rule:evenodd;fill:none;stroke:#263238;stroke-width:2;stroke-miterlimit:10;}
	.st13{fill:#37474F;}
	
		.st14{display:inline;fill:none;stroke:#263238;stroke-width:2;stroke-linecap:round;stroke-miterlimit:10;stroke-dasharray:1.9328,3.8656;}
	.st15{fill:#263238;}
	.st16{display:inline;fill:#263238;}
	.st17{display:inline;fill:#FFFFFF;stroke:#000000;stroke-width:2;stroke-miterlimit:10;}
	.st18{display:inline;fill-rule:evenodd;clip-rule:evenodd;fill:none;stroke:#263238;stroke-width:2;stroke-miterlimit:10;}
	.st19{fill:#58595B;}
	.st20{fill:url(#SVGID_1_);}
	.st21{fill:url(#SVGID_2_);}
	.st22{fill:url(#SVGID_3_);}
	.st23{fill:none;stroke:#4A4A4C;stroke-width:0.5;}
	.st24{opacity:0.23;fill:#231F20;enable-background:new    ;}
	.st25{fill:none;stroke:#A8ABAD;stroke-width:0.5;}
	.st26{fill:none;stroke:#37474F;stroke-width:0.5;}
	.st27{fill:#6D6E70;}
	.st28{fill:#FFFFFF;}
	.st29{display:inline;fill:none;stroke:#000000;stroke-width:2;stroke-linecap:round;stroke-linejoin:round;}
	.st30{fill:none;stroke:#000000;stroke-width:2;stroke-linecap:round;stroke-linejoin:round;}
	.st31{display:inline;fill:none;}
	.st32{fill:none;}
	.st33{display:inline;fill-rule:evenodd;clip-rule:evenodd;fill:#263238;}
</style>
<g id="public_api">
	<g class="st5">
		<g class="st6">
			<path class="st0" d="M103.7,22.5c-1.1-1.9-0.8-4.4,0.8-6c2-2,5.1-2,7.1,0c2,2,2,5.1,0,7.1c-1,1-2.3,1.5-3.5,1.5s-2.6-0.5-3.5-1.5
				C104.1,23.2,103.9,22.8,103.7,22.5L84.3,33.5c0.4,0.7,0.7,1.6,0.7,2.5c0,0.8-0.2,1.6-0.5,2.2l19.1,9.5c0.8-1.6,2.5-2.8,4.5-2.8
				c2.8,0,5,2.2,5,5s-2.2,5-5,5s-5-2.2-5-5c0-0.8,0.2-1.6,0.5-2.2l-19.1-9.5C83.6,39.9,82,41,80,41c-2.8,0-5-2.2-5-5s2.2-5,5-5
				c1.9,0,3.5,1,4.3,2.5"/>
		</g>
		<g class="st6">
			<path class="st0" d="M103.7,79.5c-1.1-1.9-0.8-4.4,0.8-6c2-2,5.1-2,7.1,0c2,2,2,5.1,0,7.1c-1,1-2.3,1.5-3.5,1.5s-2.6-0.5-3.5-1.5
				C104.1,80.2,103.9,79.8,103.7,79.5L84.3,90.5c0.4,0.7,0.7,1.6,0.7,2.5c0,0.8-0.2,1.6-0.5,2.2l19.1,9.5c0.8-1.6,2.5-2.8,4.5-2.8
				c2.8,0,5,2.2,5,5s-2.2,5-5,5s-5-2.2-5-5c0-0.8,0.2-1.6,0.5-2.2l-19.1-9.5C83.6,96.9,82,98,80,98c-2.8,0-5-2.2-5-5s2.2-5,5-5
				c1.9,0,3.5,1,4.3,2.5"/>
		</g>
		<g class="st6">
			<path class="st0" d="M43.7,53.5c-1.1-1.9-0.8-4.4,0.8-6c2-2,5.1-2,7.1,0c2,2,2,5.1,0,7.1c-1,1-2.3,1.5-3.5,1.5s-2.6-0.5-3.5-1.5
				C44.1,54.2,43.9,53.8,43.7,53.5L24.3,64.5c0.4,0.7,0.7,1.6,0.7,2.5c0,0.8-0.2,1.6-0.5,2.2l19.1,9.5C44.4,77.1,46,76,48,76
				c2.8,0,5,2.2,5,5s-2.2,5-5,5s-5-2.2-5-5c0-0.8,0.2-1.6,0.5-2.2l-19.1-9.5C23.6,70.9,22,72,20,72c-2.8,0-5-2.2-5-5s2.2-5,5-5
				c1.9,0,3.5,1,4.3,2.5"/>
		</g>
	</g>
	<g>
		<g>
			<g id="XMLID_50_">
				<g>
					<path class="st11" d="M111.5,16.5c1.9,2,1.9,5.1,0,7.1c-1,1-2.3,1.5-3.5,1.5s-2.6-0.5-3.5-1.5c-0.3-0.3-0.6-0.7-0.8-1.1
						c-1.1-1.9-0.8-4.4,0.8-6C106.4,14.5,109.6,14.5,111.5,16.5z"/>
					<path class="st11" d="M111.5,73.5c1.9,2,1.9,5.1,0,7.1c-1,1-2.3,1.5-3.5,1.5s-2.6-0.5-3.5-1.5c-0.3-0.3-0.6-0.7-0.8-1.1
						c-1.1-1.9-0.8-4.4,0.8-6C106.4,71.5,109.6,71.5,111.5,73.5z"/>
					<path class="st10" d="M108,45c2.8,0,5,2.2,5,5s-2.2,5-5,5s-5-2.2-5-5c0-0.8,0.2-1.5,0.6-2.2C104.4,46.1,106,45,108,45z"/>
					<path class="st10" d="M108,102c2.8,0,5,2.2,5,5s-2.2,5-5,5s-5-2.2-5-5c0-0.8,0.2-1.6,0.6-2.2C104.4,103.1,106,102,108,102z"/>
					<path class="st9" d="M85,36c0,0.8-0.2,1.5-0.6,2.2C83.6,39.9,82,41,80,41c-2.8,0-5-2.2-5-5s2.2-5,5-5c1.9,0,3.5,1,4.3,2.5
						C84.7,34.3,85,35.1,85,36z"/>
					<path class="st9" d="M85,93c0,0.8-0.2,1.6-0.6,2.2C83.6,96.9,82,98,80,98c-2.8,0-5-2.2-5-5s2.2-5,5-5c1.9,0,3.5,1,4.3,2.5
						C84.7,91.3,85,92.1,85,93z"/>
					<path class="st11" d="M51.5,47.5c2,2,2,5.1,0,7.1c-1,1-2.3,1.5-3.5,1.5s-2.6-0.5-3.5-1.5c-0.3-0.3-0.6-0.7-0.8-1.1
						c-1.1-1.9-0.8-4.4,0.8-6C46.4,45.5,49.6,45.5,51.5,47.5z"/>
					<path class="st10" d="M48,76c2.8,0,5,2.2,5,5s-2.2,5-5,5s-5-2.2-5-5c0-0.8,0.2-1.6,0.5-2.2C44.4,77.1,46,76,48,76z"/>
					<path class="st9" d="M25,67c0,0.8-0.2,1.6-0.5,2.2C23.6,70.9,22,72,20,72c-2.8,0-5-2.2-5-5s2.2-5,5-5c1.9,0,3.5,1,4.3,2.5
						C24.7,65.3,25,66.1,25,67z"/>
				</g>
				<g>
					<path class="st0" d="M84.4,38.2C83.6,39.9,82,41,80,41c-2.8,0-5-2.2-5-5s2.2-5,5-5c1.9,0,3.5,1,4.3,2.5"/>
					<path class="st0" d="M103.6,47.8c0.8-1.6,2.5-2.8,4.4-2.8c2.8,0,5,2.2,5,5s-2.2,5-5,5s-5-2.2-5-5
						C103,49.2,103.2,48.5,103.6,47.8z"/>
					<line class="st0" x1="103.6" y1="47.8" x2="84.4" y2="38.2"/>
					<path class="st0" d="M103.7,22.5L84.3,33.5c0.4,0.7,0.7,1.6,0.7,2.5c0,0.8-0.2,1.5-0.6,2.2"/>
					<path class="st0" d="M103.7,22.5c-1.1-1.9-0.8-4.4,0.8-6c2-1.9,5.1-1.9,7.1,0c1.9,2,1.9,5.1,0,7.1c-1,1-2.3,1.5-3.5,1.5
						s-2.6-0.5-3.5-1.5C104.1,23.2,103.9,22.9,103.7,22.5z"/>
					<path class="st0" d="M84.4,95.2C83.6,96.9,82,98,80,98c-2.8,0-5-2.2-5-5s2.2-5,5-5c1.9,0,3.5,1,4.3,2.5"/>
					<path class="st0" d="M103.6,104.8c0.8-1.6,2.5-2.8,4.4-2.8c2.8,0,5,2.2,5,5s-2.2,5-5,5s-5-2.2-5-5
						C103,106.2,103.2,105.4,103.6,104.8z"/>
					<line class="st0" x1="103.6" y1="104.8" x2="84.4" y2="95.2"/>
					<path class="st0" d="M103.7,79.5L84.3,90.5c0.4,0.7,0.7,1.6,0.7,2.5c0,0.8-0.2,1.6-0.6,2.2"/>
					<path class="st0" d="M103.7,79.5c-1.1-1.9-0.8-4.4,0.8-6c2-1.9,5.1-1.9,7.1,0c1.9,2,1.9,5.1,0,7.1c-1,1-2.3,1.5-3.5,1.5
						s-2.6-0.5-3.5-1.5C104.1,80.2,103.9,79.8,103.7,79.5z"/>
					<path class="st0" d="M24.5,69.2C23.6,70.9,22,72,20,72c-2.8,0-5-2.2-5-5s2.2-5,5-5c1.9,0,3.5,1,4.3,2.5"/>
					<path class="st0" d="M43.5,78.8C44.4,77.1,46,76,48,76c2.8,0,5,2.2,5,5s-2.2,5-5,5s-5-2.2-5-5C43,80.2,43.2,79.4,43.5,78.8z"/>
					<line class="st0" x1="43.5" y1="78.8" x2="24.5" y2="69.2"/>
					<path class="st0" d="M43.7,53.5L24.3,64.5c0.4,0.7,0.7,1.6,0.7,2.5c0,0.8-0.2,1.6-0.5,2.2"/>
					<path class="st0" d="M43.7,53.5c-1.1-1.9-0.8-4.4,0.8-6c2-2,5.1-2,7.1,0c2,2,2,5.1,0,7.1c-1,1-2.3,1.5-3.5,1.5
						s-2.6-0.5-3.5-1.5C44.1,54.2,43.9,53.8,43.7,53.5z"/>
				</g>
			</g>
		</g>
	</g>
</g>
</svg>
