<?xml version="1.0" encoding="utf-8"?>
<!-- Generator: Adobe Illustrator 19.2.1, SVG Export Plug-In . SVG Version: 6.00 Build 0)  -->
<svg version="1.1" xmlns="http://www.w3.org/2000/svg" xmlns:xlink="http://www.w3.org/1999/xlink" x="0px" y="0px"
	 viewBox="0 0 128 128" style="enable-background:new 0 0 128 128;" xml:space="preserve">
<style type="text/css">
	.st0{fill:none;stroke:#263238;stroke-width:2;stroke-miterlimit:10;}
	.st1{fill:#EF5350;stroke:#263238;stroke-width:2;stroke-miterlimit:10;}
	.st2{fill:#009688;stroke:#263238;stroke-width:2;stroke-miterlimit:10;}
	.st3{fill:#03A9F4;stroke:#263238;stroke-width:2;stroke-miterlimit:10;}
	.st4{fill:#CFD8DC;stroke:#263238;stroke-width:2;stroke-miterlimit:10;}
	.st5{display:none;}
	.st6{display:inline;}
	.st7{display:inline;fill:none;stroke:#263238;stroke-width:2;stroke-miterlimit:10;}
	.st8{fill:#009688;}
	.st9{fill:#03A9F4;}
	.st10{fill:#EF5350;}
	.st11{fill:#CFD8DC;}
	.st12{fill-rule:evenodd;clip-rule:evenodd;fill:none;stroke:#263238;stroke-width:2;stroke-miterlimit:10;}
	.st13{fill:#37474F;}
	
		.st14{display:inline;fill:none;stroke:#263238;stroke-width:2;stroke-linecap:round;stroke-miterlimit:10;stroke-dasharray:1.9328,3.8656;}
	.st15{fill:#263238;}
	.st16{display:inline;fill:#263238;}
	.st17{display:inline;fill:#FFFFFF;stroke:#000000;stroke-width:2;stroke-miterlimit:10;}
	.st18{display:inline;fill-rule:evenodd;clip-rule:evenodd;fill:none;stroke:#263238;stroke-width:2;stroke-miterlimit:10;}
	.st19{fill:#58595B;}
	.st20{fill:url(#SVGID_1_);}
	.st21{fill:url(#SVGID_2_);}
	.st22{fill:url(#SVGID_3_);}
	.st23{fill:none;stroke:#4A4A4C;stroke-width:0.5;}
	.st24{opacity:0.23;fill:#231F20;enable-background:new    ;}
	.st25{fill:none;stroke:#A8ABAD;stroke-width:0.5;}
	.st26{fill:none;stroke:#37474F;stroke-width:0.5;}
	.st27{fill:#6D6E70;}
	.st28{fill:#FFFFFF;}
	.st29{display:inline;fill:none;stroke:#000000;stroke-width:2;stroke-linecap:round;stroke-linejoin:round;}
	.st30{fill:none;stroke:#000000;stroke-width:2;stroke-linecap:round;stroke-linejoin:round;}
	.st31{display:inline;fill:none;}
	.st32{fill:none;}
	.st33{display:inline;fill-rule:evenodd;clip-rule:evenodd;fill:#263238;}
</style>
<g id="artboards">
</g>
<g id="guides">
</g>
<g id="palette">
</g>
<g id="view-images">
</g>
<g id="using_a_public_group">
</g>
<g id="user-added_metadata">
</g>
<g id="unit-support">
	<g id="raw_10_" class="st5">
	</g>
	<g id="Live_Paint">
	</g>
</g>
<g id="supported_file_formats">
</g>
<g id="share">
</g>
<g id="searching_and_filtering">
</g>
<g id="scripting_service">
</g>
<g id="roi_folders_1_">
	<g id="raw_8_">
	</g>
</g>
<g id="reverse_intensity_rendering_1_">
	<g id="raw_7_" class="st5">
	</g>
</g>
<g id="rendering_settings">
</g>
<g id="quality_assurance_1_">
	<g id="raw_6_" class="st5">
	</g>
</g>
<g id="python_blitz_api">
</g>
<g id="public_access">
</g>
<g id="personalize">
	<g id="raw_5_" class="st5">
	</g>
</g>
<g id="original_file_formats">
	<g id="file" class="st5">
		<g class="st6">
			<path class="st0" d="M47,21H23c-1.1,0-2,0.9-2,2v44c0,1.1,0.9,2,2,2h32c1.1,0,2-0.9,2-2V31H47V21z"/>
			<path class="st0" d="M57,31H47V21"/>
		</g>
		<line class="st7" x1="47" y1="21" x2="57" y2="31"/>
	</g>
	<g class="st5">
		<g id="file_1_" class="st6">
			<path class="st0" d="M52,26H42V16"/>
			<line class="st0" x1="42" y1="16" x2="52" y2="26"/>
		</g>
		<g id="file_2_" class="st6">
			<g>
				<g>
					<path class="st0" d="M48,40h4V26H42V16H18c-1.1,0-2,0.9-2,2v44c0,1.1,0.9,2,2,2h28V42C46,40.9,46.9,40,48,40z"/>
					<path class="st0" d="M52,40h-4c-1.1,0-2,0.9-2,2v22"/>
				</g>
				<path class="st0" d="M82,50H72V40"/>
			</g>
			<line class="st0" x1="72" y1="40" x2="82" y2="50"/>
		</g>
		<g id="file_3_" class="st6">
			<g>
				<g>
					<path class="st0" d="M46,64v22c0,1.1,0.9,2,2,2h28V66c0-1.1,0.9-2,2-2h4V50H72V40H52"/>
					<path class="st0" d="M76,88v22c0,1.1,0.9,2,2,2h32c1.1,0,2-0.9,2-2V74h-10V64H82"/>
					<path class="st0" d="M82,64h-4c-1.1,0-2,0.9-2,2v22"/>
				</g>
				<path class="st0" d="M112,74h-10V64"/>
			</g>
			<line class="st0" x1="102" y1="64" x2="112" y2="74"/>
		</g>
	</g>
	<g id="Live_Paint_17_">
		<g id="file_4_">
			<g id="XMLID_46_">
				<g>
					<path class="st9" d="M82,50v14h-4c-1.1,0-2,0.9-2,2v22H48c-1.1,0-2-0.9-2-2V64V42c0-1.1,0.9-2,2-2h4h20v10H82z"/>
					<path class="st8" d="M52,26v14h-4c-1.1,0-2,0.9-2,2v22H18c-1.1,0-2-0.9-2-2V18c0-1.1,0.9-2,2-2h24v10H52z"/>
					<path class="st10" d="M112,74v36c0,1.1-0.9,2-2,2H78c-1.1,0-2-0.9-2-2V88V66c0-1.1,0.9-2,2-2h4h20v10H112z"/>
				</g>
				<g>
					<line class="st0" x1="42" y1="16" x2="52" y2="26"/>
					<path class="st0" d="M52,40V26H42V16H18c-1.1,0-2,0.9-2,2v44c0,1.1,0.9,2,2,2h28"/>
					<path class="st0" d="M52,40h-4c-1.1,0-2,0.9-2,2v22"/>
					<line class="st0" x1="72" y1="40" x2="82" y2="50"/>
					<polyline class="st0" points="82,64 82,50 72,50 72,40 52,40 					"/>
					<path class="st0" d="M46,64v22c0,1.1,0.9,2,2,2h28"/>
					<line class="st0" x1="102" y1="64" x2="82" y2="64"/>
					<path class="st0" d="M76,88v22c0,1.1,0.9,2,2,2h32c1.1,0,2-0.9,2-2V74"/>
					<path class="st0" d="M82,64h-4c-1.1,0-2,0.9-2,2v22"/>
					<polyline class="st0" points="112,74 102,74 102,64 					"/>
					<line class="st0" x1="102" y1="64" x2="112" y2="74"/>
				</g>
			</g>
		</g>
	</g>
</g>
<g id="orbit_image_analysis">
</g>
<g id="open_with..._1_">
	<g id="raw_4_" class="st5">
	</g>
</g>
<g id="omero-wnd-charm">
</g>
<g id="omero.webtagging">
</g>
<g id="omero.mail_1_">
	<g id="raw_1_" class="st5">
	</g>
</g>
<g id="omero.forms">
</g>
<g id="omero.dropbox">
</g>
<g id="omero_as_public_repository">
</g>
<g id="moodle">
	<g id="logo_-_moodle">
	</g>
</g>
<g id="manage_and_organize">
</g>
<g id="manage">
	<g id="raw_9_" class="st5">
	</g>
</g>
<g id="lookup_table_1_">
	<g id="raw_2_" class="st5">
	</g>
</g>
<g id="improved_screen_plate_well_ui_1_">
	<g id="raw_3_" class="st5">
	</g>
</g>
<g id="improved_performance">
</g>
<g id="import_images">
</g>
<g id="import-for">
</g>
<g id="histogram_support">
	<g id="raw" class="st5">
	</g>
</g>
<g id="file_integrity_reports">
</g>
<g id="export_images">
</g>
<g id="export_hcs">
</g>
<g id="export_filesets">
</g>
<g id="draw_rois">
</g>
<g id="customize_clients">
</g>
<g id="command_line_interface">
	<g id="raw_11_" class="st5">
	</g>
	<g id="Live_Paint_1_">
	</g>
</g>
<g id="create_movies">
</g>
<g id="create_figures">
</g>
<g id="big_images">
</g>
<g id="attaching_analytical_results">
</g>
<g id="annotate_data">
</g>
<g id="acquisition_metadata">
</g>
</svg>
