<?xml version="1.0" encoding="utf-8"?>
<!-- Generator: Adobe Illustrator 19.2.1, SVG Export Plug-In . SVG Version: 6.00 Build 0)  -->
<svg version="1.1" xmlns="http://www.w3.org/2000/svg" xmlns:xlink="http://www.w3.org/1999/xlink" x="0px" y="0px"
	 viewBox="0 0 128 128" style="enable-background:new 0 0 128 128;" xml:space="preserve">
<style type="text/css">
	.st0{fill:none;stroke:#263238;stroke-width:2;stroke-miterlimit:10;}
	.st1{fill:#EF5350;stroke:#263238;stroke-width:2;stroke-miterlimit:10;}
	.st2{fill:#009688;stroke:#263238;stroke-width:2;stroke-miterlimit:10;}
	.st3{fill:#03A9F4;stroke:#263238;stroke-width:2;stroke-miterlimit:10;}
	.st4{fill:#CFD8DC;stroke:#263238;stroke-width:2;stroke-miterlimit:10;}
	.st5{display:none;}
	.st6{display:inline;}
	.st7{display:inline;fill:none;stroke:#263238;stroke-width:2;stroke-miterlimit:10;}
	.st8{fill:#009688;}
	.st9{fill:#03A9F4;}
	.st10{fill:#EF5350;}
	.st11{fill:#CFD8DC;}
	.st12{fill-rule:evenodd;clip-rule:evenodd;fill:none;stroke:#263238;stroke-width:2;stroke-miterlimit:10;}
	.st13{fill:#37474F;}
	
		.st14{display:inline;fill:none;stroke:#263238;stroke-width:2;stroke-linecap:round;stroke-miterlimit:10;stroke-dasharray:1.9328,3.8656;}
	.st15{fill:#263238;}
	.st16{display:inline;fill:#263238;}
	.st17{display:inline;fill:#FFFFFF;stroke:#000000;stroke-width:2;stroke-miterlimit:10;}
	.st18{display:inline;fill-rule:evenodd;clip-rule:evenodd;fill:none;stroke:#263238;stroke-width:2;stroke-miterlimit:10;}
	.st19{fill:#58595B;}
	.st20{fill:url(#SVGID_1_);}
	.st21{fill:url(#SVGID_2_);}
	.st22{fill:url(#SVGID_3_);}
	.st23{fill:none;stroke:#4A4A4C;stroke-width:0.5;}
	.st24{opacity:0.23;fill:#231F20;enable-background:new    ;}
	.st25{fill:none;stroke:#A8ABAD;stroke-width:0.5;}
	.st26{fill:none;stroke:#37474F;stroke-width:0.5;}
	.st27{fill:#6D6E70;}
	.st28{fill:#FFFFFF;}
	.st29{display:inline;fill:none;stroke:#000000;stroke-width:2;stroke-linecap:round;stroke-linejoin:round;}
	.st30{fill:none;stroke:#000000;stroke-width:2;stroke-linecap:round;stroke-linejoin:round;}
	.st31{display:inline;fill:none;}
	.st32{fill:none;}
	.st33{display:inline;fill-rule:evenodd;clip-rule:evenodd;fill:#263238;}
</style>
<g id="big_images">
	<g class="st5">
		<path class="st31" d="M72,93.7c1.6,0,3.1-0.2,4.5-0.7h-9C68.9,93.4,70.4,93.7,72,93.7z"/>
		<path class="st7" d="M67.5,93h9c3.4-1,6.3-3.2,8.3-6H59.1C61.1,89.8,64.1,92,67.5,93z"/>
		<path class="st7" d="M113,15H15v78h39.6c-1.5-1.8-2.8-3.8-3.8-6H21V21h86v66H93c-0.5,1.2-1.1,2.4-1.8,3.5c0.2,0.1,0.3,0.3,0.5,0.4
			l2.1,2.1H113V15z"/>
		<path class="st7" d="M72,55c12.7,0,23,10.3,23,23c0,3.2-0.7,6.3-1.9,9h14V21H21v66h29.9c-1.2-2.8-1.9-5.8-1.9-9
			C49,65.3,59.3,55,72,55z"/>
		<path class="st7" d="M72,62.2c-8.7,0-15.7,7-15.7,15.7c0,3.4,1.1,6.5,2.9,9h25.6c1.8-2.6,2.9-5.7,2.9-9
			C87.7,69.3,80.6,62.2,72,62.2z"/>
		<path class="st7" d="M54.6,93c4.2,4.8,10.4,7.9,17.3,7.9c4.6,0,8.9-1.4,12.5-3.7c0.1,0.2,0.3,0.3,0.4,0.5l13.9,13.9
			c0.9,0.9,2.2,1.4,3.4,1.4c1.2,0,2.5-0.5,3.4-1.4c1.9-1.9,1.9-4.9,0-6.8L93.8,93"/>
		<path class="st7" d="M76.5,93c-1.4,0.4-2.9,0.7-4.5,0.7c-1.6,0-3.1-0.2-4.5-0.7"/>
		<path class="st7" d="M67.5,93c-3.4-1-6.3-3.2-8.3-6"/>
		<path class="st7" d="M50.9,87c0.9,2.2,2.2,4.2,3.8,6"/>
		<path class="st7" d="M93.8,93l-2.1-2.1c-0.2-0.2-0.3-0.3-0.5-0.4c0.7-1.1,1.3-2.2,1.8-3.5"/>
		<path class="st7" d="M84.8,87c-2,2.8-4.9,5-8.3,6"/>
		<path class="st7" d="M59.1,87c-1.8-2.6-2.9-5.7-2.9-9c0-8.7,7-15.7,15.7-15.7c8.7,0,15.7,7,15.7,15.7c0,3.4-1.1,6.5-2.9,9"/>
		<path class="st7" d="M93,87c1.2-2.8,1.9-5.8,1.9-9c0-12.7-10.3-23-23-23c-12.7,0-23,10.3-23,23c0,3.2,0.7,6.3,1.9,9"/>
	</g>
	<g>
		<g id="XMLID_32_">
			<g>
				<path class="st9" d="M72,62.2c8.7,0,15.7,7.1,15.7,15.7c0,3.4-1.1,6.5-2.9,9H59.1c-1.8-2.6-2.9-5.7-2.9-9
					C56.2,69.3,63.3,62.2,72,62.2z"/>
				<path class="st9" d="M49,78c0,3.2,0.7,6.3,1.8,9H21V21h86v66H93c1.2-2.8,1.9-5.8,1.9-9c0-12.7-10.3-23-23-23S49,65.3,49,78z"/>
				<path class="st11" d="M59.1,87c2,2.8,4.9,5,8.3,6c1.4,0.4,2.9,0.7,4.5,0.7s3.1-0.2,4.5-0.7c3.4-1,6.3-3.2,8.3-6
					c1.8-2.6,2.9-5.7,2.9-9c0-8.7-7.1-15.7-15.7-15.7c-8.7,0-15.7,7.1-15.7,15.7C56.2,81.3,57.3,84.4,59.1,87z M72,55
					c12.7,0,23,10.3,23,23c0,3.2-0.7,6.3-1.9,9c-0.5,1.2-1.1,2.4-1.8,3.4c0.2,0.1,0.4,0.3,0.5,0.4l2.1,2.1l11.8,11.8
					c1.9,1.9,1.9,4.9,0,6.8c-0.9,0.9-2.2,1.4-3.4,1.4c-1.2,0-2.5-0.5-3.4-1.4L84.9,97.7c-0.2-0.1-0.3-0.3-0.4-0.5
					c-3.6,2.3-7.9,3.7-12.5,3.7c-6.9,0-13.1-3.1-17.3-7.9c-1.5-1.8-2.8-3.8-3.8-6c-1.2-2.8-1.8-5.8-1.8-9C49,65.3,59.3,55,72,55z"/>
			</g>
			<g>
				<line class="st0" x1="67.5" y1="93" x2="76.4" y2="93"/>
				<polyline class="st0" points="93.8,93 113,93 113,15 15,15 15,93 54.6,93 				"/>
				<polyline class="st0" points="93,87 107,87 107,21 21,21 21,87 50.8,87 				"/>
				<line class="st0" x1="59.1" y1="87" x2="84.8" y2="87"/>
				<path class="st0" d="M54.6,93c4.2,4.8,10.4,7.9,17.3,7.9c4.6,0,8.9-1.4,12.5-3.7c0.1,0.2,0.3,0.4,0.4,0.5l13.9,13.9
					c0.9,0.9,2.2,1.4,3.4,1.4c1.2,0,2.5-0.5,3.4-1.4c1.9-1.9,1.9-4.9,0-6.8L93.8,93"/>
				<path class="st0" d="M76.4,93c-1.4,0.4-2.9,0.7-4.5,0.7s-3.1-0.2-4.5-0.7"/>
				<path class="st0" d="M67.5,93c-3.4-1-6.3-3.2-8.3-6"/>
				<path class="st0" d="M50.8,87c1,2.2,2.2,4.2,3.8,6"/>
				<path class="st0" d="M93.8,93l-2.1-2.1c-0.2-0.2-0.3-0.3-0.5-0.4c0.7-1.1,1.3-2.2,1.8-3.4"/>
				<path class="st0" d="M84.8,87c-2,2.8-4.9,5-8.3,6"/>
				<path class="st0" d="M59.1,87c-1.8-2.6-2.9-5.7-2.9-9c0-8.7,7-15.7,15.7-15.7c8.7,0,15.7,7.1,15.7,15.7c0,3.4-1.1,6.5-2.9,9"/>
				<path class="st0" d="M93,87c1.2-2.8,1.9-5.8,1.9-9c0-12.7-10.3-23-23-23S49,65.3,49,78c0,3.2,0.7,6.3,1.8,9"/>
			</g>
		</g>
	</g>
</g>
</svg>
