<?xml version="1.0" encoding="utf-8"?>
<!-- Generator: Adobe Illustrator 19.2.1, SVG Export Plug-In . SVG Version: 6.00 Build 0)  -->
<svg version="1.1" xmlns="http://www.w3.org/2000/svg" xmlns:xlink="http://www.w3.org/1999/xlink" x="0px" y="0px"
	 viewBox="0 0 128 128" style="enable-background:new 0 0 128 128;" xml:space="preserve">
<style type="text/css">
	.st0{fill:none;stroke:#263238;stroke-width:2;stroke-miterlimit:10;}
	.st1{fill:#EF5350;stroke:#263238;stroke-width:2;stroke-miterlimit:10;}
	.st2{fill:#009688;stroke:#263238;stroke-width:2;stroke-miterlimit:10;}
	.st3{fill:#03A9F4;stroke:#263238;stroke-width:2;stroke-miterlimit:10;}
	.st4{fill:#CFD8DC;stroke:#263238;stroke-width:2;stroke-miterlimit:10;}
	.st5{display:none;}
	.st6{display:inline;}
	.st7{display:inline;fill:none;stroke:#263238;stroke-width:2;stroke-miterlimit:10;}
	.st8{fill:#009688;}
	.st9{fill:#03A9F4;}
	.st10{fill:#EF5350;}
	.st11{fill:#CFD8DC;}
	.st12{fill-rule:evenodd;clip-rule:evenodd;fill:none;stroke:#263238;stroke-width:2;stroke-miterlimit:10;}
	.st13{fill:#37474F;}
	
		.st14{display:inline;fill:none;stroke:#263238;stroke-width:2;stroke-linecap:round;stroke-miterlimit:10;stroke-dasharray:1.9328,3.8656;}
	.st15{fill:#263238;}
	.st16{display:inline;fill:#263238;}
	.st17{display:inline;fill:#FFFFFF;stroke:#000000;stroke-width:2;stroke-miterlimit:10;}
	.st18{display:inline;fill-rule:evenodd;clip-rule:evenodd;fill:none;stroke:#263238;stroke-width:2;stroke-miterlimit:10;}
	.st19{fill:#58595B;}
	.st20{fill:url(#SVGID_1_);}
	.st21{fill:url(#SVGID_2_);}
	.st22{fill:url(#SVGID_3_);}
	.st23{fill:none;stroke:#4A4A4C;stroke-width:0.5;}
	.st24{opacity:0.23;fill:#231F20;enable-background:new    ;}
	.st25{fill:none;stroke:#A8ABAD;stroke-width:0.5;}
	.st26{fill:none;stroke:#37474F;stroke-width:0.5;}
	.st27{fill:#6D6E70;}
	.st28{fill:#FFFFFF;}
	.st29{display:inline;fill:none;stroke:#000000;stroke-width:2;stroke-linecap:round;stroke-linejoin:round;}
	.st30{fill:none;stroke:#000000;stroke-width:2;stroke-linecap:round;stroke-linejoin:round;}
	.st31{display:inline;fill:none;}
	.st32{fill:none;}
	.st33{display:inline;fill-rule:evenodd;clip-rule:evenodd;fill:#263238;}
</style>
<g id="export_hcs">
	<g class="st5">
		<path class="st7" d="M66.1,85c-0.9,1.3-1.7,2.8-2.1,4.3c-0.5,2.1-0.9,4.2-0.9,6.3c-0.1,2.3,0.2,4.7,0.9,6.9c0.8,2.7,1.9,5.4,3.1,8
			c0.2,0.4,0.4,0.8,0.7,1.2c0.2,0.3,0.6,0.4,0.9,0.2c0.3-0.1,0.5-0.4,0.6-0.7c0-0.2,0-0.3,0-0.5c-0.1-0.7-0.1-1.4-0.2-2.2
			c-0.2-3.1-0.1-6.2,1-9.2c1.1-3.3,3.3-5.4,6.4-6.8c2.5-1,5.1-1.5,7.8-1.5c3.5-0.2,7.1-0.1,10.6-0.1c0.1,0,0.2,0,0.3,0
			c0,0-0.1,0.2-0.1,0.4c0,2.1,0,4.2,0,6.3c0,0.8,0.4,1.5,1.1,1.8c0.7,0.3,1.6,0.2,2.1-0.4l1.7-1.7l5.5-5.4c1.8-1.8,3.7-3.6,5.5-5.4
			c0.7-0.7,1.5-1.3,2-2.2v0v-0.8c-0.3-0.5-0.7-0.9-1.1-1.4c-1-1-2-1.9-2.9-2.9"/>
		<path class="st7" d="M71.7,80.1c1.9-1,4-1.8,6.2-2.2c2-0.5,4-0.8,6.1-0.9H23V23h78v48.3c0.5,0.5,1.1,1,1.6,1.6
			c2.1,2.1,4.3,4.2,6.4,6.3V17c0-1.1-0.9-2-2-2H17c-1.1,0-2,0.9-2,2v66c0,1.1,0.9,2,2,2h49.1c0.5-0.6,0.9-1.3,1.5-1.8
			C68.8,82,70.2,80.9,71.7,80.1z"/>
		<path class="st7" d="M84,77c-2.1,0.1-4.1,0.4-6.1,0.9c-2.1,0.5-4.2,1.2-6.2,2.2c-1.5,0.8-3,1.8-4.2,3.1c-0.6,0.6-1,1.2-1.5,1.8"/>
		<path class="st7" d="M109,79.2c-2.1-2.1-4.3-4.2-6.4-6.3c-0.5-0.5-1.1-1-1.6-1.6"/>
		<path class="st7" d="M23,23v54h61c0.5,0,1,0,1.5,0c3-0.1,6,0,9.1,0H95c0,0,0-0.6,0-0.7c0-2.1,0-4.2,0-6.3c0-0.4,0.2-0.9,0.4-1.3
			c0.6-0.8,1.7-0.9,2.5-0.4c0.1,0.1,0.2,0.1,0.3,0.2c0.9,0.9,1.9,1.8,2.8,2.7V23H23z M35,71h-6v-6h6V71z M35,59h-6v-6h6V59z M35,47
			h-6v-6h6V47z M35,35h-6v-6h6V35z M47,71h-6v-6h6V71z M47,59h-6v-6h6V59z M47,47h-6v-6h6V47z M47,35h-6v-6h6V35z M59,71h-6v-6h6V71
			z M59,59h-6v-6h6V59z M59,47h-6v-6h6V47z M59,35h-6v-6h6V35z M71,71h-6v-6h6V71z M71,59h-6v-6h6V59z M71,47h-6v-6h6V47z M71,35h-6
			v-6h6V35z M83,71h-6v-6h6V71z M83,59h-6v-6h6V59z M83,47h-6v-6h6V47z M83,35h-6v-6h6V35z M95,71h-6v-6h6V71z M95,59h-6v-6h6V59z
			 M95,47h-6v-6h6V47z M95,35h-6v-6h6V35z"/>
		<path class="st7" d="M101,71.3c-0.9-0.9-1.9-1.8-2.8-2.7c-0.1-0.1-0.2-0.2-0.2-0.2c-0.8-0.6-1.9-0.4-2.5,0.4
			C95.2,69.1,95,69.5,95,70c0,2.1,0,4.2,0,6.3c0,0.2,0,0.7,0,0.7h-0.4c-3,0-6.1-0.1-9.1,0c-0.5,0-1-0.1-1.5,0"/>
		<rect x="29" y="29" class="st7" width="6" height="6"/>
		<rect x="41" y="29" class="st7" width="6" height="6"/>
		<rect x="53" y="29" class="st7" width="6" height="6"/>
		<rect x="65" y="29" class="st7" width="6" height="6"/>
		<rect x="77" y="29" class="st7" width="6" height="6"/>
		<rect x="89" y="29" class="st7" width="6" height="6"/>
		<rect x="29" y="41" class="st7" width="6" height="6"/>
		<rect x="41" y="41" class="st7" width="6" height="6"/>
		<rect x="53" y="41" class="st7" width="6" height="6"/>
		<rect x="65" y="41" class="st7" width="6" height="6"/>
		<rect x="77" y="41" class="st7" width="6" height="6"/>
		<rect x="89" y="41" class="st7" width="6" height="6"/>
		<rect x="29" y="53" class="st7" width="6" height="6"/>
		<rect x="41" y="53" class="st7" width="6" height="6"/>
		<rect x="53" y="53" class="st7" width="6" height="6"/>
		<rect x="65" y="53" class="st7" width="6" height="6"/>
		<rect x="77" y="53" class="st7" width="6" height="6"/>
		<rect x="89" y="53" class="st7" width="6" height="6"/>
		<rect x="29" y="65" class="st7" width="6" height="6"/>
		<rect x="41" y="65" class="st7" width="6" height="6"/>
		<rect x="53" y="65" class="st7" width="6" height="6"/>
		<rect x="65" y="65" class="st7" width="6" height="6"/>
		<rect x="77" y="65" class="st7" width="6" height="6"/>
		<rect x="89" y="65" class="st7" width="6" height="6"/>
	</g>
	<g id="Live_Paint_4_">
		<g id="XMLID_15_">
			<g>
				<polygon class="st9" points="95,69.9 95,71 89,71 89,65 95,65 				"/>
				<rect x="53" y="65" class="st9" width="6" height="6"/>
				<rect x="77" y="53" class="st9" width="6" height="6"/>
				<rect x="41" y="53" class="st9" width="6" height="6"/>
				<rect x="65" y="41" class="st9" width="6" height="6"/>
				<rect x="29" y="41" class="st9" width="6" height="6"/>
				<rect x="89" y="29" class="st9" width="6" height="6"/>
				<rect x="53" y="29" class="st9" width="6" height="6"/>
				<rect x="89" y="53" class="st10" width="6" height="6"/>
				<rect x="89" y="41" class="st8" width="6" height="6"/>
				<rect x="29" y="65" class="st10" width="6" height="6"/>
				<rect x="65" y="65" class="st10" width="6" height="6"/>
				<rect x="53" y="53" class="st10" width="6" height="6"/>
				<rect x="77" y="41" class="st10" width="6" height="6"/>
				<rect x="41" y="41" class="st10" width="6" height="6"/>
				<rect x="65" y="29" class="st10" width="6" height="6"/>
				<rect x="29" y="29" class="st10" width="6" height="6"/>
				<path class="st11" d="M23,77h61c-2.1,0.1-4.1,0.4-6.1,0.9c-2.2,0.5-4.2,1.2-6.2,2.2c-1.6,0.8-3,1.8-4.2,3.1
					c-0.6,0.6-1,1.2-1.5,1.8H17c-1.1,0-2-0.9-2-2V17c0-1.1,0.9-2,2-2h90c1.1,0,2,0.9,2,2v62.2c-2.1-2.1-4.3-4.2-6.4-6.3
					c-0.5-0.5-1.1-1-1.6-1.6V23H23V77z"/>
				<rect x="77" y="65" class="st8" width="6" height="6"/>
				<rect x="41" y="65" class="st8" width="6" height="6"/>
				<rect x="29" y="53" class="st8" width="6" height="6"/>
				<rect x="65" y="53" class="st8" width="6" height="6"/>
				<rect x="53" y="41" class="st8" width="6" height="6"/>
				<rect x="77" y="29" class="st8" width="6" height="6"/>
				<rect x="41" y="29" class="st8" width="6" height="6"/>
				<path class="st8" d="M95.4,68.7c0.4-0.5,1.1-0.8,1.7-0.7c0.3,0,0.6,0.2,0.8,0.3c0.1,0.1,0.2,0.1,0.3,0.2
					c0.5,0.5,0.9,0.9,1.4,1.4c0.5,0.4,0.9,0.9,1.4,1.4c0.5,0.5,1.1,1,1.6,1.6c2.2,2.1,4.3,4.2,6.4,6.3c1,1,2,1.9,2.9,2.9
					c0.4,0.4,0.7,0.9,1.1,1.4v0.8v0c-0.4,0.9-1.3,1.5-2,2.2c-1.8,1.8-3.7,3.6-5.5,5.4l-5.5,5.4l-1.7,1.7c-0.5,0.6-1.4,0.8-2.2,0.4
					c-0.7-0.3-1.1-1-1.1-1.8c0-2.1,0-4.2,0-6.3c0-0.2,0.2-0.4,0.1-0.4c-0.1,0-0.2,0-0.3,0c-3.5,0-7.1-0.1-10.6,0.1
					c-2.7,0.1-5.3,0.5-7.8,1.5c-3.1,1.3-5.3,3.5-6.4,6.8c-1,3-1.1,6.1-0.9,9.2c0,0.7,0.1,1.4,0.2,2.2c0,0.2,0,0.3,0,0.5
					c0,0.3-0.3,0.6-0.6,0.7c-0.3,0.1-0.7,0.1-0.9-0.2c-0.3-0.4-0.5-0.8-0.7-1.2c-1.2-2.6-2.3-5.3-3.1-8c-0.7-2.2-1-4.6-0.9-6.9
					c0.1-2.1,0.4-4.2,0.9-6.3c0.5-1.6,1.2-3,2.1-4.3c0.4-0.6,0.9-1.2,1.5-1.8c1.2-1.2,2.6-2.3,4.2-3.1c1.9-1,4-1.8,6.2-2.2
					c2-0.5,4-0.8,6.1-0.9c0.5,0,1,0,1.5,0c3-0.1,6,0,9.1,0H95c0,0,0-0.6,0-0.8c0-1.8,0-3.5,0-5.2v-1.1C95,69.5,95.2,69.1,95.4,68.7z
					"/>
			</g>
			<g>
				<path class="st0" d="M109,79.2V17c0-1.1-0.9-2-2-2H17c-1.1,0-2,0.9-2,2v66c0,1.1,0.9,2,2,2h49.1"/>
				<path class="st0" d="M97.1,68c0.3,0,0.6,0.2,0.8,0.3c0.1,0.1,0.2,0.1,0.3,0.2c0.5,0.5,0.9,0.9,1.4,1.4"/>
				<polyline class="st0" points="101,71.3 101,23 23,23 23,77 84,77 				"/>
				<path class="st0" d="M95,69.9c0-0.4,0.2-0.9,0.4-1.2c0.4-0.5,1.1-0.8,1.7-0.7c0.3,0,0.6,0.1,0.8,0.3c0.1,0.1,0.2,0.1,0.2,0.2
					c0.5,0.5,0.9,0.9,1.4,1.4c0.5,0.4,0.9,0.9,1.4,1.4c0.5,0.5,1.1,1,1.6,1.6c2.2,2.1,4.3,4.2,6.4,6.3c1,1,2,1.9,2.9,2.9
					c0.4,0.4,0.7,0.9,1.1,1.4v0.8v0c-0.4,0.9-1.3,1.5-2,2.2c-1.8,1.8-3.7,3.6-5.5,5.4l-5.5,5.4l-1.7,1.7c-0.5,0.6-1.4,0.8-2.2,0.4
					c-0.7-0.3-1.1-1-1.1-1.8c0-2.1,0-4.2,0-6.3c0-0.2,0.2-0.4,0.1-0.4c-0.1,0-0.2,0-0.3,0c-3.5,0-7.1-0.1-10.6,0.1
					c-2.7,0.1-5.3,0.5-7.8,1.5c-3.1,1.3-5.3,3.5-6.4,6.8c-1,3-1.1,6.1-0.9,9.2c0,0.7,0.1,1.4,0.2,2.2c0,0.2,0,0.3,0,0.5
					c0,0.3-0.3,0.6-0.6,0.7c-0.3,0.1-0.7,0.1-0.9-0.2c-0.3-0.4-0.5-0.8-0.7-1.2c-1.2-2.6-2.3-5.3-3.1-8c-0.7-2.2-1-4.6-0.9-6.9
					c0.1-2.1,0.4-4.2,0.9-6.3c0.5-1.6,1.2-3,2.1-4.3c0.4-0.6,0.9-1.2,1.5-1.8c1.2-1.2,2.6-2.3,4.2-3.1c1.9-1,4-1.8,6.2-2.2
					c2-0.5,4-0.8,6.1-0.9c0.5,0,1,0,1.5,0c3-0.1,6,0,9.1,0H95c0,0,0-0.6,0-0.8c0-1.8,0-3.5,0-5.2"/>
				<rect x="29" y="29" class="st0" width="6" height="6"/>
				<rect x="41" y="29" class="st0" width="6" height="6"/>
				<rect x="53" y="29" class="st0" width="6" height="6"/>
				<rect x="65" y="29" class="st0" width="6" height="6"/>
				<rect x="77" y="29" class="st0" width="6" height="6"/>
				<rect x="89" y="29" class="st0" width="6" height="6"/>
				<rect x="29" y="41" class="st0" width="6" height="6"/>
				<rect x="41" y="41" class="st0" width="6" height="6"/>
				<rect x="53" y="41" class="st0" width="6" height="6"/>
				<rect x="65" y="41" class="st0" width="6" height="6"/>
				<rect x="77" y="41" class="st0" width="6" height="6"/>
				<rect x="89" y="41" class="st0" width="6" height="6"/>
				<rect x="29" y="53" class="st0" width="6" height="6"/>
				<rect x="41" y="53" class="st0" width="6" height="6"/>
				<rect x="53" y="53" class="st0" width="6" height="6"/>
				<rect x="65" y="53" class="st0" width="6" height="6"/>
				<rect x="77" y="53" class="st0" width="6" height="6"/>
				<rect x="89" y="53" class="st0" width="6" height="6"/>
				<rect x="29" y="65" class="st0" width="6" height="6"/>
				<rect x="41" y="65" class="st0" width="6" height="6"/>
				<rect x="53" y="65" class="st0" width="6" height="6"/>
				<rect x="65" y="65" class="st0" width="6" height="6"/>
				<rect x="77" y="65" class="st0" width="6" height="6"/>
				<polygon class="st0" points="95,69.9 95,65 89,65 89,71 95,71 				"/>
			</g>
		</g>
	</g>
</g>
</svg>
