<?xml version="1.0" encoding="utf-8"?>
<!-- Generator: Adobe Illustrator 19.2.1, SVG Export Plug-In . SVG Version: 6.00 Build 0)  -->
<svg version="1.1" xmlns="http://www.w3.org/2000/svg" xmlns:xlink="http://www.w3.org/1999/xlink" x="0px" y="0px"
	 viewBox="0 0 128 128" style="enable-background:new 0 0 128 128;" xml:space="preserve">
<style type="text/css">
	.st0{fill:none;stroke:#263238;stroke-width:2;stroke-miterlimit:10;}
	.st1{fill:#EF5350;stroke:#263238;stroke-width:2;stroke-miterlimit:10;}
	.st2{fill:#009688;stroke:#263238;stroke-width:2;stroke-miterlimit:10;}
	.st3{fill:#03A9F4;stroke:#263238;stroke-width:2;stroke-miterlimit:10;}
	.st4{fill:#CFD8DC;stroke:#263238;stroke-width:2;stroke-miterlimit:10;}
	.st5{display:none;}
	.st6{display:inline;}
	.st7{display:inline;fill:none;stroke:#263238;stroke-width:2;stroke-miterlimit:10;}
	.st8{fill:#009688;}
	.st9{fill:#03A9F4;}
	.st10{fill:#EF5350;}
	.st11{fill:#CFD8DC;}
	.st12{fill-rule:evenodd;clip-rule:evenodd;fill:none;stroke:#263238;stroke-width:2;stroke-miterlimit:10;}
	.st13{fill:#37474F;}
	
		.st14{display:inline;fill:none;stroke:#263238;stroke-width:2;stroke-linecap:round;stroke-miterlimit:10;stroke-dasharray:1.9328,3.8656;}
	.st15{fill:#263238;}
	.st16{display:inline;fill:#263238;}
	.st17{display:inline;fill:#FFFFFF;stroke:#000000;stroke-width:2;stroke-miterlimit:10;}
	.st18{display:inline;fill-rule:evenodd;clip-rule:evenodd;fill:none;stroke:#263238;stroke-width:2;stroke-miterlimit:10;}
	.st19{fill:#58595B;}
	.st20{fill:url(#SVGID_1_);}
	.st21{fill:url(#SVGID_2_);}
	.st22{fill:url(#SVGID_3_);}
	.st23{fill:none;stroke:#4A4A4C;stroke-width:0.5;}
	.st24{opacity:0.23;fill:#231F20;enable-background:new    ;}
	.st25{fill:none;stroke:#A8ABAD;stroke-width:0.5;}
	.st26{fill:none;stroke:#37474F;stroke-width:0.5;}
	.st27{fill:#6D6E70;}
	.st28{fill:#FFFFFF;}
	.st29{display:inline;fill:none;stroke:#000000;stroke-width:2;stroke-linecap:round;stroke-linejoin:round;}
	.st30{fill:none;stroke:#000000;stroke-width:2;stroke-linecap:round;stroke-linejoin:round;}
	.st31{display:inline;fill:none;}
	.st32{fill:none;}
	.st33{display:inline;fill-rule:evenodd;clip-rule:evenodd;fill:#263238;}
</style>
<g id="omero-wnd-charm">
	<g id="target" class="st5">
		<circle class="st7" cx="64" cy="64" r="49"/>
		<circle class="st7" cx="64" cy="64" r="39"/>
		<circle class="st7" cx="64" cy="64" r="29"/>
		<circle class="st7" cx="64" cy="64" r="19"/>
		<circle class="st7" cx="64" cy="64" r="9"/>
	</g>
	<g class="st5">
		<path class="st7" d="M89,34.1l6.3-7.8c-1-0.8-2.1-1.7-3.2-2.4l-6.4,7.7C86.9,32.4,88,33.2,89,34.1z"/>
		<path class="st7" d="M104.2,36l-8.3,5.5c4.5,6.4,7.2,14.1,7.2,22.5c0,21.5-17.5,39-39,39S25,85.5,25,64c0-21.5,17.5-39,39-39
			c5,0,9.7,0.9,14.1,2.6l4.2-9.1C76.7,16.3,70.5,15,64,15c-27.1,0-49,21.9-49,49s21.9,49,49,49s49-21.9,49-49
			C113,53.6,109.7,43.9,104.2,36z"/>
		<path class="st7" d="M82.7,41.9l6.3-7.8c-1-0.9-2.1-1.7-3.3-2.5l-6.4,7.8C80.5,40.1,81.7,41,82.7,41.9z"/>
		<path class="st7" d="M93,64c0,16-13,29-29,29S35,80,35,64c0-16,13-29,29-29c3.5,0,6.8,0.6,9.9,1.7l4.2-9.1C73.7,25.9,69,25,64,25
			c-21.5,0-39,17.5-39,39c0,21.5,17.5,39,39,39s39-17.5,39-39c0-8.4-2.7-16.1-7.2-22.5L87.5,47C91,51.8,93,57.7,93,64z"/>
		<path class="st7" d="M72.9,47.2c1.3,0.7,2.4,1.5,3.5,2.4l6.3-7.8c-1.1-0.9-2.2-1.7-3.4-2.5L72.9,47.2z"/>
		<path class="st7" d="M83,64c0,10.5-8.5,19-19,19s-19-8.5-19-19s8.5-19,19-19c2,0,3.9,0.3,5.6,0.9l4.2-9.1C70.8,35.6,67.5,35,64,35
			c-16,0-29,13-29,29c0,16,13,29,29,29s29-13,29-29c0-6.3-2-12.2-5.5-17l-8.4,5.5C81.6,55.8,83,59.7,83,64z"/>
		<path class="st7" d="M70.1,57.4l6.3-7.8c-1.1-0.9-2.2-1.7-3.5-2.4l-6.7,8.1C67.7,55.7,69,56.4,70.1,57.4z"/>
		<path class="st7" d="M73,64c0,5-4,9-9,9s-9-4-9-9c0-5,4-9,9-9c0.5,0,0.9,0,1.3,0.1l4.3-9.3C67.9,45.3,66,45,64,45
			c-10.5,0-19,8.5-19,19s8.5,19,19,19s19-8.5,19-19c0-4.3-1.4-8.2-3.8-11.4l-8.3,5.5C72.2,59.7,73,61.8,73,64z"/>
		<path class="st7" d="M55,64c0,5,4,9,9,9s9-4,9-9c0-2.2-0.8-4.3-2.2-5.9L68,60l2.1-2.6c-1.1-1-2.4-1.7-3.9-2.1L64,58l1.3-2.9
			C64.9,55,64.5,55,64,55C59,55,55,59,55,64z"/>
		<path class="st7" d="M104.2,36l7.8-5.2L103.7,16l-8.4,10.3"/>
		<path class="st7" d="M70.8,58.1c-0.2-0.3-0.5-0.5-0.7-0.7L68,60L70.8,58.1z"/>
		<path class="st7" d="M92.1,23.9l1.9-2.3L83.5,16l-1.2,2.6"/>
		<path class="st7" d="M66.2,55.3c-0.3-0.1-0.6-0.1-0.9-0.2L64,58L66.2,55.3z"/>
	</g>
	<g>
		<g id="XMLID_49_">
			<g>
				<path class="st8" d="M66.2,55.3c-0.3-0.1-0.6-0.1-0.9-0.2l4.3-9.3l4.2-9.1l4.2-9.1l4.2-9.1l1.2-2.6L94,21.6l-1.9,2.2l-6.4,7.7
					l-6.4,7.8l-6.4,7.8L66.2,55.3z"/>
				<path class="st9" d="M103.7,16l8.3,14.8l-7.8,5.2l-8.3,5.5L87.5,47l-8.3,5.6l-8.4,5.5c-0.2-0.3-0.4-0.5-0.7-0.7l6.3-7.8l6.3-7.8
					l6.3-7.8l6.3-7.8L103.7,16z"/>
				<path class="st10" d="M70.1,57.4L68,60l2.8-1.9c1.4,1.6,2.2,3.6,2.2,5.9c0,5-4,9-9,9s-9-4-9-9s4-9,9-9c0.5,0,0.9,0,1.3,0.1
					L64,58l2.2-2.7C67.7,55.7,69,56.4,70.1,57.4z"/>
				<path class="st10" d="M87.5,47C91,51.8,93,57.7,93,64c0,16-13,29-29,29S35,80,35,64s13-29,29-29c3.5,0,6.8,0.6,9.9,1.7l-4.2,9.1
					C67.9,45.3,66,45,64,45c-10.5,0-19,8.5-19,19s8.5,19,19,19s19-8.5,19-19c0-4.3-1.4-8.2-3.8-11.4L87.5,47z"/>
				<path class="st10" d="M64,103c21.5,0,39-17.5,39-39c0-8.4-2.7-16.1-7.2-22.5l8.3-5.5c5.6,8,8.8,17.6,8.8,28
					c0,27.1-21.9,49-49,49S15,91.1,15,64s21.9-49,49-49c6.5,0,12.7,1.3,18.3,3.6l-4.2,9.1C73.7,25.9,69,25,64,25
					c-21.5,0-39,17.5-39,39S42.5,103,64,103z"/>
			</g>
			<g>
				<path class="st0" d="M89,34.1l6.3-7.8c-1-0.9-2.1-1.6-3.2-2.4l-6.4,7.7"/>
				<path class="st0" d="M78.1,27.6l4.2-9.1C76.7,16.3,70.5,15,64,15c-27.1,0-49,21.9-49,49s21.9,49,49,49s49-21.9,49-49
					c0-10.4-3.3-20.1-8.8-28l-8.3,5.5"/>
				<path class="st0" d="M82.7,41.8l6.3-7.8c-1-0.9-2.1-1.7-3.2-2.5l-6.4,7.8"/>
				<path class="st0" d="M73.9,36.7l4.2-9.1C73.7,25.9,69,25,64,25c-21.5,0-39,17.5-39,39s17.5,39,39,39s39-17.5,39-39
					c0-8.4-2.7-16.1-7.2-22.5L87.5,47"/>
				<path class="st0" d="M76.4,49.6l6.3-7.8c-1.1-0.9-2.2-1.7-3.4-2.4l-6.4,7.8"/>
				<path class="st0" d="M69.7,45.8l4.2-9.1C70.8,35.6,67.5,35,64,35c-16,0-29,13-29,29s13,29,29,29s29-13,29-29
					c0-6.3-2-12.2-5.5-17l-8.3,5.6"/>
				<path class="st0" d="M70.1,57.4l6.3-7.8c-1.1-0.9-2.2-1.7-3.5-2.4l-6.7,8.1"/>
				<path class="st0" d="M65.3,55.1l4.3-9.3C67.9,45.3,66,45,64,45c-10.5,0-19,8.5-19,19s8.5,19,19,19s19-8.5,19-19
					c0-4.3-1.4-8.2-3.8-11.4l-8.4,5.5"/>
				<path class="st0" d="M70.1,57.4c-1.1-1-2.4-1.7-3.9-2.1"/>
				<path class="st0" d="M65.3,55.1C64.9,55,64.5,55,64,55c-5,0-9,4-9,9s4,9,9,9s9-4,9-9c0-2.2-0.8-4.3-2.2-5.9"/>
				<polyline class="st0" points="104.2,36 112,30.8 103.7,16 95.3,26.3 				"/>
				<path class="st0" d="M70.8,58.1c-0.2-0.3-0.4-0.5-0.7-0.7L68,60L70.8,58.1z"/>
				<polyline class="st0" points="92.1,23.9 94,21.6 83.5,16 82.3,18.6 				"/>
				<path class="st0" d="M66.2,55.3c-0.3-0.1-0.6-0.1-0.9-0.2L64,58L66.2,55.3z"/>
			</g>
		</g>
	</g>
</g>
</svg>
