<?xml version="1.0" encoding="utf-8"?>
<!-- Generator: Adobe Illustrator 19.2.1, SVG Export Plug-In . SVG Version: 6.00 Build 0)  -->
<svg version="1.1" xmlns="http://www.w3.org/2000/svg" xmlns:xlink="http://www.w3.org/1999/xlink" x="0px" y="0px"
	 viewBox="0 0 128 128" style="enable-background:new 0 0 128 128;" xml:space="preserve">
<style type="text/css">
	.st0{fill:none;stroke:#263238;stroke-width:2;stroke-miterlimit:10;}
	.st1{fill:#EF5350;stroke:#263238;stroke-width:2;stroke-miterlimit:10;}
	.st2{fill:#009688;stroke:#263238;stroke-width:2;stroke-miterlimit:10;}
	.st3{fill:#03A9F4;stroke:#263238;stroke-width:2;stroke-miterlimit:10;}
	.st4{fill:#CFD8DC;stroke:#263238;stroke-width:2;stroke-miterlimit:10;}
	.st5{display:none;}
	.st6{display:inline;}
	.st7{display:inline;fill:none;stroke:#263238;stroke-width:2;stroke-miterlimit:10;}
	.st8{fill:#009688;}
	.st9{fill:#03A9F4;}
	.st10{fill:#EF5350;}
	.st11{fill:#CFD8DC;}
	.st12{fill-rule:evenodd;clip-rule:evenodd;fill:none;stroke:#263238;stroke-width:2;stroke-miterlimit:10;}
	.st13{fill:#37474F;}
	
		.st14{display:inline;fill:none;stroke:#263238;stroke-width:2;stroke-linecap:round;stroke-miterlimit:10;stroke-dasharray:1.9328,3.8656;}
	.st15{fill:#263238;}
	.st16{display:inline;fill:#263238;}
	.st17{display:inline;fill:#FFFFFF;stroke:#000000;stroke-width:2;stroke-miterlimit:10;}
	.st18{display:inline;fill-rule:evenodd;clip-rule:evenodd;fill:none;stroke:#263238;stroke-width:2;stroke-miterlimit:10;}
	.st19{fill:#58595B;}
	.st20{fill:url(#SVGID_1_);}
	.st21{fill:url(#SVGID_2_);}
	.st22{fill:url(#SVGID_3_);}
	.st23{fill:none;stroke:#4A4A4C;stroke-width:0.5;}
	.st24{opacity:0.23;fill:#231F20;enable-background:new    ;}
	.st25{fill:none;stroke:#A8ABAD;stroke-width:0.5;}
	.st26{fill:none;stroke:#37474F;stroke-width:0.5;}
	.st27{fill:#6D6E70;}
	.st28{fill:#FFFFFF;}
	.st29{display:inline;fill:none;stroke:#000000;stroke-width:2;stroke-linecap:round;stroke-linejoin:round;}
	.st30{fill:none;stroke:#000000;stroke-width:2;stroke-linecap:round;stroke-linejoin:round;}
	.st31{display:inline;fill:none;}
	.st32{fill:none;}
	.st33{display:inline;fill-rule:evenodd;clip-rule:evenodd;fill:#263238;}
</style>
<g id="artboards">
</g>
<g id="guides">
</g>
<g id="palette">
</g>
<g id="view-images">
</g>
<g id="using_a_public_group">
</g>
<g id="user-added_metadata">
</g>
<g id="unit-support">
	<g id="raw_10_" class="st5">
	</g>
	<g id="Live_Paint">
	</g>
</g>
<g id="supported_file_formats">
</g>
<g id="share">
</g>
<g id="searching_and_filtering">
</g>
<g id="scripting_service">
</g>
<g id="roi_folders_1_">
	<g id="raw_8_">
	</g>
</g>
<g id="reverse_intensity_rendering_1_">
	<g id="raw_7_" class="st5">
	</g>
</g>
<g id="rendering_settings">
</g>
<g id="quality_assurance_1_">
	<g id="raw_6_" class="st5">
	</g>
</g>
<g id="python_blitz_api">
</g>
<g id="public_api">
</g>
<g id="public_access">
</g>
<g id="personalize">
	<g id="raw_5_" class="st5">
	</g>
</g>
<g id="original_file_formats">
</g>
<g id="orbit_image_analysis">
</g>
<g id="open_with..._1_">
	<g id="raw_4_" class="st5">
	</g>
</g>
<g id="open_source">
</g>
<g id="ome-smuggler">
</g>
<g id="omero-wnd-charm">
</g>
<g id="omero.webtagging">
</g>
<g id="omero.web">
</g>
<g id="omero.server">
	<g id="raw_13_" class="st5">
		<circle class="st7" cx="64" cy="64" r="7"/>
		<path class="st7" d="M111,80H17c-1.1,0-2-0.9-2-2V50c0-1.1,0.9-2,2-2h94c1.1,0,2,0.9,2,2v28C113,79.1,112.1,80,111,80z"/>
		<rect x="24" y="56" class="st7" width="4" height="16"/>
		<rect x="34" y="56" class="st7" width="4" height="16"/>
		<rect x="44" y="56" class="st7" width="4" height="16"/>
		<rect x="80" y="56" class="st7" width="4" height="16"/>
		<rect x="90" y="56" class="st7" width="4" height="16"/>
		<rect x="100" y="56" class="st7" width="4" height="16"/>
		<circle class="st7" cx="64" cy="96" r="7"/>
		<path class="st7" d="M111,112H17c-1.1,0-2-0.9-2-2V82c0-1.1,0.9-2,2-2h94c1.1,0,2,0.9,2,2v28C113,111.1,112.1,112,111,112z"/>
		<rect x="24" y="88" class="st7" width="4" height="16"/>
		<rect x="34" y="88" class="st7" width="4" height="16"/>
		<rect x="44" y="88" class="st7" width="4" height="16"/>
		<rect x="80" y="88" class="st7" width="4" height="16"/>
		<rect x="90" y="88" class="st7" width="4" height="16"/>
		<rect x="100" y="88" class="st7" width="4" height="16"/>
		<circle class="st7" cx="64" cy="32" r="7"/>
		<path class="st7" d="M111,48H17c-1.1,0-2-0.9-2-2V18c0-1.1,0.9-2,2-2h94c1.1,0,2,0.9,2,2v28C113,47.1,112.1,48,111,48z"/>
		<rect x="24" y="24" class="st7" width="4" height="16"/>
		<rect x="34" y="24" class="st7" width="4" height="16"/>
		<rect x="44" y="24" class="st7" width="4" height="16"/>
		<rect x="80" y="24" class="st7" width="4" height="16"/>
		<rect x="90" y="24" class="st7" width="4" height="16"/>
		<rect x="100" y="24" class="st7" width="4" height="16"/>
	</g>
	<g>
		<g id="XMLID_51_">
			<g>
				<path class="st11" d="M64,103c3.9,0,7-3.1,7-7s-3.1-7-7-7s-7,3.1-7,7S60.1,103,64,103z M113,82v28c0,1.1-0.9,2-2,2H17
					c-1.1,0-2-0.9-2-2V82c0-1.1,0.9-2,2-2h94C112.1,80,113,80.9,113,82z M104,104V88h-4v16H104z M94,104V88h-4v16H94z M84,104V88h-4
					v16H84z M48,104V88h-4v16H48z M38,104V88h-4v16H38z M28,104V88h-4v16H28z"/>
				<path class="st11" d="M64,71c3.9,0,7-3.1,7-7s-3.1-7-7-7s-7,3.1-7,7S60.1,71,64,71z M113,50v28c0,1.1-0.9,2-2,2H17
					c-1.1,0-2-0.9-2-2V50c0-1.1,0.9-2,2-2h94C112.1,48,113,48.9,113,50z M104,72V56h-4v16H104z M94,72V56h-4v16H94z M84,72V56h-4v16
					H84z M48,72V56h-4v16H48z M38,72V56h-4v16H38z M28,72V56h-4v16H28z"/>
				<path class="st11" d="M64,39c3.9,0,7-3.1,7-7s-3.1-7-7-7s-7,3.1-7,7S60.1,39,64,39z M113,18v28c0,1.1-0.9,2-2,2H17
					c-1.1,0-2-0.9-2-2V18c0-1.1,0.9-2,2-2h94C112.1,16,113,16.9,113,18z M104,40V24h-4v16H104z M94,40V24h-4v16H94z M84,40V24h-4v16
					H84z M48,40V24h-4v16H48z M38,40V24h-4v16H38z M28,40V24h-4v16H28z"/>
				<circle class="st8" cx="64" cy="96" r="7"/>
				<circle class="st9" cx="64" cy="64" r="7"/>
				<circle class="st10" cx="64" cy="32" r="7"/>
			</g>
			<g>
				<path class="st0" d="M111,80c1.1,0,2-0.9,2-2V50c0-1.1-0.9-2-2-2"/>
				<path class="st0" d="M17,48c-1.1,0-2,0.9-2,2v28c0,1.1,0.9,2,2,2"/>
				<circle class="st0" cx="64" cy="64" r="7"/>
				<rect x="24" y="56" class="st0" width="4" height="16"/>
				<rect x="34" y="56" class="st0" width="4" height="16"/>
				<rect x="44" y="56" class="st0" width="4" height="16"/>
				<rect x="80" y="56" class="st0" width="4" height="16"/>
				<rect x="90" y="56" class="st0" width="4" height="16"/>
				<rect x="100" y="56" class="st0" width="4" height="16"/>
				<path class="st0" d="M17,80c-1.1,0-2,0.9-2,2v28c0,1.1,0.9,2,2,2h94c1.1,0,2-0.9,2-2V82c0-1.1-0.9-2-2-2H17z"/>
				<circle class="st0" cx="64" cy="96" r="7"/>
				<rect x="24" y="88" class="st0" width="4" height="16"/>
				<rect x="34" y="88" class="st0" width="4" height="16"/>
				<rect x="44" y="88" class="st0" width="4" height="16"/>
				<rect x="80" y="88" class="st0" width="4" height="16"/>
				<rect x="90" y="88" class="st0" width="4" height="16"/>
				<rect x="100" y="88" class="st0" width="4" height="16"/>
				<path class="st0" d="M111,48c1.1,0,2-0.9,2-2V18c0-1.1-0.9-2-2-2H17c-1.1,0-2,0.9-2,2v28c0,1.1,0.9,2,2,2H111z"/>
				<circle class="st0" cx="64" cy="32" r="7"/>
				<rect x="24" y="24" class="st0" width="4" height="16"/>
				<rect x="34" y="24" class="st0" width="4" height="16"/>
				<rect x="44" y="24" class="st0" width="4" height="16"/>
				<rect x="80" y="24" class="st0" width="4" height="16"/>
				<rect x="90" y="24" class="st0" width="4" height="16"/>
				<rect x="100" y="24" class="st0" width="4" height="16"/>
			</g>
		</g>
	</g>
</g>
<g id="omero.mail_1_">
	<g id="raw_1_" class="st5">
	</g>
</g>
<g id="omero.forms">
</g>
<g id="omero.dropbox">
</g>
<g id="omero_as_public_repository">
</g>
<g id="moodle">
	<g id="logo_-_moodle">
	</g>
</g>
<g id="manage_and_organize">
</g>
<g id="manage">
	<g id="raw_9_" class="st5">
	</g>
</g>
<g id="lookup_table_1_">
	<g id="raw_2_" class="st5">
	</g>
</g>
<g id="improved_screen_plate_well_ui_1_">
	<g id="raw_3_" class="st5">
	</g>
</g>
<g id="improved_performance">
</g>
<g id="import_images">
</g>
<g id="import-for">
</g>
<g id="histogram_support">
	<g id="raw" class="st5">
	</g>
</g>
<g id="github">
</g>
<g id="file_integrity_reports">
</g>
<g id="export_images">
</g>
<g id="export_hcs">
</g>
<g id="export_filesets">
</g>
<g id="draw_rois">
</g>
<g id="customize_clients">
</g>
<g id="command_line_interface">
	<g id="raw_11_" class="st5">
	</g>
	<g id="Live_Paint_1_">
	</g>
</g>
<g id="create_movies">
</g>
<g id="create_figures">
</g>
<g id="big_images">
</g>
<g id="attaching_analytical_results">
</g>
<g id="annotate_data">
</g>
<g id="acquisition_metadata">
</g>
</svg>
