<?xml version="1.0" encoding="utf-8"?>
<!-- Generator: Adobe Illustrator 19.2.1, SVG Export Plug-In . SVG Version: 6.00 Build 0)  -->
<svg version="1.1" xmlns="http://www.w3.org/2000/svg" xmlns:xlink="http://www.w3.org/1999/xlink" x="0px" y="0px"
	 viewBox="0 0 128 128" style="enable-background:new 0 0 128 128;" xml:space="preserve">
<style type="text/css">
	.st0{fill:none;stroke:#263238;stroke-width:2;stroke-miterlimit:10;}
	.st1{fill:#EF5350;stroke:#263238;stroke-width:2;stroke-miterlimit:10;}
	.st2{fill:#009688;stroke:#263238;stroke-width:2;stroke-miterlimit:10;}
	.st3{fill:#03A9F4;stroke:#263238;stroke-width:2;stroke-miterlimit:10;}
	.st4{fill:#CFD8DC;stroke:#263238;stroke-width:2;stroke-miterlimit:10;}
	.st5{display:none;}
	.st6{display:inline;}
	.st7{display:inline;fill:none;stroke:#263238;stroke-width:2;stroke-miterlimit:10;}
	.st8{fill:#009688;}
	.st9{fill:#03A9F4;}
	.st10{fill:#EF5350;}
	.st11{fill:#CFD8DC;}
	.st12{fill-rule:evenodd;clip-rule:evenodd;fill:none;stroke:#263238;stroke-width:2;stroke-miterlimit:10;}
	.st13{fill:#37474F;}
	
		.st14{display:inline;fill:none;stroke:#263238;stroke-width:2;stroke-linecap:round;stroke-miterlimit:10;stroke-dasharray:1.9328,3.8656;}
	.st15{fill:#263238;}
	.st16{display:inline;fill:#263238;}
	.st17{display:inline;fill:#FFFFFF;stroke:#000000;stroke-width:2;stroke-miterlimit:10;}
	.st18{display:inline;fill-rule:evenodd;clip-rule:evenodd;fill:none;stroke:#263238;stroke-width:2;stroke-miterlimit:10;}
	.st19{fill:#58595B;}
	.st20{fill:url(#SVGID_1_);}
	.st21{fill:url(#SVGID_2_);}
	.st22{fill:url(#SVGID_3_);}
	.st23{fill:none;stroke:#4A4A4C;stroke-width:0.5;}
	.st24{opacity:0.23;fill:#231F20;enable-background:new    ;}
	.st25{fill:none;stroke:#A8ABAD;stroke-width:0.5;}
	.st26{fill:none;stroke:#37474F;stroke-width:0.5;}
	.st27{fill:#6D6E70;}
	.st28{fill:#FFFFFF;}
	.st29{display:inline;fill:none;stroke:#000000;stroke-width:2;stroke-linecap:round;stroke-linejoin:round;}
	.st30{fill:none;stroke:#000000;stroke-width:2;stroke-linecap:round;stroke-linejoin:round;}
	.st31{display:inline;fill:none;}
	.st32{fill:none;}
	.st33{display:inline;fill-rule:evenodd;clip-rule:evenodd;fill:#263238;}
</style>
<g id="roi_folders_1_">
	<g id="raw_8_">
		<path class="st0" d="M111,113H29c-1.1,0-2-0.9-2-2V43h39l0,8h45c1.1,0,2,0.9,2,2v58C113,112.1,112.1,113,111,113z"/>
		<path class="st0" d="M27,99h-4c-1.1,0-2-0.9-2-2V29h39v8h45c1.1,0,2,0.9,2,2v-1v13"/>
		<path class="st0" d="M101,37V24v1c0-1.1-0.9-2-2-2H54v-8H15v68c0,1.1,0.9,2,2,2h4"/>
		<rect x="57" y="69" class="st0" width="6" height="6"/>
		<rect x="77" y="69" class="st0" width="6" height="6"/>
		<rect x="57" y="89" class="st0" width="6" height="6"/>
		<rect x="77" y="89" class="st0" width="6" height="6"/>
		<line class="st0" x1="63" y1="92" x2="77" y2="92"/>
		<line class="st0" x1="60" y1="75" x2="60" y2="89"/>
		<line class="st0" x1="77" y1="72" x2="63" y2="72"/>
		<line class="st0" x1="80" y1="89" x2="80" y2="75"/>
	</g>
	<g id="XMLID_4_">
		<g>
			<path class="st11" d="M113,53v58c0,1.1-0.9,2-2,2H29c-1.1,0-2-0.9-2-2V99V43h39v8h41h4C112.1,51,113,51.9,113,53z M83,95v-6h-3
				V75h3v-6h-6v3H63v-3h-6v6h3v14h-3v6h6v-3h14v3H83z"/>
			<path class="st10" d="M107,39v12H66v-8H27v56h-4c-1.1,0-2-0.9-2-2V85V29h39v8h41h4C106.1,37,107,37.9,107,39z"/>
			<path class="st9" d="M101,25v12H60v-8H21v56h-4c-1.1,0-2-0.9-2-2V15h39v8h45C100.1,23,101,23.9,101,25z"/>
			<polygon class="st10" points="83,89 83,95 77,95 77,92 77,89 80,89 			"/>
			<polygon class="st8" points="83,69 83,75 80,75 77,75 77,72 77,69 			"/>
			<polygon class="st11" points="80,75 80,89 77,89 77,92 63,92 63,89 60,89 60,75 63,75 63,72 77,72 77,75 			"/>
			<polygon class="st8" points="63,92 63,95 57,95 57,89 60,89 63,89 			"/>
			<polygon class="st9" points="63,72 63,75 60,75 57,75 57,69 63,69 			"/>
		</g>
		<g>
			<path class="st0" d="M107,51h4c1.1,0,2,0.9,2,2v58c0,1.1-0.9,2-2,2H29c-1.1,0-2-0.9-2-2V99V43h39v8H107z"/>
			<line class="st0" x1="107" y1="39" x2="107" y2="51"/>
			<path class="st0" d="M27,99h-4c-1.1,0-2-0.9-2-2V85V29h39v8h41h4c1.1,0,2,0.9,2,2v-1"/>
			<path class="st0" d="M101,25c0-1.1-0.9-2-2-2H54v-8H15v68c0,1.1,0.9,2,2,2h4"/>
			<polyline class="st0" points="101,37 101,25 101,24 			"/>
			<polygon class="st0" points="63,72 63,75 60,75 57,75 57,69 63,69 			"/>
			<polygon class="st0" points="77,72 77,69 83,69 83,75 80,75 77,75 			"/>
			<polygon class="st0" points="63,92 63,95 57,95 57,89 60,89 63,89 			"/>
			<polygon class="st0" points="80,89 83,89 83,95 77,95 77,92 77,89 			"/>
			<line class="st0" x1="63" y1="92" x2="77" y2="92"/>
			<line class="st0" x1="60" y1="75" x2="60" y2="89"/>
			<line class="st0" x1="77" y1="72" x2="63" y2="72"/>
			<line class="st0" x1="80" y1="89" x2="80" y2="75"/>
		</g>
	</g>
</g>
</svg>
