<?xml version="1.0" encoding="utf-8"?>
<!-- Generator: Adobe Illustrator 19.2.1, SVG Export Plug-In . SVG Version: 6.00 Build 0)  -->
<svg version="1.1" xmlns="http://www.w3.org/2000/svg" xmlns:xlink="http://www.w3.org/1999/xlink" x="0px" y="0px"
	 viewBox="0 0 128 128" style="enable-background:new 0 0 128 128;" xml:space="preserve">
<style type="text/css">
	.st0{fill:none;stroke:#263238;stroke-width:2;stroke-miterlimit:10;}
	.st1{fill:#EF5350;stroke:#263238;stroke-width:2;stroke-miterlimit:10;}
	.st2{fill:#009688;stroke:#263238;stroke-width:2;stroke-miterlimit:10;}
	.st3{fill:#03A9F4;stroke:#263238;stroke-width:2;stroke-miterlimit:10;}
	.st4{fill:#CFD8DC;stroke:#263238;stroke-width:2;stroke-miterlimit:10;}
	.st5{display:none;}
	.st6{display:inline;}
	.st7{display:inline;fill:none;stroke:#263238;stroke-width:2;stroke-miterlimit:10;}
	.st8{fill:#009688;}
	.st9{fill:#03A9F4;}
	.st10{fill:#EF5350;}
	.st11{fill:#CFD8DC;}
	.st12{fill-rule:evenodd;clip-rule:evenodd;fill:none;stroke:#263238;stroke-width:2;stroke-miterlimit:10;}
	.st13{fill:#37474F;}
	
		.st14{display:inline;fill:none;stroke:#263238;stroke-width:2;stroke-linecap:round;stroke-miterlimit:10;stroke-dasharray:1.9328,3.8656;}
	.st15{fill:#263238;}
	.st16{display:inline;fill:#263238;}
	.st17{display:inline;fill:#FFFFFF;stroke:#000000;stroke-width:2;stroke-miterlimit:10;}
	.st18{display:inline;fill-rule:evenodd;clip-rule:evenodd;fill:none;stroke:#263238;stroke-width:2;stroke-miterlimit:10;}
	.st19{fill:#58595B;}
	.st20{fill:url(#SVGID_1_);}
	.st21{fill:url(#SVGID_2_);}
	.st22{fill:url(#SVGID_3_);}
	.st23{fill:none;stroke:#4A4A4C;stroke-width:0.5;}
	.st24{opacity:0.23;fill:#231F20;enable-background:new    ;}
	.st25{fill:none;stroke:#A8ABAD;stroke-width:0.5;}
	.st26{fill:none;stroke:#37474F;stroke-width:0.5;}
	.st27{fill:#6D6E70;}
	.st28{fill:#FFFFFF;}
	.st29{display:inline;fill:none;stroke:#000000;stroke-width:2;stroke-linecap:round;stroke-linejoin:round;}
	.st30{fill:none;stroke:#000000;stroke-width:2;stroke-linecap:round;stroke-linejoin:round;}
	.st31{display:inline;fill:none;}
	.st32{fill:none;}
	.st33{display:inline;fill-rule:evenodd;clip-rule:evenodd;fill:#263238;}
</style>
<g id="artboards">
</g>
<g id="guides">
</g>
<g id="palette">
</g>
<g id="view-images">
</g>
<g id="using_a_public_group">
</g>
<g id="user-added_metadata">
</g>
<g id="unit-support">
	<g id="raw_10_" class="st5">
	</g>
	<g id="Live_Paint">
	</g>
</g>
<g id="supported_file_formats">
</g>
<g id="share">
</g>
<g id="searching_and_filtering">
</g>
<g id="scripting_service">
</g>
<g id="roi_folders_1_">
	<g id="raw_8_">
	</g>
</g>
<g id="reverse_intensity_rendering_1_">
	<g id="raw_7_" class="st5">
	</g>
</g>
<g id="rendering_settings">
</g>
<g id="quality_assurance_1_">
	<g id="raw_6_" class="st5">
	</g>
</g>
<g id="python_blitz_api">
</g>
<g id="public_access">
</g>
<g id="personalize">
	<g id="raw_5_" class="st5">
	</g>
</g>
<g id="original_file_formats">
</g>
<g id="orbit_image_analysis">
</g>
<g id="open_with..._1_">
	<g id="raw_4_" class="st5">
	</g>
</g>
<g id="omero-wnd-charm">
</g>
<g id="omero.webtagging">
</g>
<g id="omero.mail_1_">
	<g id="raw_1_" class="st5">
	</g>
</g>
<g id="omero.forms">
</g>
<g id="omero.dropbox">
</g>
<g id="omero_as_public_repository">
	<g class="st5">
		<path class="st7" d="M103.1,43.9C103.1,43.9,103.1,43.9,103.1,43.9L92.2,33.1l-4.4-4.3L72.6,43.9c-1.2,1.2-1.2,3.1,0,4.3
			c1.2,1.2,3.1,1.2,4.3,0l0,0l7.8-7.8v22l0,0c0,3.4-2.8,6.1-6.2,6.1H49.4c-2.2,0-4.3,0.6-6.2,1.7V40.5l7.8,7.8
			c1.2,1.2,3.2,1.2,4.4,0c1.2-1.2,1.2-3.1,0-4.3c0,0,0,0,0,0L40.1,28.8L24.9,43.9c-1.2,1.2-1.2,3.1,0,4.3c1.2,1.2,3.1,1.2,4.4,0
			c0,0,0,0,0,0l7.8-7.8v58.7c0,1.7,1.4,3.1,3.1,3.1c1.7,0,3.1-1.4,3.1-3.1V80.8c0-3.4,2.8-6.1,6.2-6.1h29.3
			c6.8,0,12.3-5.5,12.3-12.3v-22l7.8,7.8c1.2,1.2,3.2,1.2,4.4,0C104.3,47.1,104.3,45.1,103.1,43.9z"/>
		<path class="st7" d="M40.1,28.8l9.8,9.7c2.5-2.5,4.1-5.9,4.1-9.7C54,21.2,47.8,15,40.1,15s-13.8,6.2-13.8,13.8
			c0,3.8,1.5,7.2,4.1,9.7L40.1,28.8z"/>
		<path class="st7" d="M40.1,28.8l5.4,5.4c1.4-1.4,2.3-3.3,2.3-5.4c0-4.2-3.4-7.7-7.7-7.7s-7.7,3.4-7.7,7.7c0,2.1,0.9,4,2.3,5.4
			L40.1,28.8z"/>
		<path class="st7" d="M87.9,28.8l9.8,9.7c2.5-2.5,4.1-5.9,4.1-9.7c0-7.6-6.2-13.8-13.8-13.8C80.2,15,74,21.2,74,28.8
			c0,3.8,1.5,7.2,4.1,9.7L87.9,28.8z"/>
		<path class="st7" d="M87.9,28.8l5.4,5.4c1.4-1.4,2.3-3.3,2.3-5.4c0-4.2-3.4-7.7-7.7-7.7c-4.2,0-7.7,3.4-7.7,7.7
			c0,2.1,0.9,4,2.3,5.4L87.9,28.8z"/>
		<path class="st7" d="M43.2,92.2v7c0,1.7-1.4,3.1-3.1,3.1c-1.7,0-3.1-1.4-3.1-3.1v-7c-2.7,1.2-4.6,3.9-4.6,7c0,4.2,3.4,7.7,7.7,7.7
			c4.3,0,7.7-3.4,7.7-7.7C47.8,96.1,45.9,93.4,43.2,92.2z"/>
		<path class="st7" d="M43.2,85.8v13.4c0,1.7-1.4,3.1-3.1,3.1c-1.7,0-3.1-1.4-3.1-3.1V85.8c-6.2,1.4-10.8,6.9-10.8,13.4
			c0,7.6,6.2,13.8,13.8,13.8c7.7,0,13.8-6.2,13.8-13.8C54,92.7,49.4,87.2,43.2,85.8z"/>
	</g>
	<g id="Live_Paint_5_">
		<g id="XMLID_19_">
			<g>
				<path class="st11" d="M90.9,40.5v22c0,6.8-5.5,12.5-12.3,12.5H49.4C46,75,43,77.4,43,80.8v18.4c0,1.4-0.8,2.5-2,2.9
					c-0.3,0.1-0.6,0.1-0.9,0.1c-1.7,0-3.1-1.4-3.1-3.1v-7v-6.4V40.5l-7.8,7.8c0,0,0,0,0,0c-1.2,1.2-3.1,1.2-4.4,0
					c-1.2-1.2-1.2-3.1,0-4.3l5.4-5.4l4.3-4.3l5.4-5.4l5.4,5.4l4.3,4.3l5.4,5.4c0,0,0,0,0,0c1.2,1.2,1.2,3.1,0,4.3
					c-1.2,1.2-3.2,1.2-4.4,0l-8-7.8v29.8c1.8-1.1,4.1-2.2,6.4-2.2h29.3c1.7,0,3-0.5,4-1.5c0.9-1,1.4-2.3,1.4-4v-22l-7,7.8v0
					c-1.2,1.2-3.2,1.2-4.3,0c-1.2-1.2-1.2-3.1,0-4.3l5.4-5.4l4.3-4.3l5.4-5.4h0l5.4,5.4l4.3,4.3l0,0l5.4,5.4c0,0,0,0,0,0
					c1.2,1.2,1.2,3.1,0,4.3c-1.2,1.2-3.2,1.2-4.3,0L90.9,40.5z"/>
				<path class="st8" d="M43.2,85.8C49.4,87.2,54,92.7,54,99.2c0,7.6-6.2,13.8-13.8,13.8c-7.6,0-13.8-6.2-13.8-13.8
					c0-6.6,4.6-12,10.8-13.4v6.4c-2.7,1.2-4.6,3.9-4.6,7c0,4.2,3.5,7.7,7.7,7.7c4.2,0,7.7-3.4,7.7-7.7c0-3.1-1.9-5.8-4.6-7V85.8z"/>
				<path class="st9" d="M101.7,28.8c0,3.8-1.5,7.2-4,9.7l-4.4-4.3c1.4-1.4,2.2-3.3,2.2-5.4c0-4.2-3.4-7.7-7.7-7.7
					c-4.2,0-7.7,3.4-7.7,7.7c0,2.1,0.9,4,2.3,5.4l-4.3,4.3C75.6,36,74,32.6,74,28.8C74,21.2,80.2,15,87.9,15
					C95.5,15,101.7,21.2,101.7,28.8z"/>
				<path class="st10" d="M54,28.8c0,3.8-1.5,7.2-4.1,9.7l-4.3-4.3c1.4-1.4,2.3-3.3,2.3-5.4c0-4.2-3.5-7.7-7.7-7.7
					c-4.2,0-7.7,3.4-7.7,7.7c0,2.1,0.9,4,2.2,5.4l-4.3,4.3c-2.5-2.5-4-5.9-4-9.7c0-7.6,6.2-13.8,13.8-13.8C47.8,15,54,21.2,54,28.8z
					"/>
			</g>
			<g>
				<path class="st0" d="M30.3,38.5l-5.4,5.4c-1.2,1.2-1.2,3.1,0,4.3c1.2,1.2,3.1,1.2,4.4,0c0,0,0,0,0,0l7.8-7.8v45.3"/>
				<path class="st0" d="M78.1,38.5l-5.4,5.4c-1.2,1.2-1.2,3.1,0,4.3c1.2,1.2,3.2,1.2,4.3,0v0l7-7.8v22c0,1.7-0.5,3.1-1.4,4
					c-0.9,1-2.3,1.5-4,1.5H49.4c-2.2,0-4.5,1.2-6.4,2.2V40.5l8,7.8c1.2,1.2,3.2,1.2,4.4,0c1.2-1.2,1.2-3.1,0-4.3c0,0,0,0,0,0
					l-5.4-5.4"/>
				<path class="st0" d="M41,102.1c1.2-0.4,2-1.6,2-2.9V80.8c0-3.4,3-5.8,6.4-5.8h29.3c6.8,0,12.3-5.8,12.3-12.5v-22l7.8,7.8
					c1.2,1.2,3.2,1.2,4.3,0c1.2-1.2,1.2-3.1,0-4.3c0,0,0,0,0,0l-5.4-5.4l-4.4-4.3"/>
				<path class="st0" d="M45.6,34.2l4.3,4.3c2.5-2.5,4.1-5.9,4.1-9.7C54,21.2,47.8,15,40.1,15c-7.6,0-13.8,6.2-13.8,13.8
					c0,3.8,1.5,7.2,4,9.7l4.3-4.3"/>
				<path class="st0" d="M34.7,34.2l5.4-5.4l5.4,5.4c1.4-1.4,2.3-3.3,2.3-5.4c0-4.2-3.5-7.7-7.7-7.7c-4.2,0-7.7,3.4-7.7,7.7
					C32.4,30.9,33.3,32.8,34.7,34.2z"/>
				<path class="st0" d="M93.3,34.2l4.3,4.3l0,0c2.5-2.5,4-5.9,4-9.7c0-7.6-6.2-13.8-13.8-13.8C80.2,15,74,21.2,74,28.8
					c0,3.8,1.6,7.2,4.1,9.7l4.3-4.3"/>
				<path class="st0" d="M82.4,34.2l5.4-5.4h0l5.4,5.4l0,0c1.4-1.4,2.2-3.3,2.2-5.4c0-4.2-3.4-7.7-7.7-7.7c-4.2,0-7.7,3.4-7.7,7.7
					C80.2,30.9,81,32.8,82.4,34.2z"/>
				<path class="st0" d="M37,92.2c-2.7,1.2-4.6,3.9-4.6,7c0,4.2,3.5,7.7,7.7,7.7c4.2,0,7.7-3.4,7.7-7.7c0-3.1-1.9-5.8-4.6-7"/>
				<path class="st0" d="M41,102.1c-0.3,0.1-0.6,0.1-0.9,0.1c-1.7,0-3.1-1.4-3.1-3.1v-7v-6.4c-6.2,1.4-10.8,6.9-10.8,13.4
					c0,7.6,6.2,13.8,13.8,13.8c7.6,0,13.8-6.2,13.8-13.8c0-6.6-4.6-12-10.8-13.4v6.4"/>
			</g>
		</g>
	</g>
</g>
<g id="moodle">
	<g id="logo_-_moodle">
	</g>
</g>
<g id="manage_and_organize">
</g>
<g id="manage">
	<g id="raw_9_" class="st5">
	</g>
</g>
<g id="lookup_table_1_">
	<g id="raw_2_" class="st5">
	</g>
</g>
<g id="improved_screen_plate_well_ui_1_">
	<g id="raw_3_" class="st5">
	</g>
</g>
<g id="improved_performance">
</g>
<g id="import_images">
</g>
<g id="import-for">
</g>
<g id="histogram_support">
	<g id="raw" class="st5">
	</g>
</g>
<g id="file_integrity_reports">
</g>
<g id="export_images">
</g>
<g id="export_hcs">
</g>
<g id="export_filesets">
</g>
<g id="draw_rois">
</g>
<g id="customize_clients">
</g>
<g id="command_line_interface">
	<g id="raw_11_" class="st5">
	</g>
	<g id="Live_Paint_1_">
	</g>
</g>
<g id="create_movies">
</g>
<g id="create_figures">
</g>
<g id="big_images">
</g>
<g id="attaching_analytical_results">
</g>
<g id="annotate_data">
</g>
<g id="acquisition_metadata">
</g>
</svg>
