<?xml version="1.0" encoding="utf-8"?>
<!-- Generator: Adobe Illustrator 19.2.1, SVG Export Plug-In . SVG Version: 6.00 Build 0)  -->
<svg version="1.1" xmlns="http://www.w3.org/2000/svg" xmlns:xlink="http://www.w3.org/1999/xlink" x="0px" y="0px"
	 viewBox="0 0 128 128" style="enable-background:new 0 0 128 128;" xml:space="preserve">
<style type="text/css">
	.st0{fill:none;stroke:#263238;stroke-width:2;stroke-miterlimit:10;}
	.st1{fill:#EF5350;stroke:#263238;stroke-width:2;stroke-miterlimit:10;}
	.st2{fill:#009688;stroke:#263238;stroke-width:2;stroke-miterlimit:10;}
	.st3{fill:#03A9F4;stroke:#263238;stroke-width:2;stroke-miterlimit:10;}
	.st4{fill:#CFD8DC;stroke:#263238;stroke-width:2;stroke-miterlimit:10;}
	.st5{display:none;}
	.st6{display:inline;}
	.st7{display:inline;fill:none;stroke:#263238;stroke-width:2;stroke-miterlimit:10;}
	.st8{fill:#009688;}
	.st9{fill:#03A9F4;}
	.st10{fill:#EF5350;}
	.st11{fill:#CFD8DC;}
	.st12{fill-rule:evenodd;clip-rule:evenodd;fill:none;stroke:#263238;stroke-width:2;stroke-miterlimit:10;}
	.st13{fill:#37474F;}
	
		.st14{display:inline;fill:none;stroke:#263238;stroke-width:2;stroke-linecap:round;stroke-miterlimit:10;stroke-dasharray:1.9328,3.8656;}
	.st15{fill:#263238;}
	.st16{display:inline;fill:#263238;}
	.st17{display:inline;fill:#FFFFFF;stroke:#000000;stroke-width:2;stroke-miterlimit:10;}
	.st18{display:inline;fill-rule:evenodd;clip-rule:evenodd;fill:none;stroke:#263238;stroke-width:2;stroke-miterlimit:10;}
	.st19{fill:#58595B;}
	.st20{fill:url(#SVGID_1_);}
	.st21{fill:url(#SVGID_2_);}
	.st22{fill:url(#SVGID_3_);}
	.st23{fill:none;stroke:#4A4A4C;stroke-width:0.5;}
	.st24{opacity:0.23;fill:#231F20;enable-background:new    ;}
	.st25{fill:none;stroke:#A8ABAD;stroke-width:0.5;}
	.st26{fill:none;stroke:#37474F;stroke-width:0.5;}
	.st27{fill:#6D6E70;}
	.st28{fill:#FFFFFF;}
	.st29{display:inline;fill:none;stroke:#000000;stroke-width:2;stroke-linecap:round;stroke-linejoin:round;}
	.st30{fill:none;stroke:#000000;stroke-width:2;stroke-linecap:round;stroke-linejoin:round;}
	.st31{display:inline;fill:none;}
	.st32{fill:none;}
	.st33{display:inline;fill-rule:evenodd;clip-rule:evenodd;fill:#263238;}
</style>
<g id="manage">
	<g id="raw_9_" class="st5">
		<g class="st6">
			<path class="st0" d="M90.8,39.5h-2.7c-1.2,0-2.5-1-2.9-2.1l-1.5-3.7c-0.6-1.1-0.3-2.7,0.5-3.5l1.9-1.9c0.9-0.9,0.9-2.3,0-3.2
				l-3.2-3.2c-0.9-0.9-2.3-0.9-3.2,0l-1.9,1.9c-0.9,0.9-2.5,1.1-3.5,0.5l-3.7-1.5c-1.2-0.4-2.1-1.7-2.1-2.9v-2.7
				c0-1.2-1-2.2-2.2-2.2h-4.5c-1.2,0-2.2,1-2.2,2.2v2.7c0,1.2-1,2.5-2.1,2.9l-3.7,1.5c-1.1,0.6-2.7,0.3-3.5-0.5l-1.9-1.9
				c-0.9-0.9-2.3-0.9-3.2,0l-3.2,3.2c-0.9,0.9-0.9,2.3,0,3.2l1.9,1.9c0.9,0.9,1.1,2.5,0.5,3.5l-1.5,3.7c-0.4,1.2-1.7,2.1-2.9,2.1
				l-2.7,0c-1.2,0-2.2,1-2.2,2.2v4.5c0,1.2,1,2.2,2.2,2.2h2.7c1.2,0,2.5,1,2.9,2.1l1.5,3.7c0.6,1.1,0.3,2.7-0.5,3.5l-1.9,1.9
				c-0.9,0.9-0.9,2.3,0,3.2l3.2,3.2c0.9,0.9,2.3,0.9,3.2,0l1.9-1.9c0.9-0.9,2.5-1.1,3.5-0.5l3.7,1.5c1.2,0.4,2.1,1.7,2.1,2.9v2.7
				c0,1.2,1,2.2,2.2,2.2h4.5c1.2,0,2.2-1,2.2-2.2v-2.7c0-1.2,1-2.5,2.1-2.9l3.7-1.5c1.1-0.6,2.7-0.3,3.5,0.5l1.9,1.9
				c0.9,0.9,2.3,0.9,3.2,0l3.2-3.2c0.9-0.9,0.9-2.3,0-3.2l-1.9-1.9c-0.9-0.9-1.1-2.5-0.5-3.5l1.5-3.7c0.4-1.2,1.7-2.1,2.9-2.1h2.7
				c1.2,0,2.2-1,2.2-2.2v-4.5C93,40.5,92,39.5,90.8,39.5z M75.2,44c0,6.2-5,11.2-11.2,11.2c-6.2,0-11.2-5-11.2-11.2
				c0-6.2,5-11.2,11.2-11.2C70.2,32.8,75.2,37.8,75.2,44z"/>
		</g>
		<g class="st6">
			<path class="st0" d="M45,108c0-5.2-2.6-9.8-6.7-12.5c-1.8,2.7-4.9,4.5-8.3,4.5s-6.5-1.8-8.3-4.5c-4,2.7-6.7,7.3-6.7,12.5
				c0,1.4,0.2,2.7,0.6,4h28.9C44.8,110.7,45,109.4,45,108z"/>
			<path class="st0" d="M38.3,95.5C39.4,93.9,40,92,40,90c0-5.5-4.5-10-10-10s-10,4.5-10,10c0,2,0.6,3.9,1.7,5.5"/>
			<path class="st0" d="M16,112h28"/>
		</g>
		<g class="st6">
			<path class="st0" d="M79,108c0-5.2-2.6-9.8-6.7-12.5c-1.8,2.7-4.9,4.5-8.3,4.5s-6.5-1.8-8.3-4.5c-4,2.7-6.7,7.3-6.7,12.5
				c0,1.4,0.2,2.7,0.6,4h28.9C78.8,110.7,79,109.4,79,108z"/>
			<path class="st0" d="M72.3,95.5C73.4,93.9,74,92,74,90c0-5.5-4.5-10-10-10s-10,4.5-10,10c0,2,0.6,3.9,1.7,5.5"/>
			<path class="st0" d="M50,112h28"/>
		</g>
		<g class="st6">
			<path class="st0" d="M113,108c0-5.2-2.6-9.8-6.7-12.5c-1.8,2.7-4.9,4.5-8.3,4.5s-6.5-1.8-8.3-4.5c-4,2.7-6.7,7.3-6.7,12.5
				c0,1.4,0.2,2.7,0.6,4h28.9C112.8,110.7,113,109.4,113,108z"/>
			<path class="st0" d="M106.3,95.5c1.1-1.6,1.7-3.5,1.7-5.5c0-5.5-4.5-10-10-10s-10,4.5-10,10c0,2,0.6,3.9,1.7,5.5"/>
			<path class="st0" d="M84,112h28"/>
		</g>
	</g>
	<g>
		<g id="XMLID_10_">
			<g>
				<path class="st10" d="M79,108c0,1.4-0.2,2.7-0.6,4H78H50h-0.4c-0.4-1.3-0.6-2.6-0.6-4c0-5.2,2.7-9.8,6.7-12.5
					c1.8,2.7,4.9,4.5,8.3,4.5c3.5,0,6.5-1.8,8.3-4.5C76.3,98.2,79,102.8,79,108z"/>
				<path class="st9" d="M113,108c0,1.4-0.2,2.7-0.6,4H112H84h-0.4c-0.4-1.3-0.6-2.6-0.6-4c0-5.2,2.7-9.8,6.7-12.5
					c1.8,2.7,4.8,4.5,8.3,4.5s6.5-1.8,8.3-4.5C110.3,98.2,113,102.8,113,108z"/>
				<path class="st8" d="M45,108c0,1.4-0.2,2.7-0.6,4H44H16h-0.4c-0.4-1.3-0.6-2.6-0.6-4c0-5.2,2.6-9.8,6.7-12.5
					c1.8,2.7,4.9,4.5,8.3,4.5s6.5-1.8,8.3-4.5C42.3,98.2,45,102.8,45,108z"/>
				<path class="st11" d="M93,41.8v4.5c0,1.2-1,2.2-2.2,2.2h-2.7c-1.2,0-2.5,1-2.9,2.1l-1.5,3.7c-0.6,1.1-0.3,2.7,0.5,3.5l1.9,1.9
					c0.9,0.9,0.9,2.3,0,3.2l-3.2,3.2c-0.9,0.9-2.3,0.9-3.2,0l-1.9-1.9c-0.9-0.9-2.5-1.1-3.5-0.5l-3.7,1.5c-1.2,0.4-2.1,1.7-2.1,2.9
					v2.7c0,1.2-1,2.2-2.2,2.2h-4.5c-1.2,0-2.2-1-2.2-2.2v-2.7c0-1.2-1-2.5-2.1-2.9l-3.7-1.5c-1.1-0.6-2.7-0.3-3.5,0.5l-1.9,1.9
					c-0.9,0.9-2.3,0.9-3.1,0l-3.2-3.2c-0.9-0.9-0.9-2.3,0-3.2l1.9-1.9c0.9-0.9,1.1-2.5,0.5-3.5l-1.5-3.7c-0.4-1.2-1.7-2.1-2.9-2.1
					h-2.7c-1.2,0-2.2-1-2.2-2.2v-4.5c0-1.2,1-2.2,2.2-2.2h2.7c1.2,0,2.5-1,2.9-2.1l1.5-3.7c0.6-1.1,0.3-2.7-0.5-3.5l-1.9-1.9
					c-0.9-0.9-0.9-2.3,0-3.2l3.2-3.1c0.9-0.9,2.3-0.9,3.1,0l1.9,1.9c0.9,0.9,2.5,1.1,3.5,0.5l3.7-1.5c1.2-0.4,2.1-1.7,2.1-2.9v-2.7
					c0-1.2,1-2.2,2.2-2.2h4.5c1.2,0,2.2,1,2.2,2.2v2.7c0,1.2,1,2.5,2.1,2.9l3.7,1.5c1.1,0.6,2.7,0.3,3.5-0.5l1.9-1.9
					c0.9-0.9,2.3-0.9,3.2,0l3.2,3.1c0.9,0.9,0.9,2.3,0,3.2l-1.9,1.9c-0.9,0.9-1.1,2.5-0.5,3.5l1.5,3.7c0.4,1.2,1.7,2.1,2.9,2.1h2.7
					C92,39.5,93,40.5,93,41.8z M75.2,44c0-6.2-5-11.2-11.2-11.2c-6.2,0-11.2,5-11.2,11.2s5,11.2,11.2,11.2
					C70.2,55.2,75.2,50.2,75.2,44z"/>
			</g>
			<g>
				<path class="st0" d="M90.8,39.5h-2.7c-1.2,0-2.5-1-2.9-2.1l-1.5-3.7c-0.6-1.1-0.3-2.7,0.5-3.5l1.9-1.9c0.9-0.9,0.9-2.3,0-3.2
					l-3.2-3.1c-0.9-0.9-2.3-0.9-3.2,0l-1.9,1.9c-0.9,0.9-2.5,1.1-3.5,0.5l-3.7-1.5c-1.2-0.4-2.1-1.7-2.1-2.9v-2.7
					c0-1.2-1-2.2-2.2-2.2h-4.5c-1.2,0-2.2,1-2.2,2.2v2.7c0,1.2-1,2.5-2.1,2.9l-3.7,1.5c-1.1,0.6-2.7,0.4-3.5-0.5l-1.9-1.9
					c-0.9-0.9-2.3-0.9-3.1,0l-3.2,3.1c-0.9,0.9-0.9,2.3,0,3.2l1.9,1.9c0.9,0.9,1.1,2.5,0.5,3.5l-1.5,3.7c-0.4,1.2-1.7,2.1-2.9,2.1
					h-2.7c-1.2,0-2.2,1-2.2,2.2v4.5c0,1.2,1,2.2,2.2,2.2h2.7c1.2,0,2.5,1,2.9,2.1l1.5,3.7c0.6,1.1,0.3,2.7-0.5,3.5l-1.9,1.9
					c-0.9,0.9-0.9,2.3,0,3.2l3.2,3.2c0.9,0.9,2.3,0.9,3.1,0l1.9-1.9c0.9-0.9,2.5-1.1,3.5-0.5l3.7,1.5c1.2,0.4,2.1,1.7,2.1,2.9v2.7
					c0,1.2,1,2.2,2.2,2.2h4.5c1.2,0,2.2-1,2.2-2.2v-2.7c0-1.2,1-2.5,2.1-2.9l3.7-1.5c1.1-0.6,2.7-0.3,3.5,0.5l1.9,1.9
					c0.9,0.9,2.3,0.9,3.2,0l3.2-3.2c0.9-0.9,0.9-2.3,0-3.2l-1.9-1.9c-0.9-0.9-1.1-2.5-0.5-3.5l1.5-3.7c0.4-1.2,1.7-2.1,2.9-2.1h2.7
					c1.2,0,2.2-1,2.2-2.2v-4.5C93,40.5,92,39.5,90.8,39.5z"/>
				<path class="st0" d="M75.2,44c0,6.2-5,11.2-11.2,11.2c-6.2,0-11.2-5-11.2-11.2s5-11.2,11.2-11.2C70.2,32.8,75.2,37.8,75.2,44z"
					/>
				<path class="st0" d="M44,112h0.4c0.4-1.3,0.6-2.6,0.6-4c0-5.2-2.7-9.8-6.7-12.5c-1.8,2.7-4.9,4.5-8.3,4.5s-6.5-1.8-8.3-4.5
					c-4,2.7-6.7,7.3-6.7,12.5c0,1.4,0.2,2.7,0.6,4H16"/>
				<path class="st0" d="M38.3,95.5c1-1.6,1.7-3.5,1.7-5.5c0-5.5-4.5-10-10-10s-10,4.5-10,10c0,2,0.6,3.9,1.7,5.5"/>
				<line class="st0" x1="16" y1="112" x2="44" y2="112"/>
				<path class="st0" d="M78,112h0.4c0.4-1.3,0.6-2.6,0.6-4c0-5.2-2.7-9.8-6.7-12.5c-1.8,2.7-4.8,4.5-8.3,4.5
					c-3.5,0-6.5-1.8-8.3-4.5c-4,2.7-6.7,7.3-6.7,12.5c0,1.4,0.2,2.7,0.6,4H50"/>
				<path class="st0" d="M72.3,95.5c1-1.6,1.7-3.5,1.7-5.5c0-5.5-4.5-10-10-10s-10,4.5-10,10c0,2,0.6,3.9,1.7,5.5"/>
				<line class="st0" x1="50" y1="112" x2="78" y2="112"/>
				<path class="st0" d="M112,112h0.4c0.4-1.3,0.6-2.6,0.6-4c0-5.2-2.7-9.8-6.7-12.5c-1.8,2.7-4.8,4.5-8.3,4.5s-6.5-1.8-8.3-4.5
					c-4,2.7-6.7,7.3-6.7,12.5c0,1.4,0.2,2.7,0.6,4H84"/>
				<path class="st0" d="M106.3,95.5c1-1.6,1.7-3.5,1.7-5.5c0-5.5-4.5-10-10-10s-10,4.5-10,10c0,2,0.6,3.9,1.7,5.5"/>
				<line class="st0" x1="84" y1="112" x2="112" y2="112"/>
			</g>
		</g>
	</g>
</g>
</svg>
