<?xml version="1.0" encoding="utf-8"?>
<!-- Generator: Adobe Illustrator 19.2.1, SVG Export Plug-In . SVG Version: 6.00 Build 0)  -->
<svg version="1.1" xmlns="http://www.w3.org/2000/svg" xmlns:xlink="http://www.w3.org/1999/xlink" x="0px" y="0px"
	 viewBox="0 0 256 256" style="enable-background:new 0 0 256 256;" xml:space="preserve">
<style type="text/css">
	.st0{opacity:0.4;fill:#EF5350;}
	.st1{opacity:0.4;fill:#03A9F4;}
	.st2{opacity:0.4;fill:#009688;}
	.st3{fill:none;stroke:#263238;stroke-width:2;stroke-miterlimit:10;}
	.st4{display:none;}
	.st5{display:inline;fill:none;stroke:#263238;stroke-width:2;stroke-miterlimit:10;}
	.st6{fill:#37474F;}
	.st7{fill:#FFFFFF;}
	.st8{fill:#CFD8DC;}
	.st9{fill:#03A9F4;}
	.st10{fill:#EF5350;}
	.st11{fill:#009688;}
	.st12{fill:none;stroke:#263238;stroke-miterlimit:10;}
	.st13{fill:none;stroke:#CFD8DC;stroke-miterlimit:10;}
	.st14{fill:none;stroke:#CFD8DC;stroke-linecap:round;stroke-miterlimit:10;}
	.st15{display:inline;}
	.st16{fill:none;}
	.st17{display:inline;fill:none;stroke:#263238;stroke-width:2;stroke-linecap:round;stroke-miterlimit:10;}
	.st18{fill:none;stroke:#263238;stroke-width:2;stroke-linecap:round;stroke-miterlimit:10;}
	.st19{fill-rule:evenodd;clip-rule:evenodd;fill:none;stroke:#EF5350;stroke-width:2;stroke-miterlimit:10;}
	.st20{fill-rule:evenodd;clip-rule:evenodd;fill:#03A9F4;}
	.st21{fill-rule:evenodd;clip-rule:evenodd;fill:#009688;}
	.st22{fill:#EF5350;stroke:#263238;stroke-width:2;stroke-miterlimit:10;}
	.st23{fill:#009688;stroke:#263238;stroke-width:2;stroke-miterlimit:10;}
	.st24{fill:#03A9F4;stroke:#263238;stroke-width:2;stroke-miterlimit:10;}
	.st25{fill:#CFD8DC;stroke:#263238;stroke-width:2;stroke-miterlimit:10;}
	.st26{fill:#FFFFFF;stroke:#263238;stroke-width:2;stroke-miterlimit:10;}
	.st27{fill:#37474F;stroke:#263238;stroke-width:2;stroke-miterlimit:10;}
</style>
<g id="spheres">
	<circle class="st2" cx="128" cy="128" r="122"/>
	<line class="st3" x1="0" y1="218" x2="256" y2="218"/>
</g>
<g id="Ins">
	<g class="st4">
		<path class="st5" d="M109,147v3h6v24h-6v40h6v-22c0-7.2,5.8-13,13-13v-1v1c7.2,0,13,5.8,13,13v22h6v-40h-6v-24h6v-3 M135,174h-14
			v-24h14V174z"/>
		<path class="st5" d="M45,147v24.2c1.9,2.5,3,5.6,3,8.8s-1.1,6.3-3,8.8V214h50v-67H45z M61,206H51v-16h10V206z M61,186H51v-16h10
			V186z M61,166H51v-16h10V166z M75,206H65v-16h10V206z M75,186H65v-16h10V186z M75,166H65v-16h10V166z M89,206H79v-16h10V206z
			 M89,186H79v-16h10V186z M89,166H79v-16h10V166z"/>
		<path class="st5" d="M161,214h50v-67h-50V214z M195,150h10v16h-10V150z M195,170h10v16h-10V170z M195,190h10v16h-10V190z M181,150
			h10v16h-10V150z M181,170h10v16h-10V170z M181,190h10v16h-10V190z M167,150h10v16h-10V150z M167,170h10v16h-10V170z M177,190v16
			h-10v-16H177z"/>
		<polygon class="st5" points="128,68 90,108 166,108 		"/>
		<polygon class="st5" points="128,73 98,105 158,105 		"/>
		<polygon class="st5" points="95,127 58,127 42,141 44,141 95,141 		"/>
		<polygon class="st5" points="198,127 161,127 161,141 212,141 214,141 		"/>
		<rect x="121" y="150" class="st5" width="14" height="24"/>
		<rect x="51" y="150" class="st5" width="10" height="16"/>
		<rect x="65" y="150" class="st5" width="10" height="16"/>
		<rect x="79" y="150" class="st5" width="10" height="16"/>
		<rect x="51" y="170" class="st5" width="10" height="16"/>
		<rect x="65" y="170" class="st5" width="10" height="16"/>
		<rect x="79" y="170" class="st5" width="10" height="16"/>
		<rect x="51" y="190" class="st5" width="10" height="16"/>
		<rect x="65" y="190" class="st5" width="10" height="16"/>
		<rect x="79" y="190" class="st5" width="10" height="16"/>
		<rect x="167" y="150" class="st5" width="10" height="16"/>
		<rect x="181" y="150" class="st5" width="10" height="16"/>
		<rect x="195" y="150" class="st5" width="10" height="16"/>
		<rect x="167" y="170" class="st5" width="10" height="16"/>
		<rect x="181" y="170" class="st5" width="10" height="16"/>
		<rect x="195" y="170" class="st5" width="10" height="16"/>
		<rect x="167" y="190" class="st5" width="10" height="16"/>
		<rect x="181" y="190" class="st5" width="10" height="16"/>
		<rect x="195" y="190" class="st5" width="10" height="16"/>
		<rect x="109" y="150" class="st5" width="6" height="24"/>
		<rect x="141" y="150" class="st5" width="6" height="24"/>
		<path class="st5" d="M128,179v35h13v-22C141,184.8,135.2,179,128,179z"/>
		<path class="st5" d="M128,179c-7.2,0-13,5.8-13,13v22h13V179z"/>
		<polyline class="st5" points="211,147 161,147 161,144 161,141 212,141 212,147 211,147 		"/>
		<polyline class="st5" points="135,127 135,120 121,120 121,127 121,141 121,144 135,144 135,141 135,144 121,144 121,141 121,127 
			121,120 135,120 135,127 135,141 135,127 		"/>
		<polyline class="st5" points="157,141 157,147 157,141 157,127 157,141 		"/>
		<polyline class="st5" points="109,147 109,144 109,141 109,144 115,144 115,141 115,127 115,120 109,120 109,127 109,120 109,114 
			99,114 99,127 99,114 95,114 95,127 95,141 95,144 95,147 95,214 99,214 99,147 99,214 109,214 109,174 109,150 109,147 109,144 
			115,144 115,141 115,127 115,120 109,120 109,114 147,114 147,120 141,120 141,127 141,141 141,144 147,144 147,147 147,150 
			147,174 147,214 157,214 157,147 157,214 161,214 161,147 161,144 161,141 161,127 161,114 157,114 157,127 157,114 147,114 
			147,120 147,127 147,120 141,120 141,127 141,141 141,144 147,144 147,141 147,144 147,147 147,141 147,127 147,141 		"/>
		<polyline class="st5" points="99,141 99,147 99,141 99,127 99,141 		"/>
		<polyline class="st5" points="95,144 95,141 44,141 44,147 45,147 95,147 95,144 		"/>
		<polyline class="st5" points="109,114 99,114 95,114 92,114 92,108 164,108 164,114 161,114 157,114 147,114 109,114 109,127 
			109,141 109,127 		"/>
		<path class="st5" d="M45,171.2c-3.2-4.3-8.7-7.2-15-7.2c-9.9,0-18,7.2-18,16s8.1,16,18,16c6.3,0,11.8-2.8,15-7.2
			c1.9-2.5,3-5.6,3-8.8S46.9,173.7,45,171.2"/>
		<line class="st5" x1="30" y1="176" x2="30" y2="215"/>
		<line class="st5" x1="19.2" y1="180" x2="30" y2="192.3"/>
		<line class="st5" x1="40.2" y1="174" x2="30" y2="186.2"/>
		<line class="st5" x1="220" y1="134" x2="220" y2="214"/>
	</g>
	<g id="Live_Paint_1_">
		<g id="XMLID_2_">
			<g>
				<polygon class="st6" points="214,141 212,141 161,141 161,127 198,127 				"/>
				<polygon class="st7" points="212,141 212,147 211,147 161,147 161,144 161,141 				"/>
				<path class="st8" d="M211,147v67h-50v-67H211z M205,206v-16h-10v16H205z M205,186v-16h-10v16H205z M205,166v-16h-10v16H205z
					 M191,206v-16h-10v16H191z M191,186v-16h-10v16H191z M191,166v-16h-10v16H191z M177,206v-16h-10v16H177z M177,186v-16h-10v16
					H177z M177,166v-16h-10v16H177z"/>
				<rect x="195" y="190" class="st9" width="10" height="16"/>
				<rect x="195" y="170" class="st9" width="10" height="16"/>
				<rect x="195" y="150" class="st9" width="10" height="16"/>
				<rect x="181" y="190" class="st9" width="10" height="16"/>
				<rect x="181" y="170" class="st9" width="10" height="16"/>
				<rect x="181" y="150" class="st9" width="10" height="16"/>
				<rect x="167" y="190" class="st9" width="10" height="16"/>
				<rect x="167" y="170" class="st9" width="10" height="16"/>
				<rect x="167" y="150" class="st9" width="10" height="16"/>
				<path class="st6" d="M128,68l38,40h-2H92h-2L128,68z M158,105l-30-32l-30,32H158z"/>
				<polygon class="st7" points="164,108 164,114 161,114 157,114 147,114 109,114 99,114 95,114 92,114 92,108 				"/>
				<polygon class="st8" points="161,147 161,214 157,214 157,147 157,141 157,127 157,114 161,114 161,127 161,141 161,144 				"/>
				<polygon class="st7" points="128,73 158,105 98,105 				"/>
				<polygon class="st7" points="157,147 157,214 147,214 147,174 147,150 147,147 147,144 147,141 147,127 147,120 147,114 
					157,114 157,127 157,141 				"/>
				<path class="st8" d="M128,179c-7.2,0-13,5.9-13,13v22h-6v-40h6v-24h-6v-3v-3h6v-3v-14v-7h-6v-6h38v6h-6v7v14v3h6v3v3h-6v24h6v40
					h-6v-22C141,184.9,135.1,179,128,179z M135,174v-24h-14v24H135z M135,144v-3v-14v-7h-14v7v14v3H135z"/>
				<rect x="141" y="150" class="st9" width="6" height="24"/>
				<polygon class="st9" points="147,141 147,144 141,144 141,141 141,127 141,120 147,120 147,127 				"/>
				<path class="st10" d="M141,192v22h-13v-35C135.1,179,141,184.9,141,192z"/>
				<rect x="121" y="150" class="st9" width="14" height="24"/>
				<polygon class="st9" points="135,141 135,144 121,144 121,141 121,127 121,120 135,120 135,127 				"/>
				<path class="st10" d="M128,179v35h-13v-22C115,184.9,120.8,179,128,179z"/>
				<rect x="109" y="150" class="st9" width="6" height="24"/>
				<polygon class="st9" points="115,141 115,144 109,144 109,141 109,127 109,120 115,120 115,127 				"/>
				<polygon class="st7" points="109,174 109,214 99,214 99,147 99,141 99,127 99,114 109,114 109,120 109,127 109,141 109,144 
					109,147 109,150 				"/>
				<polygon class="st8" points="99,147 99,214 95,214 95,147 95,144 95,141 95,127 95,114 99,114 99,127 99,141 				"/>
				<path class="st8" d="M95,147v67H45v-25.2c1.9-2.5,3-5.6,3-8.8s-1.1-6.3-3-8.8V147H95z M89,206v-16H79v16H89z M89,186v-16H79v16
					H89z M89,166v-16H79v16H89z M75,206v-16H65v16H75z M75,186v-16H65v16H75z M75,166v-16H65v16H75z M61,206v-16H51v16H61z M61,186
					v-16H51v16H61z M61,166v-16H51v16H61z"/>
				<polygon class="st7" points="95,144 95,147 45,147 44,147 44,141 95,141 				"/>
				<polygon class="st6" points="95,127 95,141 44,141 42,141 58,127 				"/>
				<rect x="79" y="190" class="st9" width="10" height="16"/>
				<rect x="79" y="170" class="st9" width="10" height="16"/>
				<rect x="79" y="150" class="st9" width="10" height="16"/>
				<rect x="65" y="190" class="st9" width="10" height="16"/>
				<rect x="65" y="170" class="st9" width="10" height="16"/>
				<rect x="65" y="150" class="st9" width="10" height="16"/>
				<rect x="51" y="190" class="st9" width="10" height="16"/>
				<rect x="51" y="170" class="st9" width="10" height="16"/>
				<rect x="51" y="150" class="st9" width="10" height="16"/>
				<path class="st11" d="M30,196c-9.9,0-18-7.2-18-16s8.1-16,18-16c6.3,0,11.8,2.9,15,7.2c1.9,2.5,3,5.6,3,8.8s-1.1,6.3-3,8.8
					C41.8,193.1,36.3,196,30,196z"/>
			</g>
			<g>
				<line class="st3" x1="141" y1="214" x2="147" y2="214"/>
				<line class="st3" x1="128" y1="179" x2="128" y2="178"/>
				<line class="st3" x1="109" y1="214" x2="115" y2="214"/>
				<polyline class="st3" points="45,188.8 45,214 95,214 				"/>
				<line class="st3" x1="45" y1="147" x2="45" y2="171.2"/>
				<polyline class="st3" points="161,214 211,214 211,147 				"/>
				<polyline class="st3" points="164,108 166,108 128,68 90,108 92,108 				"/>
				<polygon class="st3" points="128,73 98,105 158,105 				"/>
				<polyline class="st3" points="95,127 58,127 42,141 44,141 				"/>
				<polyline class="st3" points="212,141 214,141 198,127 161,127 				"/>
				<rect x="121" y="150" class="st3" width="14" height="24"/>
				<rect x="51" y="150" class="st3" width="10" height="16"/>
				<rect x="65" y="150" class="st3" width="10" height="16"/>
				<rect x="79" y="150" class="st3" width="10" height="16"/>
				<rect x="51" y="170" class="st3" width="10" height="16"/>
				<rect x="65" y="170" class="st3" width="10" height="16"/>
				<rect x="79" y="170" class="st3" width="10" height="16"/>
				<rect x="51" y="190" class="st3" width="10" height="16"/>
				<rect x="65" y="190" class="st3" width="10" height="16"/>
				<rect x="79" y="190" class="st3" width="10" height="16"/>
				<rect x="167" y="150" class="st3" width="10" height="16"/>
				<rect x="181" y="150" class="st3" width="10" height="16"/>
				<rect x="195" y="150" class="st3" width="10" height="16"/>
				<rect x="167" y="170" class="st3" width="10" height="16"/>
				<rect x="181" y="170" class="st3" width="10" height="16"/>
				<rect x="195" y="170" class="st3" width="10" height="16"/>
				<rect x="167" y="190" class="st3" width="10" height="16"/>
				<rect x="181" y="190" class="st3" width="10" height="16"/>
				<rect x="195" y="190" class="st3" width="10" height="16"/>
				<polyline class="st3" points="109,174 115,174 115,150 109,150 				"/>
				<polyline class="st3" points="147,150 141,150 141,174 147,174 				"/>
				<path class="st3" d="M128,214h13v-22c0-7.1-5.9-13-13-13"/>
				<path class="st3" d="M128,179c-7.2,0-13,5.9-13,13v22h13V179z"/>
				<polyline class="st3" points="161,141 212,141 212,147 211,147 				"/>
				<line class="st3" x1="211" y1="147" x2="161" y2="147"/>
				<polygon class="st3" points="135,127 135,141 135,144 121,144 121,141 121,127 121,120 135,120 				"/>
				<line class="st3" x1="147" y1="144" x2="147" y2="141"/>
				<polyline class="st3" points="147,120 147,127 147,141 				"/>
				<polyline class="st3" points="157,141 157,127 157,114 				"/>
				<polyline class="st3" points="157,141 157,147 157,214 161,214 161,147 161,144 161,141 161,127 161,114 				"/>
				<polyline class="st3" points="147,147 147,150 147,174 147,214 157,214 				"/>
				<line class="st3" x1="147" y1="147" x2="147" y2="144"/>
				<polyline class="st3" points="147,114 147,120 141,120 141,127 141,141 141,144 147,144 				"/>
				<polyline class="st3" points="99,214 109,214 109,174 109,150 109,147 				"/>
				<polyline class="st3" points="95,147 95,214 99,214 				"/>
				<polyline class="st3" points="95,114 95,127 95,141 				"/>
				<polyline class="st3" points="109,144 115,144 115,141 115,127 115,120 109,120 				"/>
				<line class="st3" x1="109" y1="147" x2="109" y2="144"/>
				<polyline class="st3" points="99,114 99,127 99,141 				"/>
				<polyline class="st3" points="99,214 99,147 99,141 				"/>
				<polyline class="st3" points="95,144 95,141 44,141 44,147 45,147 95,147 95,144 				"/>
				<polyline class="st3" points="109,144 109,141 109,127 				"/>
				<polyline class="st3" points="109,114 99,114 95,114 92,114 92,108 164,108 164,114 161,114 157,114 147,114 109,114 109,120 
					109,127 				"/>
				<path class="st3" d="M45,171.2c-3.2-4.3-8.7-7.2-15-7.2c-9.9,0-18,7.2-18,16s8.1,16,18,16c6.3,0,11.8-2.9,15-7.2
					c1.9-2.5,3-5.6,3-8.8S46.9,173.7,45,171.2"/>
				<polyline class="st12" points="30,176 30,186.2 30,192.3 30,196 30,215 				"/>
				<line class="st12" x1="19.2" y1="180" x2="30" y2="192.3"/>
				<line class="st12" x1="40.2" y1="174" x2="30" y2="186.2"/>
				<line class="st12" x1="220" y1="134" x2="220" y2="214"/>
				<polyline class="st12" points="128,68.2 128,68 128,58.2 				"/>
			</g>
		</g>
	</g>
	<polygon class="st11" points="239,142 221,149 221,135 	"/>
	<polygon class="st11" points="143,62 129,66 129,58 	"/>
	<line class="st13" x1="102" y1="115" x2="102" y2="213"/>
	<line class="st13" x1="106" y1="115" x2="106" y2="213"/>
	<line class="st13" x1="149.9" y1="115" x2="149.9" y2="213"/>
	<line class="st13" x1="153.9" y1="115" x2="153.9" y2="213"/>
	<line class="st14" x1="104" y1="102" x2="152" y2="102"/>
	<line class="st14" x1="108" y1="98" x2="148" y2="98"/>
	<line class="st14" x1="112" y1="94" x2="144" y2="94"/>
	<line class="st14" x1="116" y1="90" x2="140" y2="90"/>
	<line class="st14" x1="120" y1="86" x2="136" y2="86"/>
	<line class="st14" x1="124" y1="82" x2="132" y2="82"/>
	<line class="st14" x1="127" y1="78" x2="129" y2="78"/>
	
		<rect x="35.9" y="107.9" transform="matrix(0.7071 -0.7071 0.7071 0.7071 -66.6518 59.0883)" class="st11" width="4.2" height="4.2"/>
	
		<rect x="77.9" y="65.9" transform="matrix(0.7071 -0.7071 0.7071 0.7071 -24.6518 76.4853)" class="st11" width="4.2" height="4.2"/>
	
		<rect x="199.9" y="93.9" transform="matrix(0.7071 -0.7071 0.7071 0.7071 -8.7178 170.9533)" class="st11" width="4.2" height="4.2"/>
	
		<rect x="223.9" y="53.9" transform="matrix(0.7071 -0.7071 0.7071 0.7071 26.5959 176.2082)" class="st11" width="4.2" height="4.2"/>
	<g>
		<path class="st11" d="M40.7,66.9C39,67.7,37.3,68,35.2,68c-5,0-9.2-3.4-9.2-9c0-5.9,4.4-11,11.1-11c5.3,0,8.9,3.5,8.9,8.3
			c0,4.3-2.6,6.8-5.4,6.8c-1.2,0-2.3-0.8-2.3-2.5h-0.1c-1.1,1.7-2.5,2.5-4.3,2.5c-1.8,0-3.3-1.4-3.3-3.6c0-3.6,3-6.8,7.2-6.8
			c1.3,0,2.5,0.3,3.3,0.6l-1,5.2c-0.5,2.2-0.1,3.2,0.9,3.2c1.6,0,3.3-1.9,3.3-5.3c0-4.2-2.7-7.2-7.4-7.2c-5,0-9.1,3.7-9.1,9.5
			c0,4.8,3.3,7.8,7.8,7.8c1.7,0,3.4-0.3,4.6-1L40.7,66.9z M39,54.4c-0.3-0.1-0.8-0.2-1.5-0.2c-2.7,0-4.8,2.4-4.8,5.2
			c0,1.3,0.7,2.2,2,2.2c1.8,0,3.4-2.1,3.7-3.9L39,54.4z"/>
	</g>
	<g>
		<path class="st11" d="M181.5,90.6c-1.3,0.6-2.5,0.9-4.1,0.9c-3.7,0-6.9-2.6-6.9-6.7c0-4.4,3.3-8.3,8.3-8.3c4,0,6.7,2.6,6.7,6.2
			c0,3.2-1.9,5.1-4.1,5.1c-0.9,0-1.8-0.6-1.7-1.9h-0.1c-0.8,1.3-1.9,1.9-3.2,1.9c-1.3,0-2.5-1-2.5-2.7c0-2.7,2.2-5.1,5.4-5.1
			c1,0,1.9,0.2,2.4,0.5l-0.8,3.9c-0.3,1.6-0.1,2.4,0.7,2.4c1.2,0,2.5-1.4,2.5-3.9c0-3.1-2-5.4-5.5-5.4c-3.7,0-6.9,2.8-6.9,7.2
			c0,3.6,2.5,5.8,5.9,5.8c1.3,0,2.5-0.3,3.5-0.8L181.5,90.6z M180.2,81.3c-0.2-0.1-0.6-0.2-1.1-0.2c-2,0-3.6,1.8-3.6,3.9
			c0,0.9,0.5,1.6,1.5,1.6c1.3,0,2.5-1.6,2.8-2.9L180.2,81.3z"/>
	</g>
	<g>
		<path class="st11" d="M134.8,29.3c-1,0.5-2,0.7-3.3,0.7c-3,0-5.5-2.1-5.5-5.4c0-3.6,2.6-6.6,6.7-6.6c3.2,0,5.3,2.1,5.3,5
			c0,2.6-1.5,4.1-3.3,4.1c-0.7,0-1.4-0.5-1.4-1.5h-0.1c-0.6,1-1.5,1.5-2.6,1.5c-1.1,0-2-0.8-2-2.2c0-2.1,1.8-4.1,4.3-4.1
			c0.8,0,1.5,0.2,2,0.4l-0.6,3.1c-0.3,1.3-0.1,1.9,0.5,1.9c0.9,0,2-1.2,2-3.2c0-2.5-1.6-4.3-4.4-4.3c-3,0-5.5,2.2-5.5,5.7
			c0,2.9,2,4.7,4.7,4.7c1,0,2-0.2,2.8-0.6L134.8,29.3z M133.8,21.9c-0.2-0.1-0.5-0.1-0.9-0.1c-1.6,0-2.9,1.4-2.9,3.1
			c0,0.8,0.4,1.3,1.2,1.3c1.1,0,2-1.3,2.2-2.3L133.8,21.9z"/>
	</g>
	<circle class="st11" cx="14" cy="128" r="2"/>
	<circle class="st11" cx="174" cy="38" r="2"/>
	<circle class="st11" cx="86" cy="34" r="2"/>
	<circle class="st11" cx="236" cy="110" r="2"/>
</g>
</svg>
