<?xml version="1.0" encoding="utf-8"?>
<!-- Generator: Adobe Illustrator 19.2.1, SVG Export Plug-In . SVG Version: 6.00 Build 0)  -->
<svg version="1.1" xmlns="http://www.w3.org/2000/svg" xmlns:xlink="http://www.w3.org/1999/xlink" x="0px" y="0px"
	 viewBox="0 0 256 256" style="enable-background:new 0 0 256 256;" xml:space="preserve">
<style type="text/css">
	.st0{opacity:0.4;fill:#EF5350;}
	.st1{opacity:0.4;fill:#03A9F4;}
	.st2{opacity:0.4;fill:#009688;}
	.st3{fill:none;stroke:#263238;stroke-width:2;stroke-miterlimit:10;}
	.st4{display:none;}
	.st5{display:inline;fill:none;stroke:#263238;stroke-width:2;stroke-miterlimit:10;}
	.st6{fill:#37474F;}
	.st7{fill:#FFFFFF;}
	.st8{fill:#CFD8DC;}
	.st9{fill:#03A9F4;}
	.st10{fill:#EF5350;}
	.st11{fill:#009688;}
	.st12{fill:none;stroke:#263238;stroke-miterlimit:10;}
	.st13{fill:none;stroke:#CFD8DC;stroke-miterlimit:10;}
	.st14{fill:none;stroke:#CFD8DC;stroke-linecap:round;stroke-miterlimit:10;}
	.st15{display:inline;}
	.st16{fill:none;}
	.st17{display:inline;fill:none;stroke:#263238;stroke-width:2;stroke-linecap:round;stroke-miterlimit:10;}
	.st18{fill:none;stroke:#263238;stroke-width:2;stroke-linecap:round;stroke-miterlimit:10;}
	.st19{fill-rule:evenodd;clip-rule:evenodd;fill:none;stroke:#EF5350;stroke-width:2;stroke-miterlimit:10;}
	.st20{fill-rule:evenodd;clip-rule:evenodd;fill:#03A9F4;}
	.st21{fill-rule:evenodd;clip-rule:evenodd;fill:#009688;}
	.st22{fill:#EF5350;stroke:#263238;stroke-width:2;stroke-miterlimit:10;}
	.st23{fill:#009688;stroke:#263238;stroke-width:2;stroke-miterlimit:10;}
	.st24{fill:#03A9F4;stroke:#263238;stroke-width:2;stroke-miterlimit:10;}
	.st25{fill:#CFD8DC;stroke:#263238;stroke-width:2;stroke-miterlimit:10;}
	.st26{fill:#FFFFFF;stroke:#263238;stroke-width:2;stroke-miterlimit:10;}
	.st27{fill:#37474F;stroke:#263238;stroke-width:2;stroke-miterlimit:10;}
</style>
<g id="spheres">
	<circle class="st1" cx="128" cy="128" r="122"/>
</g>
<g id="Dev">
	<g id="shapes" class="st4">
		<g class="st15">
			<path class="st3" d="M232,200h-96c-1.1,0-2-0.9-2-2v-72c0-1.1,0.9-2,2-2h96c1.1,0,2,0.9,2,2v72C234,199.1,233.1,200,232,200z"/>
			<g>
				<path class="st3" d="M124,204h120c5.5,0,10-3.6,10-8H114C114,200.4,118.5,204,124,204z"/>
			</g>
			<rect x="169" y="193" class="st3" width="30" height="6"/>
			<rect x="139" y="130" class="st3" width="90" height="60"/>
		</g>
		<g class="st15">
			<polygon class="st3" points="27,204.4 9,204.4 6,170.4 30,170.4 			"/>
			<rect x="6" y="180" class="st3" width="24" height="16"/>
			<polygon class="st3" points="32.2,166 29.3,160 6.7,160 3.8,166 1,166 1,172 35,172 35,166 			"/>
		</g>
		<g class="st15">
			<path class="st3" d="M178,89h-2.5h-135H38v2.5v85v2.5h2.5h135h2.5v-2.5v-85V89L178,89z"/>
			<rect x="91" y="186" class="st3" width="34" height="12"/>
			<rect x="75" y="197" class="st3" width="66" height="6"/>
			<path class="st3" d="M183,186H33c-1.1,0-2-0.9-2-2V84c0-1.1,0.9-2,2-2h150c1.1,0,2,0.9,2,2v100C185,185.1,184.1,186,183,186z"/>
		</g>
	</g>
	<line class="st3" x1="0" y1="218" x2="256" y2="218"/>
	<g id="Live_Paint">
		<g id="XMLID_1_">
			<g>
				<path class="st8" d="M234,206h20c0,4.4-4.5,8-10,8H124c-1.7,0-3.4-0.4-4.8-1c-1.2-0.5-2.2-1.2-3.1-2.1c-0.8-0.9-1.4-1.8-1.8-2.9
					l-0.3-1h0.1c0-0.3-0.1-0.7-0.1-1h11h9h35v3h30v-3H234z"/>
				<path class="st8" d="M234,136v70h-35h-30h-35v-10v-7v-53c0-1.1,0.9-2,2-2h42h7h47C233.1,134,234,134.9,234,136z M229,200v-60
					h-44h-7h-39v49v7v4H229z"/>
				<polygon class="st7" points="229,140 229,200 139,200 139,196 139,189 139,140 178,140 185,140 				"/>
				<rect x="169" y="206" class="st6" width="30" height="3"/>
				<path class="st8" d="M185,94v40h-7v-32.5V99h-2.5h-135H38v2.5V178h-3h-2.8l-1.2-4V94c0-1.1,0.9-2,2-2h150
					C184.1,92,185,92.9,185,94z"/>
				<path class="st6" d="M178,101.5V134h-42c-1.1,0-2,0.9-2,2v53H40.5H38v-2.5V178v-76.5V99h2.5h135h2.5V101.5z"/>
				<path class="st8" d="M134,189v7h-9H91H33c-1.1,0-2-0.9-2-2v-12h4v-4h3v8.5v2.5h2.5H134z"/>
				<path class="st8" d="M125,196v10h-11c0,0.3,0,0.7,0.1,1H114H91v-11H125z"/>
				<path class="st8" d="M119.2,213H75v-6h16h23l0.3,1c0.3,1.1,1,2.1,1.8,2.9C117,211.8,118,212.5,119.2,213z"/>
				<polygon class="st6" points="35,178 35,182 31,182 30,182 29.9,182 6.1,182 6,182 1,182 1,178 3.8,178 6.7,170 29.3,170 
					30.9,174 31,174 32.2,178 				"/>
				<polygon class="st7" points="29.9,182 29.1,190 6.8,190 6.1,182 				"/>
				<polygon class="st9" points="29.1,190 27.7,206 8.3,206 6.8,190 				"/>
				<polygon class="st7" points="27.7,206 27,214 9,214 8.3,206 				"/>
			</g>
			<g>
				<polyline class="st3" points="8.3,206 9,214 27,214 27.7,206 				"/>
				<line class="st3" x1="6.1" y1="182" x2="6.8" y2="190"/>
				<line class="st3" x1="29.1" y1="190" x2="29.9" y2="182"/>
				<line class="st3" x1="29.1" y1="190" x2="6.8" y2="190"/>
				<path class="st3" d="M114,207L114,207c0-0.3,0-0.7,0-1"/>
				<line class="st3" x1="91" y1="196" x2="91" y2="207"/>
				<line class="st3" x1="125" y1="206" x2="125" y2="196"/>
				<line class="st3" x1="136" y1="134" x2="178" y2="134"/>
				<polyline class="st3" points="29.1,190 27.7,206 8.3,206 6.8,190 				"/>
				<polyline class="st3" points="31,182 30,182 29.9,182 6.1,182 6,182 1,182 1,178 3.8,178 6.7,170 29.3,170 30.9,174 				"/>
				<path class="st3" d="M234,206h20c0,4.4-4.5,8-10,8H124c-1.7,0-3.4-0.4-4.8-1c-1.2-0.5-2.2-1.2-3.1-2.1c-0.8-0.9-1.4-1.8-1.8-2.9
					l-0.3-1H91H75v6h44.2"/>
				<polyline class="st3" points="169,206 169,209 199,209 199,206 				"/>
				<polyline class="st3" points="114,206 125,206 134,206 				"/>
				<path class="st3" d="M136,134c-1.1,0-2,0.9-2,2v53"/>
				<path class="st3" d="M134,196v10h35h30h35v-70c0-1.1-0.9-2-2-2h-47h-7v-32.5V99h-2.5h-135H38v2.5V178v8.5v2.5h2.5H134V196h-9H91
					H33c-1.1,0-2-0.9-2-2v-12h4v-4h-2.8l-1.2-4V94c0-1.1,0.9-2,2-2h150c1.1,0,2,0.9,2,2v40"/>
				<polygon class="st3" points="139,196 139,189 139,140 178,140 185,140 229,140 229,200 139,200 				"/>
			</g>
		</g>
	</g>
	<g id="code">
		<circle class="st7" cx="44" cy="108" r="2"/>
		<path class="st7" d="M81,110H51c-1.1,0-2-0.9-2-2l0,0c0-1.1,0.9-2,2-2h30c1.1,0,2,0.9,2,2l0,0C83,109.1,82.1,110,81,110z"/>
		<path class="st8" d="M108,110H88c-1.1,0-2-0.9-2-2l0,0c0-1.1,0.9-2,2-2h20c1.1,0,2,0.9,2,2l0,0C110,109.1,109.1,110,108,110z"/>
		<path class="st7" d="M145,110h-30c-1.1,0-2-0.9-2-2l0,0c0-1.1,0.9-2,2-2h30c1.1,0,2,0.9,2,2l0,0C147,109.1,146.1,110,145,110z"/>
		<path class="st11" d="M172,110h-20c-1.1,0-2-0.9-2-2l0,0c0-1.1,0.9-2,2-2h20c1.1,0,2,0.9,2,2l0,0C174,109.1,173.1,110,172,110z"/>
		<circle class="st8" cx="44" cy="132" r="2"/>
		<path class="st7" d="M113.5,134h13c1.1,0,2-0.9,2-2l0,0c0-1.1-0.9-2-2-2h-13c-1.1,0-2,0.9-2,2l0,0
			C111.5,133.1,112.4,134,113.5,134z"/>
		<path class="st11" d="M78,134h30c1.1,0,2-0.9,2-2l0,0c0-1.1-0.9-2-2-2H78c-1.1,0-2,0.9-2,2l0,0C76,133.1,76.9,134,78,134z"/>
		<path class="st7" d="M51,134h20c1.1,0,2-0.9,2-2l0,0c0-1.1-0.9-2-2-2H51c-1.1,0-2,0.9-2,2l0,0C49,133.1,49.9,134,51,134z"/>
		<circle class="st7" cx="44" cy="172" r="2"/>
		<path class="st10" d="M78,174h30c1.1,0,2-0.9,2-2l0,0c0-1.1-0.9-2-2-2H78c-1.1,0-2,0.9-2,2l0,0C76,173.1,76.9,174,78,174z"/>
		<path class="st7" d="M51,174h20c1.1,0,2-0.9,2-2l0,0c0-1.1-0.9-2-2-2H51c-1.1,0-2,0.9-2,2l0,0C49,173.1,49.9,174,51,174z"/>
		<circle class="st7" cx="44" cy="156" r="2"/>
		<path class="st7" d="M78,158h30c1.1,0,2-0.9,2-2l0,0c0-1.1-0.9-2-2-2H78c-1.1,0-2,0.9-2,2l0,0C76,157.1,76.9,158,78,158z"/>
		<path class="st9" d="M51,158h20c1.1,0,2-0.9,2-2l0,0c0-1.1-0.9-2-2-2H51c-1.1,0-2,0.9-2,2l0,0C49,157.1,49.9,158,51,158z"/>
		<circle class="st7" cx="44" cy="140" r="2"/>
		<path class="st7" d="M110,142h20c1.1,0,2-0.9,2-2l0,0c0-1.1-0.9-2-2-2h-20c-1.1,0-2,0.9-2,2l0,0C108,141.1,108.9,142,110,142z"/>
		<path class="st10" d="M73,142h30c1.1,0,2-0.9,2-2l0,0c0-1.1-0.9-2-2-2H73c-1.1,0-2,0.9-2,2l0,0C71,141.1,71.9,142,73,142z"/>
		<path class="st7" d="M51,142h14c1.1,0,2-0.9,2-2l0,0c0-1.1-0.9-2-2-2H51c-1.1,0-2,0.9-2,2l0,0C49,141.1,49.9,142,51,142z"/>
		<circle class="st8" cx="44" cy="148" r="2"/>
		<path class="st8" d="M51,150h50c1.1,0,2-0.9,2-2l0,0c0-1.1-0.9-2-2-2H51c-1.1,0-2,0.9-2,2l0,0C49,149.1,49.9,150,51,150z"/>
		<circle class="st8" cx="44" cy="116" r="2"/>
		<path class="st7" d="M78,118H51c-1.1,0-2-0.9-2-2l0,0c0-1.1,0.9-2,2-2h27c1.1,0,2,0.9,2,2l0,0C80,117.1,79.1,118,78,118z"/>
		<path class="st9" d="M115,118H85c-1.1,0-2-0.9-2-2l0,0c0-1.1,0.9-2,2-2h30c1.1,0,2,0.9,2,2l0,0C117,117.1,116.1,118,115,118z"/>
		<path class="st7" d="M133,118h-10c-1.1,0-2-0.9-2-2l0,0c0-1.1,0.9-2,2-2h10c1.1,0,2,0.9,2,2l0,0C135,117.1,134.1,118,133,118z"/>
		<path class="st7" d="M173,118h-10c-1.1,0-2-0.9-2-2l0,0c0-1.1,0.9-2,2-2h10c1.1,0,2,0.9,2,2l0,0C175,117.1,174.1,118,173,118z"/>
		<path class="st10" d="M156,118h-16c-1.1,0-2-0.9-2-2l0,0c0-1.1,0.9-2,2-2h16c1.1,0,2,0.9,2,2l0,0C158,117.1,157.1,118,156,118z"/>
		<circle class="st7" cx="44" cy="124" r="2"/>
		<path class="st8" d="M146,126h27c1.1,0,2-0.9,2-2l0,0c0-1.1-0.9-2-2-2h-27c-1.1,0-2,0.9-2,2l0,0C144,125.1,144.9,126,146,126z"/>
		<path class="st7" d="M109,126h30c1.1,0,2-0.9,2-2l0,0c0-1.1-0.9-2-2-2h-30c-1.1,0-2,0.9-2,2l0,0C107,125.1,107.9,126,109,126z"/>
		<path class="st9" d="M91,126h10c1.1,0,2-0.9,2-2l0,0c0-1.1-0.9-2-2-2H91c-1.1,0-2,0.9-2,2l0,0C89,125.1,89.9,126,91,126z"/>
		<path class="st8" d="M51,126h10c1.1,0,2-0.9,2-2l0,0c0-1.1-0.9-2-2-2H51c-1.1,0-2,0.9-2,2l0,0C49,125.1,49.9,126,51,126z"/>
		<path class="st7" d="M68,126h16c1.1,0,2-0.9,2-2l0,0c0-1.1-0.9-2-2-2H68c-1.1,0-2,0.9-2,2l0,0C66,125.1,66.9,126,68,126z"/>
		<circle class="st8" cx="44" cy="180" r="2"/>
		<path class="st8" d="M81,182H51c-1.1,0-2-0.9-2-2l0,0c0-1.1,0.9-2,2-2h30c1.1,0,2,0.9,2,2l0,0C83,181.1,82.1,182,81,182z"/>
		<path class="st7" d="M99,182H89c-1.1,0-2-0.9-2-2l0,0c0-1.1,0.9-2,2-2h10c1.1,0,2,0.9,2,2l0,0C101,181.1,100.1,182,99,182z"/>
		<path class="st9" d="M122,182h-16c-1.1,0-2-0.9-2-2l0,0c0-1.1,0.9-2,2-2h16c1.1,0,2,0.9,2,2l0,0C124,181.1,123.1,182,122,182z"/>
		<circle class="st8" cx="44" cy="164" r="2"/>
		<g>
			<path class="st7" d="M115,170c-1.1,0-2,0.9-2,2c0,1.1,0.9,2,2,2h18v-4H115z"/>
			<path class="st8" d="M115,154c-1.1,0-2,0.9-2,2c0,1.1,0.9,2,2,2h18v-4H115z"/>
			<path class="st7" d="M108,146c-1.1,0-2,0.9-2,2c0,1.1,0.9,2,2,2h25v-4H108z"/>
			<path class="st7" d="M129,178c-1.1,0-2,0.9-2,2c0,1.1,0.9,2,2,2h4v-4H129z"/>
			<path class="st9" d="M109,162c-1.1,0-2,0.9-2,2c0,1.1,0.9,2,2,2h24v-4H109z"/>
		</g>
		<path class="st7" d="M91,166h10c1.1,0,2-0.9,2-2l0,0c0-1.1-0.9-2-2-2H91c-1.1,0-2,0.9-2,2l0,0C89,165.1,89.9,166,91,166z"/>
		<path class="st7" d="M51,166h10c1.1,0,2-0.9,2-2l0,0c0-1.1-0.9-2-2-2H51c-1.1,0-2,0.9-2,2l0,0C49,165.1,49.9,166,51,166z"/>
		<path class="st11" d="M68,166h16c1.1,0,2-0.9,2-2l0,0c0-1.1-0.9-2-2-2H68c-1.1,0-2,0.9-2,2l0,0C66,165.1,66.9,166,68,166z"/>
		<g>
			<path class="st9" d="M175,132c0-1.1-0.9-2-2-2h-38c-1.1,0-2,0.9-2,2c0,0.4,0.1,0.7,0.3,1h41.4C174.9,132.7,175,132.4,175,132z"/>
		</g>
	</g>
	<g id="omero.web">
		<path class="st13" d="M224,197h-80c-1.1,0-2-0.9-2-2v-50c0-1.1,0.9-2,2-2h80c1.1,0,2,0.9,2,2v50C226,196.1,225.1,197,224,197z"/>
		<line class="st13" x1="142" y1="148.5" x2="226" y2="148.5"/>
		<circle class="st10" cx="146" cy="146" r="1"/>
		<circle class="st9" cx="150" cy="146" r="1"/>
		<circle class="st11" cx="154" cy="146" r="1"/>
		<rect x="186" y="154" class="st11" width="6" height="6"/>
		<rect x="176" y="154" class="st9" width="6" height="6"/>
		<rect x="166" y="154" class="st10" width="6" height="6"/>
		<rect x="196" y="154" class="st10" width="6" height="6"/>
		<rect x="186" y="164" class="st10" width="6" height="6"/>
		<rect x="176" y="164" class="st9" width="6" height="6"/>
		<rect x="166" y="164" class="st11" width="6" height="6"/>
		<rect x="196" y="164" class="st11" width="6" height="6"/>
		<rect x="186" y="174" class="st11" width="6" height="6"/>
		<rect x="176" y="174" class="st10" width="6" height="6"/>
		<rect x="166" y="174" class="st9" width="6" height="6"/>
		<rect x="196" y="174" class="st9" width="6" height="6"/>
		<rect x="186" y="184" class="st9" width="6" height="6"/>
		<rect x="176" y="184" class="st11" width="6" height="6"/>
		<rect x="166" y="184" class="st10" width="6" height="6"/>
		<rect x="196" y="184" class="st10" width="6" height="6"/>
		<rect x="146" y="150" class="st8" width="16" height="44"/>
		<rect x="206" y="150" class="st8" width="16" height="44"/>
	</g>
	<g id="confetti_1_">
		<g>
			<path class="st9" d="M36.1,54.5c0.8,0.7,8.3,8.1,8.3,8.1C44.8,63,45,63.5,45,64c0,0.5-0.2,1-0.6,1.4c0,0-7.5,7.4-8.3,8.1
				c-0.8,0.7-2.2,0.8-3,0c-0.8-0.7-0.9-1.8,0-2.7L40,64l-6.9-6.7c-0.9-0.9-0.8-2,0-2.7C33.9,53.8,35.3,53.8,36.1,54.5z"/>
			<path class="st9" d="M22.9,54.5c0.8,0.8,0.9,1.8,0,2.7L16,64l6.9,6.7c0.9,0.9,0.8,2,0,2.7c-0.8,0.8-2.2,0.7-3,0
				c-0.8-0.7-8.3-8.1-8.3-8.1C11.2,65,11,64.5,11,64c0-0.5,0.2-1,0.6-1.4c0,0,7.5-7.4,8.3-8.1C20.7,53.8,22.1,53.8,22.9,54.5z"/>
		</g>
		<g>
			<path class="st9" d="M205.6,16.5c0.7,0.7,7.8,8.1,7.8,8.1c0.4,0.4,0.6,0.9,0.6,1.4c0,0.5-0.2,1-0.6,1.4c0,0-7.1,7.4-7.8,8.1
				c-0.7,0.7-2,0.8-2.8,0c-0.8-0.7-0.8-1.8,0-2.7l6.5-6.7l-6.5-6.7c-0.8-0.9-0.8-2,0-2.7C203.6,15.8,204.9,15.8,205.6,16.5z"/>
			<path class="st9" d="M193.2,16.5c0.8,0.8,0.8,1.8,0,2.7l-6.5,6.7l6.5,6.7c0.8,0.9,0.8,2,0,2.7c-0.8,0.8-2.1,0.7-2.8,0
				c-0.7-0.7-7.8-8.1-7.8-8.1c-0.4-0.4-0.6-0.9-0.6-1.4c0-0.5,0.2-1,0.6-1.4c0,0,7.1-7.4,7.8-8.1C191.1,15.8,192.4,15.8,193.2,16.5z
				"/>
		</g>
		<g>
			<path class="st9" d="M230.8,78.3c0.5,0.4,4.9,4.9,4.9,4.9c0.2,0.2,0.4,0.5,0.4,0.8c0,0.3-0.1,0.6-0.4,0.8c0,0-4.4,4.4-4.9,4.9
				c-0.5,0.4-1.3,0.5-1.8,0c-0.5-0.4-0.5-1.1,0-1.6l4.1-4l-4.1-4c-0.5-0.6-0.5-1.2,0-1.6C229.5,77.9,230.3,77.9,230.8,78.3z"/>
			<path class="st9" d="M223,78.3c0.5,0.5,0.5,1.1,0,1.6l-4.1,4l4.1,4c0.5,0.6,0.5,1.2,0,1.6c-0.5,0.5-1.3,0.4-1.8,0
				c-0.5-0.4-4.9-4.9-4.9-4.9c-0.2-0.2-0.4-0.5-0.4-0.8c0-0.3,0.1-0.6,0.4-0.8c0,0,4.4-4.4,4.9-4.9C221.7,77.9,222.5,77.9,223,78.3z
				"/>
		</g>
		<g>
			<path class="st9" d="M16.8,120.3c0.5,0.4,4.9,4.9,4.9,4.9c0.2,0.2,0.4,0.5,0.4,0.8c0,0.3-0.1,0.6-0.4,0.8c0,0-4.4,4.4-4.9,4.9
				c-0.5,0.4-1.3,0.5-1.8,0c-0.5-0.4-0.5-1.1,0-1.6l4.1-4l-4.1-4c-0.5-0.6-0.5-1.2,0-1.6C15.5,119.9,16.3,119.9,16.8,120.3z"/>
			<path class="st9" d="M9,120.3c0.5,0.5,0.5,1.1,0,1.6l-4.1,4l4.1,4c0.5,0.6,0.5,1.2,0,1.6c-0.5,0.5-1.3,0.4-1.8,0
				c-0.5-0.4-4.9-4.9-4.9-4.9C2.1,126.6,2,126.3,2,126c0-0.3,0.1-0.6,0.4-0.8c0,0,4.4-4.4,4.9-4.9C7.7,119.9,8.5,119.9,9,120.3z"/>
		</g>
		<g>
			<path class="st9" d="M136.6,51H135c-0.8,0-1.6-0.5-1.8-1.2l-1-2.3c-0.4-0.7-0.2-1.6,0.3-2.2l1.2-1.2c0.5-0.5,0.5-1.4,0-2l-2-2
				c-0.5-0.5-1.4-0.5-2,0l-1.2,1.2c-0.5,0.5-1.5,0.7-2.2,0.3l-2.2-1c-0.7-0.2-1.2-1-1.2-1.8v-1.7c0-0.8-0.9-1.4-1.6-1.4h-2.8
				c-0.8,0-1.6,0.6-1.6,1.4V39c0,0.8-0.5,1.6-1.2,1.8l-2.3,1c-0.7,0.4-1.6,0.2-2.2-0.3l-1.2-1.2c-0.5-0.5-1.4-0.5-1.9,0l-2,2
				c-0.5,0.5-0.5,1.4,0,2l1.2,1.2c0.5,0.5,0.7,1.5,0.3,2.2l-1,2.3c-0.2,0.7-1,1.3-1.8,1.3l-1.7,0c-0.8,0-1.4,0.6-1.4,1.4v2.8
				c0,0.8,0.6,1.6,1.4,1.6h1.7c0.8,0,1.6,0.5,1.8,1.2l1,2.3c0.4,0.7,0.2,1.6-0.3,2.2l-1.2,1.2c-0.5,0.5-0.5,1.4,0,2l2,2
				c0.5,0.5,1.4,0.5,2,0l1.2-1.2c0.5-0.5,1.5-0.7,2.2-0.3l2.2,1c0.7,0.2,1.2,1,1.2,1.8v1.7c0,0.8,0.9,1.4,1.6,1.4h2.8
				c0.8,0,1.6-0.6,1.6-1.4V69c0-0.8,0.5-1.6,1.2-1.8l2.3-1c0.7-0.4,1.6-0.2,2.2,0.3l1.2,1.2c0.5,0.5,1.4,0.5,1.9,0l2-2
				c0.5-0.5,0.5-1.4,0-2l-1.2-1.2c-0.5-0.5-0.7-1.5-0.3-2.2l1-2.2c0.2-0.7,1-1.2,1.8-1.2h1.7c0.8,0,1.4-0.9,1.4-1.6v-2.8
				C138,51.9,137.4,51,136.6,51z M120,60.9c-3.8,0-6.9-3.1-6.9-6.9c0-3.8,3.1-6.9,6.9-6.9c3.8,0,6.9,3.1,6.9,6.9
				C126.9,57.8,123.8,60.9,120,60.9z"/>
		</g>
		<g>
			<ellipse class="st16" cx="214" cy="124" rx="6.9" ry="6.9"/>
			<path class="st9" d="M230.6,121H229c-0.8,0-1.6-0.5-1.8-1.2l-1-2.3c-0.4-0.7-0.2-1.6,0.3-2.2l1.2-1.2c0.5-0.5,0.5-1.4,0-2l-2-2
				c-0.5-0.5-1.4-0.5-2,0l-1.2,1.2c-0.5,0.5-1.5,0.7-2.2,0.3l-2.2-1c-0.7-0.2-1.2-1-1.2-1.8v-1.7c0-0.8-0.9-1.4-1.6-1.4h-2.8
				c-0.8,0-1.6,0.6-1.6,1.4v1.7c0,0.8-0.5,1.6-1.2,1.8l-2.3,1c-0.7,0.4-1.6,0.2-2.2-0.3l-1.2-1.2c-0.5-0.5-1.4-0.5-1.9,0l-2,2
				c-0.5,0.5-0.5,1.4,0,2l1.2,1.2c0.5,0.5,0.7,1.5,0.3,2.2l-1,2.3c-0.2,0.7-1,1.3-1.8,1.3l-1.7,0c-0.8,0-1.4,0.6-1.4,1.4v2.8
				c0,0.8,0.6,1.6,1.4,1.6h1.7c0.8,0,1.6,0.5,1.8,1.2l1,2.3c0.4,0.7,0.2,1.6-0.3,2.2l-0.4,0.4h25.8l-0.4-0.4
				c-0.5-0.5-0.7-1.5-0.3-2.2l1-2.2c0.2-0.7,1-1.2,1.8-1.2h1.7c0.8,0,1.4-0.9,1.4-1.6v-2.8C232,121.9,231.4,121,230.6,121z
				 M214,130.9c-3.8,0-6.9-3.1-6.9-6.9c0-3.8,3.1-6.9,6.9-6.9c3.8,0,6.9,3.1,6.9,6.9C220.9,127.8,217.8,130.9,214,130.9z"/>
		</g>
		
			<rect x="67.9" y="29.9" transform="matrix(0.7071 -0.7071 0.7071 0.7071 -2.1249 58.8701)" class="st9" width="4.2" height="4.2"/>
		
			<rect x="145.9" y="11.9" transform="matrix(0.7071 -0.7071 0.7071 0.7071 33.4487 108.7523)" class="st9" width="4.2" height="4.2"/>
		
			<rect x="182.9" y="55.9" transform="matrix(0.7071 -0.7071 0.7071 0.7071 13.1731 147.8026)" class="st9" width="4.2" height="4.2"/>
	</g>
</g>
</svg>
