<?xml version="1.0" standalone="no"?>
<!DOCTYPE svg PUBLIC "-//W3C//DTD SVG 20010904//EN"
 "http://www.w3.org/TR/2001/REC-SVG-20010904/DTD/svg10.dtd">
<svg version="1.0" xmlns="http://www.w3.org/2000/svg"
 width="1024.000000pt" height="1024.000000pt" viewBox="0 0 1024.000000 1024.000000"
 preserveAspectRatio="xMidYMid meet">
<metadata>
Created by potrace 1.14, written by Peter Selinger 2001-2017
</metadata>
<g transform="translate(0.000000,1024.000000) scale(0.100000,-0.100000)"
fill="#000000" stroke="none">
<path d="M3070 9595 c-8 -2 -49 -9 -90 -16 -41 -7 -77 -13 -80 -14 -16 -4 -97
-26 -105 -29 -5 -2 -14 -5 -20 -6 -5 -1 -28 -11 -50 -23 -22 -11 -40 -19 -40
-19 0 1 -10 -1 -22 -4 -13 -4 -23 -10 -23 -15 0 -5 -7 -9 -16 -9 -9 0 -55 -26
-102 -57 -48 -32 -90 -59 -94 -61 -14 -6 -70 -57 -134 -121 -69 -69 -158 -182
-194 -246 -12 -22 -26 -44 -31 -49 -5 -6 -9 -17 -9 -25 0 -8 -6 -22 -13 -30
-13 -15 -44 -86 -53 -121 -2 -8 -15 -52 -29 -98 -24 -82 -37 -160 -39 -239 -1
-24 -5 -43 -9 -43 -4 0 -4 -8 2 -17 5 -10 5 -26 0 -40 -5 -13 -5 -23 -1 -23 4
0 8 -26 8 -58 2 -94 24 -215 52 -292 3 -8 6 -17 7 -20 16 -65 127 -292 155
-320 3 -3 18 -23 35 -45 16 -22 44 -56 61 -75 18 -19 43 -47 56 -61 74 -84
327 -260 361 -251 4 1 7 -2 7 -8 0 -5 7 -10 15 -10 8 0 23 -4 33 -9 14 -8 36
-17 62 -26 3 -1 12 -4 20 -7 93 -32 183 -52 295 -64 58 -6 53 -6 128 -2 31 2
57 0 57 -5 0 -4 6 -5 12 -1 7 5 31 9 53 11 110 9 373 81 383 106 2 4 9 7 16 7
18 0 66 24 66 33 0 4 6 7 13 7 12 0 161 98 206 135 96 81 230 240 285 337 49
88 74 138 70 138 -3 0 1 10 8 23 7 12 13 24 13 27 0 3 11 35 23 71 12 36 25
76 27 90 3 13 7 35 10 49 11 53 27 208 27 250 -2 138 -53 409 -84 445 -4 5 -8
15 -8 22 0 13 -42 102 -78 165 -103 180 -250 336 -415 441 -69 44 -189 106
-217 111 -3 1 -10 5 -17 9 -6 4 -40 16 -75 27 -57 17 -92 26 -183 45 -32 7
-310 15 -335 10z"/>
<path d="M6910 9595 c-23 -5 -165 -28 -167 -27 -2 0 -174 -59 -208 -72 -5 -2
-20 -7 -32 -11 -13 -4 -23 -11 -23 -16 0 -5 -7 -9 -16 -9 -9 0 -55 -26 -102
-57 -48 -32 -90 -59 -94 -61 -14 -6 -70 -57 -134 -121 -71 -71 -159 -183 -198
-253 -49 -88 -74 -138 -70 -138 3 0 -1 -10 -8 -22 -7 -13 -13 -25 -13 -28 0
-3 -11 -35 -23 -71 -12 -36 -25 -76 -27 -90 -3 -13 -7 -35 -10 -49 -13 -67
-27 -194 -27 -250 0 -35 13 -177 18 -200 3 -14 7 -38 9 -55 4 -30 39 -152 54
-190 45 -109 114 -241 153 -290 128 -165 198 -233 333 -325 79 -53 210 -121
270 -139 22 -7 49 -16 60 -21 66 -27 198 -51 295 -54 25 -1 51 -5 58 -10 6 -4
12 -3 12 1 0 10 41 10 58 -1 7 -4 12 -4 12 1 0 4 19 8 43 9 83 2 166 16 262
46 39 12 72 22 75 22 20 3 130 52 130 58 0 5 7 8 15 8 21 0 140 74 216 136
103 82 189 172 246 257 14 20 30 37 36 37 6 0 7 3 4 6 -4 4 2 19 12 33 18 25
107 200 107 211 1 3 11 35 23 71 12 36 24 76 26 90 3 13 7 35 10 49 13 62 18
109 19 162 1 32 3 58 6 58 3 0 4 15 3 32 -1 18 -2 33 -3 33 -1 0 -3 29 -5 65
-2 36 -6 79 -10 95 -3 17 -8 44 -10 60 -4 30 -39 152 -54 190 -79 193 -169
332 -298 461 -170 170 -392 292 -623 343 -25 5 -58 13 -75 16 -32 7 -310 15
-335 10z"/>
<path d="M1085 6385 c-127 -23 -199 -43 -268 -73 -26 -11 -47 -18 -47 -15 0 3
-8 -1 -17 -10 -10 -8 -20 -16 -23 -17 -31 -6 -50 -14 -50 -21 0 -5 -6 -9 -13
-9 -7 0 -46 -22 -86 -50 -40 -27 -74 -50 -76 -50 -6 0 -79 -66 -138 -125 -64
-65 -176 -209 -184 -237 -3 -10 -9 -18 -14 -18 -5 0 -8 -3 -7 -7 1 -5 -11 -33
-27 -63 -16 -30 -30 -57 -30 -60 -1 -3 -7 -18 -13 -33 -7 -16 -12 -30 -12 -32
0 -2 -5 -16 -12 -32 -6 -15 -13 -35 -14 -43 -5 -27 -12 -55 -15 -55 -1 0 -3
-9 -5 -20 -1 -11 -5 -31 -8 -45 -15 -65 -19 -115 -20 -240 -1 -129 6 -227 18
-260 5 -15 13 -48 23 -103 3 -15 9 -30 14 -33 5 -3 9 -14 9 -25 0 -11 24 -71
53 -132 92 -193 223 -355 382 -474 33 -24 68 -51 78 -59 9 -8 20 -14 24 -14 3
0 28 -13 55 -30 26 -16 55 -30 63 -30 8 0 15 -4 15 -10 0 -5 9 -10 19 -10 11
0 22 -4 25 -9 5 -7 111 -44 162 -56 11 -2 37 -9 59 -14 22 -5 54 -13 70 -16
49 -11 318 -13 381 -3 89 13 223 48 279 73 61 27 55 24 83 31 12 4 22 11 22
17 0 6 3 8 6 4 3 -3 28 8 55 24 28 16 54 29 59 29 4 0 10 4 12 8 2 4 25 23 53
42 158 111 299 275 392 456 47 93 101 238 108 291 2 12 5 26 8 30 7 12 20 118
21 170 1 24 4 43 8 43 4 0 3 11 -2 25 -6 15 -6 26 1 30 5 4 6 11 2 18 -4 6 -7
36 -8 67 -7 243 -123 528 -300 739 -75 88 -264 251 -292 251 -7 0 -13 3 -13 8
0 4 -10 12 -23 18 -12 6 -54 27 -93 47 -63 32 -161 68 -219 82 -11 2 -38 9
-60 14 -85 21 -105 23 -250 25 -89 2 -179 -2 -220 -9z"/>
<path d="M8760 6383 c-36 -7 -76 -14 -90 -16 -14 -2 -56 -14 -95 -27 -38 -13
-71 -23 -72 -22 -7 3 -249 -124 -263 -138 -3 -3 -23 -19 -45 -35 -88 -65 -163
-139 -239 -234 -62 -76 -136 -195 -136 -216 0 -8 -4 -15 -8 -15 -4 0 -13 -15
-21 -32 -22 -56 -61 -163 -61 -168 0 -3 -5 -21 -10 -40 -15 -57 -28 -132 -34
-197 -2 -22 -7 -46 -10 -52 -4 -6 -3 -11 1 -11 5 0 8 -15 6 -32 -4 -38 -4 -36
0 -108 8 -118 28 -225 55 -300 3 -8 6 -20 7 -26 2 -5 15 -39 30 -75 14 -35 29
-72 32 -81 3 -10 9 -18 14 -18 5 0 9 -7 9 -16 0 -8 14 -35 30 -59 17 -24 30
-48 30 -53 0 -6 3 -12 8 -14 4 -1 20 -21 36 -43 106 -143 270 -284 428 -367
24 -12 46 -21 51 -20 4 1 7 -2 7 -8 0 -5 7 -10 15 -10 8 0 23 -4 33 -9 37 -19
121 -49 157 -57 6 -1 33 -7 60 -14 140 -32 389 -35 525 -5 14 3 38 8 54 10 16
3 38 11 50 17 11 6 21 10 21 9 0 -6 65 14 112 36 28 12 57 23 62 23 6 0 11 4
11 8 0 5 6 9 13 9 19 1 146 81 218 139 68 54 156 139 197 190 66 81 182 271
183 301 1 5 6 17 12 28 6 11 12 22 12 25 0 3 11 35 23 71 12 36 25 76 27 90 3
13 7 35 10 49 16 78 19 118 19 245 1 140 -3 187 -24 280 -24 111 -54 194 -110
305 -38 75 -108 183 -121 188 -5 2 -9 8 -9 13 0 18 -165 191 -174 182 -3 -4
-6 -1 -6 5 0 14 -123 103 -192 139 -29 15 -55 30 -58 33 -14 15 -198 87 -240
94 -14 3 -26 5 -27 7 -4 2 -12 4 -63 13 -25 5 -54 11 -65 13 -45 11 -323 9
-385 -4z"/>
<path d="M3170 3200 c0 -3 -26 -5 -58 -6 -53 -1 -100 -6 -162 -19 -14 -3 -36
-7 -49 -10 -14 -2 -54 -14 -90 -26 -36 -12 -66 -21 -66 -20 0 5 -192 -92 -216
-110 -14 -10 -29 -16 -33 -12 -3 3 -6 2 -6 -4 0 -6 -17 -22 -37 -36 -86 -58
-176 -144 -257 -246 -62 -79 -136 -195 -136 -215 0 -8 -4 -16 -8 -18 -8 -3
-50 -96 -58 -127 -2 -9 -15 -53 -29 -99 -24 -82 -37 -160 -39 -239 -1 -24 -5
-43 -9 -43 -4 0 -4 -8 2 -17 5 -10 5 -26 0 -40 -5 -13 -5 -23 -1 -23 4 0 8
-26 8 -58 1 -49 9 -118 19 -172 2 -8 11 -42 20 -75 88 -314 276 -568 552 -748
24 -15 47 -27 52 -27 5 0 11 -3 13 -7 13 -31 282 -125 418 -146 88 -14 332
-17 385 -4 11 2 36 7 55 11 73 13 85 16 149 38 36 12 68 23 71 23 3 0 15 6 28
13 12 7 22 11 22 8 0 -4 50 21 138 70 98 55 258 190 337 285 58 70 161 235
157 252 -1 4 2 7 8 7 5 0 10 9 10 20 0 11 3 20 8 20 6 0 17 27 36 85 2 6 6 17
9 25 13 32 29 95 47 185 15 73 20 326 8 405 -13 87 -43 206 -69 268 -5 12 -13
32 -18 45 -34 87 -127 242 -193 321 -80 96 -194 197 -298 264 -54 34 -203 112
-224 117 -6 1 -18 5 -26 8 -32 13 -148 45 -181 51 -19 3 -47 8 -64 12 -16 3
-59 7 -95 9 -36 2 -65 4 -65 5 0 1 -15 2 -33 3 -17 1 -32 0 -32 -3z"/>
<path d="M6990 3203 c0 -4 -19 -8 -43 -9 -63 -1 -154 -13 -182 -24 -14 -5 -25
-7 -25 -5 0 3 -16 -1 -35 -9 -19 -8 -35 -13 -35 -10 0 2 -13 -2 -30 -11 -16
-8 -33 -16 -37 -16 -30 -5 -123 -43 -123 -51 0 -5 -8 -8 -18 -8 -10 0 -22 -4
-28 -9 -5 -5 -27 -19 -49 -31 -64 -36 -177 -125 -246 -194 -62 -62 -119 -125
-119 -131 0 -2 -22 -36 -50 -76 -27 -40 -50 -79 -50 -86 0 -7 -3 -13 -7 -13
-9 0 -33 -48 -33 -66 0 -7 -3 -14 -7 -16 -20 -8 -86 -235 -101 -346 -10 -72
-8 -327 3 -377 22 -103 27 -125 41 -170 9 -27 20 -60 25 -72 5 -13 13 -33 18
-45 37 -95 131 -249 203 -334 45 -53 120 -124 186 -178 69 -56 267 -172 312
-183 14 -3 30 -9 35 -13 20 -13 162 -50 250 -64 84 -13 329 -15 380 -3 11 2
36 7 55 11 73 13 85 16 149 38 36 12 68 23 71 23 3 0 15 6 28 13 12 7 22 11
22 8 0 -4 50 21 138 70 98 55 258 190 337 285 32 39 124 175 132 196 3 10 9
20 12 23 6 5 44 81 45 90 1 3 11 30 23 60 19 47 40 116 48 155 25 119 38 214
35 260 -2 27 -2 56 0 80 3 33 -13 152 -30 232 -24 108 -55 193 -111 303 -18
36 -48 89 -67 118 -60 94 -223 277 -236 265 -3 -4 -6 -1 -6 4 0 6 -24 28 -52
49 -29 21 -54 42 -56 46 -2 5 -8 8 -14 8 -5 0 -29 14 -53 30 -24 17 -51 30
-59 30 -9 0 -16 4 -16 9 0 5 -8 11 -17 14 -10 3 -47 18 -82 32 -124 52 -249
81 -390 90 -29 2 -55 6 -58 9 -3 2 -15 1 -27 -4 -13 -4 -29 -4 -39 1 -9 6 -17
6 -17 2z"/>
</g>
</svg>
