<?xml version="1.0" encoding="utf-8"?>
<!-- Generator: Adobe Illustrator 19.2.1, SVG Export Plug-In . SVG Version: 6.00 Build 0)  -->
<svg version="1.1" id="logo_-_color" xmlns="http://www.w3.org/2000/svg" xmlns:xlink="http://www.w3.org/1999/xlink" x="0px"
	 y="0px" viewBox="0 0 1400 1400" style="enable-background:new 0 0 1400 1400;" xml:space="preserve">
<style type="text/css">
	.st0{fill:#128669;}
	.st1{fill:#1D8DCD;}
	.st2{fill:#DF283F;}
</style>
<g>
	<g>
		<g>
			<path class="st0" d="M730.2,717.5c-8.4,4.8-18.6,10.6-22.7,12.9c-4.1,2.3-10.8,2.3-15,0c-4.1-2.3-14.3-8.2-22.7-12.9L504,622.7
				c-8.4-4.8-22-4.8-30.4,0l-120,68.6c-8.4,4.8-8.4,12.6,0,17.4l331.2,189.2c8.4,4.8,22,4.8,30.4,0l331.2-189.2
				c8.4-4.8,8.4-12.6,0-17.4l-120-68.6c-8.4-4.8-22-4.8-30.4,0L730.2,717.5z"/>
		</g>
		<g>
			<path class="st1" d="M730.2,958.9c-8.4,4.8-18.6,10.6-22.7,13s-10.8,2.4-15,0c-4.1-2.4-14.3-8.2-22.7-13L504,864.2
				c-8.4-4.8-22-4.8-30.4,0l-120,68.6c-8.4,4.8-8.4,12.6,0,17.4l331.2,189.2c8.4,4.8,22,4.8,30.4,0l331.2-189.2
				c8.4-4.8,8.4-12.6,0-17.4l-120-68.6c-8.4-4.8-22-4.8-30.4,0L730.2,958.9z"/>
		</g>
		<g>
			<path class="st2" d="M1046.4,467.3c8.4-4.8,8.4-12.6,0-17.4L715.2,260.7c-8.4-4.8-22-4.8-30.4,0L353.6,450
				c-8.4,4.8-8.4,12.6,0,17.4l331.2,189.3c8.4,4.8,22,4.8,30.4,0L1046.4,467.3z"/>
		</g>
	</g>
</g>
</svg>
