<?xml version="1.0" encoding="utf-8"?>
<!-- Generator: Adobe Illustrator 19.2.1, SVG Export Plug-In . SVG Version: 6.00 Build 0)  -->
<svg version="1.1" id="logo_-_color" xmlns="http://www.w3.org/2000/svg" xmlns:xlink="http://www.w3.org/1999/xlink" x="0px"
	 y="0px" viewBox="0 0 8626 1409" style="enable-background:new 0 0 8626 1409;" xml:space="preserve">
<style type="text/css">
	.st0{fill:#FFFFFF;}
</style>
<g>
	<g>
		<rect x="3002" y="656" class="st0" width="315" height="100"/>
		<path class="st0" d="M1746.5,760.6c-24.4-28.2-57.2-46.7-98.3-55.6c11.4-5.1,19.3-8.7,23.8-10.9c4.4-2.2,12.3-7.7,23.8-16.6
			c33.6-25.3,50.3-64,50.3-115.9c0-43.1-14.9-81.7-44.6-115.9c-16.5-18.4-41-32.8-73.6-43.6c-32.6-10.8-71.4-16.1-116.4-16.1H1253
			v664h290.7c91.2,0,155.2-20.6,191.9-61.8c31.7-35.5,47.5-76.3,47.5-122.6C1783.1,823.8,1770.9,788.8,1746.5,760.6z M1507.6,661
			H1365V489h143.5c41.2,0,71.6,7.2,91.2,21.1c19.6,13.9,29.4,36.7,29.4,68.3C1629.2,633.5,1588.7,661,1507.6,661z M1365,765h161.6
			c94.4,0,141.6,29.4,141.6,88.3c0,36.1-10.9,60.5-32.8,73.4c-21.8,13-53.4,19.3-94.5,19.3H1365V765z"/>
		<rect x="1947" y="386" class="st0" width="112" height="664"/>
		<path class="st0" d="M2808.1,461.4C2741,395.8,2658,363,2559.2,363c-98.8,0-181.8,32.8-248.9,98.3
			c-67.1,65.6-100.7,147.2-100.7,245.1s33.6,179.5,100.7,245.1c67.1,65.5,150.1,98.3,248.9,98.3c98.8,0,181.8-32.8,248.9-98.3
			c67.1-65.6,100.7-147.2,100.7-245.1S2875.3,526.9,2808.1,461.4z M2793.9,706.5c0,66.8-22.7,123.7-67.9,170.5
			c-45.3,46.9-100.9,70.3-166.7,70.3c-65.9,0-121.5-23.4-166.7-70.3c-45.3-46.9-67.9-103.7-67.9-170.5c0-66.8,22.6-123.6,67.9-170.5
			c45.3-46.9,100.8-70.3,166.7-70.3c65.9,0,121.4,23.4,166.7,70.3C2771.2,582.8,2793.9,639.6,2793.9,706.5z"/>
		<polyline class="st0" points="3930,386 3488,386 3488,1050 3600,1050 3600,776 3914,776 3914,673 3600,673 3600,490 3930,490 		
			"/>
		<path class="st0" d="M4617.9,461.4c-67.1-65.5-150.1-98.3-248.9-98.3c-98.8,0-181.8,32.8-248.9,98.3
			c-67.1,65.6-100.7,147.2-100.7,245.1s33.6,179.5,100.7,245.1c67.1,65.5,150.1,98.3,248.9,98.3s181.8-32.8,248.9-98.3
			c67.1-65.6,100.7-147.2,100.7-245.1S4685,526.9,4617.9,461.4z M4603.6,706.5c0,66.8-22.7,123.7-67.9,170.5
			c-45.3,46.9-100.9,70.3-166.7,70.3c-65.9,0-121.5-23.4-166.7-70.3c-45.3-46.9-67.9-103.7-67.9-170.5c0-66.8,22.6-123.6,67.9-170.5
			c45.3-46.9,100.8-70.3,166.7-70.3c65.9,0,121.4,23.4,166.7,70.3C4581,582.8,4603.6,639.6,4603.6,706.5z"/>
		<path class="st0" d="M5255.3,808.6c95.6-28.5,143.5-97.6,143.5-207.1c0-75.4-21.9-130.1-65.5-164.3
			C5289.5,403,5217,386,5115.6,386H4868v664h112V827h148l158.6,223h142.5L5255.3,808.6z M4980,487h143.2c60.2,0,102,8.3,125.4,24.5
			c23.4,16.1,35.1,46,35.1,89.4c0,43.4-11.4,75-34.2,94.6c-22.8,19.6-65.9,29.5-129.2,29.5H4980V487z"/>
		<polygon class="st0" points="6170.1,386 5969.7,803 5769.2,386 5594,386 5594,1050 5706,1050 5706,531.2 5937.4,992 6000.1,992 
			6232,531.2 6232,1050 6344,1050 6344,386 		"/>
		<path class="st0" d="M6868.4,386h-108.3l-292.6,664h119.7l64.6-151H6970l67.5,151H7161L6868.4,386z M6811.4,539.4l114,255.6h-227
			L6811.4,539.4z"/>
		<polygon class="st0" points="7232,386 7232,488 7433,488 7433,1050 7545,1050 7545,488 7747,488 7747,386 		"/>
		<path class="st0" d="M8318.5,723.1c-34.5-29.8-85.8-52.9-153.9-69.3c-68.1-16.5-112.6-31.8-133.5-46.1s-31.4-33.7-31.4-58.4
			c0-24.7,9.8-44.8,29.4-60.3c19.6-15.5,45.9-23.3,78.9-23.3c67.1,0,127.9,20.3,182.4,60.8l62.7-89.3
			c-72.2-50-153.3-75.1-243.2-75.1c-66.5,0-121,17.9-163.4,53.7c-42.4,35.8-63.6,83.1-63.6,142c0,58.9,19.6,103.2,58.9,133
			c19.6,15.8,42.1,28.7,67.4,38.5c25.3,9.8,62.4,20.6,111.1,32.3c48.8,11.7,83.1,24.7,103.1,39c20,14.2,29.9,34.2,29.9,59.8
			s-10.6,46.2-31.8,61.8c-21.2,15.5-49.9,23.3-86,23.3c-72.2,0-141.9-29.1-209-87.4l-70.3,84.6c80.4,71.6,172.6,107.3,276.4,107.3
			c70.9,0,128.3-18.1,171.9-54.2c43.7-36.1,65.6-83.1,65.6-141.1C8370.3,796.7,8353,752.9,8318.5,723.1z"/>
	</g>
	<g>
		<g>
			<path class="st0" d="M647.7,723.5c-8.4,4.8-18.6,10.6-22.7,12.9s-10.8,2.3-15,0s-14.3-8.2-22.7-12.9l-165.9-94.8
				c-8.4-4.8-22-4.8-30.4,0l-120,68.6c-8.4,4.8-8.4,12.6,0,17.4l331.2,189.2c8.4,4.8,22,4.8,30.4,0L964,714.7
				c8.4-4.8,8.4-12.6,0-17.4l-120-68.6c-8.4-4.8-22-4.8-30.4,0L647.7,723.5z"/>
		</g>
		<g>
			<path class="st0" d="M647.7,964.9c-8.4,4.8-18.6,10.6-22.7,13s-10.8,2.4-15,0s-14.3-8.2-22.7-13l-165.9-94.7
				c-8.4-4.8-22-4.8-30.4,0l-120,68.6c-8.4,4.8-8.4,12.6,0,17.4l331.2,189.2c8.4,4.8,22,4.8,30.4,0L964,956.1
				c8.4-4.8,8.4-12.6,0-17.4l-120-68.6c-8.4-4.8-22-4.8-30.4,0L647.7,964.9z"/>
		</g>
		<g>
			<path class="st0" d="M964,473.3c8.4-4.8,8.4-12.6,0-17.4L632.8,266.7c-8.4-4.8-22-4.8-30.4,0L271.2,456c-8.4,4.8-8.4,12.6,0,17.4
				l331.2,189.3c8.4,4.8,22,4.8,30.4,0L964,473.3z"/>
		</g>
	</g>
</g>
</svg>
