<?xml version="1.0" encoding="utf-8"?>
<!-- Generator: Adobe Illustrator 19.2.1, SVG Export Plug-In . SVG Version: 6.00 Build 0)  -->
<svg version="1.1" id="logo_-_color" xmlns="http://www.w3.org/2000/svg" xmlns:xlink="http://www.w3.org/1999/xlink" x="0px"
	 y="0px" viewBox="0 0 8105.4 885.9" style="enable-background:new 0 0 8105.4 885.9;" xml:space="preserve">
<style type="text/css">
	.st0{fill:#FFFFFF;}
</style>
<g>
	<g>
		<rect x="2737.3" y="392.9" class="st0" width="315" height="100"/>
		<path class="st0" d="M1481.8,497.5c-24.4-28.2-57.2-46.7-98.3-55.6c11.4-5.1,19.3-8.7,23.8-10.9c4.4-2.2,12.3-7.7,23.8-16.6
			c33.6-25.3,50.3-64,50.3-115.9c0-43.1-14.9-81.7-44.6-115.9c-16.5-18.4-41-32.8-73.6-43.6c-32.6-10.8-71.4-16.1-116.4-16.1H988.3
			v664H1279c91.2,0,155.2-20.6,191.9-61.8c31.7-35.5,47.5-76.3,47.5-122.6C1518.4,560.7,1506.2,525.7,1481.8,497.5z M1242.9,397.9
			h-142.6v-172h143.5c41.2,0,71.6,7.2,91.2,21.1c19.6,13.9,29.4,36.7,29.4,68.3C1364.5,370.4,1324,397.9,1242.9,397.9z
			 M1100.3,501.9h161.6c94.4,0,141.6,29.4,141.6,88.3c0,36.1-10.9,60.5-32.8,73.4c-21.8,13-53.4,19.3-94.5,19.3h-175.9V501.9z"/>
		<rect x="1682.3" y="122.9" class="st0" width="112" height="664"/>
		<path class="st0" d="M2543.4,198.3c-67.1-65.6-150.1-98.4-248.9-98.4s-181.8,32.8-248.9,98.3c-67.1,65.6-100.7,147.2-100.7,245.1
			s33.6,179.5,100.7,245.1c67.1,65.5,150.1,98.3,248.9,98.3c98.8,0,181.8-32.8,248.9-98.3c67.1-65.6,100.7-147.2,100.7-245.1
			S2610.6,263.8,2543.4,198.3z M2529.2,443.4c0,66.8-22.7,123.7-67.9,170.5c-45.3,46.9-100.9,70.3-166.7,70.3
			c-65.9,0-121.5-23.4-166.7-70.3c-45.3-46.9-67.9-103.7-67.9-170.5s22.6-123.6,67.9-170.5c45.3-46.9,100.8-70.3,166.7-70.3
			s121.4,23.4,166.7,70.3C2506.5,319.7,2529.2,376.5,2529.2,443.4z"/>
		<polyline class="st0" points="3665.3,122.9 3223.3,122.9 3223.3,786.9 3335.3,786.9 3335.3,512.9 3649.3,512.9 3649.3,409.9 
			3335.3,409.9 3335.3,226.9 3665.3,226.9 		"/>
		<path class="st0" d="M4353.2,198.3c-67.1-65.5-150.1-98.3-248.9-98.3c-98.8,0-181.8,32.8-248.9,98.3
			c-67.1,65.6-100.7,147.2-100.7,245.1s33.6,179.5,100.7,245.1c67.1,65.5,150.1,98.3,248.9,98.3c98.8,0,181.8-32.8,248.9-98.3
			c67.1-65.6,100.7-147.2,100.7-245.1S4420.3,263.8,4353.2,198.3z M4338.9,443.4c0,66.8-22.7,123.7-67.9,170.5
			c-45.3,46.9-100.9,70.3-166.7,70.3c-65.9,0-121.5-23.4-166.7-70.3c-45.3-46.9-67.9-103.7-67.9-170.5s22.6-123.6,67.9-170.5
			s100.8-70.3,166.7-70.3c65.9,0,121.4,23.4,166.7,70.3C4316.3,319.7,4338.9,376.5,4338.9,443.4z"/>
		<path class="st0" d="M4990.6,545.5c95.6-28.5,143.5-97.6,143.5-207.1c0-75.4-21.9-130.1-65.5-164.3
			c-43.8-34.2-116.3-51.2-217.7-51.2h-247.6v664h112v-223h148l158.6,223h142.5L4990.6,545.5z M4715.3,223.9h143.2
			c60.2,0,102,8.3,125.4,24.5c23.4,16.1,35.1,46,35.1,89.4s-11.4,75-34.2,94.6c-22.8,19.6-65.9,29.5-129.2,29.5h-140.3V223.9z"/>
		<polygon class="st0" points="5905.4,122.9 5705,539.9 5504.5,122.9 5329.3,122.9 5329.3,786.9 5441.3,786.9 5441.3,268.1 
			5672.7,728.9 5735.4,728.9 5967.3,268.1 5967.3,786.9 6079.3,786.9 6079.3,122.9 		"/>
		<path class="st0" d="M6603.7,122.9h-108.3l-292.6,664h119.7l64.6-151h318.2l67.5,151h123.5L6603.7,122.9z M6546.7,276.3l114,255.6
			h-227L6546.7,276.3z"/>
		<polygon class="st0" points="6967.3,122.9 6967.3,224.9 7168.3,224.9 7168.3,786.9 7280.3,786.9 7280.3,224.9 7482.3,224.9 
			7482.3,122.9 		"/>
		<path class="st0" d="M8053.8,460c-34.5-29.8-85.8-52.9-153.9-69.3c-68.1-16.5-112.6-31.8-133.5-46.1s-31.4-33.7-31.4-58.4
			s9.8-44.8,29.4-60.3s45.9-23.3,78.9-23.3c67.1,0,127.9,20.3,182.4,60.8l62.7-89.3c-72.2-50-153.3-75.1-243.2-75.1
			c-66.5,0-121,17.9-163.4,53.7s-63.6,83.1-63.6,142s19.6,103.2,58.9,133c19.6,15.8,42.1,28.7,67.4,38.5s62.4,20.6,111.1,32.3
			c48.8,11.7,83.1,24.7,103.1,39c20,14.2,29.9,34.2,29.9,59.8s-10.6,46.2-31.8,61.8c-21.2,15.5-49.9,23.3-86,23.3
			c-72.2,0-141.9-29.1-209-87.4l-70.3,84.6c80.4,71.6,172.6,107.3,276.4,107.3c70.9,0,128.3-18.1,171.9-54.2
			c43.7-36.1,65.6-83.1,65.6-141.1C8105.6,533.6,8088.3,489.8,8053.8,460z"/>
	</g>
	<g>
		<g>
			<path class="st0" d="M383,460.4c-8.4,4.8-18.6,10.6-22.7,12.9s-10.8,2.3-15,0s-14.3-8.2-22.7-12.9l-165.9-94.8
				c-8.4-4.8-22-4.8-30.4,0l-120,68.6c-8.4,4.8-8.4,12.6,0,17.4l331.2,189.2c8.4,4.8,22,4.8,30.4,0l331.4-189.2
				c8.4-4.8,8.4-12.6,0-17.4l-120-68.6c-8.4-4.8-22-4.8-30.4,0L383,460.4z"/>
		</g>
		<g>
			<path class="st0" d="M383,701.8c-8.4,4.8-18.6,10.6-22.7,13s-10.8,2.4-15,0s-14.3-8.2-22.7-13l-165.9-94.7
				c-8.4-4.8-22-4.8-30.4,0l-120,68.6c-8.4,4.8-8.4,12.6,0,17.4l331.2,189.2c8.4,4.8,22,4.8,30.4,0L699.3,693
				c8.4-4.8,8.4-12.6,0-17.4l-120-68.6c-8.4-4.8-22-4.8-30.4,0L383,701.8z"/>
		</g>
		<g>
			<path class="st0" d="M699.3,210.2c8.4-4.8,8.4-12.6,0-17.4L368.1,3.6c-8.4-4.8-22-4.8-30.4,0L6.5,192.9c-8.4,4.8-8.4,12.6,0,17.4
				l331.2,189.3c8.4,4.8,22,4.8,30.4,0L699.3,210.2z"/>
		</g>
	</g>
</g>
</svg>
