<?xml version="1.0" encoding="utf-8"?>
<!-- Generator: Adobe Illustrator 19.2.1, SVG Export Plug-In . SVG Version: 6.00 Build 0)  -->
<svg version="1.0" id="Layer_1" xmlns="http://www.w3.org/2000/svg" xmlns:xlink="http://www.w3.org/1999/xlink" x="0px" y="0px"
	 viewBox="0 0 850 250" style="enable-background:new 0 0 850 250;" xml:space="preserve">
<style type="text/css">
	.st0{fill:none;}
	.st1{fill:#2980B9;}
	.st2{fill:#1F4579;}
	.st3{fill:#33ABA2;}
	.st4{fill:#1F7777;}
</style>
<g>
	<g>
		<path class="st0" d="M172.2,46.6c-0.4,0-0.7,0.3-1,0.8l-13.8,24l29.7,51.4c0.4,0.6,0.5,1.4,0.5,2.3s-0.2,1.7-0.5,2.3l-29.7,51.4
			l13.8,24c0.3,0.5,0.7,0.8,1,0.8s0.7-0.3,1-0.8l43.7-75.6c0.3-0.5,0.5-1.3,0.5-2s-0.2-1.5-0.5-2l-43.7-75.6
			C172.9,46.8,172.6,46.6,172.2,46.6z"/>
		<path class="st0" d="M156.3,125c0-0.8-0.2-1.5-0.5-2l-14.2-24.5L127.5,123c-0.3,0.5-0.5,1.3-0.5,2s0.2,1.5,0.5,2l14.2,24.5
			l14.2-24.5C156.1,126.5,156.3,125.8,156.3,125z"/>
		<path class="st0" d="M126,71.3l-13.8-24c-0.3-0.5-0.7-0.8-1-0.8s-0.7,0.3-1,0.8L66.4,123c-0.3,0.5-0.5,1.3-0.5,2s0.2,1.5,0.5,2
			l43.7,75.6c0.3,0.5,0.7,0.8,1,0.8s0.7-0.3,1-0.8l13.8-24l-29.7-51.4c-0.4-0.6-0.5-1.4-0.5-2.3s0.2-1.7,0.5-2.3L126,71.3z"/>
		<path class="st1" d="M112.1,202.7l-16.2,28.5c0.7,0.4,1.5,0.7,2.3,0.7H124c1.5,0,3.2-1,4-2.3l13.7-23.7L126,178.7L112.1,202.7z"/>
		<path class="st1" d="M187.5,125h-31.3c0,0.8-0.2,1.5-0.5,2l-14.2,24.5l15.7,27.2l29.7-51.4C187.3,126.7,187.5,125.9,187.5,125z"/>
		<path class="st2" d="M111.1,203.4c-0.4,0-0.7-0.3-1-0.8L66.4,127c-0.3-0.5-0.5-1.3-0.5-2H34.6c0,0.9,0.2,1.7,0.5,2.3l59.1,102.3
			c0.4,0.6,1,1.2,1.7,1.6l16.2-28.5C111.8,203.2,111.5,203.4,111.1,203.4z"/>
		<path class="st3" d="M66.4,123L110,47.3c0.3-0.5,0.7-0.8,1-0.8s0.7,0.3,1,0.8L95.7,19c-0.6,0.4-1.2,0.9-1.5,1.5L35.2,122.7
			c-0.4,0.6-0.5,1.4-0.5,2.3h31.3C65.9,124.2,66.1,123.5,66.4,123z"/>
		<path class="st2" d="M172.2,203.4c-0.4,0-0.7-0.3-1-0.8l-13.8-24l-15.7-27.2L127.5,127c-0.3-0.5-0.5-1.3-0.5-2H95.7
			c0,0.9,0.2,1.7,0.5,2.3l29.7,51.4l15.7,27.2l13.7,23.7c0.4,0.6,1,1.2,1.7,1.6l16.2-28.5C172.9,203.2,172.6,203.4,172.2,203.4z"/>
		<path class="st1" d="M216.9,127l-43.7,75.6L157,231.2c0.7,0.4,1.5,0.7,2.3,0.7h25.8c1.5,0,3.2-1,4-2.3l59.1-102.3
			c0.4-0.6,0.5-1.4,0.5-2.3h-31.3C217.3,125.8,217.2,126.5,216.9,127z"/>
		<path class="st4" d="M189,20.4c-0.7-1.3-2.5-2.3-4-2.3h-25.8c-0.8,0-1.7,0.3-2.5,0.8l16.4,28.4l43.7,75.6c0.3,0.5,0.5,1.3,0.5,2
			h31.3c0-0.9-0.2-1.7-0.5-2.3L189,20.4z"/>
		<path class="st3" d="M171.1,47.3c0.3-0.5,0.7-0.8,1-0.8s0.7,0.3,1,0.8L156.8,19c-0.6,0.4-1.2,0.9-1.5,1.5l-13.7,23.7l15.7,27.2
			L171.1,47.3z"/>
		<path class="st3" d="M141.6,98.4L126,71.3l-29.7,51.4c-0.4,0.6-0.5,1.4-0.5,2.3H127c0-0.8,0.2-1.5,0.5-2L141.6,98.4z"/>
		<path class="st4" d="M126,71.3l15.7,27.2l14.2,24.5c0.3,0.5,0.5,1.3,0.5,2h31.3c0-0.9-0.2-1.7-0.5-2.3l-29.7-51.4l-15.7-27.2
			l-13.7-23.7c-0.7-1.3-2.5-2.3-4-2.3H98.2c-0.8,0-1.7,0.3-2.5,0.8l16.4,28.4L126,71.3z"/>
	</g>
	<g>
		<path class="st2" d="M368.4,57.2c-1.1-2-2.5-3.7-4.3-5.2c-1.8-1.5-4-2.7-6.7-3.6c-2.6-0.9-5.8-1.6-9.3-2.1
			c-3.6-0.4-7.7-0.7-12.5-0.7h-25.1c-5.8,0-10.7,0.4-14.7,1.1c-4,0.7-7.4,1.8-10.1,3.3c-2.7,1.5-4.8,3.4-6.3,5.8
			c-1.5,2.3-2.5,4.9-3.2,8c-0.6,3-1,6.3-1.1,10c-0.1,3.6-0.1,7.7-0.1,12.1c0,4.4,0,8.5,0.1,12.1c0.1,3.7,0.5,7.1,1.1,10
			c0.7,3,1.7,5.7,3.2,8c1.5,2.3,3.6,4.3,6.3,5.8c2.6,1.5,6,2.6,10.1,3.3c4,0.7,8.9,1.1,14.7,1.1h25.1c4.7,0,8.9-0.2,12.5-0.7
			c3.6-0.4,6.7-1.2,9.4-2.1c2.7-1,4.9-2.2,6.7-3.8c1.8-1.5,3.2-3.4,4.3-5.5c1-2.1,1.8-4.5,2.2-7.1c0.4-2.6,0.6-5.5,0.6-8.7V84.7
			h-49.5V95h37.6v3.4c0,2.5-0.1,4.8-0.3,6.7c-0.2,1.8-0.6,3.3-1.2,4.6c-0.5,1.2-1.3,2.2-2.3,3c-1,0.8-2.4,1.4-4,1.9
			c-1.8,0.5-4,0.8-6.5,1c-2.6,0.2-5.7,0.3-9.3,0.3h-25.1c-4.1,0-7.6-0.1-10.4-0.4c-2.7-0.2-5-0.7-6.7-1.4c-1.6-0.7-2.9-1.6-3.7-2.8
			c-0.9-1.2-1.5-3-2-5.1c-0.4-2.2-0.7-5-0.8-8.3c-0.1-3.3-0.1-7.4-0.1-12.1c0-4.7,0-8.7,0.1-12.1c0.1-3.3,0.3-6.1,0.8-8.3
			c0.4-2.1,1.1-3.8,2-5.1c0.9-1.2,2.1-2.1,3.8-2.8c1.7-0.7,4-1.2,6.7-1.4c2.8-0.2,6.3-0.4,10.4-0.4h25.1c4.6,0,8.6,0.2,11.7,0.5
			c3,0.3,5.4,1,7.2,2.1c1.7,1,2.9,2.5,3.7,4.5c0.8,2.1,1.2,5.1,1.2,8.8v1.2h11.9v-1.2c0-2.9-0.2-5.6-0.6-8
			C370.2,61.4,369.5,59.2,368.4,57.2z"/>
		<rect x="389.3" y="47.2" class="st2" width="11.9" height="77.5"/>
		<path class="st2" d="M483.6,79c-0.9-2-2.1-4-3.6-5.8c-1.5-1.9-3.6-3.5-6-4.8c-2.4-1.3-5.4-2.3-8.7-3c-3.3-0.7-7.3-1-11.8-1
			c-6.3,0-11.8,0.5-16.2,1.4c-4.5,1-8.3,2.8-11.2,5.3c-2.9,2.5-5,5.9-6.3,10.2c-1.3,4.1-1.9,9.4-1.9,15.6c0,5.5,0.6,10.1,1.9,13.8
			c1.3,3.8,3.5,6.8,6.4,9.1c2.9,2.2,6.6,3.8,11.2,4.7c4.4,0.9,9.9,1.3,16.2,1.3c5.9,0,10.9-0.3,15-0.9c4.1-0.6,7.5-1.6,10.1-3
			c2.7-1.4,4.6-3.4,5.8-5.7c1.1-2.3,1.7-5.1,1.7-8.3v-1.2H474v1.2c0,1.6-0.3,2.9-0.8,3.9c-0.5,0.9-1.5,1.6-2.9,2.2
			c-1.5,0.6-3.7,1-6.4,1.2c-2.8,0.2-6.3,0.3-10.6,0.3c-4.6,0-8.6-0.2-11.7-0.5c-3-0.3-5.4-1-7.2-2.2c-1.7-1.1-2.9-2.8-3.7-5.2
			c-0.7-2.3-1.1-5.2-1.2-8.7h56.2l0.1-4.2v-0.2c0-2.9-0.2-5.8-0.5-8.4C485.1,83.5,484.5,81,483.6,79z M429.7,90.2
			c0-2.3,0.2-4.2,0.5-5.9c0.3-1.8,0.9-3.3,1.5-4.2c0.7-1,1.6-1.9,2.8-2.6c1.2-0.8,2.6-1.3,4.3-1.7c1.8-0.4,3.8-0.7,6.2-0.8
			c2.4-0.1,5.2-0.2,8.3-0.2c3.8,0,7.1,0.3,9.8,0.8c2.6,0.5,4.7,1.4,6.2,2.6c1.6,1.3,2.7,2.9,3.5,4.8c0.7,1.8,1,4.2,1.1,7.3H429.7z"
			/>
		<path class="st2" d="M567.3,77.3c-0.7-2.1-1.8-4-3.2-5.6c-1.4-1.6-3.2-3-5.5-4.1c-2.2-1.1-4.9-1.9-8-2.4c-3.1-0.5-6.8-0.8-11-0.8
			c-1.4,0-3.1,0.1-4.8,0.1c-1.8,0.1-3.6,0.3-5.5,0.6c-1.9,0.3-3.8,0.7-5.7,1.2c-1.9,0.5-3.8,1.2-5.4,2.1c-1.7,0.9-3.2,1.9-4.6,3.1
			c-0.3,0.3-0.6,0.5-0.8,0.8V66h-11.9v58.8h11.9V89.1c0-2.2,0.3-4.2,1-6c0.6-1.7,1.8-3.1,3.4-4.4c1.7-1.3,4.1-2.3,7.2-3
			c3.1-0.7,7.2-1.1,12.2-1.1c4.6,0,8.3,0.3,11.1,0.9c2.6,0.6,4.7,1.6,6.1,2.9c1.4,1.3,2.3,3,2.8,5.1c0.5,2.3,0.8,5.2,0.8,8.5v32.5
			H569l0.1-32.5c0-2.9-0.1-5.6-0.3-8.1C568.5,81.7,568,79.3,567.3,77.3z"/>
		<path class="st2" d="M643.9,69.2c-2.5-1.7-5.9-2.9-10-3.7c-4.1-0.8-9.4-1.2-15.7-1.2c-4.7,0-8.9,0.2-12.4,0.6
			c-3.6,0.4-6.7,1.1-9.4,2c-2.7,1-5,2.2-6.7,3.8c-1.8,1.6-3.3,3.6-4.3,5.9c-1,2.3-1.8,5-2.2,8.1c-0.4,3-0.6,6.5-0.6,10.4
			c0,3.9,0.2,7.3,0.6,10.3c0.4,3,1.1,5.7,2.2,8c1.1,2.3,2.5,4.3,4.3,5.9c1.8,1.6,4.1,2.9,6.8,3.8c2.6,0.9,5.8,1.6,9.4,2
			c3.6,0.4,7.7,0.6,12.4,0.6c6.3,0,11.6-0.4,15.7-1.2c4.2-0.8,7.6-2.1,10-3.8c2.6-1.8,4.4-4,5.4-6.8c1-2.6,1.4-5.8,1.4-9.3v-1.2
			h-11.9v1.2c0,1.2,0,2.4-0.1,3.4c-0.1,0.9-0.3,1.8-0.6,2.5c-0.3,0.7-0.8,1.3-1.6,1.9c-0.8,0.6-1.9,1.1-3.3,1.5
			c-1.5,0.4-3.6,0.8-6,1c-2.4,0.2-5.5,0.4-9.1,0.4c-4.1,0-7.6-0.1-10.4-0.4c-2.7-0.3-5-0.7-6.8-1.4c-1.7-0.6-2.9-1.4-3.8-2.3
			c-0.9-0.9-1.5-2.1-1.9-3.5c-0.4-1.5-0.7-3.3-0.8-5.3c-0.1-2.1-0.1-4.6-0.1-7.3c0-2.8,0-5.3,0.1-7.5c0.1-2.1,0.3-3.9,0.8-5.4
			c0.4-1.4,1-2.6,1.9-3.6c0.9-1,2.1-1.7,3.8-2.3c1.8-0.6,4-1.1,6.8-1.4c2.8-0.3,6.3-0.4,10.4-0.4c3.6,0,6.7,0.1,9.1,0.3
			c2.4,0.2,4.4,0.6,6,1c1.5,0.4,2.6,0.9,3.3,1.5c0.7,0.5,1.2,1.2,1.6,1.8c0.3,0.7,0.5,1.5,0.6,2.4c0.1,1,0.1,2.1,0.1,3.3v1.2h11.9
			v-1.2c0-3.5-0.5-6.6-1.4-9.1C648.2,73.2,646.4,71,643.9,69.2z"/>
		<path class="st2" d="M727.1,70.6c-2.9-2.3-6.6-4-11.2-4.9c-4.4-0.9-9.9-1.4-16.2-1.4c-6.3,0-11.7,0.5-16.2,1.4
			c-4.5,0.9-8.3,2.6-11.2,4.9c-2.9,2.3-5.1,5.5-6.4,9.5c-1.3,3.9-1.9,8.8-1.9,14.6c0,5.9,0.6,10.9,1.9,14.9c1.3,4.1,3.4,7.3,6.3,9.7
			c2.9,2.4,6.6,4.1,11.2,5.1c4.4,0.9,9.9,1.4,16.2,1.4c6.3,0,11.8-0.5,16.2-1.4c4.5-1,8.3-2.7,11.2-5.1c2.9-2.4,5-5.7,6.3-9.7
			c1.3-3.9,1.9-8.9,1.9-14.9c0-5.8-0.6-10.7-1.9-14.6C732.1,76.2,730,73,727.1,70.6z M722.9,103.2c-0.4,2.3-0.9,4.2-1.6,5.7
			c-0.7,1.4-1.6,2.6-2.8,3.4c-1.2,0.9-2.6,1.5-4.3,2c-1.7,0.5-3.8,0.8-6.2,0.9c-2.4,0.1-5.2,0.2-8.3,0.2c-3.6,0-6.7-0.1-9.3-0.3
			c-2.5-0.2-4.7-0.6-6.5-1.2c-1.7-0.6-3-1.3-4-2.2c-1-0.9-1.8-2.1-2.3-3.5c-0.6-1.5-1-3.4-1.2-5.6c-0.2-2.2-0.3-4.9-0.3-7.9
			c0-3.2,0.2-6,0.5-8.3c0.4-2.2,0.9-4,1.6-5.5c0.7-1.4,1.6-2.5,2.8-3.3c1.2-0.8,2.6-1.5,4.3-1.9c1.8-0.4,3.8-0.7,6.2-0.9
			c2.4-0.1,5.2-0.2,8.3-0.2c3.1,0,5.9,0.1,8.3,0.2c2.4,0.1,4.5,0.4,6.2,0.9c1.7,0.4,3.1,1.1,4.3,1.9c1.1,0.8,2.1,1.9,2.8,3.3
			c0.7,1.5,1.3,3.3,1.6,5.5c0.4,2.3,0.5,5,0.5,8.3C723.5,98,723.3,100.9,722.9,103.2z"/>
		<path class="st2" d="M815.4,94.7v-0.2c0-2.9-0.2-5.8-0.5-8.4c-0.3-2.7-0.9-5.1-1.8-7.2c-0.9-2-2.1-4-3.6-5.8
			c-1.5-1.9-3.6-3.5-6-4.8c-2.4-1.3-5.4-2.3-8.7-3c-3.3-0.7-7.3-1-11.8-1c-6.3,0-11.8,0.5-16.2,1.4c-4.5,1-8.3,2.8-11.2,5.3
			c-2.9,2.5-5,5.9-6.3,10.2c-1.3,4.1-1.9,9.4-1.9,15.6c0,5.5,0.6,10.1,1.9,13.8c1.3,3.8,3.5,6.8,6.4,9.1c2.9,2.2,6.6,3.8,11.2,4.7
			c4.4,0.9,9.9,1.3,16.2,1.3c5.9,0,10.9-0.3,15-0.9c4.1-0.6,7.5-1.6,10.1-3c2.7-1.4,4.6-3.4,5.8-5.7c1.1-2.3,1.7-5.1,1.7-8.3v-1.2
			h-11.9v1.2c0,1.6-0.3,2.9-0.8,3.9c-0.5,0.9-1.5,1.6-2.9,2.2c-1.5,0.6-3.7,1-6.4,1.2c-2.8,0.2-6.3,0.3-10.6,0.3
			c-4.6,0-8.6-0.2-11.7-0.5c-3-0.3-5.4-1-7.2-2.2c-1.7-1.1-2.9-2.8-3.7-5.2c-0.7-2.3-1.1-5.2-1.2-8.7h56.2L815.4,94.7z M759.1,90.2
			c0-2.3,0.2-4.2,0.5-5.9c0.3-1.8,0.9-3.3,1.5-4.2c0.7-1,1.6-1.9,2.8-2.6c1.2-0.8,2.6-1.3,4.3-1.7c1.8-0.4,3.8-0.7,6.2-0.8
			c2.4-0.1,5.2-0.2,8.3-0.2c3.8,0,7.1,0.3,9.8,0.8c2.6,0.5,4.7,1.4,6.2,2.6c1.6,1.3,2.7,2.9,3.5,4.8c0.7,1.8,1,4.2,1.1,7.3H759.1z"
			/>
	</g>
	<path class="st3" d="M322.9,156c-0.5-0.7-1.2-1.4-2-1.9c-0.8-0.5-1.7-0.9-2.9-1.2c-1.1-0.3-2.4-0.5-3.9-0.7c-1.4-0.1-3.1-0.2-5-0.2
		h-3.8c-2.3,0-4.4,0.1-6.1,0.3c-1.8,0.2-3.3,0.4-4.6,0.8c-1.3,0.4-2.4,0.8-3.3,1.4c-0.9,0.6-1.6,1.3-2.2,2c-0.5,0.8-0.9,1.6-1.1,2.6
		c-0.2,0.9-0.3,1.8-0.3,2.8c0,0.9,0.1,1.8,0.2,2.6c0.1,0.9,0.4,1.7,0.8,2.5c0.4,0.8,1.1,1.5,1.9,2c0.8,0.6,1.8,1,3,1.4
		c1.2,0.3,2.6,0.6,4.3,0.8c1.7,0.2,3.7,0.3,6,0.3h5.2c2,0,3.7,0.1,4.9,0.3c1.1,0.2,2,0.4,2.5,0.7c0.5,0.3,0.7,0.6,0.9,1
		c0.2,0.6,0.3,1.3,0.3,2.3c0,0.9-0.1,1.6-0.4,2.2c-0.2,0.5-0.7,0.9-1.3,1.2c-0.7,0.4-1.8,0.7-3,0.9c-1.4,0.2-3.2,0.3-5.3,0.3h-5
		c-1.8,0-3.4,0-4.6-0.1c-1.1-0.1-2-0.3-2.7-0.5c-0.5-0.2-0.9-0.5-1.1-0.9c-0.2-0.3-0.4-1-0.4-2.2V175h-6.2v1.2c0,1,0.1,2,0.3,2.8
		c0.2,0.9,0.5,1.8,1,2.5c0.5,0.7,1.1,1.4,1.9,1.9c0.8,0.5,1.7,1,2.9,1.3c1.1,0.3,2.4,0.5,3.9,0.7c1.4,0.1,3.1,0.2,5,0.2h5
		c2.1,0,4-0.1,5.6-0.3c1.6-0.2,3.1-0.5,4.2-0.9c1.2-0.4,2.3-0.9,3.1-1.5c0.8-0.6,1.5-1.3,2-2.1c0.5-0.8,0.8-1.7,1-2.6
		c0.2-0.9,0.3-1.8,0.3-2.8c0-1-0.1-1.9-0.2-2.7c-0.1-0.9-0.4-1.8-0.8-2.5c-0.4-0.8-1-1.5-1.7-2.1c-0.7-0.6-1.7-1.1-2.8-1.5
		c-1.1-0.4-2.4-0.6-4-0.8c-1.5-0.2-3.3-0.3-5.4-0.3h-5.2c-1.6,0-3.1,0-4.2-0.1c-1.1-0.1-2.1-0.2-2.9-0.3c-0.7-0.1-1.3-0.3-1.7-0.5
		c-0.3-0.2-0.6-0.4-0.7-0.6c-0.2-0.2-0.3-0.5-0.3-0.8c-0.1-0.4-0.1-0.9-0.1-1.5c0-0.8,0.1-1.5,0.4-2.1c0.2-0.4,0.7-0.8,1.4-1.1
		c0.8-0.4,2-0.6,3.5-0.8c1.6-0.2,3.6-0.3,6-0.3h3.8c1.8,0,3.4,0,4.6,0.1c1.1,0.1,2,0.3,2.7,0.5c0.5,0.2,0.9,0.5,1.1,0.9
		c0.2,0.3,0.4,1,0.4,2.2v1.2h6.2v-1.2c0-1-0.1-2-0.3-2.8C323.7,157.5,323.4,156.7,322.9,156z"/>
	<path class="st3" d="M392.6,159.7c-0.3-1.3-0.7-2.5-1.4-3.4c-0.7-1-1.6-1.9-2.8-2.6c-1.1-0.6-2.6-1.1-4.3-1.4
		c-1.6-0.3-3.7-0.4-6-0.4h-11.3c-2.4,0-4.4,0.1-6,0.4c-1.7,0.3-3.1,0.8-4.3,1.4c-1.2,0.7-2.1,1.5-2.8,2.6c-0.6,1-1.1,2.1-1.4,3.4
		c-0.3,1.2-0.4,2.6-0.5,4.2c0,1.5-0.1,3.1-0.1,4.9c0,1.8,0,3.4,0.1,4.9c0,1.5,0.2,2.9,0.5,4.2c0.3,1.3,0.7,2.5,1.4,3.4
		c0.7,1,1.6,1.9,2.8,2.6c1.1,0.6,2.6,1.1,4.3,1.4c1.6,0.3,3.7,0.4,6,0.4h11.3c2.4,0,4.4-0.1,6-0.4c1.7-0.3,3.1-0.8,4.3-1.4
		c1.2-0.7,2.1-1.5,2.8-2.6c0.6-1,1.1-2.1,1.4-3.4c0.3-1.2,0.4-2.6,0.5-4.2c0-1.5,0.1-3.1,0.1-4.9c0-1.8,0-3.4-0.1-4.9
		C393,162.4,392.8,161,392.6,159.7z M378.1,180h-11.3c-1.6,0-3,0-4.1-0.1c-1-0.1-1.8-0.3-2.5-0.5c-0.5-0.2-0.9-0.5-1.2-0.9
		c-0.3-0.4-0.5-1-0.7-1.7c-0.2-0.9-0.3-1.9-0.3-3.2c0-1.3,0-2.9,0-4.8c0-1.9,0-3.5,0-4.8c0-1.3,0.1-2.3,0.3-3.2
		c0.1-0.7,0.4-1.3,0.7-1.7c0.3-0.4,0.6-0.6,1.2-0.9c0.6-0.3,1.5-0.4,2.5-0.5c1.1-0.1,2.5-0.1,4.1-0.1h11.3c1.6,0,3,0,4.1,0.1
		c1,0.1,1.8,0.3,2.4,0.5c0.5,0.2,0.9,0.5,1.2,0.9c0.3,0.4,0.5,1,0.7,1.7c0.2,0.9,0.3,1.9,0.3,3.2c0,1.3,0,3,0,4.8s0,3.5,0,4.8
		c0,1.3-0.1,2.3-0.3,3.2c-0.1,0.7-0.4,1.3-0.7,1.7c-0.3,0.4-0.6,0.6-1.2,0.9c-0.6,0.3-1.5,0.4-2.5,0.5
		C381.1,180,379.7,180,378.1,180z"/>
	<polygon class="st3" points="422,185 428.3,185 428.3,171.3 452,171.3 452,165.6 428.3,165.6 428.3,158.1 453.3,158.1 453.3,152.5 
		422,152.5 	"/>
	<polygon class="st3" points="479.7,158.1 494.7,158.1 494.7,185 501,185 501,158.1 516,158.1 516,152.5 479.7,152.5 	"/>
	<polygon class="st3" points="589.9,177.6 578.5,152.5 572.6,152.5 561.2,177.7 548.8,152.5 541.7,152.5 557.6,185 564.5,185 
		575.6,160.6 586.6,185 593.3,185 607.7,152.5 601,152.5 	"/>
	<path class="st3" d="M650.3,152.5L631.7,185h7.2l3.9-6.9h22l3.9,6.9h6.8l-18.5-32.5H650.3z M646.1,172.5l7.8-13.7l7.8,13.7H646.1z"
		/>
	<path class="st3" d="M739.7,157.2c-0.3-0.8-0.8-1.6-1.6-2.2c-0.7-0.6-1.6-1.1-2.8-1.5c-1.1-0.3-2.5-0.6-4.1-0.8
		c-1.6-0.2-3.6-0.3-5.9-0.3h-22.5V185h6.2v-11.9h15.6c1.6,0,3,0,4.1,0.1c1.1,0.1,2,0.2,2.6,0.3c0.7,0.1,1.1,0.3,1.3,0.5
		c0.2,0.1,0.4,0.3,0.5,0.6c0.1,0.3,0.2,0.8,0.2,1.3c0,0.6,0,1.4,0,2.3v6.9h6.2v-6.9c0-1.1-0.1-2.2-0.2-3.1c-0.1-1-0.4-1.9-0.8-2.7
		c-0.4-0.7-0.9-1.2-1.5-1.7c0.7-0.5,1.3-1.1,1.7-1.8c0.5-0.8,0.9-1.8,1.1-2.8c0.2-1,0.3-2.2,0.3-3.5c0-1,0-1.9-0.1-2.7
		C740.2,158.8,740,158,739.7,157.2z M725.3,167.5h-16.2v-9.4h16.2c1.6,0,3,0,4.2,0.1c1.1,0,2,0.1,2.6,0.2c0.7,0.1,1.1,0.3,1.3,0.4
		c0.2,0.1,0.3,0.3,0.4,0.4c0.1,0.3,0.2,0.6,0.2,1.1c0,0.6,0,1.3,0,2.1c0,0.9,0,1.7,0,2.3c0,0.5-0.1,0.9-0.2,1.3
		c-0.1,0.2-0.2,0.4-0.5,0.6c-0.2,0.1-0.5,0.3-1.3,0.5c-0.7,0.1-1.6,0.2-2.6,0.3C728.4,167.5,727,167.5,725.3,167.5z"/>
	<polygon class="st3" points="801.8,158.1 801.8,152.5 769.3,152.5 769.3,185 801.8,185 801.8,179.4 775.5,179.4 775.5,171.3 
		800.5,171.3 800.5,165.6 775.5,165.6 775.5,158.1 	"/>
</g>
</svg>
