<?xml version="1.0" encoding="utf-8"?>
<svg xmlns="http://www.w3.org/2000/svg" viewBox="13.215 142.313 426.334 34.031" width="426.334px" height="34.031px">
  <path class="st0" d="M 82.714 169.473 C 80.142 171.982 76.961 173.24 73.175 173.24 C 69.389 173.24 66.208 171.982 63.637 169.473 C 61.065 166.959 59.777 163.831 59.777 160.08 C 59.777 156.328 61.065 153.197 63.637 150.686 C 66.208 148.176 69.389 146.919 73.175 146.919 C 76.961 146.919 80.142 148.176 82.714 150.686 C 85.286 153.197 86.573 156.328 86.573 160.08 C 86.573 163.831 85.286 166.962 82.714 169.473 Z M 79.563 153.545 C 77.828 151.748 75.697 150.852 73.175 150.852 C 70.65 150.852 68.519 151.748 66.787 153.545 C 65.051 155.343 64.185 157.519 64.185 160.08 C 64.185 162.639 65.051 164.82 66.787 166.614 C 68.522 168.411 70.65 169.308 73.175 169.308 C 75.701 169.308 77.828 168.411 79.563 166.614 C 81.3 164.817 82.166 162.639 82.166 160.08 C 82.166 157.519 81.3 155.343 79.563 153.545 Z" style="fill: rgb(255, 255, 255);" transform="matrix(1, 0, 0, 1, 1.4210854715202004e-14, 2.220446049250313e-16)"/>
  <path class="st1" d="M 96.292 172.987 L 91.996 172.987 L 91.996 147.54 L 98.694 147.54 L 106.378 163.521 L 114.058 147.54 L 120.722 147.54 L 120.722 172.987 L 116.426 172.987 L 116.426 153.109 L 107.543 170.767 L 105.141 170.767 L 96.296 153.109 L 96.292 172.987 Z" style="fill: rgb(255, 255, 255);" transform="matrix(1, 0, 0, 1, 1.4210854715202004e-14, 2.220446049250313e-16)"/>
  <path class="st2" d="M 145.659 147.54 L 145.659 151.579 L 132.078 151.579 L 132.078 158.317 L 144.272 158.317 L 144.272 162.141 L 132.078 162.141 L 132.078 168.947 L 146.097 168.947 L 146.097 172.99 L 127.786 172.99 L 127.786 147.544 L 145.659 147.544 L 145.659 147.54 Z" style="fill: rgb(255, 255, 255);" transform="matrix(1, 0, 0, 1, 1.4210854715202004e-14, 2.220446049250313e-16)"/>
  <path class="st3" d="M 164.694 151.545 L 164.694 158.535 L 175.981 158.535 L 175.981 162.501 L 164.694 162.501 L 164.694 172.987 L 160.398 172.987 L 160.398 147.54 L 177.364 147.54 L 177.325 151.545 L 164.694 151.545 Z" style="fill: rgb(255, 255, 255);" transform="matrix(1, 0, 0, 1, 1.4210854715202004e-14, 2.220446049250313e-16)"/>
  <path class="st3" d="M 182.388 147.54 L 186.684 147.54 L 186.684 172.987 L 182.388 172.987 L 182.388 147.54 Z" style="fill: rgb(255, 255, 255);" transform="matrix(1, 0, 0, 1, 1.4210854715202004e-14, 2.220446049250313e-16)"/>
  <path class="st3" d="M 193.747 172.987 L 193.747 147.54 L 198.043 147.54 L 198.043 168.909 L 209.655 168.909 L 209.655 172.987 L 193.747 172.987 Z" style="fill: rgb(255, 255, 255);" transform="matrix(1, 0, 0, 1, 1.4210854715202004e-14, 2.220446049250313e-16)"/>
  <path class="st3" d="M 232.231 147.54 L 232.231 151.579 L 218.65 151.579 L 218.65 158.317 L 230.844 158.317 L 230.844 162.141 L 218.65 162.141 L 218.65 168.947 L 232.668 168.947 L 232.668 172.99 L 214.354 172.99 L 214.354 147.544 L 232.231 147.544 L 232.231 147.54 Z" style="fill: rgb(255, 255, 255);" transform="matrix(1, 0, 0, 1, 1.4210854715202004e-14, 2.220446049250313e-16)"/>
  <path class="st0" d="M 45.828 150.821 L 17.469 150.821 C 15.131 150.821 13.215 148.908 13.215 146.566 C 13.215 144.229 15.128 142.313 17.469 142.313 L 45.828 142.313 C 48.166 142.313 50.082 144.226 50.082 146.566 C 50.082 148.908 48.169 150.821 45.828 150.821 Z" style="fill: rgb(255, 255, 255);" transform="matrix(1, 0, 0, 1, 1.4210854715202004e-14, 2.220446049250313e-16)"/>
  <path class="st1" d="M 33.067 163.582 L 17.469 163.582 C 15.131 163.582 13.215 161.67 13.215 159.328 C 13.215 156.99 15.128 155.074 17.469 155.074 L 33.067 155.074 C 35.404 155.074 37.32 156.987 37.32 159.328 C 37.32 161.67 35.404 163.582 33.067 163.582 Z" style="fill: rgb(255, 255, 255);" transform="matrix(1, 0, 0, 1, 1.4210854715202004e-14, 2.220446049250313e-16)"/>
  <path class="st2" d="M 17.469 176.344 C 15.128 176.344 13.215 174.431 13.215 172.09 C 13.215 169.752 15.128 167.836 17.469 167.836 C 19.806 167.836 21.723 169.749 21.723 172.09 C 21.723 174.431 19.81 176.344 17.469 176.344 Z" style="fill: rgb(255, 255, 255);" transform="matrix(1, 0, 0, 1, 1.4210854715202004e-14, 2.220446049250313e-16)"/>
  <polyline class="st0" points="268.281 147.407 251.232 147.407 251.232 173.019 255.552 173.019 255.552 162.451 267.664 162.451 267.664 158.477 255.552 158.477 255.552 151.42 268.281 151.42" style="fill: rgb(255, 255, 255);" transform="matrix(1, 0, 0, 1, 1.4210854715202004e-14, 2.220446049250313e-16)"/>
  <path class="st0" d="M 294.811 150.316 C 292.223 147.79 289.021 146.524 285.21 146.524 C 281.4 146.524 278.197 147.79 275.61 150.316 C 273.021 152.847 271.725 155.994 271.725 159.77 C 271.725 163.547 273.021 166.698 275.61 169.224 C 278.197 171.751 281.4 173.015 285.21 173.015 C 289.021 173.015 292.223 171.751 294.811 169.224 C 297.399 166.693 298.695 163.547 298.695 159.77 C 298.695 155.994 297.403 152.842 294.811 150.316 Z M 294.263 159.77 C 294.263 162.347 293.388 164.541 291.644 166.347 C 289.897 168.155 287.752 169.058 285.214 169.058 C 282.672 169.058 280.527 168.155 278.784 166.347 C 277.037 164.538 276.165 162.347 276.165 159.77 C 276.165 157.193 277.037 155.003 278.784 153.194 C 280.532 151.384 282.672 150.482 285.214 150.482 C 287.756 150.482 289.897 151.384 291.644 153.194 C 293.388 154.999 294.263 157.19 294.263 159.77 Z" style="fill: rgb(255, 255, 255);" transform="matrix(1, 0, 0, 1, 1.4210854715202004e-14, 2.220446049250313e-16)"/>
  <path class="st0" d="M 319.4 163.709 C 323.087 162.609 324.936 159.943 324.936 155.72 C 324.936 152.812 324.091 150.702 322.409 149.383 C 320.723 148.064 317.927 147.407 314.016 147.407 L 304.466 147.407 L 304.466 173.019 L 308.786 173.019 L 308.786 164.417 L 314.494 164.417 L 320.612 173.019 L 326.109 173.019 L 319.4 163.709 Z M 308.782 151.303 L 314.305 151.303 C 316.628 151.303 318.24 151.624 319.142 152.249 C 320.045 152.869 320.496 154.023 320.496 155.697 C 320.496 157.371 320.056 158.59 319.176 159.346 C 318.297 160.102 316.635 160.484 314.194 160.484 L 308.777 160.484 L 308.777 151.303 L 308.782 151.303 Z" style="fill: rgb(255, 255, 255);" transform="matrix(1, 0, 0, 1, 1.4210854715202004e-14, 2.220446049250313e-16)"/>
  <polygon class="st0" points="354.686 147.407 346.957 163.492 339.223 147.407 332.465 147.407 332.465 173.019 336.785 173.019 336.785 153.009 345.71 170.782 348.129 170.782 357.074 153.009 357.074 173.019 361.394 173.019 361.394 147.407" style="fill: rgb(255, 255, 255);" transform="matrix(1, 0, 0, 1, 1.4210854715202004e-14, 2.220446049250313e-16)"/>
  <path class="st0" d="M 381.617 147.407 L 377.44 147.407 L 366.154 173.019 L 370.771 173.019 L 373.262 167.196 L 385.537 167.196 L 388.14 173.019 L 392.904 173.019 L 381.617 147.407 Z M 379.419 153.325 L 383.816 163.183 L 375.06 163.183 L 379.419 153.325 Z" style="fill: rgb(255, 255, 255);" transform="matrix(1, 0, 0, 1, 1.4210854715202004e-14, 2.220446049250313e-16)"/>
  <polygon class="st0" points="395.646 147.407 395.646 151.342 403.399 151.342 403.399 173.019 407.719 173.019 407.719 151.342 415.51 151.342 415.51 147.407" style="fill: rgb(255, 255, 255);" transform="matrix(1, 0, 0, 1, 1.4210854715202004e-14, 2.220446049250313e-16)"/>
  <path class="st0" d="M 437.554 160.411 C 436.224 159.261 434.245 158.37 431.618 157.737 C 428.992 157.101 427.275 156.511 426.469 155.959 C 425.663 155.407 425.258 154.66 425.258 153.707 C 425.258 152.754 425.636 151.979 426.392 151.381 C 427.148 150.783 428.162 150.482 429.435 150.482 C 432.023 150.482 434.368 151.265 436.471 152.828 L 438.89 149.383 C 436.108 147.45 432.98 146.486 429.512 146.486 C 426.947 146.486 424.845 147.177 423.209 148.557 C 421.574 149.939 420.756 151.762 420.756 154.034 C 420.756 156.307 421.512 158.015 423.029 159.164 C 423.784 159.775 424.652 160.271 425.628 160.649 C 426.605 161.028 428.035 161.444 429.914 161.896 C 431.796 162.347 433.119 162.848 433.89 163.4 C 434.662 163.948 435.044 164.719 435.044 165.706 C 435.044 166.693 434.635 167.488 433.817 168.09 C 432.999 168.688 431.892 168.989 430.5 168.989 C 427.715 168.989 425.026 167.866 422.438 165.617 L 419.727 168.881 C 422.828 171.642 426.384 173.019 430.388 173.019 C 433.123 173.019 435.336 172.322 437.018 170.93 C 438.704 169.537 439.549 167.724 439.549 165.487 C 439.553 163.249 438.886 161.56 437.554 160.411 Z" style="fill: rgb(255, 255, 255);" transform="matrix(1, 0, 0, 1, 1.4210854715202004e-14, 2.220446049250313e-16)"/>
</svg>
