<?xml version="1.0" encoding="utf-8"?>
<!-- Generator: Adobe Illustrator 19.2.1, SVG Export Plug-In . SVG Version: 6.00 Build 0)  -->
<svg version="1.1" id="logo_-_color" xmlns="http://www.w3.org/2000/svg" xmlns:xlink="http://www.w3.org/1999/xlink" x="0px"
	 y="0px" viewBox="0 0 7077 1409" style="enable-background:new 0 0 7077 1409;" xml:space="preserve">
<style type="text/css">
	.st0{fill:#FFFFFF;}
</style>
<g>
	<path class="st0" d="M2082.5,965.7c-67.1,65.5-150.1,98.3-248.9,98.3s-181.8-32.8-248.9-98.3c-67.1-65.6-100.7-147.2-100.7-245.1
		s33.6-179.6,100.7-245.1s150.1-98.3,248.9-98.3s181.8,32.8,248.9,98.3c67.1,65.5,100.7,147.2,100.7,245.1
		S2149.6,900.2,2082.5,965.7z M2000.3,550.1c-45.3-46.9-100.9-70.3-166.7-70.3c-65.9,0-121.5,23.4-166.7,70.3
		c-45.3,46.9-67.9,103.7-67.9,170.5s22.6,123.7,67.9,170.5c45.3,46.9,100.8,70.3,166.7,70.3c65.9,0,121.4-23.4,166.7-70.3
		c45.3-46.9,67.9-103.7,67.9-170.5S2045.6,597,2000.3,550.1z"/>
	<path class="st0" d="M2436.8,1057.4h-112.1v-664h174.8l200.5,417l200.4-417h173.9v664h-112.1V538.7l-231.8,460.8h-62.7
		l-230.8-460.8L2436.8,1057.4L2436.8,1057.4z"/>
	<path class="st0" d="M3725,393.4v105.4h-354.4v175.8h318.2v99.8h-318.2V952h365.8v105.5h-477.8v-664H3725V393.4z"/>
	<path class="st0" d="M3856.1,823.7v-99.8h315.4v99.8H3856.1z"/>
	<path class="st0" d="M4444.1,497.9v182.4h294.5v103.5h-294.5v273.6H4332v-664h442.7l-1,104.5L4444.1,497.9L4444.1,497.9z"/>
	<path class="st0" d="M4905.8,393.4h112.1v664h-112.1V393.4z"/>
	<path class="st0" d="M5202.2,1057.4v-664h112.1V951h303v106.4H5202.2z"/>
	<path class="st0" d="M6206.4,393.4v105.4H5852v175.8h318.2v99.8H5852V952h365.8v105.5h-477.9v-664h466.5V393.4z"/>
	<path class="st0" d="M6562.1,480.8c-32.6,0-59.4,6.6-80.3,19.9c-20.9,13.3-31.3,33.4-31.3,60.3s10.5,47.5,31.3,61.8
		c20.9,14.2,65.4,29.6,133.5,46.1s119.4,39.6,153.9,69.3c34.5,29.8,51.8,73.6,51.8,131.6s-21.9,105-65.5,141.1
		c-43.7,36.1-101,54.1-172,54.1c-103.9,0-196-35.8-276.5-107.4l70.3-84.5c67.1,58.3,136.8,87.4,209,87.4c36.1,0,64.7-7.7,86-23.3
		c21.2-15.5,31.8-36.1,31.8-61.8s-10-45.6-29.9-59.9s-54.3-27.2-103.1-39c-48.8-11.7-85.8-22.5-111.1-32.3
		c-25.3-9.8-47.8-22.6-67.5-38.5c-39.3-29.8-58.9-75.4-58.9-136.8s22.3-108.8,67-142c44.6-33.2,99.9-49.9,165.8-49.9
		c42.4,0,84.6,7,126.4,20.9s77.9,33.6,108.3,58.9l-59.8,84.5c-19.6-17.7-46.2-32.3-79.8-43.7
		C6627.8,486.4,6594.7,480.8,6562.1,480.8z"/>
</g>
<g>
	<path class="st0" d="M1120,479H380c-61,0-111-49.9-111-111l0,0c0-61,49.9-111,111-111h740c61,0,111,49.9,111,111l0,0
		C1231,429.1,1181.1,479,1120,479z"/>
	<path class="st0" d="M787,812H380c-61,0-111-49.9-111-111l0,0c0-61,49.9-111,111-111h407c61,0,111,49.9,111,111l0,0
		C898,762.1,848,812,787,812z"/>
	<path class="st0" d="M380,1145L380,1145c-61.1,0-111-49.9-111-111l0,0c0-61,49.9-111,111-111l0,0c61,0,111,49.9,111,111l0,0
		C491,1095.1,441.1,1145,380,1145z"/>
</g>
</svg>
