<?xml version="1.0" encoding="utf-8"?>
<!-- Generator: Adobe Illustrator 19.2.1, SVG Export Plug-In . SVG Version: 6.00 Build 0)  -->
<svg version="1.1" id="Layer_1" xmlns="http://www.w3.org/2000/svg" xmlns:xlink="http://www.w3.org/1999/xlink" x="0px" y="0px"
	 viewBox="0 0 780 720" style="enable-background:new 0 0 780 720;" xml:space="preserve">
<style type="text/css">
	.st0{fill:#DF283F;}
	.st1{fill:#128669;}
	.st2{fill:#1D8DCD;}
</style>
<g>
	<path class="st0" d="M690,180H90c-49.5,0-90-40.5-90-90l0,0C0,40.5,40.5,0,90,0h600c49.5,0,90,40.5,90,90l0,0
		C780,139.5,739.5,180,690,180z"/>
	<path class="st1" d="M420,450H90c-49.5,0-90-40.5-90-90l0,0c0-49.5,40.5-90,90-90h330c49.5,0,90,40.5,90,90l0,0
		C510,409.5,469.5,450,420,450z"/>
	<path class="st2" d="M90,720L90,720c-49.5,0-90-40.5-90-90l0,0c0-49.5,40.5-90,90-90l0,0c49.5,0,90,40.5,90,90l0,0
		C180,679.5,139.5,720,90,720z"/>
</g>
</svg>
