<?xml version="1.0" encoding="utf-8"?>
<!-- Generator: Adobe Illustrator 19.2.1, SVG Export Plug-In . SVG Version: 6.00 Build 0)  -->
<svg version="1.1" id="logo_-_color" xmlns="http://www.w3.org/2000/svg" xmlns:xlink="http://www.w3.org/1999/xlink" x="0px"
	 y="0px" viewBox="0 0 6177.7 888" style="enable-background:new 0 0 6177.7 888;" xml:space="preserve">
<style type="text/css">
	.st0{fill:#DF283F;}
	.st1{fill:#128669;}
	.st2{fill:#1D8DCD;}
	.st3{fill:#1C4A87;}
</style>
<g>
	<path class="st0" d="M1813.5,708.7c-67.1,65.5-150.1,98.3-248.9,98.3s-181.8-32.8-248.9-98.3c-67.1-65.6-100.7-147.2-100.7-245.1
		s33.6-179.6,100.7-245.1s150.1-98.3,248.9-98.3s181.8,32.8,248.9,98.3c67.1,65.5,100.7,147.2,100.7,245.1
		S1880.6,643.2,1813.5,708.7z M1731.3,293.1c-45.3-46.9-100.9-70.3-166.7-70.3c-65.9,0-121.5,23.4-166.7,70.3
		c-45.3,46.9-67.9,103.7-67.9,170.5s22.6,123.7,67.9,170.5c45.3,46.9,100.8,70.3,166.7,70.3c65.9,0,121.4-23.4,166.7-70.3
		c45.3-46.9,67.9-103.7,67.9-170.5S1776.6,340,1731.3,293.1z"/>
	<path class="st1" d="M2167.8,800.4h-112.1v-664h174.8l200.5,417l200.4-417h173.9v664h-112.1V281.7l-231.8,460.8h-62.7l-230.8-460.8
		L2167.8,800.4L2167.8,800.4z"/>
	<path class="st2" d="M3456,136.4v105.4h-354.4v175.8h318.2v99.8h-318.2V695h365.8v105.5h-477.8v-664H3456V136.4z"/>
	<path class="st3" d="M3800.8,240.9v182.4h294.5v103.5h-294.5v273.6h-112.1v-664h442.7l-1,104.5L3800.8,240.9L3800.8,240.9z"/>
	<path class="st3" d="M4262.5,136.4h112.1v664h-112.1V136.4z"/>
	<path class="st3" d="M4558.9,800.4v-664H4671V694h303v106.4H4558.9z"/>
	<path class="st3" d="M5563.1,136.4v105.4h-354.4v175.8h318.2v99.8h-318.2V695h365.8v105.5h-477.9v-664h466.5V136.4z"/>
	<path class="st3" d="M5918.8,223.8c-32.6,0-59.4,6.6-80.3,19.9c-20.9,13.3-31.3,33.4-31.3,60.3s10.5,47.5,31.3,61.8
		c20.9,14.2,65.4,29.6,133.5,46.1s119.4,39.6,153.9,69.3c34.5,29.8,51.8,73.6,51.8,131.6s-21.9,105-65.5,141.1
		c-43.7,36.1-101,54.1-172,54.1c-103.9,0-196-35.8-276.5-107.4l70.3-84.5c67.1,58.3,136.8,87.4,209,87.4c36.1,0,64.7-7.7,86-23.3
		c21.2-15.5,31.8-36.1,31.8-61.8s-10-45.6-29.9-59.9s-54.3-27.2-103.1-39c-48.8-11.7-85.8-22.5-111.1-32.3
		c-25.3-9.8-47.8-22.6-67.5-38.5c-39.3-29.8-58.9-75.4-58.9-136.8s22.3-108.8,67-142c44.6-33.2,99.9-49.9,165.8-49.9
		c42.4,0,84.6,7,126.4,20.9s77.9,33.6,108.3,58.9l-59.8,84.5c-19.6-17.7-46.2-32.3-79.8-43.7
		C5984.5,229.4,5951.4,223.8,5918.8,223.8z"/>
</g>
<g>
	<path class="st0" d="M851,222H111C50,222,0,172.1,0,111l0,0C0,50,49.9,0,111,0h740c61,0,111,49.9,111,111l0,0
		C962,172.1,912.1,222,851,222z"/>
	<path class="st1" d="M518,555H111C50,555,0,505.1,0,444l0,0c0-61,49.9-111,111-111h407c61,0,111,49.9,111,111l0,0
		C629,505.1,579,555,518,555z"/>
	<path class="st2" d="M111,888L111,888C49.9,888,0,838.1,0,777l0,0c0-61,49.9-111,111-111l0,0c61,0,111,49.9,111,111l0,0
		C222,838.1,172.1,888,111,888z"/>
</g>
</svg>
