<?xml version="1.0" encoding="utf-8"?>
<!-- Generator: Adobe Illustrator 19.2.1, SVG Export Plug-In . SVG Version: 6.00 Build 0)  -->
<svg version="1.1" id="logo_-_color" xmlns="http://www.w3.org/2000/svg" xmlns:xlink="http://www.w3.org/1999/xlink" x="0px"
	 y="0px" viewBox="0 0 1400 1400" style="enable-background:new 0 0 1400 1400;" xml:space="preserve">
<style type="text/css">
	.st0{fill:#DF283F;}
	.st1{fill:#1C4A87;}
	.st2{fill:#128669;}
	.st3{fill:#1D8DCD;}
</style>
<g>
	<g>
		<path class="st0" d="M444,700c0,70.7-57.3,128-128,128s-128-57.3-128-128s57.3-128,128-128S444,629.3,444,700z"/>
		<path class="st1" d="M1212,700c0,70.7-57.3,128-128,128s-128-57.3-128-128s57.3-128,128-128S1212,629.3,1212,700z"/>
		<path class="st2" d="M1020,380c0,70.7-57.3,128-128,128s-128-57.3-128-128s57.3-128,128-128S1020,309.3,1020,380z"/>
		<path class="st1" d="M636,380c0,70.7-57.3,128-128,128s-128-57.3-128-128s57.3-128,128-128S636,309.3,636,380z"/>
		<path class="st3" d="M1020,1020c0,70.7-57.3,128-128,128s-128-57.3-128-128s57.3-128,128-128S1020,949.3,1020,1020z"/>
		<path class="st1" d="M636,1020c0,70.7-57.3,128-128,128s-128-57.3-128-128s57.3-128,128-128S636,949.3,636,1020z"/>
	</g>
</g>
</svg>
