<?xml version="1.0" encoding="utf-8"?>
<!-- Generator: Adobe Illustrator 19.2.1, SVG Export Plug-In . SVG Version: 6.00 Build 0)  -->
<svg version="1.1" id="Layer_1" xmlns="http://www.w3.org/2000/svg" xmlns:xlink="http://www.w3.org/1999/xlink" x="0px" y="0px"
	 viewBox="0 0 1400 1400" style="enable-background:new 0 0 1400 1400;" xml:space="preserve">
<style type="text/css">
	.st0{fill:#DF283F;}
	.st1{fill:#128669;}
	.st2{fill:#1D8DCD;}
</style>
<g>
	<path class="st0" d="M1000,520H400c-49.5,0-90-40.5-90-90v0c0-49.5,40.5-90,90-90h600c49.5,0,90,40.5,90,90v0
		C1090,479.5,1049.5,520,1000,520z"/>
	<path class="st1" d="M730,790H400c-49.5,0-90-40.5-90-90v0c0-49.5,40.5-90,90-90h330c49.5,0,90,40.5,90,90v0
		C820,749.5,779.5,790,730,790z"/>
	<path class="st2" d="M400,1060L400,1060c-49.5,0-90-40.5-90-90v0c0-49.5,40.5-90,90-90h0c49.5,0,90,40.5,90,90v0
		C490,1019.5,449.5,1060,400,1060z"/>
</g>
</svg>
