<?xml version="1.0" encoding="UTF-8"?>
<svg id="logo_-_color" xmlns="http://www.w3.org/2000/svg" version="1.1" viewBox="0 0 7320.45 896">
  <!-- Generator: Adobe Illustrator 29.6.1, SVG Export Plug-In . SVG Version: 2.1.1 Build 9)  -->
  <defs>
    <style>
      .st0 {
        fill: #1f7777;
      }

      .st1 {
        fill: #1f4579;
      }

      .st2 {
        fill: #2980b9;
      }

      .st3 {
        fill: #33aba2;
      }
    </style>
  </defs>
  <g>
    <g>
      <path class="st3" d="M103.8,314.41c-4.93-4.93-10.57-7.05-16.21-7.05-7.05,0-14.1,3.52-18.33,11.28l-31.72,52.87-31.72,52.87c-7.75,13.39-7.75,35.25,0,47.94l31.72,52.87,31.72,52.87c4.23,7.75,11.28,11.28,18.33,11.28,5.64,0,11.28-2.11,16.21-7.05,0,0,65.56-66.27,67.68-131.12v-5.64c-2.11-64.86-67.68-131.12-67.68-131.12Z"/>
      <path class="st1" d="M1056.91,424.38l-31.72-52.87-31.72-52.87c-4.23-7.75-11.28-11.28-18.33-11.28-5.64,0-11.28,2.11-16.21,7.05,0,0-65.56,66.27-67.68,131.12v5.64c2.11,64.86,67.68,131.12,67.68,131.12,4.93,4.93,10.57,7.05,16.21,7.05,7.05,0,14.1-3.52,18.33-11.28l31.72-52.87,31.72-52.87c7.75-12.69,7.75-34.54,0-47.94Z"/>
      <circle class="st1" cx="531.71" cy="448.35" r="157.21"/>
      <path class="st0" d="M801.71,179.06h3.52c32.43-.7,62.74-14.1,62.74-14.1,14.1-6.34,19.03-21.85,11.28-35.25l-31.72-52.87-31.72-52.17c-7.75-13.39-26.79-23.26-42.3-23.26h-124.07c-15.51,0-23.26,10.57-16.92,24.67.7-1.41,69.79,152.98,169.19,152.98Z"/>
      <path class="st1" d="M194.74,164.25s30.31,13.39,62.74,14.1h3.52c99.4,0,168.48-153.68,168.48-153.68,6.34-14.1-1.41-24.67-16.92-24.67h-123.37c-15.51,0-34.54,9.87-42.3,23.26l-31.72,52.87-31.72,52.87c-8.46,13.39-2.82,28.9,11.28,35.25Z"/>
      <path class="st2" d="M867.98,733.16s-30.31-13.39-62.74-14.1h-3.52c-99.4,0-168.48,152.98-168.48,152.98-6.34,14.1,1.41,23.97,16.92,23.97h124.07c15.51,0,34.54-9.16,42.3-22.56l31.72-52.17,31.72-52.87c7.75-13.39,2.82-28.9-11.98-35.25Z"/>
      <path class="st1" d="M261.72,719.06h-3.52c-32.43.7-62.74,14.1-62.74,14.1-14.1,6.34-19.03,21.85-11.28,35.25l31.72,52.87,31.72,51.46c7.75,13.39,26.79,22.56,42.3,22.56h124.07c15.51,0,23.26-9.87,16.92-23.97-.7,0-69.79-152.27-169.19-152.27Z"/>
    </g>
    <polygon class="st1" points="1290.25 112.79 1177.45 112.79 1177.45 0 1121.06 0 1121.06 112.79 1008.26 112.79 1008.26 169.19 1121.06 169.19 1121.06 281.98 1177.45 281.98 1177.45 169.19 1290.25 169.19 1290.25 112.79"/>
  </g>
  <path class="st3" d="M2163.69,362.35c-.7-24.67-3.52-47.23-7.75-66.97-4.23-19.74-11.28-37.36-21.15-52.87-9.87-14.8-23.26-27.49-40.89-37.36s-40.18-16.92-66.97-21.85c-26.79-4.93-59.92-7.05-98.69-7.05h-191.04c-38.77,0-71.91,2.11-98.69,7.05s-49.35,11.98-66.97,21.85c-17.62,9.87-31.72,22.56-41.59,37.36-9.87,14.8-16.92,32.43-21.15,52.87-4.23,19.74-7.05,42.3-7.75,66.97s-.7,52.17-.7,81.77,0,57.81.7,81.77c.7,24.67,3.52,47.23,7.75,66.97,4.23,19.74,11.28,37.36,21.15,52.87,9.87,14.8,23.26,27.49,41.59,37.36,17.62,9.87,40.18,16.92,66.97,21.85,26.79,4.93,59.92,7.05,98.69,7.05h191.04c38.77,0,71.91-2.11,98.69-7.05,26.79-4.93,49.35-11.98,66.97-21.85,17.62-9.87,31.72-22.56,40.89-37.36,9.16-14.8,16.21-32.43,21.15-52.87,4.23-19.74,7.05-42.3,7.75-66.97.7-24.67,1.41-52.17,1.41-81.77s-.7-57.1-1.41-81.77ZM1928.23,651.38h-191.04c-28.2,0-51.46-.7-71.2-2.11-19.03-1.41-34.54-4.93-46.53-9.87-11.98-4.93-21.15-11.28-26.79-20.44-6.34-9.16-11.28-21.15-14.1-35.95-2.82-15.51-4.93-34.54-5.64-57.1-.7-22.56-.7-50.05-.7-81.77s0-59.22.7-81.77c.7-22.56,2.11-41.59,4.93-57.1,2.82-14.8,7.75-26.79,14.1-35.95,6.34-8.46,15.51-15.51,27.49-20.44,11.98-4.93,27.49-8.46,46.53-9.87,19.03-1.41,43-2.11,71.2-2.11h191.04c28.2,0,51.46.7,71.2,2.11,19.03,1.41,34.54,4.93,46.53,9.87,11.98,4.93,20.44,11.28,26.79,20.44s11.28,21.15,14.1,35.95c2.82,15.51,4.93,34.54,5.64,57.1.7,22.56.7,50.05.7,81.77s0,58.51-.7,81.77c-.7,22.56-2.11,41.59-5.64,57.1-2.82,14.8-7.75,26.79-14.1,35.95-6.34,8.46-15.51,15.51-27.49,20.44-11.98,4.93-27.49,8.46-46.53,9.87-19.03,1.41-42.3,2.11-70.5,2.11Z"/>
  <polygon class="st0" points="2958.17 186.11 2664.21 626.71 2370.95 186.11 2262.38 186.11 2262.38 702.14 2334.29 702.14 2334.29 246.73 2633.89 702.14 2702.28 702.14 2997.65 253.78 2997.65 702.14 3069.56 702.14 3069.56 186.11 2958.17 186.11"/>
  <polygon class="st2" points="3704.02 247.44 3704.02 186.11 3187.99 186.11 3187.99 702.14 3704.02 702.14 3704.02 640.81 3259.9 640.81 3259.9 469.5 3682.87 469.5 3682.87 408.17 3259.9 408.17 3259.9 247.44 3704.02 247.44"/>
  <path class="st1" d="M4360.33,437.07c7.05-11.98,12.69-26.08,15.51-42.3,2.82-16.21,4.23-35.25,4.23-56.4,0-16.21-.7-31.72-1.41-45.82-.7-14.1-3.52-26.79-7.75-38.07s-11.98-21.85-21.85-30.31c-9.87-8.46-23.97-15.51-41.59-21.15-17.62-5.64-40.18-9.87-66.27-12.69-26.79-2.82-59.92-4.23-98.69-4.23h-363.76v516.03h73.32v-200.91h281.28c28.2,0,52.17.7,71.2,1.41,19.03.7,34.54,2.82,47.23,5.64,11.98,2.82,21.15,6.34,27.49,10.57,6.34,4.23,10.57,9.87,13.39,17.62,2.82,7.75,4.93,16.92,5.64,27.49.7,11.28.7,24.67.7,39.48v99.4h71.91v-99.4c0-18.33-.7-35.25-2.82-50.05-2.11-14.8-5.64-28.2-11.98-39.48-6.34-11.28-14.8-20.44-26.08-27.49-6.34-4.23-14.8-7.75-23.97-10.57,9.87-2.82,18.33-6.34,25.38-10.57,11.28-7.05,21.15-16.21,28.9-28.2ZM3852.06,247.44h291.85c28.2,0,52.17,0,71.2.7,19.03.7,34.54,2.11,47.23,4.23,11.98,2.11,21.15,5.64,27.49,9.16,6.34,3.52,10.57,8.46,13.39,14.8s4.93,14.8,4.93,24.67c.7,10.57.7,22.56.7,36.66,0,15.51,0,28.2-.7,39.48-.7,10.57-2.11,19.74-5.64,27.49-2.82,7.05-7.75,12.69-13.39,17.62-6.34,4.23-15.51,7.75-27.49,10.57-11.98,2.82-28.2,4.23-47.23,5.64-19.03.7-43,1.41-71.2,1.41h-291.15v-192.45Z"/>
  <path class="st1" d="M5119.57,362.35c-.7-24.67-3.52-47.23-7.75-66.97s-11.28-37.36-21.15-52.87c-9.87-14.8-23.26-27.49-40.89-37.36-17.62-9.87-40.18-16.92-66.97-21.85-26.79-4.93-59.92-7.05-98.69-7.05h-191.04c-38.77,0-71.91,2.11-98.69,7.05-26.79,4.93-49.35,11.98-66.97,21.85-17.62,9.87-31.72,22.56-41.59,37.36-9.87,14.8-16.92,32.43-21.15,52.87-4.23,19.74-7.05,42.3-7.75,66.97-.7,24.67-.7,52.17-.7,81.77s0,57.81.7,81.77c.7,24.67,3.52,47.23,7.75,66.97,4.23,19.74,11.28,37.36,21.15,52.87,9.87,14.8,23.26,27.49,41.59,37.36,17.62,9.87,40.18,16.92,66.97,21.85,26.79,4.93,59.92,7.05,98.69,7.05h191.04c38.77,0,71.91-2.11,98.69-7.05,26.79-4.93,49.35-11.98,66.97-21.85,17.62-9.87,31.72-22.56,40.89-37.36,9.16-14.8,16.21-32.43,21.15-52.87,4.23-19.74,7.05-42.3,7.75-66.97.7-24.67,1.41-52.17,1.41-81.77s-.7-57.1-1.41-81.77ZM4884.12,651.38h-191.04c-28.2,0-51.46-.7-71.2-2.11-19.03-1.41-34.54-4.93-46.53-9.87-11.98-4.93-21.15-11.28-26.79-20.44-6.34-9.16-11.28-21.15-14.1-35.95-2.82-15.51-4.93-34.54-5.64-57.1-.7-22.56-.7-50.05-.7-81.77s0-59.22.7-81.77c.7-22.56,2.11-41.59,4.93-57.1,2.82-14.8,7.75-26.79,14.1-35.95,6.34-8.46,15.51-15.51,27.49-20.44,11.98-4.93,27.49-8.46,46.53-9.87,19.03-1.41,43-2.11,71.2-2.11h191.04c28.2,0,51.46.7,70.5,2.11,19.03,1.41,34.54,4.93,46.53,9.87,11.98,4.93,20.44,11.28,26.79,20.44,6.34,9.16,11.28,21.15,14.1,35.95,2.82,15.51,4.93,34.54,5.64,57.1s.7,50.05.7,81.77,0,58.51-.7,81.77c-.7,22.56-2.11,41.59-5.64,57.1-2.82,14.8-7.75,26.79-14.1,35.95-6.34,8.46-15.51,15.51-27.49,20.44-11.98,4.93-27.49,8.46-46.53,9.87-18.33,1.41-42.3,2.11-69.79,2.11Z"/>
  <path class="st2" d="M6092.41,293.26c-.7-14.1-2.82-26.79-6.34-38.07s-9.87-21.85-17.62-30.31c-7.75-8.46-19.74-15.51-33.84-21.85-14.1-5.64-32.43-9.87-54.99-12.69-21.85-2.82-48.64-4.23-80.37-4.23h-385.61v516.03h72.61v-200.91h270.7c38.77,0,71.91-1.41,98.69-4.93,26.79-2.82,49.35-7.75,66.97-14.1,17.62-6.34,31.72-14.1,41.59-23.26,9.87-9.16,16.92-20.44,21.85-32.43,4.23-11.98,7.05-26.08,7.75-40.89.7-14.8,1.41-31.02,1.41-47.94-1.41-15.51-2.11-31.02-2.82-44.41ZM5856.25,439.89h-270v-192.45h270.7c28.2,0,52.17,0,71.2.7,19.03.7,34.54,2.11,47.23,4.23,11.98,2.11,21.15,5.64,27.49,9.16s10.57,8.46,13.39,14.8c2.82,6.34,4.93,14.8,4.93,24.67.7,10.57.7,22.56.7,36.66,0,15.51,0,28.2-.7,39.48-.7,10.57-2.11,19.74-5.64,27.49-2.82,7.05-7.75,12.69-13.39,17.62-6.34,4.23-15.51,7.75-27.49,10.57-11.98,2.82-28.2,4.23-47.23,5.64-19.03.7-43,1.41-71.2,1.41Z"/>
  <rect class="st2" x="6169.96" y="186.11" width="71.91" height="516.03"/>
  <path class="st2" d="M6719.82,313v234.75c0,14.8-2.11,28.9-7.05,41.59-4.23,11.98-12.69,22.56-24.67,31.02-11.98,8.46-28.9,15.51-50.05,20.44-21.85,4.93-49.35,7.75-83.89,7.75-31.02,0-57.1-2.11-76.14-6.34-18.33-4.23-33.13-11.28-43-20.44-9.87-9.16-16.92-21.15-19.74-36.66-3.52-15.51-4.93-35.25-4.93-57.81v-214.31h-71.91v215.72c0,19.03.7,37.36,2.11,53.58,1.41,16.21,4.93,31.72,9.16,45.12,4.93,13.39,11.98,25.38,20.44,35.95,9.16,10.57,21.15,19.03,35.25,26.08,14.8,7.05,32.43,11.98,52.87,15.51,20.44,3.52,45.12,4.93,74.02,4.93,34.54,0,63.45-2.82,86.71-7.75,23.26-4.93,42.3-11.28,57.1-19.03,14.8-7.75,26.79-16.21,33.84-24.67,2.82-3.52,5.64-7.05,7.75-10.57v54.99h71.91v-389.84h-69.79Z"/>
  <path class="st2" d="M7320.45,421.56v-4.23c0-19.74-3.52-36.66-9.87-51.46-7.05-14.8-18.33-26.79-35.25-36.66-16.21-9.16-38.77-16.21-66.27-21.15-27.49-4.23-62.74-6.34-104.33-6.34s-78.95,2.11-108.56,5.64c-29.61,3.52-54.28,9.87-73.32,19.03-19.03,8.46-33.13,20.44-42.3,34.54-8.46,14.1-13.39,31.72-13.39,52.17,0,14.8,1.41,28.9,4.23,41.59,2.82,12.69,7.75,23.97,14.1,33.13,7.05,9.16,16.21,16.21,27.49,21.85,11.28,4.93,25.38,9.16,42.3,11.98,16.21,2.82,36.66,4.93,59.22,5.64,22.56.7,49.35,1.41,78.95,1.41,24.67,0,45.82.7,62.74,1.41,16.92.7,31.72,2.11,43,4.23,11.28,2.11,20.44,4.23,26.79,7.05,6.34,2.82,10.57,6.34,13.39,11.28,3.52,4.93,5.64,10.57,6.34,15.51.7,5.64,1.41,11.28,1.41,18.33,0,7.75-.7,14.8-1.41,21.15-.7,5.64-2.82,11.28-6.34,16.21-3.52,4.93-8.46,9.16-14.8,11.98-7.05,3.52-16.21,6.34-28.9,9.16-12.69,2.82-28.2,4.23-45.82,5.64-18.33,1.41-40.89,2.11-66.97,2.11-28.9,0-52.87-.7-71.91-2.11-18.33-1.41-33.13-4.93-44.41-9.16-10.57-4.23-17.62-9.87-21.85-17.62-4.23-7.75-6.34-17.62-6.34-30.31v-4.23h-71.91v4.23c0,20.44,3.52,38.07,11.28,52.87,7.75,14.8,19.74,26.79,37.36,35.95,16.92,9.16,39.48,15.51,66.97,19.74,26.79,4.23,60.63,5.64,100.81,5.64,31.72,0,59.92-.7,83.89-2.82,23.97-2.11,45.12-4.93,62.04-8.46,17.62-4.23,32.43-9.16,43.71-15.51,11.98-6.34,21.15-14.8,28.2-23.26,7.05-9.16,11.98-19.74,14.8-31.72,2.82-11.28,4.23-24.67,4.23-39.48s-1.41-27.49-4.23-38.77c-2.82-11.28-7.75-21.85-14.8-30.31-7.05-8.46-15.51-16.21-26.79-23.26-11.28-7.05-25.38-12.69-42.3-15.51-16.92-3.52-36.66-5.64-59.22-7.05-22.56-1.41-49.35-2.11-78.95-2.11h-62.74c-16.92,0-31.72-.7-43.71-2.11-11.28-1.41-20.44-2.82-26.79-4.93-6.34-2.11-10.57-4.93-13.39-9.16-2.82-4.23-4.93-9.16-5.64-15.51-.7-7.05-1.41-14.1-1.41-21.15,0-11.98,2.82-21.15,7.75-27.49,4.93-6.34,14.1-11.28,26.08-14.8,12.69-3.52,30.31-5.64,51.46-6.34,21.85-.7,48.64-1.41,79.66-1.41,28.9,0,52.87.7,71.91,2.11,18.33,1.41,33.13,4.23,44.41,8.46,10.57,4.23,17.62,9.16,21.85,16.21,4.23,7.05,6.34,15.51,6.34,26.79v4.23h71.2v-2.82Z"/>
</svg>