<?xml version="1.0" encoding="utf-8"?>
<!-- Generator: Adobe Illustrator 19.2.1, SVG Export Plug-In . SVG Version: 6.00 Build 0)  -->
<svg version="1.1" id="logo_-_color_1_" xmlns="http://www.w3.org/2000/svg" xmlns:xlink="http://www.w3.org/1999/xlink" x="0px"
	 y="0px" viewBox="0 0 5137 896.1" style="enable-background:new 0 0 5137 896.1;" xml:space="preserve">
<style type="text/css">
	.st0{fill:#FFFFFF;}
</style>
<g>
	<g>
		<path class="st0" d="M103.3,314.1c-4.7-4.8-10.4-7.2-15.8-7.2c-7,0-13.8,3.8-18.2,11.2l-31.7,52.8L5.9,423.7
			c-7.9,13.2-7.9,34.8,0,48l31.7,52.8l31.7,52.8c4.4,7.4,11.2,11.2,18.2,11.2c5.5,0,11.1-2.4,15.8-7.2c0,0,65.2-66.3,67.3-130.6
			c0-1,0.1-2.1,0.1-3.1s0-2.1-0.1-3.1C168.5,380.4,103.3,314.1,103.3,314.1z"/>
		<path class="st0" d="M1052.2,423.8l-31.7-52.8l-31.7-52.8c-4.4-7.4-11.2-11.2-18.2-11.2c-5.5,0-11.1,2.4-15.8,7.2
			c0,0-65.2,66.3-67.3,130.6c0,1-0.1,2.1-0.1,3.1s0,2.1,0.1,3.1c2.1,64.3,67.3,130.6,67.3,130.6c4.7,4.8,10.4,7.2,15.8,7.2
			c7,0,13.7-3.8,18.2-11.2l31.7-52.8l31.7-52.8C1060.2,458.6,1060.2,437,1052.2,423.8z"/>
		<path class="st0" d="M685.8,447.8c0-86.6-70.2-156.8-156.8-156.8s-156.8,70.2-156.8,156.8S442.4,604.6,529,604.6
			S685.8,534.4,685.8,447.8z"/>
		<path class="st0" d="M797.8,179.1c1.3,0,2.5-0.1,3.8-0.1c32.3-1,62.7-14.3,62.7-14.3c14.1-6.2,19.2-22,11.3-35.2l-31.7-52.8
			L812.2,24c-7.9-13.2-27-23.9-42.4-23.9H646.6c-15.4,0-22.9,11.4-16.6,25.4C630.1,25.5,698.9,179.1,797.8,179.1z"/>
		<path class="st0" d="M193.7,164.7c0,0,30.4,13.2,62.7,14.2c1.3,0,2.5,0.1,3.8,0.1C359.2,179,428,25.4,428,25.4
			C434.3,11.3,426.8,0,411.4,0H288.2c-15.4,0-34.5,10.7-42.4,23.9l-31.7,52.8l-31.7,52.8C174.5,142.7,179.6,158.6,193.7,164.7z"/>
		<path class="st0" d="M864.4,731c0,0-30.4-13.3-62.7-14.3c-1.3,0-2.5-0.1-3.8-0.1c-99,0-167.8,153.8-167.8,153.8
			c-6.3,14.1,1.2,25.7,16.6,25.7h123.2c15.4,0,34.5-10.9,42.4-24.1l31.7-52.9l31.7-52.9C883.6,753,878.5,737.1,864.4,731z"/>
		<path class="st0" d="M260.2,716.7c-1.3,0-2.5,0-3.8,0c-32.3,1-62.7,14.2-62.7,14.2c-14.1,6.2-19.2,22-11.3,35.2l31.7,52.8l31.7,53
			c7.9,13.2,27,24.1,42.4,24.1h123.2c15.4,0,22.9-11.6,16.6-25.7C428,870.4,359.2,716.7,260.2,716.7z"/>
	</g>
	<g>
		<path class="st0" d="M1912.7,203.7c-67.1-65.5-150.1-98.3-248.9-98.3s-181.8,32.7-248.9,98.3c-67.1,65.5-100.7,147.2-100.7,245.1
			s33.6,179.5,100.7,245.1c67.1,65.5,150.1,98.3,248.9,98.3s181.8-32.8,248.9-98.3c67.1-65.6,100.7-147.2,100.7-245.1
			S1979.8,269.2,1912.7,203.7z M1898.5,448.8c0,66.8-22.7,123.7-67.9,170.5c-45.3,46.9-100.9,70.3-166.7,70.3
			c-65.9,0-121.5-23.4-166.7-70.3c-45.3-46.9-67.9-103.7-67.9-170.5s22.6-123.6,67.9-170.5S1598,208,1663.9,208
			c65.9,0,121.4,23.4,166.7,70.3C1875.8,325.1,1898.5,381.9,1898.5,448.8z"/>
		<polygon class="st0" points="2739.2,128.1 2538.7,545.2 2338.3,128.1 2162.9,128.1 2162.9,792.1 2274.9,792.1 2274.9,273.5 
			2506.4,734.1 2569.1,734.1 2800.9,273.5 2800.9,792.1 2912.9,792.1 2912.9,128.1 		"/>
		<polygon class="st0" points="3233.9,687.1 3233.9,509.1 3551.9,509.1 3551.9,409.1 3233.9,409.1 3233.9,233.1 3587.9,233.1 
			3587.9,128.1 3121.9,128.1 3121.9,792.1 3599.9,792.1 3599.9,687.1 		"/>
		<path class="st0" d="M4157.5,550.8c95.6-28.5,143.4-97.5,143.4-207.1c0-75.4-21.9-130.2-65.5-164.4s-116.2-51.2-217.5-51.2h-248
			v664h113v-223h147.3l158.6,223h142.5L4157.5,550.8z M3882.9,230.1h142.6c60.2,0,102,7.9,125.4,24.1c23.4,16.1,35.1,45.8,35.1,89.2
			s-11.4,74.8-34.2,94.4c-22.8,19.6-65.9,29.3-129.2,29.3h-139.7V230.1z"/>
		<path class="st0" d="M5036.3,203.7c-67.1-65.5-150.1-98.3-248.9-98.3s-181.8,32.8-248.9,98.3s-100.7,147.2-100.7,245.1
			s33.6,179.5,100.7,245.1c67.1,65.5,150.1,98.3,248.9,98.3s181.8-32.8,248.9-98.3c67.1-65.6,100.7-147.2,100.7-245.1
			S5103.4,269.2,5036.3,203.7z M5022,448.8c0,66.8-22.7,123.7-67.9,170.5c-45.3,46.9-100.9,70.3-166.7,70.3
			c-65.9,0-121.5-23.4-166.7-70.3c-45.3-46.9-67.9-103.7-67.9-170.5s22.6-123.6,67.9-170.5s100.8-70.3,166.7-70.3
			c65.9,0,121.4,23.4,166.7,70.3C4999.4,325.1,5022,381.9,5022,448.8z"/>
	</g>
</g>
</svg>
