<?xml version="1.0" encoding="utf-8"?>
<!-- Generator: Adobe Illustrator 19.2.1, SVG Export Plug-In . SVG Version: 6.00 Build 0)  -->
<svg version="1.1" id="logo_-_color_1_" xmlns="http://www.w3.org/2000/svg" xmlns:xlink="http://www.w3.org/1999/xlink" x="0px"
	 y="0px" viewBox="0 0 1400 1400" style="enable-background:new 0 0 1400 1400;" xml:space="preserve">
<style type="text/css">
	.st0{fill:#DF283F;}
	.st1{fill:#1C4A87;}
	.st2{fill:#128669;}
	.st3{fill:#1D8DCD;}
</style>
<g>
	<g>
		<path class="st0" d="M274.2,566c-4.7-4.8-10.4-7.2-15.8-7.2c-7,0-13.8,3.8-18.2,11.2l-31.7,52.8l-31.7,52.8
			c-7.9,13.2-7.9,34.8,0,48l31.7,52.8l31.7,52.8c4.4,7.4,11.2,11.2,18.2,11.2c5.5,0,11.1-2.4,15.8-7.2c0,0,65.2-66.3,67.3-130.6
			c0-1,0.1-2.1,0.1-3.1c0-1,0-2.1-0.1-3.1C339.5,632.3,274.2,566,274.2,566z"/>
		<path class="st1" d="M1223.2,675.7l-31.7-52.8l-31.7-52.8c-4.4-7.4-11.2-11.2-18.2-11.2c-5.5,0-11.1,2.4-15.8,7.2
			c0,0-65.2,66.3-67.3,130.6c0,1-0.1,2.1-0.1,3.1c0,1,0,2.1,0.1,3.1c2.1,64.3,67.3,130.6,67.3,130.6c4.7,4.8,10.4,7.2,15.8,7.2
			c7,0,13.7-3.8,18.2-11.2l31.7-52.8l31.7-52.8C1231.1,710.5,1231.1,688.9,1223.2,675.7z"/>
		<path class="st1" d="M856.8,699.7c0-86.6-70.2-156.8-156.8-156.8s-156.8,70.2-156.8,156.8c0,86.6,70.2,156.8,156.8,156.8
			S856.8,786.3,856.8,699.7z"/>
		<path class="st2" d="M968.8,431c1.3,0,2.5-0.1,3.8-0.1c32.3-1,62.7-14.3,62.7-14.3c14.1-6.2,19.2-22,11.3-35.2l-31.7-52.8
			l-31.7-52.7c-7.9-13.2-27-23.9-42.4-23.9H817.6c-15.4,0-22.9,11.4-16.6,25.4C801,277.4,869.8,431,968.8,431z"/>
		<path class="st1" d="M364.7,416.6c0,0,30.4,13.2,62.7,14.2c1.3,0,2.5,0.1,3.8,0.1c99,0,167.8-153.6,167.8-153.6
			c6.3-14.1-1.2-25.4-16.6-25.4H459.2c-15.4,0-34.5,10.7-42.4,23.9l-31.7,52.8l-31.7,52.8C345.5,394.6,350.5,410.5,364.7,416.6z"/>
		<path class="st3" d="M1035.3,982.9c0,0-30.4-13.3-62.7-14.3c-1.3,0-2.5-0.1-3.8-0.1c-99,0-167.8,153.8-167.8,153.8
			c-6.3,14.1,1.2,25.7,16.6,25.7h123.2c15.4,0,34.5-10.9,42.4-24.1l31.7-52.9l31.7-52.9C1054.5,1004.9,1049.5,989,1035.3,982.9z"/>
		<path class="st1" d="M431.2,968.6c-1.3,0-2.5,0-3.8,0c-32.3,1-62.7,14.2-62.7,14.2c-14.1,6.2-19.2,22-11.3,35.2l31.7,52.8l31.7,53
			c7.9,13.2,27,24.1,42.4,24.1h123.2c15.4,0,22.9-11.6,16.6-25.7C599,1122.3,530.2,968.6,431.2,968.6z"/>
	</g>
</g>
</svg>
