<?xml version="1.0" encoding="utf-8"?>
<!-- Generator: Adobe Illustrator 19.2.1, SVG Export Plug-In . SVG Version: 6.00 Build 0)  -->
<svg version="1.1" id="logo_-_color_1_" xmlns="http://www.w3.org/2000/svg" xmlns:xlink="http://www.w3.org/1999/xlink" x="0px"
	 y="0px" viewBox="0 0 8890 1409" style="enable-background:new 0 0 8890 1409;" xml:space="preserve">
<style type="text/css">
	.st0{fill:#DF283F;}
	.st1{fill:#128669;}
	.st2{fill:#1D8DCD;}
	.st3{fill:#1C4A87;}
</style>
<g>
	<path class="st0" d="M2168.8,461.6c-67.1-65.5-150.1-98.3-248.9-98.3S1738.1,396,1671,461.6c-67.1,65.5-100.7,147.2-100.7,245.1
		c0,97.9,33.6,179.5,100.7,245.1c67.1,65.5,150.1,98.3,248.9,98.3s181.8-32.8,248.9-98.3c67.1-65.6,100.7-147.2,100.7-245.1
		C2269.5,608.8,2235.9,527.1,2168.8,461.6z M2154.6,706.7c0,66.8-22.7,123.7-67.9,170.5c-45.3,46.9-100.9,70.3-166.7,70.3
		c-65.9,0-121.5-23.4-166.7-70.3c-45.3-46.9-67.9-103.7-67.9-170.5c0-66.8,22.6-123.6,67.9-170.5c45.3-46.9,100.8-70.3,166.7-70.3
		c65.9,0,121.4,23.4,166.7,70.3C2131.9,583,2154.6,639.8,2154.6,706.7z"/>
	<polygon class="st1" points="2995.3,386 2794.8,803.1 2594.4,386 2419,386 2419,1050 2531,1050 2531,531.4 2762.5,992 2825.2,992 
		3057,531.4 3057,1050 3169,1050 3169,386 	"/>
	<polygon class="st2" points="3490,945 3490,767 3808,767 3808,667 3490,667 3490,491 3844,491 3844,386 3378,386 3378,1050 
		3856,1050 3856,945 	"/>
	<path class="st3" d="M4413.6,808.7c95.6-28.5,143.4-97.5,143.4-207.1c0-75.4-21.8-130.2-65.5-164.4S4375.3,386,4274,386h-248v664
		h113V827h147.3l158.7,223h142.5L4413.6,808.7z M4139,488h142.6c60.2,0,102,7.9,125.4,24.1c23.4,16.1,35.2,45.8,35.2,89.2
		c0,43.4-11.4,74.8-34.2,94.4c-22.8,19.6-65.9,29.3-129.2,29.3H4139V488z"/>
	<path class="st3" d="M5292.4,461.6c-67.1-65.5-150.1-98.3-248.9-98.3c-98.8,0-181.8,32.8-248.9,98.3
		c-67.1,65.5-100.7,147.2-100.7,245.1c0,97.9,33.6,179.5,100.7,245.1c67.1,65.5,150.1,98.3,248.9,98.3c98.8,0,181.8-32.8,248.9-98.3
		c67.1-65.6,100.7-147.2,100.7-245.1C5393.1,608.8,5359.5,527.1,5292.4,461.6z M5278.1,706.7c0,66.8-22.7,123.7-67.9,170.5
		c-45.3,46.9-100.9,70.3-166.7,70.3c-65.9,0-121.5-23.4-166.7-70.3c-45.3-46.9-67.9-103.7-67.9-170.5c0-66.8,22.6-123.6,67.9-170.5
		c45.3-46.9,100.8-70.3,166.7-70.3c65.9,0,121.4,23.4,166.7,70.3C5255.5,583,5278.1,639.8,5278.1,706.7z"/>
</g>
<g>
	<path class="st2" d="M5512,1022.7c-13.6-13.9-20.4-30.7-20.4-50.4c0-19.6,6.8-36.2,20.4-49.9c13.6-13.6,30.2-20.4,49.9-20.4
		c19.6,0,36.4,6.8,50.3,20.4c13.9,13.6,20.9,30.3,20.9,49.9c0,19.6-7,36.4-20.9,50.4c-13.9,13.9-30.7,20.9-50.3,20.9
		C5542.3,1043.6,5525.6,1036.6,5512,1022.7z"/>
</g>
<path class="st2" d="M5514.5,1023.4c-13.6-13.9-20.4-30.7-20.4-50.3c0-19.6,6.8-36.2,20.4-49.9c13.6-13.6,30.2-20.4,49.9-20.4
	c19.6,0,36.4,6.8,50.4,20.4c13.9,13.6,20.9,30.3,20.9,49.9c0,19.6-7,36.4-20.9,50.3c-13.9,13.9-30.7,20.9-50.4,20.9
	C5544.8,1044.3,5528.1,1037.3,5514.5,1023.4z"/>
<path class="st2" d="M5897.9,548v38.5h133v78.8h-133v387.2h-106.4V665.3h-63.6v-78.8h63.6v-35.9c0-49.1,16-88,48-116.9
	c32-28.9,70.6-43.4,115.9-43.4c45.3,0,86.6,15.5,124,46.4l-43.7,69.2c-20.9-20.4-42.8-30.7-65.5-30.7c-22.8,0-40.5,6.6-53.2,19.7
	C5904.2,508.1,5897.9,525.8,5897.9,548z"/>
<path class="st2" d="M6140.1,493.6c-13.3-12.3-20-26.9-20-43.8c0-16.9,6.7-31.5,20-43.8c13.3-12.3,29.1-18.4,47.5-18.4
	c18.4,0,34.2,6.1,47.5,18.4c13.3,12.3,19.9,26.9,19.9,43.8c0,16.9-6.7,31.5-19.9,43.8c-13.3,12.3-29.1,18.4-47.5,18.4
	C6169.2,512,6153.4,505.9,6140.1,493.6z M6239.8,1052.5h-106.4v-466h106.4V1052.5z"/>
<path class="st2" d="M6861.1,586.5V993c0,82.3-24.2,144.1-72.7,185.3c-48.4,41.2-110.7,61.8-186.7,61.8s-144.7-21.9-206.2-65.7
	l50.3-74.5c49.4,34.5,99.3,51.7,149.6,51.7s90.2-12,119.7-35.9c29.5-24,44.2-62.2,44.2-114.8v-59.6c-15.8,27.5-38.5,49.4-67.9,65.7
	c-29.5,16.4-62.6,24.5-99.3,24.5c-67.1,0-122.2-21.6-165.3-64.8c-43.1-43.2-64.6-96.9-64.6-161.2c0-64.2,21.5-118,64.6-161.2
	c43.1-43.2,98-64.8,164.8-64.8c66.8,0,121.1,25.4,162.9,76.2v-69.2H6861.1z M6466.9,801.6c0,38.3,12.8,71.3,38.5,99
	c25.7,27.7,60.2,41.6,103.6,41.6c43.4,0,78.5-13.4,105.4-40.3c26.9-26.9,40.4-60.3,40.4-100.3c0-40-13.6-73.9-40.8-101.6
	c-27.2-27.7-62.4-41.6-105.5-41.6c-43.1,0-77.4,14.3-103.1,42.9C6479.7,729.9,6466.9,763.3,6466.9,801.6z"/>
<path class="st2" d="M7368.4,838.8V586.5h106.4v466h-106.4v-85c-17.1,28.6-40.7,51.1-70.8,67.5c-30.1,16.4-62.6,24.5-97.4,24.5
	c-57,0-103.1-16.1-138.2-48.2c-35.1-32.1-52.7-78.5-52.7-139.3V586.5h106.4v255.8c0,85.8,38.6,128.8,115.9,128.8
	c36.7,0,68.7-11.2,95.9-33.7C7354.8,914.9,7368.4,882,7368.4,838.8z"/>
<path class="st2" d="M7893.8,678.5c-52.6,0-92.2,15.8-118.8,47.3c-26.6,31.5-39.9,73.9-39.9,127v199.7h-106.4v-466h106.4v93.7
	c17.1-29.2,40.4-53.1,69.8-71.8c29.5-18.7,60.6-28.3,93.6-28.9l0.9,99C7897.6,678.5,7895.7,678.5,7893.8,678.5z"/>
<path class="st2" d="M8476.1,862.4H8080c2.5,33.9,19.3,61.2,50.4,81.9c31,20.7,66.5,31.1,106.4,31.1c63.3,0,111.5-18.4,144.4-55.2
	l60.8,61.3c-54.5,52-125.4,78-212.8,78c-70.9,0-131.3-21.7-181-65.3c-49.7-43.5-74.6-101.9-74.6-175.2c0-73.3,25.3-131.5,76-174.8
	c50.7-43.2,110.3-64.8,179.1-64.8c68.7,0,127.1,19.1,175.3,57.4c48.1,38.3,72.2,91,72.2,158.1V862.4z M8080,785.4h289.8
	c0-39.1-13.3-69.2-39.9-90.2c-26.6-21-59.4-31.5-98.3-31.5c-38.9,0-74,11-105,32.9C8095.5,718.3,8080,748,8080,785.4z"/>
<g>
	
		<rect x="433.5" y="666.6" transform="matrix(0.7071 -0.7071 0.7071 0.7071 -359.9028 539.1195)" class="st1" width="74.7" height="74.7"/>
	
		<rect x="512.7" y="587.4" transform="matrix(0.7071 -0.7071 0.7071 0.7071 -280.6677 571.9398)" class="st3" width="74.7" height="74.7"/>
	
		<rect x="750.4" y="825.1" transform="matrix(-0.7071 -0.7071 0.7071 -0.7071 734.938 2029.3636)" class="st2" width="74.7" height="74.7"/>
	
		<rect x="671.2" y="745.9" transform="matrix(-0.7071 -0.7071 0.7071 -0.7071 655.7029 1838.073)" class="st1" width="74.7" height="74.7"/>
	
		<rect x="988.1" y="904.4" transform="matrix(-0.7071 -0.7071 0.7071 -0.7071 1084.6989 2332.7095)" class="st3" width="74.7" height="74.7"/>
	
		<rect x="908.9" y="825.1" transform="matrix(-0.7071 -0.7071 0.7071 -0.7071 1005.4637 2141.4189)" class="st3" width="74.7" height="74.7"/>
	
		<rect x="908.9" y="983.6" transform="matrix(-0.7071 0.7071 -0.7071 -0.7071 2337.2375 1073.7673)" class="st1" width="74.7" height="74.7"/>
	
		<rect x="829.6" y="1062.8" transform="matrix(-0.7071 0.7071 -0.7071 -0.7071 2258.0024 1265.0579)" class="st2" width="74.7" height="74.7"/>
	
		<rect x="1225.8" y="666.6" transform="matrix(-0.7071 0.7071 -0.7071 -0.7071 2654.1782 308.6052)" class="st1" width="74.7" height="74.7"/>
	
		<rect x="1146.6" y="745.9" transform="matrix(-0.7071 0.7071 -0.7071 -0.7071 2574.9429 499.8957)" class="st2" width="74.7" height="74.7"/>
	
		<rect x="908.9" y="508.2" transform="matrix(0.7071 0.7071 -0.7071 0.7071 662.894 -509.3065)" class="st3" width="74.7" height="74.7"/>
	
		<rect x="988.1" y="587.4" transform="matrix(0.7071 0.7071 -0.7071 0.7071 742.1291 -542.1267)" class="st1" width="74.7" height="74.7"/>
	
		<rect x="671.2" y="428.9" transform="matrix(0.7071 0.7071 -0.7071 0.7071 537.244 -364.4308)" class="st2" width="74.7" height="74.7"/>
	
		<rect x="575.5" y="547.8" transform="matrix(0.7071 0.7071 -0.7071 0.7071 609.6818 -301.6058)" class="st3" width="186.8" height="74.7"/>
	
		<rect x="575.5" y="864.7" transform="matrix(0.7071 0.7071 -0.7071 0.7071 833.7926 -208.776)" class="st3" width="186.8" height="74.7"/>
	
		<rect x="971.7" y="468.6" transform="matrix(0.7071 0.7071 -0.7071 0.7071 669.6913 -604.9517)" class="st3" width="186.8" height="74.7"/>
	
		<rect x="971.7" y="785.5" transform="matrix(0.7071 0.7071 -0.7071 0.7071 893.8021 -512.122)" class="st3" width="186.8" height="74.7"/>
	
		<rect x="734" y="944" transform="matrix(0.7071 -0.7071 0.7071 0.7071 -451.5663 872.4702)" class="st0" width="186.8" height="74.7"/>
	
		<rect x="1050.9" y="627" transform="matrix(0.7071 -0.7071 0.7071 0.7071 -134.6257 1003.7513)" class="st0" width="186.8" height="74.7"/>
	
		<rect x="496.3" y="706.3" transform="matrix(0.7071 -0.7071 0.7071 0.7071 -353.1055 634.7648)" class="st0" width="186.8" height="74.7"/>
	
		<rect x="813.2" y="389.3" transform="matrix(0.7071 -0.7071 0.7071 0.7071 -36.1649 766.0459)" class="st0" width="186.8" height="74.7"/>
	
		<rect x="750.4" y="508.2" transform="matrix(0.7071 0.7071 -0.7071 0.7071 616.4791 -397.251)" class="st2" width="74.7" height="74.7"/>
	
		<rect x="829.6" y="270.5" transform="matrix(-0.7071 0.7071 -0.7071 -0.7071 1697.7253 -87.5705)" class="st3" width="74.7" height="74.7"/>
	
		<rect x="750.4" y="349.7" transform="matrix(-0.7071 0.7071 -0.7071 -0.7071 1618.4902 103.72)" class="st1" width="74.7" height="74.7"/>
</g>
</svg>
