<?xml version="1.0" encoding="utf-8"?>
<!-- Generator: Adobe Illustrator 19.2.1, SVG Export Plug-In . SVG Version: 6.00 Build 0)  -->
<svg version="1.1" id="logo_-_color_1_" xmlns="http://www.w3.org/2000/svg" xmlns:xlink="http://www.w3.org/1999/xlink" x="0px"
	 y="0px" viewBox="0 0 8000 1400" style="enable-background:new 0 0 8000 1400;" xml:space="preserve">
<style type="text/css">
	.st0{fill:#DF283F;}
	.st1{fill:#128669;}
	.st2{fill:#1D8DCD;}
	.st3{fill:#1C4A87;}
</style>
<g>
	<path class="st0" d="M947.8,457.1c-67.1-65.5-150.1-98.3-248.9-98.3S517.1,391.5,450,457.1c-67.1,65.5-100.7,147.2-100.7,245.1
		S382.9,881.7,450,947.3c67.1,65.5,150.1,98.3,248.9,98.3s181.8-32.8,248.9-98.3c67.1-65.6,100.7-147.2,100.7-245.1
		S1014.9,522.6,947.8,457.1z M933.6,702.2c0,66.8-22.7,123.7-67.9,170.5C820.4,919.6,764.8,943,699,943
		c-65.9,0-121.5-23.4-166.7-70.3C487,825.8,464.4,769,464.4,702.2s22.6-123.6,67.9-170.5s100.8-70.3,166.7-70.3
		c65.9,0,121.4,23.4,166.7,70.3C910.9,578.5,933.6,635.3,933.6,702.2z"/>
	<polygon class="st1" points="1774.3,381.5 1573.8,798.6 1373.4,381.5 1198,381.5 1198,1045.5 1310,1045.5 1310,526.9 1541.5,987.5 
		1604.2,987.5 1836,526.9 1836,1045.5 1948,1045.5 1948,381.5 	"/>
	<polygon class="st2" points="2269,940.5 2269,762.5 2587,762.5 2587,662.5 2269,662.5 2269,486.5 2623,486.5 2623,381.5 
		2157,381.5 2157,1045.5 2635,1045.5 2635,940.5 	"/>
	<path class="st3" d="M3192.6,804.2c95.6-28.5,143.4-97.5,143.4-207.1c0-75.4-21.8-130.2-65.5-164.4s-116.2-51.2-217.5-51.2h-248
		v664h113v-223h147.3l158.7,223h142.5L3192.6,804.2z M2918,483.5h142.6c60.2,0,102,7.9,125.4,24.1c23.4,16.1,35.2,45.8,35.2,89.2
		s-11.4,74.8-34.2,94.4c-22.8,19.6-65.9,29.3-129.2,29.3H2918V483.5z"/>
	<path class="st3" d="M4071.4,457.1c-67.1-65.5-150.1-98.3-248.9-98.3s-181.8,32.8-248.9,98.3s-100.7,147.2-100.7,245.1
		s33.6,179.5,100.7,245.1c67.1,65.5,150.1,98.3,248.9,98.3s181.8-32.8,248.9-98.3c67.1-65.6,100.7-147.2,100.7-245.1
		S4138.5,522.6,4071.4,457.1z M4057.1,702.2c0,66.8-22.7,123.7-67.9,170.5c-45.3,46.9-100.9,70.3-166.7,70.3
		c-65.9,0-121.5-23.4-166.7-70.3c-45.3-46.9-67.9-103.7-67.9-170.5s22.6-123.6,67.9-170.5s100.8-70.3,166.7-70.3
		c65.9,0,121.4,23.4,166.7,70.3C4034.5,578.5,4057.1,635.3,4057.1,702.2z"/>
</g>
<g>
	<path class="st2" d="M4291,1018.2c-13.6-13.9-20.4-30.7-20.4-50.4c0-19.6,6.8-36.2,20.4-49.9c13.6-13.6,30.2-20.4,49.9-20.4
		c19.6,0,36.4,6.8,50.3,20.4c13.9,13.6,20.9,30.3,20.9,49.9c0,19.6-7,36.4-20.9,50.4c-13.9,13.9-30.7,20.9-50.3,20.9
		C4321.3,1039.1,4304.6,1032.1,4291,1018.2z"/>
</g>
<path class="st2" d="M4293.5,1018.9c-13.6-13.9-20.4-30.7-20.4-50.3s6.8-36.2,20.4-49.9c13.6-13.6,30.2-20.4,49.9-20.4
	c19.6,0,36.4,6.8,50.4,20.4c13.9,13.6,20.9,30.3,20.9,49.9c0,19.6-7,36.4-20.9,50.3c-13.9,13.9-30.7,20.9-50.4,20.9
	C4323.8,1039.8,4307.1,1032.8,4293.5,1018.9z"/>
<g>
	<path class="st2" d="M4525.1,490.9c-12.2-12.2-18.2-26.6-18.2-43.4c0-16.8,6.1-31.3,18.2-43.4c12.2-12.2,26.6-18.2,43.4-18.2
		c16.8,0,31.3,6.1,43.4,18.2c12.2,12.2,18.2,26.6,18.2,43.4c0,16.8-6.1,31.3-18.2,43.4c-12.2,12.2-26.6,18.2-43.4,18.2
		C4551.8,509.1,4537.3,503,4525.1,490.9z M4616.3,1045h-97.3v-462h97.3V1045z"/>
	<path class="st2" d="M4879.5,1045l-185.9-462h100.7l140.7,349.1l140.7-349.1h100.7l-185.9,462H4879.5z"/>
	<path class="st2" d="M5259.9,490.9c-12.2-12.2-18.2-26.6-18.2-43.4c0-16.8,6.1-31.3,18.2-43.4c12.2-12.2,26.6-18.2,43.4-18.2
		c16.8,0,31.3,6.1,43.4,18.2c12.2,12.2,18.2,26.6,18.2,43.4c0,16.8-6.1,31.3-18.2,43.4c-12.2,12.2-26.6,18.2-43.4,18.2
		C5286.5,509.1,5272,503,5259.9,490.9z M5351.1,1045h-97.3v-462h97.3V1045z"/>
	<path class="st2" d="M5921.6,856.5h-362.2c2.3,33.6,17.7,60.7,46,81.2c28.4,20.6,60.8,30.8,97.3,30.8c57.9,0,101.9-18.2,132-54.7
		l55.6,60.8c-49.8,51.5-114.6,77.3-194.5,77.3c-64.9,0-120-21.6-165.4-64.7c-45.5-43.1-68.2-101-68.2-173.7
		c0-72.7,23.2-130.4,69.5-173.3c46.3-42.8,100.9-64.3,163.7-64.3c62.8,0,116.2,19,160.2,56.9c44,37.9,66,90.2,66,156.8V856.5z
		 M5559.5,780.1h264.9c0-38.8-12.2-68.6-36.5-89.5c-24.3-20.8-54.3-31.3-89.9-31.3c-35.6,0-67.6,10.9-96,32.6
		C5573.7,713.7,5559.5,743,5559.5,780.1z"/>
	<path class="st2" d="M6244.7,1045h-111.2l-159.8-462h100.7l114.6,349.1l114.6-349.1h100.7l114.6,349.1l114.6-349.1h100.7
		l-159.8,462h-111.2l-109.4-316.1L6244.7,1045z"/>
	<path class="st2" d="M7250.4,856.5h-362.2c2.3,33.6,17.7,60.7,46,81.2c28.4,20.6,60.8,30.8,97.3,30.8c57.9,0,101.9-18.2,132-54.7
		l55.6,60.8c-49.8,51.5-114.6,77.3-194.5,77.3c-64.9,0-120-21.6-165.4-64.7c-45.5-43.1-68.2-101-68.2-173.7
		c0-72.7,23.2-130.4,69.5-173.3c46.3-42.8,100.9-64.3,163.7-64.3c62.8,0,116.2,19,160.2,56.9c44,37.9,66,90.2,66,156.8V856.5z
		 M6888.3,780.1h264.9c0-38.8-12.2-68.6-36.5-89.5c-24.3-20.8-54.3-31.3-89.9-31.3c-35.6,0-67.6,10.9-96,32.6
		C6902.4,713.7,6888.3,743,6888.3,780.1z"/>
	<path class="st2" d="M7599.5,674.1c-48.1,0-84.2,15.6-108.6,46.9c-24.3,31.3-36.5,73.3-36.5,125.9v198h-97.3v-462h97.3v92.9
		c15.6-28.9,36.9-52.7,63.8-71.2c26.9-18.5,55.4-28.1,85.5-28.7l0.9,98.1C7603,674.1,7601.3,674.1,7599.5,674.1z"/>
</g>
</svg>
