<?xml version="1.0" encoding="utf-8"?>
<!-- Generator: Adobe Illustrator 19.2.1, SVG Export Plug-In . SVG Version: 6.00 Build 0)  -->
<svg version="1.1" id="logo_-_color_1_" xmlns="http://www.w3.org/2000/svg" xmlns:xlink="http://www.w3.org/1999/xlink" x="0px"
	 y="0px" viewBox="0 0 5649 1409" style="enable-background:new 0 0 5649 1409;" xml:space="preserve">
<style type="text/css">
	.st0{fill:#FFFFFF;}
</style>
<g>
	<g>
		<path class="st0" d="M359.4,572c-4.7-4.8-10.4-7.2-15.8-7.2c-7,0-13.8,3.8-18.2,11.2l-31.7,52.8l-31.7,52.8
			c-7.9,13.2-7.9,34.8,0,48l31.7,52.8l31.7,52.8c4.4,7.4,11.2,11.2,18.2,11.2c5.5,0,11.1-2.4,15.8-7.2c0,0,65.2-66.3,67.3-130.6
			c0-1,0.1-2.1,0.1-3.1c0-1,0-2.1-0.1-3.1C424.6,638.3,359.4,572,359.4,572z"/>
		<path class="st0" d="M1308.3,681.7l-31.7-52.8l-31.7-52.8c-4.4-7.4-11.2-11.2-18.2-11.2c-5.5,0-11.1,2.4-15.8,7.2
			c0,0-65.2,66.3-67.3,130.6c0,1-0.1,2.1-0.1,3.1c0,1,0,2.1,0.1,3.1c2.1,64.3,67.3,130.6,67.3,130.6c4.7,4.8,10.4,7.2,15.8,7.2
			c7,0,13.7-3.8,18.2-11.2l31.7-52.8l31.7-52.8C1316.3,716.5,1316.3,694.9,1308.3,681.7z"/>
		<path class="st0" d="M941.9,705.7c0-86.6-70.2-156.8-156.8-156.8s-156.8,70.2-156.8,156.8c0,86.6,70.2,156.8,156.8,156.8
			S941.9,792.3,941.9,705.7z"/>
		<path class="st0" d="M1053.9,437c1.3,0,2.5-0.1,3.8-0.1c32.3-1,62.7-14.3,62.7-14.3c14.1-6.2,19.2-22,11.3-35.2l-31.7-52.8
			l-31.7-52.7c-7.9-13.2-27-23.9-42.4-23.9H902.7c-15.4,0-22.9,11.4-16.6,25.4C886.2,283.4,955,437,1053.9,437z"/>
		<path class="st0" d="M449.8,422.6c0,0,30.4,13.2,62.7,14.2c1.3,0,2.5,0.1,3.8,0.1c99,0,167.8-153.6,167.8-153.6
			c6.3-14.1-1.2-25.4-16.6-25.4H544.3c-15.4,0-34.5,10.7-42.4,23.9l-31.7,52.8l-31.7,52.8C430.6,400.6,435.7,416.5,449.8,422.6z"/>
		<path class="st0" d="M1120.5,988.9c0,0-30.4-13.3-62.7-14.3c-1.3,0-2.5-0.1-3.8-0.1c-99,0-167.8,153.8-167.8,153.8
			c-6.3,14.1,1.2,25.7,16.6,25.7h123.2c15.4,0,34.5-10.9,42.4-24.1l31.7-52.9l31.7-52.9C1139.7,1010.9,1134.6,995,1120.5,988.9z"/>
		<path class="st0" d="M516.3,974.6c-1.3,0-2.5,0-3.8,0c-32.3,1-62.7,14.2-62.7,14.2c-14.1,6.2-19.2,22-11.3,35.2l31.7,52.8l31.7,53
			c7.9,13.2,27,24.1,42.4,24.1h123.2c15.4,0,22.9-11.6,16.6-25.7C684.1,1128.3,615.3,974.6,516.3,974.6z"/>
	</g>
	<g>
		<path class="st0" d="M2168.8,461.6c-67.1-65.5-150.1-98.3-248.9-98.3S1738.1,396,1671,461.6c-67.1,65.5-100.7,147.2-100.7,245.1
			c0,97.9,33.6,179.5,100.7,245.1c67.1,65.5,150.1,98.3,248.9,98.3s181.8-32.8,248.9-98.3c67.1-65.6,100.7-147.2,100.7-245.1
			C2269.5,608.8,2235.9,527.1,2168.8,461.6z M2154.6,706.7c0,66.8-22.7,123.7-67.9,170.5c-45.3,46.9-100.9,70.3-166.7,70.3
			c-65.9,0-121.5-23.4-166.7-70.3c-45.3-46.9-67.9-103.7-67.9-170.5c0-66.8,22.6-123.6,67.9-170.5c45.3-46.9,100.8-70.3,166.7-70.3
			c65.9,0,121.4,23.4,166.7,70.3C2131.9,583,2154.6,639.8,2154.6,706.7z"/>
		<polygon class="st0" points="2995.3,386 2794.8,803.1 2594.4,386 2419,386 2419,1050 2531,1050 2531,531.4 2762.5,992 2825.2,992 
			3057,531.4 3057,1050 3169,1050 3169,386 		"/>
		<polygon class="st0" points="3490,945 3490,767 3808,767 3808,667 3490,667 3490,491 3844,491 3844,386 3378,386 3378,1050 
			3856,1050 3856,945 		"/>
		<path class="st0" d="M4413.6,808.7c95.6-28.5,143.4-97.5,143.4-207.1c0-75.4-21.9-130.2-65.5-164.4S4375.3,386,4274,386h-248v664
			h113V827h147.3l158.6,223h142.5L4413.6,808.7z M4139,488h142.6c60.2,0,102,7.9,125.4,24.1c23.4,16.1,35.1,45.8,35.1,89.2
			c0,43.4-11.4,74.8-34.2,94.4c-22.8,19.6-65.9,29.3-129.2,29.3H4139V488z"/>
		<path class="st0" d="M5292.4,461.6c-67.1-65.5-150.1-98.3-248.9-98.3c-98.8,0-181.8,32.8-248.9,98.3
			c-67.1,65.5-100.7,147.2-100.7,245.1c0,97.9,33.6,179.5,100.7,245.1c67.1,65.5,150.1,98.3,248.9,98.3
			c98.8,0,181.8-32.8,248.9-98.3c67.1-65.6,100.7-147.2,100.7-245.1C5393.1,608.8,5359.5,527.1,5292.4,461.6z M5278.1,706.7
			c0,66.8-22.7,123.7-67.9,170.5c-45.3,46.9-100.9,70.3-166.7,70.3c-65.9,0-121.5-23.4-166.7-70.3c-45.3-46.9-67.9-103.7-67.9-170.5
			c0-66.8,22.6-123.6,67.9-170.5c45.3-46.9,100.8-70.3,166.7-70.3c65.9,0,121.4,23.4,166.7,70.3
			C5255.5,583,5278.1,639.8,5278.1,706.7z"/>
	</g>
</g>
</svg>
