<?xml version="1.0" encoding="utf-8"?>
<!-- Generator: Adobe Illustrator 19.2.1, SVG Export Plug-In . SVG Version: 6.00 Build 0)  -->
<svg version="1.1" id="Layer_1" xmlns="http://www.w3.org/2000/svg" xmlns:xlink="http://www.w3.org/1999/xlink" x="0px" y="0px"
	 viewBox="0 0 1290 125" style="enable-background:new 0 0 1290 125;" xml:space="preserve">
<style type="text/css">
	.st0{opacity:0.8;fill:#FFFFFF;}
</style>
<path class="st0" d="M438.4,81.3c-2.6-10.1-11.8-17.5-22.7-17.5c-3.3,0-6.5,0.7-9.3,1.9c-3.3-15.6-17.1-27.3-33.7-27.3
	c-15.7,0-29,10.6-33.1,25c-4.6-4.6-10.9-7.4-17.9-7.4c-14,0-25.4,11.4-25.4,25.4H438.4z"/>
<path class="st0" d="M494.2,106c-1.6-6.1-7.2-10.6-13.8-10.6c-2,0-3.9,0.4-5.7,1.2c-2-9.5-10.4-16.6-20.5-16.6
	c-9.6,0-17.6,6.4-20.1,15.2c-2.8-2.8-6.6-4.5-10.9-4.5c-8.5,0-15.4,6.9-15.4,15.4H494.2z"/>
<path class="st0" d="M16.8,57.5c2.1-8.1,9.5-14,18.2-14c2.7,0,5.2,0.6,7.5,1.5c2.6-12.5,13.7-21.9,27-21.9c12.6,0,23.2,8.4,26.5,20
	c3.7-3.7,8.8-5.9,14.4-5.9c11.2,0,20.3,9.1,20.3,20.3H16.8z"/>
<path class="st0" d="M1046.9,61.7c2.6-10.1,11.8-17.5,22.7-17.5c3.3,0,6.5,0.7,9.3,1.9c3.3-15.6,17.1-27.3,33.7-27.3
	c15.7,0,29,10.6,33.1,25c4.6-4.6,10.9-7.4,17.9-7.4c14,0,25.4,11.4,25.4,25.4H1046.9z"/>
<path class="st0" d="M1275.4,124.9c-1.6-6.1-7.2-10.6-13.8-10.6c-2,0-3.9,0.4-5.7,1.2c-2-9.5-10.4-16.6-20.5-16.6
	c-9.6,0-17.6,6.4-20.1,15.2c-2.8-2.8-6.6-4.5-10.9-4.5c-8.5,0-15.4,6.9-15.4,15.4H1275.4z"/>
<path class="st0" d="M840.1,45c1.3-5.1,6-8.9,11.6-8.9c1.7,0,3.3,0.4,4.8,1c1.7-8,8.7-13.9,17.2-13.9c8,0,14.8,5.4,16.9,12.7
	c2.3-2.3,5.6-3.8,9.1-3.8c7.1,0,12.9,5.8,12.9,12.9H840.1z"/>
</svg>
