<?xml version="1.0" encoding="utf-8"?>
<!-- Generator: Adobe Illustrator 19.2.1, SVG Export Plug-In . SVG Version: 6.00 Build 0)  -->
<svg version="1.1" id="Layer_1" xmlns="http://www.w3.org/2000/svg" xmlns:xlink="http://www.w3.org/1999/xlink" x="0px" y="0px"
	 viewBox="0 0 36 36" style="enable-background:new 0 0 36 36;" xml:space="preserve">
<style type="text/css">
	.st0{opacity:4.000000e-02;}
</style>
<g class="st0">
	<g>
		<rect x="2" y="1" width="4" height="4"/>
		<rect x="8" y="1" width="4" height="4"/>
		<rect x="2" y="7" width="10" height="4"/>
		<rect x="8" y="13" width="4" height="4"/>
		<rect x="8" y="19" width="4" height="4"/>
		<rect x="2" y="13" width="4" height="10"/>
		<rect x="20" y="1" width="4" height="4"/>
		<rect x="20" y="7" width="4" height="4"/>
		<rect x="14" y="1" width="4" height="10"/>
		<rect x="8" y="31" width="4" height="4"/>
		<rect x="2" y="31" width="4" height="4"/>
		<rect x="2" y="25" width="10" height="4"/>
		<rect x="32" y="1" width="4" height="4"/>
		<rect x="26" y="1" width="4" height="4"/>
		<rect x="26" y="7" width="10" height="4"/>
		<rect x="26" y="13" width="4" height="4"/>
		<rect x="26" y="19" width="4" height="4"/>
		<rect x="32" y="13" width="4" height="10"/>
		<rect x="14" y="25" width="4" height="4"/>
		<rect x="14" y="31" width="4" height="4"/>
		<rect x="20" y="25" width="4" height="10"/>
		<rect x="26" y="31" width="4" height="4"/>
		<rect x="32" y="31" width="4" height="4"/>
		<rect x="26" y="25" width="10" height="4"/>
	</g>
	<rect x="14" y="19" width="10" height="4"/>
	<rect x="14" y="13" width="10" height="4"/>
</g>
</svg>
