<?xml version="1.0" encoding="utf-8"?>
<!-- Generator: Adobe Illustrator 19.2.1, SVG Export Plug-In . SVG Version: 6.00 Build 0)  -->
<svg version="1.1" xmlns="http://www.w3.org/2000/svg" xmlns:xlink="http://www.w3.org/1999/xlink" x="0px" y="0px"
	 viewBox="0 0 1290 500" style="enable-background:new 0 0 1290 500;" xml:space="preserve">
<style type="text/css">
	.st0{fill:#FFFFFF;stroke:#FFFFFF;stroke-miterlimit:10;}
	.st1{opacity:0.6;fill:#EF5350;}
	.st2{opacity:0.6;fill:#009688;}
	.st3{opacity:0.6;fill:#03A9F4;}
	.st4{fill:#CFD8DC;stroke:#CFD8DC;stroke-width:2;stroke-miterlimit:10;}
	.st5{display:none;}
	.st6{display:inline;}
	.st7{fill:none;stroke:#000000;stroke-miterlimit:10;}
	.st8{fill:#EF5350;}
	.st9{fill:#03A9F4;}
	.st10{fill:#009688;}
	.st11{fill:none;stroke:#263238;stroke-width:2;stroke-miterlimit:10;}
	.st12{fill:#FFFFFF;}
	.st13{fill:#CFD8DC;}
	.st14{fill:#263238;}
	.st15{fill:#EF5350;stroke:#263238;stroke-width:2;stroke-miterlimit:10;}
	.st16{fill:#009688;stroke:#263238;stroke-width:2;stroke-miterlimit:10;}
	.st17{fill:#03A9F4;stroke:#263238;stroke-width:2;stroke-miterlimit:10;}
	.st18{fill:#CFD8DC;stroke:#263238;stroke-width:2;stroke-miterlimit:10;}
	.st19{fill:#FFFFFF;stroke:#263238;stroke-width:2;stroke-miterlimit:10;}
</style>
<g id="cuts">
	
		<image style="display:none;overflow:visible;" width="1440" height="528" xlink:href="1D94124C7000339C.jpg"  transform="matrix(1 0 0 1 -75 -14)">
	</image>
	<g>
		<path class="st0" d="M153.8,281.9"/>
		<path class="st0" d="M268,186"/>
		<path class="st0" d="M291,240"/>
		<path class="st0" d="M279.8,279.4"/>
		<path class="st0" d="M179.4,174.6"/>
		<path class="st0" d="M216,240"/>
		<path class="st0" d="M142.5,224.9"/>
		<path class="st0" d="M1078.7,259.5"/>
		<path class="st0" d="M1200.3,167.3"/>
		<path class="st0" d="M1182.7,271"/>
		<path class="st0" d="M1182.4,270.8"/>
		<path class="st0" d="M893,370"/>
		<path class="st0" d="M894.3,360.4"/>
		<path class="st0" d="M962.8,366.4"/>
		<path class="st0" d="M334.5,313.2"/>
		<path class="st0" d="M457.6,379.3"/>
		<path class="st0" d="M456.9,380.8"/>
		<path class="st0" d="M394,420"/>
		<path class="st0" d="M324,350"/>
		<path class="st0" d="M1091,286.3"/>
		<path class="st0" d="M1163.5,295.2"/>
		<path class="st0" d="M1130,78.6"/>
		<path class="st0" d="M1183.1,117.8"/>
		<path class="st0" d="M113.5,341.9"/>
		<path class="st0" d="M34,335.6"/>
		<path class="st0" d="M107.2,313.2"/>
		<path class="st0" d="M865.7,352.2"/>
		<path class="st0" d="M1062,76.3"/>
		<path class="st0" d="M232.1,360.7c-0.1,0.4-0.1,0.8-0.1,1.3"/>
		<path class="st0" d="M282.3,50.1"/>
		<path class="st0" d="M268,186"/>
		<path class="st0" d="M156.4,133.6l22.9,40.9"/>
		<path class="st0" d="M282.3,50.1L180.3,77.2"/>
		<path class="st0" d="M153.8,281.9l-46.6,31.4"/>
		<path class="st0" d="M113.5,341.9l118.6,18.9"/>
		<path class="st0" d="M928,335"/>
		<path class="st0" d="M865.7,352.2l28.7,8.2"/>
		<path class="st0" d="M1091,286.3l-12.2-26.8"/>
		<path class="st0" d="M962.8,366.4l87.6-9.1"/>
		<path class="st0" d="M142.5,224.9l-74.7-15.3"/>
		<path class="st0" d="M334.5,313.2l-54.7-33.8"/>
		<path class="st0" d="M516.7,406.7l-59.2-27.3"/>
		<path class="st0" d="M216,240"/>
		<path class="st0" d="M1182.6,271.1l-19.1,24.1"/>
		<path class="st0" d="M1190,350c0,0.4,0,0.8,0,1.2l38,0.7"/>
		<path class="st0" d="M1182.4,270.8l0.2,0.3"/>
		<path class="st0" d="M1130,78.6l-68-2.3"/>
		<path class="st0" d="M1170,120"/>
		<path class="st0" d="M1200.3,167.3l-17.2-49.5"/>
	</g>
</g>
<g id="ellipses">
	
		<image style="display:none;overflow:visible;" width="1440" height="528" xlink:href="1D94124C7000339D.jpg"  transform="matrix(1 0 0 1 -75 -14)">
	</image>
	<circle class="st1" cx="132" cy="90" r="50"/>
	<circle class="st2" cx="216" cy="240" r="75"/>
	<circle class="st2" cx="1058" cy="214" r="50"/>
	<circle class="st1" cx="1220" cy="224" r="60"/>
	<circle class="st1" cx="928" cy="370" r="35"/>
	<circle class="st3" cx="394" cy="350" r="70"/>
	<circle class="st3" cx="1120" cy="350" r="70"/>
	<circle class="st3" cx="1170" cy="80" r="40"/>
	<circle class="st3" cx="74" cy="335.6" r="40"/>
	<circle class="st4" cx="524" cy="410" r="8"/>
	<circle class="st4" cx="858" cy="350" r="8"/>
	<circle class="st4" cx="1054" cy="76" r="8"/>
	<circle class="st4" cx="240" cy="362" r="8"/>
	<circle class="st4" cx="290" cy="48" r="8"/>
	<circle class="st4" cx="1236" cy="352" r="8"/>
	<circle class="st4" cx="60" cy="208" r="8"/>
</g>
<g id="objects">
	<g id="share">
		<g>
			<g id="XMLID_50_">
				<g>
					<path class="st8" d="M63,337c0,0.8-0.2,1.5-0.5,2.2c-0.8,1.6-2.5,2.8-4.5,2.8c-2.8,0-5-2.2-5-5s2.2-5,5-5c1.9,0,3.5,1,4.3,2.5
						C62.7,335.3,63,336.1,63,337z"/>
					<path class="st9" d="M86,346c2.8,0,5,2.2,5,5s-2.2,5-5,5s-5-2.2-5-5c0-0.8,0.2-1.5,0.6-2.2C82.4,347.1,84,346,86,346z"/>
					<path class="st10" d="M89.5,317.5c1.9,2,1.9,5.1,0,7.1c-1,1-2.3,1.5-3.5,1.5s-2.6-0.5-3.5-1.5c-0.3-0.3-0.6-0.7-0.8-1.1
						c-1.1-1.9-0.8-4.4,0.8-6C84.4,315.5,87.6,315.5,89.5,317.5z"/>
				</g>
				<g>
					<path class="st11" d="M62.5,339.2c-0.8,1.6-2.5,2.8-4.5,2.8c-2.8,0-5-2.2-5-5s2.2-5,5-5c1.9,0,3.5,1,4.3,2.5"/>
					<path class="st11" d="M81.6,348.8c0.8-1.6,2.5-2.8,4.4-2.8c2.8,0,5,2.2,5,5s-2.2,5-5,5s-5-2.2-5-5
						C81,350.2,81.2,349.5,81.6,348.8z"/>
					<line class="st11" x1="81.6" y1="348.8" x2="62.5" y2="339.2"/>
					<path class="st11" d="M81.7,323.5l-19.4,11.1c0.4,0.7,0.7,1.6,0.7,2.5c0,0.8-0.2,1.5-0.5,2.2"/>
					<path class="st11" d="M81.7,323.5c-1.1-1.9-0.8-4.4,0.8-6c2-1.9,5.1-1.9,7.1,0c1.9,2,1.9,5.1,0,7.1c-1,1-2.3,1.5-3.5,1.5
						s-2.6-0.5-3.5-1.5C82.1,324.2,81.9,323.9,81.7,323.5z"/>
				</g>
			</g>
		</g>
	</g>
	<g>
		<g id="XMLID_2_">
			<g>
				<path class="st12" d="M265,212v57c0,1.1-0.9,2-2,2h-44h-6h-44c-1.1,0-2-0.9-2-2v-57H265z M260,265v-46h-16v46H260z M239,265v-6
					h-6v6H239z M239,255v-6h-6v6H239z M239,245v-6h-6v6H239z M239,235v-6h-6v6H239z M239,225v-6h-6v6H239z M229,265v-6h-6v6H229z
					 M229,255v-6h-6v6H229z M229,245v-6h-6v6H229z M229,235v-6h-6v6H229z M229,225v-6h-6v6H229z M219,265v-6h-6v6H219z M219,255v-6
					h-6v6H219z M219,245v-6h-6v6H219z M219,235v-6h-6v6H219z M219,225v-6h-6v6H219z M209,265v-6h-6v6H209z M209,255v-6h-6v6H209z
					 M209,245v-6h-6v6H209z M209,235v-6h-6v6H209z M209,225v-6h-6v6H209z M199,265v-6h-6v6H199z M199,255v-6h-6v6H199z M199,245v-6
					h-6v6H199z M199,235v-6h-6v6H199z M199,225v-6h-6v6H199z M188,265v-46h-16v46H188z"/>
				<rect x="167" y="208" class="st9" width="98" height="4"/>
				<path class="st13" d="M265,199v9h-98v-9c0-1.1,0.9-2,2-2h94C264.1,197,265,197.9,265,199z M218,202c0-1.1-0.9-2-2-2s-2,0.9-2,2
					s0.9,2,2,2S218,203.1,218,202z"/>
				<rect x="244" y="219" class="st13" width="16" height="46"/>
				<polygon class="st13" points="240,283 240,287 192,287 192,283 213,283 219,283 				"/>
				<rect x="233" y="259" class="st8" width="6" height="6"/>
				<rect x="233" y="249" class="st9" width="6" height="6"/>
				<rect x="233" y="239" class="st10" width="6" height="6"/>
				<rect x="233" y="229" class="st8" width="6" height="6"/>
				<rect x="233" y="219" class="st9" width="6" height="6"/>
				<rect x="223" y="259" class="st10" width="6" height="6"/>
				<rect x="223" y="249" class="st8" width="6" height="6"/>
				<rect x="223" y="239" class="st9" width="6" height="6"/>
				<rect x="223" y="229" class="st10" width="6" height="6"/>
				<rect x="223" y="219" class="st8" width="6" height="6"/>
				<rect x="213" y="271" class="st13" width="6" height="12"/>
				<rect x="213" y="259" class="st9" width="6" height="6"/>
				<rect x="213" y="249" class="st10" width="6" height="6"/>
				<rect x="213" y="239" class="st8" width="6" height="6"/>
				<rect x="213" y="229" class="st9" width="6" height="6"/>
				<rect x="213" y="219" class="st10" width="6" height="6"/>
				<rect x="203" y="259" class="st8" width="6" height="6"/>
				<rect x="203" y="249" class="st9" width="6" height="6"/>
				<rect x="203" y="239" class="st10" width="6" height="6"/>
				<rect x="203" y="229" class="st8" width="6" height="6"/>
				<rect x="203" y="219" class="st9" width="6" height="6"/>
				<rect x="193" y="259" class="st10" width="6" height="6"/>
				<rect x="193" y="249" class="st8" width="6" height="6"/>
				<rect x="193" y="239" class="st9" width="6" height="6"/>
				<rect x="193" y="229" class="st10" width="6" height="6"/>
				<rect x="193" y="219" class="st8" width="6" height="6"/>
				<rect x="172" y="219" class="st13" width="16" height="46"/>
			</g>
			<g>
				<path class="st11" d="M167,208v-9c0-1.1,0.9-2,2-2h94c1.1,0,2,0.9,2,2v9v4v57c0,1.1-0.9,2-2,2h-44"/>
				<path class="st11" d="M213,271h-44c-1.1,0-2-0.9-2-2v-57"/>
				<polyline class="st11" points="265,208 167,208 167,212 265,212 				"/>
				<rect x="213" y="219" class="st11" width="6" height="6"/>
				<rect x="213" y="229" class="st11" width="6" height="6"/>
				<rect x="213" y="239" class="st11" width="6" height="6"/>
				<rect x="213" y="249" class="st11" width="6" height="6"/>
				<rect x="213" y="259" class="st11" width="6" height="6"/>
				<rect x="203" y="219" class="st11" width="6" height="6"/>
				<rect x="203" y="229" class="st11" width="6" height="6"/>
				<rect x="203" y="239" class="st11" width="6" height="6"/>
				<rect x="203" y="249" class="st11" width="6" height="6"/>
				<rect x="203" y="259" class="st11" width="6" height="6"/>
				<rect x="193" y="219" class="st11" width="6" height="6"/>
				<rect x="193" y="229" class="st11" width="6" height="6"/>
				<rect x="193" y="239" class="st11" width="6" height="6"/>
				<rect x="193" y="249" class="st11" width="6" height="6"/>
				<rect x="193" y="259" class="st11" width="6" height="6"/>
				<rect x="223" y="219" class="st11" width="6" height="6"/>
				<rect x="223" y="229" class="st11" width="6" height="6"/>
				<rect x="223" y="239" class="st11" width="6" height="6"/>
				<rect x="223" y="249" class="st11" width="6" height="6"/>
				<rect x="223" y="259" class="st11" width="6" height="6"/>
				<rect x="233" y="219" class="st11" width="6" height="6"/>
				<rect x="233" y="229" class="st11" width="6" height="6"/>
				<rect x="233" y="239" class="st11" width="6" height="6"/>
				<rect x="233" y="249" class="st11" width="6" height="6"/>
				<rect x="233" y="259" class="st11" width="6" height="6"/>
				<rect x="172" y="219" class="st11" width="16" height="46"/>
				<rect x="244" y="219" class="st11" width="16" height="46"/>
				<polyline class="st11" points="213,283 213,271 219,271 219,283 				"/>
				<polygon class="st11" points="219,283 240,283 240,287 192,287 192,283 213,283 				"/>
				<circle class="st11" cx="216" cy="202" r="2"/>
			</g>
		</g>
	</g>
	<g id="XMLID_4_">
		<g>
			<polygon class="st8" points="1183,87 1183,93 1177,93 1177,90 1177,87 1180,87 			"/>
			<polygon class="st10" points="1163,90 1163,93 1157,93 1157,87 1160,87 1163,87 			"/>
			<polygon class="st13" points="1163,73 1160,73 1157,73 1157,67 1163,67 1163,70 			"/>
			<polygon class="st10" points="1183,67 1183,73 1180,73 1177,73 1177,70 1177,67 			"/>
		</g>
		<g>
			<polygon class="st11" points="1163,70 1163,73 1160,73 1157,73 1157,67 1163,67 			"/>
			<polygon class="st11" points="1177,70 1177,67 1183,67 1183,73 1180,73 1177,73 			"/>
			<polygon class="st11" points="1163,90 1163,93 1157,93 1157,87 1160,87 1163,87 			"/>
			<polygon class="st11" points="1180,87 1183,87 1183,93 1177,93 1177,90 1177,87 			"/>
			<line class="st11" x1="1163" y1="90" x2="1177" y2="90"/>
			<line class="st11" x1="1160" y1="73" x2="1160" y2="87"/>
			<line class="st11" x1="1177" y1="70" x2="1163" y2="70"/>
			<line class="st11" x1="1180" y1="87" x2="1180" y2="73"/>
		</g>
	</g>
	<g id="cog">
		<g id="XMLID_10_">
			<g>
				<path class="st9" d="M149,74.2v3.5c0,1-0.8,1.8-1.8,1.8h-2.1c-1,0-2,0.8-2.3,1.7l-1.2,3c-0.5,0.9-0.3,2.1,0.4,2.8l1.5,1.5
					c0.7,0.7,0.7,1.8,0,2.5l-2.5,2.5c-0.7,0.7-1.8,0.7-2.5,0L137,92c-0.7-0.7-2-0.9-2.8-0.4l-3,1.2c-0.9,0.3-1.7,1.3-1.7,2.3v2.1
					c0,1-0.8,1.8-1.8,1.8h-3.5c-1,0-1.8-0.8-1.8-1.8v-2.1c0-1-0.8-2-1.7-2.3l-3-1.2c-0.9-0.5-2.1-0.3-2.8,0.4l-1.5,1.5
					c-0.7,0.7-1.8,0.7-2.5,0l-2.5-2.5c-0.7-0.7-0.7-1.8,0-2.5L110,87c0.7-0.7,0.9-2,0.4-2.8l-1.2-3c-0.3-0.9-1.3-1.7-2.3-1.7h-2.1
					c-1,0-1.8-0.8-1.8-1.8v-3.5c0-1,0.8-1.8,1.8-1.8h2.1c1,0,2-0.8,2.3-1.7l1.2-3c0.5-0.9,0.3-2.1-0.4-2.8l-1.5-1.5
					c-0.7-0.7-0.7-1.8,0-2.5l2.5-2.5c0.7-0.7,1.8-0.7,2.5,0L115,60c0.7,0.7,2,0.9,2.8,0.4l3-1.2c0.9-0.3,1.7-1.3,1.7-2.3v-2.1
					c0-1,0.8-1.8,1.8-1.8h3.5c1,0,1.8,0.8,1.8,1.8v2.1c0,1,0.8,2,1.7,2.3l3,1.2c0.9,0.5,2.1,0.3,2.8-0.4l1.5-1.5
					c0.7-0.7,1.8-0.7,2.5,0l2.5,2.5c0.7,0.7,0.7,1.8,0,2.5L142,65c-0.7,0.7-0.9,2-0.4,2.8l1.2,3c0.3,0.9,1.3,1.7,2.3,1.7h2.1
					C148.2,72.5,149,73.3,149,74.2z M134.9,76c0-4.9-4-8.9-8.9-8.9c-4.9,0-8.9,4-8.9,8.9s4,8.8,8.9,8.8
					C130.9,84.8,134.9,80.9,134.9,76z"/>
			</g>
			<g>
				<path class="st11" d="M147.2,72.5h-2.1c-1,0-2-0.8-2.3-1.7l-1.2-3c-0.5-0.9-0.3-2.1,0.4-2.8l1.5-1.5c0.7-0.7,0.7-1.8,0-2.5
					l-2.5-2.5c-0.7-0.7-1.8-0.7-2.5,0L137,60c-0.7,0.7-2,0.9-2.8,0.4l-3-1.2c-0.9-0.3-1.7-1.3-1.7-2.3v-2.1c0-1-0.8-1.8-1.8-1.8
					h-3.5c-1,0-1.8,0.8-1.8,1.8v2.1c0,1-0.8,2-1.7,2.3l-3,1.2c-0.9,0.5-2.1,0.3-2.8-0.4l-1.5-1.5c-0.7-0.7-1.8-0.7-2.5,0l-2.5,2.5
					c-0.7,0.7-0.7,1.8,0,2.5L110,65c0.7,0.7,0.9,2,0.4,2.8l-1.2,3c-0.3,0.9-1.3,1.7-2.3,1.7h-2.1c-1,0-1.8,0.8-1.8,1.8v3.5
					c0,1,0.8,1.8,1.8,1.8h2.1c1,0,2,0.8,2.3,1.7l1.2,3c0.5,0.9,0.3,2.1-0.4,2.8l-1.5,1.5c-0.7,0.7-0.7,1.8,0,2.5l2.5,2.5
					c0.7,0.7,1.8,0.7,2.5,0L115,92c0.7-0.7,2-0.9,2.8-0.4l3,1.2c0.9,0.3,1.7,1.3,1.7,2.3v2.1c0,1,0.8,1.8,1.8,1.8h3.5
					c1,0,1.8-0.8,1.8-1.8v-2.1c0-1,0.8-2,1.7-2.3l3-1.2c0.9-0.5,2.1-0.3,2.8,0.4l1.5,1.5c0.7,0.7,1.8,0.7,2.5,0l2.5-2.5
					c0.7-0.7,0.7-1.8,0-2.5L142,87c-0.7-0.7-0.9-2-0.4-2.8l1.2-3c0.3-0.9,1.3-1.7,2.3-1.7h2.1c1,0,1.8-0.8,1.8-1.8v-3.5
					C149,73.3,148.2,72.5,147.2,72.5z"/>
				<path class="st11" d="M134.9,76c0,4.9-4,8.8-8.9,8.8c-4.9,0-8.9-4-8.9-8.8s4-8.9,8.9-8.9C130.9,67.1,134.9,71.1,134.9,76z"/>
			</g>
		</g>
	</g>
	<g id="cog_1_">
		<g id="XMLID_5_">
			<g>
				<path class="st13" d="M158,113.1v1.8c0,0.5-0.4,0.9-0.9,0.9H156c-0.5,0-1,0.4-1.2,0.9l-0.6,1.5c-0.2,0.4-0.1,1.1,0.2,1.5
					l0.8,0.8c0.4,0.4,0.4,0.9,0,1.3l-1.3,1.3c-0.4,0.4-0.9,0.4-1.3,0l-0.8-0.8c-0.4-0.4-1-0.5-1.5-0.2l-1.5,0.6
					c-0.5,0.1-0.9,0.7-0.9,1.2v1.1c0,0.5-0.4,0.9-0.9,0.9h-1.8c-0.5,0-0.9-0.4-0.9-0.9V124c0-0.5-0.4-1-0.9-1.2l-1.5-0.6
					c-0.4-0.2-1.1-0.1-1.5,0.2l-0.8,0.8c-0.4,0.4-0.9,0.4-1.3,0l-1.3-1.3c-0.4-0.4-0.4-0.9,0-1.3l0.8-0.8c0.4-0.4,0.5-1,0.2-1.5
					l-0.6-1.5c-0.1-0.5-0.7-0.9-1.2-0.9h-1.1c-0.5,0-0.9-0.4-0.9-0.9v-1.8c0-0.5,0.4-0.9,0.9-0.9h1.1c0.5,0,1-0.4,1.2-0.9l0.6-1.5
					c0.2-0.4,0.1-1.1-0.2-1.5l-0.8-0.8c-0.4-0.4-0.4-0.9,0-1.3l1.3-1.3c0.4-0.4,0.9-0.4,1.3,0l0.8,0.8c0.4,0.4,1,0.5,1.5,0.2
					l1.5-0.6c0.5-0.1,0.9-0.7,0.9-1.2v-1.1c0-0.5,0.4-0.9,0.9-0.9h1.8c0.5,0,0.9,0.4,0.9,0.9v1.1c0,0.5,0.4,1,0.9,1.2l1.5,0.6
					c0.4,0.2,1.1,0.1,1.5-0.2l0.8-0.8c0.4-0.4,0.9-0.4,1.3,0l1.3,1.3c0.4,0.4,0.4,0.9,0,1.3l-0.8,0.8c-0.4,0.4-0.5,1-0.2,1.5
					l0.6,1.5c0.2,0.5,0.7,0.9,1.2,0.9h1.1C157.6,112.2,158,112.6,158,113.1z M150.6,114c0-2.5-2.1-4.6-4.6-4.6
					c-2.6,0-4.6,2.1-4.6,4.6s2.1,4.6,4.6,4.6C148.6,118.6,150.6,116.5,150.6,114z"/>
			</g>
			<g>
				<path class="st11" d="M157.1,112.2H156c-0.5,0-1-0.4-1.2-0.9l-0.6-1.5c-0.2-0.4-0.1-1.1,0.2-1.5l0.8-0.8c0.4-0.4,0.4-0.9,0-1.3
					l-1.3-1.3c-0.4-0.4-0.9-0.4-1.3,0l-0.8,0.8c-0.4,0.4-1,0.5-1.5,0.2l-1.5-0.6c-0.5-0.1-0.9-0.7-0.9-1.2v-1.1
					c0-0.5-0.4-0.9-0.9-0.9h-1.8c-0.5,0-0.9,0.4-0.9,0.9v1.1c0,0.5-0.4,1-0.9,1.2l-1.5,0.6c-0.5,0.2-1.1,0.1-1.5-0.2l-0.8-0.8
					c-0.4-0.4-0.9-0.4-1.3,0l-1.3,1.3c-0.4,0.4-0.4,0.9,0,1.3l0.8,0.8c0.4,0.4,0.5,1,0.2,1.5l-0.6,1.5c-0.2,0.5-0.7,0.9-1.2,0.9
					h-1.1c-0.5,0-0.9,0.4-0.9,0.9v1.8c0,0.5,0.4,0.9,0.9,0.9h1.1c0.5,0,1,0.4,1.2,0.9l0.6,1.5c0.2,0.4,0.1,1.1-0.2,1.5l-0.8,0.8
					c-0.4,0.4-0.4,0.9,0,1.3l1.3,1.3c0.4,0.4,0.9,0.4,1.3,0l0.8-0.8c0.4-0.4,1-0.5,1.5-0.2l1.5,0.6c0.5,0.1,0.9,0.7,0.9,1.2v1.1
					c0,0.5,0.4,0.9,0.9,0.9h1.8c0.5,0,0.9-0.4,0.9-0.9V124c0-0.5,0.4-1,0.9-1.2l1.5-0.6c0.4-0.2,1.1-0.1,1.5,0.2l0.8,0.8
					c0.4,0.4,0.9,0.4,1.3,0l1.3-1.3c0.4-0.4,0.4-0.9,0-1.3l-0.8-0.8c-0.4-0.4-0.5-1-0.2-1.5l0.6-1.5c0.2-0.5,0.7-0.9,1.2-0.9h1.1
					c0.5,0,0.9-0.4,0.9-0.9v-1.8C158,112.6,157.6,112.2,157.1,112.2z"/>
				<ellipse class="st11" cx="146" cy="114" rx="4.6" ry="4.6"/>
			</g>
		</g>
	</g>
	<g id="Live_Paint_12_">
		<g id="XMLID_37_">
			<g>
				<path class="st12" d="M1208,187c12.7,0,23,7.9,23,17.7c0,9.8-10.3,17.7-23,17.7c-0.6,0-1.1,0-1.7-0.1l-2.5,5.8
					c-0.4,1-1.3,1.1-2,0.2l-7.7-9.5c-5.6-3.2-9.2-8.4-9.2-14.2C1185,194.9,1195.3,187,1208,187z M1221,206c0-1.7-1.3-3-3-3
					s-3,1.3-3,3s1.3,3,3,3S1221,207.7,1221,206z M1211,206c0-1.7-1.3-3-3-3s-3,1.3-3,3s1.3,3,3,3S1211,207.7,1211,206z M1201,206
					c0-1.7-1.3-3-3-3s-3,1.3-3,3s1.3,3,3,3S1201,207.7,1201,206z"/>
				<circle class="st10" cx="1218" cy="206" r="3"/>
				<circle class="st8" cx="1198" cy="206" r="3"/>
				<circle class="st9" cx="1208" cy="206" r="3"/>
			</g>
			<g>
				<path class="st11" d="M1203.8,228.2l2.5-5.8c0.6,0,1.1,0.1,1.7,0.1c12.7,0,23-7.9,23-17.7c0-9.8-10.3-17.7-23-17.7
					c-12.7,0-23,7.9-23,17.7c0,5.8,3.6,10.9,9.2,14.2l7.7,9.5C1202.5,229.3,1203.4,229.2,1203.8,228.2z"/>
				<circle class="st11" cx="1198" cy="206" r="3"/>
				<circle class="st11" cx="1208" cy="206" r="3"/>
				<circle class="st11" cx="1218" cy="206" r="3"/>
			</g>
		</g>
	</g>
	<g id="Live_Paint_1_">
		<g id="XMLID_1_">
			<g>
				<path class="st12" d="M1232,221c-12.7,0-23,7.9-23,17.7c0,9.8,10.3,17.7,23,17.7c0.6,0,1.1,0,1.7-0.1l2.5,5.8
					c0.4,1,1.3,1.1,2,0.2l7.7-9.5c5.6-3.2,9.2-8.4,9.2-14.2C1255,228.9,1244.7,221,1232,221z M1219,240c0-1.7,1.3-3,3-3s3,1.3,3,3
					s-1.3,3-3,3S1219,241.7,1219,240z M1229,240c0-1.7,1.3-3,3-3s3,1.3,3,3s-1.3,3-3,3S1229,241.7,1229,240z M1239,240
					c0-1.7,1.3-3,3-3s3,1.3,3,3s-1.3,3-3,3S1239,241.7,1239,240z"/>
				<circle class="st10" cx="1222" cy="240" r="3"/>
				<circle class="st9" cx="1232" cy="240" r="3"/>
				<circle class="st8" cx="1242" cy="240" r="3"/>
			</g>
			<g>
				<path class="st11" d="M1236.2,262.2l-2.5-5.8c-0.6,0-1.1,0.1-1.7,0.1c-12.7,0-23-8-23-17.7c0-9.8,10.3-17.7,23-17.7
					c12.7,0,23,7.9,23,17.7c0,5.8-3.6,10.9-9.2,14.2l-7.7,9.5C1237.5,263.3,1236.6,263.2,1236.2,262.2z"/>
				<circle class="st11" cx="1242" cy="240" r="3"/>
				<circle class="st11" cx="1232" cy="240" r="3"/>
				<circle class="st11" cx="1222" cy="240" r="3"/>
			</g>
		</g>
	</g>
	<g id="test_tubes">
		<g id="XMLID_3_">
			<g>
				<rect x="413" y="329" class="st12" width="14" height="11"/>
				<rect x="413" y="315" class="st12" width="14" height="6"/>
				<rect x="387" y="329" class="st12" width="14" height="11"/>
				<rect x="387" y="315" class="st12" width="14" height="6"/>
				<rect x="361" y="315" class="st12" width="14" height="6"/>
				<rect x="361" y="329" class="st12" width="14" height="11"/>
				<polygon class="st13" points="347,329 344,329 344,321 347,321 353,321 361,321 375,321 387,321 401,321 413,321 427,321 
					435,321 441,321 444,321 444,329 441,329 441,379 435,379 435,340 435,329 427,329 413,329 401,329 387,329 375,329 361,329 
					353,329 353,379 347,379 				"/>
				<polygon class="st13" points="444,379 444,387 441,387 435,387 353,387 347,387 344,387 344,379 347,379 353,379 435,379 
					441,379 				"/>
				<rect x="435" y="313" class="st13" width="6" height="8"/>
				<path class="st10" d="M427,340v28c0,3.9-3.1,7-7,7s-7-3.1-7-7v-28H427z"/>
				<path class="st9" d="M401,340v28c0,3.9-3.1,7-7,7s-7-3.1-7-7v-28H401z"/>
				<path class="st8" d="M375,340v28c0,3.9-3.1,7-7,7s-7-3.1-7-7v-28H375z"/>
				<rect x="347" y="313" class="st13" width="6" height="8"/>
			</g>
			<g>
				<line class="st11" x1="361" y1="329" x2="361" y2="340"/>
				<line class="st11" x1="375" y1="340" x2="375" y2="329"/>
				<path class="st11" d="M361,340v28c0,3.9,3.1,7,7,7s7-3.1,7-7v-28H361z"/>
				<polyline class="st11" points="375,321 375,315 361,315 361,321 				"/>
				<path class="st11" d="M387,340v28c0,3.9,3.1,7,7,7s7-3.1,7-7v-28"/>
				<polyline class="st11" points="401,321 401,315 387,315 387,321 				"/>
				<polyline class="st11" points="387,329 387,340 401,340 401,329 				"/>
				<polyline class="st11" points="427,321 427,315 413,315 413,321 				"/>
				<path class="st11" d="M413,340v28c0,3.9,3.1,7,7,7s7-3.1,7-7v-28"/>
				<polyline class="st11" points="413,329 413,340 427,340 427,329 				"/>
				<line class="st11" x1="353" y1="321" x2="347" y2="321"/>
				<line class="st11" x1="441" y1="321" x2="435" y2="321"/>
				<polyline class="st11" points="441,379 441,329 444,329 444,321 441,321 441,313 435,313 435,321 				"/>
				<polyline class="st11" points="353,379 353,329 361,329 375,329 387,329 401,329 413,329 427,329 435,329 				"/>
				<polyline class="st11" points="435,321 427,321 413,321 401,321 387,321 375,321 361,321 353,321 353,313 347,313 347,321 
					344,321 344,329 347,329 347,379 				"/>
				<polyline class="st11" points="441,387 444,387 444,379 441,379 435,379 435,340 435,329 				"/>
				<polyline class="st11" points="435,379 353,379 347,379 344,379 344,387 347,387 353,387 435,387 				"/>
				<line class="st11" x1="441" y1="387" x2="435" y2="387"/>
			</g>
		</g>
	</g>
	<rect x="435" y="328" class="st14" width="1" height="1"/>
	<g id="code">
		<g id="XMLID_27_">
			<g>
				<path class="st9" d="M1082.1,211.8c0.6,0.6,0.9,1.4,0.9,2.2s-0.3,1.6-0.9,2.2c0,0-11.1,11.8-12.2,12.9c-1.1,1.1-3.2,1.2-4.4,0
					c-1.2-1.2-1.3-2.9,0-4.3l10.1-10.8l-10.1-10.8c-1.3-1.5-1.2-3.1,0-4.3c1.2-1.2,3.2-1.1,4.4,0
					C1071,200,1082.1,211.8,1082.1,211.8z"/>
				<path class="st9" d="M1050.5,198.9c1.2,1.2,1.3,2.9,0,4.3l-10.1,10.8l10.1,10.8c1.3,1.5,1.2,3.1,0,4.3c-1.2,1.2-3.2,1.1-4.4,0
					c-1.1-1.1-12.2-12.9-12.2-12.9c-0.6-0.6-0.9-1.4-0.9-2.2s0.3-1.6,0.9-2.2c0,0,11.1-11.8,12.2-12.9
					C1047.2,197.7,1049.3,197.7,1050.5,198.9z"/>
			</g>
			<g>
				<path class="st11" d="M1069.9,198.9c1.1,1.1,12.2,12.9,12.2,12.9c0.6,0.6,0.9,1.4,0.9,2.2s-0.3,1.6-0.9,2.2
					c0,0-11.1,11.8-12.2,12.9c-1.1,1.1-3.2,1.2-4.4,0c-1.2-1.2-1.3-2.9,0-4.3l10.1-10.8l-10.1-10.8c-1.3-1.5-1.2-3.1,0-4.3
					C1066.7,197.7,1068.8,197.7,1069.9,198.9z"/>
				<path class="st11" d="M1050.5,198.9c1.2,1.2,1.3,2.9,0,4.3l-10.1,10.8l10.1,10.8c1.3,1.5,1.2,3.1,0,4.3c-1.2,1.2-3.2,1.1-4.4,0
					c-1.1-1.1-12.2-12.9-12.2-12.9c-0.6-0.6-0.9-1.4-0.9-2.2s0.3-1.6,0.9-2.2c0,0,11.1-11.8,12.2-12.9
					C1047.2,197.7,1049.3,197.7,1050.5,198.9z"/>
			</g>
		</g>
	</g>
	<g id="search">
		<g id="XMLID_36_">
			<g>
				<path class="st9" d="M945.2,381.5c1,1,1,2.7,0,3.8c-0.5,0.5-1.2,0.8-1.9,0.8s-1.4-0.3-1.9-0.8l-7.7-7.7
					c-0.1-0.1-0.1-0.2-0.2-0.3c-2,1.3-4.3,2-6.9,2c-7,0-12.7-5.7-12.7-12.7c0-7,5.7-12.7,12.7-12.7c7,0,12.7,5.7,12.7,12.7
					c0,2.5-0.8,4.9-2,6.9c0.1,0.1,0.2,0.1,0.3,0.2L945.2,381.5z M935.3,366.7c0-4.8-3.9-8.7-8.7-8.7c-4.8,0-8.7,3.9-8.7,8.7
					c0,4.8,3.9,8.7,8.7,8.7C931.4,375.3,935.3,371.4,935.3,366.7z"/>
			</g>
			<g>
				<path class="st11" d="M945.2,381.5l-7.7-7.7c-0.1-0.1-0.2-0.2-0.3-0.2c1.3-2,2-4.4,2-6.9c0-7-5.7-12.7-12.7-12.7
					c-7,0-12.7,5.7-12.7,12.7c0,7,5.7,12.7,12.7,12.7c2.5,0,4.9-0.8,6.9-2c0.1,0.1,0.2,0.2,0.2,0.3l7.7,7.7c0.5,0.5,1.2,0.8,1.9,0.8
					s1.4-0.3,1.9-0.8C946.3,384.2,946.3,382.5,945.2,381.5z"/>
				<path class="st11" d="M926.7,375.3c-4.8,0-8.7-3.9-8.7-8.7c0-4.8,3.9-8.7,8.7-8.7c4.8,0,8.7,3.9,8.7,8.7
					C935.3,371.4,931.4,375.3,926.7,375.3z"/>
			</g>
		</g>
	</g>
	<g>
		<g id="XMLID_38_">
			<g>
				<path class="st12" d="M1155,380v6c0,0.5-0.4,1-1,1h-8v10h-8v-10h-36v10h-8v-10h-8c-0.6,0-1-0.5-1-1v-6c0-0.5,0.4-1,1-1h4h8.8
					h7.2h48C1154.6,379,1155,379.5,1155,380z"/>
				<polygon class="st9" points="1146,368 1146,372 1106,372 1106,370 1106,368 				"/>
				<polygon class="st12" points="1134,312 1134,344 1130,344 1122,344 1118,344 1118,340.3 1118,321 1118,312 1122,312 1130,312 
									"/>
				<path class="st12" d="M1130,308h-8h-2.5c-0.3,0-0.5-0.2-0.5-0.5v-7c0-0.3,0.2-0.5,0.5-0.5h13c0.3,0,0.5,0.2,0.5,0.5v7
					c0,0.3-0.2,0.5-0.5,0.5H1130z"/>
				<rect x="1122" y="344" class="st10" width="8" height="12"/>
				<rect x="1122" y="308" class="st8" width="8" height="4"/>
				<path class="st12" d="M1118,321v19.3c-5.9,1-12,6.7-12,13.6V368v2c0-4.4-3.6-8-8-8s-8,3.6-8,8v-16.2
					C1090,336.3,1102.4,322,1118,321z"/>
				<circle class="st9" cx="1098" cy="370" r="8"/>
				<path class="st12" d="M1106,372v7h-7.2h-8.8v-9c0,4.4,3.6,8,8,8s8-3.6,8-8V372z"/>
			</g>
			<g>
				<path class="st11" d="M1090,379h-4c-0.6,0-1,0.5-1,1v6c0,0.5,0.4,1,1,1h8v10h8v-10h36v10h8v-10h8c0.6,0,1-0.5,1-1v-6
					c0-0.5-0.4-1-1-1h-48"/>
				<polyline class="st11" points="1118,321 1118,312 1122,312 				"/>
				<polyline class="st11" points="1122,344 1118,344 1118,340.3 				"/>
				<polyline class="st11" points="1130,312 1134,312 1134,344 1130,344 				"/>
				<polyline class="st11" points="1130,308 1130,312 1122,312 1122,308 				"/>
				<path class="st11" d="M1122,308h-2.5c-0.3,0-0.5-0.2-0.5-0.5v-7c0-0.3,0.2-0.5,0.5-0.5h13c0.3,0,0.5,0.2,0.5,0.5v7
					c0,0.3-0.2,0.5-0.5,0.5h-2.5H1122z"/>
				<rect x="1122" y="344" class="st11" width="8" height="12"/>
				<path class="st11" d="M1106,368v-14.2c0-6.8,6.1-12.6,12-13.6V321c-15.6,1-28,15.3-28,32.8V370v9h8.8h7.2v-7"/>
				<polygon class="st11" points="1106,368 1146,368 1146,372 1106,372 1106,370 				"/>
				<circle class="st11" cx="1098" cy="370" r="8"/>
			</g>
		</g>
	</g>
</g>
</svg>
