<?xml version="1.0" encoding="utf-8"?>
<!-- Generator: Adobe Illustrator 19.2.1, SVG Export Plug-In . SVG Version: 6.00 Build 0)  -->
<svg version="1.1" id="_x31_200_x__x_800_px" xmlns="http://www.w3.org/2000/svg" xmlns:xlink="http://www.w3.org/1999/xlink"
	 x="0px" y="0px" viewBox="0 0 1290 348" style="enable-background:new 0 0 1290 348;" xml:space="preserve">
<style type="text/css">
	.st0{display:none;fill:none;}
	.st1{fill:#98D4CE;}
	.st2{opacity:0.75;enable-background:new    ;}
</style>
<rect x="16.7" y="-303.1" class="st0" width="1200" height="800"/>
<g>
	<path class="st1" d="M1880.9,130.9c-35.6,18.7-64.6,44-92.6,68.6c-56.4,49.3-114.7,100.4-229.7,100.4s-173.3-51-229.7-100.4
		c-28-24.5-57-49.9-92.6-68.6c-39.8-20.9-83.9-31.1-134.9-31.1c-51,0-95.1,10.2-134.9,31.1c-35.6,18.7-64.6,44-92.6,68.6
		c-56.4,49.3-114.7,100.4-229.7,100.4c-115,0-173.3-51-229.7-100.4c-28-24.5-57-49.9-92.6-68.6c-39.8-20.9-83.9-31.1-134.9-31.1
		l0,219h1828.6v-219C1964.8,99.9,1920.7,110,1880.9,130.9z"/>
	<path class="st1" d="M52.4,130.9c-35.6,18.7-64.6,44-92.6,68.6C-96.6,248.8-155,299.9-269.9,299.9s-173.3-51-229.7-100.4
		c-28-24.5-57-49.9-92.6-68.6C-632,110-676.1,99.9-727.1,99.9s-95.1,10.2-134.9,31.1c-35.6,18.7-64.6,44-92.6,68.6
		c-56.4,49.3-114.7,100.4-229.7,100.4c-115,0-173.3-51-229.7-100.4c-28-24.5-57-49.9-92.6-68.6c-39.8-20.9-83.9-31.1-134.9-31.1
		l0,219H187.2v-219C136.3,99.9,92.2,110,52.4,130.9z"/>
</g>
<g class="st2">
	<rect x="1209.2" y="38.1" class="st1" width="0" height="2"/>
	<path class="st1" d="M-2,348h1294V68.9c-35.9,0-69.1,10.2-97.1,31.1c-25.1,18.7-45.5,44-65.3,68.6c-39.8,49.3-80.9,100.4-162,100.4
		s-122.2-51-162-100.4c-19.8-24.5-40.2-47.9-65.3-66.6C712.1,81,680.9,70.9,645,70.9s-67.1,10.2-95.1,31.1
		c-25.1,18.7-45.5,42-65.3,66.6c-39.8,49.3-80.9,100.4-162,100.4c-81.1,0-122.2-51-162-100.4c-19.8-24.5-40.2-49.9-65.3-68.6
		C67.1,79,33.9,68.9-2,68.9L-2,348z"/>
</g>
</svg>
