<?xml version="1.0" encoding="utf-8"?>
<!-- Generator: Adobe Illustrator 19.2.1, SVG Export Plug-In . SVG Version: 6.00 Build 0)  -->
<svg version="1.1" id="_x31_200_x__x_800_px" xmlns="http://www.w3.org/2000/svg" xmlns:xlink="http://www.w3.org/1999/xlink"
	 x="0px" y="0px" viewBox="0 0 1290 348" style="enable-background:new 0 0 1290 348;" xml:space="preserve">
<style type="text/css">
	.st0{display:none;fill:none;}
	.st1{opacity:0.75;fill:#98D4CE;}
</style>
<rect x="16.7" y="-303.1" class="st0" width="1200" height="800"/>
<path class="st1" d="M0,347.6h1290V0.4c-35.9,0-67.1,10.2-95.1,31.1c-25.1,18.7-45.5,44-65.3,68.6c-4.6,5.7-9.2,11.5-13.9,17.1
	c-16.6-20.2-34.1-40.1-54.7-55.4c-28.1-20.9-59.2-31.1-95.1-31.1s-67.1,10.2-95.1,31.1c-19.9,14.8-36.9,33.9-52.9,53.3
	c-4.1-5-8.2-10-12.2-15c-19.8-24.5-40.2-49.9-65.3-68.6C712.1,10.5,680.9,0.4,645,0.4s-67.1,10.2-95.1,31.1
	c-25.1,18.7-45.5,44-65.3,68.6c-4.6,5.7-9.2,11.5-13.9,17.1c-16.6-20.2-34-40.1-54.7-55.4c-27.6-20.5-58-30.7-93.1-31v0
	c-0.3,0-0.7,0-1,0c-0.3,0-0.7,0-1,0v0c-35.1,0.4-65.6,10.5-93.1,31c-20.3,15.1-37.6,34.6-53.9,54.6c-4.5-5.4-8.8-10.8-13.2-16.2
	c-19.8-24.5-40.2-49.9-65.3-68.6C67.1,10.5,35.9,0.4,0,0.4l0,219h0"/>
</svg>
