<?xml version="1.0" encoding="utf-8"?>
<!-- Generator: Adobe Illustrator 19.2.1, SVG Export Plug-In . SVG Version: 6.00 Build 0)  -->
<svg version="1.1" id="Layer_1" xmlns="http://www.w3.org/2000/svg" xmlns:xlink="http://www.w3.org/1999/xlink" x="0px" y="0px"
	 viewBox="0 0 36 36" style="enable-background:new 0 0 36 36;" xml:space="preserve">
<style type="text/css">
	.st0{opacity:4.000000e-02;fill:none;stroke:#000000;stroke-miterlimit:10;}
</style>
<g>
	<circle class="st0" cx="14" cy="13" r="2"/>
	<circle class="st0" cx="24" cy="13" r="2"/>
	<circle class="st0" cx="14" cy="23" r="2"/>
	<circle class="st0" cx="24" cy="23" r="2"/>
	<rect x="14" y="13" class="st0" width="10" height="10"/>
</g>
<g>
	<circle class="st0" cx="31" cy="31" r="2"/>
	<circle class="st0" cx="41" cy="31" r="2"/>
	<circle class="st0" cx="31" cy="41" r="2"/>
	<circle class="st0" cx="41" cy="41" r="2"/>
	<rect x="31" y="31" class="st0" width="10" height="10"/>
</g>
<g>
	<circle class="st0" cx="31" cy="-5" r="2"/>
	<circle class="st0" cx="41" cy="-5" r="2"/>
	<circle class="st0" cx="31" cy="5" r="2"/>
	<circle class="st0" cx="41" cy="5" r="2"/>
	<rect x="31" y="-5" class="st0" width="10" height="10"/>
</g>
<g>
	<circle class="st0" cx="-5" cy="31" r="2"/>
	<circle class="st0" cx="5" cy="31" r="2"/>
	<circle class="st0" cx="-5" cy="41" r="2"/>
	<circle class="st0" cx="5" cy="41" r="2"/>
	<rect x="-5" y="31" class="st0" width="10" height="10"/>
</g>
<g>
	<circle class="st0" cx="-5" cy="-5" r="2"/>
	<circle class="st0" cx="5" cy="-5" r="2"/>
	<circle class="st0" cx="-5" cy="5" r="2"/>
	<circle class="st0" cx="5" cy="5" r="2"/>
	<rect x="-5" y="-5" class="st0" width="10" height="10"/>
</g>
</svg>
