<?xml version="1.0" encoding="utf-8"?>
<!-- Generator: Adobe Illustrator 22.1.0, SVG Export Plug-In . SVG Version: 6.00 Build 0)  -->
<svg version="1.1" id="Layer_1" xmlns="http://www.w3.org/2000/svg" xmlns:xlink="http://www.w3.org/1999/xlink" x="0px" y="0px"
	 viewBox="0 0 374 90" style="enable-background:new 0 0 374 90;" xml:space="preserve">
<style type="text/css">
	.st0{fill:none;stroke:#263238;stroke-width:4;stroke-miterlimit:10;}
	.st1{fill:#CFD8DC;}
	.st2{fill:#009688;}
	.st3{fill:#03A9F4;}
	.st4{fill:none;stroke:#263238;stroke-width:2;stroke-linecap:round;stroke-miterlimit:10;}
	.st5{fill:#EF5350;stroke:#263238;stroke-width:2;stroke-linecap:round;stroke-miterlimit:10;}
	.st6{opacity:0;fill:#FFFFFF;}
	.st7{fill:#DF283F;}
	.st8{fill:#1C4A87;}
	.st9{fill:#128669;}
	.st10{fill:#1D8DCD;}
</style>
<path class="st0" d="M311.8,95"/>
<g id="XMLID_3_">
	<g>
		<path class="st1" d="M273.2,37.9c5.6,1.3,13.4,2.8,21.1,3.3c7.6,0.4,13.6-0.3,17.8-2.1c0.7-1,1.5-2.2,2.5-3.6h0.2
			c8.8,0,16,7.2,16,16s-7.2,16-16,16H300h-3.2h-59.6c-7.1,0-25.7-8.4-32.6-16.2l11.6-7.1c-2-0.6-4.9-1.3-7.8-1.6
			c-2.7-0.3-4.9-0.1-6.4,0.4V31.9c0-2.9,2.3-5.2,5.2-5.2h0.8l10.8,12.8l24.4-1c2.2,5.3,7.5,9,13.6,9c6.6,0,12.1-4.3,14-10.2l2.3-0.1
			l-0.8,0.5C272.7,37.8,272.9,37.8,273.2,37.9z"/>
		<path class="st2" d="M208.4,42.6c2.9,0.3,5.8,1,7.8,1.6l-11.6,7.1l-2.7,1.6c-0.9,0.1-3.5-0.1-5.8-0.4c-0.6-0.1-1-0.1-1.3-0.2
			c1.4-1.8,3.2-4.3,4.9-6.5c0.9-1.2,1.7-2.2,2.3-2.9l0,0C203.6,42.4,205.7,42.3,208.4,42.6z"/>
		<path class="st2" d="M330.6,12.2c-3.6,5.2-8.2,12.3-12.7,18.6c-1.2,1.7-2.3,3.3-3.3,4.7s-1.9,2.6-2.5,3.6
			c-4.2,1.8-10.2,2.5-17.8,2.1c-7.6-0.4-15.4-1.9-21.1-3.3l0,0l37.6-26.2c2.6-0.3,9.6-0.2,16.1,0.2C328.5,11.9,329.7,12,330.6,12.2z
			"/>
		<rect x="296.8" y="67.5" class="st1" width="3.2" height="5.6"/>
		<circle class="st3" cx="298.4" cy="76.5" r="3.2"/>
		<path class="st3" d="M335.6,27.5v19.2c0,1.3-1.1,2.4-2.4,2.4s-2.4-1.1-2.4-2.4V27.5c0-1.3,1.1-2.4,2.4-2.4S335.6,26.1,335.6,27.5z
			"/>
		<path class="st3" d="M335.6,53.9v19.2c0,1.3-1.1,2.4-2.4,2.4s-2.4-1.1-2.4-2.4V53.9c0-1.3,1.1-2.4,2.4-2.4S335.6,52.5,335.6,53.9z
			"/>
	</g>
	<g>
		<path class="st4" d="M204.6,51.3c6.9,7.8,25.5,16.2,32.6,16.2h59.6"/>
		<path class="st4" d="M243.2,38.4l-24.4,1L208,26.7h-0.8c-2.9,0-5.2,2.3-5.2,5.2V43"/>
		<polyline class="st4" points="272.4,37.7 273.2,37.2 270.9,37.3 		"/>
		<path class="st4" d="M300,67.5h14.8c8.8,0,16-7.2,16-16s-7.2-16-16-16h-0.2"/>
		<path class="st4" d="M314.6,35.5c1-1.4,2.1-3,3.3-4.7c4.5-6.3,9.1-13.4,12.7-18.6c-0.9-0.2-2.2-0.3-3.7-0.4
			c-6.5-0.4-13.5-0.5-16.1-0.2l-37.6,26.2"/>
		<path class="st4" d="M272.4,37.9v-0.2c0.2,0.1,0.5,0.1,0.7,0.2c5.6,1.3,13.4,2.8,21.1,3.3c7.6,0.4,13.6-0.3,17.8-2.1
			c0.7-1,1.5-2.2,2.5-3.6"/>
		<path class="st4" d="M202,43L202,43c-0.6,0.7-1.4,1.7-2.3,2.9c-1.7,2.2-3.5,4.7-4.9,6.5c0.3,0.1,0.8,0.1,1.3,0.2
			c2.3,0.2,4.9,0.4,5.8,0.4l2.7-1.6"/>
		<path class="st4" d="M204.6,51.3l11.6-7.1c-2-0.6-4.9-1.3-7.8-1.6c-2.7-0.3-4.9-0.1-6.4,0.4"/>
		<path class="st4" d="M333.2,51.5c-1.3,0-2.4,1.1-2.4,2.4v19.2c0,1.3,1.1,2.4,2.4,2.4s2.4-1.1,2.4-2.4V53.9
			C335.6,52.5,334.5,51.5,333.2,51.5z"/>
		<path class="st4" d="M333.2,25.1c-1.3,0-2.4,1.1-2.4,2.4v19.2c0,1.3,1.1,2.4,2.4,2.4s2.4-1.1,2.4-2.4V27.5
			C335.6,26.1,334.5,25.1,333.2,25.1z"/>
		<path class="st4" d="M243.2,38.4c2.2,5.3,7.5,9,13.6,9c6.6,0,12.1-4.3,14-10.2"/>
		<polyline class="st4" points="296.8,67.5 296.8,73.1 300,73.1 300,67.5 		"/>
		<line class="st4" x1="296.8" y1="67.5" x2="300" y2="67.5"/>
		<circle class="st4" cx="298.4" cy="76.5" r="3.2"/>
	</g>
</g>
<g>
	<path class="st5" d="M60.2,39.3L40.7,60c3.7,0.1,7.2,0.2,10.5,0.2c9.1,0,17.1-0.6,24.6-1.7c6.4-1,12.7-2.3,18.8-3.7
		c4.7-1,9.5-2.1,14.3-2.9c1.3-0.2,2.7-0.5,4-0.7c4.8-0.9,9.7-1.8,14.5-2.2c0.3,0,0.6-0.1,1-0.1c1,0,1.9-0.1,2.8-0.1
		c0.1,0,0.1,0,0.2,0c1,0,1.9,0,2.9,0c1.4,0,2.8,0,4.2,0.1c1.1,0,2,0.1,3,0.2c0.9,0.1,1.5,0.2,2.1,0.2c0.4,0,0.5,0.1,0.7,0.1
		c0.3,0,0.5,0,0.7,0.1c1.2,0.2,2.3,0.4,3.4,0.6c1.1,0.2,2.2,0.5,3.2,0.8c1.1,0.3,2.1,0.7,3,1c1.1,0.4,2,0.9,2.8,1.3
		c0.8,0.4,1.5,0.9,2.1,1.3c0.5,0.4,0.8,0.8,1.1,1.2c0,0.1,0.1,0.1,0.1,0.2c0.1,0.1,0.2,0.2,0.2,0.3c0.1,0.1,0.1,0.3,0.2,0.4v-37
		c0-0.5-0.1-1-0.4-1.5c-0.3-0.5-0.7-1-1.3-1.4c-0.5-0.4-1.2-0.9-2.1-1.3c-0.8-0.4-1.8-0.9-2.8-1.3c-1-0.4-2-0.7-3-1
		s-2.1-0.6-3.2-0.8c-1.1-0.2-2.2-0.4-3.4-0.6c-0.2,0-0.5-0.1-0.7-0.1s-0.3,0-0.7-0.1c-0.6-0.1-1.2-0.2-2.1-0.2c-1-0.1-1.9-0.1-3-0.2
		c-1.3-0.1-2.7-0.1-4.2-0.1c-1.9,0-3.9,0.1-5.9,0.2c-5.1,0.3-10.4,1.3-15.5,2.2c-1.3,0.3-2.7,0.5-4,0.8c-4.8,0.9-9.6,1.9-14.3,2.9
		c-6.1,1.3-12.5,2.7-18.8,3.7c-7.5,1.1-15.5,1.7-24.6,1.7c-3.4,0-7-0.1-10.8-0.2L60.2,39.3z"/>
</g>
<g>
	<g>
		<path class="st6" d="M88.9,47.3c-5.5,0.8-8.2,1-13.9,0.4c-0.2-1.2-0.2-1.7-0.4-2.9c1.8-1.8,2.6-2.7,4.4-4.7
			c1.3-1.5,2.1-2.6,2.5-3.2c0.4-0.6,0.6-1.2,0.8-1.7c0.1-0.5,0.2-1,0.1-1.6c-0.1-0.8-0.4-1.4-0.9-1.7c-0.5-0.4-1.1-0.5-1.8-0.5
			c-0.8,0-1.5,0.2-2.2,0.6c-0.7,0.3-1.4,0.8-2.1,1.4c-1.1-1.1-1.6-1.7-2.7-2.9c0.9-0.7,1.6-1.2,2.2-1.6c0.6-0.3,1.3-0.5,2-0.7
			s1.6-0.3,2.5-0.3c1.2,0,2.4,0.1,3.4,0.5s1.8,0.9,2.4,1.6s1,1.6,1.1,2.7c0.1,0.9,0.1,1.8-0.1,2.6S85.6,37,85,37.9
			c-0.6,0.9-1.6,2.2-3.1,3.9c-0.9,1-1.3,1.5-2.2,2.5c0,0.1,0,0.1,0,0.2c3.5,0,5.2-0.2,8.6-0.7C88.6,45.2,88.7,45.9,88.9,47.3z"/>
		<path class="st6" d="M103,34.1c0.5,3.4,0.2,6.1-0.6,8c-0.9,1.9-2.5,3.2-4.8,3.7c-2.2,0.5-4,0-5.4-1.5s-2.3-3.9-2.7-7.2
			c-0.5-3.5-0.2-6.1,0.7-8c0.9-1.9,2.5-3,4.8-3.5c2.2-0.5,4-0.1,5.4,1.3C101.7,28.4,102.6,30.8,103,34.1z M93.5,36.4
			c0.3,2.4,0.8,4.1,1.3,5c0.6,1,1.3,1.3,2.3,1.1s1.6-0.9,1.9-2.1c0.3-1.2,0.3-2.9,0-5.3c-0.3-2.4-0.8-4.1-1.3-5
			c-0.6-0.9-1.3-1.3-2.3-1.1c-1,0.2-1.6,0.9-1.9,2C93.2,32.2,93.2,34,93.5,36.4z"/>
		<path class="st6" d="M121.2,41c-2.1,0.3-3.4,0.5-5.5,0.9c-0.8-4.5-1.2-6.8-2-11.4c-0.1-0.8-0.1-1.1-0.3-1.9
			c-0.1-0.8-0.1-1.2-0.3-2.1c-0.8,0.8-1.3,1.4-1.6,1.7c-1.1,0.9-1.6,1.4-2.7,2.4c-1.2-0.8-1.9-1.2-3.1-2c2.9-2.7,4.4-4,7.5-6.6
			c1.7-0.3,2.7-0.5,4.6-0.7C119,29.2,119.8,33.1,121.2,41z"/>
		<path class="st6" d="M126.1,19.5c1.9-0.1,3.5,0.4,4.8,1.3s2,2.1,2.2,3.6c0.1,1,0,1.9-0.5,2.6s-1.3,1.4-2.5,2
			c1.6,0.8,2.8,1.7,3.6,2.6s1.2,1.9,1.4,2.9c0.2,1.6-0.3,2.8-1.4,3.7c-1.2,0.9-2.8,1.3-4.9,1.4c-2.2,0.1-3.9-0.2-5.3-1
			s-2.1-2-2.4-3.6c-0.1-1.1,0-2.2,0.5-3.1s1.3-1.8,2.6-2.6c-1.2-0.6-2.1-1.3-2.7-2s-1-1.6-1.1-2.5c-0.2-1.4,0.2-2.6,1.3-3.6
			C122.7,20.2,124.2,19.6,126.1,19.5z M124.9,34.4c0.1,0.8,0.5,1.3,1.1,1.7s1.4,0.6,2.3,0.5c1,0,1.8-0.3,2.3-0.7s0.6-1,0.5-1.7
			c-0.1-0.6-0.4-1.2-1-1.7s-1.5-1.1-2.7-1.6C125.6,31.8,124.8,33,124.9,34.4z M126.5,22.6c-0.7,0-1.3,0.2-1.7,0.6
			c-0.4,0.4-0.5,0.9-0.5,1.5c0.1,0.5,0.3,1,0.7,1.4c0.4,0.4,1.1,0.8,2.1,1.2c0.8-0.4,1.4-0.9,1.7-1.3s0.4-0.9,0.3-1.5
			c-0.1-0.6-0.4-1.1-0.9-1.5C127.8,22.7,127.2,22.5,126.5,22.6z"/>
	</g>
</g>
<line class="st4" x1="161.3" y1="19.6" x2="201.6" y2="41.1"/>
<line class="st4" x1="161.3" y1="56.8" x2="201.6" y2="41.1"/>
<g>
	<path class="st7" d="M228,50.9c0,1.1-0.9,2-2,2s-2-0.9-2-2s0.9-2,2-2S228,49.8,228,50.9z"/>
	<path class="st8" d="M240.3,50.9c0,1.1-0.9,2-2,2s-2-0.9-2-2s0.9-2,2-2C239.4,48.9,240.3,49.8,240.3,50.9z"/>
	<path class="st9" d="M237.3,45.8c0,1.1-0.9,2-2,2s-2-0.9-2-2s0.9-2,2-2C236.3,43.8,237.3,44.7,237.3,45.8z"/>
	<path class="st8" d="M231.1,45.8c0,1.1-0.9,2-2,2s-2-0.9-2-2s0.9-2,2-2C230.2,43.8,231.1,44.7,231.1,45.8z"/>
	<path class="st10" d="M237.3,56.1c0,1.1-0.9,2-2,2s-2-0.9-2-2s0.9-2,2-2C236.3,54,237.3,54.9,237.3,56.1z"/>
	<path class="st8" d="M231.1,56.1c0,1.1-0.9,2-2,2s-2-0.9-2-2s0.9-2,2-2C230.2,54,231.1,54.9,231.1,56.1z"/>
</g>
</svg>
