<?xml version="1.0" encoding="utf-8"?>
<!-- Generator: Adobe Illustrator 19.2.1, SVG Export Plug-In . SVG Version: 6.00 Build 0)  -->
<svg version="1.1" id="Layer_1" xmlns="http://www.w3.org/2000/svg" xmlns:xlink="http://www.w3.org/1999/xlink" x="0px" y="0px"
	 viewBox="0 0 325 78" style="enable-background:new 0 0 325 78;" xml:space="preserve">
<style type="text/css">
	.st0{fill:#455A64;}
	.st1{fill:#009688;}
	.st2{fill:#CFD8DC;}
	.st3{fill:#FFFFFF;}
	.st4{fill:#EF5350;}
	.st5{fill:none;stroke:#263238;stroke-width:2;stroke-linecap:round;stroke-miterlimit:10;}
	.st6{fill:#DF283F;}
	.st7{fill:#1C4A87;}
	.st8{fill:#128669;}
	.st9{fill:#1D8DCD;}
	.st10{fill:#E0F7FA;}
</style>
<g>
	<g id="XMLID_4_">
		<g>
			<path class="st0" d="M100.3,50.3c1.5,0,2.8,1.3,2.8,2.8s-1.3,2.8-2.8,2.8h-5.2h-0.1C95,55,94.9,54,94.9,53.1
				c0-0.9,0.1-1.9,0.2-2.8h0.1H100.3z"/>
			<path class="st1" d="M95.6,34.4c3.2,0,6.3,0.8,9,2.3c-4.9,2.7-8.5,7.6-9.4,13.4c-1.4-4.6-6-8.6-11.4-11.5
				C87,36,91.1,34.4,95.6,34.4z"/>
			<path class="st1" d="M104.6,69.4c-2.7,1.5-5.7,2.3-9,2.3c-4.5,0-8.6-1.6-11.8-4.2c5.4-2.8,10-6.9,11.4-11.5
				C96.1,61.8,99.6,66.7,104.6,69.4z"/>
			<path class="st2" d="M95.2,50.2c0,0,0,0.1,0,0.1h-0.1C95.1,50.2,95.1,50.2,95.2,50.2z"/>
			<path class="st2" d="M95.2,55.9c0,0,0,0.1,0,0.1C95.1,55.9,95.1,55.9,95.2,55.9L95.2,55.9z"/>
			<path class="st2" d="M95.2,50.2c0,0,0,0.1,0,0.1c-0.1,0.9-0.2,1.8-0.2,2.8c0,1,0.1,1.9,0.2,2.8c0,0,0,0.1,0,0.1
				c-1.4,4.6-6,8.6-11.4,11.5C79,70,73.7,71.5,69.3,71.7c-0.2,0-0.5,0-0.7,0H20.2c-0.2,0-0.3,0-0.5,0V34.5c0.2,0,0.3,0,0.5,0h38.4
				h10c4.5,0,10.2,1.6,15.2,4.2C89.2,41.5,93.7,45.6,95.2,50.2z"/>
			<path class="st3" d="M55.6,24.1l3,10.4H20.2c-0.2,0-0.3,0-0.5,0V24.1h11h7.4h6.2H50H55.6z"/>
			<path class="st0" d="M50,10.2v13.9h-5.6V10.2c0-1.5,1.3-2.8,2.8-2.8S50,8.6,50,10.2z"/>
			<path class="st0" d="M38.2,12.9v11.2h-7.4V12.9c0-2.1-1.6-3.7-3.7-3.7h-3.5c0,0-0.1,0-0.1,0c-2.1,0-3.7-1.7-3.7-3.8
				c0-2.1,1.7-3.7,3.8-3.7H27C33.1,1.8,38.2,6.8,38.2,12.9z"/>
			<path class="st4" d="M19.7,34.5v37.2c-10-0.3-18.1-8.5-18.1-18.6S9.7,34.7,19.7,34.5z"/>
		</g>
		<g>
			<path class="st5" d="M38.2,24.1V12.9c0-6.1-5-11.2-11.2-11.2h-3.5c-2.1,0-3.7,1.6-3.8,3.7c0,2.1,1.6,3.8,3.7,3.8c0,0,0.1,0,0.1,0
				H27c2.1,0,3.7,1.6,3.7,3.7v11.2H38.2z"/>
			<path class="st5" d="M69.3,71.7c4.3-0.2,9.7-1.7,14.5-4.2"/>
			<path class="st5" d="M83.8,38.7c-5-2.6-10.7-4.2-15.2-4.2h-10"/>
			<path class="st5" d="M19.7,34.5C9.7,34.7,1.6,43,1.6,53.1s8.1,18.4,18.1,18.6"/>
			<path class="st5" d="M104.6,36.7c-2.7-1.5-5.7-2.3-9-2.3c-4.5,0-8.6,1.6-11.8,4.2"/>
			<path class="st5" d="M83.8,67.5c3.2,2.7,7.3,4.2,11.8,4.2c3.2,0,6.3-0.8,9-2.3"/>
			<path class="st5" d="M83.8,67.5c5.4-2.8,10-6.9,11.4-11.5"/>
			<path class="st5" d="M95.2,50.2c-1.4-4.6-6-8.6-11.4-11.5"/>
			<path class="st5" d="M95.2,56c0.9,5.8,4.5,10.7,9.4,13.4"/>
			<path class="st5" d="M104.6,36.7c-4.9,2.7-8.5,7.6-9.4,13.4"/>
			<path class="st5" d="M95.2,56c0,0,0-0.1,0-0.1h-0.1C95.1,55.9,95.1,55.9,95.2,56z"/>
			<path class="st5" d="M95.2,50.3c0,0,0-0.1,0-0.1C95.1,50.2,95.1,50.2,95.2,50.3L95.2,50.3z"/>
			<polyline class="st5" points="58.6,34.4 55.6,24.1 50,24.1 			"/>
			<polyline class="st5" points="30.7,24.1 19.7,24.1 19.7,34.5 			"/>
			<line class="st5" x1="44.4" y1="24.1" x2="38.2" y2="24.1"/>
			<path class="st5" d="M58.6,34.4H20.2c-0.2,0-0.3,0-0.5,0v37.2c0.2,0,0.3,0,0.5,0h48.4c0.2,0,0.5,0,0.7,0"/>
			<path class="st5" d="M95.1,55.9C95,55,94.9,54,94.9,53.1c0-0.9,0.1-1.9,0.2-2.8"/>
			<path class="st5" d="M95.2,55.9h5.2c1.5,0,2.8-1.3,2.8-2.8s-1.3-2.8-2.8-2.8h-5.2"/>
			<path class="st5" d="M50,24.1V10.2c0-1.5-1.3-2.8-2.8-2.8s-2.8,1.3-2.8,2.8v13.9H50z"/>
		</g>
	</g>
</g>
<g>
	<g>
		<path class="st6" d="M68.6,53c0,1.4-1.1,2.6-2.6,2.6c-1.4,0-2.6-1.1-2.6-2.6c0-1.4,1.1-2.6,2.6-2.6C67.5,50.5,68.6,51.6,68.6,53z"
			/>
		<path class="st7" d="M84,53c0,1.4-1.1,2.6-2.6,2.6s-2.6-1.1-2.6-2.6c0-1.4,1.1-2.6,2.6-2.6S84,51.6,84,53z"/>
		<path class="st8" d="M80.1,46.6c0,1.4-1.1,2.6-2.6,2.6S75,48.1,75,46.6c0-1.4,1.1-2.6,2.6-2.6S80.1,45.2,80.1,46.6z"/>
		<path class="st7" d="M72.5,46.6c0,1.4-1.1,2.6-2.6,2.6s-2.6-1.1-2.6-2.6c0-1.4,1.1-2.6,2.6-2.6S72.5,45.2,72.5,46.6z"/>
		<path class="st9" d="M80.1,59.4c0,1.4-1.1,2.6-2.6,2.6S75,60.9,75,59.4c0-1.4,1.1-2.6,2.6-2.6S80.1,58,80.1,59.4z"/>
		<path class="st7" d="M72.5,59.4c0,1.4-1.1,2.6-2.6,2.6s-2.6-1.1-2.6-2.6c0-1.4,1.1-2.6,2.6-2.6S72.5,58,72.5,59.4z"/>
	</g>
</g>
<path class="st10" d="M131.5,35c0,1.1-0.9,2-2,2s-2-0.9-2-2s0.9-2,2-2S131.5,33.9,131.5,35z"/>
<path class="st10" d="M117.5,43c0,1.1-0.9,2-2,2s-2-0.9-2-2s0.9-2,2-2S117.5,41.9,117.5,43z"/>
<path class="st10" d="M145.5,46c0,1.1-0.9,2-2,2s-2-0.9-2-2s0.9-2,2-2S145.5,44.9,145.5,46z"/>
<path class="st10" d="M117.5,54c0,1.1-0.9,2-2,2s-2-0.9-2-2s0.9-2,2-2S117.5,52.9,117.5,54z"/>
<path class="st10" d="M163.5,45c0,1.1-0.9,2-2,2s-2-0.9-2-2s0.9-2,2-2S163.5,43.9,163.5,45z"/>
<path class="st10" d="M127.5,58c0,1.1-0.9,2-2,2s-2-0.9-2-2s0.9-2,2-2S127.5,56.9,127.5,58z"/>
<path class="st10" d="M200,56.9c0,1.1-0.9,2-2,2s-2-0.9-2-2s0.9-2,2-2S200,55.8,200,56.9z"/>
<path class="st10" d="M179.5,49c0,1.1-0.9,2-2,2s-2-0.9-2-2s0.9-2,2-2S179.5,47.9,179.5,49z"/>
<path class="st10" d="M194.5,37c0,1.1-0.9,2-2,2s-2-0.9-2-2s0.9-2,2-2S194.5,35.9,194.5,37z"/>
<path class="st10" d="M128.5,45c0,1.1-0.9,2-2,2s-2-0.9-2-2s0.9-2,2-2S128.5,43.9,128.5,45z"/>
<path class="st10" d="M139.5,39c0,1.1-0.9,2-2,2s-2-0.9-2-2s0.9-2,2-2S139.5,37.9,139.5,39z"/>
<path class="st10" d="M153.5,36c0,1.1-0.9,2-2,2s-2-0.9-2-2s0.9-2,2-2S153.5,34.9,153.5,36z"/>
<path class="st10" d="M167.5,53c0,1.1-0.9,2-2,2s-2-0.9-2-2s0.9-2,2-2S167.5,51.9,167.5,53z"/>
</svg>
