<?xml version="1.0" encoding="utf-8"?>
<!-- Generator: Adobe Illustrator 19.2.1, SVG Export Plug-In . SVG Version: 6.00 Build 0)  -->
<svg version="1.1" id="_x31_200_x__x_800_px" xmlns="http://www.w3.org/2000/svg" xmlns:xlink="http://www.w3.org/1999/xlink"
	 x="0px" y="0px" viewBox="0 0 120 220" style="enable-background:new 0 0 120 220;" xml:space="preserve">
<style type="text/css">
	.st0{display:none;fill:none;}
	.st1{fill:#37474F;}
	.st2{fill:#DF283F;}
	.st3{fill:#128669;}
	.st4{fill:#1D8DCD;}
	.st5{fill:#1C4A87;}
</style>
<rect x="-568" y="-400" class="st0" width="1200" height="800"/>
<path d="M787.9-709.7L787.9-709.7c-7.1,0-10.9,2.9-14.1,5.4c-3.2,2.5-5.9,4.6-11.7,4.6c-5.8,0-8.5-2.1-11.7-4.6
	c-3.3-2.5-7-5.4-14.1-5.4c-7.1,0-10.9,2.9-14.1,5.4c-3.2,2.5-5.9,4.6-11.7,4.6s-8.5-2.1-11.7-4.6c-3.3-2.5-7-5.4-14.1-5.4
	s-10.9,2.9-14.1,5.4c-3.2,2.5-5.9,4.6-11.7,4.6s-8.5-2.1-11.7-4.6c-3.3-2.5-7-5.4-14.1-5.4c-7.1,0-10.8,2.9-14.1,5.4
	c-3.2,2.5-5.9,4.6-11.7,4.6s-8.5-2.1-11.7-4.6c-3.3-2.5-7-5.4-14.1-5.4c-7.1,0-10.8,2.9-14.1,5.4c-3.2,2.5-5.9,4.6-11.7,4.6
	c-5.8,0-8.5-2.1-11.7-4.6c-3.3-2.5-7-5.4-14.1-5.4s-10.8,2.9-14.1,5.4c-3.2,2.5-5.9,4.6-11.7,4.6c-5.8,0-8.5-2.1-11.7-4.6
	c-3.3-2.5-7-5.4-14.1-5.4s-10.8,2.9-14.1,5.4c-3.2,2.5-5.9,4.6-11.7,4.6c-5.8,0-8.5-2.1-11.7-4.6c-3.3-2.5-7-5.4-14.1-5.4
	s-10.8,2.9-14.1,5.4c-3.2,2.5-5.9,4.6-11.7,4.6c-5.8,0-8.5-2.1-11.7-4.6c-3.3-2.5-7-5.4-14.1-5.4c-7.1,0-10.8,2.9-14.1,5.4
	c-3.2,2.5-5.9,4.6-11.7,4.6s-8.5-2.1-11.7-4.6c-3.3-2.5-7-5.4-14.1-5.4s-10.8,2.9-14.1,5.4c-3.2,2.5-5.9,4.6-11.7,4.6
	c-5.8,0-8.5-2.1-11.7-4.6c-3.3-2.5-7-5.4-14.1-5.4s-10.8,2.9-14.1,5.4c-3.2,2.5-5.9,4.6-11.7,4.6c-5.8,0-8.5-2.1-11.7-4.6
	c-3.3-2.5-7-5.4-14.1-5.4c-7.1,0-10.8,2.9-14.1,5.4c-3.2,2.5-5.9,4.6-11.7,4.6c-5.8,0-8.5-2.1-11.7-4.6c-3.3-2.5-7-5.4-14.1-5.4
	s-10.8,2.9-14.1,5.4c-3.2,2.5-5.9,4.6-11.7,4.6s-8.5-2.1-11.7-4.6c-3.3-2.5-7-5.4-14.1-5.4s-10.8,2.9-14.1,5.4
	c-3.2,2.5-5.9,4.6-11.7,4.6c-5.8,0-8.5-2.1-11.7-4.6c-3.3-2.5-7-5.4-14.1-5.4c-7.1,0-10.8,2.9-14.1,5.4c-3.2,2.5-5.9,4.6-11.7,4.6
	c-5.8,0-8.5-2.1-11.7-4.6c-3.3-2.5-7-5.4-14.1-5.4c-7.1,0-10.8,2.9-14.1,5.4c-3.2,2.5-5.9,4.6-11.7,4.6s-8.5-2.1-11.7-4.6
	c-3.3-2.5-7-5.4-14.1-5.4s-10.8,2.9-14.1,5.4c-3.2,2.5-5.9,4.6-11.7,4.6s-8.5-2.1-11.7-4.6c-3.3-2.5-7-5.4-14.1-5.4
	s-10.8,2.9-14.1,5.4c-3.2,2.5-5.9,4.6-11.7,4.6s-8.5-2.1-11.7-4.6c-3.3-2.5-7-5.4-14.1-5.4c-7.1,0-10.8,2.9-14.1,5.4
	c-3.2,2.5-5.9,4.6-11.7,4.6c-5.8,0-8.5-2.1-11.7-4.6c-3.3-2.5-7-5.4-14.1-5.4c-7.1,0-10.8,2.9-14.1,5.4c-3.2,2.5-5.9,4.6-11.7,4.6
	s-8.5-2.1-11.7-4.6c-3.3-2.5-7-5.4-14.1-5.4s-10.8,2.9-14.1,5.4c-3.2,2.5-5.9,4.6-11.7,4.6s-8.5-2.1-11.7-4.6
	c-3.3-2.5-7-5.4-14.1-5.4c-7.1,0-10.8,2.9-14.1,5.4c-3.2,2.5-5.9,4.6-11.7,4.6c-5.8,0-8.5-2.1-11.7-4.6c-3.3-2.5-7-5.4-14.1-5.4
	s-10.8,2.9-14.1,5.4c-3.2,2.5-5.9,4.6-11.7,4.6c-5.8,0-8.5-2.1-11.7-4.6c-3.3-2.5-7-5.4-14.1-5.4c-7.1,0-10.8,2.9-14.1,5.4
	c-3.2,2.5-5.9,4.6-11.7,4.6c-5.8,0-8.5-2.1-11.7-4.6c-3.3-2.5-7-5.4-14.1-5.4s-10.8,2.9-14.1,5.4c-3.2,2.5-5.9,4.6-11.7,4.6
	s-8.5-2.1-11.7-4.6c-3.3-2.5-7-5.4-14.1-5.4v4c5.8,0,8.5,2.1,11.7,4.6c3.3,2.5,7,5.4,14.1,5.4c7.1,0,10.8-2.9,14.1-5.4
	c3.2-2.5,5.9-4.6,11.7-4.6c5.8,0,8.5,2.1,11.7,4.6c3.3,2.5,7,5.4,14.1,5.4s10.8-2.9,14.1-5.4c3.2-2.5,5.9-4.6,11.7-4.6
	s8.5,2.1,11.7,4.6c3.3,2.5,7,5.4,14.1,5.4s10.8-2.9,14.1-5.4c3.2-2.5,5.9-4.6,11.7-4.6c5.8,0,8.5,2.1,11.7,4.6
	c3.3,2.5,7,5.4,14.1,5.4c7.1,0,10.8-2.9,14.1-5.4c3.2-2.5,5.9-4.6,11.7-4.6c5.8,0,8.5,2.1,11.7,4.6c3.3,2.5,7,5.4,14.1,5.4
	s10.8-2.9,14.1-5.4c3.2-2.5,5.9-4.6,11.7-4.6c5.8,0,8.5,2.1,11.7,4.6c3.3,2.5,7,5.4,14.1,5.4s10.8-2.9,14.1-5.4
	c3.2-2.5,5.9-4.6,11.7-4.6s8.5,2.1,11.7,4.6c3.3,2.5,7,5.4,14.1,5.4s10.8-2.9,14.1-5.4c3.2-2.5,5.9-4.6,11.7-4.6s8.5,2.1,11.7,4.6
	c3.3,2.5,7,5.4,14.1,5.4c7.1,0,10.8-2.9,14.1-5.4c3.2-2.5,5.9-4.6,11.7-4.6s8.5,2.1,11.7,4.6c3.3,2.5,7,5.4,14.1,5.4
	s10.8-2.9,14.1-5.4c3.2-2.5,5.9-4.6,11.7-4.6s8.5,2.1,11.7,4.6c3.3,2.5,7,5.4,14.1,5.4s10.8-2.9,14.1-5.4c3.2-2.5,5.9-4.6,11.7-4.6
	c5.8,0,8.5,2.1,11.7,4.6c3.3,2.5,7,5.4,14.1,5.4c7.1,0,10.8-2.9,14.1-5.4c3.2-2.5,5.9-4.6,11.7-4.6c5.8,0,8.5,2.1,11.7,4.6
	c3.3,2.5,7,5.4,14.1,5.4c7.1,0,10.8-2.9,14.1-5.4c3.2-2.5,5.9-4.6,11.7-4.6s8.5,2.1,11.7,4.6c3.3,2.5,7,5.4,14.1,5.4
	s10.8-2.9,14.1-5.4c3.2-2.5,5.9-4.6,11.7-4.6s8.5,2.1,11.7,4.6c3.3,2.5,7,5.4,14.1,5.4s10.8-2.9,14.1-5.4c3.2-2.5,5.9-4.6,11.7-4.6
	s8.5,2.1,11.7,4.6c3.3,2.5,7,5.4,14.1,5.4c7.1,0,10.8-2.9,14.1-5.4c3.2-2.5,5.9-4.6,11.7-4.6s8.5,2.1,11.7,4.6
	c3.3,2.5,7,5.4,14.1,5.4s10.8-2.9,14.1-5.4c3.2-2.5,5.9-4.6,11.7-4.6s8.5,2.1,11.7,4.6c3.3,2.5,7,5.4,14.1,5.4
	c7.1,0,10.8-2.9,14.1-5.4c3.2-2.5,5.9-4.6,11.7-4.6c5.8,0,8.5,2.1,11.7,4.6c3.3,2.5,7,5.4,14.1,5.4s10.8-2.9,14.1-5.4
	c3.2-2.5,5.9-4.6,11.7-4.6s8.5,2.1,11.7,4.6c3.3,2.5,7,5.4,14.1,5.4s10.8-2.9,14.1-5.4c3.2-2.5,5.9-4.6,11.7-4.6s8.5,2.1,11.7,4.6
	c3.3,2.5,7,5.4,14.1,5.4s10.8-2.9,14.1-5.4c3.2-2.5,5.9-4.6,11.7-4.6s8.5,2.1,11.7,4.6c3.3,2.5,7,5.4,14.1,5.4
	c7.1,0,10.8-2.9,14.1-5.4c3.2-2.5,5.9-4.6,11.7-4.6s8.5,2.1,11.7,4.6c3.3,2.5,7,5.4,14.1,5.4s10.8-2.9,14.1-5.4
	c3.2-2.5,5.9-4.6,11.7-4.6s8.5,2.1,11.7,4.6c3.3,2.5,7,5.4,14.1,5.4s10.9-2.9,14.1-5.4c3.2-2.5,5.9-4.6,11.7-4.6s8.5,2.1,11.7,4.6
	c3.3,2.5,7,5.4,14.1,5.4s10.8-2.9,14.1-5.4c3.2-2.5,5.9-4.6,11.7-4.6s8.5,2.1,11.7,4.6c3.3,2.5,7,5.4,14.1,5.4s10.9-2.9,14.1-5.4
	c3.2-2.5,5.9-4.6,11.7-4.6h0V-709.7z"/>
<g>
	<path class="st1" d="M0,0v20.1h20V220h20V60.2c0-11,9-20.1,20-20.1s20,9,20,20.1V220h20V20.1h20V0H0z"/>
</g>
<g>
	<path class="st2" d="M-1563-1320.4c-67.1-65.5-150.1-98.3-248.9-98.3s-181.8,32.8-248.9,98.3c-67.1,65.5-100.7,147.2-100.7,245.1
		c0,97.9,33.6,179.5,100.7,245.1c67.1,65.5,150.1,98.3,248.9,98.3s181.8-32.8,248.9-98.3c67.1-65.6,100.7-147.2,100.7-245.1
		C-1462.3-1173.2-1495.8-1254.9-1563-1320.4z M-1577.2-1075.3c0,66.8-22.7,123.7-67.9,170.5c-45.3,46.9-100.9,70.3-166.7,70.3
		c-65.9,0-121.5-23.4-166.7-70.3c-45.3-46.9-67.9-103.7-67.9-170.5c0-66.8,22.6-123.6,67.9-170.5c45.3-46.9,100.8-70.3,166.7-70.3
		c65.9,0,121.4,23.4,166.7,70.3C-1599.9-1199-1577.2-1142.2-1577.2-1075.3z"/>
	<polygon class="st3" points="-736.5,-1396.3 -936.9,-979.2 -1137.4,-1396.3 -1313,-1396.3 -1313,-732.3 -1201,-732.3 
		-1201,-1250.6 -969.2,-790.3 -906.5,-790.3 -675,-1250.6 -675,-732.3 -563,-732.3 -563,-1396.3 	"/>
	<polygon class="st4" points="-242,-837.3 -242,-1015.3 76,-1015.3 76,-1115.3 -242,-1115.3 -242,-1291.3 112,-1291.3 112,-1396.3 
		-354,-1396.3 -354,-732.3 124,-732.3 124,-837.3 	"/>
	<path class="st5" d="M681.9-973.4c95.6-28.5,143.4-97.4,143.4-207c0-75.4-21.8-130.3-65.5-164.5s-116.2-51.4-217.5-51.4H294v664
		h113v-223h147.6l158.7,223h142.5L681.9-973.4z M407-1294.3h142.8c60.2,0,102,8,125.4,24.2c23.4,16.1,35.2,45.9,35.2,89.3
		c0,43.4-11.4,74.7-34.2,94.3c-22.8,19.6-65.9,29.2-129.2,29.2H407V-1294.3z"/>
	<path class="st5" d="M1560.6-1320.4c-67.1-65.5-150.1-98.3-248.9-98.3c-98.8,0-181.8,32.8-248.9,98.3
		c-67.1,65.5-100.7,147.2-100.7,245.1c0,97.9,33.6,179.5,100.7,245.1c67.1,65.5,150.1,98.3,248.9,98.3c98.8,0,181.8-32.8,248.9-98.3
		c67.1-65.6,100.7-147.2,100.7-245.1C1661.3-1173.2,1627.7-1254.9,1560.6-1320.4z M1546.4-1075.3c0,66.8-22.7,123.7-67.9,170.5
		c-45.3,46.9-100.9,70.3-166.7,70.3c-65.9,0-121.5-23.4-166.7-70.3c-45.3-46.9-67.9-103.7-67.9-170.5c0-66.8,22.6-123.6,67.9-170.5
		c45.3-46.9,100.8-70.3,166.7-70.3c65.9,0,121.4,23.4,166.7,70.3C1523.7-1199,1546.4-1142.2,1546.4-1075.3z"/>
</g>
</svg>
