<?xml version="1.0" encoding="utf-8"?>
<!-- Generator: Adobe Illustrator 19.2.1, SVG Export Plug-In . SVG Version: 6.00 Build 0)  -->
<svg version="1.1" id="_x31_200_x__x_800_px" xmlns="http://www.w3.org/2000/svg" xmlns:xlink="http://www.w3.org/1999/xlink"
	 x="0px" y="0px" viewBox="0 0 1290 128" style="enable-background:new 0 0 1290 128;" xml:space="preserve">
<style type="text/css">
	.st0{fill:#1D8DCD;}
	.st1{opacity:0.5;fill:#1C4A87;}
	.st2{fill:#1C4A87;}
</style>
<rect y="-1.1" class="st0" width="1290" height="130"/>
<path class="st1" d="M0,129.9h1290v-74c-5.8,0-8.5,2.1-11.7,4.6c-3.3,2.5-7,5.4-14.1,5.4s-10.9-2.9-14.1-5.4
	c-3.2-2.5-5.9-4.6-11.7-4.6s-8.5,2.1-11.7,4.6c-3.3,2.5-7,5.4-14.1,5.4s-10.9-2.9-14.1-5.4c-3.2-2.5-5.9-4.6-11.7-4.6
	s-8.5,2.1-11.7,4.6c-3.3,2.5-7,5.4-14.1,5.4s-10.9-2.9-14.1-5.4c-3.2-2.5-5.9-4.6-11.7-4.6s-8.5,2.1-11.7,4.6
	c-3.3,2.5-7,5.4-14.1,5.4s-10.8-2.9-14.1-5.4c-3.2-2.5-5.9-4.6-11.7-4.6s-8.5,2.1-11.7,4.6c-3.3,2.5-7,5.4-14.1,5.4
	c-7.1,0-10.8-2.9-14.1-5.4c-3.2-2.5-5.9-4.6-11.7-4.6s-8.5,2.1-11.7,4.6c-3.3,2.5-7,5.4-14.1,5.4S995.3,63,992,60.4
	c-3.2-2.5-5.9-4.6-11.7-4.6s-8.5,2.1-11.7,4.6c-3.3,2.5-7,5.4-14.1,5.4s-10.8-2.9-14.1-5.4c-3.2-2.5-5.9-4.6-11.7-4.6
	s-8.5,2.1-11.7,4.6c-3.3,2.5-7,5.4-14.1,5.4s-10.8-2.9-14.1-5.4c-3.2-2.5-5.9-4.6-11.7-4.6c-5.8,0-8.5,2.1-11.7,4.6
	c-3.3,2.5-7,5.4-14.1,5.4c-7.1,0-10.8-2.9-14.1-5.4c-3.2-2.5-5.9-4.6-11.7-4.6s-8.5,2.1-11.7,4.6c-3.3,2.5-7,5.4-14.1,5.4
	s-10.8-2.9-14.1-5.4c-3.2-2.5-5.9-4.6-11.7-4.6s-8.5,2.1-11.7,4.6c-3.3,2.5-7,5.4-14.1,5.4c-7.1,0-10.8-2.9-14.1-5.4
	c-3.2-2.5-5.9-4.6-11.7-4.6s-8.5,2.1-11.7,4.6c-3.3,2.5-7,5.4-14.1,5.4s-10.8-2.9-14.1-5.4c-3.2-2.5-5.9-4.6-11.7-4.6
	s-8.5,2.1-11.7,4.6c-3.3,2.5-7,5.4-14.1,5.4s-10.8-2.9-14.1-5.4c-3.2-2.5-5.9-4.6-11.7-4.6s-8.5,2.1-11.7,4.6
	c-3.3,2.5-7,5.4-14.1,5.4c-7.1,0-10.8-2.9-14.1-5.4c-3.2-2.5-5.9-4.6-11.7-4.6c-5.8,0-8.5,2.1-11.7,4.6c-3.3,2.5-7,5.4-14.1,5.4
	c-7.1,0-10.8-2.9-14.1-5.4c-3.2-2.5-5.9-4.6-11.7-4.6c-5.8,0-8.5,2.1-11.7,4.6c-3.3,2.5-7,5.4-14.1,5.4s-10.8-2.9-14.1-5.4
	c-3.2-2.5-5.9-4.6-11.7-4.6s-8.5,2.1-11.7,4.6c-3.3,2.5-7,5.4-14.1,5.4s-10.8-2.9-14.1-5.4c-3.2-2.5-5.9-4.6-11.7-4.6
	s-8.5,2.1-11.7,4.6c-3.3,2.5-7,5.4-14.1,5.4c-7.1,0-10.8-2.9-14.1-5.4c-3.2-2.5-5.9-4.6-11.7-4.6s-8.5,2.1-11.7,4.6
	c-3.3,2.5-7,5.4-14.1,5.4s-10.8-2.9-14.1-5.4c-3.2-2.5-5.9-4.6-11.7-4.6s-8.5,2.1-11.7,4.6c-3.3,2.5-7,5.4-14.1,5.4
	s-10.8-2.9-14.1-5.4c-3.2-2.5-5.9-4.6-11.7-4.6c-5.8,0-8.5,2.1-11.7,4.6c-3.3,2.5-7,5.4-14.1,5.4s-10.8-2.9-14.1-5.4
	c-3.2-2.5-5.9-4.6-11.7-4.6c-5.8,0-8.5,2.1-11.7,4.6c-3.3,2.5-7,5.4-14.1,5.4c-7.1,0-10.8-2.9-14.1-5.4c-3.2-2.5-5.9-4.6-11.7-4.6
	c-5.8,0-8.5,2.1-11.7,4.6c-3.3,2.5-7,5.4-14.1,5.4s-10.8-2.9-14.1-5.4c-3.2-2.5-5.9-4.6-11.7-4.6s-8.5,2.1-11.7,4.6
	c-3.3,2.5-7,5.4-14.1,5.4S66.5,63,63.3,60.4c-3.2-2.5-5.9-4.6-11.7-4.6c-5.8,0-8.5,2.1-11.7,4.6c-3.3,2.5-7,5.4-14.1,5.4
	c-7.1,0-10.8-2.9-14.1-5.4C8.5,58,5.8,55.9,0,55.9L0,129.9z"/>
<path class="st2" d="M0,128.1h1290V84.5c-5.8,0-8.5,2.1-11.7,4.6c-3.3,2.5-7,5.4-14.1,5.4s-10.9-2.9-14.1-5.4
	c-3.2-2.5-5.9-4.6-11.7-4.6s-8.5,2.1-11.7,4.6c-3.3,2.5-7,5.4-14.1,5.4s-10.9-2.9-14.1-5.4c-3.2-2.5-5.9-4.6-11.7-4.6
	s-8.5,2.1-11.7,4.6c-3.3,2.5-7,5.4-14.1,5.4s-10.9-2.9-14.1-5.4c-3.2-2.5-5.9-4.6-11.7-4.6s-8.5,2.1-11.7,4.6
	c-3.3,2.5-7,5.4-14.1,5.4s-10.8-2.9-14.1-5.4c-3.2-2.5-5.9-4.6-11.7-4.6s-8.5,2.1-11.7,4.6c-3.3,2.5-7,5.4-14.1,5.4
	c-7.1,0-10.8-2.9-14.1-5.4c-3.2-2.5-5.9-4.6-11.7-4.6s-8.5,2.1-11.7,4.6c-3.3,2.5-7,5.4-14.1,5.4s-10.8-2.9-14.1-5.4
	c-3.2-2.5-5.9-4.6-11.7-4.6s-8.5,2.1-11.7,4.6c-3.3,2.5-7,5.4-14.1,5.4s-10.8-2.9-14.1-5.4c-3.2-2.5-5.9-4.6-11.7-4.6
	s-8.5,2.1-11.7,4.6c-3.3,2.5-7,5.4-14.1,5.4s-10.8-2.9-14.1-5.4c-3.2-2.5-5.9-4.6-11.7-4.6c-5.8,0-8.5,2.1-11.7,4.6
	c-3.3,2.5-7,5.4-14.1,5.4c-7.1,0-10.8-2.9-14.1-5.4c-3.2-2.5-5.9-4.6-11.7-4.6s-8.5,2.1-11.7,4.6c-3.3,2.5-7,5.4-14.1,5.4
	s-10.8-2.9-14.1-5.4c-3.2-2.5-5.9-4.6-11.7-4.6s-8.5,2.1-11.7,4.6c-3.3,2.5-7,5.4-14.1,5.4c-7.1,0-10.8-2.9-14.1-5.4
	c-3.2-2.5-5.9-4.6-11.7-4.6s-8.5,2.1-11.7,4.6c-3.3,2.5-7,5.4-14.1,5.4s-10.8-2.9-14.1-5.4c-3.2-2.5-5.9-4.6-11.7-4.6
	s-8.5,2.1-11.7,4.6c-3.3,2.5-7,5.4-14.1,5.4s-10.8-2.9-14.1-5.4c-3.2-2.5-5.9-4.6-11.7-4.6s-8.5,2.1-11.7,4.6
	c-3.3,2.5-7,5.4-14.1,5.4c-7.1,0-10.8-2.9-14.1-5.4c-3.2-2.5-5.9-4.6-11.7-4.6c-5.8,0-8.5,2.1-11.7,4.6c-3.3,2.5-7,5.4-14.1,5.4
	c-7.1,0-10.8-2.9-14.1-5.4c-3.2-2.5-5.9-4.6-11.7-4.6c-5.8,0-8.5,2.1-11.7,4.6c-3.3,2.5-7,5.4-14.1,5.4s-10.8-2.9-14.1-5.4
	c-3.2-2.5-5.9-4.6-11.7-4.6s-8.5,2.1-11.7,4.6c-3.3,2.5-7,5.4-14.1,5.4s-10.8-2.9-14.1-5.4c-3.2-2.5-5.9-4.6-11.7-4.6
	s-8.5,2.1-11.7,4.6c-3.3,2.5-7,5.4-14.1,5.4c-7.1,0-10.8-2.9-14.1-5.4c-3.2-2.5-5.9-4.6-11.7-4.6s-8.5,2.1-11.7,4.6
	c-3.3,2.5-7,5.4-14.1,5.4s-10.8-2.9-14.1-5.4c-3.2-2.5-5.9-4.6-11.7-4.6s-8.5,2.1-11.7,4.6c-3.3,2.5-7,5.4-14.1,5.4
	s-10.8-2.9-14.1-5.4c-3.2-2.5-5.9-4.6-11.7-4.6c-5.8,0-8.5,2.1-11.7,4.6c-3.3,2.5-7,5.4-14.1,5.4s-10.8-2.9-14.1-5.4
	c-3.2-2.5-5.9-4.6-11.7-4.6c-5.8,0-8.5,2.1-11.7,4.6c-3.3,2.5-7,5.4-14.1,5.4c-7.1,0-10.8-2.9-14.1-5.4c-3.2-2.5-5.9-4.6-11.7-4.6
	c-5.8,0-8.5,2.1-11.7,4.6c-3.3,2.5-7,5.4-14.1,5.4s-10.8-2.9-14.1-5.4c-3.2-2.5-5.9-4.6-11.7-4.6s-8.5,2.1-11.7,4.6
	c-3.3,2.5-7,5.4-14.1,5.4s-10.8-2.9-14.1-5.4c-3.2-2.5-5.9-4.6-11.7-4.6c-5.8,0-8.5,2.1-11.7,4.6c-3.3,2.5-7,5.4-14.1,5.4
	c-7.1,0-10.8-2.9-14.1-5.4C8.5,86.7,5.8,84.5,0,84.5L0,128.1z"/>
</svg>
